<svg width="16" height="16" viewBox="0 0 16 16" fill="none" xmlns="http://www.w3.org/2000/svg">
<path d="M11 1C9.9 1 8.9 1.4 8.2 2.2L2.2 8.2C1.4 8.9 1 9.9 1 11C1 13.2 2.8 15 5 15C6.1 15 7.1 14.6 7.8 13.8L8 13.7L6.6 12.3L6.4 12.5C6 12.8 5.5 13 5 13C3.9 13 3 12.1 3 11C3 10.5 3.2 10 3.6 9.6L9.6 3.6C10 3.2 10.5 3 11 3C12.1 3 13 3.9 13 5C13 5.5 12.8 6 12.4 6.4L9 9.9C8.8 10 8.7 10 8.6 10C8.3 10 8.1 9.8 8.1 9.5C8.1 9.4 8.1 9.3 8.2 9.1L11 6.4L9.6 5L6.9 7.7C6.4 8.2 6.1 8.9 6.1 9.5C6.1 10.9 7.2 12 8.6 12C9.2 12 9.9 11.8 10.4 11.3L13.9 7.8C14.6 7.1 15 6.1 15 5C15 2.8 13.3 1 11 1Z" fill="black" fill-opacity="0.75"/>
</svg>
