<svg width="24" height="24" viewBox="0 0 24 24" fill="none" xmlns="http://www.w3.org/2000/svg">
<path d="M20.5 10.5L14.1 17C13.5 17.6 12.7 17.9 12 17.9C11.2 17.9 10.5 17.6 9.9 17C9.3 16.4 9 15.6 9 14.8C9 14 9.3 13.3 9.9 12.7L15.6 7L17 8.4L11.3 14.1C11.1 14.3 11 14.6 11 14.8C11 15.1 11.1 15.3 11.3 15.5C11.5 15.7 11.8 15.8 12 15.8C12.3 15.8 12.5 15.7 12.7 15.5L19.1 9.1C19.7 8.5 20 7.8 20 7C20 6.2 19.7 5.5 19.1 4.9C18.5 4.3 17.8 4 17 4C16.2 4 15.5 4.3 14.9 4.9L4.9 14.9C4.3 15.5 4 16.2 4 17C4 17.8 4.3 18.5 4.9 19.1C5.5 19.7 6.2 20 7 20C7.8 20 8.5 19.7 9.1 19.1L9.8 18.4L11.2 19.8L10.5 20.5C9.5 21.5 8.2 22 7 22C5.7 22 4.4 21.5 3.5 20.5C2.5 19.5 2 18.2 2 17C2 15.7 2.5 14.4 3.5 13.5L13.5 3.5C14.5 2.5 15.8 2 17 2C18.3 2 19.6 2.5 20.5 3.5C21.5 4.5 22 5.8 22 7C22 8.3 21.5 9.6 20.5 10.5Z" fill="black" fill-opacity="0.75"/>
</svg>
