<svg width="24" height="24" viewBox="0 0 24 24" fill="none" xmlns="http://www.w3.org/2000/svg">
<path d="M20.5 10.9C21.1 12.3 21.2 13.8 20.7 15.2C20.1 17 18.6 18.4 16.8 18.8C16.2 20.6 14.3 22 12.1 22H11.9C9.7 22 7.9 20.6 7.2 18.8C5.4 18.4 3.9 17 3.3 15.2C2.8 13.8 2.9 12.2 3.5 10.9L4.1 9.5C2.9 8.8 2 7.5 2 6C2 3.8 3.8 2 6 2C7.5 2 8.8 2.8 9.5 4.1C9.8 4 10.1 4 10.5 4H13.6C13.9 4 14.3 4 14.6 4.1C15.2 2.8 16.5 2 18 2C20.2 2 22 3.8 22 6C22 7.5 21.1 8.8 19.9 9.5L20.5 10.9ZM7.6 4.8C7.2 4.3 6.6 4 6 4C4.9 4 4 4.9 4 6C4 6.7 4.4 7.3 4.9 7.7L5 7.6C5.5 6.3 6.4 5.4 7.6 4.8ZM9 12.2C9.7 12.2 10.2 11.6 10.2 11C10.2 10.4 9.7 9.8 9 9.8C8.3 9.8 7.8 10.3 7.8 11C7.8 11.7 8.3 12.2 9 12.2ZM15 17L14.6 15C14.4 13.9 13.3 13 12 13C10.7 13 9.6 13.8 9.4 15L9 17C8.9 17.7 9.1 18.4 9.5 18.9C10.1 19.6 10.9 19.9 11.8 19.9H12C12.9 19.9 13.8 19.5 14.3 18.9C14.9 18.4 15.1 17.7 15 17ZM16.2 11C16.2 10.3 15.6 9.8 15 9.8C14.4 9.8 13.8 10.4 13.8 11C13.8 11.6 14.4 12.2 15 12.2C15.6 12.2 16.2 11.7 16.2 11ZM20 6C20 4.9 19.1 4 18 4C17.4 4 16.8 4.3 16.4 4.8C17.5 5.4 18.4 6.4 19 7.6L19.1 7.7C19.6 7.3 20 6.7 20 6ZM13 15H11C10.5 15 10 15.4 10 16C10 17.1 10.9 18 12 18C13.1 18 14 17.1 14 16C14 15.4 13.5 15 13 15Z" fill="black" fill-opacity="0.75"/>
</svg>
