<svg width="16" height="16" viewBox="0 0 16 16" fill="none" xmlns="http://www.w3.org/2000/svg">
<path d="M15 11.8C15 11.3 14.8 10.7 14.5 10.3L12.9 8.19999L12.4 4.79999C12 2.39999 9.8 0.699994 7.4 1.09999C5.4 1.39999 3.9 2.89999 3.6 4.79999L3.1 8.19999L1.5 10.3C1.2 10.7 1 11.3 1 11.8V13H6.6C6.5 13.2 6.5 13.3 6.5 13.5C6.5 14.3 7.2 15 8 15C8.8 15 9.5 14.3 9.5 13.5C9.5 13.3 9.5 13.2 9.4 13H15V11.8ZM8 2.99999C9.2 2.99999 10.2 3.89999 10.4 5.09999L10.9 7.99999H5.1L5.5 5.09999C5.8 3.89999 6.8 2.99999 8 2.99999ZM3.5 11L4.7 9.39999L5 8.99999H11L11.3 9.39999L12.5 11H3.5Z" fill="black" fill-opacity="0.75"/>
</svg>
