<svg width="24" height="24" viewBox="0 0 24 24" fill="none" xmlns="http://www.w3.org/2000/svg">
<path d="M2 2.7L6 6.7C5.9 6.9 5.8 7.2 5.8 7.4L5 13L3.2 15.2C2.4 16.1 2 17 2 18V19H10.3C10.1 19.3 10 19.6 10 20C10 21.1 10.9 22 12 22C13.1 22 14 21.1 14 20C14 19.6 13.9 19.3 13.7 19H18.3L21.3 22L22 21.3L2.7 2L2 2.7ZM7.7 8.4L12.3 13H7L7.7 8.4ZM13.3 14L16.3 17H4.3C4.4 16.8 4.5 16.7 4.7 16.5L6.8 14H13.3ZM22 18V19H21.1L19.9 17.8C19.8 17 19.5 16.8 19.3 16.4L17.3 14H16.2L15.2 13H17L16.2 7.7C15.9 5.6 14.1 4 12 4C10.4 4 9 4.9 8.3 6.2L6.9 4.7C8 3.1 9.9 2 12 2C15.1 2 17.8 4.3 18.2 7.4L19 13L20.8 15.2C21.6 16.1 22 17 22 18Z" fill="black" fill-opacity="0.75"/>
</svg>
