<svg width="16" height="16" viewBox="0 0 16 16" fill="none" xmlns="http://www.w3.org/2000/svg">
<path d="M8 1C6.7 1 5.5 1.6 4.7 2.6L6.1 4C6.9 2.9 8.3 2.7 9.4 3.4C9.9 3.8 10.3 4.3 10.4 5L10.9 8.7L15 12.8V11.7C15 11 14.8 10.3 14.3 9.8L12.8 8L12.3 4.7C12 2.6 10.2 1 8 1ZM1.7 1L1 1.7L3.7 4.4L3.2 8L1.7 9.9C1.2 10.4 1 11.1 1 11.8V13H6.6C6.5 13.2 6.5 13.3 6.5 13.5C6.5 14.3 7.2 15 8 15C8.8 15 9.5 14.3 9.5 13.5C9.5 13.3 9.5 13.2 9.4 13H12.3L14.3 15L15 14.3L1.7 1ZM5.2 8L5.5 6.2L7.3 8H5.2ZM3.3 11L5 9H8.3L10.3 11H3.3Z" fill="black" fill-opacity="0.75"/>
</svg>
