<svg width="24" height="24" viewBox="0 0 24 24" fill="none" xmlns="http://www.w3.org/2000/svg">
<path d="M23 11H18.11C18.35 11.27 18.5 11.61 18.5 12C18.5 12.83 17.83 13.5 17 13.5C16.17 13.5 15.5 12.83 15.5 12C15.5 11.61 15.65 11.27 15.89 11H15.16L15.14 10.82C15 9.78 14.63 8.83 14.08 8H21.54L22.3 8.9C22.77 9.48 23 10.02 23 10.6V11ZM21.12 7L20.73 4.26C20.49 2.39 18.89 1 17.01 1C15.12 1 13.53 2.4 13.29 4.26L12.94 6.68C13.06 6.78 13.17 6.89 13.27 7H21.13H21.12ZM13.16 11.08C12.85 8.75 10.86 7 8.5 7C6.14 7 4.15 8.74 3.84 11.08L3.33 15H13.66L13.15 11.08H13.16ZM14.01 16H2.99L1.88 17.32C1.3 18.04 1 18.72 1 19.45V20.01H6.78C6.61 20.31 6.5 20.64 6.5 21.01C6.5 22.11 7.4 23.01 8.5 23.01C9.6 23.01 10.5 22.11 10.5 21.01C10.5 20.64 10.39 20.31 10.22 20.01H16V19.45C16 18.72 15.7 18.04 15.12 17.32L14.01 16Z" fill="black" fill-opacity="0.75"/>
</svg>
