<svg width="24" height="24" viewBox="0 0 24 24" fill="none" xmlns="http://www.w3.org/2000/svg">
<path d="M22 19.2399C22 19.4999 21.97 19.7599 21.91 20.0199L21.6902 20.9999L14.9235 19.4899C14.9635 19.6499 14.9935 19.8199 14.9935 19.9999C14.9935 21.0999 14.094 21.9999 12.9945 21.9999C11.8951 21.9999 10.9955 21.0999 10.9955 19.9999C10.9955 19.5099 11.1754 19.0699 11.4653 18.7199L2 16.6099L2.21989 15.6299C2.42979 14.6799 3.01949 13.8799 3.999 13.1099L5.21839 12.1799L20.6707 15.6199L21.3803 16.9799C21.7801 17.7899 22 18.5199 22 19.2299V19.2399ZM20.5107 8.83989C20.7906 5.69989 18.6917 2.83989 15.5932 2.14989C15.1234 2.04989 14.6537 1.99989 14.1839 1.99989C11.5852 1.99989 9.2064 3.60989 8.28686 6.11989L6.27786 11.3999L20.071 14.4699L20.5107 8.83989ZM10.2959 0.989893L7.6072 0.389893C6.24788 1.51989 5.17841 2.98989 4.54873 4.70989L2.91954 8.97989L4.88856 9.41989L6.41779 5.40989C7.12744 3.47989 8.53673 1.92989 10.2859 0.989893H10.2959Z" fill="black" fill-opacity="0.75"/>
</svg>
