<svg width="24" height="24" viewBox="0 0 24 24" fill="none" xmlns="http://www.w3.org/2000/svg">
<path d="M22 18C22 17 21.6 16.1 20.8 15.2L19 13L18.2 7.4C17.8 4.3 15.1 2 12 2C8.9 2 6.2 4.3 5.8 7.4L5 13L3.2 15.2C2.4 16.1 2 17 2 18V19H10.3C10.1 19.3 10 19.6 10 20C10 21.1 10.9 22 12 22C13.1 22 14 21.1 14 20C14 19.6 13.9 19.3 13.7 19H22V18ZM12 4C14.1 4 15.9 5.6 16.2 7.7L17 13H7L7.8 7.7C8.1 5.6 9.9 4 12 4ZM4.3 17C4.4 16.8 4.5 16.7 4.7 16.5L6.8 14H17.3L19.3 16.4C19.5 16.6 19.6 16.8 19.7 17H4.3Z" fill="black" fill-opacity="0.75"/>
</svg>
