<svg width="16" height="16" viewBox="0 0 16 16" fill="none" xmlns="http://www.w3.org/2000/svg">
<path d="M14.96 2H11.0128C9.80371 2 8.72448 2.55 7.98501 3.4C7.24554 2.55 6.1763 2 4.95717 2H1.02998C1.02998 2 1 2.01 1 2.03V12.97C1 12.97 1.00999 13 1.02998 13H4.87723C5.72662 13 6.48608 13.54 6.76588 14.34L6.99572 14.98C6.99572 14.98 7.00571 15 7.0157 15H8.9843C8.9843 15 9.00428 15 9.00428 14.98L9.23412 14.34C9.51392 13.54 10.2734 13 11.1228 13H14.97C14.97 13 15 12.99 15 12.97V2.03C15 2.03 14.99 2 14.97 2H14.96ZM12.9914 11H11.1128C10.3433 11 9.61385 11.22 8.99429 11.61V6.03C8.99429 4.91 9.90364 4 11.0228 4H12.9914V11ZM2.99857 4H4.96717C6.08637 4 6.99572 4.91 6.99572 6.03V11.61C6.37616 11.22 5.64668 11 4.87723 11H2.99857V4Z" fill="black" fill-opacity="0.75"/>
</svg>
