<svg width="24" height="24" viewBox="0 0 24 24" fill="none" xmlns="http://www.w3.org/2000/svg">
<path d="M17 12C17 14.8 14.8 17 12 17C9.20003 17 7.00003 14.8 7.00003 12C7.00003 9.20001 9.20003 7.00001 12 7.00001C14.8 7.00001 17 9.20001 17 12ZM14.7 5.50001C15.2 5.70001 15.8 5.50001 16 5.00001L16.8 3.20001C17 2.70001 16.8 2.10001 16.3 1.90001C15.8 1.70001 15.2 1.90001 15 2.40001L14.2 4.20001C13.9 4.70001 14.2 5.30001 14.7 5.50001ZM19.8 9.90001L21.6 9.10001C22.1 8.90001 22.4 8.30001 22.1 7.80001C22 7.30001 21.4 7.00001 20.9 7.20001L19 8.00001C18.5 8.20001 18.2 8.80001 18.5 9.30001C18.7 9.80001 19.3 10.1 19.8 9.90001ZM4.20003 14.1L2.40003 14.9C1.90003 15.1 1.60003 15.7 1.90003 16.2C2.20003 16.7 2.70003 17 3.20003 16.7L5.00003 16C5.50003 15.8 5.80003 15.2 5.50003 14.7C5.20003 14.2 4.70003 13.9 4.20003 14.1ZM21.6 14.9L19.8 14.1C19.3 13.9 18.7 14.1 18.5 14.6C18.3 15.1 18.5 15.7 19 15.9L20.8 16.7C21.3 16.9 21.9 16.7 22.1 16.2C22.4 15.7 22.1 15.1 21.6 14.9ZM5.00003 8.00001L3.10003 7.20001C2.60003 7.00001 2.00003 7.30001 1.80003 7.80001C1.60003 8.30001 1.80003 8.90001 2.30003 9.10001L4.10003 9.90001C4.60003 10.1 5.20003 9.90001 5.40003 9.40001C5.70003 8.80001 5.50003 8.20001 5.00003 8.00001ZM8.00003 5.00001C8.20003 5.50001 8.80003 5.80001 9.30003 5.50001C9.80003 5.30001 10.1 4.70001 9.80003 4.20001L9.10003 2.40001C8.90003 1.90001 8.30003 1.60001 7.80003 1.80001C7.30003 2.00001 7.00003 2.60001 7.20003 3.10001L8.00003 5.00001ZM9.30003 18.5C8.80003 18.3 8.20003 18.5 8.00003 19L7.20003 20.8C7.00003 21.3 7.20003 21.9 7.70003 22.1C8.20003 22.3 8.80003 22.1 9.00003 21.6L9.80003 19.8C10.1 19.3 9.80003 18.7 9.30003 18.5ZM16 19C15.8 18.5 15.2 18.2 14.7 18.5C14.2 18.7 13.9 19.3 14.2 19.8L15 21.6C15.2 22.1 15.8 22.4 16.3 22.1C16.8 21.9 17.1 21.3 16.8 20.8L16 19Z" fill="black" fill-opacity="0.75"/>
</svg>
