<svg width="24" height="24" viewBox="0 0 24 24" fill="none" xmlns="http://www.w3.org/2000/svg">
<path d="M12 7C9.20001 7 7.00001 9.2 7.00001 12C7.00001 14.8 9.20001 17 12 17C14.8 17 17 14.8 17 12C17 9.2 14.8 7 12 7ZM12 15C10.3 15 9.00001 13.7 9.00001 12C9.00001 10.3 10.3 9 12 9C13.7 9 15 10.3 15 12C15 13.7 13.7 15 12 15ZM14.1 4.2L14.9 2.4C15.1 1.9 15.7 1.6 16.2 1.9C16.7 2 17 2.6 16.8 3.1L16 5C15.8 5.5 15.2 5.8 14.7 5.5C14.2 5.3 13.9 4.7 14.1 4.2ZM18.5 9.3C18.3 8.8 18.5 8.2 19 8L20.8 7.2C21.3 7 21.9 7.2 22.1 7.7C22.3 8.2 22.1 8.8 21.6 9L19.8 9.8C19.3 10.1 18.7 9.8 18.5 9.3ZM5.50001 14.7C5.70001 15.2 5.50001 15.8 5.00001 16L3.20001 16.8C2.70001 17 2.10001 16.8 1.90001 16.3C1.70001 15.8 1.90001 15.2 2.40001 15L4.20001 14.2C4.70001 13.9 5.30001 14.2 5.50001 14.7ZM22.2 16.2C22 16.7 21.4 17 20.9 16.7L19 16C18.5 15.8 18.2 15.2 18.5 14.7C18.8 14.2 19.3 13.9 19.8 14.2L21.6 15C22.1 15.1 22.4 15.7 22.2 16.2ZM5.50001 9.3C5.30001 9.8 4.70001 10.1 4.20001 9.8L2.40001 9.1C1.90001 8.9 1.60001 8.3 1.80001 7.8C2.00001 7.3 2.60001 7 3.10001 7.2L5.00001 8C5.50001 8.2 5.70001 8.8 5.50001 9.3ZM7.20001 3.1C7.00001 2.6 7.30001 2 7.80001 1.8C8.30001 1.6 8.90001 1.8 9.10001 2.3L9.90001 4.1C10.1 4.6 9.90001 5.2 9.40001 5.4C8.80001 5.7 8.20001 5.5 8.00001 5L7.20001 3.1ZM9.90001 19.8L9.10001 21.6C8.90001 22.1 8.30001 22.4 7.80001 22.1C7.30001 22 7.00001 21.4 7.20001 20.9L8.00001 19C8.20001 18.5 8.80001 18.2 9.30001 18.5C9.80001 18.7 10.1 19.3 9.90001 19.8ZM16.8 20.9C17 21.4 16.8 22 16.3 22.2C15.8 22.4 15.2 22.2 15 21.7L14.2 19.9C14 19.4 14.2 18.8 14.7 18.6C15.2 18.4 15.8 18.6 16 19.1L16.8 20.9Z" fill="black" fill-opacity="0.75"/>
</svg>
