<svg width="24" height="24" viewBox="0 0 24 24" fill="none" xmlns="http://www.w3.org/2000/svg">
<path d="M21.5 7H21V5C21 3.3 19.7 2 18 2H6C4.3 2 3 3.3 3 5V7H2.5C2.2 7 2 7.2 2 7.5V11.5C2 11.8 2.2 12 2.5 12H3V18C3 18.6 3.4 19 4 19V21C4 21.6 4.4 22 5 22H6C6.6 22 7 21.6 7 21V19H17V21C17 21.6 17.4 22 18 22H19C19.6 22 20 21.6 20 21V19C20.6 19 21 18.6 21 18V12H21.5C21.8 12 22 11.8 22 11.5V7.5C22 7.2 21.8 7 21.5 7ZM6.5 17C5.7 17 5 16.3 5 15.5C5 14.7 5.7 14 6.5 14C7.3 14 8 14.7 8 15.5C8 16.3 7.3 17 6.5 17ZM17.5 17C16.7 17 16 16.3 16 15.5C16 14.7 16.7 14 17.5 14C18.3 14 19 14.7 19 15.5C19 16.3 18.3 17 17.5 17ZM19 12H5V5C5 4.4 5.4 4 6 4H18C18.6 4 19 4.4 19 5V12Z" fill="black" fill-opacity="0.75"/>
</svg>
