<svg width="24" height="24" viewBox="0 0 24 24" fill="none" xmlns="http://www.w3.org/2000/svg">
<path d="M3 3V18C3 19.66 4.34 21 6 21H18C19.66 21 21 19.66 21 18V3H3ZM16 4.75C16.69 4.75 17.25 5.31 17.25 6C17.25 6.69 16.69 7.25 16 7.25C15.31 7.25 14.75 6.69 14.75 6C14.75 5.31 15.31 4.75 16 4.75ZM8 4.75C8.69 4.75 9.25 5.31 9.25 6C9.25 6.69 8.69 7.25 8 7.25C7.31 7.25 6.75 6.69 6.75 6C6.75 5.31 7.31 4.75 8 4.75ZM19 18C19 18.55 18.55 19 18 19H6C5.45 19 5 18.55 5 18V9H19V18ZM7 11H9V13H7V11ZM7 15H9V17H7V15ZM11 11H13V13H11V11ZM11 15H13V17H11V15ZM15 11H17V13H15V11ZM15 15H17V17H15V15Z" fill="black" fill-opacity="0.75"/>
</svg>
