<svg width="24" height="24" viewBox="0 0 24 24" fill="none" xmlns="http://www.w3.org/2000/svg">
<path d="M20 19V20H4V19H20ZM5 21V22H19V21H5ZM22 5V15C22 15.7956 21.6839 16.5587 21.1213 17.1213C20.5587 17.6839 19.7956 18 19 18H5C4.20435 18 3.44129 17.6839 2.87868 17.1213C2.31607 16.5587 2 15.7956 2 15V5C2 4.20435 2.31607 3.44129 2.87868 2.87868C3.44129 2.31607 4.20435 2 5 2H19C19.7956 2 20.5587 2.31607 21.1213 2.87868C21.6839 3.44129 22 4.20435 22 5ZM14.25 11L16.5 8.75L13.33 8.42L12 5.5L10.67 8.42L7.5 8.75L9.75 11L9 14L12 12.5L15 14L14.25 11Z" fill="black" fill-opacity="0.75"/>
</svg>
