<svg width="24" height="24" viewBox="0 0 24 24" fill="none" xmlns="http://www.w3.org/2000/svg">
<path d="M22.5 9H21.1L19.7 5.8C19.3 4.7 18.2 4 17 4H7C5.8 4 4.7 4.7 4.2 5.8L2.9 9H1.5C1.2 9 1 9.2 1 9.5V10.5C1 10.8 1.2 11 1.5 11H2V17C2 17.6 2.4 18 3 18V20C3 20.6 3.4 21 4 21H5C5.6 21 6 20.6 6 20V18H18V20C18 20.6 18.4 21 19 21H20C20.6 21 21 20.6 21 20V18C21.6 18 22 17.6 22 17V11H22.5C22.8 11 23 10.8 23 10.5V9.5C23 9.2 22.8 9 22.5 9ZM7 6H17C17.4 6 17.8 6.2 17.9 6.6L19.4 10H4.6L6.1 6.6C6.2 6.2 6.6 6 7 6ZM5.5 15C4.7 15 4 14.3 4 13.5C4 12.7 4.7 12 5.5 12C6.3 12 7 12.7 7 13.5C7 14.3 6.3 15 5.5 15ZM18.5 15C17.7 15 17 14.3 17 13.5C17 12.7 17.7 12 18.5 12C19.3 12 20 12.7 20 13.5C20 14.3 19.3 15 18.5 15Z" fill="black" fill-opacity="0.75"/>
</svg>
