<svg width="24" height="24" viewBox="0 0 24 24" fill="none" xmlns="http://www.w3.org/2000/svg">
<path d="M20 4H4C2.3 4 1 5.3 1 7V17C1 18.7 2.3 20 4 20H20C21.7 20 23 18.7 23 17V7C23 5.3 21.7 4 20 4ZM21 17C21 17.6 20.6 18 20 18H4C3.4 18 3 17.6 3 17V7C3 6.4 3.4 6 4 6H20C20.6 6 21 6.4 21 7V17ZM11 10.9V11H9V10.9C9 10.3 8.6 10 8 10C7.4 10 7 10.3 7 10.9V13.1C7 13.7 7.4 14 8 14C8.6 14 9 13.7 9 13.1V13H11V13.1C11 14.8 9.7 16 8 16C6.3 16 5 14.8 5 13.1V10.9C5 9.2 6.3 8 8 8C9.7 8 11 9.2 11 10.9ZM19 10.9V11H17V10.9C17 10.3 16.6 10 16 10C15.4 10 15 10.3 15 10.9V13.1C15 13.7 15.4 14 16 14C16.6 14 17 13.7 17 13.1V13H19V13.1C19 14.8 17.7 16 16 16C14.3 16 13 14.8 13 13.1V10.9C13 9.2 14.3 8 16 8C17.7 8 19 9.2 19 10.9Z" fill="black" fill-opacity="0.75"/>
</svg>
