<svg width="16" height="16" viewBox="0 0 16 16" fill="none" xmlns="http://www.w3.org/2000/svg">
<path d="M12 3H4C2.34 3 1 4.34 1 6V10C1 11.66 2.34 13 4 13H12C13.66 13 15 11.66 15 10V6C15 4.34 13.66 3 12 3ZM13 10C13 10.55 12.55 11 12 11H4C3.45 11 3 10.55 3 10V6C3 5.45 3.45 5 4 5H12C12.55 5 13 5.45 13 6V10ZM6 7.5C6 7.22 5.78 7 5.5 7C5.22 7 5 7.22 5 7.5V8.5C5 8.78 5.22 9 5.5 9C5.78 9 6 8.78 6 8.5H7C7 9.33 6.33 10 5.5 10C4.67 10 4 9.33 4 8.5V7.5C4 6.67 4.67 6 5.5 6C6.33 6 7 6.67 7 7.5H6ZM11 7.5C11 7.22 10.78 7 10.5 7C10.22 7 10 7.22 10 7.5V8.5C10 8.78 10.22 9 10.5 9C10.78 9 11 8.78 11 8.5H12C12 9.33 11.33 10 10.5 10C9.67 10 9 9.33 9 8.5V7.5C9 6.67 9.67 6 10.5 6C11.33 6 12 6.67 12 7.5H11Z" fill="black" fill-opacity="0.75"/>
</svg>
