<svg width="32" height="32" viewBox="0 0 32 32" fill="none" xmlns="http://www.w3.org/2000/svg">
<path d="M21.32 8C25.42 8 28.63 11.21 28.63 15.31C28.63 17.64 27.56 19.8 25.77 21.11L18 26.23V22.62H10.68C6.58 22.62 3.36999 19.41 3.36999 15.31C3.36999 11.21 6.58 8 10.68 8H21.32ZM21.32 6H10.68C5.49 6 1.37 10.12 1.37 15.31C1.37 20.5 5.49 24.62 10.68 24.62H16V29.94L26.91 22.76C29.3 21.03 30.63 18.24 30.63 15.31C30.63 10.12 26.51 6 21.32 6Z" fill="black" fill-opacity="0.75"/>
<path d="M22.65 12.81H9.35V13.81H22.65V12.81Z" fill="black" fill-opacity="0.75"/>
<path d="M18.66 16.8H9.35V17.8H18.66V16.8Z" fill="black" fill-opacity="0.75"/>
</svg>
