<svg width="16" height="16" viewBox="0 0 16 16" fill="none" xmlns="http://www.w3.org/2000/svg">
<path d="M11 7H9.1L8.1 6H11V7ZM15 14.3L14.3 15L12.4 13.1L8 16V13H5.5C2.7 13 0 10.8 0 7.5C0 5.7 0.9 4.1 2.4 3.1L1 1.7L1.7 1L15 14.3ZM10.3 11L8.3 9H5V8H7.3L6.3 7H5V6H5.3L3.8 4.5C2.7 5.2 2 6.3 2 7.5C2 9.4 3.6 11 5.5 11H10.3ZM10.5 2H5.7C5.2 2 4.7 2.1 4.3 2.2L6.1 4H10.5C12.4 4 14 5.6 14 7.5V7.6C14 8.8 13.5 9.8 12.7 10.6L14.1 12C15.3 10.9 16 9.3 16 7.6V7.5C16 4.5 13.5 2 10.5 2Z" fill="black" fill-opacity="0.75"/>
</svg>
