<svg width="24" height="24" viewBox="0 0 24 24" fill="none" xmlns="http://www.w3.org/2000/svg">
<path d="M8.1 6L6.3 4.2C6.9 4.1 7.4 4 8 4H16C19.9 4 23 7.1 23 11C23 13.2 22 15.3 20.2 16.6L19.3 17.2L17.9 15.8L19 15C20.3 14.1 21 12.7 21 11C21 8.2 18.8 6 16 6H8.1ZM2.7 2L22 21.3L21.3 22L17.6 18.3L12 22V18H8C4.1 18 1 14.9 1 11C1 8.5 2.3 6.3 4.3 5L2 2.7L2.7 2ZM3 11C3 13.8 5.2 16 8 16H14V18.3L16.2 16.9L12.3 13H7V12H11.3L9.3 10H7V9H8.3L5.8 6.5C4.2 7.3 3 9 3 11ZM12.1 10H17V9H11.1L12.1 10Z" fill="black" fill-opacity="0.75"/>
</svg>
