<svg width="24" height="24" viewBox="0 0 24 24" fill="none" xmlns="http://www.w3.org/2000/svg">
<path d="M12 2C6.5 2 2 6.5 2 12C2 17.5 6.5 22 12 22C17.5 22 22 17.5 22 12C22 6.5 17.5 2 12 2ZM20 12C20 13.5 19.6 14.8 18.9 16V8C19.6 9.2 20 10.5 20 12ZM18 6.7V17.2C17.7 17.6 17.3 17.9 16.9 18.2V5.7C17.3 6 17.7 6.3 18 6.7ZM16 5.1V18.9C15.6 19.1 15.3 19.3 14.9 19.4V4.6C15.3 4.7 15.6 4.9 16 5.1ZM14 4.3V19.8C13.6 19.9 13.3 20 12.9 20V4.1C13.3 4.1 13.6 4.2 14 4.3ZM12 20C7.6 20 4 16.4 4 12C4 7.6 7.6 4 12 4V20Z" fill="black" fill-opacity="0.75"/>
</svg>
