<svg width="16" height="16" viewBox="0 0 16 16" fill="none" xmlns="http://www.w3.org/2000/svg">
<path d="M15 7V9C13.9 9 13 9.9 13 11V12C13 13.65 11.65 15 10 15H9V13H10C10.55 13 11 12.55 11 12V11C11 9.8 11.54 8.73 12.38 8C11.54 7.27 11 6.2 11 5V4C11 3.45 10.55 3 10 3H9V1H10C11.65 1 13 2.35 13 4V5C13 6.1 13.9 7 15 7ZM3 4V5C3 6.1 2.1 7 1 7V9C2.1 9 3 9.9 3 11V12C3 13.65 4.35 15 6 15H7V13H6C5.45 13 5 12.55 5 12V11C5 9.8 4.46 8.73 3.62 8C4.46 7.27 5 6.2 5 5V4C5 3.45 5.45 3 6 3H7V1H6C4.35 1 3 2.35 3 4Z" fill="black" fill-opacity="0.75"/>
</svg>
