<svg width="24" height="24" viewBox="0 0 24 24" fill="none" xmlns="http://www.w3.org/2000/svg">
<path d="M8 3H10V5H8C7.4 5 7 5.4 7 6V8C7 9.6 6.2 11.1 5 12C6.2 12.9 7 14.4 7 16V18C7 18.6 7.4 19 8 19H10V21H8C6.3 21 5 19.7 5 18V16C5 14.3 3.7 13 2 13V11C3.7 11 5 9.7 5 8V6C5 4.3 6.3 3 8 3ZM19 8V6C19 4.3 17.7 3 16 3H14V5H16C16.6 5 17 5.4 17 6V8C17 9.6 17.8 11.1 19 12C17.8 12.9 17 14.4 17 16V18C17 18.6 16.6 19 16 19H14V21H16C17.7 21 19 19.7 19 18V16C19 14.3 20.3 13 22 13V11C20.3 11 19 9.7 19 8Z" fill="black" fill-opacity="0.75"/>
</svg>
