<svg width="24" height="24" viewBox="0 0 24 24" fill="none" xmlns="http://www.w3.org/2000/svg">
<path d="M22 6.00002C21.7525 5.69328 21.447 5.43831 21.101 5.24968C20.7549 5.06104 20.3751 4.94244 19.9832 4.90065C19.5913 4.85886 19.195 4.8947 18.817 5.00612C18.439 5.11755 18.0866 5.30236 17.78 5.55002L12.19 10.07L9.80999 8.15002C9.92914 7.77802 9.99315 7.39057 9.99999 7.00002C10.013 6.10583 9.73043 5.23236 9.19613 4.51524C8.66184 3.79811 7.90572 3.27746 7.04518 3.03412C6.18464 2.79078 5.26783 2.83837 4.43711 3.16949C3.60639 3.50062 2.90824 4.09677 2.45106 4.86535C1.99389 5.63394 1.80326 6.53198 1.90879 7.42001C2.01432 8.30805 2.41009 9.13639 3.03466 9.77644C3.65923 10.4165 4.47765 10.8324 5.36283 10.9596C6.24802 11.0869 7.15045 10.9183 7.92999 10.48L9.79999 12L7.92999 13.52C7.09828 13.0448 6.12671 12.8751 5.18313 13.04C4.23955 13.205 3.38324 13.6944 2.76214 14.4237C2.14103 15.1529 1.79416 16.0762 1.78143 17.034C1.7687 17.9918 2.09093 18.924 2.69244 19.6695C3.29395 20.415 4.13695 20.9269 5.07582 21.1169C6.01468 21.307 6.99042 21.1631 7.83446 20.7101C8.67851 20.2572 9.33784 19.5237 9.69854 18.6363C10.0592 17.7489 10.0987 16.7634 9.80999 15.85L12.19 13.93L17.78 18.45C18.0866 18.6977 18.439 18.8825 18.817 18.9939C19.195 19.1053 19.5913 19.1412 19.9832 19.0994C20.3751 19.0576 20.7549 18.939 21.101 18.7504C21.447 18.5617 21.7525 18.3068 22 18L14.57 12L22 6.00002ZM5.99999 9.00002C5.60443 9.00002 5.21775 8.88272 4.88885 8.66296C4.55995 8.4432 4.30361 8.13084 4.15223 7.76539C4.00086 7.39993 3.96125 6.9978 4.03842 6.60984C4.11559 6.22188 4.30607 5.86551 4.58578 5.58581C4.86548 5.3061 5.22185 5.11562 5.60981 5.03845C5.99777 4.96128 6.39991 5.00088 6.76536 5.15226C7.13081 5.30364 7.44317 5.55998 7.66293 5.88888C7.88269 6.21778 7.99999 6.60446 7.99999 7.00002C7.99999 7.53045 7.78928 8.03916 7.41421 8.41423C7.03913 8.78931 6.53043 9.00002 5.99999 9.00002ZM5.99999 19C5.60443 19 5.21775 18.8827 4.88885 18.663C4.55995 18.4432 4.30361 18.1308 4.15223 17.7654C4.00086 17.3999 3.96125 16.9978 4.03842 16.6098C4.11559 16.2219 4.30607 15.8655 4.58578 15.5858C4.86548 15.3061 5.22185 15.1156 5.60981 15.0384C5.99777 14.9613 6.39991 15.0009 6.76536 15.1523C7.13081 15.3036 7.44317 15.56 7.66293 15.8889C7.88269 16.2178 7.99999 16.6045 7.99999 17C7.99999 17.5305 7.78928 18.0392 7.41421 18.4142C7.03913 18.7893 6.53043 19 5.99999 19ZM12 13.12C11.7785 13.12 11.5619 13.0543 11.3778 12.9313C11.1936 12.8082 11.05 12.6333 10.9652 12.4286C10.8805 12.224 10.8583 11.9988 10.9015 11.7815C10.9447 11.5643 11.0514 11.3647 11.208 11.2081C11.3647 11.0514 11.5642 10.9448 11.7815 10.9015C11.9988 10.8583 12.2239 10.8805 12.4286 10.9653C12.6333 11.05 12.8082 11.1936 12.9312 11.3778C13.0543 11.562 13.12 11.7785 13.12 12C13.12 12.2971 13.002 12.5819 12.792 12.792C12.5819 13.002 12.297 13.12 12 13.12Z" fill="black" fill-opacity="0.75"/>
</svg>
