<svg width="24" height="24" viewBox="0 0 24 24" fill="none" xmlns="http://www.w3.org/2000/svg">
<path d="M12 2C6.48 2 2 6.48 2 12C2 17.52 6.48 22 12 22C17.52 22 22 17.52 22 12C22 6.48 17.52 2 12 2ZM12 20C7.59 20 4 16.41 4 12C4 7.59 7.59 4 12 4C16.41 4 20 7.59 20 12C20 16.41 16.41 20 12 20ZM10 14L16.95 16.95C14.22 19.68 9.78 19.68 7.05 16.95C4.32 14.22 4.32 9.78 7.05 7.05L10 14ZM12 13.25C11.31 13.25 10.75 12.69 10.75 12C10.75 11.31 11.31 10.75 12 10.75C12.69 10.75 13.25 11.31 13.25 12C13.25 12.69 12.69 13.25 12 13.25ZM16.95 7.05C19.68 9.78 19.68 14.22 16.95 16.95L14 10L7.05 7.05C9.78 4.32 14.22 4.32 16.95 7.05Z" fill="black" fill-opacity="0.75"/>
</svg>
