<svg width="16" height="16" viewBox="0 0 16 16" fill="none" xmlns="http://www.w3.org/2000/svg">
<path fill-rule="evenodd" clip-rule="evenodd" d="M0 1H11V5.78C10.84 5.76 10.67 5.75 10.5 5.75C7.88 5.75 5.75 7.88 5.75 10.5C5.75 12.59 7.1 14.36 8.98 15H0V1ZM9 5H2V4H9V5ZM5 7H2V6H5V7ZM10.5 14C11.1 14 11.67 13.85 12.17 13.58L14.3 15.71C14.69 16.1 15.32 16.1 15.71 15.71C16.1 15.32 16.1 14.69 15.71 14.3L13.58 12.17C13.85 11.67 14 11.11 14 10.5C14 8.57 12.43 7 10.5 7C8.57 7 7 8.57 7 10.5C7 12.43 8.57 14 10.5 14ZM10.5 12.5C11.6 12.5 12.5 11.6 12.5 10.5C12.5 9.4 11.6 8.5 10.5 8.5C9.4 8.5 8.5 9.4 8.5 10.5C8.5 11.6 9.4 12.5 10.5 12.5Z" fill="black" fill-opacity="0.75"/>
</svg>
