<svg width="24" height="24" viewBox="0 0 24 24" fill="none" xmlns="http://www.w3.org/2000/svg">
<path d="M8 10.5C8 9.7 8.7 9 9.5 9C10.3 9 11 9.7 11 10.5C11 11.3 10.3 12 9.5 12C8.7 12 8 11.3 8 10.5ZM14.5 12C15.3 12 16 11.3 16 10.5C16 9.7 15.3 9 14.5 9C13.7 9 13 9.7 13 10.5C13 11.3 13.7 12 14.5 12ZM22 12C22 17.5 17.5 22 12 22C6.5 22 2 17.5 2 12C2 6.5 6.5 2 12 2C17.5 2 22 6.5 22 12ZM20 12C20 7.6 16.4 4 12 4C7.6 4 4 7.6 4 12C4 16.4 7.6 20 12 20C16.4 20 20 16.4 20 12ZM12 16C10.3 16 8.8 15.3 7.8 14.2L7.1 14.9C8.4 16.2 10.1 17 12 17C13.9 17 15.7 16.2 16.9 15L16.2 14.3C15.1 15.3 13.6 16 12 16Z" fill="black" fill-opacity="0.75"/>
</svg>
