<svg width="16" height="16" viewBox="0 0 16 16" fill="none" xmlns="http://www.w3.org/2000/svg">
<path fill-rule="evenodd" clip-rule="evenodd" d="M1.5 8C1.5 4.41015 4.41015 1.5 8 1.5C11.5899 1.5 14.5 4.41015 14.5 8C14.5 11.5899 11.5899 14.5 8 14.5C4.41015 14.5 1.5 11.5899 1.5 8ZM8 0C3.58172 0 0 3.58172 0 8C0 12.4183 3.58172 16 8 16C12.4183 16 16 12.4183 16 8C16 3.58172 12.4183 0 8 0ZM11.4641 8.5C11.113 9.10807 10.6081 9.61302 10 9.96409C9.39195 10.3152 8.70218 10.5 8.00004 10.5C7.2979 10.5 6.60813 10.3152 6.00005 9.96413C5.39198 9.61307 4.88702 9.10814 4.53594 8.50007L3.23692 9.2501C3.71966 10.0862 4.41397 10.7805 5.25008 11.2632C6.08618 11.7459 7.03462 12 8.00006 12C8.9655 12 9.91393 11.7459 10.75 11.2631C11.5861 10.7804 12.2804 10.0861 12.7631 9.25L11.4641 8.5ZM6.75 6C6.75 6.69036 6.19036 7.25 5.5 7.25C4.80964 7.25 4.25 6.69036 4.25 6C4.25 5.30964 4.80964 4.75 5.5 4.75C6.19036 4.75 6.75 5.30964 6.75 6ZM10.5 7.25C11.1904 7.25 11.75 6.69036 11.75 6C11.75 5.30964 11.1904 4.75 10.5 4.75C9.80964 4.75 9.25 5.30964 9.25 6C9.25 6.69036 9.80964 7.25 10.5 7.25Z" fill="black" fill-opacity="0.75"/>
</svg>
