<svg width="16" height="16" viewBox="0 0 16 16" fill="none" xmlns="http://www.w3.org/2000/svg">
<path d="M15 4H6.72C6.37 4.6 5.74 5 5 5C4.26 5 3.62 4.6 3.28 4H1V2H3.28C3.63 1.4 4.26 1 5 1C5.74 1 6.38 1.4 6.72 2H15V4ZM15 12H6.72C6.37 11.4 5.74 11 5 11C4.26 11 3.62 11.4 3.28 12H1V14H3.28C3.63 14.6 4.26 15 5 15C5.74 15 6.38 14.6 6.72 14H15V12ZM15 7H12.72C12.37 6.4 11.74 6 11 6C10.26 6 9.62 6.4 9.28 7H1V9H9.28C9.63 9.6 10.26 10 11 10C11.74 10 12.38 9.6 12.72 9H15V7Z" fill="black" fill-opacity="0.75"/>
</svg>
