<svg width="24" height="24" viewBox="0 0 24 24" fill="none" xmlns="http://www.w3.org/2000/svg">
<path d="M2 11H15.3C15.6 10.4 16.3 10 17 10C17.7 10 18.4 10.4 18.7 11H22V13H18.7C18.4 13.6 17.7 14 17 14C16.3 14 15.6 13.6 15.3 13H2" fill="black" fill-opacity="0.75"/>
<path d="M2 19H5.3C5.6 19.6 6.3 20 7 20C7.7 20 8.4 19.6 8.7 19H22V17H8.7C8.4 16.4 7.7 16 7 16C6.3 16 5.6 16.4 5.3 17H2" fill="black" fill-opacity="0.75"/>
<path d="M2 7H10.3C10.6 7.6 11.3 8 12 8C12.7 8 13.4 7.6 13.7 7H22V5H13.7C13.4 4.4 12.7 4 12 4C11.3 4 10.6 4.4 10.3 5H2" fill="black" fill-opacity="0.75"/>
</svg>
