<svg width="24" height="24" viewBox="0 0 24 24" fill="none" xmlns="http://www.w3.org/2000/svg">
<path d="M15.0958 23.4534C18.5413 22.1912 21 18.8827 21 15C21 11.6514 19.2059 10.1966 17.4423 8.76645C15.2558 6.99346 13.1162 5.25844 14.5 0C14.5 0 3 5 3 15C3 18.8827 5.45874 22.1912 8.90416 23.4534C7.74438 22.5606 7 21.1776 7 19.625C7 14.2083 13.3888 11 13.3888 11C12.6158 13.864 13.8219 14.9533 15.0436 16.0566C16.0169 16.9357 17 17.8236 17 19.625C17 21.1776 16.2556 22.5606 15.0958 23.4534Z" fill="black" fill-opacity="0.75"/>
</svg>
