<svg width="32" height="32" viewBox="0 0 32 32" fill="none" xmlns="http://www.w3.org/2000/svg">
<path d="M20.2011 31.2441C24.7565 29.5413 28 25.1494 28 20C28 15.5352 25.6079 13.5954 23.2564 11.6886C20.3411 9.32462 17.4883 7.01126 19.3333 0C19.3333 0 4 6.66667 4 20C4 25.1494 7.24348 29.5413 11.7989 31.2441C10.6887 30.13 10 28.5778 10 26.8611C10 20.0401 17.6666 16 17.6666 16C16.739 19.6066 18.1863 20.9783 19.6523 22.3676C20.8202 23.4745 22 24.5927 22 26.8611C22 28.5778 21.3113 30.13 20.2011 31.2441Z" fill="black" fill-opacity="0.75"/>
</svg>
