<svg width="24" height="24" viewBox="0 0 24 24" fill="none" xmlns="http://www.w3.org/2000/svg">
<path d="M21 11V9C21 5.7 18.3 3 15 3H9C5.7 3 3 5.7 3 9V11C2.5 11 2 11.5 2 12V15C2 15.5 2.4 16 3 16V18C3 19.7 4.3 21 6 21H18C19.7 21 21 19.7 21 18V16C21.6 16 22 15.6 22 15V12C22 11.5 21.6 11 21 11ZM19 18C19 18.6 18.6 19 18 19H6C5.4 19 5 18.6 5 18V16H19V18ZM5.4 12H10.6L9.4 13.2C9 13.5 8.5 13.8 8 13.8C7.5 13.8 7 13.6 6.6 13.2L5.4 12ZM19 11H5V9C5 6.8 6.8 5 9 5H15C17.2 5 19 6.8 19 9V11ZM9 9C9 9.6 8.6 10 8 10C7.4 10 7 9.6 7 9C7 8.4 7.4 8 8 8C8.6 8 9 8.4 9 9ZM13 7C13 7.6 12.6 8 12 8C11.4 8 11 7.6 11 7C11 6.4 11.4 6 12 6C12.6 6 13 6.4 13 7ZM17 9C17 9.6 16.6 10 16 10C15.4 10 15 9.6 15 9C15 8.4 15.4 8 16 8C16.6 8 17 8.4 17 9Z" fill="black" fill-opacity="0.75"/>
</svg>
