<svg width="16" height="16" viewBox="0 0 16 16" fill="none" xmlns="http://www.w3.org/2000/svg">
<path d="M14.91 11.28L16 6H14.89L13.92 6.87C13.77 6.43 13.26 6 12.38 6C10.36 6 9.01 8.07 9.01 10.49C9.01 12.04 9.74 13 10.84 13C11.81 13 12.63 12.33 12.99 11.1C12.97 11.18 12.91 11.57 12.91 11.64C12.81 12.56 13.19 12.99 13.97 12.99C14.75 12.99 15.49 12.61 15.85 12.1L15.91 11.76C15.74 11.9 15.5 11.99 15.28 11.99C14.97 11.99 14.83 11.78 14.92 11.29L14.91 11.28ZM13.03 10.48C12.79 11.49 12.3 12.07 11.8 12.07C11.35 12.07 11.09 11.69 11.09 10.72C11.09 9.06 11.7 6.65 12.96 6.65C13.37 6.65 13.64 6.88 13.72 7.15L13.04 10.48H13.03ZM5.41 3H3.16L0 13H1.96L2.65 10.57H5.86L6.55 13H8.58L5.41 3ZM4.23 4.91H4.27L5.43 9H3.07L4.23 4.91Z" fill="black" fill-opacity="0.75"/>
</svg>
