<svg width="24" height="24" viewBox="0 0 24 24" fill="none" xmlns="http://www.w3.org/2000/svg">
<path d="M8.19 15.6H3.71L2.74 19H0L4.43 5H7.57L12.01 19H9.17L8.2 15.6H8.19ZM4.28 13.41H7.61L5.98 7.68H5.92L4.29 13.41H4.28ZM17.83 9C19.09 9 19.83 9.63 20.04 10.27L21.23 9.19H22.99L21.47 16.69C21.33 17.4 21.54 17.71 21.98 17.71C22.29 17.71 22.64 17.58 22.88 17.37L22.79 17.87C22.28 18.61 21.22 19.17 20.1 19.17C18.98 19.17 18.44 18.55 18.58 17.21C18.58 17.12 18.67 16.54 18.7 16.43C18.18 18.22 17.01 19.2 15.62 19.2C14.04 19.2 12.99 17.8 12.99 15.54C12.99 12.02 14.94 9.01 17.83 9.01V9ZM17.01 17.85C17.73 17.85 18.44 17 18.78 15.53L19.76 10.68C19.65 10.28 19.26 9.95 18.67 9.95C16.86 9.95 16 13.46 15.99 15.88C15.99 17.3 16.37 17.85 17.02 17.85H17.01Z" fill="black" fill-opacity="0.75"/>
</svg>
