<svg width="24" height="24" viewBox="0 0 24 24" fill="none" xmlns="http://www.w3.org/2000/svg">
<path d="M21 12C21 17 17 21 12 21C7 21 3 17 3 12C3 7 7 3 12 3L10 0H12.4L15 4L12.4 8H10L12 5C8.2 5 5 8.2 5 12C5 15.9 8.1 19 12 19C15.9 19 19 15.9 19 12C19 10.5 18.5 9.1 17.7 8H20C20.7 9.2 21 10.6 21 12ZM8 14V15H11V14H10V10L8 10.9V12L9 11.5V14H8ZM14.1 10C15.1 10 16 10.9 16 11.9V13.1C16 14.1 15.1 15 14.1 15H13.9C12.9 15 12 14.1 12 13.1V11.9C12 10.9 12.9 10 13.9 10H14.1ZM14.1 11H13.9C13.4 11 13 11.4 13 11.9V13.1C13 13.6 13.4 14 13.9 14H14.1C14.6 14 15 13.6 15 13.1V11.9C15 11.4 14.6 11 14.1 11Z" fill="black" fill-opacity="0.75"/>
</svg>
