<svg width="16" height="16" viewBox="0 0 16 16" fill="none" xmlns="http://www.w3.org/2000/svg">
<path d="M8.01001 1C4.14001 1 1.01001 4.13 1.01001 7.99C1.01001 11.85 4.14001 14.98 8.00001 14.98C11.86 14.98 14.99 11.85 14.99 7.99C14.99 4.13 11.87 1 8.01001 1ZM9.23001 6.77C9.23001 6.46 9.29001 6.21 9.41001 6.01C9.53001 5.81 9.75001 5.63 10.05 5.48L10.19 5.41C10.44 5.28 10.5 5.18 10.5 5.05C10.5 4.9 10.37 4.78 10.15 4.78C9.89001 4.78 9.70001 4.91 9.57001 5.18L9.22001 4.83C9.30001 4.67 9.42001 4.54 9.58001 4.44C9.75001 4.34 9.93001 4.28 10.12 4.28C10.37 4.28 10.59 4.34 10.76 4.48C10.94 4.61 11.03 4.8 11.03 5.03C11.03 5.4 10.82 5.63 10.43 5.83L10.21 5.94C9.98001 6.06 9.86001 6.16 9.83001 6.35H11.02V6.84H9.21001V6.76L9.23001 6.77ZM8.08001 11.99C5.87001 11.99 4.08001 10.2 4.08001 7.99C4.08001 5.78 5.87001 3.99 8.08001 3.99C8.35001 3.99 8.61001 4.02 8.86001 4.07L8.08001 5.71C6.82001 5.71 5.80001 6.73 5.80001 7.99C5.80001 9.25 6.82001 10.27 8.08001 10.27C8.65001 10.27 9.17001 10.06 9.57001 9.72L10.44 11.22C9.78001 11.7 8.97001 11.99 8.09001 11.99H8.08001ZM10.88 10.85L9.89001 9.14H7.91001L8.90001 7.43H10.88L11.87 9.14L10.88 10.85Z" fill="black" fill-opacity="0.75"/>
</svg>
