<svg width="16" height="16" viewBox="0 0 16 16" fill="none" xmlns="http://www.w3.org/2000/svg">
<path fill-rule="evenodd" clip-rule="evenodd" d="M2.5 1C1.67157 1 1 1.67157 1 2.5V5.5C1 6.32843 1.67157 7 2.5 7H5.5C6.32843 7 7 6.32843 7 5.5V2.5C7 1.67157 6.32843 1 5.5 1H2.5ZM2.5 2.5L5.5 2.5V5.5H2.5V2.5ZM2.5 9C1.67157 9 1 9.67157 1 10.5V13.5C1 14.3284 1.67157 15 2.5 15H5.5C6.32843 15 7 14.3284 7 13.5V10.5C7 9.67157 6.32843 9 5.5 9H2.5ZM2.5 10.5H5.5V13.5H2.5V10.5ZM9 2.5C9 1.67157 9.67157 1 10.5 1H13.5C14.3284 1 15 1.67157 15 2.5V5.5C15 6.32843 14.3284 7 13.5 7H10.5C9.67157 7 9 6.32843 9 5.5V2.5ZM13.5 2.5L10.5 2.5V5.5H13.5V2.5ZM10.5 9C9.67157 9 9 9.67157 9 10.5V13.5C9 14.3284 9.67157 15 10.5 15H13.5C14.3284 15 15 14.3284 15 13.5V10.5C15 9.67157 14.3284 9 13.5 9H10.5ZM10.5 10.5H13.5V13.5H10.5V10.5Z" fill="black" fill-opacity="0.75"/>
</svg>
