<svg width="32" height="32" viewBox="0 0 32 32" fill="none" xmlns="http://www.w3.org/2000/svg">
<path fill-rule="evenodd" clip-rule="evenodd" d="M8.61 6.82C7.61 5.5 7.86 3.62 9.18 2.62C10.5 1.62 12.38 1.87 13.38 3.19L15.99 6.67L18.6 3.19C19.6 1.87 21.49 1.62 22.8 2.62C24.12 3.62 24.37 5.51 23.37 6.82C22.79 7.58 21.91 7.99 21.03 8H28.99V13H17.99V8H13.99V13H3V8H10.96C10.07 7.99 9.2 7.58 8.62 6.82H8.61ZM14 14H5V25C5 27.21 6.79 29 9 29H14V14ZM27 14H18V29H23C25.21 29 27 27.21 27 25V14Z" fill="black" fill-opacity="0.75"/>
</svg>
