<svg width="16" height="16" viewBox="0 0 16 16" fill="none" xmlns="http://www.w3.org/2000/svg">
<path d="M8 1C4.13 1 1 4.13 1 8C1 11.87 4.13 15 8 15C11.87 15 15 11.87 15 8C15 4.13 11.87 1 8 1ZM3 8C3 6.88 3.39 5.85 4.01 5.01L4.56 5.56C4.84 5.84 5 6.22 5 6.62V7.69C5 7.89 5.08 8.08 5.22 8.22L5.78 8.78C5.92 8.92 6.11 9 6.31 9H7V9.69C7 9.89 7.08 10.08 7.22 10.22L7.78 10.78C7.92 10.92 8 11.11 8 11.31V13C5.24 13 3 10.76 3 8ZM9.24 12.83L11.2 10.38C11.38 10.15 11.42 9.84 11.29 9.58L10.71 8.42C10.58 8.16 10.32 8 10.04 8H7V7.81C7 7.62 7.11 7.45 7.28 7.36L7.67 7.17C7.88 7.06 8.13 7.06 8.34 7.17L9 7.5L9.38 6.8C9.46 6.65 9.5 6.49 9.5 6.32V5.47C9.5 5.27 9.58 5.09 9.71 4.95L10.78 3.86C12.12 4.75 13 6.27 13 8C13 10.33 11.4 12.27 9.24 12.83Z" fill="black" fill-opacity="0.75"/>
</svg>
