<svg width="16" height="16" viewBox="0 0 16 16" fill="none" xmlns="http://www.w3.org/2000/svg">
<path d="M8 1C4.14 1 1 4.14 1 8C1 11.86 4.14 15 8 15C11.86 15 15 11.86 15 8C15 4.14 11.86 1 8 1ZM9.58 11C9.27 12 8.83 12.7 8.38 12.96C8.25 13.03 8.13 13.07 8 13.07C7.87 13.07 7.75 13.03 7.62 12.96C7.17 12.7 6.73 11.99 6.42 11C6.32 10.69 6.24 10.36 6.17 10H9.82C9.75 10.36 9.67 10.69 9.57 11H9.58ZM6.05 9C6.02 8.68 6.01 8.35 6.01 8C6.01 7.65 6.03 7.32 6.05 7H9.96C9.99 7.32 10 7.65 10 8C10 8.35 9.98 8.68 9.96 9H6.05ZM3.01 8C3.01 7.66 3.05 7.32 3.11 7H5.05C5.02 7.32 5.01 7.66 5.01 8C5.01 8.34 5.02 8.68 5.05 9H3.11C3.04 8.68 3.01 8.34 3.01 8ZM6.43 5C6.74 4 7.18 3.3 7.63 3.04C7.76 2.97 7.88 2.92 8.01 2.92C8.14 2.92 8.26 2.96 8.39 3.04C8.84 3.3 9.28 4.01 9.59 5C9.69 5.31 9.77 5.64 9.84 6H6.19C6.26 5.64 6.34 5.31 6.44 5H6.43ZM10.96 7H12.9C12.97 7.32 13 7.66 13 8C13 8.34 12.96 8.68 12.9 9H10.96C10.99 8.68 11 8.34 11 8C11 7.66 10.99 7.32 10.96 7ZM11.98 5C12.21 5.31 12.42 5.64 12.58 6H10.84C10.78 5.65 10.71 5.31 10.62 5C10.45 4.39 10.23 3.85 9.97 3.41C10.77 3.76 11.45 4.31 11.97 5H11.98ZM6.04 3.41C5.78 3.86 5.56 4.39 5.39 5C5.3 5.31 5.23 5.65 5.17 6H3.43C3.59 5.64 3.8 5.31 4.03 5C4.55 4.31 5.23 3.75 6.03 3.41H6.04ZM4.04 11C3.81 10.69 3.6 10.36 3.44 10H5.18C5.24 10.35 5.31 10.69 5.4 11C5.57 11.61 5.79 12.15 6.05 12.59C5.25 12.24 4.57 11.69 4.05 11H4.04ZM9.98 12.59C10.24 12.14 10.46 11.61 10.63 11C10.72 10.69 10.79 10.35 10.85 10H12.59C12.43 10.36 12.22 10.69 11.99 11C11.47 11.69 10.79 12.25 9.99 12.59H9.98Z" fill="black" fill-opacity="0.75"/>
</svg>
