<svg width="24" height="24" viewBox="0 0 24 24" fill="none" xmlns="http://www.w3.org/2000/svg">
<path d="M12 2C6.5 2 2 6.5 2 12C2 17.5 6.5 22 12 22C17.5 22 22 17.5 22 12C22 6.5 17.5 2 12 2ZM20 12C20 15.7 17.5 18.8 14 19.7L16.4 16.7C16.8 16.2 16.8 15.6 16.6 15.1L15.4 12.8C15.1 12.3 14.6 12 14.1 12H10V11.6C10 11.2 10.2 10.9 10.6 10.7L11.4 10.3C11.8 10.1 12.2 10.2 12.6 10.5L13 11L13.8 9.3C13.9 9.1 14 8.9 14 8.6V7.6C14 7.2 14.2 6.8 14.4 6.5L15.9 5C18.4 6.4 20 9 20 12ZM6.6 8.6C6.8 8.8 7 9.2 7 9.6V10.4C7 10.8 7.2 11.2 7.4 11.5L8.5 12.6C8.8 12.8 9.2 13 9.6 13H10V14.4C10 14.8 10.2 15.2 10.4 15.5L11.5 16.6C11.8 16.9 11.9 17.3 11.9 17.7V20C7.5 20 3.9 16.4 3.9 12C3.9 10.3 4.4 8.7 5.3 7.4L6.6 8.6Z" fill="black" fill-opacity="0.75"/>
</svg>
