<svg width="24" height="24" viewBox="0 0 24 24" fill="none" xmlns="http://www.w3.org/2000/svg">
<path d="M12 2C6.5 2 2 6.5 2 12C2 17.5 6.5 22 12 22C17.5 22 22 17.5 22 12C22 6.5 17.5 2 12 2ZM18.9 8H15.6C15.3 6.5 14.7 5.2 14.1 4.3C16.1 4.8 17.9 6.2 18.9 8ZM20 12C20 13.1 19.8 14.1 19.4 15H15.8C15.9 14.1 16 13.1 16 12C16 10.9 15.9 9.9 15.8 9H19.4C19.8 9.9 20 10.9 20 12ZM12 20C11.2 20 10.1 18.5 9.4 16H14.5C13.9 18.5 12.8 20 12 20ZM9.2 15C9.1 14.1 9 13.1 9 12C9 10.9 9.1 9.9 9.2 9H14.7C14.9 9.9 14.9 10.9 14.9 12C14.9 13.1 14.8 14.1 14.7 15H9.2ZM4 12C4 10.9 4.2 9.9 4.6 9H8.2C8.1 9.9 8 10.9 8 12C8 13.1 8.1 14.1 8.2 15H4.6C4.2 14.1 4 13.1 4 12ZM12 4C12.8 4 13.9 5.5 14.6 8H9.4C10.1 5.5 11.2 4 12 4ZM10 4.3C9.3 5.2 8.8 6.5 8.4 8H5.1C6.1 6.2 7.9 4.8 10 4.3ZM5.1 16H8.4C8.7 17.5 9.3 18.8 9.9 19.7C7.9 19.2 6.1 17.8 5.1 16ZM14 19.7C14.7 18.8 15.2 17.5 15.5 16H18.8C17.9 17.8 16.1 19.2 14 19.7Z" fill="black" fill-opacity="0.75"/>
</svg>
