<svg width="24" height="24" viewBox="0 0 24 24" fill="none" xmlns="http://www.w3.org/2000/svg">
<path d="M7 15V21H2V15C2 13.9 2.9 13 4 13H5C6.1 13 7 13.9 7 15ZM19.5 11C20.88 11 22 9.88 22 8.5C22 7.12 20.88 6 19.5 6C18.12 6 17 7.12 17 8.5C17 9.88 18.12 11 19.5 11ZM4.5 6C3.12 6 2 7.12 2 8.5C2 9.88 3.12 11 4.5 11C5.88 11 7 9.88 7 8.5C7 7.12 5.88 6 4.5 6ZM12 3C10.34 3 9 4.34 9 6C9 7.66 10.34 9 12 9C13.66 9 15 7.66 15 6C15 4.34 13.66 3 12 3ZM20 13H19C17.9 13 17 13.9 17 15V21H22V15C22 13.9 21.1 13 20 13ZM12.75 11H11.25C10.01 11 9 12.01 9 13.25V21H15V13.25C15 12.01 13.99 11 12.75 11Z" fill="black" fill-opacity="0.75"/>
</svg>
