<svg width="16" height="16" viewBox="0 0 16 16" fill="none" xmlns="http://www.w3.org/2000/svg">
<path d="M10 8.5V14H6V8.5C6 7.67 6.67 7 7.5 7H8.5C9.33 7 10 7.67 10 8.5ZM12.75 8H12.25C11.56 8 11 8.56 11 9.25V14H14V9.25C14 8.56 13.44 8 12.75 8ZM8 2C6.9 2 6 2.9 6 4C6 5.1 6.9 6 8 6C9.1 6 10 5.1 10 4C10 2.9 9.1 2 8 2ZM12.5 7C13.33 7 14 6.33 14 5.5C14 4.67 13.33 4 12.5 4C11.67 4 11 4.67 11 5.5C11 6.33 11.67 7 12.5 7ZM3.75 8H3.25C2.56 8 2 8.56 2 9.25V14H5V9.25C5 8.56 4.44 8 3.75 8ZM3.5 4C2.67 4 2 4.67 2 5.5C2 6.33 2.67 7 3.5 7C4.33 7 5 6.33 5 5.5C5 4.67 4.33 4 3.5 4Z" fill="black" fill-opacity="0.75"/>
</svg>
