<svg width="24" height="24" viewBox="0 0 24 24" fill="none" xmlns="http://www.w3.org/2000/svg">
<path d="M20.98 17.7999C20.77 17.2999 20.91 16.4599 21.07 15.4899C21.35 13.7999 21.69 11.6899 20.69 9.25994L20.06 7.72994C19.51 6.39994 18.6 5.88994 17.93 5.68994C17.33 5.50994 16.65 5.52994 16.06 5.72994C15.52 5.37994 14.89 5.20994 14.23 5.25994C13.66 5.29994 13.13 5.49994 12.68 5.81994C11.7 5.30994 10.51 5.37994 9.60001 5.98994L8.17001 2.52994C7.54001 0.999941 5.78001 0.269941 4.25001 0.909941C3.51001 1.21994 2.93001 1.78994 2.63001 2.52994C2.32001 3.26994 2.32001 4.08994 2.63001 4.82994L4.14001 8.48994L2.82001 10.4299C1.96001 11.6899 1.80001 13.2799 2.38001 14.6899C3.78001 18.0699 5.73001 19.1199 7.30001 19.9599C8.49001 20.5999 9.35001 21.0599 9.90001 22.3899L10.28 23.3099L21.37 18.7199L20.99 17.7999H20.98ZM19.1 15.1599C18.96 15.9999 18.83 16.8199 18.9 17.5799L11.29 20.7299C10.47 19.3899 9.34001 18.7899 8.24001 18.1999C6.75001 17.3999 5.35001 16.6499 4.22001 13.9299C3.90001 13.1499 3.99001 12.2599 4.47001 11.5599L5.73001 9.71994L7.38001 13.6999L8.30001 13.3199L5.62001 6.84994L4.47001 4.07994C4.37001 3.82994 4.37001 3.55994 4.47001 3.30994C4.57001 3.05994 4.76001 2.86994 5.01001 2.76994C5.13001 2.71994 5.26001 2.68994 5.39001 2.68994C5.52001 2.68994 5.65001 2.71994 5.77001 2.76994C6.02001 2.86994 6.21001 3.05994 6.31001 3.30994L8.22001 7.92994L9.37001 10.6999L10.29 10.3199L9.67001 8.80994L10.52 7.82994C10.88 7.40994 11.52 7.36994 11.93 7.72994L12.86 8.53994L13.67 7.60994C13.84 7.40994 14.09 7.28994 14.35 7.26994C14.61 7.24994 14.87 7.33994 15.07 7.50994L15.84 8.17994L16.48 7.72994C16.62 7.62994 16.98 7.51994 17.35 7.61994C17.71 7.71994 17.99 8.01994 18.19 8.49994L18.82 10.0299C19.61 11.9299 19.32 13.6499 19.07 15.1699L19.1 15.1599Z" fill="black" fill-opacity="0.75"/>
</svg>
