<svg width="24" height="24" viewBox="0 0 24 24" fill="none" xmlns="http://www.w3.org/2000/svg">
<path d="M3 7.5C3 7.10218 3.15804 6.72064 3.43934 6.43934C3.72064 6.15804 4.10218 6 4.5 6C4.89782 6 5.27936 6.15804 5.56066 6.43934C5.84196 6.72064 6 7.10218 6 7.5V12H7V4.5C7 4.10218 7.15804 3.72064 7.43934 3.43934C7.72064 3.15804 8.10218 3 8.5 3C8.89782 3 9.27936 3.15804 9.56066 3.43934C9.84196 3.72064 10 4.10218 10 4.5V11H11V2.5C11 2.10218 11.158 1.72064 11.4393 1.43934C11.7206 1.15804 12.1022 1 12.5 1C12.8978 1 13.2794 1.15804 13.5607 1.43934C13.842 1.72064 14 2.10218 14 2.5V11H15V4.5C15 4.10218 15.158 3.72064 15.4393 3.43934C15.7206 3.15804 16.1022 3 16.5 3C16.8978 3 17.2794 3.15804 17.5607 3.43934C17.842 3.72064 18 4.10218 18 4.5V14L20 12.27C20.2282 12.0988 20.5048 12.0043 20.79 12C20.9445 11.9947 21.0985 12.02 21.2431 12.0745C21.3878 12.1291 21.5202 12.2117 21.6327 12.3177C21.7452 12.4237 21.8356 12.551 21.8986 12.6921C21.9617 12.8332 21.9961 12.9855 22 13.14C22.0087 13.4334 21.913 13.7205 21.73 13.95L17.55 19.06C16.8004 19.9779 15.8562 20.7179 14.7857 21.2263C13.7152 21.7348 12.5451 21.999 11.36 22H11C8.87827 22 6.84344 21.1571 5.34315 19.6569C3.84285 18.1566 3 16.1217 3 14V7.5Z" fill="black" fill-opacity="0.75"/>
</svg>
