<svg width="32" height="32" viewBox="0 0 32 32" fill="none" xmlns="http://www.w3.org/2000/svg">
<path d="M27.62 23.66C27.3 22.89 27.47 21.67 27.67 20.26C28 17.96 28.4 15.11 27.1 11.97C26.29 10.02 25.47 9.08999 24.71 8.37999C23.85 7.57999 22.59 7.35 21.51 7.79999L21.16 7.93999L20.52 7.47999C19.37 6.65999 17.83 6.74 16.77 7.68999L16.32 8.08999L15.88 7.77999C14.81 7.01999 13.41 7.03999 12.38 7.78999L10.47 3.16999C10.11 2.30999 9.43999 1.62999 8.57999 1.27999C7.71999 0.919995 6.75999 0.919995 5.89999 1.27999C5.03999 1.63999 4.35999 2.30999 4.00999 3.16999C3.64999 4.02999 3.64999 4.97999 4.00999 5.84999L6.29999 11.37L4.51999 13.74C3.45999 15.15 3.22999 17.03 3.89999 18.65L4.17999 19.31C5.97999 23.65 8.04999 25.08 9.70999 26.23C11.01 27.13 12.04 27.84 12.85 29.79L13.23 30.71L28.01 24.59L27.63 23.67L27.62 23.66ZM25.69 19.98C25.51 21.27 25.34 22.42 25.5 23.46L14.25 28.12C13.27 26.28 12.03 25.42 10.83 24.59C9.22999 23.49 7.57999 22.34 6.00999 18.55L5.72999 17.89C5.32999 16.92 5.46999 15.79 6.09999 14.94L7.85999 12.59L10.08 17.94L11 17.56L8.55999 11.66L5.83999 5.08999C5.68999 4.72 5.68999 4.30999 5.83999 3.93999C5.98999 3.56999 6.27999 3.27999 6.64999 3.12999C6.82999 3.04999 7.02999 3.01999 7.21999 3.01999C7.40999 3.01999 7.60999 3.05999 7.78999 3.12999C8.15999 3.27999 8.44999 3.56999 8.59999 3.93999L11.59 11.16L12.24 12.72L13.16 12.34L12.38 10.45L13.46 9.47999C13.81 9.15999 14.33 9.13999 14.71 9.40999L16.46 10.66L18.1 9.18999C18.45 8.86999 18.97 8.84999 19.35 9.11999L20.9 10.22L22.27 9.64999C22.63 9.49999 23.05 9.57999 23.34 9.84999C23.92 10.39 24.55 11.07 25.25 12.75C26.34 15.38 25.99 17.83 25.69 20V19.98Z" fill="black" fill-opacity="0.75"/>
</svg>
