<svg width="24" height="24" viewBox="0 0 24 24" fill="none" xmlns="http://www.w3.org/2000/svg">
<path d="M21.17 10.8299C20.9088 10.5653 20.5973 10.3555 20.2538 10.213C19.9103 10.0705 19.5419 9.99803 19.17 9.99994C18.7663 10.0054 18.368 10.0939 18 10.2599V5.99994C18 5.20429 17.6839 4.44123 17.1213 3.87862C16.5587 3.31601 15.7956 2.99994 15 2.99994H14.83C14.6239 2.41395 14.2409 1.9064 13.734 1.54736C13.2271 1.18832 12.6212 0.995483 12 0.995483C11.3788 0.995483 10.7729 1.18832 10.266 1.54736C9.7591 1.9064 9.37614 2.41395 9.17 2.99994H9C8.20435 2.99994 7.44129 3.31601 6.87868 3.87862C6.31607 4.44123 6 5.20429 6 5.99994C5.20435 5.99994 4.44129 6.31601 3.87868 6.87862C3.31607 7.44123 3 8.20429 3 8.99994V13.9999C3 16.1217 3.84285 18.1565 5.34315 19.6568C6.84344 21.1571 8.87827 21.9999 11 21.9999H11.55C12.7351 21.999 13.9052 21.7347 14.9757 21.2263C16.0462 20.7178 16.9904 19.9779 17.74 19.0599L21.36 14.6199C21.8056 14.0778 22.033 13.3891 21.9979 12.6882C21.9627 11.9874 21.6675 11.3248 21.17 10.8299ZM19.81 13.3599L16.21 17.7899C15.6464 18.4816 14.9357 19.0389 14.1296 19.4212C13.3234 19.8035 12.4422 20.0012 11.55 19.9999H11C9.4087 19.9999 7.88258 19.3678 6.75736 18.2426C5.63214 17.1174 5 15.5912 5 13.9999V8.99994C5 8.73473 5.10536 8.48037 5.29289 8.29284C5.48043 8.1053 5.73478 7.99994 6 7.99994C6.26522 7.99994 6.51957 8.1053 6.70711 8.29284C6.89464 8.48037 7 8.73473 7 8.99994V12.9999H8V5.99994C8 5.73473 8.10536 5.48037 8.29289 5.29284C8.48043 5.1053 8.73478 4.99994 9 4.99994C9.26522 4.99994 9.51957 5.1053 9.70711 5.29284C9.89464 5.48037 10 5.73473 10 5.99994V11.9999H11V3.99994C11 3.73473 11.1054 3.48037 11.2929 3.29284C11.4804 3.1053 11.7348 2.99994 12 2.99994C12.2652 2.99994 12.5196 3.1053 12.7071 3.29284C12.8946 3.48037 13 3.73473 13 3.99994V11.9999H14V5.99994C14 5.73473 14.1054 5.48037 14.2929 5.29284C14.4804 5.1053 14.7348 4.99994 15 4.99994C15.2652 4.99994 15.5196 5.1053 15.7071 5.29284C15.8946 5.48037 16 5.73473 16 5.99994V14.3499L18.64 12.1899C18.7887 12.066 18.9764 11.9987 19.17 11.9999C19.3901 12.0015 19.6013 12.0874 19.76 12.2399C19.8361 12.3161 19.8965 12.4066 19.9377 12.5061C19.9789 12.6056 20 12.7122 20 12.8199C20.001 13.0165 19.9339 13.2073 19.81 13.3599Z" fill="black" fill-opacity="0.75"/>
</svg>
