<svg width="16" height="16" viewBox="0 0 16 16" fill="none" xmlns="http://www.w3.org/2000/svg">
<path fill-rule="evenodd" clip-rule="evenodd" d="M5 2C4.20435 2 3.44129 2.31607 2.87868 2.87868C2.31607 3.44129 2 4.20435 2 5V11C2 11.7956 2.31607 12.5587 2.87868 13.1213C3.44129 13.6839 4.20435 14 5 14H11C11.7956 14 12.5587 13.6839 13.1213 13.1213C13.6839 12.5587 14 11.7956 14 11V5C14 4.20435 13.6839 3.44129 13.1213 2.87868C12.5587 2.31607 11.7956 2 11 2H5ZM11 4H5C4.73478 4 4.48043 4.10536 4.29289 4.29289C4.10536 4.48043 4 4.73478 4 5V9.5L6 7.5L9 10.5L10.5 9L12 10.5V5C12 4.73478 11.8946 4.48043 11.7071 4.29289C11.5196 4.10536 11.2652 4 11 4Z" fill="black" fill-opacity="0.75"/>
<path d="M9.5 8C10.3284 8 11 7.32843 11 6.5C11 5.67157 10.3284 5 9.5 5C8.67157 5 8 5.67157 8 6.5C8 7.32843 8.67157 8 9.5 8Z" fill="black" fill-opacity="0.75"/>
</svg>
