<svg width="24" height="24" viewBox="0 0 24 24" fill="none" xmlns="http://www.w3.org/2000/svg">
<path d="M6.96 19H5C3.34 19 2 17.66 2 16V6C2 4.34 3.34 3 5 3H13.98L11.98 5H5C4.45 5 4 5.45 4 6V13L8 9L12.49 13.49L6.96 19ZM18 11C18 9.9 17.1 9 16 9C14.9 9 14 9.9 14 11C14 12.1 14.9 13 16 13C17.1 13 18 12.1 18 11ZM19 5H14.98L12.98 7H19C19.55 7 20 7.45 20 8V18C20 18.28 19.89 18.53 19.71 18.71L16 15L14 17L13 16L7.98 21H19C20.66 21 22 19.66 22 18V8C22 6.34 20.66 5 19 5Z" fill="black" fill-opacity="0.75"/>
</svg>
