<svg width="16" height="16" viewBox="0 0 16 16" fill="none" xmlns="http://www.w3.org/2000/svg">
<path d="M11 3C9.91815 3 8.86548 3.35089 8 4C7.25715 3.44287 6.37384 3.1036 5.44903 3.02021C4.52422 2.93682 3.59446 3.1126 2.76393 3.52787C1.9334 3.94313 1.23492 4.58147 0.746746 5.37135C0.258573 6.16123 0 7.07144 0 8C0 8.92856 0.258573 9.83878 0.746746 10.6287C1.23492 11.4185 1.9334 12.0569 2.76393 12.4721C3.59446 12.8874 4.52422 13.0632 5.44903 12.9798C6.37384 12.8964 7.25715 12.5571 8 12C8.63381 12.4754 9.3715 12.7933 10.1523 12.9276C10.9331 13.0619 11.7346 13.0088 12.4908 12.7726C13.2471 12.5363 13.9363 12.1238 14.5018 11.5689C15.0673 11.0141 15.4929 10.3327 15.7434 9.58114C15.994 8.82954 16.0623 8.02916 15.9428 7.24596C15.8233 6.46276 15.5195 5.71917 15.0562 5.07645C14.593 4.43374 13.9836 3.9103 13.2784 3.54929C12.5732 3.18827 11.7923 3 11 3ZM2 8C2.00099 7.45584 2.14997 6.9222 2.43099 6.45622C2.712 5.99023 3.11447 5.60946 3.59529 5.35466C4.07611 5.09987 4.61718 4.98065 5.16056 5.00978C5.70394 5.0389 6.22917 5.21527 6.68 5.52C6.22803 6.27558 5.98934 7.13956 5.98934 8.02C5.98934 8.90045 6.22803 9.76442 6.68 10.52C6.18003 10.8431 5.59522 11.0102 5 11C4.20435 11 3.44129 10.6839 2.87868 10.1213C2.31607 9.55871 2 8.79565 2 8ZM11 11C10.4006 10.9984 9.81548 10.8173 9.32 10.48C9.77197 9.72442 10.0107 8.86045 10.0107 7.98C10.0107 7.09956 9.77197 6.23558 9.32 5.48C9.71001 5.22824 10.1531 5.07042 10.6145 5.01896C11.0758 4.9675 11.5428 5.02381 11.9787 5.18345C12.4146 5.34309 12.8075 5.60171 13.1265 5.93896C13.4455 6.27621 13.6819 6.68288 13.8171 7.12699C13.9522 7.57109 13.9825 8.04049 13.9054 8.49827C13.8284 8.95605 13.6462 9.3897 13.3731 9.76512C13.1001 10.1405 12.7436 10.4474 12.3318 10.6617C11.92 10.876 11.4641 10.9918 11 11Z" fill="black" fill-opacity="0.75"/>
</svg>
