<svg width="24" height="24" viewBox="0 0 24 24" fill="none" xmlns="http://www.w3.org/2000/svg">
<path d="M16 5C14.5 5 13.1 5.5 12 6.3C10.9 5.5 9.5 5 8 5C4.1 5 1 8.1 1 12C1 15.9 4.1 19 8 19C9.5 19 10.9 18.5 12 17.7C13.1 18.5 14.5 19 16 19C19.9 19 23 15.9 23 12C23 8.1 19.9 5 16 5ZM2.9 12C2.9 9.2 5.2 6.9 8 6.9C8.9 6.9 9.8 7.2 10.6 7.6C9.6 8.8 9 10.3 9 12C9 13.7 9.6 15.2 10.6 16.4C9.8 16.8 9 17.1 8 17.1C5.2 17.1 2.9 14.8 2.9 12ZM16 17.1C15.1 17.1 14.2 16.8 13.4 16.4C14.4 15.2 15 13.7 15 12C15 10.3 14.4 8.8 13.4 7.6C14.2 7.2 15 6.9 16 6.9C18.8 6.9 21.1 9.2 21.1 12C21.1 14.8 18.8 17.1 16 17.1Z" fill="black" fill-opacity="0.75"/>
</svg>
