<svg width="16" height="16" viewBox="0 0 16 16" fill="none" xmlns="http://www.w3.org/2000/svg">
<path fill-rule="evenodd" clip-rule="evenodd" d="M2 2V9H14V2H2ZM0.667 0C0.490101 0 0.320447 0.070273 0.19536 0.19536C0.070273 0.320447 0 0.490101 0 0.667L0 10.333C0 10.701 0.298 11 0.667 11H15.333C15.5099 11 15.6796 10.9297 15.8046 10.8046C15.9297 10.6796 16 10.5099 16 10.333V0.667C16 0.490101 15.9297 0.320447 15.8046 0.19536C15.6796 0.070273 15.5099 0 15.333 0L0.667 0ZM6 3H4V5H6V3ZM5 8V6H3V8H5ZM13 6V8H11V6H13ZM9 3H7V5H9V3ZM10 3H12V5H10V3ZM10 6H6V8H10V6ZM5 14.029V11.629L8 13.6L11 11.629V14.029L8 16L5 14.029Z" fill="black" fill-opacity="0.75"/>
</svg>
