<svg width="16" height="16" viewBox="0 0 16 16" fill="none" xmlns="http://www.w3.org/2000/svg">
<path fill-rule="evenodd" clip-rule="evenodd" d="M8 0L11 1.971V4.371L8 2.4L5 4.371V1.971L8 0ZM2 7V14H14V7H2ZM0.667 5C0.490101 5 0.320447 5.07027 0.19536 5.19536C0.070273 5.32045 0 5.4901 0 5.667L0 15.333C0 15.701 0.298 16 0.667 16H15.333C15.5099 16 15.6796 15.9297 15.8046 15.8046C15.9297 15.6796 16 15.5099 16 15.333V5.667C16 5.4901 15.9297 5.32045 15.8046 5.19536C15.6796 5.07027 15.5099 5 15.333 5H0.667ZM6 10V8H4V10H6ZM5 13V11H3V13H5ZM13 11V13H11V11H13ZM9 10V8H7V10H9ZM10 10V8H12V10H10ZM10 11H6V13H10V11Z" fill="black" fill-opacity="0.75"/>
</svg>
