<svg width="24" height="24" viewBox="0 0 24 24" fill="none" xmlns="http://www.w3.org/2000/svg">
<path fill-rule="evenodd" clip-rule="evenodd" d="M12 1L16 4V6.5L12 3.5L8 6.5V4L12 1ZM3 10V20H21V10H3ZM2 8C1.73478 8 1.48043 8.10536 1.29289 8.29289C1.10536 8.48043 1 8.73478 1 9V21C1 21.2652 1.10536 21.5196 1.29289 21.7071C1.48043 21.8946 1.73478 22 2 22H22C22.2652 22 22.5196 21.8946 22.7071 21.7071C22.8946 21.5196 23 21.2652 23 21V9C23 8.73478 22.8946 8.48043 22.7071 8.29289C22.5196 8.10536 22.2652 8 22 8H2ZM5 12H7V14H5V12ZM5 16H8V18H5V16ZM19 16H16V18H19V16ZM9 12H11V14H9V12ZM15 12H13V14H15V12ZM10 18V16H14V18H10ZM19 12H17V14H19V12Z" fill="black" fill-opacity="0.75"/>
</svg>
