<svg width="24" height="24" viewBox="0 0 24 24" fill="none" xmlns="http://www.w3.org/2000/svg">
<path fill-rule="evenodd" clip-rule="evenodd" d="M3 4V14H21V4H3ZM2 2C1.73478 2 1.48043 2.10536 1.29289 2.29289C1.10536 2.48043 1 2.73478 1 3V15C1 15.2652 1.10536 15.5196 1.29289 15.7071C1.48043 15.8946 1.73478 16 2 16H22C22.2652 16 22.5196 15.8946 22.7071 15.7071C22.8946 15.5196 23 15.2652 23 15V3C23 2.73478 22.8946 2.48043 22.7071 2.29289C22.5196 2.10536 22.2652 2 22 2H2ZM5 6H7V8H5V6ZM5 10H8V12H5V10ZM19 10H16V12H19V10ZM9 6H11V8H9V6ZM15 6H13V8H15V6ZM10 10H14V12H10V10ZM19 6H17V8H19V6ZM8 20V17.5L12 20.5L16 17.5V20L12 23L8 20Z" fill="black" fill-opacity="0.75"/>
</svg>
