<svg width="24" height="24" viewBox="0 0 24 24" fill="none" xmlns="http://www.w3.org/2000/svg">
<path d="M10 20H14V20.1C14 21.1 13.1 22 12.1 22H11.9C10.9 22 10 21.1 10 20.1V20ZM14.7 5.49995C15.2 5.69995 15.8 5.49995 16 4.99995L16.8 3.19995C17 2.69995 16.8 2.09995 16.3 1.89995C15.8 1.69995 15.2 1.89995 15 2.39995L14.2 4.19995C13.9 4.69995 14.2 5.29995 14.7 5.49995ZM19.8 9.89995L21.6 9.09995C22.1 8.89995 22.4 8.29995 22.1 7.79995C22 7.29995 21.4 6.99995 20.9 7.19995L19 7.99995C18.5 8.19995 18.2 8.79995 18.5 9.29995C18.7 9.79995 19.3 10.1 19.8 9.89995ZM4.20003 14.1L2.40003 14.9C1.90003 15.1 1.60003 15.7 1.90003 16.2C2.20003 16.7 2.70003 17 3.20003 16.7L5.00003 16C5.50003 15.8 5.80003 15.2 5.50003 14.7C5.20003 14.2 4.70003 13.9 4.20003 14.1ZM21.6 14.9L19.8 14.1C19.3 13.9 18.7 14.1 18.5 14.6C18.3 15.1 18.5 15.7 19 15.9L20.8 16.7C21.3 16.9 21.9 16.7 22.1 16.2C22.4 15.7 22.1 15.1 21.6 14.9ZM5.00003 7.99995L3.10003 7.19995C2.60003 6.99995 2.00003 7.29995 1.80003 7.79995C1.60003 8.29995 1.80003 8.89995 2.30003 9.09995L4.10003 9.89995C4.60003 10.1 5.20003 9.89995 5.40003 9.39995C5.70003 8.79995 5.50003 8.19995 5.00003 7.99995ZM8.00003 4.99995C8.20003 5.49995 8.80003 5.79995 9.30003 5.49995C9.80003 5.29995 10.1 4.69995 9.80003 4.19995L9.10003 2.39995C8.90003 1.89995 8.30003 1.59995 7.80003 1.79995C7.30003 1.99995 7.00003 2.59995 7.20003 3.09995L8.00003 4.99995ZM17 11.9V12C17 13.5 16.4 14.9 15.4 15.9L15.3 16C14.8 16.5 14.4 17.2 14.2 17.9L14 19H10L9.80003 17.9C9.60003 17.2 9.30003 16.5 8.70003 16L8.60003 15.9C7.60003 14.9 7.00003 13.5 7.00003 12V11.9C7.00003 9.19995 9.20003 6.99995 11.9 6.99995H12.1C14.8 6.99995 17 9.19995 17 11.9ZM15 11.9C15 10.3 13.7 8.99995 12.1 8.99995H11.9C10.3 8.99995 9.00003 10.3 9.00003 11.9V12C9.00003 12.9 9.40003 13.8 10 14.5L10.1 14.6C10.8 15.3 11.3 16.1 11.6 17H12.4C12.7 16.1 13.2 15.2 13.9 14.6L14 14.5C14.7 13.8 15 13 15 12V11.9Z" fill="black" fill-opacity="0.75"/>
</svg>
