<svg width="16" height="16" viewBox="0 0 16 16" fill="none" xmlns="http://www.w3.org/2000/svg">
<path d="M9.29749 2.70898L9.81671 1.44974C9.97647 1.06997 10.4158 0.89008 10.7952 1.04998C11.1747 1.20989 11.3544 1.64962 11.1946 2.02939L10.6754 3.28863C10.5556 3.57846 10.276 3.74836 9.98646 3.74836C9.88661 3.74836 9.79674 3.72837 9.69689 3.68839C9.31746 3.52849 9.13773 3.08875 9.29749 2.70898ZM12.9819 6.74655C13.0818 6.74655 13.1717 6.72656 13.2715 6.68658L14.5296 6.1669C14.909 6.00699 15.0888 5.56726 14.939 5.18749C14.7792 4.80772 14.3399 4.62783 13.9605 4.77774L12.7024 5.29742C12.3229 5.45733 12.1432 5.89706 12.293 6.27683C12.4128 6.56666 12.6924 6.73655 12.9819 6.73655V6.74655ZM5.28353 3.28863C5.40335 3.57846 5.68293 3.74836 5.97249 3.74836C6.07234 3.74836 6.16221 3.72837 6.26206 3.68839C6.64149 3.52849 6.82122 3.08875 6.66146 2.70898L6.14224 1.44974C5.98248 1.06997 5.54314 0.89008 5.16371 1.04998C4.78428 1.20989 4.60455 1.64962 4.76431 2.02939L5.28353 3.28863ZM2.71739 9.30501L1.45929 9.82469C1.07986 9.9846 0.900127 10.4243 1.0499 10.8041C1.16972 11.0939 1.4493 11.2638 1.73886 11.2638C1.83871 11.2638 1.92858 11.2438 2.02843 11.2039L3.28654 10.6842C3.66597 10.5243 3.84569 10.0845 3.69592 9.70477C3.53616 9.32499 3.10681 9.1451 2.71739 9.29501V9.30501ZM11.4842 7.9958C11.4842 9.08514 10.985 10.0645 10.1961 10.7042C9.76679 11.0739 9.59704 11.6036 9.52715 11.9934H6.44179C6.37189 11.6136 6.21213 11.0939 5.80275 10.7241L5.78278 10.7042C4.99397 10.0645 4.49472 9.08514 4.49472 7.9958C4.49472 6.06696 6.06236 4.4979 7.98946 4.4979C9.91656 4.4979 11.4842 6.06696 11.4842 7.9958ZM9.58706 7.9958C9.58706 7.11633 8.86814 6.39676 7.98946 6.39676C7.11078 6.39676 6.39186 7.11633 6.39186 7.9958C6.39186 8.47551 6.60155 8.92524 6.98098 9.23505H6.99096L7.0309 9.27502C7.48023 9.67478 7.77978 10.1245 7.98946 10.5742C8.19914 10.1145 8.50868 9.6448 8.97797 9.25504C9.37737 8.92524 9.58706 8.47551 9.58706 7.9958ZM14.5196 9.8147L13.2615 9.29501C12.8821 9.13511 12.4428 9.315 12.283 9.70477C12.1232 10.0945 12.303 10.5243 12.6924 10.6842L13.9505 11.2039C14.0404 11.2438 14.1402 11.2638 14.2401 11.2638C14.5296 11.2638 14.8092 11.0939 14.929 10.8041C15.0888 10.4243 14.909 9.9846 14.5196 9.82469V9.8147ZM3.28654 5.30742L2.02843 4.78773C1.649 4.62783 1.20966 4.81771 1.0499 5.19748C0.890142 5.57725 1.06987 6.01699 1.45929 6.17689L2.71739 6.69658C2.80726 6.73656 2.90711 6.75654 3.00696 6.75654C3.29652 6.75654 3.5761 6.58665 3.69592 6.29682C3.85568 5.91705 3.67595 5.47731 3.28654 5.31741V5.30742ZM6.49171 13.4925C6.49171 14.322 7.16071 14.9916 7.98946 14.9916C8.81821 14.9916 9.48721 14.322 9.48721 13.4925V12.9928H6.49171V13.4925Z" fill="black" fill-opacity="0.75"/>
</svg>
