<svg width="24" height="24" viewBox="0 0 24 24" fill="none" xmlns="http://www.w3.org/2000/svg">
<path d="M9.99999 20H14V20.1C14 21.15 13.15 22 12.1 22H11.9C10.85 22 9.99999 21.15 9.99999 20.1V20ZM14.68 5.52999C15.19 5.73999 15.78 5.49999 15.99 4.98999L16.76 3.13999C16.97 2.62999 16.73 2.04999 16.22 1.82999C15.71 1.61999 15.12 1.85999 14.91 2.36999L14.14 4.21999C13.93 4.72999 14.17 5.31999 14.68 5.52999ZM19.77 9.85999L21.62 9.08999C22.13 8.87999 22.37 8.28999 22.16 7.77999C21.95 7.26999 21.36 7.02999 20.85 7.23999L19 8.00999C18.49 8.21999 18.25 8.80999 18.46 9.31999C18.67 9.82999 19.26 10.07 19.77 9.85999ZM4.22999 14.14L2.37999 14.91C1.86999 15.12 1.62999 15.71 1.83999 16.22C2.04999 16.73 2.63999 16.97 3.14999 16.76L4.99999 15.99C5.50999 15.78 5.74999 15.19 5.53999 14.68C5.32999 14.17 4.73999 13.93 4.22999 14.14ZM21.63 14.91L19.78 14.14C19.27 13.93 18.68 14.17 18.47 14.68C18.26 15.19 18.5 15.78 19.01 15.99L20.86 16.76C21.37 16.97 21.96 16.73 22.17 16.22C22.38 15.71 22.14 15.12 21.63 14.91ZM4.98999 8.00999L3.13999 7.23999C2.62999 7.02999 2.03999 7.26999 1.82999 7.77999C1.61999 8.28999 1.85999 8.87999 2.36999 9.08999L4.21999 9.85999C4.72999 10.07 5.31999 9.82999 5.52999 9.31999C5.73999 8.80999 5.49999 8.21999 4.98999 8.00999ZM8.00999 4.98999C8.21999 5.49999 8.80999 5.73999 9.31999 5.52999C9.82999 5.31999 10.07 4.72999 9.85999 4.21999L9.08999 2.36999C8.87999 1.85999 8.28999 1.61999 7.77999 1.82999C7.26999 2.03999 7.02999 2.62999 7.23999 3.13999L8.00999 4.98999ZM17 11.9V12.02C17 13.48 16.42 14.88 15.39 15.91L15.32 15.98C14.79 16.51 14.41 17.19 14.25 17.92L14.01 19H10.01L9.76999 17.92C9.59999 17.18 9.22999 16.51 8.69999 15.98L8.62999 15.91C7.59999 14.88 7.01999 13.48 7.01999 12.02V11.9C7.01999 9.18999 9.20999 6.99999 11.92 6.99999H12.12C14.83 6.99999 17.02 9.18999 17.02 11.9H17Z" fill="black" fill-opacity="0.75"/>
</svg>
