<svg width="16" height="16" viewBox="0 0 16 16" fill="none" xmlns="http://www.w3.org/2000/svg">
<path d="M11.484 7.99599C11.484 9.08599 10.985 10.065 10.196 10.704C9.76599 11.074 9.59699 11.604 9.52699 11.994H6.44199C6.37199 11.614 6.21199 11.094 5.80199 10.724L5.78199 10.704C5.37919 10.3771 5.05457 9.96424 4.83189 9.4957C4.60921 9.02716 4.4941 8.51475 4.49499 7.99599C4.49552 7.06912 4.86368 6.1803 5.5187 5.52453C6.17372 4.86875 7.06212 4.49958 7.98899 4.49799C8.91603 4.49931 9.80469 4.86837 10.4599 5.52417C11.1152 6.17997 11.4835 7.06894 11.484 7.99599ZM12.982 6.74699C13.082 6.74699 13.172 6.72699 13.272 6.68699L14.53 6.16699C14.91 6.00699 15.089 5.56699 14.939 5.18699C14.8611 5.00477 14.7154 4.86005 14.5326 4.78351C14.3498 4.70697 14.1445 4.70463 13.96 4.77699L12.702 5.29699C12.5201 5.37542 12.3757 5.52147 12.2994 5.70431C12.2231 5.88715 12.2208 6.09249 12.293 6.27699C12.413 6.56699 12.693 6.73699 12.982 6.73699V6.74699ZM14.52 9.81499L13.262 9.29499C13.1709 9.25687 13.0731 9.23725 12.9743 9.23727C12.8756 9.23729 12.7778 9.25695 12.6867 9.2951C12.5956 9.33325 12.513 9.38914 12.4437 9.4595C12.3744 9.52987 12.3197 9.61332 12.283 9.70499C12.123 10.095 12.303 10.525 12.693 10.685L13.951 11.204C14.0415 11.2424 14.1387 11.2625 14.237 11.2632C14.3353 11.2638 14.4328 11.245 14.5238 11.2078C14.6148 11.1706 14.6975 11.1158 14.7672 11.0465C14.837 10.9772 14.8923 10.8948 14.93 10.804C14.9681 10.7128 14.9878 10.6149 14.9878 10.5161C14.9877 10.4173 14.9681 10.3194 14.93 10.2282C14.8918 10.1371 14.8359 10.0544 14.7655 9.98497C14.6952 9.91557 14.6117 9.86085 14.52 9.82399V9.81499ZM6.49199 13.492C6.49199 13.8893 6.64981 14.2703 6.93074 14.5512C7.21167 14.8322 7.59269 14.99 7.98999 14.99C8.38728 14.99 8.76831 14.8322 9.04924 14.5512C9.33016 14.2703 9.48799 13.8893 9.48799 13.492V12.992H6.49099L6.49199 13.492ZM9.29699 2.70899L9.81699 1.44899C9.89839 1.27305 10.0449 1.13559 10.2257 1.06557C10.4065 0.995551 10.6074 0.99845 10.786 1.07365C10.9647 1.14886 11.1072 1.29049 11.1835 1.46871C11.2598 1.64692 11.2639 1.84779 11.195 2.02899L10.675 3.28899C10.6373 3.37965 10.582 3.46197 10.5124 3.53119C10.4427 3.60042 10.3601 3.6552 10.2692 3.69237C10.1783 3.72954 10.0809 3.74838 9.98274 3.7478C9.88455 3.74722 9.78743 3.72723 9.69699 3.68899C9.51426 3.61175 9.36958 3.46526 9.29461 3.28159C9.21964 3.09792 9.2205 2.89203 9.29699 2.70899ZM5.28399 3.28899C5.32171 3.37965 5.37698 3.46197 5.44663 3.53119C5.51627 3.60042 5.59892 3.6552 5.68981 3.69237C5.7807 3.72954 5.87804 3.74838 5.97624 3.7478C6.07443 3.74722 6.17155 3.72723 6.26199 3.68899C6.64199 3.52899 6.82199 3.08899 6.66199 2.70899L6.14199 1.44899C6.06059 1.27305 5.91406 1.13559 5.73329 1.06557C5.55252 0.995551 5.35163 0.99845 5.17295 1.07365C4.99428 1.14886 4.85178 1.29049 4.77549 1.46871C4.6992 1.64692 4.69507 1.84779 4.76399 2.02899L5.28399 3.28899ZM3.28699 5.30699L2.02799 4.78699C1.84385 4.71253 1.63775 4.71384 1.45457 4.79063C1.2714 4.86742 1.12598 5.01348 1.04999 5.19699C0.889989 5.57699 1.06999 6.01699 1.45999 6.17699L2.71699 6.69699C2.80749 6.73539 2.90469 6.7555 3.003 6.75616C3.1013 6.75682 3.19877 6.73801 3.28977 6.70083C3.38078 6.66365 3.46353 6.60882 3.53324 6.53951C3.60296 6.4702 3.65827 6.38777 3.69599 6.29699C3.73412 6.2058 3.75376 6.10795 3.75375 6.00911C3.75375 5.91027 3.7341 5.81242 3.69595 5.72124C3.6578 5.63006 3.60192 5.54737 3.53154 5.47797C3.46116 5.40857 3.3777 5.35385 3.28599 5.31699L3.28699 5.30699ZM2.71699 9.30499L1.45899 9.82499C1.07899 9.98499 0.899989 10.425 1.04899 10.805C1.08679 10.8958 1.14221 10.9782 1.21204 11.0475C1.28188 11.1168 1.36474 11.1716 1.45585 11.2087C1.54696 11.2458 1.64452 11.2645 1.74289 11.2637C1.84126 11.2629 1.9385 11.2426 2.02899 11.204L3.28699 10.684C3.66599 10.524 3.84599 10.084 3.69599 9.70399C3.61877 9.52128 3.47301 9.37611 3.28998 9.29965C3.10695 9.22318 2.90124 9.22151 2.71699 9.29499V9.30499Z" fill="black" fill-opacity="0.75"/>
</svg>
