<svg width="24" height="24" viewBox="0 0 24 24" fill="none" xmlns="http://www.w3.org/2000/svg">
<path d="M13.32 15.85C12.27 15.85 11.21 15.45 10.41 14.66L9.87 14.12C9.48 13.73 9.48 13.1 9.87 12.71C10.26 12.32 10.89 12.32 11.28 12.71L11.81 13.25C12.64 14.07 13.98 14.07 14.81 13.25L19.13 8.97003C19.68 8.42003 19.99 7.69003 19.99 6.91003C19.99 6.13003 19.69 5.40003 19.13 4.85003C18.02 3.75003 16.21 3.75003 15.1 4.85003L13.48 6.46003C13.09 6.85003 12.46 6.85003 12.07 6.46003C11.68 6.07003 11.68 5.44003 12.07 5.05003L13.69 3.44003C15.57 1.56003 18.65 1.56003 20.54 3.44003C21.47 4.37003 21.99 5.60003 21.99 6.92003C21.99 8.24003 21.48 9.48003 20.54 10.4L16.22 14.68C15.42 15.48 14.37 15.87 13.31 15.87L13.32 15.85ZM10.3 20.6L11.92 18.99C12.31 18.6 12.31 17.97 11.92 17.58C11.53 17.19 10.9 17.19 10.51 17.58L8.89 19.19C7.78 20.3 5.97 20.3 4.86 19.19C4.31 18.64 4 17.91 4 17.13C4 16.35 4.3 15.62 4.86 15.07L9.18 10.79C10.01 9.97003 11.35 9.97003 12.18 10.79L12.71 11.32C13.1 11.71 13.73 11.71 14.12 11.32C14.51 10.93 14.51 10.3 14.12 9.91003L13.58 9.37003C11.98 7.78003 9.37 7.78003 7.76 9.37003L3.45 13.63C2.52 14.56 2 15.79 2 17.11C2 18.43 2.51 19.67 3.45 20.59C4.39 21.53 5.63 21.99 6.87 21.99C8.11 21.99 9.35 21.52 10.3 20.58V20.6Z" fill="black" fill-opacity="0.75"/>
</svg>
