<svg width="16" height="16" viewBox="0 0 16 16" fill="none" xmlns="http://www.w3.org/2000/svg">
<path d="M8.76999 11.03C7.97999 11.03 7.19999 10.73 6.59999 10.14C6.20999 9.75 6.20999 9.12 6.59999 8.72001C6.98999 8.33001 7.61999 8.33001 8.00999 8.72001C8.42999 9.14001 9.10999 9.14001 9.52999 8.72001L12.52 5.74C12.82 5.44 12.99 5.03 12.99 4.6C12.99 4.17 12.82 3.76 12.52 3.46001C11.91 2.85001 10.92 2.85001 10.31 3.46001L9.91999 3.85C9.52999 4.24001 8.88999 4.24001 8.50999 3.85C8.11999 3.46 8.11999 2.82 8.50999 2.43L8.89999 2.04C10.29 0.660005 12.54 0.660005 13.93 2.04C14.61 2.72 14.99 3.63 14.99 4.6C14.99 5.57 14.61 6.48 13.93 7.16L10.94 10.14C10.34 10.74 9.54999 11.03 8.76999 11.03ZM7.08999 13.97L7.47999 13.58C7.86999 13.19 7.86999 12.56 7.47999 12.17C7.08999 11.78 6.45999 11.78 6.06999 12.17L5.67999 12.56C5.06999 13.17 4.07999 13.17 3.46999 12.56C3.16999 12.26 2.99999 11.85 2.99999 11.42C2.99999 10.99 3.16999 10.58 3.46999 10.28L6.46999 7.3C6.88999 6.88 7.56999 6.88 7.98999 7.3C8.37999 7.69 9.00999 7.69 9.39999 7.3C9.78999 6.91001 9.78999 6.27 9.39999 5.88C8.19999 4.69 6.24999 4.69 5.04999 5.88L2.04999 8.86C1.35999 9.54 0.98999 10.45 0.98999 11.42C0.98999 12.39 1.36999 13.3 2.04999 13.98C2.73999 14.67 3.64999 15.01 4.55999 15.01C5.46999 15.01 6.37999 14.67 7.06999 13.98L7.08999 13.97Z" fill="black" fill-opacity="0.75"/>
</svg>
