<svg width="16" height="16" viewBox="0 0 16 16" fill="none" xmlns="http://www.w3.org/2000/svg">
<path d="M14 0H2C1.45 0 1 0.45 1 1V16L4 14H14C14.55 14 15 13.55 15 13V1C15 0.45 14.55 0 14 0ZM5 12H3V5H5V12ZM4 4.2C3.34 4.2 2.75 3.63 2.75 3C2.75 2.37 3.34 1.8 4 1.8C4.66 1.8 5.25 2.37 5.25 3C5.25 3.63 4.66 4.2 4 4.2ZM13 12H11V8.73C11 7.94 10.82 6.8 9.66 6.8C8.48 6.8 8 7.84 8 8.73V12H6V5H7.85V6.01H7.89C8.28 5.44 9.03 4.8 10.14 4.8C12.27 4.8 13 6.09 13 8.29V12Z" fill="black" fill-opacity="0.75"/>
</svg>
