<svg width="24" height="24" viewBox="0 0 24 24" fill="none" xmlns="http://www.w3.org/2000/svg">
<path d="M20.5 0H3.5C2.7 0 2 0.7 2 1.5V24L6.5 20H20.5C21.3 20 22 19.3 22 18.5V1.5C22 0.7 21.3 0 20.5 0ZM8 17H5V8H8V17ZM6.5 6.2C5.5 6.2 4.7 5.4 4.7 4.4C4.7 3.4 5.5 2.6 6.5 2.6C7.5 2.6 8.3 3.4 8.3 4.4C8.3 5.4 7.5 6.2 6.5 6.2ZM19 17H16V12.3C16 10.9 15.4 10.4 14.6 10.4C13.8 10.4 13 11.1 13 12.4V17H10V8H12.9V9.3C13.3 8.7 14.2 7.9 15.6 7.9C17.1 7.9 19 8.8 19 11.6V17Z" fill="black" fill-opacity="0.75"/>
</svg>
