<svg width="24" height="24" viewBox="0 0 24 24" fill="none" xmlns="http://www.w3.org/2000/svg">
<path d="M20.5 2H3.5C2.7 2 2 2.7 2 3.5V20.5C2 21.3 2.7 22 3.5 22H20.5C21.3 22 22 21.3 22 20.5V3.5C22 2.7 21.3 2 20.5 2ZM8 19H5V10H8V19ZM6.5 8.2C5.5 8.2 4.7 7.4 4.7 6.4C4.7 5.4 5.5 4.6 6.5 4.6C7.5 4.6 8.3 5.4 8.3 6.4C8.3 7.5 7.5 8.2 6.5 8.2ZM19 19H16V14.3C16 12.9 15.4 12.4 14.6 12.4C13.8 12.4 13 13.1 13 14.4V19H10V10H12.9V11.3C13.3 10.7 14.2 9.9 15.6 9.9C17.1 9.9 19 10.8 19 13.6V19Z" fill="black" fill-opacity="0.75"/>
</svg>
