<svg width="24" height="24" viewBox="0 0 24 24" fill="none" xmlns="http://www.w3.org/2000/svg">
<path fill-rule="evenodd" clip-rule="evenodd" d="M11 13V16.784C11.627 17.001 12.299 17.125 13 17.125C13.701 17.125 14.373 17.001 15 16.784V13H11Z" fill="black" fill-opacity="0.75"/>
<path fill-rule="evenodd" clip-rule="evenodd" d="M15.335 9C15.335 7.71 14.29 6.665 13 6.665C11.71 6.665 10.665 7.71 10.665 9C10.665 10.29 11.71 11.335 13 11.335C14.29 11.335 15.335 10.29 15.335 9Z" fill="black" fill-opacity="0.75"/>
<path fill-rule="evenodd" clip-rule="evenodd" d="M13 17.125C9.61699 17.125 6.87499 14.383 6.87499 11C6.87499 7.617 9.61699 4.875 13 4.875C16.383 4.875 19.125 7.617 19.125 11C19.125 14.383 16.383 17.125 13 17.125ZM13 2C8.02899 2 3.99999 6.029 3.99999 11C3.99999 12.76 4.51299 14.398 5.38699 15.785L2.21999 18.952C1.92699 19.245 1.92699 19.72 2.21999 20.013L3.98699 21.78C4.27999 22.073 4.75499 22.073 5.04799 21.78L8.21499 18.613C9.60199 19.487 11.24 20 13 20C17.971 20 22 15.97 22 11C22 6.029 17.971 2 13 2Z" fill="black" fill-opacity="0.75"/>
</svg>
