<svg width="24" height="24" viewBox="0 0 24 24" fill="none" xmlns="http://www.w3.org/2000/svg">
<path fill-rule="evenodd" clip-rule="evenodd" d="M12 2C6.477 2 2 6.477 2 12C2 17.523 6.477 22 12 22C17.523 22 22 17.523 22 12C22 6.477 17.523 2 12 2ZM12 3.875C16.48 3.875 20.125 7.52 20.125 12C20.125 16.48 16.48 20.125 12 20.125C7.52 20.125 3.875 16.48 3.875 12C3.875 7.52 7.52 3.875 12 3.875Z" fill="black" fill-opacity="0.75"/>
<path fill-rule="evenodd" clip-rule="evenodd" d="M12 9C10.343 9 9 10.343 9 12C9 13.657 10.343 15 12 15C13.657 15 15 13.657 15 12C15 10.343 13.657 9 12 9ZM12 9.875C13.172 9.875 14.125 10.828 14.125 12C14.125 13.172 13.172 14.125 12 14.125C10.828 14.125 9.875 13.172 9.875 12C9.875 10.828 10.828 9.875 12 9.875Z" fill="black" fill-opacity="0.75"/>
<path fill-rule="evenodd" clip-rule="evenodd" d="M16.9897 7.64C16.9897 7.25 16.7187 7.01 16.3577 7.01C16.2597 7.01 16.1577 7.025 16.0557 7.071L11.7577 9.024C11.8397 9.018 11.917 9 12 9C12.622 9 13.1987 9.189 13.6767 9.512C14.1557 9.836 14.5367 10.294 14.7637 10.832C14.9157 11.191 15 11.586 15 12C15 12.083 14.9817 12.161 14.9757 12.242L16.9287 7.944C16.9757 7.842 16.9897 7.739 16.9897 7.64Z" fill="black" fill-opacity="0.75"/>
<path fill-rule="evenodd" clip-rule="evenodd" d="M10.3228 14.4877C9.8438 14.1647 9.4638 13.7057 9.2358 13.1677C9.0838 12.8087 9 12.415 9 12C9 11.917 9.0178 11.8387 9.0248 11.7577L7.0718 16.0547C7.0318 16.1417 7.0098 16.2287 7.0098 16.3127C7.0098 16.6407 7.2658 16.9887 7.6258 16.9887C7.7288 16.9887 7.8378 16.9777 7.9458 16.9287L12.2418 14.9757C12.1608 14.9827 12.083 15 12 15C11.379 15 10.8018 14.8107 10.3228 14.4877Z" fill="black" fill-opacity="0.75"/>
</svg>
