<svg width="24" height="24" viewBox="0 0 24 24" fill="none" xmlns="http://www.w3.org/2000/svg">
<path d="M2.59 18.5842L12.59 8.58195C13.37 7.80177 14.64 7.80177 15.42 8.58195C16.2 9.36213 16.2 10.6324 15.42 11.4126L5.42001 21.4149C4.64001 22.195 3.37 22.195 2.59 21.4149C1.81 20.6347 1.81 19.3644 2.59 18.5842ZM11.88 10.6424L13.29 12.0527L14.7 10.6424C15.09 10.2523 15.09 9.62219 14.7 9.2321C14.31 8.84201 13.68 8.84201 13.29 9.2321L11.88 10.6424ZM19 0C18.63 2.59059 16.59 4.63105 14 5.00114C16.59 5.37122 18.63 7.41168 19 10.0023C19.37 7.41168 21.41 5.37122 24 5.00114C21.41 4.63105 19.37 2.59059 19 0ZM19 11.0025C18.7 13.073 17.07 14.7033 15 15.0034C17.07 15.3035 18.7 16.9338 19 19.0043C19.3 16.9338 20.93 15.3035 23 15.0034C20.93 14.7033 19.3 13.073 19 11.0025ZM9 1.00023C8.7 3.0707 7.07 4.70107 5.00001 5.00114C7.07 5.30121 8.7 6.93157 9 9.00205C9.3 6.93157 10.93 5.30121 13 5.00114C10.93 4.70107 9.3 3.0707 9 1.00023Z" fill="black" fill-opacity="0.75"/>
</svg>
