<svg width="16" height="16" viewBox="0 0 16 16" fill="none" xmlns="http://www.w3.org/2000/svg">
<path d="M15 4.18C13.3491 4.42 12.0584 5.71 11.8183 7.36C11.5782 5.71 10.2875 4.42 8.63659 4.18C10.2875 3.94 11.5782 2.65 11.8183 1C12.0584 2.65 13.3491 3.94 15 4.18ZM11.8183 7.99C11.6282 9.31 10.5976 10.34 9.27693 10.53C10.5976 10.72 11.6282 11.75 11.8183 13.07C12.0084 11.75 13.0389 10.72 14.3597 10.53C13.0389 10.34 12.0084 9.31 11.8183 7.99ZM5.46489 1.64C5.27479 2.96 4.24424 3.99 2.92353 4.18C4.24424 4.37 5.27479 5.4 5.46489 6.72C5.65499 5.4 6.68555 4.37 8.00625 4.18C6.68555 3.99 5.65499 2.96 5.46489 1.64ZM9.60711 8.53L3.56387 14.56C3.27372 14.85 2.88351 15 2.50331 15C2.1231 15 1.73289 14.85 1.44274 14.56C0.852421 13.97 0.852421 13.02 1.44274 12.44L7.47597 6.41C7.76612 6.12 8.15633 5.97 8.53654 5.97C8.91674 5.97 9.30695 6.12 9.59711 6.41C10.1874 7 10.1874 7.95 9.59711 8.53H9.60711ZM9.04681 7.47C9.04681 7.39 9.0268 7.24 8.89673 7.12C8.76666 6.99 8.61658 6.97 8.54654 6.97C8.4765 6.97 8.31642 6.99 8.19635 7.12L6.93568 8.38L7.64606 9.09L8.90673 7.83C9.03681 7.7 9.05682 7.55 9.05682 7.48H9.04681V7.47Z" fill="black" fill-opacity="0.75"/>
</svg>
