<svg width="24" height="24" viewBox="0 0 24 24" fill="none" xmlns="http://www.w3.org/2000/svg">
<path fill-rule="evenodd" clip-rule="evenodd" d="M1 7L5 2H19L23 7C23.0003 7.88691 22.7059 8.74878 22.163 9.4501C21.62 10.1514 20.8594 10.6524 20.0007 10.8743C19.142 11.0962 18.2339 11.0264 17.4192 10.6759C16.6045 10.3254 15.9294 9.71405 15.5 8.938C15.4787 8.97639 15.4567 9.0144 15.434 9.052C15.2717 9.32314 15.0781 9.57421 14.857 9.8L14.854 9.802C14.4821 10.1818 14.0381 10.4834 13.548 10.6892C13.0578 10.8949 12.5315 11.0006 12 11C11.2975 11.0014 10.607 10.8171 9.99856 10.4659C9.3901 10.1147 8.88521 9.60903 8.535 9C8.52315 8.97944 8.51148 8.95877 8.5 8.938C8.3256 9.25307 8.1093 9.54304 7.857 9.8L7.854 9.802C7.48213 10.1818 7.03809 10.4834 6.54797 10.6892C6.05785 10.8949 5.53155 11.0006 5 11C4.47464 11.0003 3.95438 10.897 3.46896 10.6961C2.98353 10.4951 2.54247 10.2005 2.17099 9.82901C1.7995 9.45753 1.50487 9.01647 1.30395 8.53104C1.10302 8.04562 0.999738 7.52536 1 7ZM3 20V11.584C3.63078 11.8593 4.31176 12.0009 5 12C6.3092 12.0015 7.56643 11.4879 8.5 10.57C9.43357 11.4879 10.6908 12.0015 12 12C13.3092 12.0015 14.5664 11.4879 15.5 10.57C16.4336 11.4879 17.6908 12.0015 19 12C19.711 12 20.387 11.852 21 11.584V20C21 20.5304 20.7893 21.0391 20.4142 21.4142C20.0391 21.7893 19.5304 22 19 22H11V15H6V22H5C4.46957 22 3.96086 21.7893 3.58579 21.4142C3.21071 21.0391 3 20.5304 3 20ZM14 15H18V19H14V15Z" fill="black" fill-opacity="0.75"/>
</svg>
