<svg width="16" height="16" viewBox="0 0 16 16" fill="none" xmlns="http://www.w3.org/2000/svg">
<path fill-rule="evenodd" clip-rule="evenodd" d="M1 5L3.5 2H12.5L15 5C15 6.38 13.769 7.5 12.25 7.5C11.394 7.5 10.63 7.144 10.125 6.587C9.621 7.144 8.856 7.5 8 7.5C7.144 7.5 6.38 7.144 5.875 6.587C5.371 7.144 4.606 7.5 3.75 7.5C2.231 7.5 1 6.38 1 5ZM2 14V8.094C2.53 8.354 3.13 8.5 3.75 8.5C4.50261 8.5027 5.24017 8.28925 5.875 7.885C6.50983 8.28925 7.24739 8.5027 8 8.5C8.75261 8.5027 9.49017 8.28925 10.125 7.885C10.7598 8.28925 11.4974 8.5027 12.25 8.5C12.87 8.5 13.47 8.355 14 8.094V14C14 14.2652 13.8946 14.5196 13.7071 14.7071C13.5196 14.8946 13.2652 15 13 15H7V10H4V15H3C2.73478 15 2.48043 14.8946 2.29289 14.7071C2.10536 14.5196 2 14.2652 2 14ZM12 10H9V13H12V10Z" fill="black" fill-opacity="0.75"/>
</svg>
