<svg width="24" height="24" viewBox="0 0 24 24" fill="none" xmlns="http://www.w3.org/2000/svg">
<path d="M12 2C6.5 2 2 6 2 12C2 18 6.5 22 12 22C14.3 22 16.1 21.4 17 20.8V18.6C16 19.2 14.3 19.9 12 19.9C7.6 19.9 4 16.8 4 11.9C4 7 7.6 3.9 12 3.9C17.1 3.9 20 6.8 20 11.7C20 13.6 19.4 14.9 18.4 14.9C17.5 14.9 17 14.3 17 13.3V7.2H15V8C14.2 7.4 13.1 7 12 7C9.2 7 7 9.2 7 12C7 14.8 9.2 17 12 17C13.4 17 14.7 16.4 15.6 15.5C16.1 16.4 17.1 17 18.4 17C20.1 17 22 15.5 22 11.8C22 5.8 18.2 2 12 2ZM12 15C10.3 15 9 13.7 9 12C9 10.3 10.3 9 12 9C13.7 9 15 10.3 15 12C15 13.7 13.7 15 12 15Z" fill="black" fill-opacity="0.75"/>
</svg>
