<svg width="16" height="16" viewBox="0 0 16 16" fill="none" xmlns="http://www.w3.org/2000/svg">
<path d="M7.995 1C4.13776 1 1 3.82 1 8C1 12.18 4.13776 15 7.995 15C9.63383 15 10.863 14.57 11.4925 14.19V12.67C10.783 13.08 9.62384 13.6 7.995 13.6C4.90721 13.6 2.399 11.41 2.399 8C2.399 4.59 4.90721 2.4 7.995 2.4C11.5325 2.4 13.591 4.45 13.591 7.86C13.591 9.16 13.1513 10.1 12.4518 10.1C11.8223 10.1 11.4925 9.7 11.4925 8.99V4.64H10.0935V5.22C9.50393 4.78 8.78444 4.5 7.995 4.5C6.06638 4.5 4.4975 6.07 4.4975 8C4.4975 9.93 6.06638 11.5 7.995 11.5C8.9743 11.5 9.85368 11.09 10.4932 10.45C10.833 11.1 11.5125 11.5 12.4618 11.5C13.631 11.5 15 10.44 15 7.86C15 3.67 12.3119 1 8.005 1H7.995ZM7.995 10.1C6.83583 10.1 5.8965 9.16 5.8965 8C5.8965 6.84 6.83583 5.9 7.995 5.9C9.15418 5.9 10.0935 6.84 10.0935 8C10.0935 9.16 9.15418 10.1 7.995 10.1Z" fill="black" fill-opacity="0.75"/>
</svg>
