<svg width="16" height="16" viewBox="0 0 16 16" fill="none" xmlns="http://www.w3.org/2000/svg">
<path fill-rule="evenodd" clip-rule="evenodd" d="M3.36 13.35C4.6 14.4 6.22 15 8 15C9.64 15 10.87 14.57 11.5 14.19V12.67C10.79 13.08 9.63 13.6 8 13.6C6.61 13.6 5.34 13.16 4.36 12.36L5.91 10.81C6.49 11.25 7.22 11.51 8 11.51C8.98 11.51 9.86 11.1 10.5 10.46C10.84 11.11 11.52 11.51 12.47 11.51C13.64 11.51 15.01 10.45 15.01 7.87C15.01 5.99 14.47 4.41 13.48 3.25L14.99 1.74L14.28 1.03L1.02 14.27L1.73 14.98L3.36 13.35ZM12.47 4.24L11.49 5.22V9C11.49 9.71 11.82 10.11 12.45 10.11C13.15 10.11 13.59 9.17 13.59 7.87C13.59 6.39 13.2 5.16 12.47 4.25V4.24ZM9.79 6.91L6.91 9.79C7.23 9.98 7.6 10.09 8 10.09C9.16 10.09 10.1 9.15 10.1 7.99C10.1 7.59 9.99 7.22 9.8 6.9L9.79 6.91ZM2.05 11.83L3.07 10.81C2.64 10.01 2.4 9.07 2.4 8C2.4 4.59 4.91 2.4 8 2.4C9.12 2.4 10.09 2.6 10.89 2.99L11.93 1.95C10.86 1.33 9.54 1 8.01 1H8C4.14 1 1 3.82 1 8C1 9.46 1.38 10.76 2.05 11.83ZM4.7 9.18L5.9 7.98C5.9 6.83 6.84 5.91 7.98 5.9L9.17 4.71C8.8 4.57 8.41 4.5 8 4.5C6.07 4.5 4.5 6.07 4.5 8C4.5 8.41 4.57 8.81 4.7 9.18Z" fill="black" fill-opacity="0.75"/>
</svg>
