<svg width="24" height="24" viewBox="0 0 24 24" fill="none" xmlns="http://www.w3.org/2000/svg">
<path fill-rule="evenodd" clip-rule="evenodd" d="M21.3 1.99999L2 21.3L2.71 22.01L5.21 19.51C7 21.1 9.39 22.01 12 22.01C14.3 22.01 16.1 21.41 17 20.81V18.61C16 19.21 14.3 19.91 12 19.91C9.96 19.91 8.09 19.24 6.68 18.04L8.83 15.89C9.69 16.59 10.79 17 12.01 17C13.41 17 14.71 16.4 15.61 15.5C16.11 16.4 17.11 17 18.41 17C20.11 17 22.01 15.5 22.01 11.8C22.01 9.00999 21.19 6.69999 19.69 5.01999L22.01 2.69999L21.3 1.98999V1.99999ZM18.31 6.38999L17 7.69999V13.29C17 14.29 17.5 14.89 18.4 14.89C19.4 14.89 20 13.59 20 11.69C20 9.48999 19.42 7.69999 18.31 6.37999V6.38999ZM14.46 10.25L10.25 14.46C10.74 14.8 11.34 15 12 15C13.7 15 15 13.7 15 12C15 11.34 14.8 10.73 14.46 10.25ZM7.56 14.32L9.1 12.78C9.04 12.53 9 12.27 9 12C9 10.3 10.3 8.99999 12 8.99999C12.27 8.99999 12.53 9.02999 12.78 9.09999L14.31 7.56999C13.62 7.21999 12.81 6.99999 12 6.99999C9.2 6.99999 7 9.19999 7 12C7 12.84 7.2 13.63 7.56 14.32ZM12 3.89999C13.92 3.89999 15.53 4.30999 16.79 5.08999L18.17 3.70999C16.55 2.60999 14.46 2.00999 12 2.00999C6.5 1.99999 2 5.99999 2 12C2 14.35 2.69 16.4 3.86 18.01L5.34 16.53C4.49 15.27 4 13.71 4 11.89C4 6.98999 7.6 3.88999 12 3.88999V3.89999Z" fill="black" fill-opacity="0.75"/>
</svg>
