<svg width="16" height="16" viewBox="0 0 16 16" fill="none" xmlns="http://www.w3.org/2000/svg">
<path d="M10.5 2H5.736C2.491 2 0 4.531 0 7.5C0 10.762 2.698 13 5.5 13H8V16L13.248 12.621C14.963 11.517 16 9.616 16 7.576V7.5C16 4.462 13.538 2 10.5 2ZM5 8.5C4.448 8.5 4 8.052 4 7.5C4 6.948 4.448 6.5 5 6.5C5.552 6.5 6 6.948 6 7.5C6 8.052 5.552 8.5 5 8.5ZM8 8.5C7.448 8.5 7 8.052 7 7.5C7 6.948 7.448 6.5 8 6.5C8.552 6.5 9 6.948 9 7.5C9 8.052 8.552 8.5 8 8.5ZM11 8.5C10.448 8.5 10 8.052 10 7.5C10 6.948 10.448 6.5 11 6.5C11.552 6.5 12 6.948 12 7.5C12 8.052 11.552 8.5 11 8.5Z" fill="black" fill-opacity="0.75"/>
</svg>
