<svg width="16" height="16" viewBox="0 0 16 16" fill="none" xmlns="http://www.w3.org/2000/svg">
<path d="M10.1213 9.12132C9.55871 9.68393 8.79565 10 8 10C7.20435 10 6.44129 9.68393 5.87868 9.12132C5.31607 8.55871 5 7.79565 5 7V4C5 3.20435 5.31607 2.44129 5.87868 1.87868C6.44129 1.31607 7.20435 1 8 1C8.79565 1 9.55871 1.31607 10.1213 1.87868C10.6839 2.44129 11 3.20435 11 4V7C11 7.79565 10.6839 8.55871 10.1213 9.12132Z" fill="black" fill-opacity="0.75"/>
<path d="M12 7V6H13V7C13.0002 8.15265 12.6022 9.26999 11.8733 10.1629C11.1444 11.0558 10.1294 11.6695 9 11.9V13H11V15H5V13H7V11.9C5.87064 11.6695 4.8556 11.0558 4.12669 10.1629C3.39778 9.26999 2.99977 8.15265 3 7V6H4V7C4 8.06087 4.42143 9.07828 5.17157 9.82843C5.92172 10.5786 6.93913 11 8 11C9.06087 11 10.0783 10.5786 10.8284 9.82843C11.5786 9.07828 12 8.06087 12 7Z" fill="black" fill-opacity="0.75"/>
</svg>
