<svg width="16" height="16" viewBox="0 0 16 16" fill="none" xmlns="http://www.w3.org/2000/svg">
<path d="M9 11.9V13H11V15H5V13H7V11.9C4.72 11.44 3 9.42 3 7V6H4V7C4 9.21 5.79 11 8 11C8.66 11 9.28 10.82 9.83 10.54L9.08 9.79C8.75 9.92 8.38 10 8 10C6.34 10 5 8.66 5 7V5.71L1 1.71L1.71 1L15 14.29L14.29 15L10.56 11.27C10.09 11.56 9.57 11.78 9 11.9ZM13 7V6H12V7C12 7.82 11.74 8.56 11.31 9.19L12.04 9.92C12.64 9.1 13 8.09 13 7ZM11 7V4C11 2.34 9.66 1 8 1C6.68 1 5.57 1.86 5.17 3.05L10.59 8.47C10.84 8.03 11 7.54 11 7Z" fill="black" fill-opacity="0.75"/>
</svg>
