<svg width="24" height="24" viewBox="0 0 24 24" fill="none" xmlns="http://www.w3.org/2000/svg">
<path d="M17.17 15.05L16.42 14.3C16.795 13.5909 16.994 12.802 17 12V9.99996H18V12C18.0009 13.0725 17.7143 14.1258 17.17 15.05ZM16 12V5.99996C16.0146 4.93909 15.6071 3.91588 14.8673 3.15542C14.1275 2.39496 13.1159 1.95955 12.055 1.94496C10.9941 1.93037 9.97092 2.33781 9.21046 3.07764C8.45 3.81747 8.01459 4.82909 8 5.88996L15.67 13.56C15.8865 13.0683 15.9989 12.5372 16 12ZM15.87 16.58L21.29 22L22 21.29L8 7.28996L2.71 1.99996L2 2.70996L8 8.70996V12C8 13.0608 8.42143 14.0782 9.17157 14.8284C9.92172 15.5785 10.9391 16 12 16C12.8859 15.9997 13.7457 15.7002 14.44 15.15L15.15 15.85C14.2666 16.5896 13.1521 16.9965 12 17C10.6739 17 9.40215 16.4732 8.46447 15.5355C7.52678 14.5978 7 13.326 7 12V9.99996H6V12C6.00144 13.4168 6.50425 14.7875 7.41939 15.8692C8.33452 16.9509 9.60294 17.6738 11 17.91V20H8V22H16V20H13V17.91C14.0573 17.7276 15.0474 17.2687 15.87 16.58Z" fill="black" fill-opacity="0.75"/>
</svg>
