<svg width="32" height="32" viewBox="0 0 32 32" fill="none" xmlns="http://www.w3.org/2000/svg">
<path d="M29 15.5C29 13.01 26.99 11 24.5 11C22.01 11 20 13.01 20 15.5C20 17.07 20.8 18.45 22.02 19.25V25.82L22 26L24.5 28.36L27.39 25.47L25.46 23.54L27.39 21.61L25.64 19.86C27.57 19.36 29 17.6 29 15.51V15.5ZM24.5 15.5C23.81 15.5 23.25 14.94 23.25 14.25C23.25 13.56 23.81 13 24.5 13C25.19 13 25.75 13.56 25.75 14.25C25.75 14.94 25.19 15.5 24.5 15.5ZM14 16C17.31 16 20 13.31 20 10C20 6.69 17.31 4 14 4C10.69 4 8 6.69 8 10C8 13.31 10.69 16 14 16ZM21 19.74V28H4V25C4 20.58 7.58 17 12 17H17.58C18.03 17 18.88 17.09 19.28 17.23C19.6 18.2 20.19 19.08 21 19.74Z" fill="black" fill-opacity="0.75"/>
</svg>
