<svg width="24" height="24" viewBox="0 0 24 24" fill="none" xmlns="http://www.w3.org/2000/svg">
<path d="M16 15.24V21H3V19C3 15.69 5.69 13 9 13H12C12.9 13 13.74 13.22 14.51 13.57C14.86 14.24 15.37 14.82 16 15.24ZM19.39 14.89L20.75 16.25L19.25 17.75L20.75 19.25L18.5 21.5L17 20V14.66C15.82 14.1 15 12.89 15 11.5C15 9.57 16.57 8 18.5 8C20.43 8 22 9.57 22 11.5C22 13.13 20.89 14.49 19.39 14.89ZM19.5 10.5C19.5 9.95 19.05 9.5 18.5 9.5C17.95 9.5 17.5 9.95 17.5 10.5C17.5 11.05 17.95 11.5 18.5 11.5C19.05 11.5 19.5 11.05 19.5 10.5ZM10.5 12C12.99 12 15 9.99 15 7.5C15 5.01 12.99 3 10.5 3C8.01 3 6 5.01 6 7.5C6 9.99 8.01 12 10.5 12Z" fill="black" fill-opacity="0.75"/>
</svg>
