<svg width="24" height="24" viewBox="0 0 24 24" fill="none" xmlns="http://www.w3.org/2000/svg">
<path d="M19.6366 2.94897L3.01973 19.5658L4.43393 20.98L21.0508 4.36317L19.6366 2.94897Z" fill="black" fill-opacity="0.75"/>
<path d="M7 11C9.2 11 11 9.19995 11 6.99995C11 4.79995 9.2 2.99995 7 2.99995C4.8 2.99995 3 4.79995 3 6.99995C3 9.19995 4.8 11 7 11ZM7 4.99995C8.1 4.99995 9 5.89995 9 6.99995C9 8.09995 8.1 8.99995 7 8.99995C5.9 8.99995 5 8.09995 5 6.99995C5 5.89995 5.9 4.99995 7 4.99995Z" fill="black" fill-opacity="0.75"/>
<path d="M17 13C14.8 13 13 14.8 13 17C13 19.2 14.8 21 17 21C19.2 21 21 19.2 21 17C21 14.8 19.2 13 17 13ZM17 19C15.9 19 15 18.1 15 17C15 15.9 15.9 15 17 15C18.1 15 19 15.9 19 17C19 18.1 18.1 19 17 19Z" fill="black" fill-opacity="0.75"/>
</svg>
