<svg width="24" height="24" viewBox="0 0 24 24" fill="none" xmlns="http://www.w3.org/2000/svg">
<path d="M21.7 19.18L19.78 21.1C18.91 21.97 17.59 22.24 16.44 21.78C13.13 20.44 10.24 18.54 7.85001 16.15C5.46001 13.76 3.56001 10.87 2.22001 7.56C1.76001 6.41 2.02001 5.1 2.90001 4.22L4.82001 2.3C5.22001 1.9 5.87001 1.9 6.27001 2.3L9.38001 5.41C9.80001 5.83 9.80001 6.52 9.38001 6.94L7.59001 8.73C9.44001 11.97 12.02 14.55 15.26 16.4L17.05 14.61C17.47 14.19 18.16 14.19 18.58 14.61L21.69 17.72C22.09 18.12 22.09 18.77 21.69 19.17L21.7 19.18ZM19.42 6L22 8.58L20.58 10L18 7.42L15.42 10L14 8.58L16.58 6L14 3.42L15.42 2L18 4.58L20.58 2L22 3.42L19.42 6Z" fill="black" fill-opacity="0.75"/>
</svg>
