<svg width="32" height="32" viewBox="0 0 32 32" fill="none" xmlns="http://www.w3.org/2000/svg">
<path d="M28.61 25.33L26.12 27.82C24.99 28.95 23.28 29.31 21.8 28.71C17.49 26.97 13.73 24.5 10.61 21.38C7.50002 18.27 5.03002 14.51 3.29002 10.2C2.69002 8.72 3.05002 7.01 4.18002 5.88L6.67002 3.39C7.19002 2.87 8.03002 2.87 8.55002 3.39L12.6 7.44C13.15 7.99 13.15 8.88 12.6 9.43L10.28 11.75C12.69 15.96 16.04 19.31 20.25 21.72L22.57 19.4C23.12 18.85 24.01 18.85 24.56 19.4L28.61 23.45C29.13 23.97 29.13 24.81 28.61 25.33Z" fill="black" fill-opacity="0.75"/>
</svg>
