<svg width="24" height="24" viewBox="0 0 24 24" fill="none" xmlns="http://www.w3.org/2000/svg">
<path d="M21.7 17.7L18.6 14.6C18.2 14.2 17.5 14.2 17.1 14.6L15.3 16.4C12 14.6 9.39998 12 7.59998 8.7L9.39998 6.9C9.79998 6.5 9.79998 5.8 9.39998 5.4L6.29998 2.3C5.89998 1.9 5.29998 1.9 4.89998 2.3L2.89998 4.2C1.99998 5.1 1.79998 6.4 2.19998 7.6C3.49998 10.9 5.39998 13.8 7.79998 16.2C10.2 18.6 13.1 20.5 16.4 21.8C17.5 22.3 18.9 22 19.7 21.1L21.6 19.2C22.1 18.8 22.1 18.1 21.7 17.7Z" fill="black" fill-opacity="0.75"/>
</svg>
