<svg width="16" height="16" viewBox="0 0 16 16" fill="none" xmlns="http://www.w3.org/2000/svg">
<path d="M14.6982 13.1453L13.4282 14.4148C12.8582 14.9845 11.9882 15.1545 11.2382 14.8446C8.87816 13.905 6.82816 12.5655 5.12816 10.8661C3.42816 9.16681 2.08816 7.11761 1.14816 4.75853C0.848156 4.00882 1.00816 3.13916 1.58816 2.56938L2.86816 1.28988C3.25816 0.900036 3.89816 0.900036 4.27816 1.28988L6.09816 3.10917C6.48816 3.49902 6.48816 4.13877 6.09816 4.51862L4.94816 5.66817C6.24816 7.93729 8.05816 9.74658 10.3382 11.0461L11.4782 9.90652C11.8682 9.51667 12.5082 9.51667 12.8882 9.90652L14.7082 11.7258C15.0982 12.1157 15.0982 12.7454 14.7082 13.1353L14.6982 13.1453Z" fill="black" fill-opacity="0.75"/>
</svg>
