<svg width="16" height="16" viewBox="0 0 16 16" fill="none" xmlns="http://www.w3.org/2000/svg">
<path d="M14.71 13.15L13.44 14.42C12.87 14.99 12 15.16 11.25 14.85C8.89 13.91 6.84 12.57 5.14 10.87C3.44 9.17 2.1 7.12 1.16 4.76C0.859997 4.01 1.02 3.14 1.6 2.57L2.88 1.29C3.27 0.899998 3.91 0.899998 4.29 1.29L6.11 3.11C6.5 3.5 6.5 4.14 6.11 4.52L4.96 5.67C6.26 7.94 8.07 9.75 10.35 11.05L11.49 9.91C11.88 9.52 12.52 9.52 12.9 9.91L14.72 11.73C15.11 12.12 15.11 12.75 14.72 13.14L14.71 13.15ZM15 1.71L14.29 0.999998L12.5 2.79L10.71 0.999998L10 1.71L11.79 3.5L10 5.29L10.71 6L12.5 4.21L14.29 6L15 5.29L13.21 3.5L15 1.71Z" fill="black" fill-opacity="0.75"/>
</svg>
