<svg width="24" height="24" viewBox="0 0 24 24" fill="none" xmlns="http://www.w3.org/2000/svg">
<path d="M6 14.5C6 15.1 6.1 15.7 6.2 16.2C3.7 15 2 12.4 2 9.5C2 5.4 5.4 2 9.5 2C12.4 2 15 3.7 16.2 6.2C15.7 6.1 15.1 6 14.5 6C9.8 6 6 9.8 6 14.5ZM22 14.5C22 18.6 18.6 22 14.5 22C10.4 22 7 18.6 7 14.5C7 10.4 10.4 7 14.5 7C18.6 7 22 10.4 22 14.5ZM20 14.5C20 12.4 18.8 10.5 17 9.6C17 9.9 17 10.2 16.9 10.6L15.4 9.1C15.1 9 14.8 9 14.5 9C14.3 9 14.1 9 14 9L16.7 11.7C16.6 12 16.5 12.4 16.3 12.7L12.8 9.2C12.5 9.3 12.1 9.5 11.8 9.6L15.7 13.5C15.5 13.8 15.3 14 15.1 14.3L11 10.3C10.7 10.5 10.5 10.8 10.3 11L14.5 15.2C14.2 15.4 14 15.6 13.7 15.8L9.8 11.9C9.6 12.2 9.5 12.5 9.4 12.9L12.9 16.4C12.6 16.6 12.2 16.7 11.9 16.8L9 14C9 14.2 9 14.3 9 14.5C9 14.8 9 15.1 9.1 15.5L10.6 17C10.3 17 10 17.1 9.6 17.1C10.5 18.9 12.4 20.1 14.5 20.1C17.5 20 20 17.5 20 14.5Z" fill="black" fill-opacity="0.75"/>
</svg>
