<svg width="24" height="24" viewBox="0 0 24 24" fill="none" xmlns="http://www.w3.org/2000/svg">
<path d="M18.83 11.89L17 10.06V4H19V2H4.99999V4H6.99999V10.06L5.16999 11.89C4.79385 12.2665 4.49662 12.7143 4.29572 13.2071C4.09482 13.6999 3.99428 14.2278 3.99999 14.76V16H11V21L12 23L13 21V16H20V14.76C20.0057 14.2278 19.9052 13.6999 19.7043 13.2071C19.5033 12.7143 19.2061 12.2665 18.83 11.89ZM6.12999 14C6.22713 13.7396 6.38082 13.5039 6.57999 13.31L8.99999 10.89V4H15V10.89L17.42 13.31C17.6192 13.5039 17.7728 13.7396 17.87 14H6.12999Z" fill="black" fill-opacity="0.75"/>
</svg>
