<svg width="24" height="24" viewBox="0 0 24 24" fill="none" xmlns="http://www.w3.org/2000/svg">
<path d="M10.006 16.003V8.007L16.003 12.005L10.006 16.003ZM4.02899 10.9955C4.2089 9.53623 4.78861 8.18691 5.64818 7.07746L4.21889 5.64818C2.9995 7.13743 2.1999 8.97651 2 10.9955H4.01899H4.02899ZM10.9755 2.00999C8.96652 2.2099 7.12744 3.0095 5.63818 4.22889L7.06747 5.65817C8.17691 4.7986 9.51624 4.21889 10.9755 4.02899V2V2.00999ZM12.9845 2.00999V4.03898C16.9325 4.53873 20.001 7.91704 20.001 12.005C20.001 16.093 16.9325 19.4713 12.9845 19.971V22C18.042 21.4903 22 17.2024 22 12.005C22 6.8076 18.042 2.51974 12.9845 2.00999ZM10.9755 19.971C9.52624 19.7911 8.1969 19.2214 7.09745 18.3618L5.66817 19.7911C7.14743 21.0005 8.97651 21.7901 10.9755 21.99V19.961V19.971ZM5.66817 16.9525C4.7986 15.8331 4.2089 14.4838 4.02899 13.0145H2.00999C2.2099 15.0435 3.01949 16.8926 4.23888 18.3918L5.66817 16.9625V16.9525Z" fill="black" fill-opacity="0.75"/>
</svg>
