<svg width="16" height="16" viewBox="0 0 16 16" fill="none" xmlns="http://www.w3.org/2000/svg">
<path d="M12.8915 9.33C12.8915 9.33 12.9515 9.29 12.9914 9.27V12C12.9914 13.65 11.6424 15 9.99358 15H3.99786C2.34904 15 1 13.65 1 12V6C1 4.7 1.8394 3.6 2.99857 3.18V4.48V11.99C2.99857 12.54 3.44825 12.99 3.99786 12.99H9.99358C10.5432 12.99 10.9929 12.54 10.9929 11.99V10.54L11.3726 10.3L12.4918 9.58C12.6217 9.49 12.7616 9.41 12.8915 9.33ZM14.99 4.49C14.99 5.42 14.6702 6.35 14.1006 7.09C13.7909 7.5 13.4011 7.8 12.9914 8.08C12.6517 8.31 12.3019 8.52 11.9522 8.74C11.6324 8.95 11.3126 9.15 10.9929 9.36L9.99358 10V8H7.4354C5.83655 8 4.30764 6.76 4.05782 5C4.03783 4.83 4.00785 4.67 4.00785 4.49C4.00785 3.96 4.14775 3.46 4.36759 3C4.93719 1.84 6.13633 1 7.5853 1H11.5625C13.4611 1 15 2.59 15 4.49H14.99ZM11.9921 5H5.99643V6H11.9921V5ZM12.9914 3H5.99643V4H12.9914V3Z" fill="black" fill-opacity="0.75"/>
</svg>
