<svg width="24" height="24" viewBox="0 0 24 24" fill="none" xmlns="http://www.w3.org/2000/svg">
<path d="M11 9H16V10H11V9ZM22 8.5V8.58C22 10.62 20.96 12.52 19.25 13.62L14 17V14H11.5C8.7 14 6 11.76 6 8.5C6 5.53 8.49 3 11.74 3H16.5C19.54 3 22 5.46 22 8.5ZM20 8.5C20 6.57 18.43 5 16.5 5H11.74C9.54 5 8 6.7 8 8.5C8 10.4 9.58 12 11.5 12H16V13.33L18.17 11.94C19.32 11.2 20 9.94 20 8.58V8.5ZM11 8H17V7H11V8ZM17 18C17 18.55 16.55 19 16 19H5C4.45 19 4 18.55 4 18V7C4 6.45 4.45 6 5 6H5.52C5.84 5.25 6.31 4.58 6.89 4H5C3.35 4 2 5.35 2 7V18C2 19.65 3.35 21 5 21H16C17.65 21 19 19.65 19 18V14.97L17 16.26V18Z" fill="black" fill-opacity="0.75"/>
</svg>
