<svg width="24" height="24" viewBox="0 0 24 24" fill="none" xmlns="http://www.w3.org/2000/svg">
<path d="M19 15V18C19 19.66 17.66 21 16 21H5C3.34 21 2 19.66 2 18V7C2 5.34 3.34 4 5 4H6.89C5.72 5.17 5 6.75 5 8.5C5 12.51 8.37 15 11.5 15H13V18.83L14.54 17.84L19 15ZM22 8.5V8.58C22 10.62 20.96 12.52 19.25 13.62L19 13.78L14 17V14H11.5C8.7 14 6 11.76 6 8.5C6 8.29 6.02 8.08 6.04 7.88C6.04 7.82 6.06 7.76 6.07 7.69C6.09 7.55 6.12 7.4 6.15 7.26C6.17 7.19 6.18 7.13 6.2 7.06C6.24 6.92 6.29 6.78 6.34 6.64C6.36 6.59 6.38 6.53 6.4 6.48C6.47 6.3 6.56 6.12 6.65 5.95C6.65 5.95 6.65 5.95 6.65 5.94C6.75 5.75 6.87 5.57 6.99 5.4C7 5.38 7.02 5.36 7.03 5.34C7.14 5.19 7.25 5.05 7.38 4.91C7.41 4.88 7.44 4.85 7.47 4.82C7.59 4.69 7.71 4.57 7.85 4.45C7.88 4.43 7.9 4.4 7.93 4.38C8.93 3.53 10.25 3 11.73 3H16.49C19.53 3 21.99 5.46 21.99 8.5H22ZM16 9H11V10H16V9ZM17 7H11V8H17V7Z" fill="black" fill-opacity="0.75"/>
</svg>
