<svg width="24" height="24" viewBox="0 0 24 24" fill="none" xmlns="http://www.w3.org/2000/svg">
<path d="M12 2C6.5 2 2 6.5 2 12C2 17.5 6.5 22 12 22C17.5 22 22 17.5 22 12C22 6.5 17.5 2 12 2ZM12 18.2C11.3 18.2 10.8 17.6 10.8 17C10.8 16.4 11.4 15.8 12 15.8C12.7 15.8 13.2 16.4 13.2 17C13.2 17.6 12.7 18.2 12 18.2ZM13.4 12.8L13 13V14H11V11.8L12.5 11C13.8 10.3 14 9.8 14 9.3C14 8.5 13.1 8 11.7 8C10.5 8 9.3 8.4 8 9.2V7C9.2 6.4 10.5 6 11.7 6C14.7 6 16 7.5 16 9.3C16 11.6 14 12.5 13.4 12.8Z" fill="black" fill-opacity="0.75"/>
</svg>
