<svg width="16" height="16" viewBox="0 0 16 16" fill="none" xmlns="http://www.w3.org/2000/svg">
<path d="M14.2795 7.93L10.1465 12.86L8.99571 11.9L11.4775 8.95C10.0765 8.7 8.99571 7.47 8.99571 6C8.99571 4.35 10.3467 3 11.9979 3C13.649 3 15 4.35 15 6C15 6.74 14.7198 7.41 14.2695 7.93H14.2795ZM7.00429 6C7.00429 4.35 5.65332 3 4.00214 3C2.35097 3 1 4.35 1 6C1 7.47 2.08077 8.7 3.48177 8.95L1 11.9L2.15082 12.86L6.28377 7.94C6.7341 7.41 7.0143 6.74 7.0143 6H7.00429Z" fill="black" fill-opacity="0.75"/>
</svg>
