<svg width="16" height="16" viewBox="0 0 16 16" fill="none" xmlns="http://www.w3.org/2000/svg">
<path d="M8 13C5.24 13 3 10.76 3 8.00001C3 5.24001 5.24 3.00001 8 3.00001C9.02 3.00001 9.96 3.31001 10.75 3.83001L9.28 5.30001C8.89 5.11001 8.46 5.00001 7.99 5.00001C6.33 5.00001 4.99 6.34001 4.99 8.00001C4.99 9.66001 6.33 11 7.99 11C9.65 11 10.99 9.66001 10.99 8.00001C10.99 7.54001 10.88 7.11001 10.69 6.71001L14.71 2.71001C15.1 2.32001 15.1 1.69001 14.71 1.30001C14.32 0.910007 13.69 0.910007 13.3 1.30001L12.19 2.41001C11.02 1.54001 9.58 1.01001 8 1.01001C4.13 1.00001 1 4.13001 1 8.00001C1 11.87 4.13 15 8 15C11.87 15 15 11.87 15 8.00001H13C13 10.76 10.76 13 8 13ZM8 9.00001C7.45 9.00001 7 8.55001 7 8.00001C7 7.45001 7.45 7.00001 8 7.00001C8.55 7.00001 9 7.45001 9 8.00001C9 8.55001 8.55 9.00001 8 9.00001Z" fill="black" fill-opacity="0.75"/>
</svg>
