<svg width="24" height="24" viewBox="0 0 24 24" fill="none" xmlns="http://www.w3.org/2000/svg">
<path d="M21 12H20C20 9.7 19.1 7.4 17.4 5.6C15.6 3.9 13.3 3 11 3V2C13.6 2 16.1 3 18.1 4.9C20.1 6.8 21 9.4 21 12ZM11 5V6C12.5 6 14.1 6.6 15.2 7.8C16.3 9 17 10.5 17 12H18C18 10.2 17.3 8.4 15.9 7.1C14.6 5.7 12.8 5 11 5ZM14 12H15C15 11 14.6 10 13.8 9.2C13 8.4 12 8 11 8V9C11.8 9 12.5 9.3 13.1 9.9C13.7 10.5 14 11.2 14 12ZM12 12C12 11.4 11.6 11 11 11C10.6 11 10.4 11.2 10.2 11.5L5.3 6.6C4.5 7.9 4 9.4 4 11C4 12.5 4.4 13.8 5.1 15C5.5 14.4 6.2 14 7 14C8 14 9 14.7 9.2 15.7L10.1 18.8C10.7 18.9 11.3 19 12 19C13.6 19 15.1 18.5 16.4 17.7L11.5 12.8C11.8 12.6 12 12.4 12 12ZM7 15C6.4 15 5.9 15.4 5.7 16L4 22H10L8.3 16C8.1 15.4 7.6 15 7 15Z" fill="black" fill-opacity="0.75"/>
</svg>
