<svg width="24" height="24" viewBox="0 0 24 24" fill="none" xmlns="http://www.w3.org/2000/svg">
<path d="M12 20C7.6 20 4 16.4 4 12C4 7.6 7.6 4 12 4C13.8 4 15.5 4.6 16.9 5.7L15.5 7.1C14.5 6.4 13.3 6 12 6C8.7 6 6 8.7 6 12C6 15.3 8.7 18 12 18C15.3 18 18 15.3 18 12C18 10.7 17.6 9.5 16.9 8.5L20.7 4.7C20.9 4.5 21 4.3 21 4C21 3.7 20.9 3.5 20.7 3.3C20.5 3.1 20.3 3 20 3C19.7 3 19.5 3.1 19.3 3.3L18.3 4.3C16.6 2.8 14.4 2 12 2C6.5 2 2 6.5 2 12C2 17.5 6.5 22 12 22C17.5 22 22 17.5 22 12H20C20 16.4 16.4 20 12 20ZM17 12C17 14.8 14.8 17 12 17C9.2 17 7 14.8 7 12C7 9.2 9.2 7 12 7C13 7 14 7.3 14.8 7.8L12.6 10C12.3 10 12.2 10 12 10C10.9 10 10 10.9 10 12C10 13.1 10.9 14 12 14C13.1 14 14 13.1 14 12C14 11.8 14 11.7 13.9 11.5L16.1 9.3C16.7 10 17 11 17 12Z" fill="black" fill-opacity="0.75"/>
</svg>
