<svg width="24" height="24" viewBox="0 0 24 24" fill="none" xmlns="http://www.w3.org/2000/svg">
<path d="M9.6 9H11V15H10L9 15.5C8.3 15.8 7.5 16 6.8 16H3C2.3 16 1.8 15.4 1.8 14.7V14.6C1.2 14.5 0.7 14 0.7 13.3C0.7 13.1 0.8 12.9 0.9 12.7C0.3 12.5 0 12 0 11.5C0 11.1 0.2 10.7 0.6 10.4C0.2 10.2 0 9.8 0 9.3C0 8.6 0.5 8 1.2 8H4.8L4.2 6.2C4.1 5.7 4 5.2 4 4.7V3.9C4 3.4 4.4 3 4.9 3C5.3 3 5.6 3.2 5.7 3.6L6 4.5C6.2 5.3 6.6 5.9 7.2 6.5L9.6 9ZM24 14.7C24 14.3 23.8 13.9 23.4 13.6C23.7 13.4 24 13 24 12.5C24 12 23.7 11.5 23.2 11.3C23.3 11.1 23.4 10.9 23.4 10.7C23.4 10 22.9 9.5 22.3 9.4V9.3C22.2 8.6 21.7 8 21 8H17.3C16.5 8 15.8 8.2 15.1 8.5L14 9H13V15H14.4L16.9 17.5C17.5 18.1 17.9 18.7 18.1 19.5L18.4 20.4C18.5 20.8 18.9 21 19.2 21C19.7 21 20.1 20.6 20.1 20.1V19.3C20.1 18.8 20 18.3 19.9 17.8L19.2 16H22.8C23.5 16 24 15.4 24 14.7Z" fill="black" fill-opacity="0.75"/>
</svg>
