<svg width="16" height="16" viewBox="0 0 16 16" fill="none" xmlns="http://www.w3.org/2000/svg">
<path d="M15 6.71L14.29 6L12.5 7.79L10.71 6L10 6.71L11.79 8.5L10 10.29L10.71 11L12.5 9.21L14.29 11L15 10.29L13.21 8.5L15 6.71Z" fill="black" fill-opacity="0.75"/>
<path d="M6 7C7.65685 7 9 5.65685 9 4C9 2.34315 7.65685 1 6 1C4.34315 1 3 2.34315 3 4C3 5.65685 4.34315 7 6 7Z" fill="black" fill-opacity="0.75"/>
<path d="M6.75 8H5.25C4.01 8 3 9.01 3 10.25V15H9V10.25C9 9.01 7.99 8 6.75 8Z" fill="black" fill-opacity="0.75"/>
</svg>
