<svg width="32" height="32" viewBox="0 0 32 32" fill="none" xmlns="http://www.w3.org/2000/svg">
<path d="M26.9103 10.3799H28.9103V23.9404C28.91 26.1801 26.9601 27.9998 24.5704 28H13.2902L15.9103 32H13.5197L12.6798 30.71L10.2296 26.96L10.3702 26.75L13.7198 21.6201H16.1105L13.2501 25.9902H24.5704C25.8602 25.99 26.9103 25.0596 26.9103 23.9297V10.3799ZM18.4796 0L19.3204 1.29004V1.28027L21.7697 5.03027L21.63 5.24023L18.2804 10.3701H15.8898L18.7501 6H7.42981C6.14006 6.00009 5.09023 6.92982 5.08997 8.05957V21.71H3.08997V8.05957C3.09022 5.81983 5.04005 4.0001 7.42981 4H18.7101L16.09 0H18.4796Z" fill="black" fill-opacity="0.75"/>
</svg>
