<svg width="16" height="16" viewBox="0 0 16 16" fill="none" xmlns="http://www.w3.org/2000/svg">
<path d="M14 8C14 11.31 11.31 14 8 14C5.39 14 3.18 12.33 2.35 10C2.35 10 2.35 10 2.35 9.99C2.24 9.69 2.16 9.38 2.1 9.06C2.1 9.03 2.1 9 2.09 8.97C2.04 8.65 2 8.33 2 8C2 7.71 2.03 7.42 2.07 7.14C2.07 7.08 2.09 7.02 2.1 6.97C2.15 6.69 2.21 6.42 2.3 6.15C2.3 6.13 2.31 6.11 2.32 6.1C2.41 5.83 2.52 5.57 2.64 5.32C2.64 5.3 2.66 5.28 2.67 5.27C2.81 5.01 2.96 4.75 3.13 4.51C4.02 3.26 5.38 2.38 6.95 2.1C6.97 2.1 6.99 2.1 7.02 2.09C7.34 2.04 7.67 2 8.01 2V0L11.01 3L8.01 6V4C7.78 4 7.55 4.03 7.33 4.07C7.24 4.09 7.14 4.11 7.05 4.13C6.95 4.16 6.85 4.19 6.75 4.22C6.49 4.31 6.24 4.42 6 4.56C5.59 4.8 5.24 5.1 4.94 5.46C4.9 5.51 4.85 5.56 4.81 5.62C4.74 5.72 4.67 5.82 4.6 5.92C4.52 6.04 4.45 6.17 4.39 6.3C4.35 6.38 4.31 6.47 4.28 6.56C4.21 6.73 4.16 6.91 4.11 7.1C4.09 7.16 4.08 7.23 4.07 7.3C4.03 7.53 4 7.77 4 8.01C4 8.25 4.03 8.47 4.07 8.69C4.09 8.78 4.11 8.88 4.13 8.97C4.15 9.07 4.19 9.17 4.22 9.26C4.31 9.52 4.42 9.77 4.56 10.01C5.25 11.2 6.53 12.01 8 12.01C10.21 12.01 12 10.22 12 8.01H14V8ZM8.01 8.02L6.91 6.92L5.5 8.34L8.17 11.01L13 5.01H10.43L8.01 8.03V8.02Z" fill="black" fill-opacity="0.75"/>
</svg>
