<svg width="24" height="24" viewBox="0 0 24 24" fill="none" xmlns="http://www.w3.org/2000/svg">
<path d="M19.8933 2.99002L14.9978 3.70859C13.729 3.86827 12.5901 4.52696 11.8208 5.54494L10.0025 7.96014H7.0253C6.39589 7.96014 5.80644 8.25954 5.4268 8.75855L3.02904 11.9522H7.37498C6.94538 12.7207 6.46583 13.589 5.97628 14.4872L9.47301 17.9802C10.3822 17.4812 11.2514 17.0022 12.0206 16.563V20.9344L15.2176 18.5391C15.7172 18.1599 16.0169 17.571 16.0169 16.9423V13.9283L18.4147 12.1318C19.4337 11.3634 20.1031 10.2256 20.2529 8.95815L20.9922 4.09781C21.0722 3.4491 20.5227 2.90019 19.8733 2.98004H19.8933V2.99002ZM15.0178 10.9542C13.9189 10.9542 13.0197 10.056 13.0197 8.95815C13.0197 7.86034 13.9189 6.96212 15.0178 6.96212C16.1168 6.96212 17.016 7.86034 17.016 8.95815C17.016 10.056 16.1168 10.9542 15.0178 10.9542ZM4.98721 16.3435L7.63473 18.9882C4.71746 20.5651 2 21.9723 2 21.9723C2 21.9723 3.40868 19.2577 4.97722 16.3335L4.98721 16.3435Z" fill="black" fill-opacity="0.75"/>
</svg>
