<svg width="24" height="24" viewBox="0 0 24 24" fill="none" xmlns="http://www.w3.org/2000/svg">
<path d="M5.08006 11H3.06006C3.25006 9.27 3.94006 7.68 4.98006 6.39L6.41006 7.82C5.72006 8.74 5.26006 9.82 5.09006 11H5.08006ZM5.08006 13H3.06006C3.25006 14.73 3.94006 16.31 4.98006 17.61L6.40006 16.19C5.71006 15.28 5.25006 14.19 5.08006 13ZM12.0401 3L14.0001 0H11.6301L9.40006 3.39L9.00006 4L9.88006 5.34L11.6201 8H13.9901L12.0301 5C15.8701 5.02 18.9901 8.15 18.9901 12C18.9901 15.52 16.3801 18.43 12.9901 18.92V20.94C17.4801 20.44 20.9901 16.62 20.9901 12C20.9901 7.05 16.9701 3.02 12.0301 3H12.0401ZM6.39006 19.02C7.68006 20.06 9.27006 20.74 11.0001 20.94V18.92C9.82006 18.75 8.73006 18.28 7.82006 17.6L6.39006 19.03V19.02Z" fill="black" fill-opacity="0.75"/>
</svg>
