<svg width="24" height="24" viewBox="0 0 24 24" fill="none" xmlns="http://www.w3.org/2000/svg">
<path fill-rule="evenodd" clip-rule="evenodd" d="M21 13C20.3106 13.2495 19.6845 13.6476 19.166 14.166C18.6476 14.6845 18.2495 15.3106 18 16H6C5.75049 15.3106 5.35241 14.6845 4.83397 14.166C4.31553 13.6476 3.68942 13.2495 3 13V9C3.68942 8.75049 4.31553 8.35242 4.83397 7.83398C5.35241 7.31555 5.75049 6.68942 6 6H18C18.2495 6.68942 18.6476 7.31555 19.166 7.83398C19.6845 8.35242 20.3106 8.75049 21 9V13ZM23 4H1V18H23V4Z" fill="black" fill-opacity="0.75"/>
<path d="M12 14.5C13.6569 14.5 15 12.933 15 11C15 9.067 13.6569 7.5 12 7.5C10.3431 7.5 9 9.067 9 11C9 12.933 10.3431 14.5 12 14.5Z" fill="black" fill-opacity="0.75"/>
<path d="M23 19H1V20H23V19Z" fill="black" fill-opacity="0.75"/>
</svg>
