<svg width="16" height="16" viewBox="0 0 16 16" fill="none" xmlns="http://www.w3.org/2000/svg">
<path fill-rule="evenodd" clip-rule="evenodd" d="M1 2V12H15V2H1ZM11.42 10H4.58C4.47392 9.6341 4.2712 9.30353 3.99316 9.04309C3.71513 8.78265 3.37204 8.60199 3 8.52002V5.52002C3.37204 5.43805 3.71513 5.25727 3.99316 4.99683C4.2712 4.73639 4.47392 4.40593 4.58 4.04004H11.42C11.5261 4.40593 11.7288 4.73639 12.0068 4.99683C12.2849 5.25727 12.628 5.43805 13 5.52002V8.52002C12.628 8.60199 12.2849 8.78265 12.0068 9.04309C11.7288 9.30353 11.5261 9.6341 11.42 10Z" fill="black" fill-opacity="0.75"/>
<path d="M8.03 9C8.9965 9 9.78 8.10457 9.78 7C9.78 5.89543 8.9965 5 8.03 5C7.0635 5 6.28 5.89543 6.28 7C6.28 8.10457 7.0635 9 8.03 9Z" fill="black" fill-opacity="0.75"/>
<path d="M15 13H1V14H15V13Z" fill="black" fill-opacity="0.75"/>
</svg>
