<svg width="24" height="24" viewBox="0 0 24 24" fill="none" xmlns="http://www.w3.org/2000/svg">
<path d="M20.5 10.5C20.5 5.81 16.69 2 12 2C7.31 2 3.5 5.81 3.5 10.5C3.5 14.85 6.78 18.44 11 18.94V21H8C7.45 21 7 21.45 7 22C7 22.55 7.45 23 8 23H16C16.55 23 17 22.55 17 22C17 21.45 16.55 21 16 21H13V18.94C17.22 18.44 20.5 14.85 20.5 10.5ZM5.5 10.5C5.5 6.92 8.42 4 12 4C15.58 4 18.5 6.92 18.5 10.5C18.5 13 17.08 15.17 15 16.26V15.25C15 14.01 13.99 13 12.75 13H11.25C10.01 13 9 14.01 9 15.25V16.26C6.92 15.17 5.5 13 5.5 10.5ZM9 9C9 7.34 10.34 6 12 6C13.66 6 15 7.34 15 9C15 10.66 13.66 12 12 12C10.34 12 9 10.66 9 9Z" fill="black" fill-opacity="0.75"/>
</svg>
