<svg width="24" height="24" viewBox="0 0 24 24" fill="none" xmlns="http://www.w3.org/2000/svg">
<path d="M22 5C22 4.19 21.72 3.45 21.13 2.86C20.55 2.28 19.81 2 19.04 2C18.27 2 17.53 2.29 16.95 2.86L3.96 15.86L2 22L8.19 19.98L21.13 7.04C21.69 6.48 22 5.74 22 5ZM6.77 18.57L5.43 17.23L16.64 6.01L17.98 7.35L6.77 18.57ZM4.19 8.43L2 6.24L6.24 2L11.32 7.08L7.08 11.32L4.89 9.13L7.01 7.01L6.3 6.3L4.18 8.42L4.19 8.43ZM16.92 12.67L22 17.75L17.76 21.99L15.57 19.8L17.69 17.68L16.98 16.97L14.86 19.09L12.67 16.9L16.91 12.66L16.92 12.67Z" fill="black" fill-opacity="0.75"/>
</svg>
