<svg width="16" height="16" viewBox="0 0 16 16" fill="none" xmlns="http://www.w3.org/2000/svg">
<path fill-rule="evenodd" clip-rule="evenodd" d="M1 2H12V6H1V2ZM2 3H5V4H2V3ZM1 7H9.67C8.65 7.82 8 9.09 8 10.5C8 10.67 8 10.84 8.03 11H1V7ZM2 8H5V9H2V8ZM15 7.75L13 6V7.04C12.84 7.02 12.67 7 12.5 7C10.57 7 9 8.57 9 10.5C9 10.67 9.01 10.84 9.04 11H10.05C10.02 10.84 10 10.67 10 10.5C10 9.12 11.12 8 12.5 8C12.67 8 12.84 8.02 13 8.05V9.5L15 7.75ZM15.96 10C15.98 10.16 16 10.33 16 10.5C16 12.43 14.43 14 12.5 14C12.33 14 12.16 13.99 12 13.96V15L10 13.25L12 11.5V12.95C12.16 12.98 12.33 13 12.5 13C13.88 13 15 11.88 15 10.5C15 10.33 14.98 10.16 14.95 10H15.96Z" fill="black" fill-opacity="0.75"/>
</svg>
