<svg width="24" height="24" viewBox="0 0 24 24" fill="none" xmlns="http://www.w3.org/2000/svg">
<path fill-rule="evenodd" clip-rule="evenodd" d="M2 2H17V7H2V2ZM4 4H7V5H4V4ZM2 8H17V9.07C14.64 9.41 12.66 10.92 11.67 13H2V8ZM4 10H7V11H4V10ZM12.35 18C12.13 17.37 12 16.7 12 16C12 12.69 14.69 10 18 10V8L21 11L18 14V12C15.79 12 14 13.79 14 16C14 16.73 14.22 17.41 14.56 18H12.35ZM22 16C22 18.21 20.21 20 18 20V18L15 21L18 24V22C21.31 22 24 19.31 24 16C24 15.3 23.87 14.63 23.65 14H21.44C21.79 14.59 22 15.27 22 16Z" fill="black" fill-opacity="0.75"/>
</svg>
