<svg width="24" height="24" viewBox="0 0 24 24" fill="none" xmlns="http://www.w3.org/2000/svg">
<path d="M17 16C16.3 16 15.6 16.3 15.1 16.7L8 12.5C8 12.4 8 12.2 8 12C8 11.8 8 11.6 7.9 11.4L15 7.2C15.6 7.7 16.3 8 17 8C18.7 8 20 6.7 20 5C20 3.3 18.7 2 17 2C15.3 2 14 3.3 14 5C14 5.2 14 5.4 14.1 5.6L6.9 9.7C6.4 9.3 5.7 9 5 9C3.3 9 2 10.3 2 12C2 13.7 3.3 15 5 15C5.7 15 6.4 14.7 6.9 14.3L14 18.5C14 18.7 13.9 18.9 13.9 19.1C13.9 20.8 15.2 22.1 16.9 22.1C18.6 22.1 19.9 20.8 19.9 19.1C19.9 17.4 18.7 16 17 16Z" fill="black" fill-opacity="0.75"/>
</svg>
