<svg width="16" height="16" viewBox="0 0 16 16" fill="none" xmlns="http://www.w3.org/2000/svg">
<path fill-rule="evenodd" clip-rule="evenodd" d="M6.77026 1.52432C6.87933 0.93089 7.39663 0.5 8 0.5C8.60337 0.5 9.12067 0.930891 9.22974 1.52432L9.23953 1.57759L9.24151 1.59575C9.53593 4.29344 11.7009 6.46844 14.4046 6.76294L14.4212 6.76475L14.4717 6.77369C15.0665 6.879 15.5 7.39596 15.5 8C15.5 8.60404 15.0665 9.121 14.4717 9.22631L14.4212 9.23525L14.4046 9.23706C11.7009 9.53156 9.53593 11.7066 9.24151 14.4042L9.23953 14.4224L9.22974 14.4757C9.12067 15.0691 8.60337 15.5 8 15.5C7.39663 15.5 6.87933 15.0691 6.77026 14.4757L6.76047 14.4224L6.75849 14.4042C6.46407 11.7066 4.29913 9.53156 1.5954 9.23706L1.5788 9.23525L1.52826 9.22631C0.933465 9.121 0.5 8.60404 0.5 8C0.5 7.39596 0.933466 6.879 1.52826 6.7737L1.5788 6.76475L1.5954 6.76294C4.29913 6.46845 6.46407 4.29344 6.75849 1.59575L6.76047 1.57759L6.77026 1.52432ZM8 11.6122C7.2338 10.0474 5.96067 8.7698 4.39565 8C5.96067 7.2302 7.2338 5.95258 8 4.38776C8.76619 5.95258 10.0393 7.2302 11.6043 8C10.0393 8.7698 8.76619 10.0474 8 11.6122Z" fill="black" fill-opacity="0.75"/>
</svg>
