<svg width="24" height="24" viewBox="0 0 24 24" fill="none" xmlns="http://www.w3.org/2000/svg">
<path d="M14.2 1.9C13.6 1.3 12.8 1 12 1C11.2 1 10.4 1.3 9.8 1.9L1.9 9.8C1.3 10.4 1 11.2 1 12C1 12.8 1.3 13.6 1.9 14.2L9.8 22.1C10.4 22.7 11.2 23 12 23C12.8 23 13.6 22.7 14.2 22.1L22.1 14.2C22.7 13.6 23 12.8 23 12C23 11.2 22.7 10.4 22.1 9.8L14.2 1.9ZM11 6H13V14H11V6ZM12 18.25C11.3 18.25 10.75 17.7 10.75 17C10.75 16.3 11.4 15.75 12 15.75C12.6 15.75 13.25 16.3 13.25 17C13.25 17.7 12.7 18.25 12 18.25Z" fill="black" fill-opacity="0.75"/>
</svg>
