<svg width="32" height="32" viewBox="0 0 32 32" fill="none" xmlns="http://www.w3.org/2000/svg">
<path d="M29 16C29 15.32 28.45 14.63 27.77 14.63C22.3 14.08 17.92 9.7 17.37 4.23C17.23 3.55 16.69 3 16 3C15.31 3 14.63 3.55 14.63 4.23C14.08 9.7 9.7 14.08 4.23 14.63C3.55 14.77 3 15.31 3 16C3 16.69 3.55 17.23 4.23 17.37C9.7 17.92 14.08 22.3 14.63 27.77C14.77 28.45 15.31 29 16 29C16.69 29 17.37 28.45 17.37 27.77C17.92 22.3 22.3 17.92 27.77 17.37C28.45 17.23 29 16.69 29 16Z" fill="black" fill-opacity="0.75"/>
</svg>
