<svg width="24" height="24" viewBox="0 0 24 24" fill="none" xmlns="http://www.w3.org/2000/svg">
<path fill-rule="evenodd" clip-rule="evenodd" d="M12 5.68C11.04 8.68 8.68 11.05 5.68 12C8.68 12.96 11.05 15.32 12 18.32C12.96 15.32 15.32 12.95 18.32 12C15.32 11.04 12.95 8.68 12 5.68ZM10.44 3.36C10.54 2.58 11.21 2 12 2C12.79 2 13.45 2.58 13.56 3.36L13.61 3.73C14.07 7.2 16.8 9.93 20.27 10.39L20.64 10.44C21.42 10.54 22 11.21 22 12C22 12.79 21.42 13.45 20.64 13.56L20.27 13.61C16.8 14.07 14.07 16.8 13.61 20.27L13.56 20.64C13.46 21.42 12.79 22 12 22C11.21 22 10.55 21.42 10.44 20.64L10.39 20.27C9.93 16.8 7.2 14.07 3.73 13.61L3.36 13.56C2.58 13.46 2 12.79 2 12C2 11.21 2.58 10.55 3.36 10.44L3.73 10.39C7.2 9.93 9.93 7.2 10.39 3.73L10.44 3.36Z" fill="black" fill-opacity="0.75"/>
</svg>
