<svg width="16" height="16" viewBox="0 0 16 16" fill="none" xmlns="http://www.w3.org/2000/svg">
<path d="M15 7.99C15 8.38 14.7202 8.69 14.3505 8.73C11.4126 9.05 9.06424 11.41 8.73448 14.35C8.6945 14.72 8.37473 15 8.005 15H7.995C7.62527 15 7.3055 14.72 7.26553 14.35C6.94575 11.41 4.58744 9.06 1.64954 8.73C1.2798 8.69 1 8.37 1 8C1 7.61 1.2798 7.3 1.64954 7.26C4.58744 6.94 6.93576 4.58 7.25553 1.65C7.2955 1.28 7.61527 1 7.98501 1H8.005C8.37473 1 8.6945 1.28 8.73448 1.65C9.05425 4.59 11.4126 6.94 14.3505 7.27C14.7202 7.31 15 7.63 15 8V7.99Z" fill="black" fill-opacity="0.75"/>
</svg>
