<svg width="16" height="16" viewBox="0 0 16 16" fill="none" xmlns="http://www.w3.org/2000/svg">
<path fill-rule="evenodd" clip-rule="evenodd" d="M4 2C3.46957 2 2.96086 2.21071 2.58579 2.58579C2.21071 2.96086 2 3.46957 2 4V12C2 12.5304 2.21071 13.0391 2.58579 13.4142C2.96086 13.7893 3.46957 14 4 14H12C12.5304 14 13.0391 13.7893 13.4142 13.4142C13.7893 13.0391 14 12.5304 14 12V4C14 3.46957 13.7893 2.96086 13.4142 2.58579C13.0391 2.21071 12.5304 2 12 2H4ZM4 4H12V12H4V4ZM0 4H1V12H0V4ZM15 4H16V12H15V4Z" fill="black" fill-opacity="0.75"/>
</svg>
