<svg width="16" height="16" viewBox="0 0 16 16" fill="none" xmlns="http://www.w3.org/2000/svg">
<path d="M14.6907 8.63545C14.9002 8.48535 15 8.24517 15 8.005C15 7.76483 14.9002 7.53467 14.6907 7.37455L13.6429 6.58399C13.3835 6.38385 13.2737 6.0336 13.3735 5.71337L13.7826 4.44246C13.9423 3.9421 13.593 3.42173 13.0841 3.42173H11.747C11.4277 3.42173 11.1483 3.20157 11.0485 2.89135L10.6294 1.53038C10.5296 1.20014 10.2302 1 9.93086 1C9.78118 1 9.6315 1.05004 9.4918 1.15011L8.43407 1.97069C8.17463 2.17084 7.8154 2.17084 7.55595 1.97069L6.49822 1.15011C6.3685 1.05004 6.20884 1 6.05916 1C5.74982 1 5.46044 1.20014 5.36066 1.53038L4.94155 2.89135C4.84177 3.21158 4.56237 3.42173 4.24305 3.42173H2.90592C2.39701 3.42173 2.04775 3.9421 2.20741 4.44246L2.62651 5.71337C2.73628 6.0336 2.62651 6.39385 2.35709 6.594L1.30934 7.37455C1.10976 7.52466 1 7.76483 1 7.995C1 8.23517 1.09979 8.46533 1.30934 8.62545L2.35709 9.41601C2.61654 9.61615 2.7263 9.9664 2.62651 10.2866L2.21739 11.5475C2.05773 12.0479 2.40699 12.5683 2.91589 12.5683H4.24305C4.56237 12.5683 4.84177 12.7884 4.94155 13.1086L5.35068 14.4596C5.45046 14.7999 5.7598 15 6.05916 15C6.20884 15 6.35852 14.95 6.48824 14.8499L7.55595 14.0293C7.8154 13.8292 8.17463 13.8292 8.43407 14.0293L9.50178 14.8499C9.6315 14.95 9.78118 15 9.93086 15C10.2402 15 10.5296 14.7999 10.6393 14.4596L11.0485 13.1086C11.1483 12.7884 11.4277 12.5683 11.747 12.5683H13.0841C13.583 12.5683 13.9423 12.0479 13.7826 11.5475L13.3635 10.2766C13.2537 9.9564 13.3635 9.59614 13.6329 9.396L14.6807 8.61544L14.6907 8.63545ZM10.0107 10.0064H6.01924V9.00572H10.0107V10.0064ZM11.0086 7.00429H5.02138V6.00357H11.0086V7.00429Z" fill="black" fill-opacity="0.75"/>
</svg>
