<svg width="24" height="24" viewBox="0 0 24 24" fill="none" xmlns="http://www.w3.org/2000/svg">
<path d="M22 11.1L20.5 10C20.1 9.7 19.9 9.2 20.1 8.8L20.7 7C20.9 6.3 20.4 5.5 19.7 5.5H17.7C17.2 5.5 16.8 5.2 16.6 4.7L16 2.8C15.8 2.3 15.4 2 15 2C14.8 2 14.5 2.1 14.3 2.2L12.7 3.4C12.3 3.7 11.8 3.7 11.4 3.4L9.7 2.2C9.5 2.1 9.3 2 9.1 2C8.6 2 8.2 2.3 8 2.8L7.4 4.7C7.3 5.2 6.8 5.5 6.4 5.5H4.4C3.6 5.5 3.1 6.2 3.4 7L4 8.8C4.2 9.3 4 9.8 3.6 10.1L2 11.1C1.7 11.3 1.5 11.7 1.5 12C1.5 12.3 1.7 12.7 2 12.9L3.5 14C3.9 14.3 4.1 14.8 3.9 15.2L3.3 17C3.1 17.7 3.6 18.5 4.3 18.5H6.3C6.8 18.5 7.2 18.8 7.4 19.3L8 21.2C8.2 21.7 8.6 22 9.1 22C9.3 22 9.5 21.9 9.7 21.8L11.3 20.6C11.7 20.3 12.2 20.3 12.6 20.6L14.2 21.8C14.4 21.9 14.6 22 14.8 22C15.3 22 15.7 21.7 15.9 21.2L16.5 19.3C16.6 18.8 17.1 18.5 17.6 18.5H19.6C20.4 18.5 20.9 17.8 20.6 17L20 15.2C19.8 14.7 20 14.2 20.4 13.9L22 12.8C22.3 12.6 22.5 12.2 22.5 11.9C22.5 11.7 22.3 11.3 22 11.1ZM7 11V10H17V11H7ZM9 14V13H15V14H9Z" fill="black" fill-opacity="0.75"/>
</svg>
