<svg width="24" height="24" viewBox="0 0 24 24" fill="none" xmlns="http://www.w3.org/2000/svg">
<path d="M21.99 11.0111V13.0089H2V11.0111H8.78661H12.6847C12.6847 11.0111 12.6847 11.0111 12.6947 11.0111H22H21.99ZM13.7441 13.9978C14.5337 14.6071 14.9935 15.2564 14.9935 16.1754C14.9935 16.6448 14.8536 19.0022 11.995 19.0022C10.2559 19.0022 8.56672 18.313 7.5972 17.2042C7.55722 17.1643 7.36732 16.9245 7.22739 16.7647L5.8081 18.1831C5.93803 18.333 6.06797 18.4928 6.08796 18.5228C7.45727 20.071 9.66617 21 11.995 21C15.4333 21 16.9925 18.5028 16.9925 16.1754C16.9925 15.3163 16.7626 14.6071 16.4128 13.9978H13.7541H13.7441ZM7.81709 10.0022H10.8756C10.7656 9.9323 10.6557 9.87236 10.5457 9.81243C10.2559 9.63263 10.006 9.44284 9.8061 9.25305C9.45627 8.93341 9.22639 8.5838 9.11644 8.21421C8.95652 7.68479 8.95652 7.06548 9.11644 6.67592C9.1964 6.46615 9.31634 6.26637 9.47626 6.07658C10.046 5.40733 10.9855 5.00777 11.995 5.00777C13.1744 5.00777 14.3938 5.40733 15.4133 6.12653C15.6332 6.27636 15.8431 6.44617 16.033 6.62597L17.3923 5.1576C17.1324 4.91787 16.8626 4.69811 16.5627 4.48835C15.2034 3.52941 13.5742 3 11.985 3C10.3958 3 8.88656 3.64928 7.93703 4.77802C7.63718 5.13762 7.3973 5.52719 7.23738 5.93674C6.91754 6.74584 6.90755 7.80466 7.18741 8.7636C7.31734 9.19312 7.52724 9.60266 7.8071 9.98224L7.81709 10.0022Z" fill="black" fill-opacity="0.75"/>
</svg>
