<svg width="24" height="24" viewBox="0 0 24 24" fill="none" xmlns="http://www.w3.org/2000/svg">
<path d="M11.5 5H15V7H13.75L10.2 12.03L13.75 17H15V19H11.5V17.27L9 13.72L6.5 17.26V19H3V17H4.25L7.8 12.03L4.25 7H3V5H6.5V6.84L9 10.34L11.5 6.83V5ZM21.28 18.41C21.74 17.92 22 17.27 22 16.6C22 15.4 21.2 14.29 20.02 14.05C18.42 13.73 17 14.95 17 16.5V17H19V16.4C19 16.12 19.22 15.9 19.5 15.9C19.78 15.9 20 16.12 20 16.4V16.6C20 16.86 19.9 17.1 19.73 17.29L17 20.18V22H22V20H19.78L21.28 18.41Z" fill="black" fill-opacity="0.75"/>
</svg>
