<svg width="24" height="24" viewBox="0 0 24 24" fill="none" xmlns="http://www.w3.org/2000/svg">
<path d="M21 3V5H8V3H21ZM8 13H21V11H8V13ZM8 21H21V19H8V21ZM5 5V1L3 1.9V3L4 2.5V5H3V6H6V5H5ZM5.6 11.7C5.8 11.4 6 11 6 10.5C6 9.6 5.3 9 4.4 9C3.6 9 3 9.7 3 10.5V11H4V10.5C4 10.2 4.2 10 4.5 10C4.8 10 5 10.2 5 10.5C5 10.7 4.9 10.9 4.8 11L3 13V14H6V13H4.4L5.6 11.7ZM6 17H3V18H4.7L4 18.8V19.5H4.5C4.8 19.5 5 19.7 5 20V20.5C5 20.8 4.8 21 4.5 21C4.2 21 4 20.8 4 20.5V20H3V20.5C3 21.3 3.7 22 4.5 22C5.3 22 6 21.3 6 20.5V20C6 19.4 5.7 18.9 5.2 18.7L6 17.8V17Z" fill="black" fill-opacity="0.75"/>
</svg>
