<svg width="24" height="24" viewBox="0 0 24 24" fill="none" xmlns="http://www.w3.org/2000/svg">
<path d="M11.5 5.0001H15V7.0001H13.75L10.2 12.0301L13.75 17.0001H15V19.0001H11.5V17.2701L9 13.7201L6.5 17.2601V19.0001H3V17.0001H4.25L7.8 12.0301L4.25 7.0001H3V5.0001H6.5V6.8401L9 10.3401L11.5 6.8301V5.0001ZM21.28 6.4101C21.74 5.9201 22 5.2701 22 4.6001C22 3.4001 21.2 2.2901 20.02 2.0501C18.42 1.7301 17 2.9501 17 4.5001V5.0001H19V4.4001C19 4.1201 19.22 3.9001 19.5 3.9001C19.78 3.9001 20 4.1201 20 4.4001V4.6001C20 4.8601 19.9 5.1001 19.73 5.2901L17 8.1801V10.0001H22V8.0001H19.78L21.28 6.4101Z" fill="black" fill-opacity="0.75"/>
</svg>
