<svg width="16" height="16" viewBox="0 0 16 16" fill="none" xmlns="http://www.w3.org/2000/svg">
<path d="M14 9V2H12.7L11.7 1.6C10.9 1.2 10.1 1 9.2 1H4.4C3.6 1 3 1.7 3 2.5V2.6C2.3 2.7 1.8 3.3 1.8 4C1.8 4.3 1.9 4.5 2 4.7C1.4 5 1 5.5 1 6.1C1 6.6 1.3 7 1.6 7.3C1.3 7.6 1 8 1 8.5C1 9.3 1.6 9.9 2.4 10H5.6L5.3 10.9C5.1 11.5 5 12.2 5 12.8V14C4.9 15.1 5.9 16 7 16C7.9 16 8.7 15.5 9 14.6L9.2 14.1C9.5 13.2 10 12.3 10.7 11.5L12.9 9H14ZM12 7.2L9.2 10.2C8.4 11.1 7.7 12.2 7.3 13.4L7.1 13.9C7.1 13.9 7.1 14 7 14C7 14 6.9 14 6.9 13.9V12.7C6.9 12.3 7 11.8 7.1 11.4L8.3 8H3.4C3.2 8 3 7.8 3.1 7.6L3.5 7L3.2 6.4C3 6.1 3.1 5.8 3.3 5.7L3.7 5.3L3.6 4.7C3.6 4.4 3.7 4.2 3.9 4.1L4.4 3.9L4.5 3.4C4.6 3.2 4.9 3 5.1 3H9.2C9.7 3 10.3 3.1 10.8 3.4L12 3.9V7.2Z" fill="black" fill-opacity="0.75"/>
</svg>
