<svg width="16" height="16" viewBox="0 0 16 16" fill="none" xmlns="http://www.w3.org/2000/svg">
<path d="M12.9 7L10.7 4.4C10 3.7 9.5 2.8 9.2 1.9L9 1.4C8.7 0.5 7.9 0 7 0C5.9 0 4.9 0.9 4.9 2.1V3.3C4.9 3.9 5 4.6 5.2 5.2L5.5 6H2.4C1.6 6.1 1 6.7 1 7.5C1 8 1.3 8.4 1.6 8.7C1.3 8.9 1 9.4 1 9.9C1 10.5 1.4 11 1.9 11.3C1.8 11.5 1.7 11.8 1.7 12C1.7 12.7 2.3 13.3 3 13.4V13.5C3 14.3 3.6 15 4.4 15H9.2C10.1 15 10.9 14.8 11.7 14.4L12.7 14H14V7H12.9ZM12 12.1L10.8 12.6C10.3 12.8 9.8 13 9.2 13H5.1C4.9 13 4.6 12.8 4.6 12.6L4.5 12.1L4 11.9C3.8 11.8 3.6 11.5 3.7 11.3L3.8 10.7L3.4 10.3C3.1 10.2 3 9.9 3.2 9.6L3.5 9L3.1 8.4C3 8.2 3.2 8 3.4 8H8.3L7.1 4.5C7 4.1 6.9 3.7 6.9 3.2V2.1C6.9 2 7 2 7 2C7 2 7.1 2 7.1 2.1L7.3 2.6C7.7 3.8 8.4 4.8 9.2 5.8L12 8.8V12.1Z" fill="black" fill-opacity="0.75"/>
</svg>
