<svg width="24" height="24" viewBox="0 0 24 24" fill="none" xmlns="http://www.w3.org/2000/svg">
<path d="M19.5 11L15.6 7.1C14.8 6.3 14.3 5.4 13.9 4.4L13.4 2.9C13 1.8 11.9 1 10.8 1C9.2 1 8 2.2 8 3.8V4.9C8 5.9 8.2 6.8 8.5 7.7L8.9 9H4.1C3 9 2 10 2 11.1C2 11.8 2.4 12.5 2.9 12.9C2.3 13.3 2 13.9 2 14.6C2 15.5 2.5 16.2 3.3 16.6C3.1 16.9 3 17.3 3 17.6C3 18.7 3.9 19.7 5 19.7V19.8C5 21 6 22 7.1 22H14.6C15.8 22 17.1 21.7 18.2 21.2L18.5 21H21V11H19.5ZM19 19H18L17.3 19.4C16.5 19.8 15.5 20 14.6 20H7.7C7.3 20 6.9 19.7 6.7 19.3L6.4 18.4L5.6 18C5.2 17.9 4.9 17.4 5 17L5.2 16L4.4 15.3C4.1 14.9 4 14.4 4.3 14L5 12.9L4.3 11.8C4 11.4 4.2 11 4.6 11H11.6L10.3 7.1C10.1 6.4 10 5.6 10 4.9V3.8C10 3.3 10.3 3 10.8 3C11.1 3 11.4 3.2 11.5 3.5L12 5C12.4 6.3 13.2 7.5 14.2 8.5L18.7 13H19V19Z" fill="black" fill-opacity="0.75"/>
</svg>
