<svg width="24" height="24" viewBox="0 0 24 24" fill="none" xmlns="http://www.w3.org/2000/svg">
<path d="M21 13V3H18.5L18.2 2.8C17.1 2.3 15.9 2 14.6 2H7.1C6 2 5 3 5 4.1V4.2C3.9 4.3 3 5.2 3 6.3C3 6.7 3.1 7 3.3 7.3C2.5 7.7 2 8.5 2 9.4C2 10.1 2.4 10.8 2.9 11.1C2.3 11.5 2 12.1 2 12.9C2 14 3 15 4.1 15H8.9L8.5 16.3C8.2 17.2 8 18.2 8 19.1V20.2C8 21.7 9.2 23 10.8 23C12 23 13 22.2 13.4 21.1L13.9 19.6C14.2 18.6 14.8 17.6 15.6 16.9L19.5 13H21ZM19 11H18.6L14.1 15.5C13.1 16.5 12.4 17.7 11.9 19L11.4 20.5C11.3 20.8 11 21 10.7 21C10.3 21 9.9 20.7 9.9 20.2V19.1C9.9 18.3 10 17.6 10.3 16.9L11.6 13H4.6C4.2 13 4 12.6 4.2 12.2L4.9 11.1L4.3 10C4 9.6 4.1 9.1 4.4 8.8L5.2 8.1L5 7C4.9 6.6 5.2 6.1 5.6 6L6.5 5.6L6.8 4.7C6.9 4.3 7.3 4 7.7 4H14.6C15.5 4 16.5 4.2 17.3 4.6L18 5H19V11Z" fill="black" fill-opacity="0.75"/>
</svg>
