<svg width="32" height="32" viewBox="0 0 32 32" fill="none" xmlns="http://www.w3.org/2000/svg">
<path d="M14.99 4.38C15.39 4.38 15.79 4.65 15.92 5.05L16.59 7.04C17.12 8.77 18.19 10.37 19.52 11.69L25.5 17.68H25.9V25.66H24.57L23.64 26.19C22.58 26.72 21.25 26.99 20.05 26.99H10.87C10.34 26.99 9.80998 26.59 9.53998 26.06L9.13999 24.86L8.07998 24.33C7.54998 24.2 7.14998 23.53 7.27998 23L7.54998 21.67L6.48998 20.74C6.08998 20.21 5.95998 19.54 6.35998 19.01L7.28998 17.55L6.35998 16.09C5.95998 15.56 6.22998 15.03 6.75998 15.03H16.07L14.34 9.84C14.07 8.91001 13.94 7.85 13.94 6.91V5.45C13.94 4.78 14.34 4.39 15 4.39M15 2.39C13.22 2.39 11.94 3.68 11.94 5.45V6.91C11.94 8.08 12.11 9.31001 12.42 10.39V10.43L12.45 10.47L13.3 13.02H6.75998C5.75998 13.02 4.86998 13.56 4.43998 14.43C3.99998 15.3 4.10998 16.36 4.70998 17.21L4.92998 17.55L4.70998 17.89C3.86998 19.08 3.93998 20.66 4.89998 21.94L5.02998 22.11L5.18998 22.25L5.37998 22.42L5.34998 22.58C5.17998 23.33 5.31998 24.15 5.73998 24.85C6.11998 25.48 6.68998 25.96 7.33998 26.19L7.52998 26.28L7.66998 26.69L7.70998 26.82L7.76998 26.95C8.38998 28.19 9.60999 28.99 10.89 28.99H20.07C21.64 28.99 23.27 28.62 24.56 27.98L24.61 27.96L24.66 27.93L25.13 27.66H27.93V15.68H26.36L20.96 10.28C19.78 9.1 18.94 7.77 18.53 6.45L17.85 4.41C17.45 3.21 16.29 2.38 15.02 2.38L15 2.39Z" fill="black" fill-opacity="0.75"/>
</svg>
