<svg width="24" height="24" viewBox="0 0 24 24" fill="none" xmlns="http://www.w3.org/2000/svg">
<path d="M17 3H7C5.3 3 4 4.3 4 6V16C4 17.7 5.3 19 7 19H8L5 22H7.8L10.8 19H13.1L16.1 22H19L16 19H17C18.7 19 20 17.7 20 16V6C20 4.3 18.7 3 17 3ZM6 6C6 5.4 6.4 5 7 5H11V10H6V6ZM7 14.5C7 13.7 7.7 13 8.5 13C9.3 13 10 13.7 10 14.5C10 15.3 9.3 16 8.5 16C7.7 16 7 15.3 7 14.5ZM15.5 16C14.7 16 14 15.3 14 14.5C14 13.7 14.7 13 15.5 13C16.3 13 17 13.7 17 14.5C17 15.3 16.3 16 15.5 16ZM18 10H13V5H17C17.6 5 18 5.4 18 6V10Z" fill="black" fill-opacity="0.75"/>
</svg>
