<svg width="24" height="24" viewBox="0 0 24 24" fill="none" xmlns="http://www.w3.org/2000/svg">
<path fill-rule="evenodd" clip-rule="evenodd" d="M18.5 11C18.5 14.79 16.21 17.76 12.41 19.21L12.01 19.35L11.63 19.21C7.8 17.76 5.5 14.78 5.5 11V6.8L12 4.63L18.5 6.8V11ZM12.01 2L3 5V11C3 16 6.12 19.81 10.77 21.56L12 22L13.27 21.56C17.9 19.81 21.01 16 21.01 11V5L12.02 2H12.01ZM10.39 12.63L14.11 8H17.32L11.47 15.28L10.6 16.37L9.61 15.38L6.65 12.41L8.42 10.64L10.4 12.62L10.39 12.63Z" fill="black" fill-opacity="0.75"/>
</svg>
