<svg width="16" height="16" viewBox="0 0 16 16" fill="none" xmlns="http://www.w3.org/2000/svg">
<path fill-rule="evenodd" clip-rule="evenodd" d="M3 0H13C14.1 0 15 0.9 15 2V12C15 13.1 14.1 14 13 14H9L5.5 16H4V14H3C1.9 14 1 13.1 1 12V2C1 0.9 1.9 0 3 0ZM6.8 10C6.8 10.6 7.3 11.2 8 11.2C8.7 11.2 9.2 10.6 9.2 10C9.2 9.4 8.7 8.8 8 8.8C7.3 8.8 6.8 9.4 6.8 10ZM7 7.1V8H8.8C10.5 7.2 11 6.3 11 5.4C11 4 10.1 3 8.1 3C6.9 3 5.9 3.4 5 3.8V5.9C5.8 5.4 7 5 8 5C8.6 5 9 5.2 9 5.6C9 5.9 8.6 6.2 7.9 6.6L7 7.1Z" fill="black" fill-opacity="0.75"/>
</svg>
