<svg width="24" height="24" viewBox="0 0 24 24" fill="none" xmlns="http://www.w3.org/2000/svg">
<path fill-rule="evenodd" clip-rule="evenodd" d="M8 20V18H5V4H19V18H12.47L12.01 18.26L8 20.55V20ZM6 24L8 22.86L13 20H19C20.1 20 21 19.1 21 18V4C21 2.9 20.1 2 19 2H5C3.9 2 3 2.9 3 4V18C3 19.1 3.9 20 5 20H6V24ZM11 13H13V11.78L13.38 11.55C14.18 11.09 15.32 10.29 15.32 8.71C15.32 7.92 14.99 7.2 14.35 6.7C13.73 6.21 12.91 5.99 11.99 5.99C10.96 5.99 9.95 6.33 8.99 6.88V9.23L9.74 8.76C10.58 8.23 11.33 7.99 11.99 7.99C12.61 7.99 12.94 8.14 13.11 8.27C13.25 8.38 13.32 8.52 13.32 8.71C13.32 8.95 13.25 9.11 13.12 9.26C12.97 9.44 12.72 9.62 12.37 9.82H12.36L12.35 9.83L11.48 10.36L11 10.65V12.99V13ZM12 16.25C11.27 16.25 10.75 15.63 10.75 15C10.75 14.37 11.37 13.75 12 13.75C12.73 13.75 13.25 14.37 13.25 15C13.25 15.63 12.73 16.25 12 16.25Z" fill="black" fill-opacity="0.75"/>
</svg>
