<svg width="16" height="16" viewBox="0 0 16 16" fill="none" xmlns="http://www.w3.org/2000/svg">
<path fill-rule="evenodd" clip-rule="evenodd" d="M5.5 16L6 15.71L9 14H13C14.1 14 15 13.1 15 12V2C15 0.9 14.1 0 13 0H3C1.9 0 1 0.9 1 2V12C1 13.1 1.9 14 3 14H4V16H5.5ZM8.01 12.26L6 13.41V12H3V2H13V12H8.47L8.01 12.26ZM6.8 10C6.8 10.6 7.3 11.2 8 11.2C8.7 11.2 9.2 10.6 9.2 10C9.2 9.4 8.7 8.8 8 8.8C7.3 8.8 6.8 9.4 6.8 10ZM7 8H8.8C10.5 7.2 11 6.3 11 5.4C11 4 10.1 3 8.1 3C6.9 3 5.9 3.4 5 3.8V5.9C5.8 5.4 7 5 8 5C8.6 5 9 5.2 9 5.6C9 5.9 8.6 6.2 7.9 6.6L7 7.1V8Z" fill="black" fill-opacity="0.75"/>
</svg>
