<svg width="24" height="24" viewBox="0 0 24 24" fill="none" xmlns="http://www.w3.org/2000/svg">
<path fill-rule="evenodd" clip-rule="evenodd" d="M19 2H5C3.9 2 3 2.9 3 4V18C3 19.1 3.9 20 5 20H6V24L13 20H19C20.1 20 21 19.1 21 18V4C21 2.9 20.1 2 19 2ZM12 16.25C11.27 16.25 10.75 15.63 10.75 15C10.75 14.37 11.37 13.75 12 13.75C12.73 13.75 13.25 14.37 13.25 15C13.25 15.63 12.73 16.25 12 16.25ZM13 13H11V10.66L11.48 10.37L12.35 9.84H12.36L12.37 9.83C12.73 9.62 12.97 9.45 13.12 9.27C13.25 9.12 13.32 8.96 13.32 8.72C13.32 8.52 13.25 8.39 13.11 8.28C12.95 8.15 12.61 8 11.99 8C11.34 8 10.59 8.24 9.74 8.77L8.99 9.24V6.89C9.95 6.34 10.96 6 11.99 6C12.9 6 13.73 6.22 14.35 6.71C14.99 7.21 15.32 7.94 15.32 8.72C15.32 10.3 14.17 11.1 13.38 11.56L13 11.79V13.01V13Z" fill="black" fill-opacity="0.75"/>
</svg>
