<svg width="24" height="24" viewBox="0 0 24 24" fill="none" xmlns="http://www.w3.org/2000/svg">
<path d="M2 2.7L5.9 6.6C3.8 7.8 2.1 9.7 1 12C3 16.3 7 19 12 19C13.9 19 15.6 18.6 17.2 17.9L21.3 22L22 21.3L2.7 2L2 2.7ZM8.1 8.9L9.5 10.3C9.2 10.8 9 11.4 9 12C9 13.7 10.3 15 12 15C12.6 15 13.2 14.8 13.7 14.4L15.1 15.8C14.3 16.6 13.2 17 12 17C9.2 17 7 14.8 7 12C7 10.8 7.4 9.7 8.1 8.9ZM23 12C22.1 14 20.7 15.7 19 16.9L16.4 14.3C16.8 13.6 17 12.8 17 12C17 9.2 14.8 7 12 7C11.2 7 10.4 7.2 9.7 7.6L7.8 5.7C9.1 5.2 10.5 5 12 5C17 5 21 7.7 23 12ZM15 12C15 12.3 15 12.5 14.9 12.8L11.2 9.1C11.5 9 11.7 9 12 9C13.7 9 15 10.3 15 12Z" fill="black" fill-opacity="0.75"/>
</svg>
