<svg width="16" height="16" viewBox="0 0 16 16" fill="none" xmlns="http://www.w3.org/2000/svg">
<path d="M1 1.7L3.5 4.2C2 5.1 0.8 6.4 0 8C1.5 11.1 4.4 13 8 13C9.3 13 10.5 12.7 11.6 12.3L14.3 15L15 14.3L1.7 1L1 1.7ZM5.6 6.3L6.3 7C6.1 7.3 6 7.6 6 8C6 9.1 6.9 10 8 10C8.4 10 8.7 9.9 9 9.7L9.7 10.4C9.2 10.8 8.6 11 8 11C6.3 11 5 9.7 5 8C5 7.4 5.2 6.8 5.6 6.3ZM16 8C15.4 9.3 14.5 10.4 13.4 11.2L10.9 8.7C11 8.5 11 8.3 11 8C11 6.3 9.7 5 8 5C7.7 5 7.5 5 7.2 5.1L5.5 3.3C6.3 3.1 7.1 3 8 3C11.6 3 14.6 4.9 16 8ZM10 7.9L8.1 6C9.1 6.1 9.9 6.9 10 7.9Z" fill="black" fill-opacity="0.75"/>
</svg>
