<svg width="32" height="32" viewBox="0 0 32 32" fill="none" xmlns="http://www.w3.org/2000/svg">
<path d="M16 7C9.64 7 4.55 10.47 2 16C4.55 21.53 9.64 25 16 25C22.36 25 27.45 21.53 30 16C27.45 10.47 22.36 7 16 7ZM16 22.5C12.36 22.5 9.5 19.64 9.5 16C9.5 12.36 12.36 9.5 16 9.5C19.64 9.5 22.5 12.36 22.5 16C22.5 19.64 19.64 22.5 16 22.5ZM20.5 16C20.5 18.55 18.55 20.5 16 20.5C13.45 20.5 11.5 18.55 11.5 16C11.5 13.45 13.45 11.5 16 11.5C18.55 11.5 20.5 13.45 20.5 16Z" fill="black" fill-opacity="0.75"/>
</svg>
