<svg width="32" height="32" viewBox="0 0 32 32" fill="none" xmlns="http://www.w3.org/2000/svg">
<path d="M16 11.5C18.55 11.5 20.5 13.45 20.5 16C20.5 16.71 20.34 17.36 20.07 17.95L14.06 11.94C14.65 11.67 15.3 11.51 16.01 11.51L16 11.5ZM16 9.5C19.64 9.5 22.5 12.36 22.5 16C22.5 17.27 22.15 18.43 21.54 19.42L24.58 22.46C26.89 20.91 28.75 18.7 29.99 16C27.44 10.47 22.35 7 15.99 7C13.9 7 11.96 7.38 10.19 8.08L12.57 10.46C13.56 9.86 14.73 9.5 15.99 9.5H16ZM3.70999 3L29 28.29L28.29 29L22.78 23.49C20.76 24.46 18.48 25 15.99 25C9.62999 25 4.53999 21.53 1.98999 16C3.38999 12.96 5.55999 10.56 8.27999 8.99L2.99999 3.71L3.70999 3ZM9.49999 16C9.49999 19.64 12.36 22.5 16 22.5C17.64 22.5 19.11 21.92 20.24 20.95L18.81 19.52C18.05 20.12 17.08 20.5 15.99 20.5C13.44 20.5 11.49 18.55 11.49 16C11.49 14.91 11.86 13.95 12.47 13.18L11.04 11.75C10.07 12.88 9.48999 14.36 9.48999 15.99L9.49999 16Z" fill="black" fill-opacity="0.75"/>
</svg>
