<svg width="16" height="16" viewBox="0 0 16 16" fill="none" xmlns="http://www.w3.org/2000/svg">
<path d="M5 4L9 1V15L5 12H3C2.46957 12 1.96086 11.7893 1.58579 11.4142C1.21071 11.0391 1 10.5304 1 10V6C1 5.46957 1.21071 4.96086 1.58579 4.58579C1.96086 4.21071 2.46957 4 3 4H5ZM10.83 5.17L10.12 5.88C10.6818 6.4425 10.9974 7.205 10.9974 8C10.9974 8.795 10.6818 9.5575 10.12 10.12L10.83 10.83C11.2019 10.4585 11.4969 10.0174 11.6982 9.53176C11.8995 9.04617 12.0031 8.52566 12.0031 8C12.0031 7.47434 11.8995 6.95383 11.6982 6.46824C11.4969 5.98265 11.2019 5.54149 10.83 5.17Z" fill="black" fill-opacity="0.75"/>
</svg>
