<svg width="16" height="16" viewBox="0 0 16 16" fill="none" xmlns="http://www.w3.org/2000/svg">
<path d="M5 4L9 1V15L5 12H3C2.46957 12 1.96086 11.7893 1.58579 11.4142C1.21071 11.0391 1 10.5304 1 10V6C1 5.46957 1.21071 4.96086 1.58579 4.58579C1.96086 4.21071 2.46957 4 3 4H5ZM14 8C13.9986 9.59076 13.3655 11.1159 12.24 12.24L13 13C13.6501 12.35 14.1658 11.5783 14.5176 10.7289C14.8694 9.87962 15.0505 8.96931 15.0505 8.05C15.0505 7.13069 14.8694 6.22038 14.5176 5.37105C14.1658 4.52173 13.6501 3.75002 13 3.1L12.29 3.81C13.3851 4.92992 13.9988 6.43367 14 8ZM11 8C10.9993 8.79538 10.6828 9.55793 10.12 10.12L10.83 10.83C11.2019 10.4585 11.4969 10.0174 11.6982 9.53176C11.8995 9.04617 12.0031 8.52566 12.0031 8C12.0031 7.47434 11.8995 6.95383 11.6982 6.46824C11.4969 5.98265 11.2019 5.54149 10.83 5.17L10.12 5.88C10.6828 6.44207 10.9993 7.20462 11 8Z" fill="black" fill-opacity="0.75"/>
</svg>
