<svg width="16" height="16" viewBox="0 0 16 16" fill="none" xmlns="http://www.w3.org/2000/svg">
<path d="M14 8C13.9986 6.40924 13.3655 4.88414 12.24 3.76L13 3.05C14.1267 4.17893 14.834 5.65877 15.005 7.24453C15.1759 8.8303 14.8002 10.4269 13.94 11.77L13.16 11C13.7024 10.0927 13.9924 9.05699 14 8ZM10.89 8.77L11.67 9.54C11.8828 9.05419 11.995 8.53034 12 8C12.0004 7.47456 11.8973 6.95418 11.6965 6.4686C11.4958 5.98302 11.2013 5.54175 10.83 5.17L10.12 5.88C10.6828 6.44207 10.9993 7.20462 11 8C10.9992 8.26052 10.9622 8.51967 10.89 8.77ZM9 6.88V1L5.64 3.52L9 6.88ZM12.58 11.88L11.15 10.45L10.44 9.74L9 8.29L4.71 4L1.71 1L1 1.71L3.29 4H3C2.46957 4 1.96086 4.21071 1.58579 4.58579C1.21071 4.96086 1 5.46957 1 6V10C1 10.5304 1.21071 11.0391 1.58579 11.4142C1.96086 11.7893 2.46957 12 3 12H5L9 15V9.71L14.29 15L15 14.29L13.29 12.58L12.58 11.88Z" fill="black" fill-opacity="0.75"/>
</svg>
