<svg width="24" height="24" viewBox="0 0 24 24" fill="none" xmlns="http://www.w3.org/2000/svg">
<path d="M2.7 2L22 21.3L21.3 22L14 14.7V21L8 17H5C3.3 17 2 15.7 2 14V10C2 8.3 3.3 7 5 7H6.3L2 2.7L2.7 2ZM14 3L8.7 6.6L14 11.9V3ZM19.3 17.2L20 17.9C21.2 16.2 22 14.2 22 12C22 9.2 20.9 6.7 19.1 4.9L18.4 5.6C20 7.3 21 9.5 21 12C21 13.9 20.4 15.7 19.3 17.2ZM17.2 15L17.9 15.7C18.6 14.6 19 13.3 19 11.9C19 10 18.2 8.2 16.9 7L16.2 7.7C17.3 8.8 18 10.3 18 12C18 13.1 17.7 14.1 17.2 15Z" fill="black" fill-opacity="0.75"/>
</svg>
