<svg width="24" height="24" viewBox="0 0 24 24" fill="none" xmlns="http://www.w3.org/2000/svg">
<path d="M12 4C12 2.9 12.9 2 14 2C15.1 2 16 2.9 16 4C16 5.1 15.1 6 14 6C12.9 6 12 5.1 12 4ZM14.5 11C14.7 11.3 15 11.5 15.2 11.6L18.1 13L19 11.2L16.4 10C16.2 9.9 16.1 9.8 16 9.6L15.4 8.6C14.6 7.2 12.9 6.6 11.4 7.2L9.2 7.9C8.6 8.2 8.1 8.6 7.8 9.1L6 11.9L7.7 13L9.5 10.2C9.6 10 9.7 9.9 9.9 9.8L10.6 9.5L9.5 15.6C9.4 15.9 9.3 16.2 9.2 16.4L6 20.9L7.7 22L11 17.4C11.3 17 11.4 16.6 11.5 16.2L11.6 15.4C11.7 14.8 12.5 14.6 12.9 15.1L13.8 16.2C14 16.5 14.2 16.8 14.2 17.1L15 22.1L17 21.7L16.1 16.6C16 16.1 15.8 15.6 15.5 15.2L14 13.2L14.5 11Z" fill="black" fill-opacity="0.75"/>
</svg>
