<svg width="24" height="24" viewBox="0 0 24 24" fill="none" xmlns="http://www.w3.org/2000/svg">
<path d="M19 7V6C19 4.34 17.66 3 16 3H5C3.34 3 2 4.34 2 6V18C2 19.66 3.34 21 5 21H16C17.66 21 19 19.66 19 18V17C20.65 17 22 15.65 22 14V10C22 8.35 20.65 7 19 7ZM20 14C20 14.55 19.55 15 19 15H12C11.45 15 11 14.55 11 14V10C11 9.45 11.45 9 12 9H19C19.55 9 20 9.45 20 10V14ZM15 12C15 12.55 14.55 13 14 13C13.45 13 13 12.55 13 12C13 11.45 13.45 11 14 11C14.55 11 15 11.45 15 12Z" fill="black" fill-opacity="0.75"/>
</svg>
