<svg width="16" height="16" viewBox="0 0 16 16" fill="none" xmlns="http://www.w3.org/2000/svg">
<path fill-rule="evenodd" clip-rule="evenodd" d="M8.00244 0C3.58416 0 0.00243795 3.58172 0.00243795 8C0.00243795 9.46815 0.398784 10.8462 1.09046 12.0302L0.458089 14.3355L0 16.0054L1.67533 15.5675L4.03801 14.95C5.20724 15.6182 6.56148 16 8.00244 16C12.4207 16 16.0024 12.4183 16.0024 8C16.0024 3.58172 12.4207 0 8.00244 0ZM2.00244 8C2.00244 4.68629 4.68873 2 8.00244 2C11.3161 2 14.0024 4.68629 14.0024 8C14.0024 11.3137 11.3161 14 8.00244 14C6.79766 14 5.67863 13.646 4.74005 13.0365L4.36975 12.7961L3.9426 12.9077L2.84492 13.1946L3.13492 12.1375L3.25543 11.6982L3.00308 11.319C2.37086 10.3689 2.00244 9.22897 2.00244 8ZM11.2957 9.43385C10.9487 9.26313 10.3471 8.96713 10.2094 8.91265C10.0333 8.85075 9.91087 8.81981 9.78075 9.00549C9.65062 9.1989 9.29087 9.63216 9.17605 9.75595C9.06124 9.88747 8.95408 9.90294 8.76272 9.80237C8.73481 9.78883 8.69795 9.77282 8.65309 9.75334C8.39032 9.63922 7.85297 9.40586 7.23184 8.85075C6.66542 8.34013 6.2827 7.71346 6.17554 7.52004C6.06072 7.32663 6.16023 7.22605 6.25974 7.12547C6.31705 7.06754 6.38501 6.98452 6.45153 6.90324C6.48274 6.86512 6.51362 6.82738 6.54295 6.7928C6.62697 6.69372 6.66616 6.61407 6.71909 6.50646C6.72403 6.49643 6.72909 6.48615 6.73431 6.47559C6.79554 6.34407 6.76493 6.23575 6.719 6.14291C6.68893 6.08213 6.51446 5.65647 6.35246 5.26122C6.26705 5.05284 6.18511 4.85291 6.12961 4.71937C5.99425 4.391 5.8529 4.38928 5.74261 4.38793C5.72817 4.38775 5.71426 4.38758 5.70097 4.38669H5.33356C5.20344 4.38669 4.99677 4.43311 4.82837 4.62653C4.81744 4.63854 4.8053 4.65159 4.79214 4.66574C4.59337 4.87944 4.16244 5.34275 4.16244 6.22802C4.16244 7.17189 4.84368 8.08482 4.94319 8.20861C4.94719 8.21435 4.9534 8.22352 4.96177 8.23587C5.14516 8.50677 6.36617 10.3104 8.19629 11.1021C8.6479 11.3033 9.00766 11.4193 9.28321 11.5044C9.74248 11.6514 10.1558 11.6282 10.4849 11.5818C10.8524 11.5276 11.6101 11.1176 11.7709 10.6689C11.9316 10.2201 11.9316 9.84105 11.8857 9.75595C11.8483 9.68661 11.755 9.64296 11.6182 9.57896C11.5871 9.5644 11.5538 9.54879 11.5183 9.53158L11.5106 9.53932C11.469 9.51912 11.3922 9.48133 11.2957 9.43385Z" fill="black" fill-opacity="0.75"/>
</svg>
