<svg width="24" height="24" viewBox="0 0 24 24" fill="none" xmlns="http://www.w3.org/2000/svg">
<path d="M12 0.5C18.3513 0.5 23.5 5.64873 23.5 12C23.5 18.3513 18.3513 23.5 12 23.5C5.64873 23.5 0.5 18.3513 0.5 12C0.5 5.64873 5.64873 0.5 12 0.5Z" fill="#DF704D" stroke="white"/>
<path fill-rule="evenodd" clip-rule="evenodd" d="M11.54 7.30003C10.7712 6.51888 9.72102 6.07898 8.625 6.07898C7.52897 6.07898 6.47881 6.51888 5.71 7.30003C4.09844 8.92876 4.09844 11.5513 5.71 13.18L12 19.5L18.29 13.18C19.9016 11.5513 19.9016 8.92876 18.29 7.30003C17.5192 6.51898 16.4674 6.07953 15.37 6.08003C14.276 6.08679 13.2307 6.53372 12.47 7.32003L12 7.76003L11.54 7.30003Z" fill="#FFF3F0" stroke="#77280C"/>
<path fill-rule="evenodd" clip-rule="evenodd" d="M11.54 7.22001C10.7712 6.43886 9.72102 5.99896 8.625 5.99896C7.52897 5.99896 6.47881 6.43886 5.71 7.22001C4.09844 8.84875 4.09844 11.4713 5.71 13.1L12 19.42L18.29 13.1C19.9016 11.4713 19.9016 8.84875 18.29 7.22001C17.5192 6.43896 16.4674 5.99952 15.37 6.00001C14.2772 6.00301 13.2317 6.44643 12.47 7.23001L12 7.68001L11.54 7.22001Z" stroke="#77280C" stroke-linecap="round" stroke-linejoin="round"/>
</svg>
