<svg width="16" height="16" viewBox="0 0 16 16" fill="none" xmlns="http://www.w3.org/2000/svg">
<path d="M8 0.5C12.1421 0.5 15.5 3.85786 15.5 8C15.5 12.1421 12.1421 15.5 8 15.5C3.85786 15.5 0.5 12.1421 0.5 8C0.5 3.85786 3.85786 0.5 8 0.5Z" fill="#DF704D" stroke="white"/>
<path fill-rule="evenodd" clip-rule="evenodd" d="M7.71001 5.00001C7.21847 4.50721 6.55104 4.23025 5.85501 4.23025C5.15897 4.23025 4.49154 4.50721 4.00001 5.00001C3.50232 5.49708 3.22267 6.17162 3.22267 6.87501C3.22267 7.57841 3.50232 8.25295 4.00001 8.75001L8.00001 12.75L12 8.75001C12.4977 8.25295 12.7773 7.57841 12.7773 6.87501C12.7773 6.17162 12.4977 5.49708 12 5.00001C11.5116 4.50553 10.845 4.22807 10.15 4.22997C9.45456 4.2258 8.78709 4.50361 8.30001 5.00001L8.00001 5.30001L7.71001 5.00001Z" fill="#FFF3F0" stroke="#77280C"/>
<path fill-rule="evenodd" clip-rule="evenodd" d="M7.70999 4.99997C7.22112 4.50219 6.55269 4.22178 5.85499 4.22178C5.15729 4.22178 4.48887 4.50219 3.99999 4.99997C2.99648 6.02918 2.99648 7.67077 3.99999 8.69997L7.99999 12.7L12 8.69997C13.0035 7.67077 13.0035 6.02918 12 4.99997C11.5126 4.50276 10.8462 4.22179 10.15 4.21997C9.45331 4.21953 8.78605 4.50086 8.29999 4.99997L7.99999 5.24997L7.70999 4.99997Z" stroke="#77280C" stroke-linecap="round" stroke-linejoin="round"/>
</svg>
