<svg width="72" height="72" viewBox="0 0 72 72" fill="none" xmlns="http://www.w3.org/2000/svg">
<path fill-rule="evenodd" clip-rule="evenodd" d="M34.29 22.82C28.2756 16.8056 18.5244 16.8056 12.51 22.82C6.49561 28.8344 6.49561 38.5856 12.51 44.6L36 68L59.49 44.6C63.8846 40.1921 65.1959 33.5732 62.8139 27.8227C60.4319 22.0722 54.8243 18.3193 48.6 18.31C44.5336 18.332 40.6436 19.973 37.79 22.87L36 24.53L34.29 22.82Z" fill="#DF704D"/>
<path fill-rule="evenodd" clip-rule="evenodd" d="M34.29 22.51C28.2756 16.4956 18.5244 16.4956 12.51 22.51C6.49561 28.5244 6.49561 38.2756 12.51 44.29L36 67.69L59.49 44.29C63.8846 39.8821 65.1959 33.2632 62.8139 27.5127C60.4319 21.7622 54.8243 18.0093 48.6 18C44.5336 18.022 40.6436 19.663 37.79 22.56L36 24.22L34.29 22.51Z" stroke="#77280C" stroke-width="3" stroke-linecap="round" stroke-linejoin="round"/>
</svg>
