<svg width="24" height="24" viewBox="0 0 24 24" fill="none" xmlns="http://www.w3.org/2000/svg">
<path fill-rule="evenodd" clip-rule="evenodd" d="M11.48 6.99999C9.66296 5.17469 6.71028 5.16797 4.88498 6.98499C3.05968 8.802 3.05296 11.7547 4.86998 13.58L12 20.61L19.13 13.54C20.461 12.2048 20.8564 10.1993 20.1318 8.45882C19.4071 6.71839 17.7052 5.58603 15.82 5.58998C14.5798 5.60547 13.3965 6.1126 12.53 6.99999L12 7.49999L11.48 6.99999Z" fill="#DF704D"/>
<path fill-rule="evenodd" clip-rule="evenodd" d="M11.48 6.86001C9.66296 5.03471 6.71028 5.028 4.88498 6.84501C3.05968 8.66203 3.05296 11.6147 4.86998 13.44L12 20.52L19.13 13.44C20.0082 12.5704 20.5022 11.3859 20.5022 10.15C20.5022 8.91415 20.0082 7.72958 19.13 6.86001C18.2498 5.98703 17.0597 5.49806 15.82 5.50001C14.5876 5.51019 13.409 6.00608 12.54 6.88001L12.01 7.38001L11.48 6.86001Z" stroke="#77280C" stroke-linecap="round" stroke-linejoin="round"/>
</svg>
