<svg width="48" height="48" viewBox="0 0 48 48" fill="none" xmlns="http://www.w3.org/2000/svg">
<path d="M24 46C36.1503 46 46 36.1503 46 24C46 11.8497 36.1503 2 24 2C11.8497 2 2 11.8497 2 24C2 36.1503 11.8497 46 24 46Z" fill="#DF704D"/>
<path fill-rule="evenodd" clip-rule="evenodd" d="M23.08 14.6C21.5384 13.0452 19.4395 12.1706 17.25 12.1706C15.0605 12.1706 12.9616 13.0452 11.42 14.6C8.19144 17.8552 8.19144 23.1048 11.42 26.36L24 39L36.58 26.36C39.8019 23.1059 39.8019 17.864 36.58 14.61C35.039 13.0469 32.935 12.1679 30.74 12.17C28.5588 12.1832 26.4736 13.0691 24.95 14.63L24.01 15.53L23.08 14.6Z" fill="#FFF3F0" stroke="#77280C"/>
<path fill-rule="evenodd" clip-rule="evenodd" d="M23.08 14.44C21.5424 12.8777 19.442 11.9979 17.25 11.9979C15.058 11.9979 12.9576 12.8777 11.42 14.44C8.19144 17.6953 8.19144 22.9448 11.42 26.2L24 38.83L36.58 26.2C39.7977 22.9403 39.7977 17.6997 36.58 14.44C35.0382 12.8841 32.9404 12.0061 30.75 12C28.5697 12.0176 26.4862 12.9029 24.96 14.46L24.02 15.36L23.08 14.44Z" stroke="#77280C" stroke-width="2" stroke-linecap="round" stroke-linejoin="round"/>
</svg>
