<svg width="48" height="48" viewBox="0 0 48 48" fill="none" xmlns="http://www.w3.org/2000/svg">
<path fill-rule="evenodd" clip-rule="evenodd" d="M22.9 14.9C20.441 12.2034 16.6989 11.0765 13.1597 11.9668C9.62057 12.8571 6.85715 15.6206 5.96683 19.1597C5.07651 22.6989 6.20338 26.441 8.89996 28.9L24 44L39.1 28.93C41.3612 26.6469 42.3877 23.4163 41.8588 20.2468C41.3298 17.0773 39.31 14.355 36.43 12.93C35.0857 12.2597 33.602 11.917 32.1 11.93C29.4861 11.9448 26.9855 12.999 25.15 14.86L24 16L22.9 14.9Z" fill="#DF704D"/>
<path fill-rule="evenodd" clip-rule="evenodd" d="M22.9 14.88C19.0302 11.1349 12.874 11.1787 9.05792 14.9785C5.24182 18.7782 5.17157 24.9341 8.89997 28.82L24 43.8L39.1 28.8C41.3372 26.5437 42.35 23.3476 41.8205 20.2146C41.2911 17.0817 39.2843 14.3958 36.43 13C35.0857 12.3297 33.602 11.9871 32.1 12C29.4873 12.011 26.9865 13.0617 25.15 14.92L24 16L22.9 14.88Z" stroke="#77280C" stroke-width="2" stroke-linecap="round" stroke-linejoin="round"/>
</svg>
