<svg width="16" height="16" viewBox="0 0 16 16" fill="none" xmlns="http://www.w3.org/2000/svg">
<path d="M8 15C11.866 15 15 11.866 15 8C15 4.13401 11.866 1 8 1C4.13401 1 1 4.13401 1 8C1 11.866 4.13401 15 8 15Z" fill="#DF704D"/>
<path fill-rule="evenodd" clip-rule="evenodd" d="M7.70999 5.00001C7.21845 4.50721 6.55103 4.23025 5.85499 4.23025C5.15896 4.23025 4.49153 4.50721 3.99999 5.00001C3.50231 5.49708 3.22266 6.17162 3.22266 6.87501C3.22266 7.57841 3.50231 8.25295 3.99999 8.75001L7.99999 12.75L12 8.75001C12.4977 8.25295 12.7773 7.57841 12.7773 6.87501C12.7773 6.17162 12.4977 5.49708 12 5.00001C11.5116 4.50553 10.845 4.22807 10.15 4.22997C9.45454 4.2258 8.78707 4.50361 8.29999 5.00001L7.99999 5.30001L7.70999 5.00001Z" fill="#FFF3F0" stroke="#77280C"/>
<path fill-rule="evenodd" clip-rule="evenodd" d="M7.71001 4.99997C7.22113 4.50219 6.55271 4.22178 5.85501 4.22178C5.15731 4.22178 4.48888 4.50219 4.00001 4.99997C2.9965 6.02918 2.9965 7.67077 4.00001 8.69997L8.00001 12.7L12 8.69997C13.0035 7.67077 13.0035 6.02918 12 4.99997C11.5126 4.50276 10.8462 4.22179 10.15 4.21997C9.45332 4.21953 8.78607 4.50086 8.30001 4.99997L8.00001 5.24997L7.71001 4.99997Z" stroke="#77280C" stroke-linecap="round" stroke-linejoin="round"/>
</svg>
