<svg width="48" height="48" viewBox="0 0 48 48" fill="none" xmlns="http://www.w3.org/2000/svg">
<path d="M24 45C33.9411 45 42 36.9411 42 27C42 17.0589 33.9411 9 24 9C14.0589 9 6 17.0589 6 27C6 36.9411 14.0589 45 24 45Z" fill="#79DEEE" stroke="#104E58" stroke-width="2"/>
<path d="M21.68 22.33C19.1 20.08 15.13 20.63 13.25 23.49L13.03 23.82L13.85 24.66L14.32 24.37C16.36 23.11 18.82 22.75 21.13 23.36L21.68 22.33Z" fill="#104E58"/>
<path d="M26.68 22.06L26.36 22.3L26.86 23.37C29.36 22.78 32 23.25 34.15 24.66L35 23.87C33.34 20.87 29.43 20.03 26.68 22.07V22.06Z" fill="#104E58"/>
<path d="M29 16.08C30.11 16.01 32.66 16.33 34 18.2" stroke="#104E58" stroke-width="2" stroke-linecap="round"/>
<path d="M18 16.08C16.89 16.01 14.34 16.33 13 18.2" stroke="#104E58" stroke-width="2" stroke-linecap="round"/>
<path d="M32.59 29.5H15.41C14.72 29.5 14.23 30.18 14.48 30.82C15.68 33.98 18.04 38.5 24.01 38.5C29.98 38.5 32.34 33.98 33.54 30.82C33.78 30.18 33.3 29.5 32.61 29.5H32.59Z" fill="#13707E"/>
<path d="M24.01 33.5C20.12 33.5 17.13 35.3 19.14 37C20.17 37.87 22 38.53 24.01 38.5C25.52 38.48 27.5 38.06 28.88 37C30.83 35.5 27.91 33.5 24.01 33.5Z" fill="#AEF0FA"/>
<path d="M32.43 28H15.57C13.9 28 12.62 29.66 13.24 31.31C14.58 34.83 17.33 40 24 40C30.67 40 33.42 34.83 34.76 31.31C35.39 29.66 34.11 28 32.43 28ZM24 38C18.7 38 16.4 34.01 15.11 30.6C15.01 30.34 15.2 30 15.57 30H32.43C32.8 30 32.99 30.34 32.89 30.6C31.6 34.01 29.3 38 24 38Z" fill="#104E58"/>
</svg>
