<svg width="22" height="22" viewBox="0 0 22 22" fill="none" xmlns="http://www.w3.org/2000/svg">
<path d="M11 22C17.0751 22 22 17.0751 22 11C22 4.92487 17.0751 0 11 0C4.92487 0 0 4.92487 0 11C0 17.0751 4.92487 22 11 22Z" fill="#44BFD3"/>
<path d="M11 19C15.4183 19 19 15.4183 19 11C19 6.58172 15.4183 3 11 3C6.58172 3 3 6.58172 3 11C3 15.4183 6.58172 19 11 19Z" fill="#D5F9FE" stroke="#104E58"/>
<path d="M9.98 8.87999C8.72 8.14999 7.12 8.45999 6.23 9.60999L6.61 10.06L6.83 9.93999C7.75 9.42999 8.82 9.26999 9.85 9.48999L10.06 8.93999L9.98 8.88999V8.87999Z" fill="#104E58"/>
<path d="M15.68 9.6C14.78 8.46 13.18 8.15 11.93 8.87L11.85 8.92L12.06 9.47C13.09 9.25 14.16 9.42 15.08 9.92L15.3 10.04L15.68 9.59V9.6Z" fill="#104E58"/>
<path d="M8.31999 6.43C7.73999 6.35 6.53999 6.61 5.92999 7.54" stroke="#104E58" stroke-linecap="round"/>
<path d="M13.5 6.43C14.08 6.35 15.28 6.61 15.89 7.54" stroke="#104E58" stroke-linecap="round"/>
<path d="M14.48 12H7.51999C7.00999 12 6.66999 12.51 6.86999 12.98C7.44999 14.34 8.54999 16 11 16C13.45 16 14.54 14.34 15.13 12.98C15.33 12.52 14.99 12 14.48 12Z" fill="#2199AC"/>
<path d="M11 14C9.47999 14 7.99999 15 8.99999 15.5C9.66666 15.8333 10.3333 16 11 16C11.6667 16 12.3333 15.8333 13 15.5C14 15 12.52 14 11 14Z" fill="#D5F9FE"/>
<path d="M14.72 11.5H7.28C6.61 11.5 6.11 12.15 6.34 12.81C6.61 13.6 7.03 14.61 7.75 15.43C8.48 16.27 9.53 16.9 11.01 16.9C12.49 16.9 13.53 16.27 14.27 15.43C14.99 14.61 15.41 13.6 15.68 12.81C15.9 12.15 15.4 11.5 14.74 11.5H14.72ZM13.51 14.77C12.94 15.42 12.15 15.9 11 15.9C9.85 15.9 9.07 15.43 8.49 14.77C7.91 14.1 7.54 13.25 7.28 12.5H14.7C14.44 13.25 14.08 14.11 13.49 14.77H13.51Z" fill="#104E58"/>
</svg>
