<svg width="72" height="72" viewBox="0 0 72 72" fill="none" xmlns="http://www.w3.org/2000/svg">
<path d="M36 67C51.46 67 64 54.46 64 39C64 23.54 51.46 11 36 11C20.54 11 8 23.54 8 39C8 54.46 20.54 67 36 67Z" fill="#79DEEE" stroke="#104E58" stroke-width="3"/>
<path d="M51.1 43H20.9C20.21 43 19.73 43.67 19.96 44.32C21.83 49.57 25.58 58 36 58C46.42 58 50.17 49.57 52.04 44.32C52.27 43.67 51.79 43 51.1 43Z" fill="#13707E"/>
<path d="M36.52 49.5C29.79 49.5 24.64 52.39 28.11 55.1C29.89 56.5 33.04 57.55 36.52 57.5C39.12 57.46 42.55 56.8 44.93 55.1C48.29 52.7 43.25 49.5 36.52 49.5Z" fill="#AEF0FA"/>
<path d="M49.75 41H22.25C19.91 41 18.14 43.31 18.96 45.61C19.98 48.47 21.55 52.04 24.2 54.92C26.89 57.84 30.69 60 36 60C41.31 60 45.11 57.84 47.8 54.92C50.45 52.05 52.01 48.47 53.04 45.61C53.87 43.31 52.1 41 49.75 41ZM45.59 52.88C43.4 55.26 40.38 57 35.99 57C31.6 57 28.59 55.26 26.39 52.88C24.15 50.45 22.75 47.33 21.77 44.59C21.68 44.34 21.86 44 22.23 44H49.74C50.11 44 50.29 44.34 50.2 44.59C49.22 47.33 47.82 50.45 45.58 52.88H45.59Z" fill="#104E58"/>
<path d="M19.26 33.05L18.99 33.53L20.43 34.84L21.11 34.37C24.08 32.32 27.84 31.77 31.28 32.9L32.3 31.24C28.43 27.38 21.95 28.28 19.27 33.04H19.26V33.05Z" fill="#104E58"/>
<path d="M52.19 33.61C49.91 28.61 43.45 27.22 39.31 30.85L38.9 31.21L39.85 32.92C43.56 31.81 47.58 32.51 50.69 34.83L52.2 33.61H52.19Z" fill="#104E58"/>
<path d="M28.5 20.52C26.22 20.42 21.5 21.5 19 25.5" stroke="#104E58" stroke-width="3" stroke-linecap="round"/>
<path d="M43.5 20.52C45.78 20.42 50.5 21.5 53 25.5" stroke="#104E58" stroke-width="3" stroke-linecap="round"/>
</svg>
