<svg width="16" height="16" viewBox="0 0 16 16" fill="none" xmlns="http://www.w3.org/2000/svg">
<path d="M8 15C11.866 15 15 11.866 15 8C15 4.13401 11.866 1 8 1C4.13401 1 1 4.13401 1 8C1 11.866 4.13401 15 8 15Z" fill="#44BFD3"/>
<path d="M8 13C10.7614 13 13 10.7614 13 8C13 5.23858 10.7614 3 8 3C5.23858 3 3 5.23858 3 8C3 10.7614 5.23858 13 8 13Z" fill="#D5F9FE" stroke="#104E58"/>
<path d="M10.33 8.60999H5.67001C5.51001 8.60999 5.39001 8.75999 5.44001 8.90999C5.75001 9.83999 6.36001 11.2 8.00001 11.2C9.64001 11.2 10.25 9.82999 10.56 8.90999C10.61 8.75999 10.49 8.60999 10.33 8.60999Z" fill="#2199AC"/>
<path d="M7.99999 9.79999C7.20999 9.79999 5.99999 10.3 6.49999 10.8C6.99999 11.3 7.47999 11.29 7.99999 11.3C8.44999 11.31 8.99999 11.3 9.49999 10.8C9.99999 10.3 8.75999 9.79999 7.99999 9.79999Z" fill="#D5F9FE"/>
<path d="M10.12 8.29999H5.88C5.41 8.29999 5.05 8.76999 5.22 9.22999C5.37 9.62999 5.6 10.19 6.03 10.66C6.47 11.14 7.11 11.5 8 11.5C8.89 11.5 9.52 11.14 9.97 10.66C10.4 10.2 10.63 9.63999 10.78 9.22999C10.95 8.75999 10.6 8.29999 10.12 8.29999ZM8 11C6.53 11 5.97 9.83999 5.69 9.05999C5.64 8.92999 5.74 8.79999 5.88 8.79999H10.12C10.26 8.79999 10.35 8.92999 10.31 9.05999C10.03 9.82999 9.47 11 8 11Z" fill="#104E58"/>
<path d="M4.86999 6.62999L4.79999 6.72999L5.11999 7.09999L5.25999 7.01999C5.82999 6.69999 6.49999 6.59999 7.13999 6.73999L7.33999 6.29999C6.55999 5.71999 5.45999 5.86999 4.86999 6.63999V6.62999Z" fill="#104E58"/>
<path d="M11.39 6.73001L11.32 6.63001C10.73 5.86001 9.63001 5.71001 8.85001 6.29001L9.05001 6.73001C9.69001 6.60001 10.36 6.70001 10.93 7.01001L11.07 7.09001L11.39 6.72001V6.73001Z" fill="#104E58"/>
</svg>
