<svg width="24" height="24" viewBox="0 0 24 24" fill="none" xmlns="http://www.w3.org/2000/svg">
<path d="M12 23.5C18.3513 23.5 23.5 18.3513 23.5 12C23.5 5.64873 18.3513 0.5 12 0.5C5.64873 0.5 0.5 5.64873 0.5 12C0.5 18.3513 5.64873 23.5 12 23.5Z" fill="#44BFD3" stroke="white"/>
<path d="M12 20C16.4183 20 20 16.4183 20 12C20 7.58172 16.4183 4 12 4C7.58172 4 4 7.58172 4 12C4 16.4183 7.58172 20 12 20Z" fill="#D5F9FE" stroke="#104E58"/>
<path d="M10.98 9.87999C9.72001 9.14999 8.12001 9.45999 7.23001 10.61L7.61001 11.06L7.83001 10.94C8.75001 10.43 9.82001 10.27 10.85 10.49L11.06 9.93999L10.98 9.88999V9.87999Z" fill="#104E58"/>
<path d="M16.68 10.6C15.78 9.46 14.18 9.15 12.93 9.87L12.85 9.92L13.06 10.47C14.09 10.25 15.16 10.42 16.08 10.92L16.3 11.04L16.68 10.59V10.6Z" fill="#104E58"/>
<path d="M9.31999 7.43C8.73999 7.35 7.53999 7.61 6.92999 8.54" stroke="#104E58" stroke-linecap="round"/>
<path d="M14.5 7.43C15.08 7.35 16.28 7.61 16.89 8.54" stroke="#104E58" stroke-linecap="round"/>
<path d="M15.09 13H8.90999C8.21999 13 7.71999 13.75 8.01999 14.42C8.63999 15.81 9.74999 17.34 12 17.34C14.25 17.34 15.36 15.81 15.98 14.42C16.28 13.75 15.78 13 15.09 13Z" fill="#2199AC"/>
<path d="M12 15C10.48 15 8.99999 16 9.99999 16.5C10.6667 16.8333 11.3333 17 12 17C12.6667 17 13.3333 16.8333 14 16.5C15 16 13.52 15 12 15Z" fill="#D5F9FE"/>
<path d="M15.72 12.5H8.28C7.61 12.5 7.11 13.15 7.34 13.81C7.61 14.6 8.03 15.61 8.75 16.43C9.48 17.27 10.53 17.9 12.01 17.9C13.49 17.9 14.53 17.27 15.27 16.43C15.99 15.61 16.41 14.6 16.68 13.81C16.9 13.15 16.4 12.5 15.74 12.5H15.72ZM14.51 15.77C13.94 16.42 13.15 16.9 12 16.9C10.85 16.9 10.07 16.43 9.49 15.77C8.91 15.1 8.54 14.25 8.28 13.5H15.7C15.44 14.25 15.08 15.11 14.49 15.77H14.51Z" fill="#104E58"/>
</svg>
