<svg width="48" height="48" viewBox="0 0 48 48" fill="none" xmlns="http://www.w3.org/2000/svg">
<path d="M24 46C36.1503 46 46 36.1503 46 24C46 11.8497 36.1503 2 24 2C11.8497 2 2 11.8497 2 24C2 36.1503 11.8497 46 24 46Z" fill="#44BFD3"/>
<path d="M24 40C32.8366 40 40 32.8366 40 24C40 15.1634 32.8366 8 24 8C15.1634 8 8 15.1634 8 24C8 32.8366 15.1634 40 24 40Z" fill="#D5F9FE" stroke="#104E58" stroke-width="1.8"/>
<path d="M14.67 21.01L14.48 21.31L15.16 22.01L15.58 21.75C17.4 20.63 19.6 20.3 21.66 20.85L22.12 19.99C19.84 18 16.33 18.49 14.67 21.01Z" fill="#104E58"/>
<path d="M33.44 21.34C31.98 18.69 28.52 17.95 26.09 19.75L25.81 19.96L26.22 20.85C28.45 20.33 30.81 20.74 32.73 22L33.44 21.34Z" fill="#104E58"/>
<path d="M19.49 14.23C18.15 14.17 15.5 14.5 14 17" stroke="#104E58" stroke-width="1.8" stroke-linecap="round"/>
<path d="M29 14.72C30.34 14.66 32.99 14.99 34.49 17.49" stroke="#104E58" stroke-width="1.8" stroke-linecap="round"/>
<path d="M31.59 26H16.41C15.72 26 15.23 26.76 15.48 27.48C16.58 30.61 18.72 34.95 23.99 34.95C29.26 34.95 31.41 30.61 32.5 27.48C32.75 26.76 32.26 26 31.57 26H31.59Z" fill="#2199AC"/>
<path d="M24 30C20 30 17.38 31.74 19 33C19.91 33.71 22 34.49 24 34.5C26 34.5 28.26 33.74 29 33C30.26 31.74 28 30 24 30Z" fill="#D5F9FE"/>
<path d="M31.56 25.1H16.45C15.05 25.1 13.98 26.48 14.48 27.86C15.06 29.47 15.94 31.46 17.42 33.07C18.93 34.7 21.05 35.9 24.01 35.9C26.97 35.9 29.09 34.7 30.6 33.07C32.08 31.47 32.96 29.47 33.54 27.86C34.04 26.48 32.97 25.1 31.57 25.1H31.56ZM29.27 31.84C28.06 33.15 26.4 34.1 24.01 34.1C21.62 34.1 19.95 33.15 18.75 31.84C17.51 30.51 16.73 28.78 16.18 27.25C16.13 27.1 16.23 26.9 16.46 26.9H31.57C31.79 26.9 31.9 27.1 31.85 27.25C31.3 28.78 30.52 30.51 29.28 31.84H29.27Z" fill="#104E58"/>
</svg>
