<svg width="24" height="24" viewBox="0 0 24 24" fill="none" xmlns="http://www.w3.org/2000/svg">
<path d="M12 22C17.25 22 21.5 17.75 21.5 12.5C21.5 7.25 17.25 3 12 3C6.75 3 2.5 7.25 2.5 12.5C2.5 17.75 6.75 22 12 22Z" fill="#79DEEE" stroke="#104E58"/>
<path d="M17.84 11.14C17.07 9.40001 14.82 8.91001 13.39 10.19L13.25 10.31L13.67 10.98L13.96 10.86C15.07 10.4 16.36 10.68 17.17 11.58L17.83 11.15L17.84 11.14Z" fill="#104E58"/>
<path d="M16.55 14H7.45001C6.98001 14 6.66001 14.47 6.83001 14.91C7.51001 16.65 8.83001 19 12 19C15.17 19 16.49 16.65 17.17 14.91C17.34 14.47 17.02 14 16.55 14Z" fill="#13707E"/>
<path d="M12.01 16.3C9.89003 16.3 8.26003 17.17 9.35003 17.98C9.91003 18.4 10.91 18.71 12.01 18.7C12.83 18.69 13.91 18.49 14.67 17.98C15.73 17.26 14.14 16.3 12.01 16.3Z" fill="#AEF0FA"/>
<path d="M16.38 13.5H7.61997C6.73997 13.5 6.06997 14.38 6.41997 15.24C6.77997 16.13 7.31997 17.19 8.19997 18.03C9.08997 18.89 10.32 19.5 12 19.5C13.68 19.5 14.91 18.89 15.8 18.03C16.68 17.19 17.22 16.12 17.58 15.24C17.93 14.38 17.26 13.5 16.38 13.5ZM15.11 17.31C14.39 18 13.41 18.5 12 18.5C10.59 18.5 9.60997 18 8.88997 17.31C8.15997 16.61 7.67997 15.7 7.34997 14.86C7.28997 14.7 7.39997 14.5 7.61997 14.5H16.38C16.6 14.5 16.72 14.71 16.65 14.86C16.31 15.69 15.84 16.61 15.11 17.31Z" fill="#104E58"/>
<path d="M10.61 10.19C9.19004 8.92 6.94004 9.4 6.17004 11.14L6.83004 11.57C7.64004 10.68 8.93004 10.39 10.04 10.85L10.33 10.97L10.75 10.3L10.61 10.18V10.19Z" fill="#104E58"/>
<path d="M9 7C8.08 6.96 6.5 7.5 6 8.5" stroke="#104E58" stroke-linecap="round"/>
<path d="M15 7C15.92 6.96 17.5 7.5 18 8.5" stroke="#104E58" stroke-linecap="round"/>
</svg>
