<svg width="48" height="48" viewBox="0 0 48 48" fill="none" xmlns="http://www.w3.org/2000/svg">
<path d="M24 46C36.1503 46 46 36.1503 46 24C46 11.8497 36.1503 2 24 2C11.8497 2 2 11.8497 2 24C2 36.1503 11.8497 46 24 46Z" fill="#F5BB5C"/>
<path fill-rule="evenodd" clip-rule="evenodd" d="M26.58 41H21.58C20.6522 41 19.9 40.2478 19.9 39.32V35.12H28.3V39.32C28.3001 39.7726 28.1177 40.2061 27.7939 40.5223C27.4701 40.8385 27.0325 41.0108 26.58 41Z" fill="#FFE1B2"/>
<path fill-rule="evenodd" clip-rule="evenodd" d="M19.87 35.92V35.08C19.8731 34.0345 19.7111 32.995 19.39 32C18.9798 31.0864 18.4336 30.2401 17.77 29.49C15.4179 27.5785 14.0366 24.7207 14 21.69V21.64C14 18.0388 15.9212 14.7111 19.04 12.9105C22.1588 11.1098 26.0012 11.1098 29.12 12.9105C32.2388 14.7111 34.16 18.0388 34.16 21.64C34.079 24.7679 32.6137 27.6984 30.16 29.64L30.03 29.75C29.8173 29.9345 29.626 30.1425 29.46 30.37C29.1471 30.8208 28.9043 31.3164 28.74 31.84C28.4095 32.8807 28.2507 33.9683 28.27 35.06V35.9" fill="#FCF0DE"/>
<path d="M13.98 7.35999L16.1 10.13" stroke="#5D3B01" stroke-width="2" stroke-linecap="round" stroke-linejoin="round"/>
<path d="M34.98 7.35999L32.86 10.13" stroke="#5D3B01" stroke-width="2" stroke-linecap="round" stroke-linejoin="round"/>
<path d="M24.06 4V8.2" stroke="#5D3B01" stroke-width="2" stroke-linecap="round" stroke-linejoin="round"/>
<path d="M22.3 13.86C20.8309 14.1261 19.4854 14.8549 18.46 15.94C17.4003 16.9777 16.658 18.2958 16.32 19.74" stroke="white" stroke-width="3" stroke-linecap="round" stroke-linejoin="round"/>
<path fill-rule="evenodd" clip-rule="evenodd" d="M26.58 41H21.58C20.6522 41 19.9 40.2478 19.9 39.32V35.12H28.3V39.32C28.3001 39.7726 28.1177 40.2061 27.7939 40.5223C27.4701 40.8385 27.0325 41.0108 26.58 41Z" stroke="#5D3B01" stroke-width="2" stroke-linecap="round" stroke-linejoin="round"/>
<path d="M19.86 35.92V35.08C19.8631 34.0345 19.7011 32.995 19.38 32C19.1827 31.4651 18.9063 30.9629 18.56 30.51C18.2241 30.0309 17.8349 29.5914 17.4 29.2C16.9814 28.8289 16.5904 28.4278 16.23 28C15.5141 27.1007 14.9562 26.0862 14.58 25C14.1912 23.929 13.9883 22.7994 13.98 21.66V21.61C13.934 17.1591 16.8128 13.2049 21.0627 11.8816C25.3126 10.5583 29.9273 12.1791 32.4163 15.8693C34.9053 19.5595 34.6791 24.4454 31.86 27.89C31.3278 28.5539 30.7279 29.1605 30.07 29.7C29.8358 29.8924 29.6274 30.1142 29.45 30.36C29.141 30.8131 28.8985 31.3081 28.73 31.83C28.4044 32.8718 28.2457 33.9586 28.26 35.05V35.89" stroke="#5D3B01" stroke-width="2" stroke-linecap="round" stroke-linejoin="round"/>
</svg>
