<svg width="72" height="72" viewBox="0 0 72 72" fill="none" xmlns="http://www.w3.org/2000/svg">
<path d="M18 8.72998L21.64 13.45" stroke="#5D3B01" stroke-width="3" stroke-linecap="round" stroke-linejoin="round"/>
<path d="M54 8.72998L50.36 13.45" stroke="#5D3B01" stroke-width="3" stroke-linecap="round" stroke-linejoin="round"/>
<path d="M36 3V10.02" stroke="#5D3B01" stroke-width="3" stroke-linecap="round" stroke-linejoin="round"/>
<path d="M40.8 68H31.27C30.4302 68.0053 29.6228 67.6761 29.0262 67.0851C28.4295 66.4941 28.0927 65.6898 28.09 64.85V57H44V64.88C43.9895 65.7181 43.6464 66.5177 43.0463 67.1028C42.4461 67.6879 41.6381 68.0107 40.8 68Z" fill="#C07800"/>
<path d="M31.27 57L43.97 57.11C43.97 55.21 43.51 53.29 44.11 51.48C44.3999 50.5704 44.821 49.708 45.36 48.92C45.6522 48.521 45.9876 48.1554 46.36 47.83L46.57 47.65C50.838 44.2388 53.3756 39.1123 53.5 33.65C53.5 27.3978 50.1645 21.6206 44.75 18.4945C39.3355 15.3685 32.6645 15.3685 27.25 18.4945C21.8355 21.6206 18.5 27.3978 18.5 33.65V33.73C18.5619 39.0287 20.9632 44.029 25.06 47.39C24.82 47.21 27.2 49.66 27.87 51.77C28.43 53.49 29.13 54.83 29.13 56.63L29.68 57.01" fill="#F5BB5C"/>
<path fill-rule="evenodd" clip-rule="evenodd" d="M40.8 68H31.27C29.5351 67.8475 28.1782 66.4394 28.09 64.7V57H44V64.7C43.9107 66.4463 42.5428 67.857 40.8 68Z" stroke="#5D3B01" stroke-width="3" stroke-linecap="round" stroke-linejoin="round"/>
<path d="M43.92 57.13C44.02 52.6 44.56 51.51 44.56 51.51C45.0924 49.687 46.133 48.0533 47.56 46.8C48.2819 46.1296 48.9506 45.4041 49.56 44.63C50.7855 43.0959 51.7547 41.3737 52.43 39.53C53.0955 37.655 53.4338 35.6796 53.4301 33.69V33.61C53.4578 23.9429 45.6668 16.0715 36 16H36.1C31.4437 16.0132 26.9835 17.8763 23.7014 21.1791C20.4192 24.482 18.5841 28.9537 18.5999 33.61V33.69C18.596 35.6796 18.9343 37.6551 19.6 39.53C20.2753 41.3737 21.2445 43.0959 22.47 44.63C23.0794 45.4041 23.7481 46.1296 24.47 46.8C25.903 48.0481 26.9448 49.6837 27.47 51.51C27.47 51.51 28.03 52.63 28.12 57.29" stroke="#5D3B01" stroke-width="3" stroke-linecap="round" stroke-linejoin="round"/>
</svg>
