<svg width="24" height="24" viewBox="0 0 24 24" fill="none" xmlns="http://www.w3.org/2000/svg">
<path fill-rule="evenodd" clip-rule="evenodd" d="M13.5 22.5H10.5C9.94772 22.5 9.5 22.0523 9.5 21.5V19H14.5V21.5C14.5 22.0523 14.0523 22.5 13.5 22.5Z" fill="#C07800"/>
<path fill-rule="evenodd" clip-rule="evenodd" d="M9.51 19V18.5C9.50894 17.8819 9.41108 17.2678 9.22 16.68C8.96717 16.1308 8.62974 15.6246 8.22 15.18C6.81823 14.0428 6.00288 12.335 6 10.53C6 7.21629 8.68629 4.53 12 4.53C15.3137 4.53 18 7.21629 18 10.53C17.9573 12.3981 17.0849 14.1501 15.62 15.31L15.55 15.37C15.4175 15.4773 15.2998 15.6017 15.2 15.74C15.0223 16.0102 14.8811 16.3028 14.78 16.61C14.5831 17.2306 14.4885 17.879 14.5 18.53V19" fill="#F5BB5C"/>
<path d="M6 2.5L7.26 4.15" stroke="#5D3B01" stroke-linecap="round" stroke-linejoin="round"/>
<path d="M18.5 2.5L17.24 4.15" stroke="#5D3B01" stroke-linecap="round" stroke-linejoin="round"/>
<path d="M12 0.5V3" stroke="#5D3B01" stroke-linecap="round" stroke-linejoin="round"/>
<path fill-rule="evenodd" clip-rule="evenodd" d="M13.5 22.5H10.5C9.94772 22.5 9.5 22.0523 9.5 21.5V19H14.5V21.5C14.5 22.0523 14.0523 22.5 13.5 22.5Z" stroke="#5D3B01" stroke-linecap="round" stroke-linejoin="round"/>
<path d="M9.50002 19.5V19C9.49896 18.3819 9.40111 17.7678 9.21002 17.18C9.09626 16.8606 8.9344 16.5605 8.73002 16.29C8.5146 16.0022 8.26996 15.7374 8.00002 15.5C7.74903 15.2707 7.51508 15.0233 7.30002 14.76C6.87291 14.2392 6.53501 13.6512 6.30002 13.02C6.07816 12.3705 5.9765 11.686 6.00002 11C6.00002 7.68629 8.68632 5 12 5C15.3137 5 18 7.68629 18 11C17.9819 12.3627 17.5065 13.6799 16.65 14.74C16.3294 15.134 15.971 15.4957 15.58 15.82C15.4369 15.9297 15.312 16.0613 15.21 16.21C15.0234 16.4765 14.8784 16.7699 14.78 17.08C14.5871 17.7015 14.4927 18.3493 14.5 19V19.5" stroke="#5D3B01" stroke-linecap="round" stroke-linejoin="round"/>
</svg>
