<svg width="16" height="16" viewBox="0 0 16 16" fill="none" xmlns="http://www.w3.org/2000/svg">
<path d="M8 15C11.866 15 15 11.866 15 8C15 4.13401 11.866 1 8 1C4.13401 1 1 4.13401 1 8C1 11.866 4.13401 15 8 15Z" fill="#F5BB5C"/>
<path fill-rule="evenodd" clip-rule="evenodd" d="M8.81999 13.4H7.21999C6.92176 13.4 6.67999 13.1582 6.67999 12.86V11.53H9.35999V12.86C9.35999 13.1582 9.11823 13.4 8.81999 13.4Z" fill="#FFE1B2"/>
<path fill-rule="evenodd" clip-rule="evenodd" d="M6.69 11.79V11.53C6.68941 11.1903 6.63542 10.8529 6.53 10.53C6.38987 10.247 6.21153 9.9845 6 9.74999C5.25425 9.1371 4.81846 8.22523 4.81 7.25999C4.81 5.48715 6.24716 4.04999 8.02 4.04999C9.79283 4.04999 11.23 5.48715 11.23 7.25999C11.2127 8.24615 10.7629 9.17489 10 9.79999C10.07 9.74999 9.92 9.85999 9.82 9.99999C9.72157 10.145 9.64413 10.3033 9.59 10.47C9.48813 10.7935 9.43752 11.1309 9.44 11.47V11.73" fill="#FCF0DE"/>
<path d="M7.46 4.78C6.99359 4.85858 6.56538 5.08672 6.24 5.43C5.89883 5.76136 5.66239 6.18555 5.56 6.65" stroke="white" stroke-width="2" stroke-linecap="round" stroke-linejoin="round"/>
<path fill-rule="evenodd" clip-rule="evenodd" d="M8.81999 13.4H7.21999C6.92176 13.4 6.67999 13.1582 6.67999 12.86V11.53H9.35999V12.86C9.35999 13.1582 9.11823 13.4 8.81999 13.4Z" stroke="#5D3B01" stroke-linecap="round" stroke-linejoin="round"/>
<path d="M6.68 11.79V11.53C6.68264 11.1909 6.63203 10.8534 6.53 10.53C6.46486 10.3624 6.3774 10.2043 6.27 10.06C6.16311 9.9033 6.039 9.75907 5.9 9.63C5.76659 9.50994 5.64288 9.37953 5.53 9.24C5.06697 8.67606 4.81267 7.96966 4.81 7.24C4.81 5.46716 6.24716 4.03 8.02 4.03C9.79283 4.03 11.23 5.46716 11.23 7.24C11.2181 7.96972 10.961 8.67421 10.5 9.24C10.3305 9.44947 10.1395 9.64052 9.93 9.81C9.85834 9.87507 9.79149 9.94525 9.73 10.02C9.63459 10.1654 9.5605 10.3236 9.51 10.49C9.40813 10.8135 9.35752 11.1509 9.36 11.49V11.75" stroke="#5D3B01" stroke-linecap="round" stroke-linejoin="round"/>
<path d="M4.59927 2.63623L5.21072 3.42752" stroke="#5D3B01" stroke-linecap="round" stroke-linejoin="round"/>
<path d="M11.4155 2.63184L10.8097 3.42747" stroke="#5D3B01" stroke-linecap="round" stroke-linejoin="round"/>
<path d="M8 1.5V2.75955" stroke="#5D3B01" stroke-linecap="round" stroke-linejoin="round"/>
</svg>
