<svg width="48" height="48" viewBox="0 0 48 48" fill="none" xmlns="http://www.w3.org/2000/svg">
<path d="M27 44H21C19.8954 44 19 43.1046 19 42V37H29V42C29 43.1046 28.1046 44 27 44Z" fill="#C07800"/>
<path d="M21 37L29 37.07C28.8392 35.8828 28.8696 34.6775 29.09 33.5C29.2742 32.9235 29.5366 32.375 29.87 31.87C30.0559 31.6191 30.267 31.3879 30.5 31.18L30.64 31.06C33.333 28.8845 34.9285 25.6312 35 22.17C35 16.0949 30.0751 11.17 24 11.17C17.9249 11.17 13 16.0949 13 22.17V22.23C13.0385 25.583 14.5487 28.7497 17.13 30.89C17.8583 31.7246 18.4552 32.6654 18.9 33.68C19.336 34.6551 19.6064 35.696 19.7 36.76L20 37" fill="#F5BB5C"/>
<path d="M12 5.82001L14.42 8.97001" stroke="#5D3B01" stroke-width="1.91" stroke-linecap="round" stroke-linejoin="round"/>
<path d="M36 5.82001L33.58 8.97001" stroke="#5D3B01" stroke-width="1.91" stroke-linecap="round" stroke-linejoin="round"/>
<path d="M24 2V6.77" stroke="#5D3B01" stroke-width="1.91" stroke-linecap="round" stroke-linejoin="round"/>
<path fill-rule="evenodd" clip-rule="evenodd" d="M27 44H21C19.9031 43.8964 19.05 43.0007 19 41.9V37H29V41.9C28.95 43.0007 28.0969 43.8964 27 44Z" stroke="#5D3B01" stroke-width="2" stroke-linecap="round" stroke-linejoin="round"/>
<path d="M29 38C29 34.37 29.41 33.53 29.41 33.53C29.7413 32.3704 30.3971 31.3295 31.3 30.53C31.7598 30.1019 32.1877 29.6407 32.58 29.15C33.3516 28.173 33.9626 27.0793 34.39 25.91C34.8109 24.7214 35.0305 23.4709 35.0402 22.21V22.15C35.0559 19.207 33.9014 16.3784 31.8307 14.287C29.7601 12.1957 26.943 11.0132 24 11C17.879 11.0495 12.9556 16.049 13 22.17V22.23C13.0094 23.4909 13.2291 24.7414 13.65 25.93C14.0774 27.0993 14.6884 28.193 15.46 29.17C15.8523 29.6607 16.2801 30.1219 16.74 30.55C17.6429 31.3495 18.2986 32.3904 18.63 33.55C18.63 33.55 19.04 34.39 19.04 38.02" stroke="#5D3B01" stroke-width="2" stroke-linecap="round" stroke-linejoin="round"/>
</svg>
