<svg width="48" height="48" viewBox="0 0 48 48" fill="none" xmlns="http://www.w3.org/2000/svg">
<path d="M25.39 22H10.13C8.12999 22 6.92999 24.11 7.00999 25.92C7.13233 27.6408 8.58535 28.9617 10.31 28.92H10.88C10.1452 28.9356 9.44732 29.2447 8.94194 29.7783C8.43656 30.3118 8.16577 31.0255 8.18999 31.76C8.19076 33.2426 9.33185 34.4752 10.81 34.59C9.94185 35.2706 9.54829 36.3936 9.80167 37.4672C10.055 38.5408 10.9092 39.3694 11.99 39.59C11.6558 40.2 11.5528 40.9102 11.7 41.59C12.0542 42.9456 13.2996 43.8755 14.7 43.83H15.7H22.88C23.9495 43.8236 25.0141 43.6859 26.05 43.42L31.18 41.92C31.48 41.83 35.92 41.92 37.92 41.92C41.49 41.78 42.45 25.4 37.92 25.4C37.92 25.4 36.27 25.46 35.92 25.4C35.76 25.4 35.4 24.72 34.51 23.76L34.43 23.66C33.13 22.25 31.65 20.43 30.61 19.4C28.08 16.92 25.98 14.79 24.52 11.56C23.8 9.83 23.71 9 22 9C20.5732 9.20055 19.5383 10.4615 19.62 11.9C19.6913 12.8555 19.8115 13.8068 19.98 14.75C20.61 18.13 23.41 21.83 23.49 22" fill="#1485BD"/>
<path fill-rule="evenodd" clip-rule="evenodd" d="M23.49 23H10.13C8.13001 23 6.92001 24.19 7.00001 26C7.1175 27.7272 8.57962 29.0524 10.31 29H10.88C10.1462 29.0183 9.44982 29.3282 8.94501 29.8612C8.4402 30.3941 8.16851 31.1062 8.19001 31.84C8.19078 33.3226 9.33187 34.5551 10.81 34.67C10.81 34.67 10.81 34.67 10.81 34.72C9.94188 35.4006 9.54832 36.5236 9.80169 37.5972C10.0551 38.6708 10.9092 39.4994 11.99 39.72C11.6558 40.33 11.5528 41.0402 11.7 41.72C12.0542 43.0756 13.2996 44.0055 14.7 43.96H15.7H22.88C23.9495 43.9536 25.0141 43.8159 26.05 43.55L31.18 42.05C31.48 41.96 35.92 42.05 37.92 42.05C41.49 41.91 42.45 25.53 37.92 25.53C37.92 25.53 36.27 25.59 35.92 25.53C35.76 25.53 35.4 24.85 34.51 23.89L34.43 23.79C33.13 22.38 31.65 20.56 30.61 19.53C28.08 17.05 25.98 14.93 24.52 11.69C23.8 9.87 23.71 9 22 9C21.2995 9.06825 20.655 9.41233 20.2085 9.95636C19.762 10.5004 19.5503 11.1997 19.62 11.9C19.6914 12.8555 19.8115 13.8068 19.98 14.75C20.61 18.13 23.41 22.75 23.49 22.96V23Z" stroke="#004B7C" stroke-width="2" stroke-linecap="round" stroke-linejoin="round"/>
</svg>
