<svg width="24" height="24" viewBox="0 0 24 24" fill="none" xmlns="http://www.w3.org/2000/svg">
<path d="M12 0.5C18.3513 0.5 23.5 5.64873 23.5 12C23.5 18.3513 18.3513 23.5 12 23.5C5.64873 23.5 0.5 18.3513 0.5 12C0.5 5.64873 5.64873 0.5 12 0.5Z" fill="#1485BD" stroke="white"/>
<path fill-rule="evenodd" clip-rule="evenodd" d="M11.7116 9.54H5.88001C5.49784 9.53334 5.13051 9.6878 4.86795 9.96558C4.60539 10.2434 4.47184 10.6188 4.50001 11C4.54832 11.7822 5.21728 12.3799 6.00001 12.34H6.25001C5.91516 12.3287 5.59063 12.4568 5.35372 12.6937C5.11682 12.9306 4.98874 13.2551 5.00001 13.59C4.99791 14.2431 5.49898 14.7878 6.15001 14.84C5.75249 15.1372 5.56851 15.6415 5.68123 16.1249C5.79395 16.6083 6.18201 16.9792 6.67001 17.07C6.52024 17.3375 6.47397 17.6506 6.54001 17.95C6.69432 18.5537 7.24715 18.9694 7.87001 18.95H8.30001H11.47C11.9425 18.9505 12.413 18.89 12.87 18.77L15.13 18.11C15.26 18.11 17.22 18.11 18.13 18.11C19.71 18.05 20.13 10.82 18.13 10.82C18.13 10.82 17.41 10.82 17.27 10.82C17.13 10.82 17.04 10.52 16.65 10.1C16.07 9.48 15.42 8.68 14.96 8.22C13.8463 7.25558 12.9353 6.07947 12.28 4.76C11.91 3.96 11.87 3.59 11.1 3.59C10.4898 3.7005 10.0596 4.25119 10.1 4.87C10.1318 5.29245 10.1852 5.713 10.26 6.13C10.5951 7.3564 11.1179 8.52355 11.81 9.59" fill="#E6F7FF"/>
<path d="M11.7116 9.54001H5.88C5.49971 9.53937 5.13601 9.69569 4.87479 9.97206C4.61356 10.2484 4.47796 10.6204 4.5 11C4.51547 11.3804 4.68301 11.7386 4.96503 11.9943C5.24706 12.25 5.61994 12.3818 6 12.36H6.25C5.91684 12.3545 5.59571 12.4845 5.3601 12.7201C5.12448 12.9557 4.99454 13.2768 5 13.61C4.99791 14.2631 5.49898 14.8078 6.15 14.86C5.75024 15.1542 5.56439 15.6583 5.67758 16.1416C5.79077 16.6248 6.1812 16.994 6.67 17.08C6.52023 17.3475 6.47397 17.6607 6.54 17.96C6.69432 18.5638 7.24715 18.9794 7.87 18.96H8.3H11.47C11.9421 18.9553 12.412 18.8949 12.87 18.78L15.13 18.12C15.26 18.12 17.22 18.12 18.13 18.12C19.71 18.07 20.13 10.84 18.13 10.84C18.13 10.84 17.41 10.84 17.27 10.84C17.13 10.84 17.04 10.54 16.65 10.12C16.07 9.50001 15.42 8.69001 14.96 8.24001C13.8463 7.27559 12.9353 6.09948 12.28 4.78001C11.91 3.97001 11.87 3.58001 11.1 3.61001C10.4737 3.69316 10.0292 4.26221 10.1 4.89001C10.1169 5.29489 10.1536 5.69871 10.21 6.10001C10.5436 7.32067 11.0666 8.48144 11.76 9.54001" stroke="#004B7C" stroke-linecap="round" stroke-linejoin="round"/>
</svg>
