<svg width="16" height="16" viewBox="0 0 16 16" fill="none" xmlns="http://www.w3.org/2000/svg">
<path d="M8 15C11.866 15 15 11.866 15 8C15 4.13401 11.866 1 8 1C4.13401 1 1 4.13401 1 8C1 11.866 4.13401 15 8 15Z" fill="#1485BD"/>
<path fill-rule="evenodd" clip-rule="evenodd" d="M11.93 7.25H11.38C11.33 7.25 11.23 7.06 10.98 6.79C10.61 6.39 10.2 5.88 9.91001 5.6C9.19044 4.97551 8.60235 4.21405 8.18001 3.36C7.94001 2.85 7.92001 2.62 7.43001 2.62C7.02845 2.67185 6.73565 3.02583 6.76001 3.43C6.76001 3.57 6.83001 4.06 6.86001 4.23C7.0742 5.01185 7.41178 5.75452 7.86001 6.43H8.40001C8.15001 6.43 4.12001 6.43 4.12001 6.43C3.87489 6.42638 3.63961 6.52635 3.47207 6.70532C3.30452 6.88429 3.22026 7.12564 3.24001 7.37C3.27204 7.85682 3.68228 8.23177 4.17001 8.22H4.33001C4.12312 8.22523 3.92679 8.31248 3.78425 8.46252C3.64171 8.61257 3.56464 8.81311 3.57001 9.02C3.57361 9.43754 3.89402 9.78393 4.31001 9.81999C4.06042 10.011 3.94574 10.3304 4.01688 10.6365C4.08802 10.9426 4.33179 11.1787 4.64001 11.24C4.5442 11.4063 4.5122 11.6018 4.55001 11.79C4.65537 12.1701 5.00574 12.4297 5.40001 12.42H7.69001C7.99002 12.4192 8.28883 12.3822 8.58001 12.31L10 11.89C10.09 11.89 11.34 11.89 11.9 11.89C12.92 11.85 13.19 7.25 11.93 7.25Z" fill="#E6F7FF"/>
<path d="M7.43 6.42999C7.18 6.42999 4.11 6.42999 4.11 6.42999C3.85425 6.4276 3.61011 6.5366 3.44115 6.7286C3.27219 6.9206 3.19511 7.17662 3.23 7.42999C3.2671 7.91285 3.67587 8.28206 4.16 8.26999H4.32C4.11311 8.27523 3.91678 8.36247 3.77424 8.51252C3.6317 8.66256 3.55463 8.8631 3.56 9.06999C3.56761 9.48777 3.88461 9.83475 4.3 9.87999C4.10629 10.032 3.99222 10.2638 3.99 10.51C3.99103 10.8965 4.26186 11.2299 4.64 11.31C4.54349 11.4797 4.51153 11.6786 4.55 11.87C4.65913 12.2461 5.00856 12.501 5.4 12.49H7.69C7.99001 12.4892 8.28882 12.4522 8.58 12.38L10 11.91C10.09 11.91 11.34 11.91 11.9 11.91C12.9 11.91 13.17 7.26999 11.9 7.26999C11.7168 7.28008 11.5332 7.28008 11.35 7.26999C11.3 7.26999 11.2 7.07999 10.95 6.80999C10.58 6.40999 10.17 5.89999 9.88 5.61999C9.17017 4.98974 8.59236 4.22499 8.18 3.36999C8.10058 3.1813 7.99265 3.00593 7.86 2.84999C7.5135 2.5586 6.99741 2.59864 6.7 2.93999C6.59637 3.05207 6.5119 3.18046 6.45 3.31999C6.40955 3.41655 6.37938 3.51711 6.36 3.61999C6.33317 3.90193 6.35688 4.18639 6.43 4.45999C6.49424 4.74763 6.58461 5.0288 6.7 5.29999C6.88815 5.65329 7.10912 5.9881 7.36 6.29999C7.39086 6.319 7.41525 6.34689 7.43 6.37999" stroke="#004B7C" stroke-linecap="round" stroke-linejoin="round"/>
</svg>
