<svg width="96" height="96" viewBox="0 0 96 96" fill="none" xmlns="http://www.w3.org/2000/svg">
<path d="M48 92C72.3005 92 92 72.3005 92 48C92 23.6995 72.3005 4 48 4C23.6995 4 4 23.6995 4 48C4 72.3005 23.6995 92 48 92Z" fill="#1485BD"/>
<path fill-rule="evenodd" clip-rule="evenodd" d="M47.3821 38.16H23.52C21.9875 38.1208 20.5106 38.7348 19.4575 39.8489C18.4045 40.963 17.8746 42.4721 18 44C18.1924 47.0535 20.7612 49.4105 23.82 49.34H24.82C23.5256 49.3766 22.2987 49.9262 21.4097 50.8677C20.5207 51.8093 20.0423 53.0656 20.08 54.36C20.0916 56.972 22.097 59.1423 24.7 59.36C23.1401 60.5639 22.4288 62.5691 22.8813 64.4869C23.3338 66.4047 24.8665 67.8804 26.8 68.26C26.1709 69.4009 26.0061 70.7406 26.34 72C26.9768 74.4019 29.1757 76.0552 31.66 76H33.4H46.08C47.9699 75.9829 49.8505 75.7344 51.68 75.26L60.72 72.62C61.26 72.46 69.1 72.62 72.72 72.62C79.02 72.38 80.72 43.48 72.72 43.48C72.72 43.48 69.82 43.58 69.26 43.48C68.7 43.38 68.34 42.28 66.76 40.58L66.62 40.4C64.32 37.92 61.72 34.7 59.88 32.9C55.4 28.52 51.72 24.76 49.12 19.06C47.66 15.82 47.5 14.36 44.42 14.36C41.899 14.7103 40.0706 16.9392 40.22 19.48C40.3459 21.1699 40.5595 22.8522 40.86 24.52C41.96 30.52 46.86 38.06 47.06 38.36L47.3821 38.16Z" fill="#E6F7FF"/>
<path fill-rule="evenodd" clip-rule="evenodd" d="M23.52 38.16C21.9689 38.1541 20.4869 38.8011 19.4367 39.9426C18.3866 41.0841 17.8651 42.6148 18 44.16C18.2134 47.2025 20.7915 49.5334 23.84 49.44H24.84C23.5438 49.4713 22.3138 50.0193 21.4236 50.962C20.5335 51.9047 20.0569 53.1641 20.1 54.46C20.1116 57.072 22.117 59.2423 24.72 59.46C23.1601 60.6639 22.4488 62.6691 22.9013 64.5869C23.3538 66.5047 24.8865 67.9804 26.82 68.36C26.2099 69.4704 26.0386 70.7694 26.34 72C26.9768 74.4019 29.1757 76.0553 31.66 76H33.4H46C47.8891 75.9897 49.7698 75.7479 51.6 75.28L60.64 72.64C61.18 72.48 69.02 72.64 72.64 72.64C78.94 72.4 80.64 43.5 72.64 43.5C72.64 43.5 69.74 43.5 69.18 43.5C68.62 43.5 68.26 42.32 66.68 40.62L66.54 40.44C64.24 37.94 61.64 34.74 59.8 32.92C55.32 28.56 51.64 24.8 49.04 19.08C47.58 15.86 47.42 14.26 44.34 14.4C43.1055 14.5163 41.9683 15.1199 41.18 16.077C40.3917 17.0342 40.0174 18.2661 40.14 19.5C40.2647 21.1901 40.4783 22.8724 40.78 24.54C41.88 30.54 46.78 38.02 46.98 38.32L23.52 38.16Z" stroke="#004B7C" stroke-width="4" stroke-linecap="round" stroke-linejoin="round"/>
</svg>
