<svg width="24" height="24" viewBox="0 0 24 24" fill="none" xmlns="http://www.w3.org/2000/svg">
<path fill-rule="evenodd" clip-rule="evenodd" d="M12.69 9.5H5.05999C4.07881 9.62484 3.38218 10.518 3.49999 11.5C3.56361 12.3592 4.28862 13.0183 5.14999 13H5.43999C4.6896 13.0217 4.09423 13.6393 4.09999 14.39C4.10256 15.1313 4.67125 15.7478 5.40999 15.81C4.95389 16.1465 4.74155 16.7219 4.86978 17.274C4.99802 17.8261 5.44228 18.249 5.99999 18.35C5.83075 18.6542 5.77746 19.0095 5.84999 19.35C6.03439 20.0272 6.65845 20.49 7.35999 20.47H7.85999H11.44C11.9661 20.4663 12.4899 20.3992 13 20.27L15.56 19.52C15.72 19.52 17.94 19.52 18.94 19.52C20.72 19.45 21.2 11.26 18.94 11.26C18.94 11.26 18.11 11.26 17.94 11.26C17.77 11.26 17.67 10.92 17.23 10.44C16.58 9.73 15.84 8.82 15.32 8.31C14.074 7.21141 13.0549 5.87975 12.32 4.39C11.9 3.42 11.85 3 11 3C10.2773 3.08846 9.74766 3.72315 9.78999 4.45C9.78999 4.7 9.91999 5.57 9.96999 5.88C10.3205 7.18783 10.9179 8.41656 11.73 9.5" fill="#1485BD"/>
<path fill-rule="evenodd" clip-rule="evenodd" d="M5.06002 10C4.64465 9.95453 4.23051 10.0956 3.9293 10.3853C3.6281 10.6749 3.47087 11.0832 3.50002 11.5C3.55365 12.364 4.28479 13.0287 5.15002 13H5.44002C4.68173 13.0218 4.08322 13.6516 4.10002 14.41C4.10259 15.1513 4.67129 15.7678 5.41002 15.83C4.95392 16.1665 4.74158 16.7419 4.86982 17.294C4.99806 17.8461 5.44231 18.269 6.00002 18.37C5.83078 18.6742 5.77749 19.0295 5.85002 19.37C6.03141 20.0549 6.66192 20.5236 7.37002 20.5H7.87002H11.45C11.9732 20.4923 12.4936 20.4218 13 20.29L15.56 19.54C15.72 19.54 17.94 19.54 18.94 19.54C20.72 19.47 21.2 11.28 18.94 11.28C18.94 11.28 18.11 11.28 17.94 11.28C17.77 11.28 17.67 10.94 17.23 10.46C16.58 9.75 15.84 8.84 15.32 8.33C14.074 7.23141 13.0549 5.89975 12.32 4.41C11.9 3.44 11.85 3 11 3C10.6429 3.03021 10.313 3.20329 10.0853 3.48002C9.85747 3.75675 9.75102 4.11371 9.79002 4.47C9.79002 4.72 9.92002 5.59 9.97002 5.9C10.3579 7.34371 10.9505 8.72441 11.73 10H5.06002Z" stroke="#004B7C" stroke-linecap="round" stroke-linejoin="round"/>
</svg>
