<svg width="48" height="48" viewBox="0 0 48 48" fill="none" xmlns="http://www.w3.org/2000/svg">
<path d="M24 46C36.1503 46 46 36.1503 46 24C46 11.8497 36.1503 2 24 2C11.8497 2 2 11.8497 2 24C2 36.1503 11.8497 46 24 46Z" fill="#1485BD"/>
<path fill-rule="evenodd" clip-rule="evenodd" d="M23.691 19.08H11.76C10.9937 19.0604 10.2553 19.3674 9.72876 19.9244C9.20223 20.4815 8.93729 21.2361 9 22C9.09621 23.5267 10.3806 24.7052 11.91 24.67H12.41C11.7628 24.6883 11.1494 24.9631 10.7049 25.4339C10.2603 25.9046 10.0212 26.5328 10.04 27.18C10.0458 28.486 11.0485 29.5712 12.35 29.68C11.57 30.2819 11.2144 31.2845 11.4407 32.2434C11.6669 33.2023 12.4332 33.9402 13.4 34.13C13.0854 34.7005 13.003 35.3703 13.17 36C13.4884 37.201 14.5878 38.0276 15.83 38H16.7H23.04C23.9849 37.9915 24.9253 37.8672 25.84 37.63L30.36 36.31C30.63 36.23 34.55 36.31 36.36 36.31C39.51 36.19 40.36 21.74 36.36 21.74C36.36 21.74 34.91 21.79 34.63 21.74C34.35 21.69 34.17 21.14 33.38 20.29L33.31 20.2C32.16 18.96 30.86 17.35 29.94 16.45C27.7 14.26 25.86 12.38 24.56 9.52999C23.83 7.90999 23.75 7.17999 22.21 7.17999C20.9495 7.35513 20.0353 8.4696 20.11 9.73999C20.173 10.585 20.2798 11.4261 20.43 12.26C20.98 15.26 23.43 19.03 23.53 19.18L23.691 19.08Z" fill="#E6F7FF"/>
<path fill-rule="evenodd" clip-rule="evenodd" d="M11.76 19.08C10.9845 19.0771 10.2435 19.4006 9.71837 19.9713C9.19328 20.5421 8.93255 21.3074 9 22.08C9.10668 23.6012 10.3957 24.7667 11.92 24.72H12.42C11.7719 24.7356 11.1569 25.0096 10.7118 25.481C10.2667 25.9524 10.0285 26.5821 10.05 27.23C10.0558 28.536 11.0585 29.6212 12.36 29.73C11.5801 30.332 11.2244 31.3345 11.4507 32.2934C11.6769 33.2523 12.4432 33.9902 13.41 34.18C13.105 34.7352 13.0193 35.3847 13.17 36C13.4884 37.201 14.5879 38.0276 15.83 38H16.7H23C23.9445 37.9948 24.8849 37.8739 25.8 37.64L30.32 36.32C30.59 36.24 34.51 36.32 36.32 36.32C39.47 36.2 40.32 21.75 36.32 21.75C36.32 21.75 34.87 21.75 34.59 21.75C34.31 21.75 34.13 21.16 33.34 20.31L33.27 20.22C32.12 18.97 30.82 17.37 29.9 16.46C27.66 14.28 25.82 12.4 24.52 9.54C23.79 7.93 23.71 7.13 22.17 7.2C21.5527 7.25816 20.9841 7.55994 20.59 8.03852C20.1959 8.51711 20.0087 9.13305 20.07 9.75C20.1323 10.595 20.2392 11.4362 20.39 12.27C20.94 15.27 23.39 19.01 23.49 19.16L11.76 19.08Z" stroke="#004B7C" stroke-width="2" stroke-linecap="round" stroke-linejoin="round"/>
</svg>
