<svg width="72" height="72" viewBox="0 0 72 72" fill="none" xmlns="http://www.w3.org/2000/svg">
<path d="M34.4059 34H13.88C12.5486 33.9427 11.256 34.4557 10.3262 35.4103C9.39638 36.3649 8.91763 37.6706 9.00998 39C9.19159 41.6827 11.4624 43.7414 14.15 43.66H15.05C13.9112 43.6836 12.8288 44.1601 12.0424 44.984C11.256 45.808 10.8305 46.9114 10.86 48.05C10.8796 50.3431 12.6533 52.2385 14.94 52.41C13.8206 53.2587 13.18 54.5958 13.22 56C13.2357 58.1014 14.7353 59.8984 16.8 60.29C16.2722 61.2176 16.1083 62.3083 16.34 63.35C16.9305 65.4415 18.8677 66.8634 21.04 66.8L22.58 66.86L33.77 66.8C35.4365 66.7874 37.0953 66.5725 38.71 66.16L46.71 63.85C47.18 63.71 54.11 63.92 57.22 63.85C62.78 63.64 64.28 38.4 57.29 38.4C57.29 38.4 54.72 38.48 54.23 38.4C53.98 38.4 53.42 37.4 52.03 35.88C51.9932 35.8243 51.9531 35.7709 51.91 35.72C49.91 33.55 47.57 30.72 45.91 29.17C41.96 25.34 38.7 22.06 36.41 17.08C35.18 14.28 35 13 32.31 13C30.1007 13.2989 28.4909 15.2438 28.61 17.47C28.7214 18.9458 28.9117 20.4145 29.18 21.87C30.18 27.08 34.51 32.77 34.64 33.03L34.4059 34Z" fill="#1485BD"/>
<path fill-rule="evenodd" clip-rule="evenodd" d="M34.4012 34.57H13.88C10.83 34.57 8.88003 36.41 9.01003 39.2C9.22212 41.8589 11.484 43.8831 14.15 43.8H15.05C13.9113 43.8236 12.8289 44.3001 12.0425 45.124C11.2561 45.948 10.8305 47.0514 10.86 48.19C10.8796 50.4831 12.6533 52.3785 14.94 52.55C13.8447 53.3715 13.2 54.6608 13.2 56.03C13.2158 58.1314 14.7153 59.9284 16.78 60.32C16.2523 61.2476 16.0883 62.3383 16.32 63.38C16.9106 65.4715 18.8477 66.8934 21.02 66.83L22.56 66.89L33.75 66.83C35.4165 66.8174 37.0753 66.6025 38.69 66.19L46.69 63.88C47.16 63.74 54.09 63.95 57.2 63.83C62.76 63.62 64.26 38.38 57.27 38.38C57.27 38.38 54.7 38.47 54.21 38.38C53.96 38.38 53.4 37.38 52.01 35.87C51.9755 35.8128 51.9353 35.7592 51.89 35.71C49.89 33.53 47.55 30.71 45.89 29.15C41.94 25.33 38.68 22.05 36.39 17.06C35.18 14.34 35 13 32.31 13.06C30.0559 13.2763 28.4013 15.2751 28.61 17.53C28.7209 19.0058 28.9111 20.4746 29.18 21.93C30.18 27.14 34.51 34.31 34.64 34.57H34.4012Z" stroke="#004B7C" stroke-width="3" stroke-linecap="round" stroke-linejoin="round"/>
</svg>
