<svg width="72" height="72" viewBox="0 0 72 72" fill="none" xmlns="http://www.w3.org/2000/svg">
<path d="M36 62C50.3594 62 62 50.3594 62 36C62 21.6406 50.3594 10 36 10C21.6406 10 10 21.6406 10 36C10 50.3594 21.6406 62 36 62Z" fill="#DEB8DC"/>
<path d="M33.22 10.16C34.1795 10.0513 35.1444 9.99789 36.11 9.99994C48.4131 9.97397 59.0503 18.5749 61.6004 30.6109C64.1505 42.6469 57.9153 54.8226 46.6587 59.7882C35.4022 64.7538 22.2061 61.1498 15.0363 51.1517C7.8665 41.1537 8.68597 27.4988 17 18.43" stroke="#523951" stroke-width="3" stroke-linecap="round" stroke-linejoin="round"/>
<path d="M22.6 50.49L39.83 47.61C40.5854 47.4749 41.3631 47.6534 41.984 48.1044C42.6048 48.5554 43.015 49.2399 43.12 50C43.294 51.5288 42.2832 52.9414 40.78 53.27L33.57 54.49C34.1932 54.39 34.8304 54.546 35.3369 54.9226C35.8434 55.2992 36.1763 55.8644 36.26 56.49C36.4581 57.7509 35.6591 58.9538 34.42 59.26C35.0903 59.6116 35.5595 60.2544 35.69 61C35.8673 62.1652 35.21 63.2967 34.11 63.72C34.4779 64.1853 34.666 64.7674 34.64 65.36C34.5053 66.5589 33.575 67.5139 32.38 67.68L31.54 67.85C29.3809 68.3291 27.1978 68.693 25 68.94C22.87 69.19 19.55 68.58 17.47 68.36C15.56 68.16 14.47 66.5 13.81 65.14C12.18 61.73 11.28 55.29 13.29 53.44C15.47 51.44 14.96 52.03 15.91 49.84C16.86 47.65 17.91 45.1 18.64 42.93C19.33 40.93 19.71 39.79 21.14 39.28C22.5574 38.8476 24.0716 39.5615 24.64 40.93C24.99 41.8 24.7 43.27 24.44 45.49C24.08 48.49 24.05 49.18 24.38 50.2" fill="#DEB8DC"/>
<path fill-rule="evenodd" clip-rule="evenodd" d="M39.83 47.61C40.5854 47.4749 41.3631 47.6534 41.984 48.1044C42.6048 48.5554 43.015 49.2399 43.12 50C43.294 51.5288 42.2832 52.9414 40.78 53.27L33.57 54.49C34.1932 54.39 34.8304 54.546 35.3369 54.9226C35.8434 55.2992 36.1763 55.8644 36.26 56.49C36.4581 57.7509 35.6591 58.9538 34.42 59.26C35.0903 59.6116 35.5595 60.2544 35.69 61C35.8673 62.1652 35.21 63.2967 34.11 63.72C34.4779 64.1853 34.666 64.7674 34.64 65.36C34.5053 66.5589 33.575 67.5139 32.38 67.68L31.54 67.85C29.3809 68.3291 27.1978 68.693 25 68.94C22.87 69.19 19.55 68.58 17.47 68.36C15.56 68.16 14.47 66.5 13.81 65.14C12.18 61.73 11.28 55.29 13.29 53.44C15.47 51.44 14.96 52.03 15.91 49.84C16.86 47.65 17.91 45.1 18.64 42.93C19.33 40.93 19.71 39.79 21.14 39.28C22.5574 38.8476 24.0716 39.5615 24.64 40.93C24.99 41.8 24.7 43.27 24.44 45.49C24.08 48.49 24.05 49.18 24.38 50.2L39.83 47.61Z" stroke="#523951" stroke-width="3" stroke-linecap="round" stroke-linejoin="round"/>
<path d="M18.55 12.88C19.6448 11.7613 21.1174 11.091 22.68 11C24.2232 10.7732 25.7955 11.1297 27.09 12" stroke="#523951" stroke-width="3" stroke-linecap="round" stroke-linejoin="round"/>
<path d="M31.11 36.5H35.62" stroke="#523951" stroke-width="3" stroke-linecap="round" stroke-linejoin="round"/>
<path d="M24.11 29C25.7668 29 27.11 27.6569 27.11 26C27.11 24.3431 25.7668 23 24.11 23C22.4531 23 21.11 24.3431 21.11 26C21.11 27.6569 22.4531 29 24.11 29Z" fill="#523951"/>
<path d="M43.11 31C44.7668 31 46.11 29.6569 46.11 28C46.11 26.3431 44.7668 25 43.11 25C41.4531 25 40.11 26.3431 40.11 28C40.11 29.6569 41.4531 31 43.11 31Z" fill="#523951"/>
<path d="M41.05 19.31C42.5079 18.7493 44.2624 18.6096 45.7204 19.1703C47.2265 19.5702 48.3881 20.6587 49.23 21.97" stroke="#523951" stroke-width="3" stroke-linecap="round" stroke-linejoin="round"/>
</svg>
