<svg width="24" height="24" viewBox="0 0 24 24" fill="none" xmlns="http://www.w3.org/2000/svg">
<path d="M12 0.5C18.3513 0.5 23.5 5.64873 23.5 12C23.5 18.3513 18.3513 23.5 12 23.5C5.64873 23.5 0.5 18.3513 0.5 12C0.5 5.64873 5.64873 0.5 12 0.5Z" fill="#DEB8DC" stroke="white"/>
<mask id="mask0_516_4057" style="mask-type:alpha" maskUnits="userSpaceOnUse" x="1" y="1" width="22" height="22">
<path d="M12 23C18.0751 23 23 18.0751 23 12C23 5.92487 18.0751 1 12 1C5.92487 1 1 5.92487 1 12C1 18.0751 5.92487 23 12 23Z" fill="white"/>
</mask>
<g mask="url(#mask0_516_4057)">
<path d="M12.06 19.88C16.4451 19.88 20 16.3251 20 11.94C20 7.55486 16.4451 4 12.06 4C7.67485 4 4.12 7.55486 4.12 11.94C4.12 16.3251 7.67485 19.88 12.06 19.88Z" fill="#F9F0F8"/>
<path d="M10.36 12.87H11.68" stroke="#523951" stroke-linecap="round" stroke-linejoin="round"/>
<path d="M8.64999 10.33C9.20228 10.33 9.64999 9.88229 9.64999 9.33C9.64999 8.77772 9.20228 8.33 8.64999 8.33C8.09771 8.33 7.64999 8.77772 7.64999 9.33C7.64999 9.88229 8.09771 10.33 8.64999 10.33Z" fill="#523951"/>
<path d="M14.7 10.79C15.2523 10.79 15.7 10.3423 15.7 9.79C15.7 9.23772 15.2523 8.79 14.7 8.79C14.1477 8.79 13.7 9.23772 13.7 9.79C13.7 10.3423 14.1477 10.79 14.7 10.79Z" fill="#523951"/>
<path d="M14.1 7.37C14.5502 7.19478 15.0498 7.19478 15.5 7.37C15.9629 7.49872 16.3641 7.7898 16.63 8.19" stroke="#523951" stroke-linecap="round" stroke-linejoin="round"/>
<path d="M6.77 4.93C7.11398 4.59187 7.56856 4.38944 8.05 4.36C8.52585 4.29678 9.00856 4.40681 9.41 4.67" stroke="#523951" stroke-linecap="round" stroke-linejoin="round"/>
<path d="M11.17 4.1C11.4656 4.06812 11.7627 4.05143 12.06 4.04996C15.848 4.03853 19.1248 6.68535 19.9103 10.391C20.6958 14.0967 18.7747 17.8454 15.3078 19.3717C11.8409 20.8981 7.77873 19.7838 5.57594 16.7021C3.37314 13.6204 3.63363 9.4162 6.2 6.63" stroke="#523951" stroke-linecap="round" stroke-linejoin="round"/>
<path fill-rule="evenodd" clip-rule="evenodd" d="M7.84 16.2L13.16 15.31C13.3896 15.2727 13.6246 15.3289 13.8125 15.466C14.0004 15.6032 14.1256 15.8099 14.16 16.04C14.2116 16.5086 13.9008 16.9404 13.44 17.04L11.22 17.41C11.4113 17.3816 11.6059 17.4312 11.7602 17.5479C11.9144 17.6645 12.0153 17.8382 12.04 18.03C12.1036 18.416 11.8598 18.7861 11.48 18.88C11.6862 18.9904 11.83 19.1896 11.87 19.42C11.9265 19.7808 11.7219 20.1316 11.38 20.26C11.495 20.4041 11.5521 20.586 11.54 20.77C11.5017 21.1377 11.2164 21.4312 10.85 21.48L10.59 21.54C9.85 21.69 9.34 21.78 8.59 21.87C7.81282 21.8801 7.03633 21.8198 6.27 21.69C5.74279 21.5804 5.31294 21.2 5.14 20.69C4.64 19.64 4.36 17.69 4.98 17.09C5.6 16.49 5.5 16.65 5.79 15.97C6.08 15.29 6.4 14.51 6.63 13.84C6.86 13.17 6.96 12.84 7.41 12.72C7.84522 12.5832 8.31223 12.8057 8.48 13.23C8.55061 13.6962 8.53024 14.1716 8.42 14.63C8.29977 15.1092 8.29977 15.6108 8.42 16.09" fill="#F9F0F8"/>
<path fill-rule="evenodd" clip-rule="evenodd" d="M13.16 15.31C13.3896 15.2727 13.6246 15.3289 13.8125 15.466C14.0004 15.6032 14.1256 15.8099 14.16 16.04C14.2116 16.5086 13.9008 16.9404 13.44 17.04L11.22 17.41C11.4113 17.3816 11.6059 17.4312 11.7602 17.5479C11.9144 17.6645 12.0153 17.8382 12.04 18.03C12.1036 18.416 11.8598 18.7861 11.48 18.88C11.6862 18.9904 11.83 19.1896 11.87 19.42C11.9265 19.7808 11.7219 20.1316 11.38 20.26C11.495 20.4041 11.5521 20.586 11.54 20.77C11.5017 21.1377 11.2164 21.4312 10.85 21.48L10.59 21.54C9.85 21.69 9.34 21.78 8.59 21.87C7.81282 21.8801 7.03633 21.8198 6.27 21.69C5.74279 21.5804 5.31294 21.2 5.14 20.69C4.64 19.64 4.36 17.69 4.98 17.09C5.6 16.49 5.5 16.65 5.79 15.97C6.08 15.29 6.4 14.51 6.63 13.84C6.86 13.17 6.96 12.84 7.41 12.72C7.84522 12.5832 8.31223 12.8057 8.48 13.23C8.55061 13.6962 8.53024 14.1716 8.42 14.63C8.29977 15.1092 8.29977 15.6108 8.42 16.09L13.16 15.31Z" stroke="#523951" stroke-linecap="round" stroke-linejoin="round"/>
</g>
</svg>
