<svg width="16" height="16" viewBox="0 0 16 16" fill="none" xmlns="http://www.w3.org/2000/svg">
<path d="M15 8C15 4.13401 11.866 1 8 1C4.13401 1 1 4.13401 1 8C1 11.866 4.13401 15 8 15C11.866 15 15 11.866 15 8Z" fill="#DEB8DC"/>
<path d="M13 8C13 5.23858 10.7614 3 8 3C5.23858 3 3 5.23858 3 8C3 10.7614 5.23858 13 8 13C10.7614 13 13 10.7614 13 8Z" fill="#F9F0F8" stroke="#523951"/>
<mask id="mask0_516_4044" style="mask-type:alpha" maskUnits="userSpaceOnUse" x="2" y="2" width="12" height="12">
<path d="M8 13.5C4.968 13.5 2.5 11.033 2.5 8C2.5 4.967 4.968 2.5 8 2.5C11.032 2.5 13.5 4.967 13.5 8C13.5 11.033 11.032 13.5 8 13.5Z" fill="white"/>
</mask>
<g mask="url(#mask0_516_4044)">
<path fill-rule="evenodd" clip-rule="evenodd" d="M6.40171 6.35C6.04271 6.35 5.75171 6.641 5.75171 7C5.75171 7.359 6.04271 7.65 6.40171 7.65C6.76071 7.65 7.05171 7.359 7.05171 7C7.05171 6.641 6.76071 6.35 6.40171 6.35Z" fill="#523951" stroke="#523951" stroke-width="0.1"/>
<path fill-rule="evenodd" clip-rule="evenodd" d="M9.63428 6.96648C9.27528 6.96648 8.98428 7.25748 8.98428 7.61648C8.98428 7.97548 9.27528 8.26648 9.63428 8.26648C9.99328 8.26648 10.2843 7.97548 10.2843 7.61648C10.2843 7.25748 9.99328 6.96648 9.63428 6.96648Z" fill="#523951" stroke="#523951" stroke-width="0.1"/>
<path d="M5.75171 5.00653C5.92624 4.84298 6.15951 4.7456 6.40647 4.73319C6.65155 4.69915 6.90139 4.75229 7.10647 4.88208" stroke="#523951" stroke-width="0.9" stroke-linecap="round" stroke-linejoin="round"/>
<path d="M9.2403 5.81405C9.47019 5.73156 9.72469 5.73156 9.95458 5.81405C10.1925 5.86932 10.4003 6.00464 10.5379 6.19405" stroke="#523951" stroke-width="0.9" stroke-linecap="round" stroke-linejoin="round"/>
<path fill-rule="evenodd" clip-rule="evenodd" d="M8.10974 9.97022C8.25542 9.94324 8.40539 9.97872 8.52558 10.0686C8.64577 10.1585 8.72596 10.2951 8.74795 10.4475C8.7816 10.7554 8.5861 11.0398 8.2954 11.106L6.90003 11.3507C7.02026 11.3308 7.1431 11.3623 7.24081 11.4379C7.33852 11.5134 7.40286 11.6268 7.41931 11.7524C7.45813 12.0054 7.30424 12.247 7.06539 12.3082C7.19478 12.3789 7.28495 12.5086 7.30907 12.6586C7.3437 12.8936 7.21711 13.122 7.00447 13.2084C7.07696 13.3042 7.11125 13.4253 7.1002 13.5467C7.07549 13.7877 6.89575 13.9799 6.66506 14.0119L6.5026 14.0482C6.08289 14.1432 5.6588 14.2157 5.23198 14.2657C4.74604 14.2728 4.2605 14.2333 3.7815 14.1479C3.45322 14.0755 3.18556 13.8289 3.07656 13.4984C2.76036 12.8127 2.5863 11.5168 2.97503 11.1423C3.36376 10.7677 3.29704 10.8613 3.4827 10.4173C3.66836 9.97324 3.86273 9.46274 4.01068 9.02776C4.15862 8.59278 4.21664 8.39643 4.49224 8.29071C4.76752 8.20581 5.06005 8.3503 5.17106 8.626C5.21258 8.92804 5.1988 9.23552 5.13045 9.53222C5.06082 10.1364 5.05792 10.2753 5.13045 10.4807C6.02848 10.3268 7.02158 10.1567 8.10974 9.97022Z" stroke="#523951" stroke-width="1.152" stroke-linecap="round" stroke-linejoin="round"/>
<path d="M4.77943 10.5502L8.10974 9.97022C8.25542 9.94324 8.40539 9.97872 8.52558 10.0686C8.64577 10.1585 8.72596 10.2951 8.74795 10.4475C8.7816 10.7554 8.5861 11.0398 8.2954 11.106L6.90003 11.3507C7.02026 11.3308 7.1431 11.3623 7.24081 11.4379C7.33852 11.5134 7.40286 11.6268 7.41931 11.7524C7.45813 12.0054 7.30424 12.247 7.06539 12.3082C7.19478 12.3789 7.28495 12.5086 7.30907 12.6586C7.3437 12.8936 7.21711 13.122 7.00447 13.2084C7.07696 13.3042 7.11125 13.4253 7.1002 13.5467C7.07549 13.7877 6.89575 13.9799 6.66506 14.0119L6.5026 14.0482C6.08289 14.1432 5.6588 14.2157 5.23198 14.2657C4.74604 14.2728 4.2605 14.2333 3.7815 14.1479C3.45322 14.0755 3.18556 13.8289 3.07656 13.4984C2.76036 12.8127 2.5863 11.5168 2.97503 11.1423C3.36376 10.7677 3.29704 10.8613 3.4827 10.4173C3.66836 9.97324 3.86273 9.46274 4.01068 9.02776C4.15862 8.59278 4.21664 8.39643 4.49224 8.29071C4.76752 8.20581 5.06005 8.3503 5.17106 8.626C5.21258 8.92804 5.1988 9.23552 5.13045 9.53222C5.06082 10.1364 5.05792 10.2753 5.13045 10.4807" fill="#F9F0F8"/>
<path fill-rule="evenodd" clip-rule="evenodd" d="M8.10974 9.97022C8.25542 9.94324 8.40539 9.97872 8.52558 10.0686C8.64577 10.1585 8.72596 10.2951 8.74795 10.4475C8.7816 10.7554 8.5861 11.0398 8.2954 11.106L6.90003 11.3507C7.02026 11.3308 7.1431 11.3623 7.24081 11.4379C7.33852 11.5134 7.40286 11.6268 7.41931 11.7524C7.45813 12.0054 7.30424 12.247 7.06539 12.3082C7.19478 12.3789 7.28495 12.5086 7.30907 12.6586C7.3437 12.8936 7.21711 13.122 7.00447 13.2084C7.07696 13.3042 7.11125 13.4253 7.1002 13.5467C7.07549 13.7877 6.89575 13.9799 6.66506 14.0119L6.5026 14.0482C6.08289 14.1432 5.6588 14.2157 5.23198 14.2657C4.74604 14.2728 4.2605 14.2333 3.7815 14.1479C3.45322 14.0755 3.18556 13.8289 3.07656 13.4984C2.76036 12.8127 2.5863 11.5168 2.97503 11.1423C3.36376 10.7677 3.29704 10.8613 3.4827 10.4173C3.66836 9.97324 3.86273 9.46274 4.01068 9.02776C4.15862 8.59278 4.21664 8.39643 4.49224 8.29071C4.76752 8.20581 5.06005 8.3503 5.17106 8.626C5.21258 8.92804 5.1988 9.23552 5.13045 9.53222C5.06082 10.1364 5.05792 10.2753 5.13045 10.4807C6.02848 10.3268 7.02158 10.1567 8.10974 9.97022Z" stroke="#523951" stroke-width="0.5" stroke-linecap="round" stroke-linejoin="round"/>
</g>
</svg>
