<svg width="16" height="16" viewBox="0 0 16 16" fill="none" xmlns="http://www.w3.org/2000/svg">
<path d="M8 0.5C12.1421 0.5 15.5 3.85786 15.5 8C15.5 12.1421 12.1421 15.5 8 15.5C3.85786 15.5 0.5 12.1421 0.5 8C0.5 3.85786 3.85786 0.5 8 0.5Z" fill="#DEB8DC" stroke="white"/>
<path d="M13 8C13 5.23858 10.7614 3 8 3C5.23858 3 3 5.23858 3 8C3 10.7614 5.23858 13 8 13C10.7614 13 13 10.7614 13 8Z" fill="#F9F0F8" stroke="#523951"/>
<mask id="mask0_516_4053" style="mask-type:alpha" maskUnits="userSpaceOnUse" x="2" y="2" width="12" height="12">
<path d="M8 13.5C4.968 13.5 2.5 11.033 2.5 8C2.5 4.967 4.968 2.5 8 2.5C11.032 2.5 13.5 4.967 13.5 8C13.5 11.033 11.032 13.5 8 13.5Z" fill="white"/>
</mask>
<g mask="url(#mask0_516_4053)">
<path fill-rule="evenodd" clip-rule="evenodd" d="M6.40172 6.35C6.04272 6.35 5.75172 6.641 5.75172 7C5.75172 7.359 6.04272 7.65 6.40172 7.65C6.76072 7.65 7.05172 7.359 7.05172 7C7.05172 6.641 6.76072 6.35 6.40172 6.35Z" fill="#523951" stroke="#523951" stroke-width="0.1"/>
<path fill-rule="evenodd" clip-rule="evenodd" d="M9.63428 6.96648C9.27528 6.96648 8.98428 7.25748 8.98428 7.61648C8.98428 7.97548 9.27528 8.26648 9.63428 8.26648C9.99328 8.26648 10.2843 7.97548 10.2843 7.61648C10.2843 7.25748 9.99328 6.96648 9.63428 6.96648Z" fill="#523951" stroke="#523951" stroke-width="0.1"/>
<path d="M5.75172 5.00653C5.92625 4.84298 6.15953 4.7456 6.40649 4.73319C6.65157 4.69915 6.90141 4.75229 7.10649 4.88208" stroke="#523951" stroke-width="0.9" stroke-linecap="round" stroke-linejoin="round"/>
<path d="M9.2403 5.81405C9.47019 5.73156 9.72469 5.73156 9.95458 5.81405C10.1925 5.86932 10.4003 6.00464 10.5379 6.19405" stroke="#523951" stroke-width="0.9" stroke-linecap="round" stroke-linejoin="round"/>
<path fill-rule="evenodd" clip-rule="evenodd" d="M8.10975 9.97022C8.25544 9.94324 8.40541 9.97872 8.5256 10.0686C8.64578 10.1585 8.72598 10.2951 8.74796 10.4475C8.78161 10.7554 8.58612 11.0398 8.29541 11.106L6.90005 11.3507C7.02028 11.3308 7.14311 11.3623 7.24082 11.4379C7.33853 11.5134 7.40288 11.6268 7.41932 11.7524C7.45814 12.0054 7.30425 12.247 7.0654 12.3082C7.1948 12.3789 7.28497 12.5086 7.30909 12.6586C7.34371 12.8936 7.21713 13.122 7.00448 13.2084C7.07698 13.3042 7.11126 13.4253 7.10022 13.5467C7.07551 13.7877 6.89577 13.9799 6.66507 14.0119L6.50262 14.0482C6.08291 14.1432 5.65882 14.2157 5.232 14.2657C4.74606 14.2728 4.26052 14.2333 3.78151 14.1479C3.45323 14.0755 3.18557 13.8289 3.07658 13.4984C2.76038 12.8127 2.58632 11.5168 2.97505 11.1423C3.36378 10.7677 3.29705 10.8613 3.48272 10.4173C3.66838 9.97324 3.86274 9.46274 4.01069 9.02776C4.15864 8.59278 4.21666 8.39643 4.49225 8.29071C4.76754 8.20581 5.06006 8.3503 5.17108 8.626C5.2126 8.92804 5.19882 9.23552 5.13046 9.53222C5.06084 10.1364 5.05794 10.2753 5.13046 10.4807C6.0285 10.3268 7.0216 10.1567 8.10975 9.97022Z" stroke="#523951" stroke-width="1.152" stroke-linecap="round" stroke-linejoin="round"/>
<path d="M4.77945 10.5502L8.10975 9.97022C8.25544 9.94324 8.40541 9.97872 8.5256 10.0686C8.64578 10.1585 8.72598 10.2951 8.74796 10.4475C8.78161 10.7554 8.58612 11.0398 8.29541 11.106L6.90005 11.3507C7.02028 11.3308 7.14311 11.3623 7.24082 11.4379C7.33853 11.5134 7.40288 11.6268 7.41932 11.7524C7.45814 12.0054 7.30425 12.247 7.0654 12.3082C7.1948 12.3789 7.28497 12.5086 7.30909 12.6586C7.34371 12.8936 7.21713 13.122 7.00448 13.2084C7.07698 13.3042 7.11126 13.4253 7.10022 13.5467C7.07551 13.7877 6.89577 13.9799 6.66507 14.0119L6.50262 14.0482C6.08291 14.1432 5.65882 14.2157 5.232 14.2657C4.74606 14.2728 4.26052 14.2333 3.78151 14.1479C3.45323 14.0755 3.18557 13.8289 3.07658 13.4984C2.76038 12.8127 2.58632 11.5168 2.97505 11.1423C3.36378 10.7677 3.29705 10.8613 3.48272 10.4173C3.66838 9.97324 3.86274 9.46274 4.01069 9.02776C4.15864 8.59278 4.21666 8.39643 4.49225 8.29071C4.76754 8.20581 5.06006 8.3503 5.17108 8.626C5.2126 8.92804 5.19882 9.23552 5.13046 9.53222C5.06084 10.1364 5.05794 10.2753 5.13046 10.4807" fill="#F9F0F8"/>
<path fill-rule="evenodd" clip-rule="evenodd" d="M8.10975 9.97022C8.25544 9.94324 8.40541 9.97872 8.5256 10.0686C8.64578 10.1585 8.72598 10.2951 8.74796 10.4475C8.78161 10.7554 8.58612 11.0398 8.29541 11.106L6.90005 11.3507C7.02028 11.3308 7.14311 11.3623 7.24082 11.4379C7.33853 11.5134 7.40288 11.6268 7.41932 11.7524C7.45814 12.0054 7.30425 12.247 7.0654 12.3082C7.1948 12.3789 7.28497 12.5086 7.30909 12.6586C7.34371 12.8936 7.21713 13.122 7.00448 13.2084C7.07698 13.3042 7.11126 13.4253 7.10022 13.5467C7.07551 13.7877 6.89577 13.9799 6.66507 14.0119L6.50262 14.0482C6.08291 14.1432 5.65882 14.2157 5.232 14.2657C4.74606 14.2728 4.26052 14.2333 3.78151 14.1479C3.45323 14.0755 3.18557 13.8289 3.07658 13.4984C2.76038 12.8127 2.58632 11.5168 2.97505 11.1423C3.36378 10.7677 3.29705 10.8613 3.48272 10.4173C3.66838 9.97324 3.86274 9.46274 4.01069 9.02776C4.15864 8.59278 4.21666 8.39643 4.49225 8.29071C4.76754 8.20581 5.06006 8.3503 5.17108 8.626C5.2126 8.92804 5.19882 9.23552 5.13046 9.53222C5.06084 10.1364 5.05794 10.2753 5.13046 10.4807C6.0285 10.3268 7.0216 10.1567 8.10975 9.97022Z" stroke="#523951" stroke-width="0.5" stroke-linecap="round" stroke-linejoin="round"/>
</g>
</svg>
