<svg width="48" height="48" viewBox="0 0 48 48" fill="none" xmlns="http://www.w3.org/2000/svg">
<path d="M24 46C36.1503 46 46 36.1503 46 24C46 11.8497 36.1503 2 24 2C11.8497 2 2 11.8497 2 24C2 36.1503 11.8497 46 24 46Z" fill="#DEB8DC"/>
<mask id="mask0_516_4046" style="mask-type:alpha" maskUnits="userSpaceOnUse" x="2" y="2" width="44" height="44">
<path d="M24 46C36.1503 46 46 36.1503 46 24C46 11.8497 36.1503 2 24 2C11.8497 2 2 11.8497 2 24C2 36.1503 11.8497 46 24 46Z" fill="white"/>
</mask>
<g mask="url(#mask0_516_4046)">
<path d="M24.11 39.78C32.8858 39.78 40 32.6658 40 23.89C40 15.1142 32.8858 8 24.11 8C15.3342 8 8.22 15.1142 8.22 23.89C8.22 32.6658 15.3342 39.78 24.11 39.78Z" fill="#F9F0F8"/>
<path d="M20.72 25.73H23.37" stroke="#523951" stroke-width="1.77" stroke-linecap="round" stroke-linejoin="round"/>
<path d="M17.29 20.44C18.2675 20.44 19.06 19.6475 19.06 18.67C19.06 17.6925 18.2675 16.9 17.29 16.9C16.3125 16.9 15.52 17.6925 15.52 18.67C15.52 19.6475 16.3125 20.44 17.29 20.44Z" fill="#523951"/>
<path d="M29.41 21.35C30.3875 21.35 31.18 20.5575 31.18 19.58C31.18 18.6025 30.3875 17.81 29.41 17.81C28.4325 17.81 27.64 18.6025 27.64 19.58C27.64 20.5575 28.4325 21.35 29.41 21.35Z" fill="#523951"/>
<path d="M28.2 14.73C29.101 14.3825 30.099 14.3825 31 14.73C31.9292 14.975 32.7323 15.5604 33.25 16.37" stroke="#523951" stroke-width="1.77" stroke-linecap="round" stroke-linejoin="round"/>
<path d="M13.55 9.87C14.2268 9.18336 15.137 8.77642 16.1 8.73C17.0521 8.59326 18.0212 8.81414 18.82 9.35" stroke="#523951" stroke-width="1.77" stroke-linecap="round" stroke-linejoin="round"/>
<path d="M22.35 8.2C22.9341 8.13154 23.5219 8.09815 24.11 8.09993C31.6152 8.10375 38.0917 13.3645 39.6336 20.7096C41.1755 28.0547 37.3612 35.4757 30.491 38.4971C23.6209 41.5186 15.5735 39.3143 11.202 33.2136C6.83053 27.113 7.33034 18.7841 12.4 13.25" stroke="#523951" stroke-width="1.77" stroke-linecap="round" stroke-linejoin="round"/>
<path fill-rule="evenodd" clip-rule="evenodd" d="M15.68 32.39L26.31 30.62C26.7689 30.5481 27.2375 30.6616 27.6126 30.9355C27.9877 31.2093 28.2386 31.6211 28.31 32.08C28.3985 33.0165 27.7776 33.8729 26.86 34.08L22.41 34.82C22.7937 34.7599 23.1854 34.8563 23.4975 35.0875C23.8095 35.3187 24.0157 35.6654 24.07 36.05C24.2135 36.8164 23.7499 37.5661 23 37.78C23.4178 37.9916 23.7108 38.3884 23.79 38.85C23.8964 39.5761 23.479 40.2773 22.79 40.53C23.0197 40.8111 23.1373 41.1673 23.12 41.53C23.0599 42.2895 22.4757 42.903 21.72 43L21.2 43.11C19.8788 43.4004 18.5437 43.624 17.2 43.78C15.6423 43.8002 14.086 43.6797 12.55 43.42C11.5031 43.1902 10.6509 42.4327 10.3 41.42C9.3 39.32 8.73 35.35 9.98 34.2C11.23 33.05 11 33.34 11.54 32C12.08 30.66 12.76 29.07 13.23 27.74C13.7 26.41 13.89 25.8 14.77 25.48C15.6391 25.2218 16.5646 25.6502 16.93 26.48C17.0719 27.4194 17.0277 28.3776 16.8 29.3C16.58 31.18 16.57 31.57 16.8 32.2" fill="#F9F0F8"/>
<path d="M16.93 32.2L26.31 30.62C26.7689 30.5481 27.2375 30.6616 27.6126 30.9355C27.9877 31.2093 28.2386 31.6211 28.31 32.08C28.3985 33.0165 27.7776 33.8729 26.86 34.08L22.41 34.82C22.7937 34.7599 23.1854 34.8563 23.4975 35.0875C23.8095 35.3187 24.0157 35.6654 24.07 36.05C24.2135 36.8164 23.7499 37.5661 23 37.78C23.4178 37.9916 23.7108 38.3884 23.79 38.85C23.8964 39.5761 23.479 40.2773 22.79 40.53C23.0197 40.8111 23.1373 41.1673 23.12 41.53C23.0599 42.2895 22.4757 42.903 21.72 43L21.2 43.11C19.8788 43.4004 18.5437 43.624 17.2 43.78C15.6423 43.8002 14.086 43.6797 12.55 43.42C11.5031 43.1902 10.6509 42.4327 10.3 41.42C9.3 39.32 8.73 35.35 9.98 34.2C11.23 33.05 11 33.34 11.54 32C12.08 30.66 12.76 29.07 13.23 27.74C13.7 26.41 13.89 25.8 14.77 25.48C15.6391 25.2218 16.5646 25.6502 16.93 26.48C17.0719 27.4194 17.0277 28.3776 16.8 29.3C16.58 31.18 16.57 31.57 16.8 32.2" stroke="#523951" stroke-width="1.77" stroke-linecap="round" stroke-linejoin="round"/>
</g>
</svg>
