<svg width="24" height="24" viewBox="0 0 24 24" fill="none" xmlns="http://www.w3.org/2000/svg">
<path d="M12 21C16.9706 21 21 16.9706 21 12C21 7.02944 16.9706 3 12 3C7.02944 3 3 7.02944 3 12C3 16.9706 7.02944 21 12 21Z" fill="#DEB8DC"/>
<path d="M9.98999 12.78H11.49" stroke="#523951" stroke-linecap="round" stroke-linejoin="round"/>
<path d="M8.04999 9.78C8.60227 9.78 9.04999 9.33228 9.04999 8.78C9.04999 8.22771 8.60227 7.78 8.04999 7.78C7.4977 7.78 7.04999 8.22771 7.04999 8.78C7.04999 9.33228 7.4977 9.78 8.04999 9.78Z" fill="#523951"/>
<path d="M14.92 10.29C15.4723 10.29 15.92 9.84229 15.92 9.29C15.92 8.73772 15.4723 8.29 14.92 8.29C14.3678 8.29 13.92 8.73772 13.92 9.29C13.92 9.84229 14.3678 10.29 14.92 10.29Z" fill="#523951"/>
<path d="M14.23 6.55C14.7421 6.35557 15.3078 6.35557 15.82 6.55C16.3435 6.69276 16.7958 7.02398 17.09 7.48" stroke="#523951" stroke-linecap="round" stroke-linejoin="round"/>
<path d="M6 4C6.38228 3.61294 6.89653 3.38439 7.44 3.36C7.98549 3.27691 8.54229 3.40183 9 3.71" stroke="#523951" stroke-linecap="round" stroke-linejoin="round"/>
<path d="M11 3.06C11.3318 3.01978 11.6658 2.99975 12 2.99999C16.2573 2.99726 19.9342 5.9779 20.8123 10.1437C21.6904 14.3094 19.5295 18.5206 15.6334 20.2365C11.7372 21.9525 7.17166 20.7038 4.6912 17.2437C2.21074 13.7837 2.49397 9.05894 5.37001 5.92" stroke="#523951" stroke-linecap="round" stroke-linejoin="round"/>
<path fill-rule="evenodd" clip-rule="evenodd" d="M7.14001 16.56L13.14 15.56C13.4027 15.5168 13.6717 15.5801 13.8876 15.7359C14.1035 15.8917 14.2483 16.1271 14.29 16.39C14.3743 16.9303 14.0091 17.4381 13.47 17.53L11 17.94C11.2163 17.9087 11.4361 17.9649 11.6108 18.0964C11.7854 18.2278 11.9003 18.4235 11.93 18.64C12.0234 19.0918 11.7394 19.5356 11.29 19.64C11.5268 19.7601 11.6907 19.9874 11.73 20.25C11.7948 20.657 11.5652 21.0536 11.18 21.2C11.3147 21.3622 11.3826 21.5696 11.37 21.78C11.3235 22.1992 10.9979 22.533 10.58 22.59L10.29 22.65C9.45001 22.82 8.87001 22.93 7.99001 23.03C7.10879 23.04 6.22848 22.9697 5.36001 22.82C4.76424 22.6948 4.27814 22.2656 4.08001 21.69C3.51001 20.5 3.19001 18.25 3.90001 17.61C4.61001 16.97 4.48001 17.11 4.82001 16.35C5.16001 15.59 5.50001 14.69 5.82001 13.93C6.14001 13.17 6.19001 12.84 6.69001 12.65C7.1886 12.4919 7.7248 12.7447 7.92001 13.23C7.99637 13.763 7.97263 14.3057 7.85001 14.83C7.72001 15.89 7.71001 16.12 7.85001 16.47" fill="#DEB8DC"/>
<path fill-rule="evenodd" clip-rule="evenodd" d="M13.14 15.56C13.4027 15.5168 13.6717 15.5801 13.8876 15.7359C14.1035 15.8917 14.2483 16.1271 14.29 16.39C14.3743 16.9303 14.0091 17.4381 13.47 17.53L11 17.94C11.2163 17.9087 11.4361 17.9649 11.6108 18.0964C11.7854 18.2278 11.9003 18.4235 11.93 18.64C12.0234 19.0918 11.7394 19.5356 11.29 19.64C11.5268 19.7601 11.6907 19.9874 11.73 20.25C11.7948 20.657 11.5652 21.0536 11.18 21.2C11.3147 21.3622 11.3826 21.5696 11.37 21.78C11.3235 22.1992 10.9979 22.533 10.58 22.59L10.29 22.65C9.45001 22.82 8.87001 22.93 7.99001 23.03C7.10879 23.04 6.22848 22.9697 5.36001 22.82C4.76424 22.6948 4.27814 22.2656 4.08001 21.69C3.51001 20.5 3.19001 18.25 3.90001 17.61C4.61001 16.97 4.48001 17.11 4.82001 16.35C5.16001 15.59 5.50001 14.69 5.82001 13.93C6.14001 13.17 6.19001 12.84 6.69001 12.65C7.1886 12.4919 7.7248 12.7447 7.92001 13.23C7.99637 13.763 7.97263 14.3057 7.85001 14.83C7.72001 15.89 7.71001 16.12 7.85001 16.47L13.14 15.56Z" stroke="#523951" stroke-linecap="round" stroke-linejoin="round"/>
</svg>
