<svg width="48" height="48" viewBox="0 0 48 48" fill="none" xmlns="http://www.w3.org/2000/svg">
<path d="M24.5 41C33.6127 41 41 33.6127 41 24.5C41 15.3873 33.6127 8 24.5 8C15.3873 8 8 15.3873 8 24.5C8 33.6127 15.3873 41 24.5 41Z" fill="#DEB8DC"/>
<path d="M22.66 8.1C23.2709 8.03152 23.8853 7.99813 24.5 7.99992C32.3047 7.99879 39.0427 13.4661 40.6492 21.1037C42.2557 28.7413 38.2912 36.4598 31.1473 39.6029C24.0035 42.7459 15.6345 40.4537 11.0893 34.1091C6.54408 27.7645 7.06591 19.103 12.34 13.35" stroke="#523951" stroke-width="2" stroke-linecap="round" stroke-linejoin="round"/>
<path d="M15 33.66L26.48 31.74C26.9822 31.6507 27.4992 31.7681 27.9135 32.0657C28.3278 32.3632 28.6042 32.8156 28.68 33.32C28.796 34.3392 28.1221 35.2809 27.12 35.5L22.31 36.31C22.7245 36.2443 23.1479 36.3483 23.4847 36.5986C23.8215 36.8488 24.0433 37.2242 24.1 37.64C24.2338 38.4773 23.7034 39.2773 22.88 39.48C23.326 39.714 23.6369 40.1432 23.72 40.64C23.8394 41.4177 23.403 42.1741 22.67 42.46C22.9199 42.777 23.0381 43.1781 23 43.58C22.9148 44.3778 22.2953 45.0139 21.5 45.12L20.94 45.24C19.4932 45.5544 18.0313 45.7947 16.56 45.96C14.8849 45.9835 13.2112 45.853 11.56 45.57C10.4284 45.3303 9.50573 44.514 9.13001 43.42C8.04001 41.15 7.44001 36.86 8.78001 35.62C10.12 34.38 9.89001 34.69 10.53 33.22C11.17 31.75 11.84 30.06 12.35 28.62C12.86 27.18 13.06 26.53 14.01 26.18C14.959 25.899 15.9673 26.3773 16.35 27.29C16.4932 28.2899 16.4456 29.3078 16.21 30.29C15.97 32.29 15.96 32.75 16.21 33.43" fill="#DEB8DC"/>
<path fill-rule="evenodd" clip-rule="evenodd" d="M26.48 31.74C26.9822 31.6507 27.4992 31.7681 27.9135 32.0657C28.3278 32.3632 28.6042 32.8156 28.68 33.32C28.796 34.3392 28.1221 35.2809 27.12 35.5L22.31 36.31C22.7245 36.2443 23.1479 36.3483 23.4847 36.5986C23.8215 36.8488 24.0433 37.2242 24.1 37.64C24.2338 38.4773 23.7034 39.2773 22.88 39.48C23.326 39.714 23.6369 40.1432 23.72 40.64C23.8394 41.4177 23.403 42.1741 22.67 42.46C22.9199 42.777 23.0381 43.1781 23 43.58C22.9148 44.3778 22.2953 45.0139 21.5 45.12L20.94 45.24C19.4932 45.5544 18.0313 45.7947 16.56 45.96C14.8849 45.9835 13.2112 45.853 11.56 45.57C10.4284 45.3303 9.50573 44.514 9.13001 43.42C8.04001 41.15 7.44001 36.86 8.78001 35.62C10.12 34.38 9.89001 34.69 10.53 33.22C11.17 31.75 11.84 30.06 12.35 28.62C12.86 27.18 13.06 26.53 14.01 26.18C14.959 25.899 15.9673 26.3773 16.35 27.29C16.4932 28.2899 16.4456 29.3078 16.21 30.29C15.97 32.29 15.96 32.75 16.21 33.43C19.3057 32.9206 22.729 32.3573 26.48 31.74Z" stroke="#523951" stroke-width="2" stroke-linecap="round" stroke-linejoin="round"/>
<path d="M13 10C13.733 9.26405 14.7128 8.82583 15.75 8.77C16.7793 8.61681 17.8287 8.85594 18.69 9.44" stroke="#523951" stroke-width="2" stroke-linecap="round" stroke-linejoin="round"/>
<path d="M21 26H24" stroke="#523951" stroke-width="2" stroke-linecap="round" stroke-linejoin="round"/>
<path d="M17 21C18.1046 21 19 20.1046 19 19C19 17.8954 18.1046 17 17 17C15.8954 17 15 17.8954 15 19C15 20.1046 15.8954 21 17 21Z" fill="#523951"/>
<path d="M29 22C30.1046 22 31 21.1046 31 20C31 18.8954 30.1046 18 29 18C27.8954 18 27 18.8954 27 20C27 21.1046 27.8954 22 29 22Z" fill="#523951"/>
<path d="M28 14.29C28.9656 13.9188 30.0344 13.9188 31 14.29C31.9994 14.5387 32.8719 15.1476 33.45 16" stroke="#523951" stroke-width="2" stroke-linecap="round" stroke-linejoin="round"/>
</svg>
