<svg width="48" height="48" viewBox="0 0 48 48" fill="none" xmlns="http://www.w3.org/2000/svg">
<path d="M39.33 30.6703L37.73 29.4703C37.73 29.4703 37.07 23.1203 35.91 21.8903C33.82 19.6903 32.49 16.4703 31.61 13.4303C31.06 11.5503 30.67 10.8803 28.98 10.8503C28.2951 10.9157 27.665 11.2531 27.2308 11.7869C26.7966 12.3207 26.5946 13.0063 26.67 13.6903C26.6965 14.5441 26.7733 15.3955 26.9 16.2403C27.3452 18.482 28.0152 20.673 28.9 22.7803L28.25 22.3903L12.81 10.6503C11.66 9.78027 10 9.39027 8.88002 10.8903C7.76002 12.3903 8.66002 13.7803 9.81002 14.6403L17.81 20.6403L20.2 22.4503L7.41002 12.8403C6.26002 11.9703 4.60002 11.5803 3.47002 13.0803C2.34002 14.5803 3.26002 16.0003 4.40002 16.8303L12.4 22.8303L17.2 26.4303L6.80002 18.6403C5.65002 17.7703 3.99002 17.3803 2.86002 18.8803C1.73002 20.3803 2.65002 21.7703 3.80002 22.6303L11.8 28.6303L15.8 31.6303L7.80002 25.6303C6.65002 24.7603 5.02002 24.3403 3.94002 25.7703C2.86002 27.2003 3.65002 28.7703 4.80002 29.6303L19.34 40.6303C21.4652 42.2071 24.1383 42.8564 26.75 42.4303C27.56 43.0203 29.15 44.2303 29.15 44.2303C31.2879 42.5817 33.1714 40.6274 34.74 38.4303C36.5473 36.018 38.0864 33.416 39.33 30.6703Z" fill="#49992A"/>
<path d="M29.7301 23.4803L27.3201 21.6703L29.7301 23.4803Z" fill="#93D870"/>
<path d="M39.21 31.0003L39.33 30.7203" stroke="#43722B" stroke-width="2" stroke-linecap="round" stroke-linejoin="round"/>
<path d="M37.6 28.4003C37.35 26.5303 37.19 20.9303 36.33 20.0203C34.24 17.8103 32.49 16.4703 31.61 13.4303C31.06 11.5503 30.67 10.8803 28.98 10.8503C28.2951 10.9157 27.665 11.2531 27.2308 11.7869C26.7966 12.3207 26.5946 13.0063 26.67 13.6903C26.6965 14.5441 26.7733 15.3955 26.9 16.2403C27.3754 18.598 28.0443 20.9125 28.9 23.1603L12.81 11.0003C11.66 10.1403 10 9.75027 8.88002 11.2503C7.76002 12.7503 8.66002 14.1303 9.81002 15.0003L17.81 21.0003L20.2 22.8003L7.41002 13.2103C6.26002 12.3503 4.60002 11.9603 3.47002 13.4603C2.34002 14.9603 3.26002 16.3403 4.40002 17.2103L12.4 23.2103L17.2 26.8203L6.80002 19.0003C5.65002 18.1403 3.99002 17.7503 2.86002 19.2503C1.73002 20.7503 2.65002 22.1403 3.80002 23.0003L11.8 29.0003L15.8 32.0003L7.80002 26.0003C6.65002 25.1403 5.02002 24.7103 3.94002 26.1503C2.86002 27.5903 3.65002 29.1503 4.80002 30.0003L19.33 40.6803C21.4552 42.2571 24.1283 42.9064 26.74 42.4803" stroke="#165209" stroke-width="2" stroke-linecap="round" stroke-linejoin="round"/>
<path d="M29.7301 23.4803L27.3201 21.6703" stroke="#43722B" stroke-width="2" stroke-linecap="round" stroke-linejoin="round"/>
<path d="M45.9301 31.8703L44.3301 30.6703C44.3301 30.6703 43.6701 24.3103 42.5101 23.0903C40.447 20.6373 38.9757 17.7427 38.2101 14.6303C37.6601 12.7503 37.2701 12.0803 35.5801 12.0503C34.896 12.1132 34.2658 12.4485 33.8314 12.9807C33.397 13.5129 33.1947 14.1974 33.2701 14.8803C33.2961 15.7341 33.3729 16.5856 33.5001 17.4303C34.1301 20.7303 34.8101 23.4303 34.8901 23.5903L19.6501 12.1903C18.5001 11.3203 16.8401 10.9303 15.7101 12.4303C14.5801 13.9303 15.4901 15.3203 16.6401 16.1803L24.6401 22.1803L27.0001 24.0003L14.2401 14.3803C13.0901 13.5203 11.4301 13.1303 10.3101 14.6303C9.19007 16.1303 10.0901 17.5103 11.2401 18.3803L19.2401 24.3803L24.0001 28.0003L13.6401 20.1803C12.4901 19.3103 10.8201 18.9303 9.70007 20.4203C8.58007 21.9103 9.48007 23.3103 10.6301 24.1803L18.6301 30.1803L22.6301 33.1803L14.6301 27.1803C13.4801 26.3203 11.8401 25.8903 10.7601 27.3303C9.68007 28.7703 10.4701 30.3303 11.6201 31.1803L25.9301 41.8803C28.4601 43.7503 33.0001 44.0003 32.9301 44.0003C33.8293 44.5586 34.7686 45.05 35.7401 45.4703C38.6213 44.9575 41.1953 43.3572 42.9301 41.0003C44.7874 38.3088 45.829 35.1388 45.9301 31.8703Z" fill="#6DAE4F"/>
<path d="M36.33 24.6703L33.92 22.8703L36.33 24.6703Z" fill="#93D870"/>
<path d="M12 1.65026L12.79 5.17026" stroke="#165209" stroke-width="2" stroke-linecap="round" stroke-linejoin="round"/>
<path d="M23.2 5.95026L20.26 8.03026" stroke="#165209" stroke-width="2" stroke-linecap="round" stroke-linejoin="round"/>
<path d="M18.68 1.00027L16.53 6.60027" stroke="#165209" stroke-width="2" stroke-linecap="round" stroke-linejoin="round"/>
<path fill-rule="evenodd" clip-rule="evenodd" d="M45.7701 31.8803C45.0504 31.1164 44.4985 30.2103 44.1501 29.2203C43.9701 28.4703 43.9201 27.6903 43.7801 26.9303C43.5601 25.7603 43.3701 24.0003 42.5101 23.0903C40.447 20.6373 38.9757 17.7427 38.2101 14.6303C37.6601 12.7503 37.2701 12.0803 35.5801 12.0503C34.896 12.1132 34.2658 12.4485 33.8314 12.9807C33.397 13.5129 33.1947 14.1974 33.2701 14.8803C33.2961 15.7341 33.3729 16.5856 33.5001 17.4303C34.1301 20.7303 34.8101 23.4303 34.8901 23.5903L19.6501 12.1903C18.5001 11.3203 16.8401 10.9303 15.7101 12.4303C14.5801 13.9303 15.4901 15.3203 16.6401 16.1803L24.6401 22.1803L27.0001 24.0003L14.2401 14.3803C13.0901 13.5203 11.4301 13.1303 10.3101 14.6303C9.19007 16.1303 10.0901 17.5103 11.2401 18.3803L19.2401 24.3803L24.0001 28.0003L13.6401 20.1803C12.4901 19.3103 10.8201 18.9303 9.70007 20.4203C8.58007 21.9103 9.48007 23.3103 10.6301 24.1803L18.6301 30.1803L22.6301 33.1803L14.6301 27.1803C13.4801 26.3203 11.8401 25.8903 10.7601 27.3303C9.68007 28.7703 10.4701 30.3303 11.6201 31.1803L25.9301 41.8803C27.1106 42.7643 28.4796 43.3633 29.9301 43.6303C30.5701 43.7503 31.2501 43.8103 32.0001 43.9503C33.0742 44.1141 34.1146 44.4518 35.0801 44.9503C35.7509 45.2715 36.5171 45.3321 37.2301 45.1203C39.7273 44.2479 41.9071 42.6496 43.4901 40.5303C44.9936 38.495 45.8569 36.0581 45.9701 33.5303C46.0646 32.9725 45.9952 32.3993 45.7701 31.8803Z" stroke="#165209" stroke-width="2" stroke-linecap="round" stroke-linejoin="round"/>
</svg>
