<svg width="24" height="24" viewBox="0 0 24 24" fill="none" xmlns="http://www.w3.org/2000/svg">
<path fill-rule="evenodd" clip-rule="evenodd" d="M20 15.3101L19.2 14.7101C19.2 14.7101 18.87 11.5401 18.29 10.9301C17.2651 9.70306 16.5302 8.26059 16.14 6.71014C15.87 5.77014 15.68 5.43014 14.83 5.42014C14.4887 5.45028 14.174 5.61702 13.9575 5.88253C13.741 6.14803 13.6409 6.48976 13.68 6.83014C13.6925 7.25894 13.7326 7.68649 13.8 8.11014C14.0147 9.2297 14.35 10.3227 14.8 11.3701L14.47 11.1801L6.70997 5.32014C6.44556 5.03684 6.06855 4.88627 5.68173 4.90948C5.29491 4.93269 4.9386 5.12726 4.70997 5.44014C4.50185 5.7434 4.43308 6.12107 4.52093 6.47822C4.60879 6.83537 4.84492 7.13804 5.16997 7.31014L9.16997 10.3101L10.37 11.2101L3.99997 6.41014C3.73214 6.13341 3.35681 5.98744 2.97239 6.0105C2.58796 6.03357 2.23278 6.22337 1.99997 6.53014C1.79611 6.84107 1.73631 7.22484 1.83592 7.58306C1.93553 7.94127 2.18486 8.23908 2.51997 8.40014L6.51997 11.4001L8.91997 13.2001L3.70997 9.31014C3.44556 9.02684 3.06855 8.87627 2.68173 8.89948C2.29491 8.92269 1.9386 9.11726 1.70997 9.43014C1.50185 9.7334 1.43308 10.1111 1.52093 10.4682C1.60879 10.8254 1.84492 11.128 2.16997 11.3001L6.16997 14.3001L8.16997 15.8001L4.16997 12.8001C3.9137 12.5358 3.55735 12.3925 3.18939 12.4058C2.82144 12.4191 2.47641 12.5879 2.23997 12.8701C2.02122 13.1773 1.94314 13.5629 2.02514 13.9309C2.10714 14.299 2.34152 14.6149 2.66997 14.8001L9.99997 20.3101C11.0565 21.0993 12.3888 21.4243 13.69 21.2101C14.1 21.5001 14.89 22.1001 14.89 22.1001C15.9615 21.2811 16.9052 20.3071 17.69 19.2101C18.5991 17.9978 19.3737 16.6901 20 15.3101Z" fill="#49992A"/>
<path fill-rule="evenodd" clip-rule="evenodd" d="M15.16 11.7201L13.96 10.8201L15.16 11.7201Z" fill="#93D870"/>
<path d="M19.89 15.4501L19.95 15.3101" stroke="#43722B" stroke-width="2" stroke-linecap="round" stroke-linejoin="round"/>
<path d="M19.09 14.1801C18.96 13.2401 18.88 10.4501 18.45 10.0001C17.45 8.89014 16.54 8.22014 16.09 6.71014C15.82 5.77014 15.63 5.43014 14.78 5.42014C14.4387 5.45028 14.1241 5.61702 13.9075 5.88253C13.691 6.14803 13.5909 6.48976 13.63 6.83014C13.6425 7.25894 13.6826 7.68649 13.75 8.11014C13.9792 9.28781 14.3139 10.4425 14.75 11.5601L6.70999 5.50014C6.44216 5.22341 6.06684 5.07744 5.68241 5.1005C5.29799 5.12357 4.94281 5.31337 4.70999 5.62014C4.50451 5.93009 4.4416 6.3132 4.53718 6.67259C4.63277 7.03197 4.87768 7.33322 5.20999 7.50014L9.20999 10.5001L10.41 11.4001L3.99999 6.60014C3.73216 6.32341 3.35684 6.17744 2.97241 6.2005C2.58799 6.22357 2.23281 6.41337 1.99999 6.72014C1.79262 7.02467 1.72536 7.40334 1.81516 7.76066C1.90497 8.11798 2.14328 8.41984 2.46999 8.59014L6.46999 11.5901L8.86999 13.3901L3.70999 9.49014C3.44216 9.21341 3.06684 9.06744 2.68241 9.0905C2.29799 9.11357 1.94281 9.30337 1.70999 9.61014C1.50157 9.91499 1.43264 10.2941 1.52041 10.6528C1.60818 11.0115 1.84436 11.316 2.16999 11.4901L6.16999 14.4901L8.16999 15.9901L4.16999 12.9901C3.91373 12.7258 3.55737 12.5825 3.18942 12.5958C2.82146 12.6091 2.47643 12.7779 2.23999 13.0601C2.01406 13.371 1.936 13.7653 2.02648 14.1388C2.11696 14.5123 2.36685 14.8272 2.70999 15.0001L9.99999 20.3101C11.0565 21.0993 12.3888 21.4243 13.69 21.2101" stroke="#165209" stroke-linecap="round" stroke-linejoin="round"/>
<path d="M15.16 11.7201L13.96 10.8201" stroke="#43722B" stroke-width="2" stroke-linecap="round" stroke-linejoin="round"/>
<path fill-rule="evenodd" clip-rule="evenodd" d="M23.25 15.9101L22.45 15.3101C22.45 15.3101 22.12 12.1401 21.54 11.5301C20.5057 10.3055 19.7698 8.85748 19.39 7.30014C19.12 6.36014 18.92 6.00014 18.08 6.00014C17.7379 6.03281 17.4233 6.20169 17.207 6.46877C16.9907 6.73585 16.8909 7.07869 16.93 7.42014C16.9299 7.84777 16.9533 8.27508 17 8.70014C17.32 10.3501 17.65 11.7001 17.7 11.7801L10.12 6.09014C9.77393 5.71835 9.23962 5.58852 8.76154 5.76004C8.28345 5.93156 7.95353 6.37145 7.92274 6.87844C7.89194 7.38543 8.16619 7.86201 8.62 8.09014L12.62 11.0901L13.82 11.9901L7.43 7.18014C7.16217 6.9034 6.78685 6.75744 6.40242 6.7805C6.018 6.80357 5.66282 6.99337 5.43 7.30014C5.22263 7.60467 5.15537 7.98334 5.24518 8.34066C5.33498 8.69798 5.57329 8.99984 5.9 9.17014L9.9 12.1701L12.31 14.0001L7.12 10.0701C6.85244 9.79128 6.4754 9.64478 6.08976 9.66985C5.70411 9.69492 5.34921 9.88899 5.12 10.2001C4.91188 10.5034 4.84311 10.8811 4.93097 11.2382C5.01882 11.5954 5.25495 11.898 5.58 12.0701L9.58 15.0701L11.58 16.5701L7.58 13.5701C7.32374 13.3058 6.96738 13.1624 6.59943 13.1758C6.23148 13.1891 5.88644 13.3579 5.65 13.6401C5.42834 13.9447 5.34847 14.3298 5.43079 14.6974C5.5131 15.0649 5.74963 15.3793 6.08 15.5601L13.22 20.9101C14.2985 21.5454 15.511 21.9187 16.76 22.0001C17.2084 22.277 17.6763 22.521 18.16 22.7301C19.599 22.4762 20.8847 21.6776 21.75 20.5001C22.6843 19.1478 23.2054 17.5532 23.25 15.9101Z" fill="#6DAE4F"/>
<path fill-rule="evenodd" clip-rule="evenodd" d="M18.45 12.3201L17.25 11.4201L18.45 12.3201Z" fill="#93D870"/>
<path d="M6.31 0.820137L6.7 2.58014" stroke="#165209" stroke-linecap="round" stroke-linejoin="round"/>
<path d="M11.9 2.97014L10.43 4.01014" stroke="#165209" stroke-linecap="round" stroke-linejoin="round"/>
<path d="M9.64001 0.500137L8.57001 3.30014" stroke="#165209" stroke-linecap="round" stroke-linejoin="round"/>
<path fill-rule="evenodd" clip-rule="evenodd" d="M23.16 15.9201C22.8049 15.5364 22.5326 15.0837 22.36 14.5901C22.27 14.2101 22.24 13.8201 22.17 13.4401C22.1261 12.7602 21.9092 12.1028 21.54 11.5301C20.5057 10.3055 19.7698 8.85748 19.39 7.30014C19.12 6.36014 18.92 6.00014 18.08 6.00014C17.7379 6.03281 17.4233 6.20169 17.207 6.46877C16.9907 6.73585 16.8909 7.07869 16.93 7.42014C16.9299 7.84777 16.9533 8.27508 17 8.70014C17.32 10.3501 17.65 11.7001 17.7 11.7801L10.12 6.09014C9.77393 5.71835 9.23962 5.58852 8.76154 5.76004C8.28345 5.93156 7.95353 6.37145 7.92274 6.87844C7.89194 7.38543 8.16619 7.86201 8.62 8.09014L12.62 11.0901L13.82 11.9901L7.43 7.18014C7.16217 6.9034 6.78685 6.75744 6.40242 6.7805C6.018 6.80357 5.66282 6.99337 5.43 7.30014C5.22263 7.60467 5.15537 7.98334 5.24518 8.34066C5.33498 8.69798 5.57329 8.99984 5.9 9.17014L9.9 12.1701L12.31 14.0001L7.12 10.0701C6.85244 9.79128 6.4754 9.64478 6.08976 9.66985C5.70411 9.69492 5.34921 9.88899 5.12 10.2001C4.91188 10.5034 4.84311 10.8811 4.93097 11.2382C5.01882 11.5954 5.25495 11.898 5.58 12.0701L9.58 15.0701L11.58 16.5701L7.58 13.5701C7.32374 13.3058 6.96738 13.1624 6.59943 13.1758C6.23148 13.1891 5.88644 13.3579 5.65 13.6401C5.42834 13.9447 5.34847 14.3298 5.43079 14.6974C5.5131 15.0649 5.74963 15.3793 6.08 15.5601L13.22 20.9101C13.8107 21.3504 14.4952 21.6481 15.22 21.7801C15.54 21.8401 15.88 21.8701 16.22 21.9401C16.759 22.0252 17.2797 22.2011 17.76 22.4601C18.0938 22.6193 18.4743 22.6513 18.83 22.5501C20.09 22.1174 21.1933 21.3204 22 20.2601C22.7596 19.2353 23.1918 18.0049 23.24 16.7301C23.2935 16.4581 23.2657 16.1764 23.16 15.9201Z" stroke="#165209" stroke-linecap="round" stroke-linejoin="round"/>
</svg>
