<svg width="72" height="72" viewBox="0 0 72 72" fill="none" xmlns="http://www.w3.org/2000/svg">
<path d="M59.69 47.11L57.21 45.26C57.21 45.26 56.21 35.43 54.4 33.54C51.16 30.12 49.11 25.15 47.74 20.45C46.89 17.54 46.3 16.51 43.68 16.45C43.13 16.45 40.09 17.05 40.11 20.84C40.1519 22.1593 40.2721 23.475 40.47 24.78C41.1778 28.2505 42.2331 31.6409 43.62 34.9L42.62 34.29L18.68 16.14C16.9 14.81 14.34 14.21 12.59 16.52C10.84 18.83 12.26 21 14 22.32L26.36 31.62L30.07 34.41L10.33 19.54C8.55003 18.2 6.00003 17.6 4.24003 19.91C2.48003 22.22 3.90003 24.38 5.68003 25.71L18 35L25.42 40.58L9.39003 28.5C7.61003 27.17 5.00003 26.56 3.30003 28.88C1.60003 31.2 3.00003 33.34 4.74003 34.68L17.09 44L23.27 48.64L10.92 39.33C9.14003 37.99 6.62003 37.33 4.92003 39.55C3.22003 41.77 4.46003 44.17 6.24003 45.55L28.76 62.59C32.0438 65.0268 36.1745 66.0298 40.21 65.37C41.46 66.28 43.93 68.15 43.93 68.15C47.2371 65.5882 50.1514 62.5561 52.58 59.15C55.3848 55.4098 57.7692 51.3722 59.69 47.11Z" fill="#49992A"/>
<path d="M44.84 35.99L41.12 33.2L44.84 35.99Z" fill="#93D870"/>
<path d="M59.5 47.54L59.69 47.11" stroke="#43722B" stroke-width="3.09" stroke-linecap="round" stroke-linejoin="round"/>
<path d="M57 43.59C56.62 40.71 56.36 32.05 55 30.65C51.77 27.23 49.07 25.15 47.7 20.45C46.85 17.54 46.26 16.51 43.64 16.45C43.09 16.45 40.05 17.05 40.07 20.84C40.1119 22.1593 40.2321 23.475 40.43 24.78C41.1818 28.4278 42.2354 32.0068 43.58 35.48L18.68 16.72C16.9 15.39 14.34 14.79 12.59 17.1C10.84 19.41 12.26 21.57 14.03 22.9L26.39 32.2L30.1 35L10.33 20.12C8.55003 18.78 5.98003 18.18 4.24003 20.49C2.50003 22.8 3.90003 25 5.68003 26.29L18 35.59L25.42 41.17L9.39003 29.08C7.61003 27.75 5.00003 27.14 3.30003 29.46C1.60003 31.78 3.00003 33.92 4.74003 35.26L17.09 44.56L23.27 49.2L10.92 39.91C9.14003 38.57 6.62003 37.91 4.92003 40.13C3.22003 42.35 4.46003 44.75 6.24003 46.13L28.73 62.63C32.0138 65.0668 36.1445 66.0698 40.18 65.41" stroke="#165209" stroke-width="3" stroke-linecap="round" stroke-linejoin="round"/>
<path d="M44.84 35.99L41.12 33.2" stroke="#43722B" stroke-width="3.09" stroke-linecap="round" stroke-linejoin="round"/>
<path d="M69.89 49L67.42 47.14C67.42 47.14 66.42 37.31 64.6 35.42C61.37 32 59.31 27 58 22.3C57.15 19.39 56.56 18.36 53.94 18.3C53.39 18.3 50.35 18.9 50.36 22.69C50.4054 24.0095 50.5289 25.3251 50.73 26.63C51.73 31.72 52.73 35.89 52.88 36.14L29.25 18.53C27.47 17.19 24.9 16.59 23.16 18.91C21.42 21.23 22.82 23.37 24.6 24.71L37 34L40.71 36.79L20.89 21.92C19.12 20.58 16.55 19.98 14.8 22.3C13.05 24.62 14.47 26.76 16.25 28.1L28.6 37.39L36 43L20 30.89C18.23 29.55 15.66 28.95 13.91 31.27C12.16 33.59 13.58 35.73 15.36 37.07L27.71 46.36L33.84 51L21.48 41.7C19.71 40.37 17.18 39.7 15.48 41.93C13.78 44.16 15.03 46.55 16.81 47.93L39 64.44C42.91 67.34 49.92 67.73 49.82 67.72C51.1976 68.5868 52.6383 69.3489 54.13 70C58.5877 69.2068 62.5694 66.729 65.25 63.08C69.89 56.89 69.89 49 69.89 49Z" fill="#6DAE4F"/>
<path d="M55.0401 37.84L51.3301 35.05L55.0401 37.84Z" fill="#93D870"/>
<path d="M17.16 2.77L18.38 8.21" stroke="#165209" stroke-width="3" stroke-linecap="round" stroke-linejoin="round"/>
<path d="M34.4801 9.42L29.9301 12.65" stroke="#165209" stroke-width="3" stroke-linecap="round" stroke-linejoin="round"/>
<path d="M27.48 1.77L24.16 10.43" stroke="#165209" stroke-width="3" stroke-linecap="round" stroke-linejoin="round"/>
<path fill-rule="evenodd" clip-rule="evenodd" d="M69.64 49C68.5298 47.8112 67.6785 46.4049 67.14 44.87C66.86 43.71 66.79 42.51 66.57 41.33C66.22 39.52 65.94 36.81 64.57 35.4C61.37 32 59.31 27 58 22.3C57.15 19.39 56.56 18.36 53.94 18.3C53.39 18.3 50.35 18.9 50.36 22.69C50.4054 24.0095 50.5289 25.3251 50.73 26.63C51.73 31.72 52.73 35.89 52.88 36.14L29.25 18.53C27.47 17.19 24.9 16.59 23.16 18.91C21.42 21.23 22.82 23.37 24.6 24.71L37 34L40.71 36.79L20.89 21.92C19.12 20.58 16.55 19.98 14.8 22.3C13.05 24.62 14.47 26.76 16.25 28.1L28.6 37.39L36 43L20 30.89C18.23 29.55 15.66 28.95 13.91 31.27C12.16 33.59 13.58 35.73 15.36 37.07L27.71 46.36L33.84 51L21.48 41.7C19.71 40.37 17.18 39.7 15.48 41.93C13.78 44.16 15.03 46.55 16.81 47.93L39 64.44C40.8267 65.8151 42.95 66.7432 45.2 67.15C46.2 67.33 47.2 67.43 48.39 67.65C50.0587 67.911 51.6714 68.4519 53.16 69.25C54.1987 69.7476 55.3847 69.8437 56.49 69.52C59.97 68.61 64.07 65.27 66.17 62.42C68.5086 59.248 69.8427 55.4478 70 51.51C70.1248 50.6561 69.9997 49.7844 69.64 49Z" stroke="#165209" stroke-width="3" stroke-linecap="round" stroke-linejoin="round"/>
</svg>
