<svg width="24" height="24" viewBox="0 0 24 24" fill="none" xmlns="http://www.w3.org/2000/svg">
<path d="M12 0.5C18.3513 0.5 23.5 5.64873 23.5 12C23.5 18.3513 18.3513 23.5 12 23.5C5.64873 23.5 0.5 18.3513 0.5 12C0.5 5.64873 5.64873 0.5 12 0.5Z" fill="#6DAE4F" stroke="white"/>
<mask id="mask0_516_4040" style="mask-type:alpha" maskUnits="userSpaceOnUse" x="1" y="1" width="22" height="22">
<path d="M12 23C18.0751 23 23 18.0751 23 12C23 5.92487 18.0751 1 12 1C5.92487 1 1 5.92487 1 12C1 18.0751 5.92487 23 12 23Z" fill="white"/>
</mask>
<g mask="url(#mask0_516_4040)">
<path fill-rule="evenodd" clip-rule="evenodd" d="M19.86 15L19.15 14.47C19.15 14.47 18.86 11.65 18.35 11.11C17.4325 10.0242 16.7787 8.74065 16.44 7.35999C16.2 6.52999 16.03 6.23999 15.28 6.21999C14.6567 6.29312 14.2097 6.85633 14.28 7.47999C14.2902 7.85835 14.3236 8.23572 14.38 8.60999C14.5863 9.60003 14.8877 10.5679 15.28 11.5L15 11.28L8.12 6.07999C7.88285 5.84656 7.55752 5.72514 7.22542 5.74614C6.89332 5.76713 6.58587 5.92855 6.38 6.18999C6.19371 6.45892 6.13192 6.79492 6.21037 7.11252C6.28881 7.43013 6.49992 7.69873 6.79 7.84999L10.33 10.51L11.39 11.31L5.73 7.04999C5.49315 6.81997 5.17013 6.70072 4.84063 6.72168C4.51113 6.74263 4.20581 6.90182 4 7.15999C3.81296 7.42764 3.74966 7.76264 3.82615 8.08008C3.90264 8.39752 4.11158 8.66692 4.4 8.81999L7.94 11.48L10.06 13.08L5.46 9.61999C5.22437 9.38351 4.89827 9.26001 4.5651 9.28107C4.23193 9.30214 3.92398 9.46572 3.72 9.72999C3.53695 9.99985 3.47706 10.3347 3.55525 10.6513C3.63344 10.9679 3.84236 11.2364 4.13 11.39L7.67 14.05L9.44 15.38L5.9 12.72C5.67199 12.4879 5.35697 12.3622 5.0318 12.3736C4.70662 12.385 4.40119 12.5325 4.19 12.78C3.99342 13.0512 3.92248 13.3936 3.99513 13.7205C4.06779 14.0475 4.27708 14.3276 4.57 14.49L11 19.38C11.9401 20.0792 13.1247 20.3645 14.28 20.17L15.34 20.97C16.2865 20.2377 17.1219 19.372 17.82 18.4C18.6238 17.3457 19.308 16.2054 19.86 15Z" fill="#DCF0CB"/>
<path fill-rule="evenodd" clip-rule="evenodd" d="M15.61 11.76L14.55 10.96L15.61 11.76Z" fill="#93D870"/>
<path d="M19.1 13.94C18.99 13.11 18.91 10.63 18.53 10.23C17.581 9.46462 16.8585 8.45513 16.44 7.31C16.2 6.48 16.03 6.19 15.28 6.17C14.6567 6.24312 14.2097 6.80634 14.28 7.43C14.2902 7.80836 14.3236 8.18573 14.38 8.56C14.5992 9.60206 14.9001 10.6252 15.28 11.62L8.12001 6.25C7.88437 6.01352 7.55828 5.89002 7.2251 5.91108C6.89193 5.93214 6.58398 6.09573 6.38001 6.36C6.20387 6.62845 6.14798 6.9583 6.22585 7.26979C6.30372 7.58128 6.50826 7.84602 6.79001 8L10.33 10.68L11.39 11.48L5.73001 7.22C5.49462 6.98699 5.17086 6.86571 4.84032 6.88673C4.50978 6.90774 4.20398 7.06905 4.00001 7.33C3.81267 7.59925 3.74922 7.93569 3.82563 8.25467C3.90203 8.57366 4.11101 8.84484 4.40001 9L7.94001 11.66L10.06 13.26L5.46001 9.79C5.22575 9.55238 4.90051 9.42714 4.56738 9.44629C4.23425 9.46543 3.9255 9.62711 3.72001 9.89C3.53371 10.1589 3.47192 10.4949 3.55037 10.8125C3.62881 11.1301 3.83993 11.3987 4.13001 11.55L7.67001 14.22L9.44001 15.55L5.90001 12.89C5.66817 12.6578 5.34754 12.5368 5.0201 12.5578C4.69266 12.5789 4.39018 12.74 4.19001 13C3.99372 13.2695 3.92291 13.6105 3.99565 13.9359C4.06839 14.2613 4.27764 14.5397 4.57001 14.7L11 19.38C11.9401 20.0792 13.1247 20.3645 14.28 20.17" stroke="#165209" stroke-linecap="round" stroke-linejoin="round"/>
<path fill-rule="evenodd" clip-rule="evenodd" d="M22.78 15.48L22.08 14.95C22.08 14.95 21.78 12.13 21.27 11.59C20.3563 10.5016 19.7031 9.21903 19.36 7.84C19.12 7 19 6.72 18.2 6.7C17.8995 6.73256 17.6245 6.88418 17.4366 7.12095C17.2487 7.35773 17.1635 7.65993 17.2 7.96C17.2102 8.33836 17.2436 8.71573 17.3 9.09C17.58 10.54 17.88 11.74 17.92 11.81L11.15 6.76C10.9128 6.52656 10.5875 6.40515 10.2554 6.42615C9.92331 6.44714 9.61586 6.60856 9.41 6.87C9.2237 7.13893 9.16192 7.47493 9.24036 7.79253C9.31881 8.11014 9.52992 8.37874 9.82 8.53L13.35 11.19L14.42 11.99L8.76 7.74C8.52373 7.49849 8.19459 7.3709 7.85727 7.39006C7.51995 7.40923 7.20739 7.57328 7 7.84C6.81843 8.11241 6.76157 8.44928 6.84366 8.76619C6.92575 9.0831 7.13901 9.35001 7.43 9.5L11 12.17L13.13 13.76L8.49 10.3C8.25109 10.0661 7.92419 9.94458 7.59052 9.96555C7.25685 9.98652 6.94774 10.1481 6.74 10.41C6.55769 10.6811 6.49932 11.017 6.57946 11.3338C6.6596 11.6505 6.87069 11.9182 7.16 12.07L10.69 14.73L12.46 16.06L8.93 13.4C8.70212 13.1662 8.38561 13.0402 8.05939 13.0536C7.73317 13.067 7.428 13.2183 7.22 13.47C7.02371 13.7395 6.9529 14.0805 7.02564 14.4059C7.09838 14.7313 7.30763 15.0097 7.6 15.17L13.93 19.91C14.8756 20.4614 15.9374 20.7834 17.03 20.85C17.4273 21.096 17.8417 21.3132 18.27 21.5C19.5506 21.2675 20.6928 20.5514 21.46 19.5C22.2742 18.3132 22.7321 16.9184 22.78 15.48Z" fill="#DDF6D1"/>
<path d="M7.78999 2.72L8.13999 4.28" stroke="#165209" stroke-linecap="round" stroke-linejoin="round"/>
<path d="M12.75 4.63L11.44 5.55" stroke="#165209" stroke-linecap="round" stroke-linejoin="round"/>
<path d="M10.74 2.42999L9.78999 4.90999" stroke="#165209" stroke-linecap="round" stroke-linejoin="round"/>
<path fill-rule="evenodd" clip-rule="evenodd" d="M7.78999 2.72L8.13999 4.28L7.78999 2.72Z" fill="#231F20"/>
<path fill-rule="evenodd" clip-rule="evenodd" d="M12.75 4.63L11.44 5.55L12.75 4.63Z" fill="#231F20"/>
<path fill-rule="evenodd" clip-rule="evenodd" d="M10.74 2.42999L9.78999 4.90999L10.74 2.42999Z" fill="#231F20"/>
<path fill-rule="evenodd" clip-rule="evenodd" d="M7.78999 2.72L8.13999 4.28L7.78999 2.72Z" fill="#231F20"/>
<path fill-rule="evenodd" clip-rule="evenodd" d="M12.75 4.63L11.44 5.55L12.75 4.63Z" fill="#231F20"/>
<path fill-rule="evenodd" clip-rule="evenodd" d="M10.74 2.42999L9.78999 4.90999L10.74 2.42999Z" fill="#231F20"/>
<path fill-rule="evenodd" clip-rule="evenodd" d="M22.71 15.48C22.3927 15.1412 22.1508 14.739 22 14.3C21.92 13.97 21.9 13.63 21.83 13.3C21.7903 12.6951 21.5976 12.1101 21.27 11.6C20.3563 10.5116 19.7031 9.22903 19.36 7.85C19.12 7 19 6.72 18.2 6.7C17.8995 6.73256 17.6245 6.88418 17.4366 7.12095C17.2487 7.35773 17.1635 7.65993 17.2 7.96C17.2102 8.33836 17.2436 8.71573 17.3 9.09C17.58 10.54 17.88 11.74 17.92 11.81L11.15 6.76C10.9128 6.52656 10.5875 6.40515 10.2554 6.42615C9.92331 6.44714 9.61586 6.60856 9.41 6.87C9.2237 7.13893 9.16192 7.47493 9.24036 7.79253C9.31881 8.11014 9.52992 8.37874 9.82 8.53L13.35 11.19L14.42 11.99L8.76 7.74C8.52373 7.49849 8.19459 7.3709 7.85727 7.39006C7.51995 7.40923 7.20739 7.57328 7 7.84C6.81843 8.11241 6.76157 8.44928 6.84366 8.76619C6.92575 9.0831 7.13901 9.35001 7.43 9.5L11 12.17L13.13 13.76L8.49 10.3C8.25109 10.0661 7.92419 9.94458 7.59052 9.96555C7.25685 9.98652 6.94774 10.1481 6.74 10.41C6.55769 10.6811 6.49932 11.017 6.57946 11.3338C6.6596 11.6505 6.87069 11.9182 7.16 12.07L10.69 14.73L12.46 16.06L8.93 13.4C8.70212 13.1662 8.38561 13.0402 8.05939 13.0536C7.73317 13.067 7.428 13.2183 7.22 13.47C7.02371 13.7395 6.9529 14.0805 7.02564 14.4059C7.09838 14.7313 7.30763 15.0097 7.6 15.17L13.93 19.91C14.4536 20.3047 15.0638 20.5686 15.71 20.68C15.99 20.74 16.29 20.76 16.62 20.83C17.0981 20.9043 17.5609 21.0564 17.99 21.28C18.2992 21.4394 18.6594 21.4682 18.99 21.36C20.0921 20.9844 21.0567 20.2879 21.76 19.36C22.4287 18.4525 22.8116 17.3662 22.86 16.24C22.8865 15.9774 22.8343 15.7128 22.71 15.48Z" stroke="#165209" stroke-linecap="round" stroke-linejoin="round"/>
</g>
</svg>
