<svg width="16" height="16" viewBox="0 0 16 16" fill="none" xmlns="http://www.w3.org/2000/svg">
<path d="M8 0.5C12.1421 0.5 15.5 3.85786 15.5 8C15.5 12.1421 12.1421 15.5 8 15.5C3.85786 15.5 0.5 12.1421 0.5 8C0.5 3.85786 3.85786 0.5 8 0.5Z" fill="#6DAE4F" stroke="white"/>
<mask id="mask0_516_4039" style="mask-type:alpha" maskUnits="userSpaceOnUse" x="1" y="1" width="14" height="14">
<path d="M15 8C15 4.13401 11.866 1 8 1C4.13401 1 1 4.13401 1 8C1 11.866 4.13401 15 8 15C11.866 15 15 11.866 15 8Z" fill="white"/>
</mask>
<g mask="url(#mask0_516_4039)">
<path d="M12.1325 9.22378C12.1143 8.43804 11.9933 7.65807 11.7725 6.90378C11.1672 6.41727 10.7072 5.77388 10.4425 5.04378C10.2825 4.51378 10.1725 4.32378 9.70253 4.31378C9.50927 4.33135 9.3313 4.42619 9.20893 4.57679C9.08656 4.7274 9.03017 4.92102 9.05253 5.11378C9.05885 5.35472 9.07888 5.59511 9.11253 5.83378C9.24972 6.48941 9.44379 7.13184 9.69253 7.75378L5.19253 4.33378C5.04074 4.18592 4.83348 4.10917 4.622 4.12251C4.41051 4.13584 4.21454 4.23802 4.08253 4.40378C3.98227 4.57138 3.95439 4.77253 4.0053 4.96108C4.05621 5.14963 4.18153 5.30941 4.35253 5.40378L6.60253 7.10378L7.19253 7.66378L3.62253 4.95378C3.42709 4.75669 3.13473 4.69155 2.87411 4.78704C2.6135 4.88253 2.43242 5.12112 2.41057 5.39782C2.38873 5.67452 2.53012 5.93858 2.77253 6.07378L5.02253 7.77378L6.37253 8.77378L3.45253 6.58378C3.30074 6.43592 3.09348 6.35917 2.882 6.37251C2.67051 6.38584 2.47454 6.48802 2.34253 6.65378C2.03253 7.05378 2.28253 7.46378 2.60253 7.71378L4.85253 9.40378L5.98253 10.2538L3.73253 8.55378C3.59239 8.4012 3.3947 8.31435 3.18753 8.31435C2.98035 8.31435 2.78267 8.4012 2.64253 8.55378C2.51839 8.72677 2.47364 8.94437 2.51942 9.1523C2.56521 9.36024 2.69722 9.53892 2.88253 9.64378L6.98253 12.6438C7.57695 13.0911 9.05253 13.4775 9.70253 12.9123" stroke="#165209" stroke-width="1.5" stroke-linecap="round" stroke-linejoin="round"/>
<path fill-rule="evenodd" clip-rule="evenodd" d="M12.6125 9.90378L12.1925 9.53378C12.1379 8.79779 11.9657 8.0753 11.6825 7.39378C11.0971 6.707 10.6825 5.89145 10.4725 5.01378C10.3125 4.48378 10.2025 4.29378 9.73253 4.28378C9.53928 4.30135 9.3613 4.39619 9.23893 4.54679C9.11657 4.6974 9.06017 4.89102 9.08253 5.08378C9.08885 5.32472 9.10888 5.56511 9.14253 5.80378C9.25811 6.43536 9.44255 7.05237 9.69253 7.64378L9.50253 7.53378L5.19253 4.22378C5.04074 4.07592 4.83348 3.99917 4.622 4.01251C4.41052 4.02584 4.21455 4.12802 4.08253 4.29378C3.96484 4.46674 3.92702 4.68189 3.97866 4.88462C4.0303 5.08735 4.16644 5.25819 4.35253 5.35378L6.55253 7.04378L7.19253 7.55378L3.62253 4.84378C3.4721 4.69475 3.26567 4.61627 3.05423 4.6277C2.84279 4.63913 2.64603 4.73941 2.51253 4.90378C2.39728 5.07637 2.35981 5.28943 2.40925 5.491C2.45869 5.69256 2.5905 5.8641 2.77253 5.96378L5.02253 7.66378L6.37253 8.66378L3.45253 6.48378C3.30361 6.33175 3.09646 6.2512 2.88396 6.26269C2.67146 6.27417 2.47419 6.37659 2.34253 6.54378C2.22411 6.71546 2.18477 6.92961 2.23446 7.13217C2.28415 7.33474 2.4181 7.50637 2.60253 7.60378L4.85253 9.29378L5.98253 10.1438L3.73253 8.45378C3.59576 8.29535 3.39683 8.20428 3.18753 8.20428C2.97824 8.20428 2.7793 8.29535 2.64253 8.45378C2.51872 8.62515 2.47411 8.84129 2.51998 9.04768C2.56584 9.25406 2.69779 9.43097 2.88253 9.53378L6.98253 12.6438C7.57695 13.0911 8.32863 13.2754 9.06253 13.1538C9.60108 13.4661 10.0711 13.4661 10.4725 13.1538C11.0747 12.6853 10.8768 12.643 11.3225 12.0238C11.8273 11.3654 12.2598 10.6546 12.6125 9.90378Z" fill="#DCF0CB"/>
<path d="M12.1325 9.22378C12.1143 8.43804 11.9933 7.65807 11.7725 6.90378C11.1672 6.41727 10.7072 5.77388 10.4425 5.04378C10.2825 4.51378 10.1725 4.32378 9.70253 4.31378C9.50927 4.33135 9.3313 4.42619 9.20893 4.57679C9.08656 4.7274 9.03017 4.92102 9.05253 5.11378C9.05885 5.35472 9.07888 5.59511 9.11253 5.83378C9.24972 6.48941 9.44379 7.13184 9.69253 7.75378L5.19253 4.33378C5.04074 4.18592 4.83348 4.10917 4.622 4.12251C4.41051 4.13584 4.21454 4.23802 4.08253 4.40378C3.98227 4.57138 3.95439 4.77253 4.0053 4.96108C4.05621 5.14963 4.18153 5.30941 4.35253 5.40378L6.60253 7.10378L7.19253 7.66378L3.62253 4.95378C3.42709 4.75669 3.13473 4.69155 2.87411 4.78704C2.6135 4.88253 2.43242 5.12112 2.41057 5.39782C2.38873 5.67452 2.53012 5.93858 2.77253 6.07378L5.02253 7.77378L6.37253 8.77378L3.45253 6.58378C3.30074 6.43592 3.09348 6.35917 2.882 6.37251C2.67051 6.38584 2.47454 6.48802 2.34253 6.65378C2.03253 7.05378 2.28253 7.46378 2.60253 7.71378L4.85253 9.40378L5.98253 10.2538L3.73253 8.55378C3.59239 8.4012 3.3947 8.31435 3.18753 8.31435C2.98035 8.31435 2.78267 8.4012 2.64253 8.55378C2.51839 8.72677 2.47364 8.94437 2.51942 9.1523C2.56521 9.36024 2.69722 9.53892 2.88253 9.64378L6.98253 12.6438C7.57695 13.0911 8.96862 13.3863 9.70253 13.2648" stroke="#165209" stroke-width="0.5" stroke-linecap="round" stroke-linejoin="round"/>
<path fill-rule="evenodd" clip-rule="evenodd" d="M14.7674 11.3876C14.5651 11.1711 14.4086 10.916 14.3074 10.6376C14.3074 10.4176 14.2474 10.2076 14.2074 9.98759C14.1761 9.60384 14.0526 9.23333 13.8474 8.90759C13.2678 8.21694 12.8539 7.40283 12.6374 6.52759C12.4774 5.99759 12.3674 5.80759 11.8974 5.79759C11.7041 5.81516 11.5261 5.91 11.4038 6.0606C11.2814 6.21121 11.225 6.40483 11.2474 6.59759C11.2537 6.83853 11.2737 7.07892 11.3074 7.31759C11.4874 8.23759 11.6774 8.99759 11.6974 9.04759L7.40737 5.83759C7.25707 5.68671 7.04906 5.60789 6.83652 5.6213C6.62398 5.6347 6.42752 5.73902 6.29737 5.90759C6.1963 6.07396 6.16691 6.27417 6.2159 6.46257C6.26488 6.65097 6.38807 6.81151 6.55737 6.90759L8.80737 8.60759L9.48737 9.16759L5.88737 6.45759C5.73845 6.30556 5.5313 6.22501 5.3188 6.2365C5.1063 6.24798 4.90903 6.3504 4.77737 6.51759C4.65894 6.68927 4.61961 6.90342 4.6693 7.10598C4.71898 7.30855 4.85294 7.48018 5.03737 7.57759L7.28737 9.27759L8.63737 10.2776L5.70737 8.08759C5.55598 7.9413 5.34945 7.86642 5.13949 7.88169C4.92952 7.89696 4.736 8.00094 4.60737 8.16759C4.29737 8.56759 4.53737 8.97759 4.86737 9.22759L7.11737 10.9076L8.23737 11.7576L5.94737 10.0576C5.65591 9.80438 5.21768 9.8219 4.94737 10.0976C4.82361 10.2633 4.77481 10.4732 4.81281 10.6764C4.8508 10.8797 4.97212 11.0578 5.14737 11.1676L9.14737 14.1676C9.48105 14.4181 9.86754 14.5891 10.2774 14.6676L10.8574 14.7576C11.1621 14.8028 11.4565 14.9009 11.7274 15.0476C11.9141 15.1388 12.1282 15.1566 12.3274 15.0976C13.0306 14.8496 13.6459 14.4011 14.0974 13.8076C14.5202 13.2231 14.7634 12.5281 14.7974 11.8076C14.8228 11.6673 14.8124 11.5229 14.7674 11.3876Z" stroke="#165209" stroke-width="1.5" stroke-linecap="round" stroke-linejoin="round"/>
<path fill-rule="evenodd" clip-rule="evenodd" d="M14.8074 11.3376L14.3574 10.9976C14.3075 10.2609 14.1352 9.5376 13.8474 8.85759C13.266 8.16813 12.8519 7.35359 12.6374 6.47759C12.4774 5.94759 12.3674 5.75759 11.8974 5.74759C11.7041 5.76516 11.5261 5.86 11.4038 6.0106C11.2814 6.16121 11.225 6.35483 11.2474 6.54759C11.2537 6.78853 11.2737 7.02892 11.3074 7.26759C11.4874 8.19759 11.6774 8.95759 11.6974 8.99759L7.40737 5.78759C7.25558 5.63973 7.04832 5.56298 6.83684 5.57632C6.62536 5.58965 6.42938 5.69183 6.29737 5.85759C5.98737 6.26759 6.23737 6.66759 6.55737 6.91759L8.80737 8.60759L9.48737 9.16759L5.88737 6.40759C5.73558 6.25973 5.52832 6.18298 5.31684 6.19632C5.10536 6.20965 4.90939 6.31183 4.77737 6.47759C4.46737 6.87759 4.71737 7.28759 5.03737 7.53759L7.28737 9.22759L8.63737 10.2276L5.70737 8.03759C5.55734 7.89017 5.35165 7.81356 5.14174 7.82692C4.93182 7.84028 4.73751 7.94234 4.60737 8.10759C4.48561 8.27829 4.44431 8.49358 4.49426 8.69722C4.54421 8.90086 4.68044 9.07261 4.86737 9.16759L7.11737 10.8576L8.23737 11.7076L5.94737 10.0176C5.65971 9.75379 5.21305 9.77166 4.94737 10.0576C4.80594 10.224 4.74642 10.4449 4.78514 10.6598C4.82386 10.8747 4.95676 11.061 5.14737 11.1676L9.14737 14.1676C9.75384 14.5293 10.4417 14.7322 11.1474 14.7576C11.4034 14.9141 11.6708 15.0511 11.9474 15.1676C12.7497 15.0163 13.4645 14.566 13.9474 13.9076C14.4744 13.1511 14.773 12.259 14.8074 11.3376Z" fill="#DDF6D1"/>
<path fill-rule="evenodd" clip-rule="evenodd" d="M14.7674 11.3876C14.5651 11.1711 14.4086 10.916 14.3074 10.6376C14.3074 10.4176 14.2474 10.2076 14.2074 9.98759C14.1761 9.60384 14.0526 9.23333 13.8474 8.90759C13.2678 8.21694 12.8539 7.40283 12.6374 6.52759C12.4774 5.99759 12.3674 5.80759 11.8974 5.79759C11.7041 5.81516 11.5261 5.91 11.4038 6.0606C11.2814 6.21121 11.225 6.40483 11.2474 6.59759C11.2537 6.83853 11.2737 7.07892 11.3074 7.31759C11.4874 8.23759 11.6774 8.99759 11.6974 9.04759L7.40737 5.83759C7.25707 5.68671 7.04906 5.60789 6.83652 5.6213C6.62398 5.6347 6.42752 5.73902 6.29737 5.90759C6.1963 6.07396 6.16691 6.27417 6.2159 6.46257C6.26488 6.65097 6.38807 6.81151 6.55737 6.90759L8.80737 8.60759L9.48737 9.16759L5.88737 6.45759C5.73845 6.30556 5.5313 6.22501 5.3188 6.2365C5.1063 6.24798 4.90903 6.3504 4.77737 6.51759C4.65894 6.68927 4.61961 6.90342 4.6693 7.10598C4.71898 7.30855 4.85294 7.48018 5.03737 7.57759L7.28737 9.27759L8.63737 10.2776L5.70737 8.08759C5.55598 7.9413 5.34945 7.86642 5.13949 7.88169C4.92952 7.89696 4.736 8.00094 4.60737 8.16759C4.29737 8.56759 4.53737 8.97759 4.86737 9.22759L7.11737 10.9076L8.23737 11.7576L5.94737 10.0576C5.65591 9.80438 5.21768 9.8219 4.94737 10.0976C4.82361 10.2633 4.77481 10.4732 4.81281 10.6764C4.8508 10.8797 4.97212 11.0578 5.14737 11.1676L9.14737 14.1676C9.48105 14.4181 9.86754 14.5891 10.2774 14.6676L10.8574 14.7576C11.1621 14.8028 11.4565 14.9009 11.7274 15.0476C11.9141 15.1388 12.1282 15.1566 12.3274 15.0976C13.0306 14.8496 13.6459 14.4011 14.0974 13.8076C14.5202 13.2231 14.7634 12.5281 14.7974 11.8076C14.8228 11.6673 14.8124 11.5229 14.7674 11.3876Z" stroke="#165209" stroke-width="0.5" stroke-linecap="round" stroke-linejoin="round"/>
<path d="M8.82863 2.81808L8.09863 3.73808" stroke="#165209" stroke-linecap="round" stroke-linejoin="round"/>
<path d="M5.49383 1.62473L5.55858 2.81808" stroke="#165209" stroke-linecap="round" stroke-linejoin="round"/>
<path d="M7.53754 1.63295L6.88925 3.19335" stroke="#165209" stroke-linecap="round" stroke-linejoin="round"/>
</g>
</svg>
