<svg width="48" height="48" viewBox="0 0 48 48" fill="none" xmlns="http://www.w3.org/2000/svg">
<path d="M24 46C36.1503 46 46 36.1503 46 24C46 11.8497 36.1503 2 24 2C11.8497 2 2 11.8497 2 24C2 36.1503 11.8497 46 24 46Z" fill="#6DAE4F"/>
<mask id="mask0_516_4041" style="mask-type:alpha" maskUnits="userSpaceOnUse" x="2" y="2" width="44" height="44">
<path d="M24 46C36.1503 46 46 36.1503 46 24C46 11.8497 36.1503 2 24 2C11.8497 2 2 11.8497 2 24C2 36.1503 11.8497 46 24 46Z" fill="white"/>
</mask>
<g mask="url(#mask0_516_4041)">
<path fill-rule="evenodd" clip-rule="evenodd" d="M39.72 29.9L38.31 28.83C38.31 28.83 37.72 23.2 36.7 22.12C34.869 19.9494 33.5619 17.3866 32.88 14.63C32.4 12.96 32.06 12.37 30.56 12.34C29.3162 12.4914 28.425 13.6143 28.56 14.86C28.589 15.6133 28.6591 16.3644 28.77 17.11C29.1731 19.1002 29.7796 21.0438 30.58 22.91L30 22.56L16.3 12.16C15.3 11.4 13.81 11.05 12.81 12.38C11.81 13.71 12.62 14.94 13.64 15.7L20.66 21L22.78 22.6L11.46 14.11C10.44 13.34 9 13 8 14.32C7 15.64 7.8 16.88 8.82 17.64L15.87 23L20.12 26.19L10.92 19.27C9.92 18.5 8.44 18.16 7.44 19.49C6.44 20.82 7.25 22.04 8.26 22.81L15.34 28.13L18.87 30.79L11.8 25.44C10.8 24.67 9.34 24.3 8.38 25.57C7.42 26.84 8.12 28.21 9.14 28.98L22 38.75C23.8781 40.1532 26.2467 40.7309 28.56 40.35C29.27 40.87 30.68 41.94 30.68 41.94C32.5904 40.4819 34.2752 38.7499 35.68 36.8C37.2758 34.6552 38.6306 32.3413 39.72 29.9Z" fill="#DCF0CB"/>
<path fill-rule="evenodd" clip-rule="evenodd" d="M31.22 23.52L29.09 21.93L31.22 23.52Z" fill="#93D870"/>
<path d="M39.62 30.14L39.72 29.9" stroke="#43722B" stroke-width="1.77" stroke-linecap="round" stroke-linejoin="round"/>
<path d="M38.19 27.88C37.98 26.23 37.83 21.27 37.07 20.47C35.21 18.47 33.67 17.32 32.88 14.63C32.4 12.96 32.06 12.37 30.56 12.34C29.3162 12.4914 28.425 13.6143 28.56 14.86C28.589 15.6133 28.6591 16.3644 28.77 17.11C29.1965 19.2014 29.8021 21.2523 30.58 23.24L16.25 12.5C15.25 11.73 13.76 11.39 12.76 12.71C11.76 14.03 12.57 15.27 13.59 16.03L20.66 21.36L22.78 23L11.46 14.44C10.46 13.67 8.97 13.33 7.98 14.65C6.99 15.97 7.78 17.21 8.8 17.98L15.87 23.3L20.12 26.49L10.92 19.57C9.92 18.81 8.44 18.46 7.44 19.79C6.44 21.12 7.25 22.34 8.26 23.11L15.34 28.43L18.87 31.09L11.8 25.77C10.8 25.01 9.34 24.63 8.38 25.9C7.42 27.17 8.12 28.54 9.14 29.31L22 38.75C23.8781 40.1532 26.2467 40.7309 28.56 40.35" stroke="#165209" stroke-width="2" stroke-linecap="round" stroke-linejoin="round"/>
<path d="M31.22 23.52L29.09 21.93" stroke="#43722B" stroke-width="1.77" stroke-linecap="round" stroke-linejoin="round"/>
<path fill-rule="evenodd" clip-rule="evenodd" d="M45.57 31L44.15 29.93C44.15 29.93 43.56 24.3 42.54 23.22C40.7123 21.0487 39.4086 18.4859 38.73 15.73C38.24 14.06 37.9 13.47 36.4 13.44C35.1562 13.5914 34.265 14.7143 34.4 15.96C34.424 16.7136 34.4942 17.465 34.61 18.21C35.16 21.13 35.76 23.52 35.84 23.66L22.3 13.53C21.3 12.76 19.81 12.42 18.81 13.75C17.81 15.08 18.62 16.3 19.64 17.07L26.71 22.39L28.83 24L17.51 15.47C16.51 14.7 15.02 14.36 14.03 15.69C13.04 17.02 13.83 18.24 14.85 19.01L21.92 24.33L26.17 27.52L17 20.6C16 19.84 14.52 19.49 13.52 20.82C12.52 22.15 13.33 23.38 14.34 24.14L21.42 29.47L24.95 32.13L17.85 26.8C16.85 26.04 15.39 25.66 14.43 26.93C13.47 28.2 14.17 29.58 15.19 30.34L27.86 39.81C30.1 41.48 34.12 41.7 34.06 41.7C34.8565 42.1947 35.6888 42.6293 36.55 43C39.1055 42.5341 41.3833 41.1016 42.91 39C44.5432 36.6425 45.4664 33.8661 45.57 31Z" fill="#DDF6D1"/>
<path d="M15.57 5.44L16.27 8.56" stroke="#165209" stroke-width="2" stroke-linecap="round" stroke-linejoin="round"/>
<path d="M25.49 9.25L22.89 11.1" stroke="#165209" stroke-width="2" stroke-linecap="round" stroke-linejoin="round"/>
<path d="M21.48 4.87L19.58 9.83" stroke="#165209" stroke-width="2" stroke-linecap="round" stroke-linejoin="round"/>
<path fill-rule="evenodd" clip-rule="evenodd" d="M15.57 5.44L16.27 8.56L15.57 5.44Z" fill="#231F20"/>
<path fill-rule="evenodd" clip-rule="evenodd" d="M25.49 9.25L22.89 11.1L25.49 9.25Z" fill="#231F20"/>
<path fill-rule="evenodd" clip-rule="evenodd" d="M21.48 4.87L19.58 9.83L21.48 4.87Z" fill="#231F20"/>
<path fill-rule="evenodd" clip-rule="evenodd" d="M15.57 5.44L16.27 8.56L15.57 5.44Z" fill="#231F20"/>
<path fill-rule="evenodd" clip-rule="evenodd" d="M25.49 9.25L22.89 11.1L25.49 9.25Z" fill="#231F20"/>
<path fill-rule="evenodd" clip-rule="evenodd" d="M21.48 4.87L19.58 9.83L21.48 4.87Z" fill="#231F20"/>
<path fill-rule="evenodd" clip-rule="evenodd" d="M45.42 31C44.7916 30.3063 44.3088 29.4936 44 28.61C43.84 27.94 43.8 27.25 43.67 26.61C43.48 25.61 43.31 24.02 42.55 23.21C40.7223 21.0387 39.4186 18.4759 38.74 15.72C38.25 14.05 37.91 13.46 36.41 13.43C35.1662 13.5814 34.275 14.7043 34.41 15.95C34.434 16.7036 34.5042 17.455 34.62 18.2C35.17 21.12 35.77 23.51 35.85 23.65L22.3 13.53C21.3 12.76 19.81 12.42 18.81 13.75C17.81 15.08 18.62 16.3 19.64 17.07L26.71 22.39L28.83 24L17.51 15.47C16.51 14.7 15.02 14.36 14.03 15.69C13.04 17.02 13.83 18.24 14.85 19.01L21.92 24.33L26.17 27.52L17 20.6C16 19.84 14.52 19.49 13.52 20.82C12.52 22.15 13.33 23.38 14.34 24.14L21.42 29.47L24.95 32.13L17.85 26.8C16.85 26.04 15.39 25.66 14.43 26.93C13.47 28.2 14.17 29.58 15.19 30.34L27.86 39.81C28.9043 40.6017 30.1205 41.1361 31.41 41.37C31.98 41.47 32.58 41.53 33.24 41.65C34.1942 41.8052 35.1165 42.116 35.97 42.57C36.5615 42.8587 37.2405 42.9123 37.87 42.72C40.0826 41.9488 42.015 40.5352 43.42 38.66C44.7578 36.8421 45.5206 34.6653 45.61 32.41C45.6801 31.9315 45.6142 31.4429 45.42 31Z" stroke="#165209" stroke-width="2" stroke-linecap="round" stroke-linejoin="round"/>
</g>
</svg>
