<svg width="48" height="48" viewBox="0 0 48 48" fill="none" xmlns="http://www.w3.org/2000/svg">
<path d="M14.8889 32H14.4489C14.3661 32.0144 14.2816 32.0144 14.1989 32C13.4089 31.71 9.37886 30.17 6.66886 29.41C6.32937 29.3184 6.07987 29.0293 6.03886 28.68C5.92671 28.0643 6.05948 27.4292 6.40886 26.91C6.68447 26.5309 7.13045 26.3135 7.59886 26.33C7.83738 26.3291 8.07424 26.3698 8.29886 26.45C8.83673 26.6629 9.33913 26.9562 9.78886 27.32L9.97886 27.47L11.2289 28.34C11.6889 28.67 12.0989 28.95 12.3889 29.17L15.3089 30.36C15.6989 30.54 17.3089 31.28 17.3089 31.7C17.3089 32.12 15.4489 32.07 15.0589 32.08L14.8889 32Z" fill="#9983B1"/>
<path d="M44.1973 44.52C40.2241 44.4263 36.2648 44.0149 32.3573 43.29H32.1473C29.1861 42.8826 26.256 42.2746 23.3773 41.47C20.8173 40.7 18.2973 39.7 15.8573 38.74L14.7673 38.31C12.4573 37.41 10.5773 36.65 8.86726 35.92L8.22726 35.65C7.19541 35.251 6.19293 34.7798 5.22726 34.24C3.89726 33.46 3.48726 32.46 4.03726 31.24V31.15C4.3729 30.3781 5.17008 29.9127 6.00726 30H6.11726C6.31031 29.9851 6.50422 29.9851 6.69726 30C8.81726 30.23 14.9673 32.57 16.1773 33L20.1773 33.14H20.2773L29.2773 33.45C28.5773 32.81 26.8273 31.7 22.5273 30.59C21.7073 30.38 20.9673 30.14 20.7973 29.59C20.5165 28.6635 20.8249 27.6592 21.5773 27.05C22.1462 26.7208 22.8024 26.5742 23.4573 26.63C24.2253 26.6298 24.9906 26.7204 25.7373 26.9C26.1973 27.02 26.5673 27.14 26.9273 27.25C27.8609 27.5702 28.8266 27.7882 29.8073 27.9C31.3802 28.1455 32.9316 28.5132 34.4473 29C39.4473 30.36 40.4473 32.87 41.0373 34.38C41.0373 34.29 41.0373 34.46 41.0373 34.38C40.8473 33.76 41.0373 34.22 41.1373 33.99L41.2773 33.79H41.6173C41.7604 33.8 41.9041 33.8 42.0473 33.79C42.9073 33.79 44.5473 33.7 44.5573 33.7C44.9527 33.6866 45.3051 33.9478 45.4073 34.33C47.1173 40.56 44.7673 44.02 44.6673 44.16C44.5695 44.3407 44.391 44.4634 44.1873 44.49L44.1973 44.52Z" fill="#BBA9D1"/>
<path fill-rule="evenodd" clip-rule="evenodd" d="M16.2199 11.35C15.292 10.3822 14.0143 9.82756 12.6737 9.81064C11.3331 9.79372 10.0418 10.3159 9.08985 11.26L8.99985 11.35C7.00005 13.388 7.00005 16.652 8.99985 18.69L16.7899 26.59L24.5899 18.69C26.5897 16.652 26.5897 13.388 24.5899 11.35C23.641 10.3756 22.3399 9.82411 20.9799 9.81999C19.6219 9.81996 18.3223 10.3723 17.3799 11.35L16.8099 11.93L16.2199 11.35Z" fill="#DF704D"/>
<path fill-rule="evenodd" clip-rule="evenodd" d="M45.1468 34.3209C45.5052 34.5968 46.89 36.8221 46.6303 39.3709C46.3705 41.9196 44.7598 44.2609 44.3492 44.661C43.9386 45.0611 29.1619 43.1753 25.7002 42.499C22.2385 41.8227 5.54975 34.4263 4.9075 34.0449C4.26525 33.6636 4.20679 30.9209 6.04116 30.352C7.87553 29.7832 11.8964 32.5006 15.5667 33.1009C19.237 33.7011 25.7668 34.0449 28.2481 34.0449C30.7294 34.0449 25.5668 31.883 24.353 31.4019C23.1392 30.9209 21.1502 30.5271 20.7369 29.2402C20.3237 27.9534 21.6626 27 22.7628 27C23.4962 27 25.458 27.4943 28.648 28.483C31.7857 28.483 34.3848 28.9307 36.4452 29.8262C39.5358 31.1695 40.7823 33.5968 41.1245 34.3209C41.4667 35.0449 44.7884 34.0449 45.1468 34.3209Z" stroke="#493D57" stroke-width="2"/>
<path d="M6.83846 30.1697C5.90576 28.1438 7.05466 27 8.41645 27C9.77825 27 10.8153 28.483 12.7829 29.8262C14.0947 30.7218 16.3931 32.0134 19.6781 33.7011" stroke="#493D57" stroke-width="2"/>
<path fill-rule="evenodd" clip-rule="evenodd" d="M16.1556 10.6304C13.9942 8.51055 10.5559 8.53535 8.42459 10.6861C6.29325 12.8369 6.25402 16.3213 8.33638 18.5208L16.7699 27L25.2035 18.5095C26.453 17.2324 27.0186 15.4233 26.7229 13.65C26.4272 11.8766 25.3064 10.3563 23.7122 9.56623C22.9615 9.18684 22.1328 8.99288 21.2939 9.0002C19.8347 9.00645 18.438 9.60118 17.4122 10.653L16.7699 11.2643L16.1556 10.6304Z" stroke="#77280C" stroke-width="2" stroke-linecap="round" stroke-linejoin="round"/>
</svg>
