<svg width="24" height="24" viewBox="0 0 24 24" fill="none" xmlns="http://www.w3.org/2000/svg">
<path d="M12 1.5C17.799 1.5 22.5 6.20101 22.5 12C22.5 17.799 17.799 22.5 12 22.5C6.20101 22.5 1.5 17.799 1.5 12C1.5 6.20101 6.20101 1.5 12 1.5ZM12 0C5.37258 0 0 5.37258 0 12C0 18.6274 5.37258 24 12 24C18.6274 24 24 18.6274 24 12C24 8.8174 22.7357 5.76516 20.4853 3.51472C18.2348 1.26428 15.1826 0 12 0Z" fill="white"/>
<mask id="mask0_3908_14467" style="mask-type:alpha" maskUnits="userSpaceOnUse" x="1" y="1" width="22" height="22">
<path d="M12 23C18.0751 23 23 18.0751 23 12C23 5.92487 18.0751 1 12 1C5.92487 1 1 5.92487 1 12C1 18.0751 5.92487 23 12 23Z" fill="white"/>
</mask>
<g mask="url(#mask0_3908_14467)">
<path d="M12 23C18.0751 23 23 18.0751 23 12C23 5.92487 18.0751 1 12 1C5.92487 1 1 5.92487 1 12C1 18.0751 5.92487 23 12 23Z" fill="#D8D8D8"/>
<path d="M12 23C18.0751 23 23 18.0751 23 12C23 5.92487 18.0751 1 12 1C5.92487 1 1 5.92487 1 12C1 18.0751 5.92487 23 12 23Z" fill="#BBA9D1"/>
<path d="M8.36363 14.2809H8.15454C8.1164 14.2863 8.07768 14.2863 8.03954 14.2809C7.68409 14.1502 5.87545 13.4602 4.66273 13.1205C4.51095 13.0775 4.39972 12.9477 4.38045 12.7911C4.33181 12.5163 4.39178 12.2333 4.54773 12.0018C4.66944 11.8353 4.8642 11.7379 5.07045 11.7405C5.17554 11.7395 5.27996 11.7572 5.37886 11.7927C5.62008 11.8863 5.84434 12.0187 6.04273 12.1848L6.13159 12.2475L6.69091 12.6395C6.9 12.7859 7.08295 12.9114 7.21363 13.0107L8.52045 13.5334C8.69818 13.6118 9.43523 13.9464 9.39341 14.1293C9.35159 14.3123 8.56227 14.2966 8.38454 14.3018L8.36363 14.2809Z" fill="#FDE7FF"/>
<path opacity="0.23" d="M5.08614 11.9339C5.17001 11.9364 5.25295 11.9523 5.33182 11.9809C5.5839 12.0865 5.81973 12.2273 6.03227 12.3991L7.13523 13.1727L9.33068 14.1136C8.93896 14.1509 8.54422 14.1422 8.15455 14.0875H8.10227C7.60568 13.8993 5.89636 13.2564 4.70977 12.927C4.64073 12.9058 4.58994 12.8469 4.57909 12.7755C4.54313 12.5574 4.58972 12.3337 4.70977 12.1482C4.79862 12.0344 4.93668 11.9703 5.08091 11.9757L5.08614 11.9339ZM5.08091 11.5418C4.80668 11.5373 4.54664 11.6634 4.38046 11.8816C4.20262 12.1511 4.13179 12.4773 4.18182 12.7964C4.20391 13.042 4.37386 13.2493 4.61046 13.3191C5.82841 13.6589 7.61614 14.3384 7.96636 14.4743C8.02918 14.494 8.09409 14.5063 8.15977 14.5109H8.41068C8.6825 14.5109 10.8675 14.788 10.9302 14.5109C10.5016 14.26 8.89159 13.4655 8.63546 13.3348L7.33909 12.812C7.20318 12.7127 7.00977 12.582 6.81636 12.4514C6.62296 12.3207 6.40341 12.1691 6.29364 12.0698L6.20477 12.007C5.98825 11.8299 5.74469 11.6888 5.48341 11.5889C5.36228 11.5473 5.2351 11.5261 5.10705 11.5261L5.08091 11.5418Z" fill="#FCE2BA"/>
<path d="M21.228 19.9055C19.4502 19.8698 17.678 19.6951 15.9275 19.3827H15.8282C14.5011 19.1994 13.1878 18.927 11.8973 18.5673C10.7525 18.2223 9.62341 17.7727 8.53091 17.3441L8.04478 17.1559C6.99932 16.7482 6.16818 16.4084 5.39978 16.0843L5.11228 15.9641C4.65104 15.7831 4.20226 15.5718 3.76887 15.3316C3.16773 14.9814 2.98478 14.5318 3.24614 13.9986V13.9568C3.40373 13.6267 3.74943 13.4289 4.11387 13.4602H4.18182C4.26886 13.455 4.35614 13.455 4.44318 13.4602C5.39455 13.5648 8.14932 14.6102 8.69296 14.8193L10.4702 14.882H10.512L14.5318 15.018C14.2182 14.7357 13.4289 14.2339 11.5052 13.7373C11.1393 13.6432 10.8048 13.5386 10.7264 13.272C10.6053 12.8579 10.7431 12.4115 11.0766 12.1377C11.3304 11.9879 11.6244 11.9203 11.9182 11.9443C12.2704 11.9451 12.6213 11.9872 12.9636 12.0698C13.1675 12.122 13.3348 12.1743 13.4864 12.2266C13.905 12.3692 14.3379 12.4656 14.7775 12.5141C15.4962 12.6174 16.2058 12.7764 16.8998 12.9898C19.1423 13.5909 19.5761 14.7148 19.8584 15.3943C19.7695 15.1173 19.8584 15.3211 19.9002 15.2166L19.963 15.1277H20.1145C20.1789 15.1329 20.2436 15.1329 20.308 15.1277C20.6948 15.1277 21.4266 15.0911 21.437 15.0911C21.62 15.0911 22.4825 14.8768 22.4825 15.0493C22.5629 16.6775 22.2188 18.2987 21.4841 19.7539C21.4406 19.8354 21.3611 19.8916 21.2698 19.9055H21.228Z" fill="#EAE2F3"/>
<path d="M20.1773 15.1277C20.2226 15.1539 20.2784 15.1539 20.3236 15.1277H20.1773Z" fill="#D67676"/>
<path fill-rule="evenodd" clip-rule="evenodd" d="M8.93017 4.63814C8.09146 3.80472 6.71452 3.78728 5.85361 4.59917L5.81842 4.63814C4.95887 5.49157 4.95887 6.85361 5.81842 7.70703L9.17147 11L12.5296 7.70216C13.3885 6.85039 13.3885 5.48992 12.5296 4.63814C12.1211 4.22911 11.5585 3.99873 10.9712 4.00001C10.388 4.00009 9.82967 4.22846 9.42283 4.63327L9.1765 4.87684L8.93017 4.63814Z" fill="#ECAA96"/>
<path fill-rule="evenodd" clip-rule="evenodd" d="M22.8904 15.3062C23.056 15.4308 23.0634 16.7245 22.7047 17.862C22.346 18.9995 21.6097 19.7952 21.4199 19.9759C21.2302 20.1566 14.3815 19.2724 12.7996 18.9995C11.2177 18.7266 3.48524 15.3538 3.18836 15.1816C2.89149 15.0093 2.86447 13.7707 3.71239 13.5138C4.56031 13.2569 6.75259 14.6328 8.11548 14.7552C9.47837 14.8776 12.6229 15.0093 13.7699 15.0093C14.9168 15.0093 12.7379 14.2052 12.1769 13.9879C11.6158 13.7707 10.6964 13.5929 10.5054 13.0117C10.3144 12.4306 10.9332 12 11.4418 12C11.7808 12 12.6876 12.2232 14.1622 12.6697C15.6126 12.6697 16.814 12.8719 17.7664 13.2764C19.195 13.883 19.7712 14.9792 19.9293 15.3062C20.0875 15.6332 22.7247 15.1816 22.8904 15.3062Z" stroke="#493D57"/>
<path d="M4.10849 13.4699C3.75236 12.5046 4.33184 12 4.99297 12C5.65409 12 6.33531 12.6124 7.43706 13.2953C8.17156 13.7506 9.3592 14.3188 11 15" stroke="#493D57"/>
<path fill-rule="evenodd" clip-rule="evenodd" d="M8.74223 5.13403C7.8777 4.30966 6.50238 4.3193 5.64984 5.15571C4.79731 5.99213 4.78161 7.34719 5.61456 8.20255L8.98797 11.5L12.3614 8.19815C12.8612 7.70149 13.0875 6.99796 12.9692 6.30832C12.8509 5.61868 12.4026 5.02746 11.7649 4.7202C11.4646 4.57266 11.1331 4.49723 10.7976 4.50008C10.2139 4.50251 9.65519 4.73379 9.24489 5.14284L8.98797 5.38057L8.74223 5.13403Z" stroke="#77280C" stroke-linecap="round" stroke-linejoin="round"/>
</g>
</svg>
