<svg width="24" height="24" viewBox="0 0 24 24" fill="none" xmlns="http://www.w3.org/2000/svg">
<path d="M7.44924 15.4121H7.24391C7.20531 15.4187 7.16584 15.4187 7.12724 15.4121C6.75858 15.2789 4.95547 14.3524 3.6908 14.0033C3.53237 13.9611 3.53727 13.6621 3.51814 13.5016C3.4658 13.2187 3.52776 12.9269 3.6908 12.6884C3.81942 12.5142 4.02754 12.4143 4.24614 12.4219C4.35745 12.4215 4.46798 12.4402 4.5728 12.477C4.82381 12.5748 5.05826 12.7096 5.26814 12.8768L5.3568 12.9457L5.94014 13.3454C6.1548 13.497 6.34614 13.6257 6.48147 13.7268L7.84414 14.2735C8.02614 14.3562 9.28009 15.5042 9.28009 15.6972C9.28009 15.8902 7.71058 15.4443 7.52858 15.4489L7.44924 15.4121Z" fill="#9983B1"/>
<path d="M22.1892 21.5544C20.2134 21.5073 18.2444 21.3005 16.3012 20.936H16.1968C14.7243 20.7312 13.2671 20.4255 11.8356 20.021C10.5625 19.6339 9.30934 19.1312 8.09595 18.6485L7.5539 18.4323C6.40516 17.9799 5.47025 17.5978 4.61989 17.2308L4.30162 17.095C3.78849 16.8944 3.28997 16.6575 2.80975 16.3862C2.14835 15.994 1.94446 15.4913 2.21797 14.8779V14.8327C2.38488 14.4446 2.78131 14.2106 3.19763 14.2545H3.25234C3.34834 14.247 3.44476 14.247 3.54076 14.2545C4.59502 14.3701 7.65336 15.5466 8.25508 15.7627L10.2442 15.8331H10.294L14.7696 15.989C14.4215 15.6672 13.5512 15.1092 11.4129 14.5511C11.0051 14.4455 10.6371 14.3249 10.5526 14.0484C10.4129 13.5826 10.5663 13.0777 10.9405 12.7714C11.2234 12.6059 11.5497 12.5322 11.8754 12.5602C12.2573 12.5601 12.4218 12.6811 12.7931 12.7714C13.0219 12.8317 13.2563 13.1063 13.4354 13.1616C13.8997 13.3226 14.5251 13.3679 15.0128 13.4241C15.795 13.5475 16.5868 13.507 17.3406 13.7517C19.827 14.4355 20.3243 15.6974 20.6177 16.4565C20.5232 16.1448 20.6177 16.3761 20.6675 16.2605L20.7546 16.5965L20.9592 16.5404C21.0304 16.5454 21.0967 16.5454 21.1679 16.5404C21.5956 16.5404 21.816 16.5404 21.821 16.5404L22.0535 16.6842C22.2501 16.6774 22.3721 16.5468 22.4229 16.7389C23.2733 19.8711 22.4726 21.303 22.4229 21.3734C22.3743 21.4642 22.2855 21.526 22.1842 21.5393L22.1892 21.5544Z" fill="#BBA9D1"/>
<path fill-rule="evenodd" clip-rule="evenodd" d="M8.06926 5.53919C7.63627 5.09453 7.04002 4.8397 6.4144 4.83192C5.78878 4.82415 5.18619 5.06408 4.74193 5.49784L4.69993 5.53919C3.76669 6.47558 3.76669 7.97523 4.69993 8.91163L8.33526 12.5414L11.9753 8.91163C12.9085 7.97523 12.9085 6.47558 11.9753 5.53919C11.5325 5.09148 10.9253 4.83811 10.2906 4.83622C9.65687 4.8362 9.0504 5.08997 8.6106 5.53919L8.3446 5.80568L8.06926 5.53919Z" fill="#DF704D"/>
<path fill-rule="evenodd" clip-rule="evenodd" d="M22.2873 16.7194C22.4558 16.8596 23.107 17.9902 22.9848 19.2851C22.8627 20.58 22.1053 21.7696 21.9123 21.9728C21.7192 22.1761 14.7524 21.1815 13.1433 20.8744C11.5341 20.5674 2.49361 16.4458 2.19161 16.2521C1.88962 16.0583 1.86213 14.6649 2.72467 14.3758C3.58721 14.0868 6.99203 15.9619 8.37842 16.0996C9.7648 16.2374 13.2165 16.4428 14.3832 16.4428C15.5499 16.4428 13.0806 15.4808 12.5098 15.2364C11.9391 14.992 10.7209 14.7374 10.5266 14.0836C10.3323 13.4298 10.7958 13 11.3131 13C11.658 13 12.7301 13.2511 14.5294 13.7534C16.0048 13.7534 17.2269 13.9809 18.1957 14.4359C19.649 15.1184 20.2351 16.3516 20.396 16.7194C20.5569 17.0873 22.1188 16.5793 22.2873 16.7194Z" stroke="#493D57"/>
<path d="M3.26091 14.0836C3.03201 13.1616 3.48336 12.7246 4.0315 12.6057C4.57963 12.4868 6.16246 13.4511 6.92167 14.0836C7.42781 14.5052 8.66836 15.2259 10.6433 16.2457" stroke="#493D57"/>
<path fill-rule="evenodd" clip-rule="evenodd" d="M8.21001 5.22461C7.23741 4.28247 5.69018 4.29349 4.73107 5.24939C3.77197 6.20529 3.75431 7.75393 4.69138 8.73149L8.48647 12.5L12.2816 8.72646C12.8438 8.15885 13.0984 7.35481 12.9653 6.56665C12.8323 5.77849 12.3279 5.10281 11.6105 4.75166C11.2727 4.58304 10.8998 4.49684 10.5223 4.50009C9.86561 4.50287 9.23709 4.76719 8.7755 5.23467L8.48647 5.50637L8.21001 5.22461Z" stroke="#77280C" stroke-linecap="round" stroke-linejoin="round"/>
</svg>
