<svg width="72" height="72" viewBox="0 0 72 72" fill="none" xmlns="http://www.w3.org/2000/svg">
<path d="M23.1334 48.3243H22.4685C22.3435 48.3461 20.5273 48.1409 20.4023 48.1192C19.2086 47.6802 14.8071 45.5546 10.712 44.4043C10.199 44.2656 9.82198 43.8281 9.76002 43.2995C9.59055 42.3676 9.79117 41.4063 10.3191 40.6205C10.7356 40.0468 11.4095 39.7178 12.1174 39.7427C12.4778 39.7414 12.8357 39.8029 13.1751 39.9243C13.9879 40.2465 14.7471 40.6905 15.4267 41.2411L15.7138 41.4681L17.6027 42.7849C18.2978 43.2843 18.9174 43.7081 19.3556 44.0411L23.768 45.8422C24.3574 46.1146 26.7902 47.2346 26.7902 47.8703C26.7902 48.5059 23.9796 48.4303 23.3902 48.4454L23.1334 48.3243Z" fill="#9983B1"/>
<path d="M66.5778 67.2735C60.5739 67.1316 54.591 66.5091 48.6862 65.4119H48.3689C43.8942 64.7953 39.4666 63.875 35.1165 62.6573C31.248 61.4919 27.44 59.9784 23.7529 58.5254L22.1058 57.8746C18.6151 56.5124 15.7742 55.3622 13.1902 54.2573L12.2231 53.8486C10.6639 53.2447 9.14903 52.5316 7.68979 51.7146C5.68002 50.5341 5.06046 49.0205 5.89157 47.1741V47.0378C6.39876 45.8696 7.60339 45.1652 8.86846 45.2973H9.03468C9.3264 45.2748 9.61941 45.2748 9.91113 45.2973C13.1147 45.6454 22.408 49.187 24.2365 49.8378L30.2809 50.0497H30.432L44.032 50.5189C42.9742 49.5503 40.3298 47.8703 33.832 46.1903C32.5929 45.8724 31.4747 45.5092 31.2178 44.6768C30.7935 43.2745 31.2595 41.7545 32.3965 40.8324C33.2561 40.3342 34.2477 40.1123 35.2374 40.1968C36.3979 40.1964 37.5543 40.3336 38.6827 40.6054C39.3778 40.787 39.9369 40.9686 40.4809 41.1351C41.8918 41.6198 43.351 41.9497 44.8329 42.1189C47.2098 42.4904 49.5541 43.0471 51.8445 43.7838C59.4 45.8422 60.9111 49.6411 61.8027 51.9265C61.5156 50.9881 61.8027 51.6843 61.9538 51.3362L62.1653 51.0335H62.6791C62.8955 51.0486 63.1126 51.0486 63.3289 51.0335C64.6285 51.0335 67.1067 50.8973 67.1218 50.8973C67.7193 50.877 68.2518 51.2723 68.4062 51.8508C70.9902 61.28 67.4391 66.5168 67.288 66.7286C67.1403 67.0021 66.8705 67.1879 66.5627 67.2281L66.5778 67.2735Z" fill="#BBA9D1"/>
<path d="M63.0267 51.1243C63.1733 51.2215 63.3636 51.2215 63.5102 51.1243H63.0267Z" fill="#D67676"/>
<path fill-rule="evenodd" clip-rule="evenodd" d="M23.5965 15.0703C22.1944 13.6055 20.2637 12.7661 18.2379 12.7404C16.212 12.7148 14.2608 13.5052 12.8222 14.9341L12.6862 15.0703C9.66432 18.1549 9.66432 23.0949 12.6862 26.1795L24.4578 38.1362L36.2445 26.1795C39.2664 23.0949 39.2664 18.1549 36.2445 15.0703C34.8107 13.5954 32.8445 12.7608 30.7894 12.7546C28.7373 12.7545 26.7735 13.5905 25.3494 15.0703L24.488 15.9481L23.5965 15.0703Z" fill="#DF704D"/>
<path fill-rule="evenodd" clip-rule="evenodd" d="M67.6993 51.1573C68.2434 51.5778 70.3454 54.9693 69.9511 58.8536C69.5568 62.738 67.1118 66.3062 66.4886 66.916C65.8653 67.5258 43.4352 64.6517 38.1805 63.621C32.9259 62.5904 7.59346 51.3179 6.61856 50.7367C5.64366 50.1556 5.55493 45.9755 8.33939 45.1086C11.1238 44.2416 18.323 48.8848 22.7985 49.2979C27.2741 49.7111 38.5092 50.404 42.2756 50.404C46.042 50.404 37.978 47.4418 36.1356 46.7087C34.2932 45.9755 31.2739 45.3754 30.6466 43.4142C30.0194 41.453 32.0517 40 33.7217 40C34.8351 40 37.8129 40.7534 42.6551 42.2601C47.418 42.2601 51.3633 42.9425 54.4908 44.3073C59.1822 46.3545 61.0743 50.0538 61.5937 51.1573C62.1131 52.2608 67.1552 50.7367 67.6993 51.1573Z" stroke="#493D57" stroke-width="3"/>
<path d="M10.0322 44.932C8.61904 41.9859 10.423 40.5 12.4198 40.5C14.4165 40.5 16.2604 42.5622 19.9155 44.932C22.3523 46.5119 26.4699 48.1559 32.2683 49.8641" stroke="#493D57" stroke-width="3"/>
<path fill-rule="evenodd" clip-rule="evenodd" d="M23.5334 14.4456C20.2914 11.2658 15.1339 11.303 11.9369 14.5292C8.7399 17.7553 8.68105 22.982 11.8046 26.2813L24.4549 39L37.1052 26.2643C38.9795 24.3486 39.828 21.635 39.3844 18.9749C38.9409 16.3149 37.2597 14.0345 34.8684 12.8493C33.7422 12.2803 32.4992 11.9893 31.2408 12.0003C29.052 12.0097 26.957 12.9018 25.4183 14.4795L24.4549 15.3965L23.5334 14.4456Z" stroke="#77280C" stroke-width="3" stroke-linecap="round" stroke-linejoin="round"/>
</svg>
