<svg width="16" height="16" viewBox="0 0 16 16" fill="none" xmlns="http://www.w3.org/2000/svg">
<path d="M8 1C11.866 1 15 4.13401 15 8C15 11.866 11.866 15 8 15C4.13401 15 1 11.866 1 8C1 4.13401 4.13401 1 8 1ZM8 0C3.58172 0 0 3.58172 0 8C0 12.4183 3.58172 16 8 16C12.4183 16 16 12.4183 16 8C16 5.87827 15.1571 3.84344 13.6569 2.34315C12.1566 0.842855 10.1217 0 8 0Z" fill="white"/>
<mask id="mask0_3908_14466" style="mask-type:alpha" maskUnits="userSpaceOnUse" x="1" y="1" width="14" height="14">
<path d="M8 15C11.866 15 15 11.866 15 8C15 4.13401 11.866 1 8 1C4.13401 1 1 4.13401 1 8C1 11.866 4.13401 15 8 15Z" fill="white"/>
</mask>
<g mask="url(#mask0_3908_14466)">
<path d="M8 15C11.866 15 15 11.866 15 8C15 4.13401 11.866 1 8 1C4.13401 1 1 4.13401 1 8C1 11.866 4.13401 15 8 15Z" fill="#D8D8D8"/>
<path d="M8 15C11.866 15 15 11.866 15 8C15 4.13401 11.866 1 8 1C4.13401 1 1 4.13401 1 8C1 11.866 4.13401 15 8 15Z" fill="#BBA9D1"/>
<path d="M6.54524 10.6167H6.41218C6.38791 10.6201 6.36327 10.6201 6.339 10.6167C6.1128 10.5335 4.96185 10.0944 4.19012 9.87821C4.09353 9.85086 4.02275 9.76828 4.01049 9.66865C3.97953 9.49375 4.0177 9.31366 4.11694 9.16635C4.19439 9.06038 4.31833 8.99841 4.44958 9.00003C4.51645 8.99943 4.5829 9.01069 4.64584 9.0333C4.79934 9.09282 4.94206 9.1771 5.0683 9.28278L5.12485 9.3227L5.48078 9.57218C5.61384 9.66532 5.73026 9.74516 5.81342 9.80836L6.64504 10.141C6.75813 10.1909 7.22716 10.4038 7.20055 10.5202C7.17394 10.6366 6.67165 10.6267 6.55855 10.63L6.54524 10.6167Z" fill="#FEF2FF"/>
<path d="M15.4725 14.0692C14.279 14.0468 13.0892 13.9371 11.914 13.7411H11.8473C10.9563 13.626 10.0747 13.455 9.20826 13.2292C8.43971 13.0127 7.68169 12.7305 6.94823 12.4615L6.62186 12.3434C5.91999 12.0874 5.362 11.8742 4.84613 11.6707L4.65311 11.5953C4.34345 11.4817 4.04216 11.349 3.7512 11.1983C3.34763 10.9784 3.2248 10.6963 3.40027 10.3616V10.3354C3.50607 10.1282 3.73816 10.004 3.98282 10.0237H4.02844C4.08688 10.0204 4.14547 10.0204 4.20391 10.0237C4.84262 10.0893 6.69205 10.7455 7.05702 10.8767L8.25021 10.9161H8.27828L10.977 11.0014C10.7664 10.8242 10.2365 10.5093 8.94506 10.1976C8.69941 10.1385 8.47481 10.0729 8.42217 9.90555C8.3409 9.64561 8.43343 9.36542 8.65729 9.19356C8.8277 9.09951 9.02507 9.05711 9.2223 9.07216C9.45875 9.07268 9.69431 9.09911 9.92417 9.15091C10.061 9.18372 10.1733 9.21653 10.2751 9.24934C10.5562 9.33884 10.8468 9.39935 11.1419 9.4298C11.6244 9.49461 12.1008 9.59444 12.5667 9.72837C14.0722 10.1057 14.3635 10.8111 14.553 11.2377C14.4934 11.0638 14.553 11.1917 14.5811 11.1261L14.6232 11.0703H14.725C14.7682 11.0736 14.8116 11.0736 14.8548 11.0703C15.1145 11.0703 15.6058 11.0474 15.6129 11.0474C15.7357 11.0474 16.3147 10.9128 16.3147 11.0211C16.3687 12.0431 16.1377 13.0606 15.6444 13.974C15.6152 14.0252 15.5619 14.0605 15.5006 14.0692H15.4725Z" fill="#EAE2F3"/>
<path d="M13.2037 9.99037C13.2325 10.007 13.268 10.007 13.2969 9.99037H13.2037Z" fill="#D67676"/>
<path fill-rule="evenodd" clip-rule="evenodd" d="M6.14168 3.57365C5.58669 3.00453 4.67557 2.99262 4.10589 3.54704L4.08261 3.57365C3.51385 4.15644 3.51385 5.08653 4.08261 5.66931L6.30135 7.91799L8.52342 5.66599C9.09178 5.08434 9.09178 4.15531 8.52342 3.57365C8.25316 3.29433 7.88088 3.13701 7.49222 3.13788C7.10635 3.13794 6.73688 3.29389 6.46767 3.57033L6.30468 3.73665L6.14168 3.57365Z" fill="#ECAA96"/>
<path fill-rule="evenodd" clip-rule="evenodd" d="M16.9232 11.2484C17.0392 11.3277 17.0444 12.1509 16.7933 12.8748C16.5422 13.5987 15.7122 14.4485 15.5793 14.5635C15.4465 14.6785 10.7263 14.0406 9.61899 13.8669C8.51168 13.6932 3.33967 11.2786 3.13185 11.1691C2.92404 11.0595 2.90513 10.2712 3.49867 10.1078C4.09222 9.94427 6.34851 10.9134 7.30253 10.9914C8.25655 11.0693 9.83987 11.1691 10.9688 11.1691C12.0977 11.1691 9.66546 10.4864 9.27273 10.3481C8.87999 10.2099 8.23769 10.0354 8.19041 9.70706C8.14312 9.37877 8.62706 9.04403 8.94902 8.95917C9.27099 8.87431 9.72506 9.04502 10.9688 9.31402C12.2125 9.58302 12.4166 9.42895 13.4166 9.81499C14.4166 10.201 14.8893 10.7833 15 10.9914C15.1107 11.1994 16.8073 11.1691 16.9232 11.2484Z" stroke="#493D57"/>
<path d="M4.07277 10.0923C3.84615 9.47807 4.18528 9.08754 4.58873 9.00837C4.99219 8.9292 5.7671 9.425 6.30645 9.92476C6.73954 10.3261 7.09263 10.5466 8.20465 11.0454" stroke="#493D57"/>
<path fill-rule="evenodd" clip-rule="evenodd" d="M6.22455 3.3702C5.60563 2.77066 4.62102 2.77767 4.01068 3.38597C3.40035 3.99427 3.38911 4.97977 3.98542 5.60185L6.40048 8L8.81554 5.59865C9.17336 5.23745 9.33534 4.72578 9.25066 4.22423C9.16599 3.72267 8.84503 3.2927 8.38851 3.06923C8.17352 2.96193 7.93621 2.90707 7.69598 2.90914C7.27812 2.91091 6.87815 3.07912 6.58441 3.37661L6.40048 3.5495L6.22455 3.3702Z" stroke="#77280C" stroke-linecap="round" stroke-linejoin="round"/>
</g>
</svg>
