<svg width="48" height="48" viewBox="0 0 48 48" fill="none" xmlns="http://www.w3.org/2000/svg">
<path d="M24 46C36.1503 46 46 36.1503 46 24C46 11.8497 36.1503 2 24 2C11.8497 2 2 11.8497 2 24C2 36.1503 11.8497 46 24 46Z" fill="white"/>
<mask id="mask0_3908_14469" style="mask-type:alpha" maskUnits="userSpaceOnUse" x="2" y="2" width="44" height="44">
<path d="M24 46C36.1503 46 46 36.1503 46 24C46 11.8497 36.1503 2 24 2C11.8497 2 2 11.8497 2 24C2 36.1503 11.8497 46 24 46Z" fill="#D8D8D8"/>
</mask>
<g mask="url(#mask0_3908_14469)">
<path d="M24 46C36.1503 46 46 36.1503 46 24C46 11.8497 36.1503 2 24 2C11.8497 2 2 11.8497 2 24C2 36.1503 11.8497 46 24 46Z" fill="#BBA9D1"/>
<path d="M16.7273 29.5618H16.3091C16.2328 29.5727 16.1554 29.5727 16.0791 29.5618C15.3682 29.3004 11.7509 27.9204 9.32545 27.2409C9.0219 27.1549 8.79944 26.8954 8.76091 26.5823C8.66361 26.0326 8.78356 25.4666 9.09545 25.0036C9.33889 24.6706 9.72839 24.4758 10.1409 24.4809C10.3511 24.479 10.5599 24.5144 10.7577 24.5854C11.2402 24.7725 11.6887 25.0374 12.0855 25.3695L12.2632 25.495L13.3818 26.2791C13.8 26.5718 14.1659 26.8227 14.4273 27.0214L17.0409 28.0668C17.3964 28.2236 18.8705 28.8927 18.7868 29.2586C18.7032 29.6245 17.1245 29.5932 16.7691 29.6036L16.7273 29.5618Z" fill="#E1DCFE"/>
<path d="M42.4559 40.8109C38.9004 40.7397 35.3559 40.3901 31.855 39.7655H31.6564C29.0021 39.3989 26.3756 38.854 23.7945 38.1345C21.505 37.4445 19.2468 36.5455 17.0618 35.6882L16.0895 35.3118C13.9986 34.4964 12.3364 33.8168 10.7995 33.1686L10.2245 32.9282C9.30207 32.5661 8.40451 32.1435 7.53772 31.6632C6.33545 30.9627 5.96954 30.0636 6.49227 28.9973V28.9136C6.80746 28.2535 7.49885 27.8578 8.22772 27.9205H8.36363C8.53772 27.9101 8.71227 27.9101 8.88636 27.9205C10.7891 28.1295 16.2986 30.2205 17.3859 30.6386L20.9405 30.7641H21.0241L29.0636 31.0359C28.4364 30.4714 26.8577 29.4677 23.0105 28.4745C22.2786 28.2864 21.6095 28.0773 21.4527 27.5441C21.2106 26.7158 21.4863 25.8231 22.1532 25.2755C22.6608 24.9758 23.2488 24.8407 23.8364 24.8886C24.5407 24.8903 25.2425 24.9745 25.9273 25.1395C26.335 25.2441 26.6695 25.3486 26.9727 25.4532C27.81 25.7384 28.6759 25.9312 29.555 26.0282C30.9924 26.2347 32.4115 26.5528 33.7995 26.9795C38.2845 28.1818 39.1523 30.4295 39.7168 31.7886C39.5391 31.2345 39.7168 31.6423 39.8004 31.4332L39.9259 31.2555H40.2291C40.3578 31.2659 40.4872 31.2659 40.6159 31.2555C41.3895 31.2555 42.8532 31.1823 42.8741 31.1823C43.24 31.1823 44.965 30.7536 44.965 31.0986C45.1257 34.355 44.4376 37.5973 42.9682 40.5077C42.8812 40.6708 42.7223 40.7832 42.5395 40.8109H42.4559Z" fill="#EAE2F3"/>
<path fill-rule="evenodd" clip-rule="evenodd" d="M17.812 10.0886C16.0678 8.29996 13.2042 8.26253 11.4138 10.005L11.3407 10.0886C9.55311 11.9202 9.55311 14.8434 11.3407 16.675L18.3138 23.7423L25.2975 16.6645C27.0838 14.8365 27.0838 11.9167 25.2975 10.0886C24.4481 9.21077 23.2781 8.71634 22.0566 8.71908C20.8439 8.71926 19.6826 9.20938 18.8366 10.0782L18.3243 10.6009L17.812 10.0886Z" fill="#ECAA96"/>
<path fill-rule="evenodd" clip-rule="evenodd" d="M45.7862 31.1991C46.1093 31.4327 46.1237 33.8585 45.4242 35.9913C44.7247 38.1241 42.7413 39.8088 42.3712 40.1476C42.0012 40.4864 29.1599 39.0038 26.0753 38.4921C22.9906 37.9804 7.94622 31.2883 7.36731 30.9654C6.7884 30.6425 6.73571 28.3201 8.38916 27.8384C10.0426 27.3567 14.3176 29.9364 16.9752 30.166C19.6328 30.3956 25.7647 30.6425 28.0012 30.6425C30.2378 30.6425 25.9889 29.1347 24.8949 28.7274C23.8009 28.3201 22.0079 27.9866 21.6355 26.897C21.263 25.8073 22.4698 25 23.4615 25C24.1226 25 25.8909 25.4186 28.7663 26.2557C31.5945 26.2557 33.9373 26.6349 35.7945 27.3932C38.5802 28.5306 39.7038 30.586 40.0122 31.1991C40.3207 31.8122 45.4631 30.9654 45.7862 31.1991Z" stroke="#493D57" stroke-width="2"/>
<path d="M9.20148 27.4398C8.54011 25.5093 9.61627 24.5 10.8441 24.5C12.0719 24.5 13.337 25.7248 15.3831 27.0906C16.7472 28.0012 18.9528 29.1376 22 30.5" stroke="#493D57" stroke-width="2"/>
<path fill-rule="evenodd" clip-rule="evenodd" d="M17.92 9.44922C15.9748 7.56494 12.8804 7.58698 10.9621 9.49878C9.04394 11.4106 9.00863 14.5079 10.8828 16.463L18.4729 24L26.0631 16.4529C27.1877 15.3177 27.6968 13.7096 27.4307 12.1333C27.1645 10.557 26.1558 9.20563 24.721 8.50332C24.0453 8.16608 23.2995 7.99367 22.5445 8.00018C21.2312 8.00574 19.9742 8.53438 19.051 9.46934L18.4729 10.0127L17.92 9.44922Z" stroke="#77280C" stroke-width="2" stroke-linecap="round" stroke-linejoin="round"/>
</g>
</svg>
