<svg width="36" height="36" viewBox="0 0 36 36" fill="none" xmlns="http://www.w3.org/2000/svg">
<path fill-rule="evenodd" clip-rule="evenodd" d="M29.5498 18C29.5498 18.199 29.4708 18.3897 29.3301 18.5304L18.5301 29.3304C18.2372 29.6233 17.7624 29.6233 17.4695 29.3304C17.1766 29.0375 17.1766 28.5626 17.4695 28.2697L26.9891 18.75L7.19981 18.75C6.78559 18.75 6.44981 18.4143 6.44981 18C6.44981 17.5858 6.78559 17.25 7.19981 17.25L26.9891 17.25L17.4695 7.73038C17.1766 7.43749 17.1766 6.96261 17.4695 6.66972C17.7624 6.37683 18.2372 6.37683 18.5301 6.66972L29.3301 17.4697C29.4708 17.6104 29.5498 17.8011 29.5498 18Z" fill="currentColor"/>
</svg>
