<svg width="20" height="14" viewBox="0 0 20 14" fill="none" xmlns="http://www.w3.org/2000/svg">
<path fill-rule="evenodd" clip-rule="evenodd" d="M19.865 2.03302C19.865 1.39997 19.3875 0.886791 18.7984 0.886791H17.7317C17.1426 0.886791 16.665 1.39997 16.665 2.03302V11.967C16.665 12.6 17.1426 13.1132 17.7317 13.1132H18.7984C19.3875 13.1132 19.865 12.6 19.865 11.967V2.03302ZM12.4309 3.33207H13.4976C14.0867 3.33207 14.5643 3.85757 14.5643 4.50581V11.9395C14.5643 12.5877 14.0867 13.1132 13.4976 13.1132H12.4309C11.8418 13.1132 11.3643 12.5877 11.3643 11.9395V4.50581C11.3643 3.85757 11.8418 3.33207 12.4309 3.33207ZM8.09915 5.98112H7.03249C6.44338 5.98112 5.96582 6.51331 5.96582 7.1698V11.9245C5.96582 12.581 6.44338 13.1132 7.03249 13.1132H8.09915C8.68826 13.1132 9.16582 12.581 9.16582 11.9245V7.1698C9.16582 6.51331 8.68826 5.98112 8.09915 5.98112ZM2.79837 8.42641H1.73171C1.1426 8.42641 0.665039 8.951 0.665039 9.59811V11.9415C0.665039 12.5886 1.1426 13.1132 1.73171 13.1132H2.79837C3.38748 13.1132 3.86504 12.5886 3.86504 11.9415V9.59811C3.86504 8.951 3.38748 8.42641 2.79837 8.42641Z" fill="black"/>
</svg>
