<svg width="24" height="24" viewBox="0 0 24 24" fill="none" xmlns="http://www.w3.org/2000/svg">
<path fill-rule="evenodd" clip-rule="evenodd" d="M3 6V11.0289C3 15.7652 6.08701 20.0074 10.7533 21.6835L11.2922 21.8771C11.7483 22.041 12.2517 22.041 12.7078 21.8771L13.2467 21.6835C17.913 20.0074 21 15.7652 21 11.0289V6C21 4.89543 20.1046 4 19 4H5C3.89543 4 3 4.89543 3 6ZM16.2474 10.6644C16.6143 10.2516 16.5771 9.61951 16.1644 9.25259C15.7516 8.88567 15.1195 8.92285 14.7526 9.33564L11.4572 13.043L10.2071 11.7929C9.81658 11.4024 9.18342 11.4024 8.79289 11.7929C8.40237 12.1834 8.40237 12.8166 8.79289 13.2071L10.7929 15.2071C10.9876 15.4019 11.2541 15.5077 11.5294 15.4996C11.8047 15.4915 12.0644 15.3702 12.2474 15.1644L16.2474 10.6644Z" fill="currentColor"/>
</svg>
