<svg width="14" height="14" viewBox="0 0 14 14" fill="none" xmlns="http://www.w3.org/2000/svg">
<path d="M14 1V13C14 13.2652 13.8946 13.5196 13.7071 13.7071C13.5196 13.8946 13.2652 14 13 14H1C0.734784 14 0.480429 13.8946 0.292892 13.7071C0.105356 13.5196 0 13.2652 0 13V1C0 0.734784 0.105356 0.48043 0.292892 0.292893C0.480429 0.105357 0.734784 0 1 0L13 0C13.2652 0 13.5196 0.105357 13.7071 0.292893C13.8946 0.48043 14 0.734784 14 1ZM4 5H2V12H4V5ZM4.25 3C4.25 2.66848 4.1183 2.35054 3.88388 2.11612C3.64946 1.8817 3.33152 1.75 3 1.75C2.66848 1.75 2.35054 1.8817 2.11612 2.11612C1.8817 2.35054 1.75 2.66848 1.75 3C1.75 3.33152 1.8817 3.64946 2.11612 3.88388C2.35054 4.1183 2.66848 4.25 3 4.25C3.33152 4.25 3.64946 4.1183 3.88388 3.88388C4.1183 3.64946 4.25 3.33152 4.25 3ZM12 8.29C12 6.09 11.27 4.8 9.14 4.8C8.69529 4.80005 8.25743 4.90955 7.86504 5.11882C7.47265 5.3281 7.13779 5.63072 6.89 6V5H5V12H7V8.73C6.97373 8.49265 6.99661 8.25244 7.06719 8.02431C7.13777 7.79619 7.25455 7.58503 7.41027 7.40399C7.56598 7.22294 7.7573 7.07589 7.9723 6.97198C8.1873 6.86807 8.42139 6.80953 8.66 6.8C9.82 6.8 10 7.94 10 8.73V12H12V8.29Z" fill="#0A66C2"/>
</svg>
