<svg width="32" height="32" viewBox="0 0 32 32" fill="none" xmlns="http://www.w3.org/2000/svg">
<path fill-rule="evenodd" clip-rule="evenodd" d="M14.4959 1.69109C15.2926 0.769716 16.7074 0.769718 17.5041 1.69109L19.458 3.95079C19.9102 4.47379 20.5954 4.72533 21.2732 4.61715L24.1613 4.15621C25.3626 3.96449 26.4533 4.89464 26.4721 6.12692L26.5177 9.10574C26.5284 9.8045 26.8935 10.4484 27.4839 10.8095L30.0333 12.3691C31.0724 13.0047 31.3178 14.4242 30.5539 15.38L28.7095 17.6876C28.2754 18.2308 28.1481 18.9622 28.3726 19.6231L29.3323 22.4482C29.7272 23.6108 29.018 24.8591 27.8276 25.0966L24.9125 25.6781C24.2373 25.8128 23.6778 26.29 23.4314 26.9413L22.3887 29.698C21.9529 30.8502 20.6109 31.3437 19.5474 30.7428L16.9739 29.2886C16.3685 28.9466 15.6315 28.9466 15.0261 29.2886L12.4526 30.7428C11.3891 31.3437 10.0471 30.8502 9.61129 29.698L8.56859 26.9413C8.32224 26.29 7.76275 25.8129 7.08746 25.6781L4.17244 25.0966C2.98204 24.8591 2.2728 23.6108 2.66773 22.4482L3.62739 19.6231C3.85189 18.9622 3.72455 18.2308 3.29046 17.6876L1.44609 15.38C0.682169 14.4242 0.927592 13.0047 1.96667 12.3691L4.51612 10.8095C5.10648 10.4484 5.47162 9.8045 5.48231 9.10573L5.52788 6.12692C5.54673 4.89464 6.63739 3.96449 7.83866 4.15621L10.7268 4.61715C11.4046 4.72533 12.0898 4.47379 12.542 3.95079L14.4959 1.69109ZM22.0992 14.0207C22.6629 13.4136 22.6277 12.4645 22.0207 11.9008C21.4136 11.3371 20.4645 11.3723 19.9008 11.9793L14.6519 17.632L13.2206 15.6281C12.7391 14.954 11.8023 14.7979 11.1281 15.2794C10.454 15.7609 10.2979 16.6977 10.7794 17.3719L13.2794 20.8719C13.5413 21.2386 13.9543 21.4681 14.404 21.4969C14.8537 21.5258 15.2925 21.3509 15.5992 21.0207L22.0992 14.0207Z" fill="currentColor"/>
</svg>
