<svg width="32" height="32" viewBox="0 0 32 32" fill="none" xmlns="http://www.w3.org/2000/svg">
<path fill-rule="evenodd" clip-rule="evenodd" d="M25.0691 9.67618C19.0514 4.91331 10.6611 5.64164 5.00171 11.8806L15.9965 23.7855L17.2018 22.4723C17.762 21.862 18.7108 21.8213 19.3212 22.3814C19.9315 22.9416 19.9722 23.8905 19.412 24.5008L17.1051 27.0144C16.8216 27.3233 16.4217 27.4995 16.0023 27.5001C15.583 27.5008 15.1826 27.3259 14.8981 27.0179L1.89803 12.9417C1.39681 12.399 1.36536 11.5722 1.82391 10.993C8.40254 2.68321 19.2007 1.20554 26.9309 7.32382C27.5805 7.83795 27.6903 8.78133 27.1762 9.43092C26.6621 10.0805 25.7187 10.1903 25.0691 9.67618ZM30.0992 14.0208C30.6629 13.4137 30.6277 12.4646 30.0206 11.9009C29.4136 11.3372 28.4645 11.3723 27.9008 11.9794L22.6519 17.6321L21.2206 15.6282C20.7391 14.9541 19.8022 14.798 19.1281 15.2795C18.454 15.761 18.2979 16.6978 18.7794 17.3719L21.2794 20.8719C21.5413 21.2386 21.9542 21.4681 22.4039 21.497C22.8537 21.5258 23.2925 21.351 23.5992 21.0208L30.0992 14.0208Z" fill="currentColor"/>
</svg>
