<svg width="32" height="32" viewBox="0 0 32 32" fill="none" xmlns="http://www.w3.org/2000/svg">
<path fill-rule="evenodd" clip-rule="evenodd" d="M24.1317 7.86827C19.6407 3.37724 12.3593 3.37724 7.86827 7.86827C3.37724 12.3593 3.37724 19.6407 7.86827 24.1317C12.3593 28.6228 19.6407 28.6228 24.1317 24.1317C28.6228 19.6407 28.6228 12.3593 24.1317 7.86827ZM5.74695 5.74695C11.4096 0.0843483 20.5904 0.0843507 26.253 5.74695C31.9156 11.4096 31.9157 20.5904 26.253 26.253C20.5904 31.9156 11.4096 31.9156 5.74695 26.253C0.0843494 20.5904 0.0843496 11.4096 5.74695 5.74695ZM16 8.5C16.8284 8.5 17.5 9.17157 17.5 10V16C17.5 16.8284 16.8284 17.5 16 17.5C15.1716 17.5 14.5 16.8284 14.5 16V10C14.5 9.17157 15.1716 8.5 16 8.5ZM16 24C17.1046 24 18 23.1046 18 22C18 20.8954 17.1046 20 16 20C14.8954 20 14 20.8954 14 22C14 23.1046 14.8954 24 16 24Z" fill="currentColor"/>
</svg>
