<svg width="32" height="32" viewBox="0 0 32 32" fill="none" xmlns="http://www.w3.org/2000/svg">
<path fill-rule="evenodd" clip-rule="evenodd" d="M31.0391 25.4685L16.8471 2.85004C16.4551 2.22536 15.5449 2.22536 15.1529 2.85004L0.96093 25.4685C0.543056 26.1344 1.02177 27 1.80799 27H30.192C30.9782 27 31.4569 26.1344 31.0391 25.4685ZM16 8.49998C16.8284 8.49998 17.5 9.17155 17.5 9.99998V16C17.5 16.8284 16.8284 17.5 16 17.5C15.1716 17.5 14.5 16.8284 14.5 16V9.99998C14.5 9.17155 15.1716 8.49998 16 8.49998ZM16 24.5C17.1046 24.5 18 23.6045 18 22.5C18 21.3954 17.1046 20.5 16 20.5C14.8954 20.5 14 21.3954 14 22.5C14 23.6045 14.8954 24.5 16 24.5Z" fill="currentColor"/>
</svg>
