<svg width="32" height="32" viewBox="0 0 32 32" fill="none" xmlns="http://www.w3.org/2000/svg">
<path fill-rule="evenodd" clip-rule="evenodd" d="M30.9735 11.3412C22.6093 1.21961 9.39057 1.21962 1.02638 11.3411C0.717019 11.7155 0.738584 12.2618 1.06578 12.6206L15.2609 28.1895C15.6575 28.6245 16.3422 28.6245 16.7388 28.1895L30.9341 12.6206C31.2613 12.2618 31.2828 11.7155 30.9735 11.3412ZM15.9999 7.5C16.8283 7.5 17.4999 8.17157 17.4999 9V15.5C17.4999 16.3284 16.8283 17 15.9999 17C15.1715 17 14.4999 16.3284 14.4999 15.5V9C14.4999 8.17157 15.1715 7.5 15.9999 7.5ZM15.9999 23C17.1045 23 17.9999 22.1046 17.9999 21C17.9999 19.8954 17.1045 19 15.9999 19C14.8953 19 13.9999 19.8954 13.9999 21C13.9999 22.1046 14.8953 23 15.9999 23Z" fill="currentColor"/>
</svg>
