<svg width="32" height="32" viewBox="0 0 32 32" fill="none" xmlns="http://www.w3.org/2000/svg">
<path fill-rule="evenodd" clip-rule="evenodd" d="M30 15.9999C30 23.7319 23.732 29.9999 16 29.9999C8.26798 29.9999 1.99997 23.7319 1.99997 15.9999C1.99997 8.26795 8.26798 1.99994 16 1.99994C23.732 1.99994 30 8.26795 30 15.9999ZM16 8C16.8284 8 17.5 8.67157 17.5 9.5V16C17.5 16.8284 16.8284 17.5 16 17.5C15.1716 17.5 14.5 16.8284 14.5 16V9.5C14.5 8.67157 15.1716 8 16 8ZM16 24C17.1046 24 18 23.1046 18 22C18 20.8954 17.1046 20 16 20C14.8954 20 14 20.8954 14 22C14 23.1046 14.8954 24 16 24Z" fill="currentColor"/>
</svg>
