<svg width="32" height="32" viewBox="0 0 32 32" fill="none" xmlns="http://www.w3.org/2000/svg">
<path fill-rule="evenodd" clip-rule="evenodd" d="M18.7533 27.7026C24.4986 26.4304 28.5 21.2264 28.5 14.9999C28.5 7.82024 23.1796 1.99994 15.9999 1.99994C8.82022 1.99994 3.5 7.82024 3.5 14.9999C3.5 21.2264 7.50125 26.4304 13.2466 27.7026C12.8001 27.9624 12.4999 28.4461 12.4999 28.9999C12.4999 29.8284 13.1715 30.4999 13.9999 30.4999H17.9999C18.8284 30.4999 19.4999 29.8284 19.4999 28.9999C19.4999 28.4461 19.1998 27.9624 18.7533 27.7026ZM13.9999 10.7499C12.7573 10.7499 11.7499 11.7573 11.7499 12.9999C11.7499 13.9664 10.9664 14.7499 9.99992 14.7499C9.03343 14.7499 8.24992 13.9664 8.24992 12.9999C8.24992 9.8243 10.8243 7.24994 13.9999 7.24994C14.9664 7.24994 15.7499 8.03344 15.7499 8.99994C15.7499 9.96644 14.9664 10.7499 13.9999 10.7499Z" fill="currentColor"/>
</svg>
