<svg width="32" height="32" viewBox="0 0 32 32" fill="none" xmlns="http://www.w3.org/2000/svg">
<path fill-rule="evenodd" clip-rule="evenodd" d="M3 4.5C2.17157 4.5 1.5 5.17157 1.5 6C1.5 6.82843 2.17157 7.5 3 7.5L5 7.5L5 25C5 26.6569 6.34314 28 8 28L24 28C25.6569 28 27 26.6569 27 25L27 7.5L29 7.5C29.8284 7.5 30.5 6.82843 30.5 6C30.5 5.17157 29.8284 4.5 29 4.5L3 4.5ZM22 12.5L22 8.5C22 8.22386 21.7761 8 21.5 8L18.5 8C18.2239 8 18 8.22386 18 8.5L18 12.5C18 12.7761 18.2239 13 18.5 13L21.5 13C21.7761 13 22 12.7761 22 12.5Z" fill="currentColor"/>
</svg>
