<svg width="32" height="32" viewBox="0 0 32 32" fill="none" xmlns="http://www.w3.org/2000/svg">
<path fill-rule="evenodd" clip-rule="evenodd" d="M2 6C2 5.44772 2.44772 5 3 5L29 5C29.5523 5 30 5.44772 30 6L30 10C30 10.5523 29.5523 11 29 11L27.5 11L27.5 24C27.5 26.4853 25.4853 28.5 23 28.5L9 28.5C6.51472 28.5 4.5 26.4853 4.5 24L4.5 11L3 11C2.44772 11 2 10.5523 2 10L2 6ZM22 8L24.5 8L24.5 24C24.5 24.8284 23.8284 25.5 23 25.5L9 25.5C8.17157 25.5 7.5 24.8284 7.5 24L7.5 8L18 8L18 11.5C18 11.7761 18.2239 12 18.5 12L21.5 12C21.7761 12 22 11.7761 22 11.5L22 8Z" fill="currentColor"/>
</svg>
