<svg width="32" height="32" viewBox="0 0 32 32" fill="none" xmlns="http://www.w3.org/2000/svg">
<path fill-rule="evenodd" clip-rule="evenodd" d="M12.1648 4.32403C15.9017 0.558575 21.9651 0.558577 25.7019 4.32403C29.4325 8.08314 29.4325 14.1732 25.7019 17.9323L15.2448 28.4694C12.558 31.1768 8.19708 31.1768 5.51027 28.4694C2.82975 25.7684 2.82975 21.3939 5.51027 18.6928L15.9674 8.15571C17.6041 6.50643 20.2626 6.50644 21.8994 8.15571C23.5298 9.79865 23.5298 12.4577 21.8994 14.1006L11.4422 24.6377C10.8587 25.2257 9.90895 25.2294 9.32094 24.6458C8.73292 24.0623 8.7293 23.1125 9.31285 22.5245L19.77 11.9874C20.2396 11.5142 20.2396 10.7422 19.77 10.2689C19.3066 9.80203 18.5601 9.80203 18.0968 10.2689L7.63966 20.8061C6.11995 22.3374 6.11995 24.8249 7.63966 26.3562C9.15307 27.8812 11.602 27.8812 13.1154 26.3562L23.5726 15.8191C26.1423 13.2297 26.1423 9.02667 23.5726 6.43725C21.0091 3.85417 16.8577 3.85417 14.2942 6.43725L12.8682 7.87413C12.2847 8.46214 11.3349 8.46576 10.7469 7.88221C10.1589 7.29867 10.1553 6.34892 10.7388 5.76091L12.1648 4.32403L13.2295 5.38064L12.1648 4.32403Z" fill="currentColor"/>
</svg>
