<svg width="32" height="32" viewBox="0 0 32 32" fill="none" xmlns="http://www.w3.org/2000/svg">
<path fill-rule="evenodd" clip-rule="evenodd" d="M13.5 8.5C13.5 7.11929 14.6193 6 16 6C17.3807 6 18.5 7.11929 18.5 8.5C18.5 9.88071 17.3807 11 16 11C14.6193 11 13.5 9.88071 13.5 8.5ZM16 3C12.9624 3 10.5 5.46243 10.5 8.5C10.5 11.5376 12.9624 14 16 14C19.0376 14 21.5 11.5376 21.5 8.5C21.5 5.46243 19.0376 3 16 3ZM23.5853 21.836C24.9711 22.8754 25.8932 24.1441 26.2854 25.5H5.71457C6.10683 24.1441 7.02893 22.8754 8.41472 21.836C10.3026 20.4201 12.9795 19.5 16 19.5C19.0205 19.5 21.6974 20.4201 23.5853 21.836ZM16 16.5C12.3931 16.5 9.06997 17.5946 6.61472 19.436C4.15901 21.2778 2.5 23.9367 2.5 27C2.5 27.8284 3.17157 28.5 4 28.5H28C28.8284 28.5 29.5 27.8284 29.5 27C29.5 23.9367 27.841 21.2778 25.3853 19.436C22.93 17.5946 19.6069 16.5 16 16.5Z" fill="currentColor"/>
</svg>
