<svg width="32" height="32" viewBox="0 0 32 32" fill="none" xmlns="http://www.w3.org/2000/svg">
<path fill-rule="evenodd" clip-rule="evenodd" d="M24.4448 11.5552C23.9774 7.58221 20.5987 4.5 16.5 4.5L8.50005 4.5C4.08177 4.5 0.500045 8.08172 0.500046 12.5C0.500046 16.5986 3.58225 19.9773 7.55525 20.4448C8.02269 24.4178 11.4014 27.5 15.5 27.5L23.5 27.5C27.9183 27.5 31.5 23.9183 31.5 19.5C31.5 15.4014 28.4178 12.0226 24.4448 11.5552ZM21.4 11.5C20.9368 9.21776 18.919 7.5 16.5 7.5L8.50004 7.5C5.73862 7.5 3.50005 9.73857 3.50005 12.5C3.50005 15.0121 5.3526 17.0915 7.76605 17.4465C8.67261 14.0232 11.7917 11.5 15.5 11.5L21.4 11.5ZM10.6001 20.5C11.0633 22.7822 13.0811 24.5 15.5 24.5L23.5 24.5C26.2615 24.5 28.5 22.2614 28.5 19.5C28.5 16.9879 26.6475 14.9085 24.234 14.5535C23.3275 17.9768 20.2084 20.5 16.5 20.5L10.6001 20.5ZM21.084 14.5C20.3124 16.2659 18.5504 17.5 16.5 17.5L10.9161 17.5C11.6876 15.7341 13.4497 14.5 15.5 14.5L21.084 14.5Z" fill="currentColor"/>
</svg>
