<svg width="32" height="32" viewBox="0 0 32 32" fill="none" xmlns="http://www.w3.org/2000/svg">
<path fill-rule="evenodd" clip-rule="evenodd" d="M16.118 4.94661C16.0404 4.92779 15.9595 4.92779 15.882 4.94661C15.8702 4.95095 15.8265 4.96925 15.731 5.02629C15.5755 5.11916 15.3769 5.25571 15.0323 5.49427L7.80192 10.4998L24.198 10.4999L16.9676 5.49428C16.623 5.25571 16.4244 5.11916 16.2689 5.02629C16.1734 4.96925 16.1298 4.95095 16.118 4.94661ZM16.1145 4.94549C16.1145 4.94543 16.1155 4.9457 16.1177 4.94652L16.1145 4.94549ZM15.8855 4.94549L15.8823 4.94652C15.8845 4.9457 15.8855 4.94542 15.8855 4.94549ZM15.1605 2.03466C15.7119 1.89844 16.2881 1.89844 16.8395 2.03467C17.4741 2.19147 18.026 2.57575 18.5437 2.93628L18.6753 3.0277L29.8538 10.7667C30.3933 11.1402 30.6274 11.8209 30.4318 12.4472C30.2361 13.0735 29.6561 13.5 29 13.5L26.5 13.5V25.5H29C29.8284 25.5 30.5 26.1716 30.5 27C30.5 27.8284 29.8284 28.5 29 28.5H25H16H6.99999H2.99999C2.17156 28.5 1.49999 27.8284 1.49999 27C1.49999 26.1716 2.17156 25.5 2.99999 25.5H5.49999V13.4998L2.99998 13.4998C2.34384 13.4998 1.76385 13.0733 1.56821 12.447C1.37258 11.8207 1.60671 11.14 2.14619 10.7665L13.3247 3.02767L13.4563 2.93625C13.974 2.57573 14.5259 2.19145 15.1605 2.03466ZM8.49999 25.5H14.5V13.4999L8.49999 13.4998V25.5ZM17.5 25.5H23.5V13.4999L17.5 13.4999V25.5Z" fill="currentColor"/>
</svg>
