<svg width="32" height="32" viewBox="0 0 32 32" fill="none" xmlns="http://www.w3.org/2000/svg">
<path fill-rule="evenodd" clip-rule="evenodd" d="M8.20001 1.50007L8.14757 1.50006H8.14756C7.63259 1.50003 7.15963 1.49999 6.76426 1.5323C6.338 1.56712 5.87165 1.64685 5.41104 1.88154C4.75247 2.2171 4.21704 2.75253 3.88148 3.4111C3.64679 3.87171 3.56706 4.33806 3.53224 4.76432C3.49993 5.15969 3.49997 5.63266 3.5 6.14763V6.14763L3.50001 6.20007V25.8001L3.5 25.8525C3.49997 26.3675 3.49993 26.8404 3.53224 27.2358C3.56706 27.6621 3.64679 28.1284 3.88148 28.589C4.21704 29.2476 4.75247 29.783 5.41104 30.1186C5.87165 30.3533 6.338 30.433 6.76426 30.4678C7.15963 30.5001 7.63258 30.5001 8.14754 30.5001L8.2 30.5001H14.5C15.3284 30.5001 16 29.8285 16 29.0001C16 28.1716 15.3284 27.5001 14.5 27.5001H8.2C7.6152 27.5001 7.26681 27.4989 7.00856 27.4778C6.85094 27.4649 6.78468 27.4479 6.76693 27.4424C6.67765 27.3954 6.60469 27.3224 6.55765 27.2331C6.55214 27.2154 6.53515 27.1491 6.52227 26.9915C6.50117 26.7333 6.50001 26.3849 6.50001 25.8001V6.20007C6.50001 5.61526 6.50117 5.26687 6.52227 5.00862C6.53515 4.851 6.55214 4.78475 6.55765 4.76699C6.60469 4.67771 6.67765 4.60475 6.76693 4.55771C6.78469 4.5522 6.85094 4.53521 7.00856 4.52233C7.26681 4.50123 7.6152 4.50007 8.20001 4.50007H23.8C24.3848 4.50007 24.7332 4.50123 24.9915 4.52233C25.1491 4.53521 25.2153 4.5522 25.2331 4.55771C25.3224 4.60475 25.3953 4.67771 25.4424 4.76699C25.4479 4.78475 25.4649 4.851 25.4777 5.00862C25.4988 5.26687 25.5 5.61526 25.5 6.20007V16.0001C25.5 16.8285 26.1716 17.5001 27 17.5001C27.8284 17.5001 28.5 16.8285 28.5 16.0001V6.20007L28.5 6.1476C28.5 5.63264 28.5001 5.15969 28.4678 4.76432C28.4329 4.33806 28.3532 3.87171 28.1185 3.4111C27.783 2.75253 27.2475 2.2171 26.589 1.88154C26.1284 1.64685 25.662 1.56712 25.2357 1.5323C24.8404 1.49999 24.3674 1.50003 23.8524 1.50006L23.8 1.50007H8.20001ZM6.76476 27.4417L6.76175 27.4406C6.76172 27.4406 6.762 27.4407 6.76261 27.441L6.76476 27.4417ZM6.55916 27.2376C6.55934 27.2381 6.55945 27.2383 6.55946 27.2383L6.55835 27.2353L6.55916 27.2376ZM6.55946 4.76182L6.55834 4.76484C6.55904 4.76271 6.55944 4.76176 6.55946 4.76182ZM6.76175 4.55952C6.7617 4.5595 6.76265 4.5591 6.76478 4.5584L6.76175 4.55952ZM25.2352 4.55841L25.2383 4.55952C25.2383 4.55951 25.2382 4.55947 25.238 4.55939L25.2372 4.55909L25.2352 4.55841ZM25.4405 4.76182C25.4406 4.76175 25.441 4.76269 25.4417 4.76481L25.4405 4.76182ZM13 10.5C12.1716 10.5 11.5 11.1716 11.5 12C11.5 12.8284 12.1716 13.5 13 13.5H19C19.8284 13.5 20.5 12.8284 20.5 12C20.5 11.1716 19.8284 10.5 19 10.5H13ZM11.5 19C11.5 18.1716 12.1716 17.5 13 17.5H19C19.8284 17.5 20.5 18.1716 20.5 19C20.5 19.8284 19.8284 20.5 19 20.5H13C12.1716 20.5 11.5 19.8284 11.5 19ZM30.0992 23.0207C30.6629 22.4136 30.6277 21.4645 30.0207 20.9008C29.4136 20.3371 28.4645 20.3723 27.9008 20.9793L22.6519 26.632L21.2206 24.6281C20.7391 23.954 19.8023 23.7979 19.1281 24.2794C18.454 24.7609 18.2979 25.6977 18.7794 26.3719L21.2794 29.8719C21.5413 30.2386 21.9543 30.4681 22.404 30.4969C22.8537 30.5258 23.2926 30.3509 23.5992 30.0207L30.0992 23.0207Z" fill="currentColor"/>
</svg>
