<svg width="32" height="32" viewBox="0 0 32 32" fill="none" xmlns="http://www.w3.org/2000/svg">
<path fill-rule="evenodd" clip-rule="evenodd" d="M2.5 4V10C2.5 10.8284 3.17157 11.5 4 11.5C4.82843 11.5 5.5 10.8284 5.5 10L5.5 5.5L10 5.5C10.8284 5.5 11.5 4.82843 11.5 4C11.5 3.17157 10.8284 2.5 10 2.5H4C3.60218 2.5 3.22064 2.65804 2.93934 2.93934C2.65804 3.22065 2.5 3.60218 2.5 4ZM20.5 4C20.5 3.17157 21.1716 2.5 22 2.5H28C28.8284 2.5 29.5 3.17157 29.5 4V10C29.5 10.8284 28.8284 11.5 28 11.5C27.1716 11.5 26.5 10.8284 26.5 10V5.5H22C21.1716 5.5 20.5 4.82843 20.5 4ZM26.5 26.5V22C26.5 21.1716 27.1716 20.5 28 20.5C28.8284 20.5 29.5 21.1716 29.5 22V28C29.5 28.3978 29.342 28.7794 29.0607 29.0607C28.7794 29.342 28.3978 29.5 28 29.5H22C21.1716 29.5 20.5 28.8284 20.5 28C20.5 27.1716 21.1716 26.5 22 26.5H26.5ZM11.5 28C11.5 28.8284 10.8284 29.5 10 29.5H4C3.17157 29.5 2.5 28.8284 2.5 28V22C2.5 21.1716 3.17157 20.5 4 20.5C4.82843 20.5 5.5 21.1716 5.5 22L5.5 26.5H10C10.8284 26.5 11.5 27.1716 11.5 28ZM13.3412 17.995C12.9702 17.2543 12.069 16.9546 11.3283 17.3256C10.5875 17.6966 10.2878 18.5978 10.6588 19.3385C11.663 21.3434 13.6222 22.8334 16 22.8334C18.3778 22.8334 20.337 21.3434 21.3412 19.3385C21.7122 18.5978 21.4125 17.6966 20.6717 17.3256C19.931 16.9546 19.0298 17.2543 18.6588 17.995C18.0661 19.1783 17.0407 19.8334 16 19.8334C14.9593 19.8334 13.9339 19.1783 13.3412 17.995Z" fill="currentColor"/>
</svg>
