<svg width="32" height="32" viewBox="0 0 32 32" fill="none" xmlns="http://www.w3.org/2000/svg">
<path fill-rule="evenodd" clip-rule="evenodd" d="M13.5 4C13.5 3.17157 14.1716 2.5 15 2.5C20.9605 2.5 25.1018 5.11101 27.2275 8.13794C27.2482 8.16733 27.2678 8.19746 27.2862 8.22826C28.9817 11.0541 29.8258 14.423 28.9774 19.2592C28.4905 22.0352 27.9349 23.787 26.8677 26.3568C26.5499 27.1219 25.6721 27.4845 24.9071 27.1668C24.142 26.8491 23.7794 25.9713 24.0971 25.2062C25.0942 22.8053 25.5796 21.2661 26.0226 18.7408C26.7477 14.607 26.0288 11.9839 24.7419 9.81881C23.1977 7.65127 20.0062 5.5 15 5.5C14.1716 5.5 13.5 4.82843 13.5 4ZM14.3489 8.62264C15.7974 8.3013 17.2976 8.45829 18.6438 9.07591C19.9885 9.69286 21.0984 10.7317 21.8401 12.0349C22.2499 12.7549 21.9984 13.6707 21.2784 14.0805C20.5585 14.4903 19.6426 14.2388 19.2328 13.5188C18.7884 12.7379 18.142 12.1464 17.3928 11.8026C16.645 11.4596 15.8125 11.3709 14.9986 11.5514C14.1826 11.7325 13.4091 12.1795 12.7912 12.8561C12.1728 13.5332 11.7467 14.4016 11.5815 15.3477C11.0127 18.6418 9.67129 21.7516 7.67872 24.3799C7.17824 25.0401 6.23735 25.1695 5.57719 24.669C4.91704 24.1686 4.78759 23.2277 5.28807 22.5675C6.98565 20.3283 8.13696 17.6664 8.62539 14.8362L8.62584 14.8336C8.88658 13.3385 9.56241 11.9428 10.576 10.833C11.5904 9.72222 12.9024 8.94351 14.3489 8.62264ZM9.8044 7.26606C10.5036 6.82179 10.7103 5.8948 10.266 5.19558C9.82177 4.49635 8.89478 4.28967 8.19556 4.73394C6.49765 5.81275 5.71921 6.98581 4.7871 8.39041L4.77343 8.41102C3.70661 10.0186 2.8424 12.4032 2.5222 14.2428C2.38014 15.0589 2.9266 15.8357 3.74276 15.9778C4.55891 16.1198 5.3357 15.5734 5.47776 14.7572C5.73894 13.2567 6.47193 11.2771 7.27308 10.0699C8.20286 8.66879 8.68327 7.9784 9.8044 7.26606ZM21.7568 17.0221C22.573 17.164 23.1197 17.9406 22.9778 18.7568C22.2729 22.8137 20.3154 26.2347 17.6567 29.455C17.1293 30.0938 16.1838 30.1841 15.545 29.6567C14.9061 29.1293 14.8158 28.1838 15.3433 27.545C17.7984 24.5713 19.4355 21.6194 20.0221 18.2432C20.1639 17.427 20.9406 16.8803 21.7568 17.0221ZM17.4781 16.7555C17.6192 15.9391 17.0718 15.163 16.2555 15.0219C15.4391 14.8809 14.663 15.4283 14.5219 16.2446C14.2248 17.9641 13.5808 19.1797 12.5805 21.0032C12.182 21.7295 12.4478 22.6413 13.1742 23.0397C13.9005 23.4382 14.8123 23.1724 15.2107 22.446C16.2015 20.6399 17.0858 19.0255 17.4781 16.7555Z" fill="currentColor"/>
</svg>
