<svg width="32" height="32" viewBox="0 0 32 32" fill="none" xmlns="http://www.w3.org/2000/svg">
<path fill-rule="evenodd" clip-rule="evenodd" d="M23.0025 6.87616C18.4929 3.40602 11.9998 3.73672 7.86827 7.86827C3.73672 11.9998 3.40602 18.4929 6.87616 23.0025L23.0025 6.87616ZM25.1238 8.99748L8.99748 25.1238C13.5071 28.594 20.0002 28.2633 24.1317 24.1317C28.2633 20.0002 28.594 13.5071 25.1238 8.99748ZM5.74695 5.74695C11.4096 0.0843482 20.5904 0.0843508 26.253 5.74695C31.9157 11.4096 31.9157 20.5904 26.2531 26.253C20.5904 31.9157 11.4096 31.9156 5.74695 26.253C0.0843492 20.5904 0.0843496 11.4096 5.74695 5.74695Z" fill="currentColor"/>
</svg>
