<svg width="32" height="32" viewBox="0 0 32 32" fill="none" xmlns="http://www.w3.org/2000/svg">
<path fill-rule="evenodd" clip-rule="evenodd" d="M15.3549 2.03103C15.8901 1.39863 16.8365 1.31978 17.4689 1.85491L23.9689 7.35516C24.3058 7.64017 24.5 8.05902 24.5 8.50025C24.5 8.94147 24.3057 9.36032 23.9689 9.64532L17.4689 15.1451C16.8365 15.6802 15.89 15.6013 15.3549 14.9689C14.8198 14.3364 14.8987 13.39 15.5311 12.8549L18.905 10.0002H5.00001C4.72387 10.0002 4.50001 10.2241 4.50001 10.5002V24.5002C4.50001 24.7764 4.72387 25.0002 5.00001 25.0002H26.5C26.7761 25.0002 27 24.7764 27 24.5002V16.5C27 15.6715 27.6716 15 28.5 15C29.3284 15 30 15.6715 30 16.5V24.5002C30 26.4332 28.433 28.0002 26.5 28.0002H5.00001C3.06701 28.0002 1.50001 26.4332 1.50001 24.5002V10.5002C1.50001 8.56722 3.06701 7.00021 5.00001 7.00021H18.9052L15.5311 4.14503C14.8987 3.6099 14.8198 2.66343 15.3549 2.03103Z" fill="currentColor"/>
</svg>
