<svg width="32" height="32" viewBox="0 0 32 32" fill="none" xmlns="http://www.w3.org/2000/svg">
<path fill-rule="evenodd" clip-rule="evenodd" d="M17.1289 17.7099L22.1357 11.9878C22.6306 11.4222 22.6306 10.5778 22.1357 10.0122L17.1289 4.29013C16.5312 3.60714 15.4688 3.60715 14.8711 4.29014L9.86429 10.0123C9.36944 10.5778 9.36944 11.4222 9.86429 11.9878L14.8711 17.7099C14.9731 17.8264 15.0885 17.923 15.2129 17.9998L4.58769 17.9998C3.4353 17.9998 2.71333 19.2453 3.28605 20.2452L7.00705 26.7422C7.45249 27.52 8.28018 27.9998 9.17645 27.9998L22.8235 27.9998C23.7198 27.9998 24.5475 27.52 24.9929 26.7422L28.7139 20.2452C29.2867 19.2453 28.5647 17.9998 27.4123 17.9998L16.7871 17.9998C16.9115 17.923 17.0269 17.8264 17.1289 17.7099Z" fill="currentColor"/>
</svg>
