<svg width="32" height="32" viewBox="0 0 32 32" fill="none" xmlns="http://www.w3.org/2000/svg">
<path fill-rule="evenodd" clip-rule="evenodd" d="M13 3.49994C11.067 3.49994 9.5 5.06694 9.5 6.99994V8.49994H6C4.067 8.49994 2.5 10.0669 2.5 11.9999V23.9999C2.5 25.9329 4.067 27.4999 6 27.4999H7.5C8.32843 27.4999 9 26.8284 9 25.9999C9 25.1715 8.32843 24.4999 7.5 24.4999H6C5.72386 24.4999 5.5 24.2761 5.5 23.9999V11.9999C5.5 11.7238 5.72386 11.4999 6 11.4999H26C26.2761 11.4999 26.5 11.7238 26.5 11.9999V13.9999C26.5 14.8284 27.1716 15.4999 28 15.4999C28.8284 15.4999 29.5 14.8284 29.5 13.9999V11.9999C29.5 10.0669 27.933 8.49994 26 8.49994H22.5V6.99994C22.5 5.06694 20.933 3.49994 19 3.49994H13ZM19.5 8.49994V6.99994C19.5 6.7238 19.2761 6.49994 19 6.49994H13C12.7239 6.49994 12.5 6.7238 12.5 6.99994V8.49994H19.5ZM18 14.4999C18.8284 14.4999 19.5 15.1715 19.5 15.9999V25.9999C19.5 26.8284 18.8284 27.4999 18 27.4999C17.1716 27.4999 16.5 26.8284 16.5 25.9999V15.9999C16.5 15.1715 17.1716 14.4999 18 14.4999ZM24.5 17.9999C24.5 17.1715 23.8284 16.4999 23 16.4999C22.1716 16.4999 21.5 17.1715 21.5 17.9999V25.9999C21.5 26.8284 22.1716 27.4999 23 27.4999C23.8284 27.4999 24.5 26.8284 24.5 25.9999V17.9999ZM28 19.4999C28.8284 19.4999 29.5 20.1715 29.5 20.9999V25.9999C29.5 26.8284 28.8284 27.4999 28 27.4999C27.1716 27.4999 26.5 26.8284 26.5 25.9999V20.9999C26.5 20.1715 27.1716 19.4999 28 19.4999ZM14.5 20.9999C14.5 20.1715 13.8284 19.4999 13 19.4999C12.1716 19.4999 11.5 20.1715 11.5 20.9999V25.9999C11.5 26.8284 12.1716 27.4999 13 27.4999C13.8284 27.4999 14.5 26.8284 14.5 25.9999V20.9999Z" fill="currentColor"/>
</svg>
