<svg width="32" height="32" viewBox="0 0 32 32" fill="none" xmlns="http://www.w3.org/2000/svg">
<path fill-rule="evenodd" clip-rule="evenodd" d="M13 3.5C11.067 3.5 9.49998 5.067 9.49998 7V9H5C3.34315 9 2 10.3431 2 12V24C2 25.6568 3.34315 27 5 27H27C28.6569 27 30 25.6568 30 24V12C30 10.3431 28.6569 9 27 9H22.5V7C22.5 5.067 20.933 3.5 19 3.5H13ZM19.5 9V7C19.5 6.72386 19.2761 6.5 19 6.5H13C12.7238 6.5 12.5 6.72386 12.5 7V9H19.5ZM6.73098 14.2003C7.1717 13.5009 8.09486 13.2902 8.79518 13.7281L8.80837 13.7361C8.82307 13.7449 8.84943 13.7605 8.88708 13.7819C8.96242 13.8247 9.08274 13.8907 9.24509 13.9723C9.57014 14.1357 10.0615 14.3607 10.6957 14.5878C11.9661 15.0425 13.7936 15.5 16 15.5C18.2065 15.5 20.0339 15.0425 21.3043 14.5878C21.9386 14.3607 22.4299 14.1357 22.7549 13.9723C22.9173 13.8907 23.0376 13.8247 23.113 13.7819C23.1506 13.7605 23.177 13.7449 23.1917 13.7361L23.2031 13.7292L23.2049 13.7281C23.9052 13.2902 24.8283 13.5009 25.2691 14.2003C25.7107 14.9011 25.5006 15.8274 24.7997 16.269L24 15C24.7997 16.269 24.7993 16.2693 24.7989 16.2696L24.7979 16.2702L24.7957 16.2715L24.7906 16.2748L24.7766 16.2834C24.772 16.2862 24.7668 16.2894 24.761 16.293C24.7533 16.2977 24.7445 16.303 24.7347 16.3088C24.7006 16.3293 24.654 16.3567 24.5955 16.39C24.4784 16.4565 24.3131 16.5468 24.1025 16.6527C23.6816 16.8642 23.0779 17.1393 22.3154 17.4122C20.7924 17.9574 18.6199 18.5 16 18.5C13.3802 18.5 11.2076 17.9574 9.6846 17.4122C8.92216 17.1393 8.3184 16.8642 7.89755 16.6527C7.68696 16.5468 7.52163 16.4565 7.40456 16.39C7.346 16.3567 7.29946 16.3293 7.26531 16.3088C7.24823 16.2986 7.23425 16.2901 7.2234 16.2834L7.20948 16.2748L7.2043 16.2715L7.20119 16.2696C7.20074 16.2693 7.2003 16.269 8.00002 15L7.2003 16.269C6.49943 15.8274 6.28931 14.9011 6.73098 14.2003Z" fill="currentColor"/>
</svg>
