<svg width="32" height="32" viewBox="0 0 32 32" fill="none" xmlns="http://www.w3.org/2000/svg">
<path fill-rule="evenodd" clip-rule="evenodd" d="M19 6.5C19.8284 6.5 20.5 5.82843 20.5 5.00001C20.5 4.17158 19.8284 3.5 19 3.5L13 3.5C12.1716 3.5 11.5 4.17157 11.5 5C11.5 5.82843 12.1716 6.5 13 6.5L19 6.5ZM3 22V11C3 9.34315 4.34315 8.00001 6 8.00001H26C27.6569 8.00001 29 9.34315 29 11V22C29 23.6569 27.6569 25 26 25H6C4.34315 25 3 23.6569 3 22ZM16 22C18.9455 22 21.3333 19.6122 21.3333 16.6667C21.3333 13.7212 18.9455 11.3333 16 11.3333C13.0545 11.3333 10.6667 13.7212 10.6667 16.6667C10.6667 19.6122 13.0545 22 16 22ZM18.6667 16.6667C18.6667 18.1394 17.4728 19.3333 16 19.3333C14.5272 19.3333 13.3333 18.1394 13.3333 16.6667C13.3333 15.1939 14.5272 14 16 14C17.4728 14 18.6667 15.1939 18.6667 16.6667Z" fill="currentColor"/>
</svg>
