<svg width="32" height="32" viewBox="0 0 32 32" fill="none" xmlns="http://www.w3.org/2000/svg">
<path fill-rule="evenodd" clip-rule="evenodd" d="M4.5 9C4.5 8.17157 5.17157 7.5 6 7.5H17.5C18.3284 7.5 19 6.82843 19 6C19 5.17157 18.3284 4.5 17.5 4.5H6C3.51472 4.5 1.5 6.51472 1.5 9V23C1.5 25.4853 3.51472 27.5 6 27.5H26C28.4853 27.5 30.5 25.4853 30.5 23V19C30.5 18.1716 29.8284 17.5 29 17.5C28.1716 17.5 27.5 18.1716 27.5 19V23C27.5 23.8284 26.8284 24.5 26 24.5H6C5.17157 24.5 4.5 23.8284 4.5 23V9ZM24.6834 5.67523C26.0487 4.31548 28.2563 4.31508 29.6221 5.67432L30.3058 6.35469C31.6768 7.71915 31.6811 9.93704 30.3154 11.3068L29.0667 12.5591L22.5505 19.0943C22.1513 19.4947 21.6611 19.7924 21.1217 19.962L16.4498 21.4306C16.3043 21.4764 16.1526 21.4997 16 21.4997H10C9.17157 21.4997 8.5 20.8281 8.5 19.9997C8.5 19.1713 9.17157 18.4997 10 18.4997H14.8936L16.0091 14.8901C16.1779 14.3438 16.478 13.8472 16.8832 13.4436L23.4163 6.93717L24.6834 5.67523ZM18.2772 17.7114L20.222 17.1001C20.299 17.0758 20.3691 17.0333 20.4261 16.9761L25.8802 11.506L24.4771 10.1147L19.0002 15.5693C18.9423 15.6269 18.8994 15.6979 18.8753 15.7759L18.2772 17.7114Z" fill="currentColor"/>
</svg>
