<svg width="32" height="32" viewBox="0 0 32 32" fill="none" xmlns="http://www.w3.org/2000/svg">
<path fill-rule="evenodd" clip-rule="evenodd" d="M1.5 9C1.5 6.51472 3.51472 4.5 6 4.5H26C28.4853 4.5 30.5 6.51472 30.5 9V12.0001C30.5 12.8285 29.8284 13.5001 29 13.5001C28.1716 13.5001 27.5 12.8285 27.5 12.0001V9C27.5 8.17157 26.8284 7.5 26 7.5H6C5.17157 7.5 4.5 8.17157 4.5 9V23C4.5 23.8284 5.17157 24.5 6 24.5H14C14.8284 24.5 15.5 25.1716 15.5 26C15.5 26.8284 14.8284 27.5 14 27.5H6C3.51472 27.5 1.5 25.4853 1.5 23V9ZM30.0607 16.9394C30.6464 17.5252 30.6464 18.4749 30.0607 19.0607L26.6213 22.5001L30.0607 25.9394C30.6464 26.5252 30.6464 27.4749 30.0607 28.0607C29.4749 28.6465 28.5251 28.6465 27.9393 28.0607L24.5 24.6214L21.0607 28.0607C20.4749 28.6465 19.5251 28.6465 18.9393 28.0607C18.3536 27.4749 18.3536 26.5252 18.9393 25.9394L22.3787 22.5001L18.9393 19.0607C18.3536 18.4749 18.3536 17.5252 18.9393 16.9394C19.5251 16.3536 20.4749 16.3536 21.0607 16.9394L24.5 20.3787L27.9393 16.9394C28.5251 16.3536 29.4749 16.3536 30.0607 16.9394ZM9.50001 11.0001H13.5C13.7762 11.0001 14 11.2239 14 11.5001V14.5001C14 14.7762 13.7762 15.0001 13.5 15.0001H9.50001C9.22387 15.0001 9.00001 14.7762 9.00001 14.5001V11.5001C9.00001 11.2239 9.22387 11.0001 9.50001 11.0001Z" fill="currentColor"/>
</svg>
