<svg width="32" height="32" viewBox="0 0 32 32" fill="none" xmlns="http://www.w3.org/2000/svg">
<path fill-rule="evenodd" clip-rule="evenodd" d="M6 4.5C3.51472 4.5 1.5 6.51472 1.5 9V23C1.5 25.4853 3.51472 27.5 6 27.5H26C28.4853 27.5 30.5 25.4853 30.5 23V9C30.5 6.51472 28.4853 4.5 26 4.5H6ZM4.5 9C4.5 8.17157 5.17157 7.5 6 7.5H26C26.8284 7.5 27.5 8.17157 27.5 9V23C27.5 23.8284 26.8284 24.5 26 24.5H6C5.17157 24.5 4.5 23.8284 4.5 23V9ZM9.5 11H13.5C13.7761 11 14 11.2239 14 11.5V14.5C14 14.7761 13.7761 15 13.5 15H9.5C9.22386 15 9 14.7761 9 14.5V11.5C9 11.2239 9.22386 11 9.5 11Z" fill="currentColor"/>
</svg>
