<svg width="32" height="32" viewBox="0 0 32 32" fill="none" xmlns="http://www.w3.org/2000/svg">
<path fill-rule="evenodd" clip-rule="evenodd" d="M24.3671 3.48506C24.5412 2.83831 25.4588 2.83831 25.6329 3.48506L26.5704 6.96703C26.6312 7.19261 26.8074 7.36881 27.033 7.42955L30.5149 8.36707C31.1617 8.5412 31.1617 9.4588 30.5149 9.63293L27.033 10.5704C26.8074 10.6312 26.6312 10.8074 26.5704 11.033L25.6329 14.5149C25.4588 15.1617 24.5412 15.1617 24.3671 14.5149L23.4296 11.033C23.3688 10.8074 23.1926 10.6312 22.967 10.5704L19.4851 9.63293C18.8383 9.4588 18.8383 8.5412 19.4851 8.36707L22.967 7.42955C23.1926 7.36881 23.3688 7.19261 23.4296 6.96703L24.3671 3.48506ZM6 7.50002C5.17157 7.50002 4.5 8.17159 4.5 9.00002V23C4.5 23.8284 5.17157 24.5 6 24.5H26C26.8284 24.5 27.5 23.8284 27.5 23V18C27.5 17.1716 28.1716 16.5 29 16.5C29.8284 16.5 30.5 17.1716 30.5 18V23C30.5 25.4853 28.4853 27.5 26 27.5H6C3.51472 27.5 1.5 25.4853 1.5 23V9.00002C1.5 6.51474 3.51472 4.50002 6 4.50002H15C15.8284 4.50002 16.5 5.17159 16.5 6.00002C16.5 6.82845 15.8284 7.50002 15 7.50002H6ZM9.5 11H13.5C13.7761 11 14 11.2239 14 11.5V14.5C14 14.7761 13.7761 15 13.5 15H9.5C9.22386 15 9 14.7761 9 14.5V11.5C9 11.2239 9.22386 11 9.5 11Z" fill="currentColor"/>
</svg>
