<svg width="32" height="32" viewBox="0 0 32 32" fill="none" xmlns="http://www.w3.org/2000/svg">
<path fill-rule="evenodd" clip-rule="evenodd" d="M6 4.5C3.51472 4.5 1.5 6.51472 1.5 9V13V23C1.5 25.4853 3.51472 27.5 6 27.5H26C28.4853 27.5 30.5 25.4853 30.5 23V13V9C30.5 6.51472 28.4853 4.5 26 4.5H6ZM27.5 11.5V9C27.5 8.17157 26.8284 7.5 26 7.5H6C5.17157 7.5 4.5 8.17157 4.5 9V11.5H27.5ZM4.5 14.5H27.5V23C27.5 23.8284 26.8284 24.5 26 24.5H6C5.17157 24.5 4.5 23.8284 4.5 23V14.5ZM7 19C7 18.1716 7.67157 17.5 8.5 17.5H15C15.8284 17.5 16.5 18.1716 16.5 19C16.5 19.8284 15.8284 20.5 15 20.5H8.5C7.67157 20.5 7 19.8284 7 19ZM20.5 17.5C19.6716 17.5 19 18.1716 19 19C19 19.8284 19.6716 20.5 20.5 20.5H22C22.8284 20.5 23.5 19.8284 23.5 19C23.5 18.1716 22.8284 17.5 22 17.5H20.5Z" fill="currentColor"/>
</svg>
