<svg width="32" height="32" viewBox="0 0 32 32" fill="none" xmlns="http://www.w3.org/2000/svg">
<path fill-rule="evenodd" clip-rule="evenodd" d="M2 7.5V24.5C2 25.8807 3.11929 27 4.5 27H27.5C28.8807 27 30 25.8807 30 24.5V7.5C30 6.11929 28.8807 5 27.5 5H4.5C3.11929 5 2 6.11929 2 7.5ZM9.50002 11.0001H13.5C13.7762 11.0001 14 11.2239 14 11.5001V14.5001C14 14.7762 13.7762 15.0001 13.5 15.0001H9.50002C9.22387 15.0001 9.00002 14.7762 9.00002 14.5001V11.5001C9.00002 11.2239 9.22387 11.0001 9.50002 11.0001Z" fill="currentColor"/>
</svg>
