<svg width="32" height="32" viewBox="0 0 32 32" fill="none" xmlns="http://www.w3.org/2000/svg">
<path fill-rule="evenodd" clip-rule="evenodd" d="M1.5 9C1.5 6.51472 3.51472 4.5 6 4.5H26C28.4853 4.5 30.5 6.51472 30.5 9V13.5C30.5 14.3284 29.8284 15 29 15C28.1716 15 27.5 14.3284 27.5 13.5V9C27.5 8.17157 26.8284 7.5 26 7.5H6C5.17157 7.5 4.5 8.17157 4.5 9V23C4.5 23.8284 5.17157 24.5 6 24.5H16.5C17.3284 24.5 18 25.1716 18 26C18 26.8284 17.3284 27.5 16.5 27.5H6C3.51472 27.5 1.5 25.4853 1.5 23V9ZM13.5 11H9.5C9.22386 11 9 11.2239 9 11.5V14.5C9 14.7761 9.22386 15 9.5 15H13.5C13.7761 15 14 14.7761 14 14.5V11.5C14 11.2239 13.7761 11 13.5 11ZM31.0992 20.0207C31.6629 19.4136 31.6277 18.4645 31.0207 17.9008C30.4136 17.3371 29.4645 17.3723 28.9008 17.9793L23.6519 23.632L22.2206 21.6281C21.7391 20.954 20.8023 20.7979 20.1281 21.2794C19.454 21.7609 19.2979 22.6977 19.7794 23.3719L22.2794 26.8719C22.5413 27.2386 22.9543 27.4681 23.404 27.4969C23.8537 27.5258 24.2925 27.3509 24.5992 27.0207L31.0992 20.0207Z" fill="currentColor"/>
</svg>
