<svg width="32" height="32" viewBox="0 0 32 32" fill="none" xmlns="http://www.w3.org/2000/svg">
<path fill-rule="evenodd" clip-rule="evenodd" d="M1.5 8.99994C1.5 6.51466 3.51472 4.49994 6 4.49994H26C28.4853 4.49994 30.5 6.51466 30.5 8.99994V11.9999C30.5 12.8284 29.8284 13.4999 29 13.4999C28.1716 13.4999 27.5 12.8284 27.5 11.9999V8.99994C27.5 8.17151 26.8284 7.49994 26 7.49994H6C5.17157 7.49994 4.5 8.17151 4.5 8.99994V22.9999C4.5 23.8284 5.17157 24.4999 6 24.4999H13C13.8284 24.4999 14.5 25.1715 14.5 25.9999C14.5 26.8284 13.8284 27.4999 13 27.4999H6C3.51472 27.4999 1.5 25.4852 1.5 22.9999V8.99994ZM24.5 15.4999C25.3284 15.4999 26 16.1715 26 16.9999V20.9999H30C30.8284 20.9999 31.5 21.6715 31.5 22.4999C31.5 23.3284 30.8284 23.9999 30 23.9999H26V27.9999C26 28.8284 25.3284 29.4999 24.5 29.4999C23.6716 29.4999 23 28.8284 23 27.9999V23.9999H19C18.1716 23.9999 17.5 23.3284 17.5 22.4999C17.5 21.6715 18.1716 20.9999 19 20.9999H23V16.9999C23 16.1715 23.6716 15.4999 24.5 15.4999ZM9.50001 11H13.5C13.7762 11 14 11.2239 14 11.5V14.5C14 14.7761 13.7762 15 13.5 15H9.50001C9.22387 15 9.00001 14.7761 9.00001 14.5V11.5C9.00001 11.2239 9.22387 11 9.50001 11Z" fill="currentColor"/>
</svg>
