<svg width="32" height="32" viewBox="0 0 32 32" fill="none" xmlns="http://www.w3.org/2000/svg">
<path fill-rule="evenodd" clip-rule="evenodd" d="M4 11.5C3.17157 11.5 2.5 10.8284 2.5 10V4C2.5 3.60218 2.65804 3.22065 2.93934 2.93934C3.22064 2.65804 3.60218 2.5 4 2.5H10C10.8284 2.5 11.5 3.17157 11.5 4C11.5 4.82843 10.8284 5.5 10 5.5L5.5 5.5V10C5.5 10.8284 4.82843 11.5 4 11.5ZM26.5 22C26.5 21.1716 27.1716 20.5 28 20.5C28.8284 20.5 29.5 21.1716 29.5 22V28C29.5 28.3978 29.342 28.7794 29.0607 29.0607C28.7794 29.342 28.3978 29.5 28 29.5L22 29.5C21.1716 29.5 20.5 28.8284 20.5 28C20.5 27.1716 21.1716 26.5 22 26.5H26.5V22ZM22 2.5C21.1716 2.5 20.5 3.17157 20.5 4C20.5 4.82843 21.1716 5.5 22 5.5H26.5L26.5 10C26.5 10.8284 27.1716 11.5 28 11.5C28.8284 11.5 29.5 10.8284 29.5 10L29.5 4C29.5 3.60218 29.342 3.22064 29.0607 2.93934C28.7794 2.65804 28.3978 2.5 28 2.5H22ZM10 29.5H4C3.60218 29.5 3.22064 29.342 2.93934 29.0607C2.65804 28.7794 2.5 28.3978 2.5 28L2.5 22C2.5 21.1716 3.17158 20.5 4 20.5C4.82843 20.5 5.5 21.1716 5.5 22L5.5 26.5H10C10.8284 26.5 11.5 27.1716 11.5 28C11.5 28.8284 10.8284 29.5 10 29.5ZM17.2752 14.4668L17.2743 14.4667L17.2733 14.4666C15.1526 13.9743 14.4586 13.564 14.4586 12.7846C14.4586 11.841 15.3841 11.1846 16.7724 11.1846C18.0485 11.1846 19.2269 11.7392 19.9781 12.7209C20.0849 12.8606 20.2787 12.8915 20.4095 12.7773L21.8956 11.4802C22.0086 11.3815 22.0354 11.2076 21.9486 11.0823C21.3437 10.2089 20.3641 9.50099 19.1586 9.10615L19.5118 7.37214C19.5508 7.18082 19.4141 7 19.2305 7H16.9294C16.7933 7 16.6757 7.10173 16.6477 7.24381L16.3429 8.78974C13.5634 9.01846 11.721 10.7805 11.721 13.1128C11.721 15.1231 12.955 16.3538 16.0787 17.0513C17.8913 17.4615 18.4312 17.8308 18.4312 18.6513C18.4312 19.7179 17.3514 20.4564 15.9245 20.4564C14.3413 20.4564 13.0267 19.7064 12.1686 18.4396C12.0689 18.2926 11.8745 18.2554 11.7401 18.3666L10.1101 19.716C9.99525 19.8111 9.96411 19.9833 10.046 20.1115C10.7443 21.2048 11.9508 22.0913 13.4525 22.5461L13.0788 24.222C13.0358 24.4149 13.173 24.6 13.3589 24.6H15.6914C15.8275 24.6 15.945 24.4983 15.9731 24.3562L16.2682 22.8595C19.2791 22.6626 21.2083 20.802 21.2083 18.282C21.2083 16.2719 19.9744 15.0822 17.2752 14.4668Z" fill="currentColor"/>
</svg>
