<svg width="32" height="32" viewBox="0 0 32 32" fill="none" xmlns="http://www.w3.org/2000/svg">
<path fill-rule="evenodd" clip-rule="evenodd" d="M27.2823 4.71775C24.3253 1.76075 19.531 1.76075 16.574 4.71775L10.6459 10.6459L4.71775 16.574C1.76075 19.531 1.76075 24.3253 4.71775 27.2823C7.67475 30.2393 12.469 30.2392 15.426 27.2822L21.3541 21.3541L27.2823 15.426C30.2393 12.469 30.2393 7.67474 27.2823 4.71775ZM18.6953 6.83907C20.4808 5.05364 23.3755 5.05364 25.1609 6.83907C26.9464 8.62449 26.9464 11.5192 25.1609 13.3047L20.2935 18.1721L13.8279 11.7065L18.6953 6.83907ZM11.7065 13.8279L18.1721 20.2935L13.3047 25.1609C11.5192 26.9464 8.62449 26.9464 6.83907 25.1609C5.05364 23.3755 5.05364 20.4808 6.83907 18.6953L11.7065 13.8279ZM22.0607 10.0607C22.6464 9.47487 22.6464 8.52513 22.0607 7.93934C21.4749 7.35355 20.5251 7.35355 19.9393 7.93934L17.4393 10.4393C16.8536 11.0251 16.8536 11.9749 17.4393 12.5607C18.0251 13.1464 18.9749 13.1464 19.5607 12.5607L22.0607 10.0607Z" fill="currentColor"/>
</svg>
