<svg width="32" height="32" viewBox="0 0 32 32" fill="none" xmlns="http://www.w3.org/2000/svg">
<path fill-rule="evenodd" clip-rule="evenodd" d="M16 2.5C8.54417 2.5 2.50001 8.54416 2.50001 16C2.50001 17.548 2.76056 19.0352 3.2402 20.42C2.52675 20.9538 1.95694 21.4327 1.53955 21.8487C1.25778 22.1296 0.981914 22.4437 0.789463 22.7759C0.693379 22.9418 0.577234 23.181 0.523211 23.4731C0.466872 23.7777 0.466229 24.224 0.725753 24.6638C1.05719 25.2255 1.59057 25.4014 1.86358 25.4573C2.14987 25.516 2.41745 25.5031 2.60417 25.4837C2.98978 25.4437 3.42465 25.3306 3.85322 25.1955C4.3411 25.0416 4.91691 24.8276 5.56323 24.5635C8.03913 27.5775 11.7951 29.5 16 29.5C23.4559 29.5 29.5 23.4558 29.5 16C29.5 14.4157 29.2271 12.8952 28.7258 11.4828C29.2915 11.0613 29.7761 10.6749 30.1614 10.3338C30.4955 10.0382 30.8161 9.72369 31.0478 9.41218C31.1597 9.26174 31.3103 9.03424 31.4054 8.75072C31.4982 8.47406 31.6087 7.91373 31.2723 7.34353C30.8382 6.60793 30.0656 6.48582 29.7752 6.45701C29.3867 6.41847 28.971 6.46213 28.5716 6.53838C27.951 6.65684 27.1868 6.89059 26.2823 7.2518C23.8061 4.34419 20.1184 2.5 16 2.5ZM24.9361 10.484C23.0858 7.4928 19.7756 5.5 16 5.5C10.201 5.5 5.50001 10.201 5.50001 16C5.50001 17.7311 5.91894 19.3644 6.66095 20.804C9.19489 19.6265 12.4689 17.9332 15.9951 15.9412C19.5062 13.9579 22.6301 12.0385 24.9361 10.484ZM8.43763 23.2843C10.3476 25.2667 13.0298 26.5 16 26.5C21.799 26.5 26.5 21.799 26.5 16C26.5 15.0609 26.3767 14.1506 26.1455 13.2844C23.8133 14.8334 20.801 16.672 17.4706 18.5533C14.126 20.4426 10.9802 22.0815 8.43763 23.2843ZM28.6474 7.61205C28.6476 7.61203 28.6459 7.6146 28.642 7.61987C28.6454 7.61472 28.6473 7.61208 28.6474 7.61205ZM2.28098 22.5007C2.28107 22.5006 2.2842 22.5004 2.29009 22.5002C2.28384 22.5007 2.28089 22.5008 2.28098 22.5007Z" fill="currentColor"/>
</svg>
