<svg width="32" height="32" viewBox="0 0 32 32" fill="none" xmlns="http://www.w3.org/2000/svg">
<path fill-rule="evenodd" clip-rule="evenodd" d="M4.49994 4C4.49994 3.17157 5.17151 2.5 5.99994 2.5H25.9999C26.8284 2.5 27.4999 3.17157 27.4999 4C27.4999 4.82843 26.8284 5.5 25.9999 5.5L5.99994 5.5C5.17151 5.5 4.49994 4.82843 4.49994 4ZM7.99994 7.5C7.17151 7.5 6.49994 8.17157 6.49994 9C6.49994 9.82843 7.17151 10.5 7.99994 10.5H8.49994V23C8.49994 23.8284 9.17151 24.5 9.99994 24.5C10.8284 24.5 11.4999 23.8284 11.4999 23V10.5H14.4999V23C14.4999 23.8284 15.1715 24.5 15.9999 24.5C16.8284 24.5 17.4999 23.8284 17.4999 23V10.5H20.4999V23C20.4999 23.8284 21.1715 24.5 21.9999 24.5C22.8284 24.5 23.4999 23.8284 23.4999 23V10.5H23.9999C24.8284 10.5 25.4999 9.82843 25.4999 9C25.4999 8.17157 24.8284 7.5 23.9999 7.5H21.9999H15.9999H9.99994H7.99994ZM5.99994 26.5C5.17151 26.5 4.49994 27.1716 4.49994 28C4.49994 28.8284 5.17151 29.5 5.99994 29.5L25.9999 29.5C26.8284 29.5 27.4999 28.8284 27.4999 28C27.4999 27.1716 26.8284 26.5 25.9999 26.5L5.99994 26.5Z" fill="currentColor"/>
</svg>
