<svg width="32" height="32" viewBox="0 0 32 32" fill="none" xmlns="http://www.w3.org/2000/svg">
<path fill-rule="evenodd" clip-rule="evenodd" d="M10.142 3.76959C10.5443 3.48908 11.0584 3.42295 11.5186 3.59249L30.5186 10.5925C31.1083 10.8098 31.5 11.3716 31.5 12V27C31.5 27.8284 30.8284 28.5 30 28.5H23H17H11L2 28.5C1.17157 28.5 0.5 27.8284 0.5 27V17C0.5 16.4985 0.750652 16.0301 1.16795 15.7519L9.5 10.1972V5.00001C9.5 4.50957 9.73975 4.05011 10.142 3.76959ZM18.5 25.5H21.5V20.5H18.5V25.5ZM24.5 25.5V19C24.5 18.1716 23.8284 17.5 23 17.5H17C16.1716 17.5 15.5 18.1716 15.5 19V25.5H12.5V11V7.1512L28.5 13.0459V25.5H24.5ZM9.5 13.8028V25.5L3.5 25.5V17.8028L9.5 13.8028Z" fill="currentColor"/>
</svg>
