<svg width="32" height="32" viewBox="0 0 32 32" fill="none" xmlns="http://www.w3.org/2000/svg">
<path fill-rule="evenodd" clip-rule="evenodd" d="M2.08482 3.81149C2.45363 3.52752 2.93337 3.43086 3.38337 3.54985L29.3834 10.4249C30.0415 10.5989 30.4999 11.1943 30.4999 11.875V27C30.4999 27.8284 29.8283 28.5 28.9999 28.5C28.1715 28.5 27.4999 27.8284 27.4999 27V13.0299L4.49992 6.9482V27C4.49992 27.8284 3.82834 28.5 2.99992 28.5C2.17149 28.5 1.49992 27.8284 1.49992 27V5.00001C1.49992 4.53455 1.716 4.09545 2.08482 3.81149ZM8.90004 16.2816C9.38154 15.1982 10.4559 14.5 11.6415 14.5H20.3585C21.5441 14.5 22.6185 15.1982 23.1 16.2816L24.5597 19.566C25.3045 19.3365 26.1109 19.7186 26.3979 20.4563C26.6981 21.2284 26.3156 22.0977 25.5435 22.398L25.4969 22.2783C25.497 22.2788 25.497 22.2792 25.497 22.2797C25.5429 22.3983 25.5426 22.3984 25.5423 22.3985L25.5411 22.3989L25.5384 22.4L25.5324 22.4023L25.5175 22.4079C25.5122 22.4099 25.5064 22.412 25.5 22.4144C25.5 22.4177 25.5 22.4211 25.5 22.4244V27C25.5 27.8284 24.8284 28.5 24 28.5C23.1716 28.5 22.5 27.8284 22.5 27V23.0845C20.9805 23.3083 18.848 23.5 15.9998 23.5C13.1519 23.5 11.0195 23.3084 9.5 23.0845V27C9.5 27.8284 8.82842 28.5 8 28.5C7.17157 28.5 6.5 27.8284 6.5 27V22.4244C6.5 22.4211 6.5 22.4178 6.50001 22.4145C6.49349 22.4121 6.48755 22.4099 6.48219 22.4079L6.46729 22.4023L6.46126 22.4L6.4586 22.3989L6.45736 22.3985C6.45709 22.3984 6.45683 22.3983 6.50303 22.2789C6.50305 22.2784 6.50307 22.2779 6.50309 22.2774L6.45617 22.398C5.68408 22.0977 5.30158 21.2284 5.60184 20.4563C5.88878 19.7185 6.69543 19.3364 7.44028 19.566L8.90004 16.2816ZM10.4473 20.1868C11.7805 20.358 13.6072 20.5 15.9998 20.5C18.3926 20.5 20.2194 20.358 21.5526 20.1868L20.3585 17.5L11.6415 17.5L10.4473 20.1868ZM24.4661 19.5982C24.4665 19.598 24.4668 19.5979 24.467 19.5978L24.4635 19.5992L24.4603 19.6004L24.4584 19.6011L24.4573 19.6016C24.4602 19.6004 24.4632 19.5993 24.4661 19.5982ZM11.8333 26C11.8333 25.1716 12.5049 24.5 13.3333 24.5L18.6667 24.5C19.4951 24.5 20.1667 25.1716 20.1667 26C20.1667 26.8284 19.4951 27.5 18.6667 27.5L13.3333 27.5C12.5049 27.5 11.8333 26.8284 11.8333 26Z" fill="currentColor"/>
</svg>
