<svg width="32" height="32" viewBox="0 0 32 32" fill="none" xmlns="http://www.w3.org/2000/svg">
<path fill-rule="evenodd" clip-rule="evenodd" d="M3.13218 3.01597C2.5887 2.39073 1.64127 2.32445 1.01603 2.86793C0.390792 3.41141 0.324511 4.35884 0.867988 4.98408L2.42751 6.77821L2.42748 20.0565C1.86174 20.5148 1.5001 21.2152 1.5001 22V26C1.5001 27.3807 2.61938 28.5 4.0001 28.5H29.0001C30.3808 28.5 31.5001 27.3807 31.5001 26V22C31.5001 21.1487 31.0747 20.3969 30.4248 19.9454C30.0158 17.1011 27.975 14.7105 25.1512 13.9L21.7058 12.9111L16.5714 11.3002C15.8181 11.0638 15.2208 10.4856 14.9601 9.74041L13.5542 5.72207C13.3437 5.12034 12.7758 4.71741 12.1384 4.71741H4.61113L3.13218 3.01597ZM4.5001 22.5H21.2743H28.5001V25.5H4.5001V22.5ZM27.236 19.5C26.7657 18.2083 25.7016 17.1791 24.3236 16.7836L22.3781 16.2252C22.238 16.9194 22.1318 17.6097 22.1318 18.0435C22.1318 18.4581 22.2339 18.9941 22.369 19.5H27.236ZM19.2899 19.5C19.1996 19.0417 19.1318 18.5359 19.1318 18.0435C19.1318 17.2216 19.3247 16.1607 19.4854 15.399L19.4934 15.3612L15.6733 14.1626C14.0161 13.6426 12.7019 12.3705 12.1284 10.7311L11.074 7.71741H5.42751L5.42748 19.5H19.2899Z" fill="currentColor"/>
</svg>
