<svg width="32" height="32" viewBox="0 0 32 32" fill="none" xmlns="http://www.w3.org/2000/svg">
<path fill-rule="evenodd" clip-rule="evenodd" d="M9.50001 2.5C8.67158 2.5 8.00001 3.17157 8.00001 4C8.00001 4.82843 8.67158 5.5 9.50001 5.5H14.5V7.5H5.99995C5.48008 7.5 4.99728 7.76918 4.72397 8.2114C4.45066 8.65363 4.42582 9.20584 4.65831 9.67082L6.49995 13.3541V27.5H5.99995C5.17153 27.5 4.49995 28.1716 4.49995 29C4.49995 29.8284 5.17152 30.5 5.99994 30.5H7.99995H23.9999L25.9999 30.5C26.8284 30.5 27.4999 29.8284 27.4999 29C27.5 28.1716 26.8284 27.5 26 27.5H25.4999V23.5H28.4999C29.6045 23.5 30.4999 22.6046 30.4999 21.5V14.5C30.4999 13.3954 29.6045 12.5 28.4999 12.5H25.4999V9C25.4999 8.17157 24.8284 7.5 23.9999 7.5H17.5V5.5H22.5C23.3284 5.5 24 4.82843 24 4C24 3.17157 23.3284 2.5 22.5 2.5H16H9.50001ZM14.5 10.5H8.427L9.34159 12.3292C9.44573 12.5375 9.49995 12.7671 9.49995 13V27.5H22.4999V22.0024L22.4999 22L22.4999 21.9976V14.0024L22.4999 14L22.4999 13.9976V10.5H17.5V20.5H19C19.8284 20.5 20.5 21.1716 20.5 22C20.5 22.8284 19.8284 23.5 19 23.5H16.0054C16.0036 23.5 16.0018 23.5 16 23.5C15.9982 23.5 15.9964 23.5 15.9946 23.5H13C12.1716 23.5 11.5 22.8284 11.5 22C11.5 21.1716 12.1716 20.5 13 20.5H14.5V10.5ZM25.4999 15.5V20.5H27.4999V15.5H25.4999Z" fill="currentColor"/>
</svg>
