<svg width="32" height="32" viewBox="0 0 32 32" fill="none" xmlns="http://www.w3.org/2000/svg">
<path fill-rule="evenodd" clip-rule="evenodd" d="M12.5 7.8C12.5 6.03458 14.0087 4.5 16 4.5C17.9913 4.5 19.5 6.03458 19.5 7.8V8.5H12.5V7.8ZM9.5 8.5V7.8C9.5 4.26348 12.4684 1.5 16 1.5C19.5316 1.5 22.5 4.26348 22.5 7.8V8.5H28C28.4267 8.5 28.8331 8.6817 29.1177 8.99962C29.4023 9.31754 29.538 9.74159 29.4908 10.1656L27.4908 28.1656C27.4064 28.9253 26.7643 29.5 26 29.5H6.00001C5.23568 29.5 4.59359 28.9253 4.50918 28.1656L2.50918 10.1656C2.46206 9.74159 2.59776 9.31754 2.88232 8.99962C3.16687 8.6817 3.57334 8.5 4.00001 8.5H9.5ZM11 11.5H5.6759L7.34257 26.5H24.6574L26.3241 11.5H21H11Z" fill="currentColor"/>
</svg>
