<svg width="32" height="32" viewBox="0 0 32 32" fill="none" xmlns="http://www.w3.org/2000/svg">
<path fill-rule="evenodd" clip-rule="evenodd" d="M1.49995 4C1.49995 3.17157 2.17153 2.5 2.99995 2.5H29C29.8284 2.5 30.5 3.17157 30.5 4V10C30.5 10.8284 29.8284 11.5 29 11.5H28.5V28C28.5 28.8284 27.8284 29.5 27 29.5H4.99995C4.17153 29.5 3.49995 28.8284 3.49995 28V11.5H2.99995C2.17153 11.5 1.49995 10.8284 1.49995 10V4ZM6.49995 11.5H25.5V26.5H6.49995V11.5ZM27.5 8.5L27 8.5H4.99995L4.49995 8.5V5.5H27.5V8.5ZM13 15.5C12.1715 15.5 11.5 16.1716 11.5 17C11.5 17.8284 12.1715 18.5 13 18.5H19C19.8284 18.5 20.5 17.8284 20.5 17C20.5 16.1716 19.8284 15.5 19 15.5H13Z" fill="currentColor"/>
</svg>
