<svg width="32" height="32" viewBox="0 0 32 32" fill="none" xmlns="http://www.w3.org/2000/svg">
<path fill-rule="evenodd" clip-rule="evenodd" d="M6.34317 5.5C6.0357 5.5 5.80107 5.7749 5.84938 6.07856L6.71983 11.5499C6.99018 13.2492 8.45565 14.5 10.1764 14.5H10.9998H11H11.8233C13.544 14.5 15.0095 13.2492 15.2799 11.5499L16.1503 6.07856C16.1986 5.7749 15.964 5.5 15.6565 5.5H15.4544C14.626 5.5 13.9544 4.82843 13.9544 4C13.9544 3.17157 14.626 2.5 15.4544 2.5H15.6565C17.8088 2.5 19.4512 4.4243 19.113 6.5499L18.2426 12.0212C17.7764 14.9518 15.3963 17.164 12.5 17.465V22C12.5 25.0376 14.9624 27.5 18 27.5C21.0376 27.5 23.5 25.0376 23.5 22V21.2439C21.7522 20.6262 20.5 18.9593 20.5 17C20.5 14.5147 22.5147 12.5 25 12.5C27.4853 12.5 29.5 14.5147 29.5 17C29.5 18.9593 28.2478 20.6262 26.5 21.2439V22C26.5 26.6944 22.6944 30.5 18 30.5C13.3056 30.5 9.5 26.6944 9.5 22V17.465C6.60356 17.1642 4.22333 14.9519 3.75708 12.0212L2.88664 6.5499C2.54848 4.4243 4.19084 2.5 6.34317 2.5H6.5453C7.37372 2.5 8.0453 3.17157 8.0453 4C8.0453 4.82843 7.37372 5.5 6.5453 5.5H6.34317ZM25 18.5C25.8284 18.5 26.5 17.8284 26.5 17C26.5 16.1716 25.8284 15.5 25 15.5C24.1716 15.5 23.5 16.1716 23.5 17C23.5 17.8284 24.1716 18.5 25 18.5Z" fill="currentColor"/>
</svg>
