<svg width="32" height="32" viewBox="0 0 32 32" fill="none" xmlns="http://www.w3.org/2000/svg">
<path fill-rule="evenodd" clip-rule="evenodd" d="M14.5 24C14.5 24.8284 15.1716 25.5 16 25.5C16.8284 25.5 17.5 24.8284 17.5 24V16.5H21.7396L19.9717 27.5H12.0281L10.2602 16.5H14.5V24ZM17.5 13.5H21.7058C21.4056 12.7166 20.8827 11.944 20.1713 11.274C19.4007 10.5483 18.4723 10.0048 17.5 9.7211V13.5ZM14.5 9.72106V13.5H10.294C10.5942 12.7166 11.1171 11.944 11.8285 11.274C12.5992 10.5483 13.5276 10.0048 14.5 9.72106ZM14.5 6.63988C12.6974 6.97569 11.0467 7.88933 9.77178 9.09003C8.51008 10.2782 7.52763 11.834 7.15845 13.539C6.49454 13.6936 5.99991 14.289 5.99991 15C5.99991 15.7318 6.52406 16.3413 7.21746 16.4734L9.1337 28.3967C9.32849 29.6087 10.3744 30.5 11.602 30.5H20.3978C21.6254 30.5 22.6713 29.6087 22.8661 28.3967L24.7824 16.4734C25.4758 16.3413 25.9999 15.7318 25.9999 15C25.9999 14.289 25.5053 13.6936 24.8414 13.539C24.4722 11.834 23.4897 10.2782 22.228 9.09003C20.9531 7.88936 19.3025 6.97575 17.5 6.63991V4.92701L19.6708 3.8416C20.4118 3.47112 20.7121 2.57011 20.3416 1.82914C19.9711 1.08817 19.0701 0.787838 18.3292 1.15832L15.3292 2.65832C14.821 2.91241 14.5 3.4318 14.5 3.99996V6.63988Z" fill="currentColor"/>
</svg>
