<svg width="32" height="32" viewBox="0 0 32 32" fill="none" xmlns="http://www.w3.org/2000/svg">
<path fill-rule="evenodd" clip-rule="evenodd" d="M10.0551 6.5C8.92771 6.5 7.93981 7.25455 7.64318 8.34221L5.72222 15.3857C6.68453 14.8227 7.80456 14.5 8.99997 14.5C12.2498 14.5 14.9425 16.8849 15.4235 20H16.5764C17.0574 16.8849 19.7502 14.5 23 14.5C24.1954 14.5 25.3155 14.8227 26.2778 15.3858L24.3569 8.34221C24.0602 7.25455 23.0723 6.5 21.9449 6.5H19.9999C19.1715 6.5 18.4999 5.82843 18.4999 5C18.4999 4.17157 19.1715 3.5 19.9999 3.5H21.9449C24.4252 3.5 26.5986 5.16001 27.2511 7.55285L30.9473 21.1053C31.1652 21.9046 30.694 22.7292 29.8948 22.9471C29.7372 22.9901 29.5785 23.0063 29.4238 22.9985C28.9434 26.1143 26.2503 28.5 23 28.5C19.7502 28.5 17.0574 26.1151 16.5764 23H15.4235C14.9425 26.1151 12.2498 28.5 8.99997 28.5C5.74965 28.5 3.05655 26.1143 2.57618 22.9985C2.42144 23.0063 2.26284 22.9901 2.10523 22.9471C1.30599 22.7292 0.834784 21.9046 1.05276 21.1053L4.74889 7.55285C5.40148 5.16001 7.57486 3.5 10.0551 3.5H11.9999C12.8283 3.5 13.4999 4.17157 13.4999 5C13.4999 5.82843 12.8283 6.5 11.9999 6.5H10.0551ZM8.99997 17.5C7.06697 17.5 5.49997 19.067 5.49997 21V21.5V22C5.49997 23.933 7.06697 25.5 8.99997 25.5C10.933 25.5 12.5 23.933 12.5 22V21.5V21C12.5 19.067 10.933 17.5 8.99997 17.5ZM23 17.5C21.067 17.5 19.5 19.067 19.5 21V21.5V22C19.5 23.933 21.067 25.5 23 25.5C24.933 25.5 26.5 23.933 26.5 22V21.5V21C26.5 19.067 24.933 17.5 23 17.5Z" fill="currentColor"/>
</svg>
