<svg width="32" height="32" viewBox="0 0 32 32" fill="none" xmlns="http://www.w3.org/2000/svg">
<path fill-rule="evenodd" clip-rule="evenodd" d="M9 2.5C5.41015 2.5 2.5 5.41015 2.5 9C2.5 11.7039 4.15104 14.0223 6.49998 15.0018L6.49999 20.55C5.35887 20.7817 4.5 21.7905 4.5 23V28C4.5 28.8284 5.17157 29.5 6 29.5H17C17.8284 29.5 18.5 28.8284 18.5 28V24C18.5 22.1247 17.0252 20.5939 15.1722 20.5042L13.9212 15.5H16.5L16.5 18C16.5 18.8284 17.1716 19.5 18 19.5C18.8285 19.5 19.5 18.8284 19.5 18L19.5 15.5H20C22.869 15.5 25.225 13.3033 25.4776 10.5H30C30.8284 10.5 31.5 9.82843 31.5 9C31.5 8.17157 30.8284 7.5 30 7.5H25.4776C25.225 4.69675 22.869 2.5 20 2.5H18H9ZM10.8288 15.5L12.0788 20.5H9.49999L9.49998 15.5H10.8288ZM9 5.5H16.5V12.5H9C7.067 12.5 5.5 10.933 5.5 9C5.5 7.067 7.067 5.5 9 5.5ZM20 12.5H19.5V5.5H20C21.3807 5.5 22.5 6.61929 22.5 8V10C22.5 11.3807 21.3807 12.5 20 12.5ZM7.5 23.5V26.5H15.5V24C15.5 23.7239 15.2761 23.5 15 23.5H7.5Z" fill="currentColor"/>
</svg>
