<svg width="32" height="32" viewBox="0 0 32 32" fill="none" xmlns="http://www.w3.org/2000/svg">
<path fill-rule="evenodd" clip-rule="evenodd" d="M20.6708 3.34173C21.4118 2.97124 21.7121 2.07023 21.3417 1.32926C20.9712 0.588296 20.0702 0.28796 19.3292 0.658444L15.3292 2.65844C14.821 2.91253 14.5 3.43193 14.5 4.00008V8.50006H7.01924C7.00772 8.49993 6.99616 8.49992 6.98458 8.50006H5.00012C4.17169 8.50006 3.50012 9.17163 3.50012 10.0001C3.50012 10.8285 4.17169 11.5001 5.00012 11.5001H5.64969L6.13991 16.1571L7.50833 29.1571C7.58869 29.9205 8.23245 30.5001 9.00009 30.5001H23.0001C23.7677 30.5001 24.4115 29.9205 24.4918 29.1571L25.8603 16.1571L26.3505 11.5001H27.0001C27.8285 11.5001 28.5001 10.8285 28.5001 10.0001C28.5001 9.17163 27.8285 8.50006 27.0001 8.50006H25.0173C25.0046 8.4999 24.9919 8.4999 24.9793 8.50006H17.5V4.92714L20.6708 3.34173ZM8.98206 14.5001L8.66627 11.5001H23.3339L23.0181 14.5001H8.98206ZM21.6497 27.5001L22.7023 17.5001H9.29785L10.3505 27.5001H21.6497Z" fill="currentColor"/>
</svg>
