<svg width="32" height="32" viewBox="0 0 32 32" fill="none" xmlns="http://www.w3.org/2000/svg">
<path fill-rule="evenodd" clip-rule="evenodd" d="M12 1.16663C12.8284 1.16663 13.5 1.8382 13.5 2.66663V5.16663H18.5V2.66663C18.5 1.8382 19.1716 1.16663 20 1.16663C20.8284 1.16663 21.5 1.8382 21.5 2.66663V5.16663H25.3333C26.1617 5.16663 26.8333 5.8382 26.8333 6.66663V10.5H29.3333C30.1618 10.5 30.8333 11.1715 30.8333 12C30.8333 12.8284 30.1618 13.5 29.3333 13.5H26.8333V18.5H29.3333C30.1618 18.5 30.8333 19.1715 30.8333 20C30.8333 20.8284 30.1618 21.5 29.3333 21.5H26.8333V25.3333C26.8333 26.1617 26.1617 26.8333 25.3333 26.8333H21.5V29.3333C21.5 30.1617 20.8284 30.8333 20 30.8333C19.1716 30.8333 18.5 30.1617 18.5 29.3333V26.8333H13.5V29.3333C13.5 30.1617 12.8284 30.8333 12 30.8333C11.1716 30.8333 10.5 30.1617 10.5 29.3333V26.8333H6.66666C5.83823 26.8333 5.16666 26.1617 5.16666 25.3333V21.5H2.66666C1.83823 21.5 1.16666 20.8284 1.16666 20C1.16666 19.1715 1.83823 18.5 2.66666 18.5H5.16666L5.16666 13.5H2.66666C1.83823 13.5 1.16666 12.8284 1.16666 12C1.16666 11.1715 1.83823 10.5 2.66666 10.5H5.16666V6.66663C5.16666 5.8382 5.83823 5.16663 6.66666 5.16663H10.5V2.66663C10.5 1.8382 11.1716 1.16663 12 1.16663ZM8.16666 12L8.16666 20L8.16666 23.8333L12 23.8333H20L23.8333 23.8333L23.8333 20V12L23.8333 8.16663H20H12H8.16666V12Z" fill="currentColor"/>
</svg>
