<svg width="32" height="32" viewBox="0 0 32 32" fill="none" xmlns="http://www.w3.org/2000/svg">
<path fill-rule="evenodd" clip-rule="evenodd" d="M9.50001 5C9.50001 4.17157 8.82843 3.5 8.00001 3.5C7.17158 3.5 6.50001 4.17157 6.50001 5C6.50001 5.1129 6.50294 5.22539 6.50871 5.33742C6.50295 5.39083 6.5 5.44507 6.5 5.5C6.5 7.03089 6.0198 8.28257 5.26171 9.1318C4.51878 9.96405 3.43233 10.5 2.00001 10.5C1.17158 10.5 0.500005 11.1716 0.500005 12C0.500005 12.8284 1.17158 13.5 2.00001 13.5C3.73745 13.5 5.27445 12.9792 6.5 12.0522V21.5H2.00001C1.17158 21.5 0.500005 22.1716 0.500005 23C0.500005 23.8284 1.17158 24.5 2.00001 24.5H6.5V28C6.5 28.8284 7.17157 29.5 8 29.5C8.82843 29.5 9.5 28.8284 9.5 28V24.5H16H22.5V28C22.5 28.8284 23.1716 29.5 24 29.5C24.8284 29.5 25.5 28.8284 25.5 28V24.5H30C30.8284 24.5 31.5 23.8284 31.5 23C31.5 22.1716 30.8284 21.5 30 21.5H25.5V12.0522C26.7256 12.9792 28.2626 13.5 30 13.5C30.8284 13.5 31.5 12.8284 31.5 12C31.5 11.1716 30.8284 10.5 30 10.5C28.5677 10.5 27.4812 9.96405 26.7383 9.1318C25.9802 8.28257 25.5 7.03089 25.5 5.5C25.5 5.44509 25.497 5.39087 25.4913 5.33749C25.4971 5.22544 25.5 5.11292 25.5 5C25.5 4.17157 24.8284 3.5 24 3.5C23.1716 3.5 22.5 4.17157 22.5 5C22.5 6.23395 21.8254 7.60264 20.5854 8.70399C19.3571 9.79497 17.7033 10.5 16 10.5C14.2967 10.5 12.6429 9.79497 11.4146 8.70399C10.1746 7.60264 9.50001 6.23395 9.50001 5ZM22.5 11.0153C21.1408 12.1977 19.4004 13.0702 17.5 13.3784V21.5H22.5V11.0153ZM9.5 21.5H14.5V13.3784C12.5996 13.0702 10.8592 12.1977 9.5 11.0152V21.5Z" fill="currentColor"/>
</svg>
