<svg width="32" height="32" viewBox="0 0 32 32" fill="none" xmlns="http://www.w3.org/2000/svg">
<path fill-rule="evenodd" clip-rule="evenodd" d="M9.5 3.5C8.88664 3.5 8.33508 3.87343 8.10729 4.44291L6.48445 8.5H6C5.17157 8.5 4.5 9.17157 4.5 10C4.5 10.8284 5.17157 11.5 6 11.5H6.20446L8.51596 27.2182C8.62423 27.9545 9.25587 28.5 10 28.5H22C22.7441 28.5 23.3758 27.9545 23.484 27.2182L25.7955 11.5H26C26.8284 11.5 27.5 10.8284 27.5 10C27.5 9.17157 26.8284 8.5 26 8.5H25.5156L23.8927 4.44291C23.6649 3.87343 23.1134 3.5 22.5 3.5H9.5ZM22.2845 8.5L21.4845 6.5H10.5155L9.71555 8.5H22.2845ZM9.23672 11.5L9.82496 15.5H22.175L22.7633 11.5H9.23672ZM11.2955 25.5L10.2661 18.5H21.7339L20.7045 25.5H11.2955Z" fill="currentColor"/>
</svg>
