<svg width="32" height="32" viewBox="0 0 32 32" fill="none" xmlns="http://www.w3.org/2000/svg">
<path fill-rule="evenodd" clip-rule="evenodd" d="M5.50002 8C5.50002 6.067 7.06702 4.5 9.00002 4.5C10.3832 4.5 11.5818 5.30217 12.1508 6.47339C12.4018 6.98999 12.9257 7.31794 13.5 7.31794C14.0744 7.31794 14.5983 6.98999 14.8492 6.47339C15.4182 5.30217 16.6169 4.5 18 4.5C19.4713 4.5 20.734 5.4083 21.2512 6.70031C21.4502 7.19741 21.899 7.55075 22.429 7.62743C22.9589 7.70411 23.4895 7.4925 23.8212 7.07219C24.0984 6.721 24.523 6.5 25 6.5C25.8284 6.5 26.5 7.17157 26.5 8C26.5 8.82843 25.8284 9.5 25 9.5H20C19.1716 9.5 18.5 10.1716 18.5 11C18.5 11.8284 19.1716 12.5 20 12.5H23.5V15V23V26.5H8.50002V14.4811C8.66504 14.4936 8.83178 14.5 9.00002 14.5H12.5V16C12.5 16.8284 13.1716 17.5 14 17.5C14.8284 17.5 15.5 16.8284 15.5 16V13C15.5 12.1716 14.8284 11.5 14 11.5H9.00002C7.06702 11.5 5.50002 9.933 5.50002 8ZM5.50002 13.4782C3.69586 12.3231 2.50002 10.3012 2.50002 8C2.50002 4.41015 5.41016 1.5 9.00002 1.5C10.7477 1.5 12.3329 2.18981 13.5 3.30991C14.6671 2.18981 16.2523 1.5 18 1.5C20.0523 1.5 21.8805 2.45084 23.0709 3.93367C23.6554 3.65587 24.3096 3.5 25 3.5C27.4853 3.5 29.5 5.51472 29.5 8C29.5 9.95933 28.2478 11.6262 26.5 12.2439V13.5H28C29.933 13.5 31.5 15.067 31.5 17V21C31.5 22.933 29.933 24.5 28 24.5H26.5V26.5H27C27.8284 26.5 28.5 27.1716 28.5 28C28.5 28.8284 27.8284 29.5 27 29.5H25H7.00002H5.00002C4.17159 29.5 3.50002 28.8284 3.50002 28C3.50002 27.1716 4.17159 26.5 5.00002 26.5H5.50002V13.4782ZM26.5 16.5V21.5H28C28.2762 21.5 28.5 21.2761 28.5 21V17C28.5 16.7239 28.2762 16.5 28 16.5H26.5Z" fill="currentColor"/>
</svg>
