<svg width="32" height="32" viewBox="0 0 32 32" fill="none" xmlns="http://www.w3.org/2000/svg">
<path fill-rule="evenodd" clip-rule="evenodd" d="M12 1.5C12.8284 1.5 13.5 2.17157 13.5 3V6.5H18.5V3C18.5 2.17157 19.1716 1.5 20 1.5C20.8284 1.5 21.5 2.17157 21.5 3V6.5H23C23.8284 6.5 24.5 7.17157 24.5 8V13C24.5 17.1826 21.479 20.6596 17.5 21.3681V29C17.5 29.8284 16.8284 30.5 16 30.5C15.1716 30.5 14.5 29.8284 14.5 29V21.3681C10.521 20.6596 7.50002 17.1826 7.50002 13V8C7.50002 7.17157 8.17159 6.5 9.00002 6.5H10.5V3C10.5 2.17157 11.1716 1.5 12 1.5ZM20 9.5H12H10.5V13C10.5 16.0376 12.9625 18.5 16 18.5C19.0376 18.5 21.5 16.0376 21.5 13V9.5H20Z" fill="currentColor"/>
</svg>
