<svg width="32" height="32" viewBox="0 0 32 32" fill="none" xmlns="http://www.w3.org/2000/svg">
<path fill-rule="evenodd" clip-rule="evenodd" d="M4.99654 4.88507C5.61231 4.33088 6.56074 4.3808 7.11493 4.99657L16 14.8689L24.885 4.99657C25.4392 4.38081 26.3877 4.33089 27.0034 4.88508C27.6192 5.43927 27.6691 6.3877 27.1149 7.00347L18.018 17.1111L24.5864 24.4093C24.909 24.3649 25.316 24.307 25.7757 24.2375C26.9293 24.063 28.3914 23.8188 29.6769 23.5352C30.4859 23.3568 31.2863 23.8679 31.4648 24.6769C31.6432 25.4859 31.1321 26.2863 30.3231 26.4648C28.9419 26.7695 27.4041 27.0253 26.2243 27.2037C25.6317 27.2934 25.1236 27.3644 24.7631 27.413C24.5828 27.4373 24.4391 27.4561 24.34 27.4689L24.2257 27.4835L24.1953 27.4873L24.1872 27.4883L24.1849 27.4886L24.1843 27.4887L24.184 27.4887C24.184 27.4887 24.1839 27.4887 24 26L24.1839 27.4887C23.6977 27.5488 23.2128 27.3676 22.885 27.0035L16 19.3534L9.11492 27.0035C8.7872 27.3676 8.3023 27.5488 7.81609 27.4887L7.99998 26C7.81609 27.4887 7.81602 27.4887 7.81594 27.4887L7.81571 27.4887L7.81503 27.4886L7.81276 27.4883L7.80463 27.4873L7.77431 27.4835L7.65996 27.4689C7.56086 27.4561 7.41722 27.4374 7.23688 27.413C6.87638 27.3644 6.36832 27.2934 5.77565 27.2037C4.59592 27.0253 3.05806 26.7695 1.67687 26.4648C0.86789 26.2864 0.356748 25.4859 0.535197 24.6769C0.713649 23.8679 1.51412 23.3568 2.3231 23.5352C3.60857 23.8188 5.07072 24.063 6.22432 24.2375C6.68397 24.307 7.091 24.3649 7.41355 24.4093L13.9819 17.1111L4.88505 7.00346C4.33086 6.38769 4.38078 5.43926 4.99654 4.88507ZM14 25.5C13.1716 25.5 12.5 26.1716 12.5 27C12.5 27.8284 13.1716 28.5 14 28.5H18C18.8284 28.5 19.5 27.8284 19.5 27C19.5 26.1716 18.8284 25.5 18 25.5H14Z" fill="currentColor"/>
</svg>
