<svg width="32" height="32" viewBox="0 0 32 32" fill="none" xmlns="http://www.w3.org/2000/svg">
<path fill-rule="evenodd" clip-rule="evenodd" d="M25.1234 10.998C26.3263 12.5631 27.1355 14.4464 27.403 16.5H30C30.8284 16.5 31.5 17.1716 31.5 18C31.5 18.8284 30.8284 19.5 30 19.5H26H5.99998H1.99998C1.17156 19.5 0.499985 18.8284 0.499985 18C0.499985 17.1716 1.17156 16.5 1.99998 16.5H4.59692C4.86443 14.4464 5.67371 12.563 6.87665 10.998L4.93932 9.06066C4.35354 8.47487 4.35354 7.52513 4.93932 6.93934C5.52511 6.35355 6.47486 6.35355 7.06065 6.93934L8.99797 8.87667C10.563 7.67372 12.4464 6.86444 14.5 6.59694V4C14.5 3.17157 15.1716 2.5 16 2.5C16.8284 2.5 17.5 3.17157 17.5 4V6.59694C19.5536 6.86445 21.437 7.67375 23.002 8.8767L24.9393 6.93936C25.5251 6.35356 26.4748 6.35354 27.0606 6.93932C27.6464 7.52509 27.6464 8.47484 27.0607 9.06064L25.1234 10.998ZM16 9.5C20.1826 9.5 23.6596 12.521 24.3681 16.5H7.63192C8.34038 12.521 11.8174 9.5 16 9.5ZM7.07931 27.0417C6.50726 27.6346 5.56299 27.6552 4.9655 27.0862C4.36561 26.5149 4.34245 25.5654 4.91378 24.9655L5.98692 25.9876C4.91378 24.9655 4.91439 24.9649 4.91501 24.9642L4.91634 24.9628L4.91932 24.9597L4.92651 24.9523L4.94584 24.9326C4.96092 24.9173 4.98037 24.8979 5.00412 24.8748C5.05159 24.8287 5.11642 24.7676 5.19792 24.6951C5.36059 24.5502 5.59168 24.3581 5.88575 24.1475C6.47024 23.7291 7.32595 23.2222 8.40646 22.8818C10.6484 22.1756 13.6677 22.254 16.928 24.8215C17.404 25.1964 17.8622 25.4956 18.3013 25.7313L13.6987 26.2687C11.8741 25.2892 10.3794 25.4056 9.3078 25.7432C8.60259 25.9653 8.02973 26.3022 7.63208 26.5869C7.43508 26.7279 7.2867 26.8521 7.19267 26.9358C7.14583 26.9775 7.113 27.0087 7.0949 27.0263L7.07931 27.0417ZM13.7012 26.27C14.1395 26.5056 14.5969 26.8043 15.072 27.1785C18.3323 29.746 21.3515 29.8244 23.5935 29.1182C24.674 28.7778 25.5297 28.2709 26.1142 27.8525C26.4083 27.6419 26.6394 27.4498 26.802 27.3049C26.8836 27.2324 26.9484 27.1713 26.9958 27.1252C27.0196 27.1021 27.0391 27.0827 27.0541 27.0674L27.0735 27.0477L27.0807 27.0403L27.0836 27.0372L27.085 27.0358C27.0856 27.0351 27.0862 27.0345 26 26L27.0862 27.0345C27.6575 26.4346 27.6344 25.4851 27.0345 24.9138C26.437 24.3448 25.4927 24.3654 24.9207 24.9583L18.3013 25.7313L18.3055 25.7335L13.7012 26.27ZM24.9157 24.9633L18.3055 25.7335C20.1281 26.7106 21.6214 26.5941 22.6922 26.2568C23.3974 26.0347 23.9702 25.6978 24.3679 25.4131C24.5649 25.2721 24.7133 25.1479 24.8073 25.0642C24.8541 25.0225 24.887 24.9913 24.9051 24.9737L24.9157 24.9633ZM24.9157 24.9633L24.9159 24.9632L24.9178 24.9614L24.9203 24.9588L24.9157 24.9633ZM13.7012 26.27L13.6987 26.2687L7.07931 27.0417L13.7012 26.27Z" fill="currentColor"/>
</svg>
