<svg width="32" height="32" viewBox="0 0 32 32" fill="none" xmlns="http://www.w3.org/2000/svg">
<g clip-path="url(#clip0_3388_6807)">
<path fill-rule="evenodd" clip-rule="evenodd" d="M17.7314 2.09585C19.8592 -0.0319499 23.309 -0.0319499 25.4368 2.09585C26.2697 2.9287 26.7761 3.96462 26.9571 5.04291C28.0354 5.22391 29.0713 5.7303 29.9041 6.56315C32.0319 8.69095 32.0319 12.1408 29.9041 14.2686C28.1442 16.0285 25.4799 16.3328 23.4072 15.1814L15.1814 23.4072C16.3328 25.4799 16.0285 28.1442 14.2686 29.9042C12.1408 32.0319 8.69096 32.0319 6.56316 29.9042C5.7303 29.0713 5.22391 28.0354 5.04292 26.9571C3.96462 26.7761 2.92871 26.2697 2.09585 25.4369C-0.0319507 23.309 -0.0319507 19.8592 2.09585 17.7314C3.85578 15.9715 6.52012 15.6672 8.59277 16.8186L16.8186 8.59279C15.6672 6.52013 15.9715 3.85578 17.7314 2.09585ZM23.3155 4.21717C22.3593 3.26094 20.8089 3.26094 19.8527 4.21717C18.8965 5.1734 18.8965 6.72375 19.8527 7.67998C20.134 7.96128 20.2921 8.34281 20.2921 8.74064C20.2921 9.13846 20.134 9.51999 19.8527 9.8013L9.80127 19.8527C9.21549 20.4385 8.26574 20.4385 7.67995 19.8527C6.72372 18.8965 5.1734 18.8965 4.21717 19.8527C3.26094 20.809 3.26094 22.3593 4.21717 23.3155C4.78287 23.8812 5.55532 24.1133 6.29584 24.0082C6.76285 23.9419 7.23384 24.0991 7.56738 24.4326C7.90091 24.7662 8.05813 25.2372 7.99182 25.7042C7.88667 26.4447 8.11878 27.2171 8.68448 27.7828C9.64071 28.7391 11.1911 28.7391 12.1473 27.7828C13.1035 26.8266 13.1035 25.2763 12.1473 24.32C11.866 24.0387 11.7079 23.6572 11.7079 23.2594C11.7079 22.8615 11.866 22.48 12.1473 22.1987L22.1987 12.1473C22.7845 11.5615 23.7342 11.5615 24.32 12.1473C25.2762 13.1035 26.8266 13.1035 27.7828 12.1473C28.7391 11.191 28.7391 9.6407 27.7828 8.68447C27.2171 8.11878 26.4447 7.88667 25.7042 7.99182C25.2372 8.05813 24.7662 7.90091 24.4326 7.56737C24.0991 7.23384 23.9419 6.76284 24.0082 6.29583C24.1133 5.55532 23.8812 4.78286 23.3155 4.21717Z" fill="currentColor"/>
</g>
<defs>
<clipPath id="clip0_3388_6807">
<rect width="32" height="32" fill="white"/>
</clipPath>
</defs>
</svg>
