<svg width="32" height="32" viewBox="0 0 32 32" fill="none" xmlns="http://www.w3.org/2000/svg">
<path fill-rule="evenodd" clip-rule="evenodd" d="M9 3.5C9.82843 3.5 10.5 4.17157 10.5 5V14.5H21.5V5C21.5 4.17157 22.1716 3.5 23 3.5C23.8284 3.5 24.5 4.17157 24.5 5V27C24.5 27.8284 23.8284 28.5 23 28.5C22.1716 28.5 21.5 27.8284 21.5 27V17.5H10.5V27C10.5 27.8284 9.82843 28.5 9 28.5C8.17157 28.5 7.5 27.8284 7.5 27L7.5 5C7.5 4.17157 8.17157 3.5 9 3.5ZM4 6.5C4.82843 6.5 5.5 7.17157 5.5 8V24C5.5 24.8284 4.82843 25.5 4 25.5C3.17157 25.5 2.5 24.8284 2.5 24V17.5H2C1.17157 17.5 0.5 16.8284 0.5 16C0.5 15.1716 1.17157 14.5 2 14.5H2.5V8C2.5 7.17157 3.17157 6.5 4 6.5ZM29.5 8V14.5H30C30.8284 14.5 31.5 15.1716 31.5 16C31.5 16.8284 30.8284 17.5 30 17.5H29.5V24C29.5 24.8284 28.8284 25.5 28 25.5C27.1716 25.5 26.5 24.8284 26.5 24V16V8C26.5 7.17157 27.1716 6.5 28 6.5C28.8284 6.5 29.5 7.17157 29.5 8Z" fill="currentColor"/>
</svg>
