<svg width="32" height="32" viewBox="0 0 32 32" fill="none" xmlns="http://www.w3.org/2000/svg">
<path fill-rule="evenodd" clip-rule="evenodd" d="M6.26392 8.47463C6.99405 7.33258 8.41052 6.5 10.1058 6.5C12.6774 6.5 14.5001 8.35385 14.5001 10.3333V11.6677C13.3493 10.926 11.9596 10.5 10.4999 10.5C6.77168 10.5 3.49994 13.2788 3.49994 17C3.49994 17.8284 4.17151 18.5 4.99994 18.5C5.82836 18.5 6.49994 17.8284 6.49994 17C6.49994 15.1983 8.15306 13.5 10.4999 13.5C12.8468 13.5 14.4999 15.1983 14.4999 17L14.4999 17.0059V25.5H7.99995C7.17152 25.5 6.49995 26.1716 6.49995 27C6.49995 27.8284 7.17152 28.5 7.99995 28.5H15.9999H23.9999C24.8284 28.5 25.4999 27.8284 25.4999 27C25.4999 26.1716 24.8284 25.5 23.9999 25.5H17.4999V17.0231C17.5001 17.0154 17.5001 17.0077 17.5001 17V16.9735C17.5162 15.1817 19.1646 13.5 21.5 13.5C23.8469 13.5 25.5 15.1983 25.5 17C25.5 17.8284 26.1716 18.5 27 18.5C27.8284 18.5 28.5 17.8284 28.5 17C28.5 13.2788 25.2283 10.5 21.5 10.5C20.0404 10.5 18.6508 10.9259 17.5001 11.6675V10.3333C17.5001 8.35385 19.3228 6.5 21.8944 6.5C23.5897 6.5 25.0062 7.33258 25.7363 8.47463C26.1825 9.17261 27.1101 9.37669 27.8081 8.93047C28.5061 8.48424 28.7101 7.55668 28.2639 6.85871C26.9558 4.81248 24.5625 3.5 21.8944 3.5C19.549 3.5 17.3752 4.5358 16.0001 6.1996C14.625 4.5358 12.4512 3.5 10.1058 3.5C7.43774 3.5 5.04449 4.81248 3.73632 6.85871C3.29009 7.55668 3.49418 8.48424 4.19216 8.93047C4.89014 9.37669 5.8177 9.17261 6.26392 8.47463Z" fill="currentColor"/>
</svg>
