<svg width="32" height="32" viewBox="0 0 32 32" fill="none" xmlns="http://www.w3.org/2000/svg">
<path fill-rule="evenodd" clip-rule="evenodd" d="M6.26577 7.01158C6.7999 6.07686 7.79393 5.5 8.8705 5.5H23.1295C24.2061 5.5 25.2001 6.07686 25.7343 7.01158L28.5583 11.9537C28.6153 11.9344 28.669 11.9158 28.7195 11.898C28.9561 11.8145 29.1225 11.7476 29.2227 11.7051C29.2729 11.6838 29.3065 11.6686 29.324 11.6605L29.3378 11.6541C30.0771 11.2902 30.9726 11.5911 31.3416 12.3292C31.7121 13.0701 31.4118 13.9712 30.6708 14.3416L30.0374 13.0749C30.6708 14.3417 30.6701 14.342 30.6694 14.3423L30.668 14.343L30.6648 14.3446L30.6574 14.3483L30.638 14.3577L30.6123 14.3699L30.5812 14.3844C30.5353 14.4056 30.4732 14.4334 30.3944 14.4668C30.2368 14.5337 30.0126 14.623 29.718 14.727C29.6492 14.7513 29.5765 14.7763 29.5 14.8021V27C29.5 27.8284 28.8284 28.5 28 28.5H22C21.1716 28.5 20.5 27.8284 20.5 27V25.5H11.5V27C11.5 27.8284 10.8284 28.5 10 28.5H4.00002C3.17159 28.5 2.50002 27.8284 2.50002 27V14.8021C2.42348 14.7764 2.35082 14.7513 2.282 14.727C1.98734 14.623 1.76314 14.5337 1.60556 14.4668C1.52678 14.4334 1.46467 14.4056 1.41875 14.3844C1.3958 14.3738 1.37689 14.3649 1.36198 14.3577L1.3426 14.3483L1.33514 14.3446L1.33196 14.343L1.33051 14.3423C1.32983 14.342 1.32916 14.3416 1.99998 13L1.32916 14.3416C0.58819 13.9712 0.287853 13.0701 0.658337 12.3292C1.02737 11.5911 1.92279 11.2902 2.6621 11.654L2.67593 11.6605C2.69349 11.6686 2.72709 11.6838 2.77721 11.7051C2.87744 11.7476 3.04387 11.8145 3.28046 11.898C3.33098 11.9158 3.38472 11.9344 3.4417 11.9537L6.26577 7.01158ZM23.1295 8.5L25.5399 12.7181C23.3947 13.1278 20.2707 13.5 16 13.5C11.7293 13.5 8.60536 13.1278 6.46015 12.7181L8.8705 8.5L23.1295 8.5ZM5.50002 25.5V15.5866C7.8613 16.0663 11.2969 16.5 16 16.5C20.7031 16.5 24.1387 16.0663 26.5 15.5866V25.5H23.5V24C23.5 23.1716 22.8284 22.5 22 22.5H10C9.17159 22.5 8.50002 23.1716 8.50002 24V25.5H5.50002ZM13 18C12.1716 18 11.5 18.6716 11.5 19.5C11.5 20.3284 12.1716 21 13 21H19C19.8285 21 20.5 20.3284 20.5 19.5C20.5 18.6716 19.8285 18 19 18H13Z" fill="currentColor"/>
</svg>
