<svg width="32" height="32" viewBox="0 0 32 32" fill="none" xmlns="http://www.w3.org/2000/svg">
<path fill-rule="evenodd" clip-rule="evenodd" d="M28 11.5C29.933 11.5 31.5 13.067 31.5 15L31.5 16C31.5 17.933 29.933 19.5 28 19.5H22.6213L11.0607 31.0607C10.5688 31.5526 9.80322 31.6417 9.21145 31.276C8.61968 30.9103 8.35703 30.1856 8.57702 29.5257L11.9189 19.5H6C5.54433 19.5 5.11336 19.2929 4.8287 18.9371L0.828683 13.9371C0.468477 13.4868 0.398248 12.8699 0.648029 12.3502C0.897808 11.8305 1.42338 11.5 1.99998 11.5H11.8584L8.59035 2.51262C8.35419 1.86316 8.5923 1.1364 9.16699 0.752608C9.74168 0.368812 10.5042 0.427314 11.0136 0.894284L22.5835 11.5H28ZM18.1438 11.5L13.5041 7.2469L15.0506 11.5L18.1438 11.5ZM28.5 15C28.5 14.7239 28.2761 14.5 28 14.5H22L14 14.5L5.12093 14.5L6.72094 16.5H14C14.4822 16.5 14.9349 16.7318 15.2169 17.1229C15.4988 17.5141 15.5755 18.0169 15.423 18.4744L13.4324 24.4463L20.9393 16.9394C21.2206 16.658 21.6022 16.5 22 16.5L28 16.5C28.2761 16.5 28.5 16.2762 28.5 16L28.5 15Z" fill="currentColor"/>
</svg>
