<svg width="32" height="32" viewBox="0 0 32 32" fill="none" xmlns="http://www.w3.org/2000/svg">
<path fill-rule="evenodd" clip-rule="evenodd" d="M8.47239 5.73609C8.60023 5.0208 9.22237 4.5 9.949 4.5H15C15.8284 4.5 16.5 5.17157 16.5 6C16.5 6.82843 15.8284 7.5 15 7.5H11.2047L9.50661 17.0009C11.4038 17.7946 12.8447 19.4619 13.3261 21.5H15.5397C15.2631 20.7215 15.1969 19.8532 15.4032 18.9731L16.0528 16.2013C16.4237 14.6189 17.8351 13.5 19.4605 13.5H27.25H30.5C31.3284 13.5 32 14.1716 32 15C32 15.8284 31.3284 16.5 30.5 16.5H29.4784L31.8897 22.4354C32.0776 22.8979 32.0231 23.4235 31.7444 23.8376C31.6464 23.9831 31.5253 24.1081 31.3878 24.2091C30.8211 27.2212 28.1767 29.5 25 29.5C21.9264 29.5 19.3511 27.3667 18.6739 24.5H13.3261C12.6489 27.3667 10.0736 29.5 7.00002 29.5C3.41016 29.5 0.500015 26.5899 0.500015 23C0.500015 19.5628 3.16787 16.7488 6.54581 16.5156L8.47239 5.73609ZM21.8368 24.5C22.3986 25.6825 23.6038 26.5 25 26.5C26.3962 26.5 27.6015 25.6825 28.1632 24.5H21.8368ZM20 21.5H19.7844C18.8177 21.5 18.1034 20.5989 18.324 19.6577L18.9737 16.8859C19.0266 16.6598 19.2283 16.5 19.4605 16.5H26.2403L28.2716 21.5H20ZM5.52341 22.2361L5.98576 19.6492C4.54734 20.084 3.50002 21.4197 3.50002 23C3.50002 24.933 5.06702 26.5 7.00002 26.5C8.93301 26.5 10.5 24.933 10.5 23C10.5 21.7904 9.88643 20.7242 8.95354 20.0955L8.47662 22.7639C8.33086 23.5794 7.55161 24.1224 6.73611 23.9766C5.9206 23.8309 5.37766 23.0516 5.52341 22.2361Z" fill="currentColor"/>
</svg>
