<svg width="32" height="32" viewBox="0 0 32 32" fill="none" xmlns="http://www.w3.org/2000/svg">
<path fill-rule="evenodd" clip-rule="evenodd" d="M12 1.5C11.1716 1.5 10.5 2.17157 10.5 3C10.5 3.82843 11.1716 4.5 12 4.5H14.5V6.58239C7.75007 7.32855 2.5 13.0512 2.5 20C2.5 20.8284 3.17157 21.5 4 21.5H28C28.8284 21.5 29.5 20.8284 29.5 20C29.5 13.0512 24.2499 7.32855 17.5 6.58239V4.5H20C20.8284 4.5 21.5 3.82843 21.5 3C21.5 2.17157 20.8284 1.5 20 1.5H16H12ZM16 9.49999C21.2897 9.49999 25.6658 13.4116 26.3937 18.5H5.60633C6.33418 13.4116 10.7103 9.49999 16 9.49999ZM2.00004 24.5C1.17161 24.5 0.500042 25.1716 0.500042 26C0.500042 26.8284 1.17161 27.5 2.00004 27.5H30C30.8285 27.5 31.5 26.8284 31.5 26C31.5 25.1716 30.8285 24.5 30 24.5H2.00004Z" fill="currentColor"/>
</svg>
