<svg width="32" height="32" viewBox="0 0 32 32" fill="none" xmlns="http://www.w3.org/2000/svg">
<path fill-rule="evenodd" clip-rule="evenodd" d="M6.00001 3.5C5.27074 3.5 4.64714 4.02451 4.52219 4.74299L0.522164 27.743C0.446298 28.1792 0.567037 28.6267 0.852044 28.9655C1.13705 29.3044 1.55721 29.5 1.99998 29.5H20L30 29.5C30.4428 29.5 30.8629 29.3044 31.1479 28.9655C31.433 28.6267 31.5537 28.1792 31.4778 27.743L27.4778 4.74299C27.3529 4.02451 26.7293 3.5 26 3.5H6.00001ZM3.78337 26.5L7.26165 6.5H24.0585L18.8411 26.5H3.78337ZM21.9415 26.5L25.7066 12.0672L28.2166 26.5L21.9415 26.5ZM16.5 11.0001C16.4999 10.1717 17.1715 9.50007 17.9999 9.50005C18.8284 9.50004 19.4999 10.1716 19.5 11L19.5 13C19.5 14.3807 18.3807 15.5 17 15.5L11 15.5C9.61931 15.5 8.50003 14.3808 8.50001 13.0001L8.49997 11.0001C8.49995 10.1717 9.17151 9.50007 9.99994 9.50005C10.8284 9.50004 11.4999 10.1716 11.5 11L11.5 12.5L16.5 12.5L16.5 11.0001Z" fill="currentColor"/>
</svg>
