<svg width="32" height="32" viewBox="0 0 32 32" fill="none" xmlns="http://www.w3.org/2000/svg">
<path fill-rule="evenodd" clip-rule="evenodd" d="M21.7886 3.72403C22.2308 3.99734 22.5 4.48014 22.5 5V27C22.5 27.5198 22.2308 28.0026 21.7886 28.2759C21.3464 28.5493 20.7942 28.5741 20.3292 28.3416L6.32917 21.3416C5.821 21.0875 5.5 20.5681 5.5 19.9999V11.9999C5.5 11.4318 5.821 10.9124 6.32918 10.6583L20.3292 3.65836C20.7942 3.42587 21.3464 3.45072 21.7886 3.72403ZM8.5 12.927V19.0729L19.5 24.5729V7.42704L8.5 12.927ZM25 16C25 15.1715 25.6716 14.5 26.5 14.5H30.5C31.3284 14.5 32 15.1715 32 16C32 16.8284 31.3284 17.5 30.5 17.5H26.5C25.6716 17.5 25 16.8284 25 16ZM29.332 10.2481C30.0213 9.78855 30.2076 8.85724 29.7481 8.16795C29.2885 7.47866 28.3572 7.29239 27.6679 7.75192L24.6679 9.75192C23.9787 10.2115 23.7924 11.1428 24.2519 11.832C24.7114 12.5213 25.6428 12.7076 26.332 12.2481L29.332 10.2481ZM24.2519 20.1679C24.7114 19.4787 25.6428 19.2924 26.332 19.7519L29.332 21.7519C30.0213 22.2115 30.2076 23.1428 29.7481 23.832C29.2885 24.5213 28.3572 24.7076 27.6679 24.2481L24.6679 22.2481C23.9787 21.7885 23.7924 20.8572 24.2519 20.1679ZM3.5 12C3.5 11.1715 2.82842 10.5 2 10.5C1.17157 10.5 0.499995 11.1715 0.499995 12V20C0.499995 20.8284 1.17157 21.5 2 21.5C2.82842 21.5 3.5 20.8284 3.5 20L3.5 12Z" fill="currentColor"/>
</svg>
