<svg width="32" height="32" viewBox="0 0 32 32" fill="none" xmlns="http://www.w3.org/2000/svg">
<path fill-rule="evenodd" clip-rule="evenodd" d="M10.9999 4.5C5.7532 4.5 1.49991 8.75329 1.49991 14V23C1.49991 26.0376 3.96234 28.5 6.99991 28.5C9.86893 28.5 12.2249 26.3032 12.4775 23.5H19.5223C19.7749 26.3032 22.1309 28.5 24.9999 28.5C28.0375 28.5 30.4999 26.0376 30.4999 23V14C30.4999 8.7533 26.2466 4.5 20.9999 4.5H10.9999ZM4.49991 14C4.49991 10.4101 7.41006 7.5 10.9999 7.5H20.9999C24.5898 7.5 27.4999 10.4101 27.4999 14V23C27.4999 24.3807 26.3806 25.5 24.9999 25.5C23.6192 25.5 22.4999 24.3807 22.4999 23C22.4999 21.6193 21.3806 20.5 19.9999 20.5H11.9999C10.6192 20.5 9.49991 21.6193 9.49991 23C9.49991 24.3807 8.38062 25.5 6.99991 25.5C5.6192 25.5 4.49991 24.3807 4.49991 23V14ZM11.9999 12C11.9999 11.1716 11.3283 10.5 10.4999 10.5C9.67148 10.5 8.99991 11.1716 8.99991 12V13H7.99991C7.17148 13 6.49991 13.6716 6.49991 14.5C6.49991 15.3284 7.17148 16 7.99991 16H8.99991V17C8.99991 17.8284 9.67148 18.5 10.4999 18.5C11.3283 18.5 11.9999 17.8284 11.9999 17V16H12.9999C13.8283 16 14.4999 15.3284 14.4999 14.5C14.4999 13.6716 13.8283 13 12.9999 13H11.9999V12ZM20.9999 12C20.9999 13.1046 20.1045 14 18.9999 14C17.8953 14 16.9999 13.1046 16.9999 12C16.9999 10.8954 17.8953 10 18.9999 10C20.1045 10 20.9999 10.8954 20.9999 12ZM22.9999 19C24.1045 19 24.9999 18.1046 24.9999 17C24.9999 15.8954 24.1045 15 22.9999 15C21.8953 15 20.9999 15.8954 20.9999 17C20.9999 18.1046 21.8953 19 22.9999 19Z" fill="currentColor"/>
</svg>
