<svg width="32" height="32" viewBox="0 0 32 32" fill="none" xmlns="http://www.w3.org/2000/svg">
<path fill-rule="evenodd" clip-rule="evenodd" d="M15 1.5C11.9624 1.5 9.5 3.96243 9.5 7V15C9.5 18.0376 11.9624 20.5 15 20.5H17C20.0376 20.5 22.5 18.0376 22.5 15V7C22.5 3.96243 20.0376 1.5 17 1.5H15ZM12.5 7C12.5 5.61929 13.6193 4.5 15 4.5H17C18.3807 4.5 19.5 5.61929 19.5 7V15C19.5 16.3807 18.3807 17.5 17 17.5H15C13.6193 17.5 12.5 16.3807 12.5 15V7ZM27.4849 17.2121C27.6021 16.392 27.0322 15.6322 26.2121 15.5151C25.392 15.3979 24.6322 15.9678 24.5151 16.7879L24.4963 16.9193C24.0388 20.1215 21.2964 22.5 18.0616 22.5H16.0001H13.9384C10.7036 22.5 7.96114 20.1215 7.50368 16.9192L7.48492 16.7879C7.36776 15.9678 6.60796 15.3979 5.78786 15.5151C4.96776 15.6322 4.39791 16.392 4.51507 17.2121L4.53383 17.3435C5.20242 22.0237 9.21067 25.5 13.9384 25.5H14.5001V27.5H12C11.1716 27.5 10.5 28.1716 10.5 29C10.5 29.8284 11.1716 30.5 12 30.5H16.0001H20C20.8284 30.5 21.5 29.8284 21.5 29C21.5 28.1716 20.8284 27.5 20 27.5H17.5001V25.5H18.0616C22.7893 25.5 26.7976 22.0237 27.4662 17.3435L27.4849 17.2121Z" fill="currentColor"/>
</svg>
