<svg width="32" height="32" viewBox="0 0 32 32" fill="none" xmlns="http://www.w3.org/2000/svg">
<path fill-rule="evenodd" clip-rule="evenodd" d="M7.17098 8.1062H5.4471C3.54129 12.9446 4.51302 18.6837 8.33917 22.5918C12.158 26.4924 17.7418 27.471 22.4452 25.5383V23.9929C18.8909 22.993 15.2355 21.3999 12.5828 18.6903C11.1254 17.2018 9.95218 15.1328 9.02828 13.075C8.27529 11.398 7.65673 9.65684 7.17098 8.1062ZM14.7264 16.5916C13.7935 15.6387 12.929 14.2651 12.1568 12.6833C12.6986 13.1234 13.2802 13.5461 13.9018 13.9367C17.2412 16.0353 21.5803 16.5343 25.2402 16.5529L25.347 17.9503C23.4182 19.1379 20.8512 19.6981 18.3632 19.2195C16.9863 18.4992 15.7475 17.6345 14.7264 16.5916ZM24.8651 21.5183C25.1347 21.5816 25.4043 21.642 25.6732 21.6997C26.7644 21.9339 27.5434 22.7452 27.8038 23.6957C28.0727 24.677 27.7836 25.8276 26.7898 26.5386C26.0922 27.0379 25.3639 27.4742 24.6127 27.8475C18.6112 30.83 11.1718 29.7734 6.1955 24.6906C1.2266 19.6153 0.207292 12.0553 3.11009 5.96115C3.49382 5.15553 3.94619 4.37515 4.46718 3.62924C5.15695 2.64168 6.28616 2.33169 7.26914 2.58481C8.16192 2.81471 8.92494 3.49628 9.23967 4.44993C9.25023 4.47035 9.26251 4.49389 9.27651 4.5204C9.33985 4.64039 9.43812 4.82093 9.57104 5.04907C9.83728 5.50609 10.2401 6.14999 10.7769 6.87884C11.8581 8.34713 13.4424 10.1049 15.498 11.3967C18.4763 13.2683 22.7561 13.6382 26.5896 13.5383C26.9204 13.5297 27.2478 13.5169 27.5706 13.5004C28.742 13.4406 29.7152 14.0944 30.1844 14.9854C30.4512 15.4922 30.5605 16.0883 30.4659 16.6782M30.4659 16.6782C30.3894 17.1547 30.1797 17.6271 29.8123 18.0449C29.2003 18.7408 28.5279 19.3577 27.8111 19.8976C26.9357 20.5568 25.939 21.1052 24.8651 21.5183M8.22916 14.773C8.1038 14.0941 7.45183 13.6454 6.77295 13.7708C6.09407 13.8961 5.64536 14.5481 5.77072 15.227C6.04438 16.7089 6.9739 18.5738 8.13155 20.1896C9.28526 21.7998 10.8283 23.3914 12.4858 24.1394C13.115 24.4233 13.8553 24.1434 14.1393 23.5142C14.4233 22.8849 14.1434 22.1446 13.5141 21.8606C12.4443 21.3778 11.2146 20.2002 10.1638 18.7335C9.11689 17.2724 8.41005 15.7526 8.22916 14.773Z" fill="currentColor"/>
</svg>
