<svg width="32" height="32" viewBox="0 0 32 32" fill="none" xmlns="http://www.w3.org/2000/svg">
<path fill-rule="evenodd" clip-rule="evenodd" d="M27.5 4C27.5 3.48195 27.2327 3.00056 26.7929 2.72671C26.3531 2.45286 25.8032 2.42531 25.3383 2.65384L26 4C25.3383 2.65384 25.3375 2.65423 25.3367 2.65463L25.335 2.65547L25.3313 2.65729L25.3228 2.66152L25.3015 2.67237C25.2854 2.68068 25.2655 2.69115 25.2419 2.70388C25.1948 2.72932 25.1332 2.76378 25.0588 2.80795C24.9101 2.89628 24.7099 3.02362 24.4721 3.19555C23.9964 3.53939 23.3688 4.06242 22.7008 4.80882C21.3573 6.30983 19.8786 8.68305 19.126 12.2423C18.7538 14.0026 18.604 16.2494 18.5423 17.9956C18.511 18.8814 18.5017 19.6623 18.5002 20.2223C18.4995 20.5026 18.5007 20.7282 18.5021 20.8847C18.5028 20.963 18.5036 21.0241 18.5041 21.0661L18.5049 21.1146L18.5051 21.1278L18.5052 21.1315L18.5052 21.1327L18.5052 21.133C18.5052 21.1332 18.5052 21.1333 20.0049 21.1053L18.5052 21.1333C18.5205 21.9507 19.1874 22.6053 20.0049 22.6053H24.5L24.5 28C24.5 28.8284 25.1715 29.5 26 29.5C26.8284 29.5 27.5 28.8284 27.5 28L27.5 21.1053V4ZM22.0611 12.863C22.6101 10.2668 23.5922 8.49603 24.5 7.3319L24.5 19.6053H21.5049C21.5103 19.1676 21.5208 18.6557 21.5404 18.1016C21.6011 16.3846 21.7456 14.3551 22.0611 12.863ZM8.49995 16.9158C6.88662 16.7284 5.73155 16.2589 4.97267 15.822C3.83008 15.1642 3.49981 13.9427 3.57537 12.9907L4.21897 4.88138C4.28451 4.05555 5.00711 3.43921 5.83294 3.50476C6.65877 3.5703 7.27511 4.2929 7.20957 5.11873L6.56596 13.2281C6.56456 13.2457 6.56432 13.2615 6.56479 13.2752C7.12625 13.5782 8.22074 14 9.99998 14C11.7792 14 12.8737 13.5782 13.4352 13.2752C13.4356 13.2615 13.4354 13.2457 13.434 13.2281L12.7904 5.11873C12.7249 4.2929 13.3412 3.5703 14.167 3.50476C14.9929 3.43921 15.7155 4.05555 15.781 4.88138L16.4246 12.9907C16.5002 13.9427 16.1699 15.1642 15.0273 15.822C14.2684 16.2589 13.1133 16.7284 11.4999 16.9158L11.4999 28C11.4999 28.8284 10.8284 29.5 9.99995 29.5C9.17152 29.5 8.49995 28.8284 8.49995 28L8.49995 16.9158ZM9.99998 3.5C10.8284 3.5 11.5 4.17158 11.5 5L11.5 11C11.5 11.8284 10.8284 12.5 9.99998 12.5C9.17155 12.5 8.49998 11.8284 8.49998 11L8.49998 5C8.49998 4.17157 9.17155 3.5 9.99998 3.5Z" fill="currentColor"/>
</svg>
