<svg width="32" height="32" viewBox="0 0 32 32" fill="none" xmlns="http://www.w3.org/2000/svg">
<path fill-rule="evenodd" clip-rule="evenodd" d="M26.375 11.5C26.0356 9.53297 25.0225 7.96607 23.5569 6.81128C21.7029 5.35044 19.0512 4.5 16 4.5C12.9488 4.5 10.2971 5.35044 8.44302 6.81128C6.97739 7.96607 5.9643 9.53297 5.62489 11.5H26.375ZM6.58634 4.45485C9.07543 2.49365 12.4237 1.5 16 1.5C19.5762 1.5 22.9245 2.49365 25.4136 4.45485C27.936 6.44232 29.5 9.37177 29.5 13C29.5 13.8284 28.8284 14.5 28 14.5H3.99996C3.17154 14.5 2.49996 13.8284 2.49996 13C2.49996 9.37177 4.06391 6.44232 6.58634 4.45485ZM2.52912 17.7058C2.66935 17.0047 3.28497 16.5 4 16.5H28C28.715 16.5 29.3306 17.0047 29.4709 17.7058C29.6111 18.407 29.2369 19.1096 28.5769 19.3846L16.5769 24.3846C16.2077 24.5385 15.7923 24.5385 15.4231 24.3846L3.42307 19.3846C2.76305 19.1096 2.3889 18.407 2.52912 17.7058ZM11.5 19.5L16 21.375L20.5 19.5H11.5ZM5.5 24C5.5 23.1716 4.82843 22.5 4 22.5C3.17158 22.5 2.5 23.1716 2.5 24V26C2.5 27.933 4.06701 29.5 6 29.5H26C27.933 29.5 29.5 27.933 29.5 26V24C29.5 23.1716 28.8284 22.5 28 22.5C27.1716 22.5 26.5 23.1716 26.5 24V26C26.5 26.2761 26.2761 26.5 26 26.5H6C5.72386 26.5 5.5 26.2761 5.5 26V24Z" fill="currentColor"/>
</svg>
