<svg width="32" height="32" viewBox="0 0 32 32" fill="none" xmlns="http://www.w3.org/2000/svg">
<path fill-rule="evenodd" clip-rule="evenodd" d="M12.2303 2.71253L13 4L15.7558 4.57004C15.3472 4.64304 14.9517 4.7653 14.6057 4.89907C14.3367 5.00306 14.1163 5.10672 13.9669 5.1823C13.8926 5.21988 13.8369 5.24994 13.8029 5.26882C13.7859 5.27825 13.7744 5.28483 13.7687 5.2881L13.7691 5.28782C13.0581 5.71243 12.1375 5.48054 11.7125 4.76969C11.2874 4.05863 11.5192 3.13761 12.2303 2.71253ZM13.7687 5.2881L13.7685 5.28815L13.7675 5.28874L13.766 5.28966L13.7646 5.29046L13.7646 5.29047C13.7646 5.29047 13.7652 5.29011 13.7665 5.2894L13.7687 5.2881ZM15.7566 4.56988L13 4C12.2303 2.71253 12.2306 2.71234 12.2309 2.71215L12.2316 2.71176L12.233 2.71089L12.2364 2.70889L12.245 2.7038L12.2697 2.68943C12.2894 2.67806 12.3157 2.66316 12.348 2.64524C12.4125 2.60943 12.5019 2.56137 12.6129 2.5052C12.8342 2.39328 13.1462 2.24694 13.5238 2.10093C14.2627 1.81523 15.3314 1.5 16.5 1.5C17.6686 1.5 18.7372 1.81523 19.4762 2.10093C19.8538 2.24694 20.1657 2.39328 20.387 2.5052C20.4981 2.56137 20.5874 2.60943 20.652 2.64524C20.6843 2.66316 20.7105 2.67806 20.7302 2.68944L20.7549 2.7038L20.7636 2.70889L20.7669 2.71089L20.7684 2.71176L20.769 2.71215C20.7694 2.71234 20.7697 2.71253 20 4L20.7697 2.71253C21.4807 3.13761 21.7125 4.05863 21.2875 4.76969C20.8626 5.4803 19.9425 5.71227 19.2316 5.28825L19.2336 5.28944L15.7558 4.57004C15.756 4.56999 15.7563 4.56993 15.7566 4.56988ZM15.7566 4.56988L19.2315 5.28823L19.2314 5.28815L19.2313 5.2881C19.2256 5.28483 19.2141 5.27825 19.1971 5.26882C19.163 5.24994 19.1074 5.21988 19.0331 5.1823C18.8837 5.10672 18.6632 5.00306 18.3943 4.89907C17.84 4.68477 17.1587 4.5 16.5 4.5C16.2528 4.5 16.0023 4.52603 15.7566 4.56988ZM8.92703 6.49998C7.79073 6.49998 6.75195 7.14197 6.24376 8.15831L3.72885 13.188C3.33804 13.0789 3.02459 12.9787 2.78367 12.8952C2.54273 12.8117 2.37416 12.7448 2.27315 12.7025C2.22264 12.6813 2.18899 12.6663 2.17162 12.6583L2.15832 12.6521C1.41827 12.2905 0.523954 12.5936 0.156769 13.3323C-0.211958 14.0742 0.0905124 14.9745 0.832356 15.3432L1.5 14C0.832356 15.3432 0.833052 15.3435 0.833763 15.3439L0.835263 15.3446L0.838542 15.3462L0.846216 15.35L0.866053 15.3596C0.881281 15.3668 0.900529 15.3759 0.923868 15.3865C0.970549 15.4079 1.03359 15.4358 1.11356 15.4693C1.27353 15.5364 1.50116 15.6258 1.80114 15.7297C2.01059 15.8023 2.25522 15.882 2.53663 15.9661C2.51223 16.1332 2.49987 16.3023 2.49987 16.4721V29C2.49987 29.8284 3.17144 30.5 3.99987 30.5H8.99999C9.82842 30.5 10.5 29.8284 10.5 29V27.5H21.5V29C21.5 29.8284 22.1716 30.5 23 30.5H27.9999C28.8283 30.5 29.4999 29.8284 29.4999 29V16.4721C29.4999 16.3023 29.4875 16.1333 29.4631 15.9662C29.7446 15.8821 29.9893 15.8024 30.1989 15.7297C30.4988 15.6258 30.7265 15.5364 30.8864 15.4693C30.9664 15.4358 31.0294 15.4079 31.0761 15.3865C31.0995 15.3759 31.1187 15.3668 31.1339 15.3596L31.1538 15.35L31.1615 15.3462L31.1647 15.3446L31.1662 15.3439C31.1669 15.3435 31.1676 15.3432 30.5 14L31.1676 15.3432C31.9095 14.9745 32.212 14.0742 31.8432 13.3323C31.476 12.5936 30.5817 12.2905 29.8417 12.6521L29.8284 12.6583C29.811 12.6663 29.7774 12.6813 29.7268 12.7025C29.6258 12.7448 29.4573 12.8117 29.2163 12.8952C28.9754 12.9787 28.6618 13.079 28.271 13.188L25.7561 8.15834C25.2479 7.14199 24.2091 6.49998 23.0728 6.49998H8.92703ZM25.2427 13.8397L23.0728 9.49998L8.92703 9.49998L6.7571 13.8397C8.93971 14.1987 11.9714 14.5 16 14.5C20.0285 14.5 23.0601 14.1987 25.2427 13.8397ZM5.49987 16.6654V27.5H7.49999V26C7.49999 25.1716 8.17156 24.5 8.99999 24.5H23C23.8284 24.5 24.5 25.1716 24.5 26V27.5H26.4999V16.6654C24.086 17.1126 20.6523 17.5 16 17.5C11.3475 17.5 7.91372 17.1126 5.49987 16.6654ZM12.5 21C12.5 20.1715 13.1716 19.5 14 19.5H18C18.8284 19.5 19.5 20.1715 19.5 21C19.5 21.8284 18.8284 22.5 18 22.5H14C13.1716 22.5 12.5 21.8284 12.5 21ZM9 19.5C8.17157 19.5 7.5 20.1715 7.5 21C7.5 21.8284 8.17157 22.5 9 22.5H9.5C10.3284 22.5 11 21.8284 11 21C11 20.1715 10.3284 19.5 9.5 19.5H9ZM21 21C21 20.1715 21.6716 19.5 22.5 19.5H23C23.8284 19.5 24.5 20.1715 24.5 21C24.5 21.8284 23.8284 22.5 23 22.5H22.5C21.6716 22.5 21 21.8284 21 21Z" fill="currentColor"/>
</svg>
