<svg width="32" height="32" viewBox="0 0 32 32" fill="none" xmlns="http://www.w3.org/2000/svg">
<path fill-rule="evenodd" clip-rule="evenodd" d="M8.88575 8.9613L11.6177 7.08306C12.4555 8.05927 13.9025 9.24996 16 9.24996C18.095 9.24996 19.5411 8.06204 20.3793 7.08654L23.0895 8.96202C25.3658 10.7193 26.5 13.3045 26.5 15.9999V28C26.5 28.8284 27.1716 29.5 28 29.5C28.8284 29.5 29.5 28.8284 29.5 28V15.9999C29.5 12.4313 27.9767 8.92647 24.8862 6.55915C24.867 6.54446 24.8475 6.53023 24.8276 6.51649L21.0935 3.93251C20.2023 3.31585 19.0617 3.66374 18.5707 4.486C18.1884 5.12631 17.2897 6.24996 16 6.24996C14.7098 6.24996 13.8109 5.12541 13.4289 4.48548C12.9393 3.66507 11.802 3.31576 10.9105 3.92868L7.15021 6.51389C7.12711 6.52977 7.10447 6.54629 7.0823 6.56344C4.0219 8.93047 2.5 12.4326 2.5 16V28C2.5 28.8284 3.17157 29.5 4 29.5C4.82843 29.5 5.5 28.8284 5.5 28V16C5.5 13.305 6.63404 10.7188 8.88575 8.9613ZM15.8333 13.3333C15.8333 12.5048 16.5049 11.8333 17.3333 11.8333H20C20.8284 11.8333 21.5 12.5048 21.5 13.3333C21.5 14.1617 20.8284 14.8333 20 14.8333H17.3333C16.5049 14.8333 15.8333 14.1617 15.8333 13.3333ZM9 17.5C9.82843 17.5 10.5 18.1715 10.5 19V25.5H21.5V19C21.5 18.1715 22.1716 17.5 23 17.5C23.8284 17.5 24.5 18.1715 24.5 19V27C24.5 27.8284 23.8284 28.5 23 28.5H9C8.17157 28.5 7.5 27.8284 7.5 27V19C7.5 18.1715 8.17157 17.5 9 17.5Z" fill="currentColor"/>
</svg>
