<svg width="32" height="32" viewBox="0 0 32 32" fill="none" xmlns="http://www.w3.org/2000/svg">
<path fill-rule="evenodd" clip-rule="evenodd" d="M17.1042 4.98468L16 6L14.8959 4.98468C15.1799 4.67579 15.5804 4.5 16 4.5C16.4197 4.5 16.8201 4.67579 17.1042 4.98468ZM19.9534 9.41942C19.4861 8.39732 18.9651 7.51739 18.5043 6.8239C18.1296 6.25989 17.7886 5.81015 17.5378 5.49742C17.4122 5.34085 17.3087 5.21801 17.2342 5.13174C17.197 5.08858 17.1669 5.05452 17.145 5.02991L17.1182 5.0001L17.1096 4.99057L17.1065 4.98717L17.1052 4.98581L17.1047 4.98522C17.1044 4.98494 17.1042 4.98468 16 6C14.8959 4.98468 14.8956 4.98494 14.8954 4.98522L14.8948 4.98581L14.8936 4.98717L14.8905 4.99057L14.8818 5.0001L14.8551 5.02991C14.8331 5.05452 14.8031 5.08858 14.7658 5.13174C14.6914 5.21801 14.5879 5.34085 14.4623 5.49742C14.2114 5.81015 13.8705 6.25989 13.4957 6.8239C13.035 7.51739 12.5139 8.39732 12.0466 9.41942C11.3107 8.89884 10.6082 8.49717 10.0137 8.19667C9.48922 7.93159 9.04189 7.74179 8.71942 7.61629C8.55798 7.55346 8.42722 7.50651 8.33303 7.4741C8.28591 7.45789 8.24789 7.4453 8.21968 7.43616L8.18479 7.42502L8.17303 7.42135L8.16859 7.41998L8.16674 7.41941L8.16591 7.41915C8.16551 7.41903 8.16513 7.41892 7.7273 8.8536L8.16513 7.41892C7.40506 7.18696 6.59597 7.58804 6.32038 8.33341L7.7273 8.8536C6.32038 8.33341 6.32025 8.33377 6.32012 8.33413L6.31983 8.3349L6.31919 8.33664L6.31766 8.34083L6.31356 8.35211L6.30148 8.38607C6.29176 8.41371 6.27881 8.45129 6.26318 8.4983C6.23193 8.59227 6.18993 8.72416 6.14173 8.88978C6.04547 9.22053 5.9237 9.68859 5.81375 10.26C5.67307 10.9912 5.54876 11.9069 5.52684 12.9307C4.71546 12.9042 3.98689 12.9324 3.3935 12.9776C2.89199 13.0158 2.48102 13.0665 2.19068 13.1087C2.04537 13.1298 1.92984 13.1488 1.84783 13.1631C1.80681 13.1702 1.77413 13.1762 1.75026 13.1807L1.7211 13.1862L1.71157 13.1881L1.70809 13.1888L1.70667 13.189L1.70604 13.1892C1.70575 13.1892 1.70547 13.1893 2.00002 14.6601L1.70547 13.1893C0.894586 13.3517 0.36811 14.1397 0.528509 14.951L2.00002 14.6601C0.528509 14.951 0.528588 14.9514 0.528672 14.9518L0.528864 14.9528L0.529336 14.9552L0.530629 14.9616L0.534632 14.9812C0.537936 14.9972 0.542518 15.019 0.548425 15.0464C0.560237 15.1012 0.577361 15.1782 0.600161 15.275C0.64573 15.4685 0.714165 15.7418 0.808436 16.0752C0.996408 16.7398 1.29007 17.6537 1.71503 18.6546C2.54371 20.6062 3.96527 23.1142 6.28012 24.6015C8.53202 26.0483 11.0658 26.4379 12.9516 26.4928C13.9065 26.5206 14.7284 26.4635 15.3155 26.399C15.6008 26.3676 15.8328 26.3343 16 26.3075C16.1672 26.3343 16.3992 26.3676 16.6846 26.399C17.2717 26.4635 18.0936 26.5206 19.0485 26.4928C20.9343 26.4379 23.468 26.0483 25.7199 24.6015C28.0348 23.1142 29.4563 20.6062 30.285 18.6546C30.71 17.6537 31.0036 16.7398 31.1916 16.0752C31.2859 15.7418 31.3543 15.4685 31.3999 15.275C31.4227 15.1782 31.4398 15.1012 31.4516 15.0464C31.4575 15.019 31.4621 14.9972 31.4654 14.9812L31.4694 14.9616L31.4707 14.9552L31.4712 14.9528L31.4714 14.9518C31.4715 14.9514 31.4715 14.951 30 14.6601L31.4715 14.951C31.6319 14.1397 31.1055 13.3517 30.2946 13.1893L30 14.6601C30.2946 13.1893 30.2943 13.1892 30.294 13.1892L30.2934 13.189L30.292 13.1888L30.2885 13.1881L30.2789 13.1862L30.2498 13.1807C30.2259 13.1762 30.1932 13.1702 30.1522 13.1631C30.0702 13.1488 29.9547 13.1298 29.8094 13.1087C29.519 13.0665 29.1081 13.0158 28.6065 12.9776C28.0132 12.9324 27.2846 12.9042 26.4732 12.9307C26.4513 11.9069 26.327 10.9912 26.1863 10.26C26.0764 9.68859 25.9546 9.22053 25.8583 8.88977C25.8101 8.72416 25.7681 8.59227 25.7369 8.4983C25.7212 8.45129 25.7083 8.41371 25.6986 8.38607L25.6865 8.35211L25.6824 8.34083L25.6809 8.33664L25.6802 8.3349L25.6799 8.33413C25.6798 8.33377 25.6797 8.33341 24.2728 8.8536L25.6797 8.33341C25.4041 7.58804 24.595 7.18696 23.8349 7.41892L24.2728 8.8536C23.8349 7.41892 23.8345 7.41903 23.8341 7.41915L23.8333 7.41941L23.8315 7.41998L23.827 7.42135L23.8153 7.42502L23.7804 7.43616C23.7522 7.4453 23.7141 7.45789 23.667 7.4741C23.5728 7.50651 23.4421 7.55346 23.2806 7.61629C22.9582 7.74179 22.5108 7.93159 21.9863 8.19667C21.3918 8.49717 20.6894 8.89884 19.9534 9.41942ZM20.9819 12.4052C21.19 13.3065 21.3182 14.2693 21.3182 15.2742C21.3182 17.1007 20.8946 18.8172 20.3285 20.2991C21.1046 19.5647 21.8045 18.711 22.3008 17.7403C22.9363 16.4972 23.3009 15.5114 23.4173 14.4039C23.5562 13.0834 23.43 11.8482 23.2572 10.9161C22.5915 11.2586 21.7849 11.7458 20.9819 12.4052ZM16 22.231C16.191 21.931 16.3928 21.5948 16.5945 21.2278C17.4881 19.6013 18.3182 17.4811 18.3182 15.2742C18.3182 14.2556 18.1414 13.2643 17.8589 12.3321C17.3912 10.7887 16.6464 9.44854 16.0056 8.48414C16.0037 8.48134 16.0019 8.47855 16 8.47576C15.9982 8.47855 15.9963 8.48134 15.9945 8.48414C15.3537 9.44854 14.6088 10.7887 14.1411 12.3321C13.8587 13.2643 13.6818 14.2556 13.6818 15.2742C13.6818 17.4811 14.5119 19.6013 15.4056 21.2278C15.6073 21.5948 15.809 21.931 16 22.231ZM11.6716 20.2991C11.1054 18.8172 10.6818 17.1007 10.6818 15.2742C10.6818 14.2693 10.8101 13.3065 11.0182 12.4052C10.2151 11.7458 9.40856 11.2586 8.74285 10.9161C8.57009 11.8482 8.44385 13.0834 8.58271 14.4039C8.69916 15.5114 9.06373 16.4972 9.69925 17.7403C10.1955 18.711 10.8955 19.5647 11.6716 20.2991ZM10.3317 23.1206C9.09733 22.0864 7.87185 20.7563 7.02807 19.1059C6.49816 18.0693 6.06533 17.0572 5.80621 15.946C5.10194 15.906 4.45271 15.9174 3.90511 15.9497C4.05323 16.4062 4.24202 16.93 4.47643 17.4821C5.22671 19.2491 6.35061 21.0809 7.90175 22.0775C8.66518 22.568 9.49721 22.901 10.3317 23.1206ZM21.6683 23.1206C22.5028 22.901 23.3349 22.568 24.0983 22.0775C25.6494 21.0809 26.7733 19.2491 27.5236 17.4821C27.758 16.93 27.9468 16.4062 28.0949 15.9497C27.5473 15.9174 26.8981 15.906 26.1938 15.946C25.9347 17.0572 25.5019 18.0693 24.972 19.1059C24.1282 20.7563 22.9027 22.0864 21.6683 23.1206Z" fill="currentColor"/>
</svg>
