<svg width="32" height="32" viewBox="0 0 32 32" fill="none" xmlns="http://www.w3.org/2000/svg">
<path fill-rule="evenodd" clip-rule="evenodd" d="M13 2.5C12.1716 2.5 11.5 3.17157 11.5 4C11.5 4.82843 12.1716 5.5 13 5.5H19C19.8284 5.5 20.5 4.82843 20.5 4C20.5 3.17157 19.8284 2.5 19 2.5L13 2.5ZM3.5 9C3.5 8.17157 4.17157 7.5 5 7.5H7L25 7.5H27C27.8284 7.5 28.5 8.17157 28.5 9C28.5 9.82843 27.8284 10.5 27 10.5H26.3972L25.1462 28.1063C25.0904 28.8915 24.4372 29.5 23.65 29.5L7.9 29.5C7.09917 29.5 6.43957 28.8709 6.40168 28.071L5.56937 10.5H5C4.17157 10.5 3.5 9.82843 3.5 9ZM8.57273 10.5L23.3896 10.5L22.2528 26.5L9.33063 26.5L8.57273 10.5Z" fill="currentColor"/>
</svg>
