<svg width="32" height="32" viewBox="0 0 32 32" fill="none" xmlns="http://www.w3.org/2000/svg">
<path d="M16.1968 21.4837C13.7419 20.3069 11.7592 18.3364 10.5719 15.8932C10.4867 15.7158 10.4486 15.5196 10.4612 15.3233C10.4739 15.1271 10.5368 14.9373 10.644 14.7722L12.7457 13.0574C13.9338 12.0879 14.2971 10.4318 13.6232 9.05682L11.5029 4.73007C10.8802 3.45947 9.50424 2.70418 8.14496 3.11019C6.79377 3.51378 5.41127 4.1231 4.72644 4.89833C3.61414 6.15746 3.00038 7.77729 3 9.45474C3 14.6385 5.06656 19.6099 8.74507 23.2753C12.4236 26.9408 17.4127 29 22.6149 29C24.2983 28.9996 25.9239 28.388 27.1875 27.2797C27.8941 26.66 28.4633 25.499 28.8652 24.3049C29.3684 22.8102 28.4071 21.3084 26.9061 20.8099L22.3734 19.3043C21.3052 18.9495 20.1292 19.16 19.2517 19.863L17.3362 21.3975C17.1701 21.5092 16.9777 21.5759 16.7779 21.591C16.5782 21.6061 16.3779 21.5691 16.1968 21.4837Z" fill="currentColor"/>
</svg>
