<svg width="32" height="32" viewBox="0 0 32 32" fill="none" xmlns="http://www.w3.org/2000/svg">
<path fill-rule="evenodd" clip-rule="evenodd" d="M1.5 6C1.5 4.067 3.067 2.5 5 2.5H27C28.933 2.5 30.5 4.067 30.5 6V20C30.5 21.933 28.933 23.5 27 23.5L24.5 23.5V28C24.5 28.5858 24.159 29.118 23.6268 29.3628C23.0946 29.6075 22.4686 29.5201 22.0238 29.1389L15.4451 23.5H5C3.067 23.5 1.5 21.933 1.5 20V6ZM5 5.5C4.72386 5.5 4.5 5.72386 4.5 6V20C4.5 20.2761 4.72386 20.5 5 20.5H15.6301C16.2269 20.5 16.8039 20.7135 17.2571 21.1019L21.5 24.7387V22C21.5 21.1716 22.1716 20.5 23 20.5L27 20.5C27.2761 20.5 27.5 20.2761 27.5 20V6C27.5 5.72386 27.2761 5.5 27 5.5H5Z" fill="currentColor"/>
</svg>
