<svg width="32" height="32" viewBox="0 0 32 32" fill="none" xmlns="http://www.w3.org/2000/svg">
<path fill-rule="evenodd" clip-rule="evenodd" d="M4 4.5C2.61929 4.5 1.5 5.61929 1.5 7V25C1.5 26.3807 2.61929 27.5 4 27.5H28C29.3807 27.5 30.5 26.3807 30.5 25V7C30.5 5.61929 29.3807 4.5 28 4.5H4ZM4.5 9.04629V22.8485L10.0541 18.3358C10.6971 17.8134 11.6418 17.9111 12.1642 18.5541C12.6866 19.197 12.5888 20.1417 11.9459 20.6641L7.22484 24.5H24.7751L20.0541 20.6642C19.4112 20.1418 19.3134 19.1971 19.8358 18.5541C20.3582 17.9112 21.3029 17.8134 21.9459 18.3358L27.5 22.8485V9.04629L17.5243 16.7199C16.6256 17.4112 15.3744 17.4112 14.4757 16.7199L4.5 9.04629ZM7.41018 7.5L16 14.1076L24.5898 7.5H7.41018Z" fill="currentColor"/>
</svg>
