<svg width="32" height="32" viewBox="0 0 32 32" fill="none" xmlns="http://www.w3.org/2000/svg">
<path fill-rule="evenodd" clip-rule="evenodd" d="M2.83751 11.4018C2.31192 11.7772 1.99998 12.3834 1.99998 13.0293V27.5C1.99998 28.3285 2.67156 29 3.49998 29H28.5C29.3284 29 30 28.3285 30 27.5V13.0293C30 12.3834 29.6881 11.7772 29.1625 11.4018L16.8718 2.62278C16.3503 2.25025 15.6497 2.25025 15.1281 2.62278L2.83751 11.4018ZM5.06096 14.8843L15.6799 23.7332C15.8653 23.8878 16.1347 23.8878 16.3201 23.7332L26.939 14.8843C27.2983 14.585 27.0866 14.0002 26.6189 14.0002H5.38105C4.91339 14.0002 4.70169 14.585 5.06096 14.8843Z" fill="currentColor"/>
</svg>
