<svg width="32" height="32" viewBox="0 0 32 32" fill="none" xmlns="http://www.w3.org/2000/svg">
<path fill-rule="evenodd" clip-rule="evenodd" d="M16 6C14.6193 6 13.5 7.11929 13.5 8.5C13.5 9.88071 14.6193 11 16 11C17.3807 11 18.5 9.88071 18.5 8.5C18.5 7.11929 17.3807 6 16 6ZM10.5 8.5C10.5 5.46243 12.9624 3 16 3C19.0376 3 21.5 5.46243 21.5 8.5C21.5 11.5376 19.0376 14 16 14C12.9624 14 10.5 11.5376 10.5 8.5ZM5.71457 25.5C6.10683 24.1441 7.02893 22.8754 8.41472 21.836C10.3026 20.4201 12.9795 19.5 16 19.5C18.3769 19.5 20.5477 20.0704 22.2878 21.0092C23.0168 21.4025 23.9268 21.1304 24.3201 20.4013C24.7135 19.6722 24.4413 18.7623 23.7122 18.369C21.5118 17.1818 18.8478 16.5 16 16.5C12.3931 16.5 9.06997 17.5946 6.61472 19.436C4.15901 21.2778 2.5 23.9367 2.5 27C2.5 27.8284 3.17157 28.5 4 28.5H13.5C14.3284 28.5 15 27.8284 15 27C15 26.1716 14.3284 25.5 13.5 25.5H5.71457ZM29.0992 23.0207C29.6629 22.4136 29.6277 21.4645 29.0207 20.9008C28.4136 20.3371 27.4645 20.3723 26.9008 20.9793L21.6519 26.632L20.2206 24.6281C19.7391 23.954 18.8023 23.7979 18.1281 24.2794C17.454 24.7609 17.2979 25.6977 17.7794 26.3719L20.2794 29.8719C20.5413 30.2386 20.9543 30.4681 21.404 30.4969C21.8537 30.5258 22.2925 30.3509 22.5992 30.0207L29.0992 23.0207Z" fill="currentColor"/>
</svg>
