<svg width="32" height="32" viewBox="0 0 32 32" fill="none" xmlns="http://www.w3.org/2000/svg">
<path fill-rule="evenodd" clip-rule="evenodd" d="M9.5 10C9.5 9.17157 10.1716 8.5 11 8.5C11.8284 8.5 12.5 9.17157 12.5 10C12.5 10.8284 11.8284 11.5 11 11.5C10.1716 11.5 9.5 10.8284 9.5 10ZM11 5.5C8.51472 5.5 6.5 7.51472 6.5 10C6.5 12.4853 8.51472 14.5 11 14.5C13.4853 14.5 15.5 12.4853 15.5 10C15.5 7.51472 13.4853 5.5 11 5.5ZM3.79986 23.5H12H18.2001C17.3378 21.3504 14.6759 19.5 11 19.5C7.3241 19.5 4.66218 21.3504 3.79986 23.5ZM2 26.5H12H20H30C30.8284 26.5 31.5 25.8284 31.5 25C31.5 19.9766 26.4263 16.5 21 16.5C19.197 16.5 17.4867 16.8661 15.9878 17.5227C14.468 16.8626 12.7524 16.5 11 16.5C5.57367 16.5 0.5 19.9766 0.5 25C0.5 25.8284 1.17157 26.5 2 26.5ZM25.5 10C25.5 12.2091 23.7091 14 21.5 14C19.2909 14 17.5 12.2091 17.5 10C17.5 7.79086 19.2909 6 21.5 6C23.7091 6 25.5 7.79086 25.5 10Z" fill="currentColor"/>
</svg>
