<svg width="32" height="32" viewBox="0 0 32 32" fill="none" xmlns="http://www.w3.org/2000/svg">
<path fill-rule="evenodd" clip-rule="evenodd" d="M4.5 22C4.5 22.8284 5.17157 23.5 6 23.5C6.82843 23.5 7.5 22.8284 7.5 22L7.5 5L20 5C20.8284 5 21.5 4.32843 21.5 3.5C21.5 2.67157 20.8284 2 20 2H7C5.61929 2 4.5 3.11929 4.5 4.5V22ZM14 9.00002C12.6193 9.00002 11.5 10.1193 11.5 11.5L11.5 27.5C11.5 28.8807 12.6193 30 14 30L26 30C27.3807 30 28.5 28.8807 28.5 27.5V11.5C28.5 10.1193 27.3807 9.00002 26 9.00002L14 9.00002ZM14.5 27L14.5 12L25.5 12V27L14.5 27Z" fill="currentColor"/>
</svg>
