<svg width="32" height="32" viewBox="0 0 32 32" fill="none" xmlns="http://www.w3.org/2000/svg">
<path fill-rule="evenodd" clip-rule="evenodd" d="M16.0309 1C15.192 1 14.5121 1.65519 14.5121 2.46341V4.09453C10.6588 4.60106 7.72506 7.04531 7.72506 10.5678C7.72506 14.6462 11.0695 15.761 14.5121 16.4963L14.5121 24.8106C12.6884 24.4904 11.1782 23.6216 10.0155 22.2153C9.40924 21.482 8.28067 21.2505 7.53316 21.8507C6.98367 22.2919 6.81452 23.054 7.23676 23.6103C8.80998 25.6831 11.4386 27.077 14.5121 27.4712V29.5366C14.5121 30.3448 15.192 31 16.0309 31C16.8697 31 17.5497 30.3448 17.5497 29.5366V27.5023C21.7593 27.0513 25 24.508 25 20.6449C25 16.1058 21.2249 15.0431 17.5497 14.3026V6.64016C19.2118 6.91889 20.5265 7.69964 21.5189 8.8497C22.1243 9.55122 23.2205 9.78108 23.9453 9.19403C24.4659 8.77241 24.6306 8.05212 24.2346 7.51943C22.8506 5.65774 20.509 4.39692 17.5497 4.0645V2.46341C17.5497 1.65519 16.8697 1 16.0309 1ZM14.5121 6.65838C12.252 7.06197 10.6655 8.41802 10.6655 10.3746C10.6655 12.3252 12.3268 13.1364 14.5121 13.6548L14.5121 6.65838ZM17.5497 17.1358L17.5497 24.8945C20.1221 24.5724 22.0596 23.2524 22.0596 20.838C22.0596 18.5525 20.0553 17.7153 17.5497 17.1358Z" fill="currentColor"/>
</svg>
