<svg width="32" height="32" viewBox="0 0 32 32" fill="none" xmlns="http://www.w3.org/2000/svg">
<path d="M9.85942 30.6667C7.25147 30.6667 5.29552 29.0018 5.33387 26.391C5.33387 23.9316 7.32818 22.1153 10.1279 22.1153C11.2784 22.1153 12.314 22.4559 13.2344 22.9478V22.5316C13.2344 21.0559 12.6975 19.9532 12.0071 18.6667H8.85327C8.11689 18.6667 7.51994 18.0697 7.51994 17.3334C7.51994 16.597 8.11689 16 8.85327 16H10.6666C9.97631 14.5622 9.33331 12.5964 9.33331 10.6667C9.33331 6.08831 12.8509 2.66669 18.1435 2.66669C22.8748 2.66669 26.0356 5.78155 26.5821 10.0034C26.6767 10.7337 26.0697 11.3334 25.3333 11.3334C24.5969 11.3334 24.0155 10.7313 23.8868 10.0062C23.3774 7.13497 21.1879 5.33335 18.1435 5.33335C14.8068 5.33335 12.4 7.85047 12.4 11.1424C12.4 12.8829 13.3096 14.5622 14 16H20C20.7364 16 21.3333 16.597 21.3333 17.3334C21.3333 18.0697 20.7364 18.6667 20 18.6667L15.1333 18.6667C15.6319 19.8397 16.1333 20.9424 16.1333 22.418C16.1333 23.2126 16.0725 24.0451 15.9191 24.8018C17.5682 26.164 19.1472 28.0937 21.3333 28.0937C24.1626 28.0142 24.9722 26.2977 25.236 23.9658C25.3179 23.2414 25.907 22.6667 26.6359 22.6667C27.3893 22.6667 28.0091 23.2799 27.9279 24.0289C27.5077 27.9073 25.2733 30.6667 21.8636 30.6667C18.7955 30.6667 16.6477 29.0397 14.8835 27.4505C13.8097 29.3045 12.0838 30.6667 9.85942 30.6667ZM8.13357 26.3532C8.13357 27.4505 8.90062 28.0937 9.93612 28.0937C11.2401 28.0937 12.1989 27.1478 12.7358 25.6343C11.8921 24.991 11.0867 24.537 10.1662 24.537C8.97732 24.537 8.13357 25.1802 8.13357 26.3532Z" fill="currentColor"/>
</svg>
