<svg width="32" height="32" viewBox="0 0 32 32" fill="none" xmlns="http://www.w3.org/2000/svg">
<path d="M5.2714 20.791C4.56922 20.791 4 20.2066 4 19.4856C4 18.7647 4.56922 18.1802 5.2714 18.1802H6.57965C6.5428 17.6883 6.54279 17.1964 6.54279 16.6667C6.54279 16.0613 6.57965 15.4937 6.6165 14.9261H5.25297C4.56098 14.9261 4 14.3502 4 13.6397C4 12.9292 4.56097 12.3532 5.25297 12.3532H6.94817C8.09058 6.29912 11.7758 2.66669 16.8982 2.66669C20.7821 2.66669 23.6543 4.59576 25.2076 7.98078C25.5545 8.73666 25.1513 9.60406 24.3945 9.91126L24.1266 10.02C23.2907 10.3593 22.3683 9.88137 21.9788 9.04966C20.9781 6.91268 19.391 5.73155 16.8982 5.73155C13.5815 5.73155 11.3336 8.15317 10.4491 12.3532L17.0339 12.3532C17.8347 12.3532 18.43 13.1139 18.2575 13.9168C18.1308 14.5063 17.6219 14.9261 17.0339 14.9261L10.1174 14.9261C10.0806 15.4937 10.0437 16.0613 10.0437 16.6667C10.0437 17.1964 10.0437 17.6883 10.0806 18.1802H15.7998C16.6108 18.1802 17.2145 18.9493 17.0422 19.7629C16.9152 20.363 16.3979 20.791 15.7998 20.791H10.4123C11.2599 25.1424 13.5447 27.6018 16.8982 27.6018C19.391 27.6018 20.9781 26.4207 21.9788 24.2837C22.3683 23.452 23.2907 22.9741 24.1266 23.3134L24.3945 23.4221C25.1513 23.7293 25.5545 24.5967 25.2076 25.3526C23.6543 28.7376 20.7821 30.6667 16.8982 30.6667C11.7389 30.6667 8.01688 26.9586 6.91132 20.791H5.2714Z" fill="currentColor"/>
</svg>
