<svg width="32" height="32" viewBox="0 0 32 32" fill="none" xmlns="http://www.w3.org/2000/svg">
<path fill-rule="evenodd" clip-rule="evenodd" d="M16 0.5C16.8284 0.5 17.5 1.17157 17.5 2V4.5H19.3333C22.9232 4.5 25.8333 7.41016 25.8333 11C25.8333 12.861 25.0512 14.5394 23.7978 15.7243C25.4346 16.9046 26.5 18.8279 26.5 21C26.5 24.5899 23.5899 27.5 20 27.5H17.5V30C17.5 30.8284 16.8284 31.5 16 31.5C15.1716 31.5 14.5 30.8284 14.5 30V27.5H9C8.17157 27.5 7.5 26.8284 7.5 26V16V6C7.5 5.17157 8.17157 4.5 9 4.5H14.5V2C14.5 1.17157 15.1716 0.5 16 0.5ZM16 24.5H20C21.933 24.5 23.5 22.933 23.5 21C23.5 19.067 21.933 17.5 20 17.5H19.3618L19.3333 17.5001L10.5 17.5V24.5H16ZM10.5 7.5H16H19.3333C21.2663 7.5 22.8333 9.06702 22.8333 11C22.8333 12.9261 21.2776 14.4888 19.3542 14.5H10.5V7.5Z" fill="currentColor"/>
</svg>
