<svg width="32" height="32" viewBox="0 0 32 32" fill="none" xmlns="http://www.w3.org/2000/svg">
<path fill-rule="evenodd" clip-rule="evenodd" d="M6.78592 16L25.214 16C25.648 16 25.9999 15.6481 25.9999 15.214C25.9999 14.1703 25.3138 13.2508 24.3133 12.9537L22.0716 12.288C21.8343 12.2175 21.6066 12.1179 21.3937 11.9914L21.0394 11.781C20.1293 11.2404 19.5714 10.2602 19.5714 9.20166L19.5714 2C19.5714 1.44772 19.1237 1 18.5714 1H13.4285C12.8762 1 12.4285 1.44772 12.4285 2L12.4285 9.20166C12.4285 10.2602 11.8706 11.2404 10.9605 11.781L10.6062 11.9914C10.3933 12.1179 10.1656 12.2175 9.92827 12.288L7.68662 12.9537C6.68609 13.2508 5.99994 14.1703 5.99994 15.214C5.99994 15.6481 6.35184 16 6.78592 16ZM6.99978 19C6.4475 19 5.99978 19.4477 5.99978 20L5.99978 21.1992C5.99978 23.0574 5.74083 24.9064 5.23041 26.6931L4.36415 29.7253C4.18165 30.3641 4.66131 31 5.32568 31H7.70465C8.12265 31 8.49655 30.74 8.64208 30.3482L10.5739 25.1467C10.6687 24.8916 11.045 24.95 11.058 25.2218L11.2879 30.0476C11.3133 30.5808 11.753 31 12.2868 31L22.9999 31C24.6568 31 26 29.6568 25.9999 28L25.9998 20C25.9998 19.4477 25.5521 19 24.9998 19L6.99978 19Z" fill="currentColor"/>
</svg>
