<svg width="32" height="32" viewBox="0 0 32 32" fill="none" xmlns="http://www.w3.org/2000/svg">
<path fill-rule="evenodd" clip-rule="evenodd" d="M2.5 7C2.5 5.067 4.067 3.5 6 3.5H26C27.933 3.5 29.5 5.067 29.5 7V25C29.5 26.933 27.933 28.5 26 28.5H6C4.067 28.5 2.5 26.933 2.5 25V7ZM5.5 25V13H26.5V25C26.5 25.2761 26.2761 25.5 26 25.5H6C5.72386 25.5 5.5 25.2761 5.5 25ZM20.5 23C21.8807 23 23 21.8807 23 20.5C23 19.1193 21.8807 18 20.5 18C19.1193 18 18 19.1193 18 20.5C18 21.8807 19.1193 23 20.5 23Z" fill="currentColor"/>
</svg>
