<svg width="32" height="32" viewBox="0 0 32 32" fill="none" xmlns="http://www.w3.org/2000/svg">
<path fill-rule="evenodd" clip-rule="evenodd" d="M1.37924 5.63483C2.13341 5.29201 3.02269 5.62547 3.36551 6.37964L5.46582 11.0001H11.5341L13.6344 6.37953C13.8778 5.84405 14.4117 5.50025 14.9999 5.50025L29.9999 5.5C30.5099 5.49999 30.985 5.75912 31.2611 6.18791C31.5372 6.6167 31.5766 7.1564 31.3655 7.62069L29 12.825V26.0002C29 26.8287 28.3284 27.5002 27.5 27.5002L12.5 27.5004H4.49997C3.67154 27.5004 2.99997 26.8288 2.99997 26.0004V12.825L0.634431 7.62109C0.291613 6.86693 0.625077 5.97765 1.37924 5.63483ZM5.99997 14.0001V24.5004H11V14.0001H5.99997ZM14 14.0001V24.5004L26 24.5003V14.0001H14ZM26.5341 11.0001L27.6705 8.50004L15.9658 8.50023L14.8295 11.0001H26.5341Z" fill="currentColor"/>
</svg>
