<svg width="32" height="32" viewBox="0 0 32 32" fill="none" xmlns="http://www.w3.org/2000/svg">
<path fill-rule="evenodd" clip-rule="evenodd" d="M0.999992 5.5V11.5C0.999992 12.3284 1.67157 13 2.49999 13C3.32842 13 3.99999 12.3284 3.99999 11.5L3.99999 7L8.49999 7C9.32842 7 9.99999 6.32843 9.99999 5.5C9.99999 4.67157 9.32842 4 8.49999 4H2.49999C2.10217 4 1.72064 4.15804 1.43933 4.43934C1.15803 4.72065 0.999992 5.10218 0.999992 5.5ZM22 5.5C22 4.67157 22.6716 4 23.5 4H29.5C30.3284 4 31 4.67157 31 5.5V11.5C31 12.3284 30.3284 13 29.5 13C28.6716 13 28 12.3284 28 11.5V7H23.5C22.6716 7 22 6.32843 22 5.5ZM28 25V20.5C28 19.6716 28.6716 19 29.5 19C30.3284 19 31 19.6716 31 20.5V26.5C31 27.3284 30.3284 28 29.5 28H23.5C22.6716 28 22 27.3284 22 26.5C22 25.6716 22.6716 25 23.5 25H28ZM9.99999 26.5C9.99999 27.3284 9.32842 28 8.49999 28H2.49999C1.67157 28 0.999992 27.3284 0.999992 26.5V20.5C0.999992 19.6716 1.67157 19 2.49999 19C3.32842 19 3.99999 19.6716 3.99999 20.5L3.99999 25H8.49999C9.32842 25 9.99999 25.6716 9.99999 26.5ZM8.49999 9.5C7.39542 9.5 6.49999 10.3954 6.49999 11.5V20.5C6.49999 21.6046 7.39542 22.5 8.49999 22.5H23.5C24.6046 22.5 25.5 21.6046 25.5 20.5V11.5C25.5 10.3954 24.6046 9.5 23.5 9.5H8.49999ZM11 12C10.1716 12 9.49999 12.6716 9.49999 13.5C9.49999 14.3284 10.1716 15 11 15H16C16.8284 15 17.5 14.3284 17.5 13.5C17.5 12.6716 16.8284 12 16 12H11ZM9.49999 18.5C9.49999 17.6716 10.1716 17 11 17H21C21.8284 17 22.5 17.6716 22.5 18.5C22.5 19.3284 21.8284 20 21 20H11C10.1716 20 9.49999 19.3284 9.49999 18.5Z" fill="currentColor"/>
</svg>
