<svg width="32" height="32" viewBox="0 0 32 32" fill="none" xmlns="http://www.w3.org/2000/svg">
<path fill-rule="evenodd" clip-rule="evenodd" d="M22.5 6.5C19.7386 6.5 17.5 8.73858 17.5 11.5V15.4051L20.3549 12.0311C20.89 11.3987 21.8365 11.3198 22.4689 11.8549C23.1013 12.39 23.1802 13.3365 22.6451 13.9689L17.1451 20.4689C16.8601 20.8057 16.4412 21 16 21C15.5588 21 15.1399 20.8057 14.8549 20.4689L9.35492 13.9689C8.8198 13.3365 8.89868 12.39 9.53109 11.8549C10.1635 11.3198 11.11 11.3987 11.6451 12.0311L14.5 15.4051V11.5C14.5 7.08172 18.0817 3.5 22.5 3.5C26.9183 3.5 30.5 7.08172 30.5 11.5V25C30.5 26.3807 29.3807 27.5 28 27.5H4C2.61929 27.5 1.5 26.3807 1.5 25V8C1.5 6.61929 2.61929 5.5 4 5.5H9C9.82843 5.5 10.5 6.17157 10.5 7C10.5 7.82843 9.82843 8.5 9 8.5H4.5V24.5H27.5V11.5C27.5 8.73858 25.2614 6.5 22.5 6.5Z" fill="currentColor"/>
</svg>
