<svg width="32" height="32" viewBox="0 0 32 32" fill="none" xmlns="http://www.w3.org/2000/svg">
<path fill-rule="evenodd" clip-rule="evenodd" d="M2.5 13C1.67157 13 1 12.3284 1 11.5V5.5C1 5.10218 1.15804 4.72065 1.43934 4.43934C1.72065 4.15804 2.10218 4 2.5 4H8.5C9.32843 4 10 4.67157 10 5.5C10 6.32843 9.32843 7 8.5 7L4 7L4 11.5C4 12.3284 3.32843 13 2.5 13ZM23.5 4C22.6716 4 22 4.67157 22 5.5C22 6.32843 22.6716 7 23.5 7H28V11.5C28 12.3284 28.6716 13 29.5 13C30.3284 13 31 12.3284 31 11.5V5.5C31 4.67157 30.3284 4 29.5 4H23.5ZM28 20.5V25H23.5C22.6716 25 22 25.6716 22 26.5C22 27.3284 22.6716 28 23.5 28H29.5C30.3284 28 31 27.3284 31 26.5V20.5C31 19.6716 30.3284 19 29.5 19C28.6716 19 28 19.6716 28 20.5ZM8.5 28C9.32843 28 10 27.3284 10 26.5C10 25.6716 9.32843 25 8.5 25H4L4 20.5C4 19.6716 3.32843 19 2.5 19C1.67157 19 1 19.6716 1 20.5V26.5C1 27.3284 1.67157 28 2.5 28H8.5ZM9 10.5C9.82843 10.5 10.5 11.1716 10.5 12V20C10.5 20.8284 9.82843 21.5 9 21.5C8.17157 21.5 7.5 20.8284 7.5 20V12C7.5 11.1716 8.17157 10.5 9 10.5ZM15 11C15 10.4477 14.5523 10 14 10C13.4477 10 13 10.4477 13 11V21C13 21.5523 13.4477 22 14 22C14.5523 22 15 21.5523 15 21V11ZM19 10.5C19.8284 10.5 20.5 11.1716 20.5 12V20C20.5 20.8284 19.8284 21.5 19 21.5C18.1716 21.5 17.5 20.8284 17.5 20V12C17.5 11.1716 18.1716 10.5 19 10.5ZM25 11C25 10.4477 24.5523 10 24 10C23.4477 10 23 10.4477 23 11V21C23 21.5523 23.4477 22 24 22C24.5523 22 25 21.5523 25 21V11Z" fill="currentColor"/>
</svg>
