<svg width="32" height="32" viewBox="0 0 32 32" fill="none" xmlns="http://www.w3.org/2000/svg">
<path fill-rule="evenodd" clip-rule="evenodd" d="M2.66667 5.16663C1.83824 5.16663 1.16667 5.8382 1.16667 6.66663V18.6666C1.16667 19.4951 1.83824 20.1666 2.66667 20.1666C3.4951 20.1666 4.16667 19.4951 4.16667 18.6666V8.16663H22.6667C23.4951 8.16663 24.1667 7.49505 24.1667 6.66663C24.1667 5.8382 23.4951 5.16663 22.6667 5.16663H2.66667ZM30.5 25C30.5 25.8284 29.8284 26.5 29 26.5H7.99998C7.60216 26.5 7.22063 26.3419 6.93932 26.0606C6.65802 25.7793 6.49998 25.3978 6.49998 25L6.49998 12C6.49998 11.1715 7.17156 10.5 7.99998 10.5L29 10.5C29.3978 10.5 29.7793 10.658 30.0606 10.9393C30.3419 11.2206 30.5 11.6021 30.5 12V25ZM27.5 23.5V13.5L9.49998 13.5L9.49998 23.5H27.5ZM16 17.625C16 16.1752 17.1193 15 18.5 15C19.8807 15 21 16.1752 21 17.625V19.375C21 20.8247 19.8807 22 18.5 22C17.1193 22 16 20.8247 16 19.375V17.625Z" fill="currentColor"/>
</svg>
