<svg width="32" height="32" viewBox="0 0 32 32" fill="none" xmlns="http://www.w3.org/2000/svg">
<path fill-rule="evenodd" clip-rule="evenodd" d="M1.5 5C1.5 3.61929 2.61929 2.5 4 2.5H28C29.3807 2.5 30.5 3.61929 30.5 5V20C30.5 21.3807 29.3807 22.5 28 22.5H17.5V26.5H21.3333C22.1618 26.5 22.8333 27.1716 22.8333 28C22.8333 28.8284 22.1618 29.5 21.3333 29.5H16H10.6667C9.83824 29.5 9.16667 28.8284 9.16667 28C9.16667 27.1716 9.83824 26.5 10.6667 26.5H14.5V22.5H4C2.61929 22.5 1.5 21.3807 1.5 20V5ZM4.5 5.5V19.5H16H27.5V5.5H4.5Z" fill="currentColor"/>
</svg>
