<svg width="32" height="32" viewBox="0 0 32 32" fill="none" xmlns="http://www.w3.org/2000/svg">
<path fill-rule="evenodd" clip-rule="evenodd" d="M20.1038 3.50074C24.2523 3.4435 27.5565 6.7477 27.4992 10.8963C27.4878 11.7246 28.15 12.4054 28.9784 12.4168C29.8067 12.4282 30.4875 11.766 30.4989 10.9377C30.5795 5.10001 25.9001 0.420477 20.0624 0.501024C19.2341 0.512454 18.5718 1.19323 18.5833 2.02158C18.5947 2.84993 19.2755 3.51217 20.1038 3.50074ZM20.0207 9.52783C20.8404 9.51652 21.4834 10.1595 21.4721 10.9793C21.4607 11.8077 22.1229 12.4884 22.9513 12.4999C23.7796 12.5113 24.4604 11.849 24.4718 11.0207C24.5064 8.51179 22.4882 6.4935 19.9793 6.52812C19.1509 6.53955 18.4887 7.22032 18.5001 8.04867C18.5115 8.87702 19.1923 9.53926 20.0207 9.52783ZM8.00015 7.00024C8.00015 6.7241 8.22401 6.50024 8.50015 6.50024H14.0002C14.8286 6.50024 15.5002 5.82867 15.5002 5.00024C15.5002 4.17182 14.8286 3.50024 14.0002 3.50024H8.50015C6.56716 3.50024 5.00015 5.06725 5.00015 7.00024V27.0002C5.00015 28.9332 6.56718 30.5002 8.50019 30.5002L22.5002 30.5001C24.4332 30.5001 26.0002 28.9331 26.0002 27.0001V17C26.0002 16.1716 25.3286 15.5 24.5002 15.5C23.6717 15.5 23.0002 16.1716 23.0002 17V27.0001C23.0002 27.2762 22.7763 27.5001 22.5002 27.5001L8.50016 27.5002C8.22401 27.5002 8.00015 27.2764 8.00015 27.0002V7.00024Z" fill="currentColor"/>
</svg>
