<svg width="32" height="32" viewBox="0 0 32 32" fill="none" xmlns="http://www.w3.org/2000/svg">
<path fill-rule="evenodd" clip-rule="evenodd" d="M8.00015 6.00024C8.00015 5.7241 8.22401 5.50024 8.50015 5.50024H22.5002C22.7763 5.50024 23.0002 5.7241 23.0002 6.00025V26.0001C23.0002 26.2762 22.7763 26.5001 22.5002 26.5001L8.50016 26.5002C8.22401 26.5002 8.00015 26.2764 8.00015 26.0002V6.00024ZM8.50015 2.50024C6.56716 2.50024 5.00015 4.06725 5.00015 6.00024V26.0002C5.00015 27.9332 6.56718 29.5002 8.50019 29.5002L22.5002 29.5001C24.4332 29.5001 26.0002 27.9331 26.0002 26.0001V6.00025C26.0002 4.06725 24.4332 2.50024 22.5002 2.50024H8.50015ZM13 7.5C12.1716 7.5 11.5 8.17157 11.5 9C11.5 9.82843 12.1716 10.5 13 10.5H18C18.8284 10.5 19.5 9.82843 19.5 9C19.5 8.17157 18.8284 7.5 18 7.5H13Z" fill="currentColor"/>
</svg>
