<svg width="32" height="32" viewBox="0 0 32 32" fill="none" xmlns="http://www.w3.org/2000/svg">
<path fill-rule="evenodd" clip-rule="evenodd" d="M8.00003 3.5C6.06704 3.5 4.50003 5.067 4.50003 7V18C4.50003 18.4292 4.57727 18.8403 4.71861 19.2202C4.70971 19.2348 4.70105 19.2496 4.69262 19.2646L0.192636 27.2646C-0.0686217 27.7291 -0.0638441 28.2973 0.205186 28.7573C0.474217 29.2173 0.967104 29.5 1.5 29.5H30.5C31.0329 29.5 31.5258 29.2173 31.7948 28.7573C32.0638 28.2973 32.0686 27.7291 31.8074 27.2646L27.3073 19.2646C27.2989 19.2497 27.2903 19.2349 27.2814 19.2203C27.4228 18.8403 27.5 18.4292 27.5 18V7C27.5 5.067 25.933 3.5 24 3.5H8.00003ZM24 18.5C24.2762 18.5 24.5 18.2761 24.5 18V7C24.5 6.72386 24.2762 6.5 24 6.5H8.00003C7.72389 6.5 7.50003 6.72386 7.50003 7V18C7.50003 18.2761 7.72389 18.5 8.00003 18.5H24ZM8.00003 21.5H6.87726L4.06477 26.5H27.9352L25.1227 21.5H24H8.00003Z" fill="currentColor"/>
</svg>
