<svg width="32" height="32" viewBox="0 0 32 32" fill="none" xmlns="http://www.w3.org/2000/svg">
<path fill-rule="evenodd" clip-rule="evenodd" d="M9 13C11.2091 13 13 11.2091 13 9C13 6.79086 11.2091 5 9 5C6.79086 5 5 6.79086 5 9C5 11.2091 6.79086 13 9 13ZM25.0607 6.93934C25.6464 7.52512 25.6464 8.47487 25.0607 9.06066L9.06066 25.0607C8.47487 25.6464 7.52513 25.6464 6.93934 25.0607C6.35355 24.4749 6.35355 23.5251 6.93934 22.9393L22.9393 6.93934C23.5251 6.35355 24.4749 6.35355 25.0607 6.93934ZM27 23C27 25.2091 25.2091 27 23 27C20.7909 27 19 25.2091 19 23C19 20.7909 20.7909 19 23 19C25.2091 19 27 20.7909 27 23Z" fill="currentColor"/>
</svg>
