<svg width="32" height="32" viewBox="0 0 32 32" fill="none" xmlns="http://www.w3.org/2000/svg">
<path fill-rule="evenodd" clip-rule="evenodd" d="M28.4483 17.5465L15.7071 30.1669C15.316 30.5543 14.6854 30.5528 14.2962 30.1636L1.83647 17.7038C1.44726 17.3146 1.44576 16.684 1.83311 16.293L14.4536 3.55172C14.7962 3.20576 15.2855 3.04767 15.7659 3.12773L26.2954 4.88265C26.7169 4.9529 27.0472 5.28317 27.1174 5.70465L28.8723 16.2342C28.9524 16.7145 28.7943 17.2038 28.4483 17.5465ZM19.7322 12.2677C20.7085 13.244 22.2914 13.244 23.2677 12.2677C24.244 11.2914 24.244 9.7085 23.2677 8.73219C22.2914 7.75588 20.7085 7.75588 19.7322 8.73219C18.7559 9.7085 18.7559 11.2914 19.7322 12.2677Z" fill="currentColor"/>
</svg>
