<svg width="32" height="32" viewBox="0 0 32 32" fill="none" xmlns="http://www.w3.org/2000/svg">
<path fill-rule="evenodd" clip-rule="evenodd" d="M16.194 1.51249C15.7322 1.45225 15.2686 1.60992 14.9393 1.93923L1.43935 15.439C1.15804 15.7203 1 16.1019 1 16.4997C1 16.8975 1.15803 17.279 1.43934 17.5603L14.4393 30.5603C15.0251 31.1461 15.9749 31.1461 16.5606 30.5604L30.0606 17.0607C30.3899 16.7314 30.5476 16.2678 30.4873 15.806L28.9873 4.306C28.8994 3.63148 28.3685 3.1006 27.694 3.01261L16.194 1.51249ZM4.62133 16.4997L16.5383 4.58283L26.1618 5.83816L27.417 15.4616L15.5 27.3784L4.62133 16.4997ZM19.2319 12.7677C20.2082 13.744 21.7911 13.744 22.7675 12.7677C23.7438 11.7913 23.7438 10.2084 22.7675 9.23212C21.7911 8.25581 20.2082 8.25581 19.2319 9.23212C18.2556 10.2084 18.2556 11.7913 19.2319 12.7677Z" fill="currentColor"/>
</svg>
