<svg width="32" height="32" viewBox="0 0 32 32" fill="none" xmlns="http://www.w3.org/2000/svg">
<path fill-rule="evenodd" clip-rule="evenodd" d="M5.5 17C5.5 11.201 10.201 6.5 16 6.5C21.799 6.5 26.5 11.201 26.5 17C26.5 17.8284 27.1716 18.5 28 18.5C28.8284 18.5 29.5 17.8284 29.5 17C29.5 9.54416 23.4558 3.5 16 3.5C8.54416 3.5 2.5 9.54416 2.5 17C2.5 17.8284 3.17157 18.5 4 18.5C4.82843 18.5 5.5 17.8284 5.5 17ZM17 16.5C16.1716 16.5 15.5 17.1716 15.5 18C15.5 18.8284 16.1716 19.5 17 19.5H19.3787L11.9393 26.9393C11.3536 27.5251 11.3536 28.4749 11.9393 29.0607C12.5251 29.6464 13.4749 29.6464 14.0607 29.0607L21.5 21.6213V24C21.5 24.8284 22.1716 25.5 23 25.5C23.8284 25.5 24.5 24.8284 24.5 24V18C24.5 17.1716 23.8284 16.5 23 16.5H17Z" fill="currentColor"/>
</svg>
