<svg width="32" height="32" viewBox="0 0 32 32" fill="none" xmlns="http://www.w3.org/2000/svg">
<path fill-rule="evenodd" clip-rule="evenodd" d="M5.5 17C5.5 11.201 10.201 6.5 16 6.5C21.799 6.5 26.5 11.201 26.5 17C26.5 17.8284 27.1716 18.5 28 18.5C28.8284 18.5 29.5 17.8284 29.5 17C29.5 9.54416 23.4558 3.5 16 3.5C8.54416 3.5 2.5 9.54416 2.5 17C2.5 17.8284 3.17157 18.5 4 18.5C4.82843 18.5 5.5 17.8284 5.5 17ZM15 16.5C15.8284 16.5 16.5 17.1716 16.5 18C16.5 18.8284 15.8284 19.5 15 19.5H12.6213L20.0607 26.9393C20.6464 27.5251 20.6464 28.4749 20.0607 29.0607C19.4749 29.6464 18.5251 29.6464 17.9393 29.0607L10.5 21.6213V24C10.5 24.8284 9.82843 25.5 9 25.5C8.17157 25.5 7.5 24.8284 7.5 24V18C7.5 17.1716 8.17157 16.5 9 16.5H15Z" fill="currentColor"/>
</svg>
