<svg width="32" height="32" viewBox="0 0 32 32" fill="none" xmlns="http://www.w3.org/2000/svg">
<path fill-rule="evenodd" clip-rule="evenodd" d="M8.20001 1.5L8.14757 1.5C7.6326 1.49997 7.15963 1.49993 6.76426 1.53223C6.338 1.56706 5.87165 1.64679 5.41104 1.88148C4.75247 2.21704 4.21704 2.75247 3.88148 3.41104C3.64679 3.87165 3.56706 4.338 3.53224 4.76426C3.49993 5.15963 3.49997 5.63259 3.5 6.14756V6.14757L3.50001 6.20001V25.8L3.5 25.8524C3.49997 26.3674 3.49993 26.8404 3.53224 27.2357C3.56706 27.662 3.64679 28.1284 3.88148 28.589C4.21704 29.2475 4.75247 29.783 5.41104 30.1185C5.87165 30.3532 6.338 30.4329 6.76426 30.4678C7.15963 30.5001 7.63258 30.5 8.14754 30.5L8.20001 30.5H14C14.8284 30.5 15.5 29.8284 15.5 29C15.5 28.1716 14.8284 27.5 14 27.5H8.20001C7.6152 27.5 7.26681 27.4988 7.00856 27.4777C6.85094 27.4649 6.78468 27.4479 6.76693 27.4424C6.67765 27.3953 6.60469 27.3224 6.55765 27.2331C6.55214 27.2153 6.53515 27.1491 6.52227 26.9915C6.50117 26.7332 6.50001 26.3848 6.50001 25.8V6.20001C6.50001 5.6152 6.50117 5.26681 6.52227 5.00856C6.53515 4.85094 6.55214 4.78469 6.55765 4.76693C6.60469 4.67765 6.67765 4.60469 6.76693 4.55765C6.78469 4.55214 6.85094 4.53515 7.00856 4.52227C7.26681 4.50117 7.6152 4.5 8.20001 4.5H23.8C24.3848 4.5 24.7332 4.50117 24.9915 4.52227C25.1491 4.53515 25.2153 4.55214 25.2331 4.55765C25.3224 4.60469 25.3953 4.67765 25.4424 4.76693C25.4479 4.78469 25.4649 4.85094 25.4777 5.00856C25.4988 5.26681 25.5 5.6152 25.5 6.2V8.99994C25.5 9.82837 26.1716 10.4999 27 10.4999C27.8284 10.4999 28.5 9.82837 28.5 8.99994V6.2L28.5 6.14754C28.5 5.63258 28.5001 5.15963 28.4678 4.76426C28.4329 4.338 28.3532 3.87165 28.1185 3.41104C27.783 2.75247 27.2475 2.21704 26.589 1.88148C26.1284 1.64679 25.662 1.56706 25.2357 1.53223C24.8404 1.49993 24.3674 1.49997 23.8524 1.5L23.8 1.5H8.20001ZM6.76476 27.4417L6.76175 27.4405L6.7628 27.441L6.76476 27.4417ZM6.55916 27.2376C6.55934 27.2381 6.55945 27.2383 6.55946 27.2383L6.55835 27.2353L6.55916 27.2376ZM6.55834 4.76478L6.55946 4.76175C6.55945 4.76172 6.55933 4.76198 6.55912 4.76254L6.55834 4.76478ZM6.76175 4.55946C6.7617 4.55944 6.76265 4.55904 6.76478 4.55834L6.76175 4.55946ZM25.2383 4.55946L25.2352 4.55834C25.2374 4.55904 25.2383 4.55944 25.2383 4.55946ZM25.4405 4.76175C25.4406 4.76169 25.441 4.76263 25.4417 4.76475L25.4405 4.76175ZM13 18.5C12.1716 18.5 11.5 19.1716 11.5 20C11.5 20.8284 12.1716 21.5 13 21.5H16C16.8284 21.5 17.5 20.8284 17.5 20C17.5 19.1716 16.8284 18.5 16 18.5H13ZM31.0659 12.9445C31.4037 13.2857 31.5578 13.7679 31.4804 14.2418C31.4213 14.6036 31.3648 14.9628 31.3088 15.319L31.3087 15.3198C30.8402 18.2999 30.4055 21.0649 28.7516 23.3247C27.2161 25.4226 25.1772 26.4951 23.5748 27.0418C22.9166 27.2664 22.3201 27.4066 21.8416 27.4943L21.4692 29.3026C21.302 30.114 20.5088 30.6362 19.6974 30.4691C18.886 30.302 18.3637 29.5087 18.5308 28.6973L19.1194 25.8402L19.1225 25.8253L20.5885 26.1428C19.1225 25.8253 19.1226 25.825 19.1227 25.8247L19.1228 25.8239L19.1232 25.8222L19.1242 25.8175L19.1274 25.8034L19.1379 25.7569C19.1469 25.7178 19.1598 25.663 19.1769 25.5936C19.2109 25.4548 19.2614 25.2574 19.33 25.0115C19.4669 24.5204 19.6766 23.8324 19.9715 23.0289C20.5573 21.4326 21.4982 19.3278 22.9093 17.3997C24.448 15.2974 26.097 14.0812 27.4032 13.3882C28.0534 13.0432 28.6138 12.8304 29.0269 12.7016C29.2335 12.6371 29.4036 12.5936 29.5301 12.5649C29.5933 12.5505 29.6458 12.5399 29.6865 12.5322C29.7068 12.5284 29.7243 12.5253 29.7387 12.5228L29.758 12.5196L29.766 12.5183L29.7695 12.5178L29.7712 12.5175C29.772 12.5174 29.7728 12.5173 30 13.9999L29.7728 12.5173C30.2473 12.4445 30.728 12.6034 31.0659 12.9445ZM28.0749 16.478C27.252 17.0279 26.2797 17.8744 25.3302 19.1716C24.1428 20.7939 23.3181 22.6177 22.7879 24.0624L22.7559 24.1499C23.9462 23.7205 25.3108 22.9464 26.3307 21.5528C27.2955 20.2346 27.6919 18.6836 28.0749 16.478ZM13 10.4999C12.1716 10.4999 11.5 11.1715 11.5 11.9999C11.5 12.8284 12.1716 13.4999 13 13.4999H19C19.8284 13.4999 20.5 12.8284 20.5 11.9999C20.5 11.1715 19.8284 10.4999 19 10.4999H13Z" fill="currentColor"/>
</svg>
