<svg width="32" height="32" viewBox="0 0 32 32" fill="none" xmlns="http://www.w3.org/2000/svg">
<path fill-rule="evenodd" clip-rule="evenodd" d="M4.49992 8C4.49992 7.72386 4.72378 7.5 4.99992 7.5H26.9999C27.2761 7.5 27.4999 7.72386 27.4999 8V24C27.4999 24.2761 27.2761 24.5 26.9999 24.5H4.99992C4.72378 24.5 4.49992 24.2761 4.49992 24V8ZM4.99992 4.5C3.06693 4.5 1.49992 6.067 1.49992 8V24C1.49992 25.933 3.06693 27.5 4.99992 27.5H26.9999C28.9329 27.5 30.4999 25.933 30.4999 24V8C30.4999 6.067 28.9329 4.5 26.9999 4.5H4.99992ZM9.99992 11.5C9.1715 11.5 8.49992 12.1716 8.49992 13C8.49992 13.8284 9.1715 14.5 9.99992 14.5H21.9999C22.8284 14.5 23.4999 13.8284 23.4999 13C23.4999 12.1716 22.8284 11.5 21.9999 11.5H9.99992ZM9.99992 17.5C9.1715 17.5 8.49992 18.1716 8.49992 19C8.49992 19.8284 9.1715 20.5 9.99992 20.5H13.9999C14.8284 20.5 15.4999 19.8284 15.4999 19C15.4999 18.1716 14.8284 17.5 13.9999 17.5H9.99992Z" fill="currentColor"/>
</svg>
