<svg width="32" height="32" viewBox="0 0 32 32" fill="none" xmlns="http://www.w3.org/2000/svg">
<path fill-rule="evenodd" clip-rule="evenodd" d="M6.5 5C6.5 4.72386 6.72386 4.5 7 4.5H19.5369C19.6746 4.5 19.8062 4.5568 19.9007 4.65699L25.3638 10.4512C25.4513 10.544 25.5 10.6667 25.5 10.7942V27C25.5 27.2761 25.2761 27.5 25 27.5H7C6.72386 27.5 6.5 27.2761 6.5 27V5ZM7 1.5C5.067 1.5 3.5 3.067 3.5 5V27C3.5 28.933 5.067 30.5 7 30.5H25C26.933 30.5 28.5 28.933 28.5 27V10.7942C28.5 9.90154 28.1589 9.04262 27.5466 8.39314L22.0835 2.59895C21.4222 1.89758 20.5009 1.5 19.5369 1.5H7ZM11.5 12C11.5 11.1716 12.1716 10.5 13 10.5H17C17.8284 10.5 18.5 11.1716 18.5 12C18.5 12.8284 17.8284 13.5 17 13.5H13C12.1716 13.5 11.5 12.8284 11.5 12ZM11.5 20C11.5 19.1716 12.1716 18.5 13 18.5H19C19.8284 18.5 20.5 19.1716 20.5 20C20.5 20.8284 19.8284 21.5 19 21.5H13C12.1716 21.5 11.5 20.8284 11.5 20Z" fill="currentColor"/>
</svg>
