<svg width="32" height="32" viewBox="0 0 32 32" fill="none" xmlns="http://www.w3.org/2000/svg">
<path fill-rule="evenodd" clip-rule="evenodd" d="M8.14757 1.5L8.20001 1.50001H23.8L23.8524 1.5C24.3674 1.49997 24.8404 1.49993 25.2357 1.53224C25.662 1.56706 26.1284 1.64679 26.589 1.88148C27.2475 2.21704 27.783 2.75247 28.1185 3.41104C28.3532 3.87165 28.4329 4.338 28.4678 4.76426C28.5001 5.15963 28.5 5.63258 28.5 6.14754L28.5 6.20001V9.00001C28.5 9.82843 27.8284 10.5 27 10.5C26.1716 10.5 25.5 9.82843 25.5 9.00001V6.20001C25.5 5.6152 25.4988 5.26681 25.4777 5.00856C25.4649 4.85094 25.4479 4.78469 25.4424 4.76693C25.3953 4.67765 25.3224 4.60469 25.2331 4.55765C25.2153 4.55214 25.1491 4.53515 24.9915 4.52227C24.7332 4.50117 24.3848 4.50001 23.8 4.50001H8.20001C7.6152 4.50001 7.26681 4.50117 7.00856 4.52227C6.85094 4.53515 6.78469 4.55214 6.76693 4.55765C6.67765 4.60469 6.60469 4.67765 6.55765 4.76693C6.55214 4.78469 6.53515 4.85094 6.52227 5.00856C6.50117 5.26681 6.50001 5.6152 6.50001 6.20001V25.8C6.50001 26.3848 6.50117 26.7332 6.52227 26.9915C6.53515 27.1491 6.55214 27.2153 6.55765 27.2331C6.60469 27.3224 6.67765 27.3953 6.76693 27.4424C6.78468 27.4479 6.85094 27.4649 7.00856 27.4777C7.26681 27.4988 7.6152 27.5 8.20001 27.5H17C17.8284 27.5 18.5 28.1716 18.5 29C18.5 29.8284 17.8284 30.5 17 30.5H8.20001L8.14754 30.5C7.63258 30.5 7.15963 30.5001 6.76426 30.4678C6.338 30.4329 5.87165 30.3532 5.41104 30.1185C4.75247 29.783 4.21704 29.2475 3.88148 28.589C3.64679 28.1284 3.56706 27.662 3.53224 27.2357C3.49993 26.8404 3.49997 26.3674 3.5 25.8524L3.50001 25.8V6.20001L3.5 6.14757V6.14757C3.49997 5.63259 3.49993 5.15963 3.53224 4.76426C3.56706 4.338 3.64679 3.87165 3.88148 3.41104C4.21704 2.75247 4.75247 2.21704 5.41104 1.88148C5.87165 1.64679 6.338 1.56706 6.76426 1.53224C7.15963 1.49993 7.63259 1.49997 8.14756 1.5H8.14757ZM6.76175 27.4405L6.76476 27.4417L6.76261 27.4409C6.762 27.4407 6.76172 27.4406 6.76175 27.4405ZM6.55946 27.2383C6.55945 27.2383 6.55934 27.2381 6.55916 27.2376L6.55835 27.2353L6.55946 27.2383ZM6.55946 4.76175L6.55834 4.76478C6.55904 4.76265 6.55944 4.7617 6.55946 4.76175ZM6.76175 4.55946C6.7617 4.55944 6.76265 4.55904 6.76478 4.55834L6.76175 4.55946ZM25.2383 4.55946L25.2352 4.55834L25.2372 4.55903L25.238 4.55933C25.2382 4.55941 25.2383 4.55945 25.2383 4.55946ZM25.4405 4.76175C25.4406 4.76169 25.441 4.76263 25.4417 4.76475L25.4405 4.76175ZM26 17.5C24.6193 17.5 23.5 18.6193 23.5 20C23.5 21.3807 24.6193 22.5 26 22.5C27.3807 22.5 28.5 21.3807 28.5 20C28.5 18.6193 27.3807 17.5 26 17.5ZM20.5 20C20.5 16.9624 22.9624 14.5 26 14.5C29.0376 14.5 31.5 16.9624 31.5 20C31.5 21.4676 30.9252 22.8009 29.9884 23.7871C29.9961 23.8333 30 23.8806 30 23.9287V30.0696C30 30.8394 29.0494 31.275 28.3916 30.8066L26.6084 29.537C26.2495 29.2814 25.7505 29.2814 25.3916 29.537L23.6084 30.8066C22.9506 31.275 22 30.8394 22 30.0696V23.9287C22 23.8806 22.0039 23.8333 22.0115 23.7871C21.0748 22.8009 20.5 21.4676 20.5 20ZM11.5 12C11.5 11.1716 12.1716 10.5 13 10.5H19C19.8284 10.5 20.5 11.1716 20.5 12C20.5 12.8284 19.8284 13.5 19 13.5H13C12.1716 13.5 11.5 12.8284 11.5 12ZM13 18.5C12.1716 18.5 11.5 19.1716 11.5 20C11.5 20.8284 12.1716 21.5 13 21.5H15C15.8284 21.5 16.5 20.8284 16.5 20C16.5 19.1716 15.8284 18.5 15 18.5H13Z" fill="currentColor"/>
</svg>
