<svg width="32" height="32" viewBox="0 0 32 32" fill="none" xmlns="http://www.w3.org/2000/svg">
<path fill-rule="evenodd" clip-rule="evenodd" d="M5 6.2C5 5.0799 5 4.51984 5.21799 4.09202C5.40973 3.71569 5.71569 3.40973 6.09202 3.21799C6.51984 3 7.0799 3 8.2 3H18.6745C19.1637 3 19.4083 3 19.6385 3.05526C19.8425 3.10425 20.0376 3.18506 20.2166 3.29472C20.4184 3.4184 20.5914 3.59135 20.9373 3.93726L26.0627 9.06274C26.4086 9.40865 26.5816 9.5816 26.7053 9.78343C26.8149 9.96237 26.8957 10.1575 26.9447 10.3615C27 10.5917 27 10.8363 27 11.3255V25.8C27 26.9201 27 27.4802 26.782 27.908C26.5903 28.2843 26.2843 28.5903 25.908 28.782C25.4802 29 24.9201 29 23.8 29H8.2C7.0799 29 6.51984 29 6.09202 28.782C5.71569 28.5903 5.40973 28.2843 5.21799 27.908C5 27.4802 5 26.9201 5 25.8V6.2ZM9.5 12C9.5 11.1716 10.1716 10.5 11 10.5H17C17.8284 10.5 18.5 11.1716 18.5 12C18.5 12.8284 17.8284 13.5 17 13.5H11C10.1716 13.5 9.5 12.8284 9.5 12ZM11 18.5C10.1716 18.5 9.5 19.1716 9.5 20C9.5 20.8284 10.1716 21.5 11 21.5H21C21.8284 21.5 22.5 20.8284 22.5 20C22.5 19.1716 21.8284 18.5 21 18.5H11Z" fill="currentColor"/>
</svg>
