<svg width="32" height="32" viewBox="0 0 32 32" fill="none" xmlns="http://www.w3.org/2000/svg">
<path fill-rule="evenodd" clip-rule="evenodd" d="M18.8388 1.93934C19.4245 1.35355 20.3743 1.35355 20.9601 1.93934L22.1007 3.07999L22.1009 3.0802L26.8903 7.86955L27.8906 8.8699C28.4764 9.45568 28.4764 10.4054 27.8906 10.9912C27.3251 11.5568 26.4203 11.5763 25.8313 11.0498L23.0012 13.88L30.1524 21.0313C30.7382 21.617 30.7382 22.5668 30.1524 23.1526C29.5666 23.7384 28.6168 23.7384 28.0311 23.1526L20.8799 16.0013L18.0498 18.8313C18.5763 19.4203 18.5568 20.3251 17.9912 20.8907C17.4054 21.4765 16.4557 21.4765 15.8699 20.8907L14.8799 19.9007L14.8695 19.8904L10.0801 15.101L10.0698 15.0906L8.93934 13.9601C8.35355 13.3743 8.35355 12.4246 8.93934 11.8388C9.52513 11.253 10.4749 11.253 11.0607 11.8388L11.1408 11.919L18.919 4.14086L18.8388 4.06066C18.253 3.47487 18.253 2.52513 18.8388 1.93934ZM21.0403 6.26218L23.7083 8.93021L15.9302 16.7083L13.2622 14.0403L21.0403 6.26218ZM2.5 29C2.5 28.1716 3.17157 27.5 4 27.5H6C5.17157 27.5 4.5 26.8284 4.5 26C4.5 25.1716 5.17157 24.5 6 24.5H15C15.8284 24.5 16.5 25.1716 16.5 26C16.5 26.8284 15.8284 27.5 15 27.5H17C17.8284 27.5 18.5 28.1716 18.5 29C18.5 29.8284 17.8284 30.5 17 30.5H4C3.17157 30.5 2.5 29.8284 2.5 29Z" fill="currentColor"/>
</svg>
