<svg width="32" height="32" viewBox="0 0 32 32" fill="none" xmlns="http://www.w3.org/2000/svg">
<path fill-rule="evenodd" clip-rule="evenodd" d="M4.9999 6.5C4.72376 6.5 4.4999 6.72386 4.4999 7V11.5H15.4999V6.5H4.9999ZM18.4999 6.5V11.5H27.4999V7C27.4999 6.72386 27.276 6.5 26.9999 6.5H18.4999ZM27.4999 14.5H18.4999V18H27.4999V14.5ZM27.4999 21H18.4999V24.5H26.9999C27.276 24.5 27.4999 24.2761 27.4999 24V21ZM15.4999 24.5V19.5V14.5H4.4999V24C4.4999 24.2761 4.72376 24.5 4.9999 24.5H15.4999ZM1.4999 7C1.4999 5.067 3.0669 3.5 4.9999 3.5H16.9999H26.9999C28.9329 3.5 30.4999 5.067 30.4999 7V13V19.5V24C30.4999 25.933 28.9329 27.5 26.9999 27.5H16.9999H4.9999C3.0669 27.5 1.4999 25.933 1.4999 24V13V7Z" fill="currentColor"/>
</svg>
