<svg width="32" height="32" viewBox="0 0 32 32" fill="none" xmlns="http://www.w3.org/2000/svg">
<path fill-rule="evenodd" clip-rule="evenodd" d="M17.5 5C17.5 4.17157 16.8284 3.5 16 3.5C15.1716 3.5 14.5 4.17157 14.5 5V16.3787L12.5607 14.4393C11.9749 13.8536 11.0251 13.8536 10.4393 14.4393C9.85355 15.0251 9.85355 15.9749 10.4393 16.5607L14.9394 21.0607C15.2207 21.342 15.6022 21.5 16 21.5C16.3978 21.5 16.7794 21.342 17.0607 21.0607L21.5607 16.5607C22.1464 15.9749 22.1464 15.0251 21.5607 14.4393C20.9749 13.8536 20.0251 13.8536 19.4393 14.4393L17.5 16.3787V5ZM6.5 20C6.5 19.1716 5.82843 18.5 5 18.5C4.17157 18.5 3.5 19.1716 3.5 20V26C3.5 26.8284 4.17157 27.5 5 27.5H27C27.8284 27.5 28.5 26.8284 28.5 26V20C28.5 19.1716 27.8284 18.5 27 18.5C26.1716 18.5 25.5 19.1716 25.5 20V24.5H6.5V20Z" fill="currentColor"/>
</svg>
