<svg width="32" height="32" viewBox="0 0 32 32" fill="none" xmlns="http://www.w3.org/2000/svg">
<path fill-rule="evenodd" clip-rule="evenodd" d="M27.9523 6.50047C28.7805 6.48004 29.4684 7.13484 29.4888 7.96302C29.5117 8.88994 29.5173 10.0595 29.3281 11.1504C29.1451 12.2049 28.7314 13.4869 27.6652 14.3228C26.9409 14.8906 26.1515 15.2202 25.3153 15.294C24.4923 15.3666 23.7311 15.1822 23.0639 14.8948C21.7898 14.3459 20.6303 13.311 19.7107 12.4717C19.6219 12.3906 19.5351 12.3112 19.4503 12.2336C18.556 11.4155 17.8803 10.7973 17.2675 10.4632C16.961 10.2961 16.8057 10.2811 16.7562 10.2827C16.756 10.2827 16.7556 10.2826 16.7551 10.2826C16.7452 10.2821 16.6791 10.2789 16.5278 10.4212C16.3999 10.5415 16.1779 10.901 16.511 12.1608C16.7948 13.2341 17.3522 14.4768 17.9841 15.8857C18.0544 16.0424 18.1256 16.2012 18.1975 16.362C18.8734 17.8747 19.6177 19.5933 19.8793 21.156C20.1482 22.7623 19.9599 24.6313 18.2398 25.8449C17.3786 26.4525 16.4193 26.6346 15.4644 26.4031C14.5941 26.1921 13.8521 25.668 13.2467 25.123C12.259 24.2337 11.2601 22.9252 10.3315 21.7088C10.1454 21.465 9.96209 21.225 9.7823 20.9927C8.62159 19.4933 7.55069 18.2356 6.47646 17.5348C5.9634 17.2002 5.51826 17.0405 5.12121 17.0088C4.74349 16.9787 4.30255 17.0549 3.76023 17.3738C3.04609 17.7937 2.12679 17.5551 1.70692 16.841C1.28705 16.1268 1.5256 15.2075 2.23974 14.7876C3.25925 14.1882 4.30875 13.9345 5.35981 14.0183C6.39152 14.1006 7.31347 14.499 8.11552 15.0222C9.67154 16.0372 11.023 17.6946 12.1546 19.1563C12.3707 19.4355 12.5787 19.7072 12.7799 19.97C13.7102 21.1852 14.4944 22.2095 15.2541 22.8935C15.7036 23.2982 16.0032 23.4469 16.1712 23.4876C16.2546 23.5078 16.3302 23.5206 16.5103 23.3936C16.8726 23.138 17.1007 22.7283 16.9204 21.6513C16.7328 20.5307 16.1624 19.1612 15.4585 17.5859C15.3866 17.4251 15.3132 17.2618 15.239 17.0967C14.6293 15.7407 13.962 14.2565 13.6107 12.9277C13.2343 11.5041 13.0382 9.58504 14.4722 8.2361C15.0943 7.65088 15.8356 7.31063 16.6601 7.2842C17.4398 7.2592 18.1368 7.52026 18.7035 7.82925C19.6617 8.35168 20.6265 9.2389 21.4411 9.98799C21.5408 10.0797 21.6382 10.1693 21.7331 10.2559C22.7099 11.1474 23.5132 11.8218 24.2508 12.1396C24.5894 12.2855 24.8464 12.3237 25.0516 12.3056C25.2436 12.2886 25.4925 12.2141 25.8144 11.9618C25.9976 11.8181 26.2314 11.4492 26.3722 10.6376C26.5067 9.86235 26.5123 8.95056 26.4898 8.037C26.4693 7.20883 27.1241 6.5209 27.9523 6.50047Z" fill="currentColor"/>
</svg>
