<svg width="32" height="32" viewBox="0 0 32 32" fill="none" xmlns="http://www.w3.org/2000/svg">
<path fill-rule="evenodd" clip-rule="evenodd" d="M24.1317 7.86827C19.6407 3.37724 12.3593 3.37724 7.86827 7.86827C3.37724 12.3593 3.37724 19.6407 7.86827 24.1317C12.3593 28.6228 19.6407 28.6228 24.1317 24.1317C28.6228 19.6407 28.6228 12.3593 24.1317 7.86827ZM5.74695 5.74695C11.4096 0.0843482 20.5904 0.0843506 26.253 5.74695C31.9156 11.4096 31.9157 20.5904 26.253 26.253C20.5904 31.9156 11.4096 31.9156 5.74695 26.253C0.0843494 20.5904 0.0843496 11.4096 5.74695 5.74695ZM21.5607 10.4393C22.1464 11.0251 22.1464 11.9749 21.5607 12.5607L18.1213 16L21.5607 19.4393C22.1464 20.0251 22.1464 20.9749 21.5607 21.5607C20.9749 22.1464 20.0251 22.1464 19.4393 21.5607L16 18.1213L12.5607 21.5607C11.9749 22.1464 11.0251 22.1464 10.4393 21.5607C9.85355 20.9749 9.85355 20.0251 10.4393 19.4393L13.8787 16L10.4393 12.5607C9.85355 11.9749 9.85355 11.0251 10.4393 10.4393C11.0251 9.85355 11.9749 9.85355 12.5607 10.4393L16 13.8787L19.4393 10.4393C20.0251 9.85355 20.9749 9.85355 21.5607 10.4393Z" fill="currentColor"/>
</svg>
