<svg width="32" height="32" viewBox="0 0 32 32" fill="none" xmlns="http://www.w3.org/2000/svg">
<path fill-rule="evenodd" clip-rule="evenodd" d="M4.93934 4.93934C5.52513 4.35355 6.47487 4.35355 7.06066 4.93934L16 13.8787L24.9393 4.93934C25.5251 4.35355 26.4749 4.35355 27.0607 4.93934C27.6464 5.52513 27.6464 6.47487 27.0607 7.06066L18.1213 16L27.0607 24.9393C27.6464 25.5251 27.6464 26.4749 27.0607 27.0607C26.4749 27.6464 25.5251 27.6464 24.9393 27.0607L16 18.1213L7.06066 27.0607C6.47487 27.6464 5.52513 27.6464 4.93934 27.0607C4.35355 26.4749 4.35355 25.5251 4.93934 24.9393L13.8787 16L4.93934 7.06066C4.35355 6.47487 4.35355 5.52513 4.93934 4.93934Z" fill="currentColor"/>
</svg>
