<svg width="32" height="32" viewBox="0 0 32 32" fill="none" xmlns="http://www.w3.org/2000/svg">
<path fill-rule="evenodd" clip-rule="evenodd" d="M10.5 8C10.5 6.89543 11.3954 6 12.5 6C13.6046 6 14.5 6.89543 14.5 8C14.5 9.10457 13.6046 10 12.5 10C11.3954 10 10.5 9.10457 10.5 8ZM12.5 3C9.73858 3 7.5 5.23858 7.5 8C7.5 10.7614 9.73858 13 12.5 13C15.2614 13 17.5 10.7614 17.5 8C17.5 5.23858 15.2614 3 12.5 3ZM28.6678 25.5H21H13.7973C14.6535 23.3492 17.3024 21.5 21 21.5C23.2017 21.5 25.2652 22.1938 26.7455 23.2653C27.6659 23.9316 28.3102 24.7 28.6678 25.5ZM30.5 28.5H21H12H1.5C0.671573 28.5 0 27.8284 0 27C0 24.4387 1.44677 21.33 3.84981 18.8987C6.29812 16.4215 9.87664 14.5 14.3333 14.5C15.1618 14.5 15.8333 15.1716 15.8333 16C15.8333 16.8284 15.1618 17.5 14.3333 17.5C10.79 17.5 7.95188 19.016 5.98352 21.0075C4.53985 22.4682 3.63267 24.1108 3.23479 25.5H10.6553C11.5427 21.2996 16.103 18.5 21 18.5C23.7983 18.5 26.4848 19.3732 28.5045 20.8352C30.5163 22.2914 32 24.4472 32 27C32 27.8284 31.3284 28.5 30.5 28.5ZM20.5 13C20.5 12.4477 20.9477 12 21.5 12C22.0523 12 22.5 12.4477 22.5 13C22.5 13.5523 22.0523 14 21.5 14C20.9477 14 20.5 13.5523 20.5 13ZM21.5 9C19.2909 9 17.5 10.7909 17.5 13C17.5 15.2091 19.2909 17 21.5 17C23.7091 17 25.5 15.2091 25.5 13C25.5 10.7909 23.7091 9 21.5 9Z" fill="currentColor"/>
</svg>
