<svg width="32" height="32" viewBox="0 0 32 32" fill="none" xmlns="http://www.w3.org/2000/svg">
<path fill-rule="evenodd" clip-rule="evenodd" d="M29.4974 5.42134C29.5226 4.99362 29.3636 4.57556 29.0607 4.27259C28.7577 3.96963 28.3396 3.81068 27.9119 3.83584L19.898 4.30726C19.071 4.3559 18.4401 5.06575 18.4887 5.89275C18.5374 6.71975 19.2472 7.35073 20.0742 7.30208L24.1496 7.06235L14.9393 16.2726C14.3536 16.8584 14.3536 17.8081 14.9393 18.3939C15.5251 18.9797 16.4749 18.9797 17.0607 18.3939L26.2709 9.18366L26.0312 13.2591C25.9825 14.0861 26.6135 14.7959 27.4405 14.8446C28.2675 14.8932 28.9774 14.2622 29.026 13.4352L29.4974 5.42134ZM15.0607 10.0606C15.6464 9.4748 15.6464 8.52506 15.0607 7.93927C14.4749 7.35348 13.5251 7.35348 12.9393 7.93927L2.93934 17.9393C2.35355 18.5251 2.35355 19.4748 2.93934 20.0606C3.52513 20.6464 4.47487 20.6464 5.06066 20.0606L15.0607 10.0606ZM11.7273 23.7272C12.3131 23.1415 12.3131 22.1917 11.7273 21.6059C11.1415 21.0201 10.1918 21.0201 9.60601 21.6059L5.60601 25.6059C5.02022 26.1917 5.02022 27.1415 5.60601 27.7272C6.19179 28.313 7.14154 28.313 7.72733 27.7272L11.7273 23.7272ZM25.0607 18.9393C25.6464 19.525 25.6464 20.4748 25.0607 21.0606L18.0606 28.0606C17.4749 28.6464 16.5251 28.6464 15.9393 28.0606C15.3535 27.4748 15.3535 26.525 15.9393 25.9392L22.9393 18.9392C23.5251 18.3535 24.4749 18.3535 25.0607 18.9393Z" fill="currentColor"/>
</svg>
