<svg width="32" height="32" viewBox="0 0 32 32" fill="none" xmlns="http://www.w3.org/2000/svg">
<path d="M15.0842 4.08753C15.4342 3.28983 16.5658 3.28983 16.9158 4.08753L19.9249 10.9472C20.0665 11.2698 20.3674 11.4942 20.717 11.5378L27.9337 12.4374C28.766 12.5412 29.1084 13.5619 28.5071 14.1467L23.1053 19.3992C22.8647 19.6332 22.7575 19.9721 22.8198 20.3019L24.2433 27.8348C24.4028 28.679 23.4939 29.3181 22.7535 28.8823L16.5072 25.206C16.1942 25.0217 15.8058 25.0217 15.4928 25.206L9.24652 28.8823C8.50612 29.3181 7.59715 28.679 7.75668 27.8348L9.18021 20.3019C9.24252 19.9721 9.13531 19.6332 8.89473 19.3992L3.49291 14.1467C2.89153 13.5619 3.23397 12.5412 4.06633 12.4374L11.283 11.5378C11.6326 11.4942 11.9335 11.2698 12.0751 10.9472C13.0781 8.66062 14.0812 6.37407 15.0842 4.08753Z" fill="currentColor"/>
</svg>
