<svg width="32" height="32" viewBox="0 0 32 32" fill="none" xmlns="http://www.w3.org/2000/svg">
<path fill-rule="evenodd" clip-rule="evenodd" d="M16.5939 0.622579C16.2149 0.45914 15.7852 0.45914 15.4061 0.622579L2.41807 6.22258C1.88843 6.45094 1.53664 6.96276 1.51321 7.53906L3.01197 7.6C1.51321 7.53906 1.5132 7.53938 1.51318 7.53973L1.51315 7.54061L1.51305 7.54297L1.51278 7.55012L1.51192 7.57399C1.51123 7.59412 1.51031 7.62261 1.50929 7.65907C1.50726 7.73198 1.50481 7.83682 1.50295 7.97051C1.49922 8.23777 1.49779 8.62087 1.50657 9.09486C1.5241 10.0413 1.58249 11.3581 1.74646 12.8434C2.06859 15.7617 2.81894 19.5437 4.6313 22.403C6.3124 25.0553 9.03504 27.2927 11.2291 28.8273C12.3434 29.6066 13.3576 30.2294 14.0946 30.6583C14.4637 30.873 14.7646 31.0399 14.9756 31.1543C15.0811 31.2115 15.1642 31.2557 15.2222 31.2861L15.29 31.3215L15.3091 31.3314L15.3149 31.3344L15.3168 31.3354L15.3175 31.3357C15.3178 31.3359 15.3181 31.336 16 30L15.3181 31.336C15.7465 31.5547 16.2537 31.5547 16.6821 31.336C16.7186 31.3173 18.5509 30.3803 20.7736 28.8255C22.9672 27.291 25.6884 25.0543 27.3688 22.403C29.1812 19.5437 29.9315 15.7617 30.2536 12.8434C30.4176 11.358 30.476 10.0413 30.4935 9.09485C30.5023 8.62086 30.5008 8.23776 30.4971 7.9705C30.4952 7.83681 30.4928 7.73196 30.4908 7.65905C30.4897 7.6226 30.4888 7.59411 30.4881 7.57398L30.4873 7.55011L30.487 7.54296L30.4869 7.5406L30.4869 7.53972C30.4869 7.53937 30.4868 7.53905 28.9881 7.6L30.4868 7.53905C30.4634 6.96275 30.1116 6.45094 29.582 6.22258L16.5939 0.622579ZM4.50605 9.03929C4.50306 8.87774 4.50136 8.72812 4.50057 8.59165L16 3.63349L27.4995 8.59166C27.4987 8.72812 27.497 8.87774 27.494 9.0393C27.4778 9.91734 27.4234 11.1401 27.2717 12.5143C26.9626 15.3153 26.2698 18.5333 24.8349 20.797C23.4773 22.9388 21.1503 24.9007 19.0539 26.3672C17.7987 27.2453 16.6791 27.9097 16 28.2926C15.8808 28.2254 15.7481 28.1495 15.6034 28.0653C14.9212 27.6684 13.9799 27.0903 12.9486 26.3689C10.8516 24.9023 8.52335 22.9397 7.16517 20.797C5.73033 18.5332 5.03754 15.3153 4.72835 12.5143C4.57665 11.1401 4.52232 9.91733 4.50605 9.03929ZM23.7038 10.9933L16.7022 8.04092C16.3706 7.90111 16 8.13679 16 8.48744V23C16 23.3694 16.4109 23.6148 16.7418 23.4318C18.0112 22.7295 20.5846 21.1275 21.8418 19.0773C23.3626 16.5971 23.8703 12.5787 23.997 11.4756C24.0208 11.2689 23.9004 11.0762 23.7038 10.9933Z" fill="currentColor"/>
</svg>
