<svg width="32" height="32" viewBox="0 0 32 32" fill="none" xmlns="http://www.w3.org/2000/svg">
<path fill-rule="evenodd" clip-rule="evenodd" d="M15.2178 29.2799C14.5109 28.8479 14.2881 27.9247 14.7201 27.2178L21.073 16.8221L8.20267 18.5771C7.62884 18.6554 7.06123 18.3963 6.74439 17.9115C6.42755 17.4267 6.41809 16.8029 6.72008 16.3087L14.7201 3.2178C15.1521 2.51091 16.0753 2.28807 16.7822 2.72005C17.4891 3.15203 17.7119 4.07526 17.2799 4.78215L10.927 15.1779L23.7973 13.4228C24.3712 13.3446 24.9388 13.6036 25.2556 14.0884C25.5724 14.5732 25.5819 15.1971 25.2799 15.6912L17.2799 28.7821C16.8479 29.489 15.9247 29.7119 15.2178 29.2799Z" fill="currentColor"/>
</svg>
