<svg width="32" height="32" viewBox="0 0 32 32" fill="none" xmlns="http://www.w3.org/2000/svg">
<path fill-rule="evenodd" clip-rule="evenodd" d="M17.5001 3.00017C17.5001 2.17175 16.8285 1.50015 16.0001 1.50012C15.1717 1.50009 14.5001 2.17164 14.5001 3.00007L14.4999 6.25007C14.4999 7.0785 15.1715 7.75009 15.9999 7.75012C16.8283 7.75015 17.4999 7.0786 17.4999 6.25017L17.5001 3.00017ZM3.00006 14.5001C2.17163 14.5001 1.50006 15.1717 1.50006 16.0001C1.50006 16.8285 2.17163 17.5001 3.00006 17.5001H6.24994C7.07837 17.5001 7.74994 16.8286 7.74995 16.0001C7.74995 15.1717 7.07837 14.5001 6.24995 14.5001L3.00006 14.5001ZM25.7499 14.5001C24.9215 14.5001 24.2499 15.1717 24.2499 16.0001C24.2499 16.8285 24.9215 17.5001 25.7499 17.5001H29.0001C29.8285 17.5001 30.5001 16.8285 30.5001 16.0001C30.5001 15.1717 29.8285 14.5001 29.0001 14.5001H25.7499ZM17.4999 25.7501C17.4999 24.9216 16.8283 24.2501 15.9999 24.2501C15.1715 24.2502 14.4999 24.9217 14.4999 25.7502L14.5001 29.0002C14.5001 29.8286 15.1717 30.5002 16.0001 30.5001C16.8285 30.5001 17.5001 29.8285 17.5001 29.0001L17.4999 25.7501ZM7.06072 4.93946C6.47493 4.35368 5.52519 4.35368 4.9394 4.93946C4.35361 5.52525 4.35361 6.475 4.9394 7.06078L13.8787 16.0001L4.9394 24.9395C4.35362 25.5252 4.35362 26.475 4.9394 27.0608C5.52519 27.6466 6.47494 27.6466 7.06072 27.0608L16.0001 18.1214L24.9394 27.0608C25.5252 27.6466 26.4749 27.6466 27.0607 27.0608C27.6465 26.475 27.6465 25.5252 27.0607 24.9395L18.1214 16.0001L27.0607 7.06078C27.6465 6.475 27.6465 5.52525 27.0607 4.93946C26.4749 4.35368 25.5252 4.35368 24.9394 4.93946L16.0001 13.8788L7.06072 4.93946Z" fill="currentColor"/>
</svg>
