<svg width="32" height="32" viewBox="0 0 32 32" fill="none" xmlns="http://www.w3.org/2000/svg">
<path fill-rule="evenodd" clip-rule="evenodd" d="M5.49192 10.1787C7.2299 7.94039 9.94674 6.5 13 6.5H21.8333V9.35933C21.8333 12.0143 19.681 14.1667 17.026 14.1667H14.7806C13.9486 14.1667 13.1834 14.3714 12.5197 14.7261L5.49192 10.1787ZM4.04647 12.8167C3.69263 13.8119 3.5 14.8834 3.5 16C3.5 17.222 3.73073 18.3901 4.15101 19.4632L9.98681 18.6295C10.0291 18.0402 10.1812 17.4698 10.4263 16.9448L4.04647 12.8167ZM13 25.5C10.1471 25.5 7.58792 24.2425 5.84653 22.2514L10.7366 21.5529C10.8802 21.7773 11.0423 21.9897 11.2216 22.1878L14.2193 25.5H13ZM28.5 11.6667C28.5 9.33486 26.9553 7.36385 24.8333 6.72111V9.35933C24.8333 13.6712 21.3379 17.1667 17.026 17.1667H14.7806C13.4637 17.1667 12.5926 18.5343 13.1492 19.7277C13.2252 19.8907 13.3252 20.0414 13.4459 20.1747L17.6 24.7646L20.2212 21.8685C20.7771 21.2542 21.7257 21.207 22.3399 21.7629C22.9541 22.3188 23.0014 23.2673 22.4455 23.8815L20.9807 25.5H24C24.8284 25.5 25.5 26.1716 25.5 27C25.5 27.8284 24.8284 28.5 24 28.5H17.6H13C6.09644 28.5 0.5 22.9036 0.5 16C0.5 9.09644 6.09644 3.5 13 3.5H23.3333C27.8437 3.5 31.5 7.15634 31.5 11.6667V15C31.5 15.8284 30.8284 16.5 30 16.5C29.1716 16.5 28.5 15.8284 28.5 15V11.6667ZM16.5 11C17.3284 11 18 10.3284 18 9.5C18 8.67157 17.3284 8 16.5 8C15.6716 8 15 8.67157 15 9.5C15 10.3284 15.6716 11 16.5 11Z" fill="currentColor"/>
</svg>
