<svg width="32" height="32" viewBox="0 0 32 32" fill="none" xmlns="http://www.w3.org/2000/svg">
<path fill-rule="evenodd" clip-rule="evenodd" d="M22.4672 1.53272C23.3992 2.46466 23.7263 3.84031 23.341 5.20852C23.2111 5.66973 23.006 6.10525 22.7408 6.49997H26C28.4853 6.49997 30.5 8.51469 30.5 11V15.9948V16.0044V25C30.5 27.4853 28.4853 29.5 26 29.5H6C3.51472 29.5 1.5 27.4853 1.5 25V21.0046V20.9958V11C1.5 8.51469 3.51472 6.49997 6 6.49997H9.25925C8.99398 6.10525 8.78886 5.66973 8.65899 5.20852C8.27371 3.84031 8.60082 2.46466 9.53275 1.53272C10.4647 0.600793 11.8403 0.273679 13.2085 0.658961L12.8532 1.92071L13.2085 0.658961C14.3945 0.99291 15.4105 1.82434 16 2.89663C16.5895 1.82434 17.6055 0.99291 18.7915 0.658961L19.1468 1.92071L18.7915 0.658961C20.1597 0.273679 21.5353 0.600793 22.4672 1.53272ZM20.3459 3.65405C20.2493 3.55742 20.0237 3.42863 19.6046 3.54665C19.0962 3.68982 18.645 4.14104 18.5018 4.64944L18.1692 5.83081L19.3505 5.49814C19.8589 5.35498 20.3102 4.90376 20.4533 4.39536C20.5713 3.97624 20.4426 3.75067 20.3459 3.65405ZM27.5 15.3432V11C27.5 10.1715 26.8284 9.49997 26 9.49997H17.5889L4.5 21.654V25C4.5 25.8284 5.17157 26.5 6 26.5H15.4135L27.5 15.3432ZM19.8364 26.5H26C26.8284 26.5 27.5 25.8284 27.5 25V19.4259L19.8364 26.5ZM4.5 17.56L13.1801 9.49997H6C5.17157 9.49997 4.5 10.1715 4.5 11V17.56ZM12.3954 3.54665C11.9763 3.42863 11.7507 3.55742 11.6541 3.65405C11.5574 3.75067 11.4287 3.97624 11.5467 4.39536C11.6898 4.90376 12.1411 5.35498 12.6495 5.49814L13.8308 5.83081L13.4982 4.64944C13.355 4.14104 12.9038 3.68982 12.3954 3.54665Z" fill="currentColor"/>
</svg>
