<svg width="32" height="32" viewBox="0 0 32 32" fill="none" xmlns="http://www.w3.org/2000/svg">
<path fill-rule="evenodd" clip-rule="evenodd" d="M22.9685 7.09239C21.0918 5.90191 18.6215 6.54105 17.4468 8.77661L12.5447 18.1058C12.1593 18.8391 11.2524 19.1212 10.5191 18.7359C9.78575 18.3506 9.50364 17.4437 9.88898 16.7103L14.7911 7.38115C16.7105 3.7283 21.093 2.34992 24.5755 4.55911L27.0015 6.09803C30.3897 8.24743 31.4591 12.8883 29.5764 16.4712L24.6743 25.8004C24.2889 26.5337 23.3821 26.8158 22.6487 26.4305C21.9154 26.0451 21.6333 25.1382 22.0186 24.4049L26.9207 15.0757C28.1322 12.7702 27.3653 9.88158 25.3944 8.63131L22.9685 7.09239ZM9.35147 5.56957C10.0848 5.95492 10.3669 6.8618 9.98159 7.59515L5.07946 16.9243C3.86801 19.2298 4.63484 22.1185 6.60575 23.3687L9.03168 24.9077C10.9083 26.0981 13.3787 25.459 14.5534 23.2234L19.4555 13.8943C19.8409 13.1609 20.7477 12.8788 21.4811 13.2641C22.2144 13.6495 22.4966 14.5564 22.1112 15.2897L17.2091 24.6189C15.2896 28.2717 10.9072 29.6501 7.42466 27.4409L4.99874 25.902C1.61045 23.7526 0.541077 19.1118 2.42377 15.5289L7.3259 6.19969C7.71124 5.46634 8.61813 5.18423 9.35147 5.56957Z" fill="currentColor"/>
</svg>
