<svg width="32" height="32" viewBox="0 0 32 32" fill="none" xmlns="http://www.w3.org/2000/svg">
<path fill-rule="evenodd" clip-rule="evenodd" d="M16.0286 3C12.3474 3 9.20752 5.66372 8.60279 9.29558L8.52021 9.79153C8.38414 10.6087 8.93629 11.3815 9.75347 11.5175C10.5706 11.6536 11.3434 11.1015 11.4795 10.2843L11.562 9.78832C11.9262 7.60121 13.8161 6 16.0286 6H16.1249C17.93 6 19.5517 7.10721 20.2101 8.79149C21.2462 11.4419 19.3832 14.7045 16.6287 15.122L15.3687 15.313L15.5935 16.7961L15.3687 15.313C14.2968 15.4755 13.5064 16.3971 13.5064 17.4795V20C13.5064 20.8284 14.1779 21.5 15.0064 21.5C15.8348 21.5 16.5064 20.8284 16.5064 20V18.1748L17.0784 18.0881C21.7906 17.3738 24.72 12.0881 23.0042 7.6992C21.8965 4.86568 19.1666 3 16.1249 3H16.0286ZM13 27C13 28.104 13.896 29 15 29C16.104 29 17 28.104 17 27C17 25.896 16.104 25 15 25C13.896 25 13 25.896 13 27Z" fill="currentColor"/>
</svg>
