<svg width="32" height="32" viewBox="0 0 32 32" fill="none" xmlns="http://www.w3.org/2000/svg">
<path fill-rule="evenodd" clip-rule="evenodd" d="M14.0499 6.95186C12.0884 5.00999 8.92409 5.01607 6.97008 6.97008L5.90942 5.90942L6.97008 6.97008C5.00997 8.93018 5.00997 12.1081 6.97008 14.0682L9.73592 16.8341C10.3217 17.4199 10.3217 18.3696 9.73592 18.9554C9.15013 19.5412 8.20039 19.5412 7.6146 18.9554L4.84876 16.1896C1.71708 13.0579 1.71708 7.98044 4.84875 4.84876C7.98043 1.71708 13.0579 1.71708 16.1896 4.84876C16.2026 4.86177 16.2153 4.87502 16.2279 4.8885L19.099 7.97908C19.6628 8.58602 19.6279 9.53513 19.0209 10.099C18.414 10.6628 17.4649 10.6279 16.901 10.0209L14.0499 6.95186ZM9.25513 9.25513C9.84092 8.66934 10.7907 8.66934 11.3764 9.25513L22.7449 20.6236C23.3307 21.2093 23.3307 22.1591 22.7449 22.7449C22.1591 23.3307 21.2093 23.3307 20.6236 22.7449L9.25513 11.3765C8.66934 10.7907 8.66934 9.84092 9.25513 9.25513ZM22.2641 13.0446C22.8499 12.4588 23.7996 12.4588 24.3854 13.0446L27.1512 15.8104C30.2829 18.9421 30.2829 24.0196 27.1512 27.1512C24.0196 30.2829 18.9421 30.2829 15.8104 27.1512L13.0446 24.3854C12.4588 23.7996 12.4588 22.8499 13.0446 22.2641C13.6304 21.6783 14.5801 21.6783 15.1659 22.2641L17.9318 25.0299C19.8919 26.99 23.0698 26.99 25.0299 25.0299C26.99 23.0698 26.99 19.8919 25.0299 17.9318L22.2641 15.1659C21.6783 14.5801 21.6783 13.6304 22.2641 13.0446Z" fill="currentColor"/>
</svg>
