<svg width="32" height="32" viewBox="0 0 32 32" fill="none" xmlns="http://www.w3.org/2000/svg">
<path fill-rule="evenodd" clip-rule="evenodd" d="M24.1317 7.86827C19.6407 3.37724 12.3593 3.37724 7.86827 7.86827C3.37724 12.3593 3.37724 19.6407 7.86827 24.1317C12.3593 28.6228 19.6407 28.6228 24.1317 24.1317C28.6228 19.6407 28.6228 12.3593 24.1317 7.86827ZM5.74695 5.74695C11.4096 0.0843483 20.5904 0.0843507 26.253 5.74695C31.9156 11.4096 31.9157 20.5904 26.253 26.253C20.5904 31.9156 11.4096 31.9156 5.74695 26.253C0.0843494 20.5904 0.0843496 11.4096 5.74695 5.74695ZM16 15.5C16.8284 15.5 17.5 16.1716 17.5 17V23C17.5 23.8284 16.8284 24.5 16 24.5C15.1716 24.5 14.5 23.8284 14.5 23V17C14.5 16.1716 15.1716 15.5 16 15.5ZM16 13C17.1046 13 18 12.1046 18 11C18 9.89543 17.1046 9 16 9C14.8954 9 14 9.89543 14 11C14 12.1046 14.8954 13 16 13Z" fill="currentColor"/>
</svg>
