<svg width="32" height="32" viewBox="0 0 32 32" fill="none" xmlns="http://www.w3.org/2000/svg">
<path fill-rule="evenodd" clip-rule="evenodd" d="M30 15.9999C30 23.7319 23.732 29.9999 16 29.9999C8.26798 29.9999 1.99997 23.7319 1.99997 15.9999C1.99997 8.26795 8.26798 1.99994 16 1.99994C23.732 1.99994 30 8.26795 30 15.9999ZM16 15.5C16.8284 15.5 17.5 16.1716 17.5 17V23C17.5 23.8284 16.8284 24.5 16 24.5C15.1716 24.5 14.5 23.8284 14.5 23V17C14.5 16.1716 15.1716 15.5 16 15.5ZM16 13C17.1046 13 18 12.1046 18 11C18 9.89543 17.1046 9 16 9C14.8954 9 14 9.89543 14 11C14 12.1046 14.8954 13 16 13Z" fill="currentColor"/>
</svg>
