<svg width="32" height="32" viewBox="0 0 32 32" fill="none" xmlns="http://www.w3.org/2000/svg">
<path fill-rule="evenodd" clip-rule="evenodd" d="M20.737 1.87062C21.3192 2.3795 21.4191 3.24755 20.9678 3.87545L16.3203 10.3418L26.5769 14.6154C27.0457 14.8107 27.3839 15.23 27.4754 15.7296C27.567 16.2291 27.3996 16.7411 27.0305 17.09L13.2804 30.09C12.7186 30.6212 11.8449 30.6383 11.2627 30.1294C10.6806 29.6205 10.5806 28.7524 11.0319 28.1245L15.6797 21.6582L5.4231 17.3846C4.95429 17.1893 4.61617 16.77 4.5246 16.2705C4.43303 15.7709 4.60046 15.259 4.96949 14.91L18.7193 1.91005C19.2812 1.37882 20.1548 1.36175 20.737 1.87062ZM19.5596 20.0248L23.2915 16.4965L13.4231 12.3846L12.4404 11.9752L8.70848 15.5035L18.5769 19.6154L19.5596 20.0248Z" fill="currentColor"/>
</svg>
