<svg width="32" height="32" viewBox="0 0 32 32" fill="none" xmlns="http://www.w3.org/2000/svg">
<path fill-rule="evenodd" clip-rule="evenodd" d="M8.53783 14.5H4.59694C5.08334 10.766 7.36091 7.59478 10.5393 5.87669C10.4904 5.97639 10.4424 6.07719 10.3954 6.17903C9.29293 8.56775 8.68866 11.5187 8.53783 14.5ZM8.53783 17.5H4.59694C5.08334 21.234 7.36091 24.4052 10.5393 26.1233C10.4904 26.0236 10.4424 25.9228 10.3954 25.821C9.29293 23.4322 8.68866 20.4813 8.53783 17.5ZM21.4607 26.1233C24.6391 24.4052 26.9167 21.234 27.4031 17.5H23.4622C23.3113 20.4813 22.7071 23.4322 21.6046 25.821C21.5576 25.9228 21.5096 26.0236 21.4607 26.1233ZM20.4579 17.5C20.3093 20.1385 19.7694 22.6383 18.8807 24.5638C17.7861 26.9354 16.6343 27.5 16 27.5C15.3657 27.5 14.2139 26.9354 13.1193 24.5638C12.2306 22.6383 11.6907 20.1385 11.5421 17.5H20.4579ZM20.4579 14.5H11.5421C11.6907 11.8615 12.2306 9.36169 13.1193 7.4362C14.2139 5.06459 15.3657 4.5 16 4.5C16.6343 4.5 17.7861 5.06459 18.8807 7.4362C19.7694 9.36169 20.3093 11.8615 20.4579 14.5ZM23.4622 14.5H27.4031C26.9167 10.766 24.6391 7.59477 21.4607 5.87669C21.5096 5.97638 21.5576 6.07719 21.6046 6.17903C22.7071 8.56775 23.3113 11.5187 23.4622 14.5ZM16 1.5C7.99187 1.5 1.5 7.99187 1.5 16C1.5 24.0081 7.99187 30.5 16 30.5C24.0081 30.5 30.5 24.0081 30.5 16C30.5 7.99187 24.0081 1.5 16 1.5Z" fill="currentColor"/>
</svg>
