<svg width="32" height="32" viewBox="0 0 32 32" fill="none" xmlns="http://www.w3.org/2000/svg">
<path fill-rule="evenodd" clip-rule="evenodd" d="M25.1667 27.5C24.3383 27.5 23.6667 26.8284 23.6667 26C23.6667 25.1716 24.3383 24.5 25.1667 24.5H25.4086C25.3917 24.282 25.3719 24.0454 25.3488 23.7932C25.223 22.4214 25.0008 20.6102 24.6166 18.8138C24.2273 16.9938 23.6943 15.3001 22.9958 14.0969C22.2832 12.8695 21.62 12.5001 21.0417 12.5001C20.6383 12.5001 20.1761 12.6839 19.5573 13.224C18.9482 13.7557 18.3595 14.4752 17.6538 15.3378L17.6538 15.3378L17.5619 15.4502C16.8591 16.3089 16.0368 17.3038 15.09 18.0715C14.1205 18.8578 12.9082 19.5003 11.4167 19.5003C9.50113 19.5003 8.04969 18.4862 7.01866 17.2357C6.00408 16.0051 5.29656 14.4376 4.79976 12.9858C4.29687 11.5161 3.97592 10.0624 3.78072 8.98656C3.68261 8.44576 3.61507 7.99367 3.57176 7.67407C3.55009 7.51412 3.53443 7.38697 3.52402 7.29803C3.51881 7.25354 3.5149 7.21859 3.51221 7.19383L3.50906 7.16442L3.50814 7.15561L3.50785 7.1527L3.50774 7.15162C3.50769 7.15119 3.50765 7.1508 5.00005 6.99999L3.50765 7.1508C3.42437 6.32657 4.02502 5.59088 4.84925 5.50759C5.67329 5.42432 6.40882 6.02468 6.4924 6.84861L6.49245 6.84919L6.4927 6.85151L6.4946 6.86927C6.49644 6.88614 6.49942 6.91295 6.50365 6.94904C6.5121 7.02123 6.52551 7.13041 6.54459 7.27126C6.5828 7.55323 6.64355 7.96054 6.73253 8.45102C6.91154 9.43769 7.20005 10.7341 7.63819 12.0145C8.08242 13.3127 8.6475 14.4953 9.3334 15.3273C10.0028 16.1393 10.6798 16.5003 11.4167 16.5003C11.9878 16.5003 12.5515 16.2677 13.2004 15.7415C13.8722 15.1967 14.5108 14.4415 15.2403 13.5502L15.3863 13.3715C16.0372 12.5746 16.7772 11.6685 17.5847 10.9637C18.4698 10.1913 19.6118 9.5001 21.0417 9.5001C23.2134 9.5001 24.67 11.0057 25.5903 12.5907C26.5246 14.2001 27.1374 16.2563 27.5502 18.1863C27.9681 20.1399 28.2042 22.0786 28.3362 23.5193C28.4025 24.2423 28.4431 24.8457 28.4672 25.2705C28.4793 25.483 28.4872 25.6511 28.4922 25.7674L28.4963 25.8694L28.4976 25.9023L28.4989 25.9389L28.4992 25.9493L28.4993 25.9524L28.4993 25.9535C28.4994 25.9539 28.4994 25.9542 27.0001 26L28.4994 25.9542C28.5118 26.3598 28.3593 26.7531 28.0768 27.0443C27.7943 27.3356 27.4058 27.5 27.0001 27.5H25.1667ZM19 24.5C18.1716 24.5 17.5 25.1716 17.5 26C17.5 26.8284 18.1716 27.5 19 27.5H20C20.8284 27.5 21.5 26.8284 21.5 26C21.5 25.1716 20.8284 24.5 20 24.5H19ZM10.5 26C10.5 25.1716 11.1716 24.5 12 24.5H13C13.8284 24.5 14.5 25.1716 14.5 26C14.5 26.8284 13.8284 27.5 13 27.5H12C11.1716 27.5 10.5 26.8284 10.5 26ZM5 24.5C4.17157 24.5 3.5 25.1716 3.5 26C3.5 26.8284 4.17157 27.5 5 27.5H6C6.82843 27.5 7.5 26.8284 7.5 26C7.5 25.1716 6.82843 24.5 6 24.5H5Z" fill="currentColor"/>
</svg>
