<svg width="32" height="32" viewBox="0 0 32 32" fill="none" xmlns="http://www.w3.org/2000/svg">
<path fill-rule="evenodd" clip-rule="evenodd" d="M26.1958 2.51284C26.6582 2.5737 27.0659 2.84612 27.2991 3.24995L31.5714 10.6491C31.9856 11.3665 31.7399 12.2839 31.0225 12.6981C30.305 13.1124 29.3876 12.8666 28.9734 12.1492L27.0376 8.79661C26.8568 10.2005 26.6113 11.8017 26.2826 13.423C25.8048 15.7801 25.1353 18.262 24.1912 20.2523C23.2963 22.1389 21.9181 24.085 19.7683 24.4758C17.8541 24.8239 16.3581 24.1785 15.2173 23.1109C14.1658 22.127 13.3899 20.7592 12.7496 19.6006C12.6902 19.4929 12.6317 19.3868 12.5741 19.2823C11.961 18.1695 11.4445 17.2321 10.837 16.5223C10.2166 15.7975 9.65992 15.5 8.99999 15.5C8.46229 15.5 7.79031 15.8457 7.00796 16.9163C6.24605 17.9589 5.58553 19.4219 5.04249 20.9907C4.50591 22.5408 4.11432 24.1041 3.85624 25.2882C3.72771 25.8779 3.63345 26.3683 3.57166 26.709C3.54079 26.8793 3.51808 27.0119 3.5033 27.1006C3.49591 27.1449 3.49051 27.1783 3.48707 27.1998L3.48337 27.2231L3.48261 27.2279L3.48259 27.2281L3.48252 27.2285C3.35637 28.0471 2.59061 28.6085 1.77194 28.4826C0.953151 28.3566 0.391503 27.5907 0.51747 26.7719L2.00003 27C0.51747 26.7719 0.51752 26.7716 0.517577 26.7712L0.51773 26.7702L0.518176 26.7674L0.519625 26.7581L0.524768 26.7257C0.529198 26.698 0.535637 26.6583 0.544118 26.6074C0.561077 26.5057 0.586217 26.359 0.619795 26.1738C0.686911 25.8036 0.787961 25.2784 0.925053 24.6493C1.19822 23.396 1.61912 21.7092 2.20753 20.0094C2.78949 18.3282 3.56646 16.5411 4.58579 15.1463C5.58469 13.7793 7.0377 12.5 8.99999 12.5C10.8401 12.5 12.1584 13.4526 13.1161 14.5715C13.9376 15.5313 14.6071 16.7509 15.1847 17.8029C15.2494 17.9207 15.3129 18.0365 15.3754 18.1495C16.0475 19.3659 16.6154 20.3106 17.2671 20.9204C17.8294 21.4466 18.3959 21.6762 19.2317 21.5242C19.8319 21.4151 20.6412 20.7362 21.4807 18.9665C22.271 17.3006 22.8827 15.0949 23.3424 12.827C23.6857 11.1335 23.9354 9.45098 24.1132 8.00816L21.0606 11.0607C20.4749 11.6465 19.5251 11.6465 18.9393 11.0607C18.3535 10.4749 18.3535 9.52516 18.9393 8.93938L24.9394 2.93935C25.2692 2.60961 25.7335 2.45198 26.1958 2.51284Z" fill="currentColor"/>
</svg>
