<svg width="32" height="32" viewBox="0 0 32 32" fill="none" xmlns="http://www.w3.org/2000/svg">
<path fill-rule="evenodd" clip-rule="evenodd" d="M19.5 5.5C19.5 6.32843 20.1716 7 21 7H22.8787L14.9393 14.9393C14.3536 15.5251 14.3536 16.4749 14.9393 17.0607C15.5251 17.6464 16.4749 17.6464 17.0607 17.0607L25 9.12132V11C25 11.8284 25.6716 12.5 26.5 12.5C27.3284 12.5 28 11.8284 28 11V5.5C28 4.67157 27.3284 4 26.5 4H21C20.1716 4 19.5 4.67157 19.5 5.5ZM6 6.5C5.17157 6.5 4.5 7.17157 4.5 8V26C4.5 26.8284 5.17157 27.5 6 27.5H24C24.8284 27.5 25.5 26.8284 25.5 26V20C25.5 19.1716 24.8284 18.5 24 18.5C23.1716 18.5 22.5 19.1716 22.5 20V24.5H7.5V9.5H12C12.8284 9.5 13.5 8.82843 13.5 8C13.5 7.17157 12.8284 6.5 12 6.5H6Z" fill="currentColor"/>
</svg>
