<svg width="32" height="32" viewBox="0 0 32 32" fill="none" xmlns="http://www.w3.org/2000/svg">
<path fill-rule="evenodd" clip-rule="evenodd" d="M1.5 4C1.5 2.61929 2.61929 1.5 4 1.5H27C28.3807 1.5 29.5 2.61929 29.5 4V8C29.5 8.82843 28.8284 9.5 28 9.5C27.1716 9.5 26.5 8.82843 26.5 8V4.5H4.5V19H8.5C9.32843 19 10 19.6716 10 20.5C10 21.3284 9.32843 22 8.5 22H4C2.61929 22 1.5 20.8807 1.5 19.5V4ZM22 13.5C20.5437 13.5 19.1455 14.0813 18.1135 15.1184C17.0812 16.1558 16.5 17.5643 16.5 19.0345C16.5 20.7909 17.4436 22.7148 18.7696 24.5014C19.8823 26.0005 21.1519 27.2535 22 28.0233C22.8481 27.2535 24.1177 26.0005 25.2304 24.5014C26.5564 22.7148 27.5 20.7909 27.5 19.0345C27.5 17.5643 26.9188 16.1558 25.8865 15.1184C24.8545 14.0813 23.4563 13.5 22 13.5ZM15.987 13.0023C17.5805 11.401 19.7433 10.5 22 10.5C24.2567 10.5 26.4195 11.401 28.013 13.0023C29.6062 14.6034 30.5 16.7734 30.5 19.0345C30.5 21.7644 29.0903 24.3346 27.6394 26.2893C26.1606 28.2817 24.4715 29.8565 23.5839 30.6293C22.6717 31.4235 21.3283 31.4235 20.4161 30.6293C19.5285 29.8565 17.8394 28.2817 16.3606 26.2893C14.9097 24.3346 13.5 21.7644 13.5 19.0345C13.5 16.7734 14.3938 14.6034 15.987 13.0023ZM24 19C24 20.1046 23.1046 21 22 21C20.8954 21 20 20.1046 20 19C20 17.8954 20.8954 17 22 17C23.1046 17 24 17.8954 24 19Z" fill="currentColor"/>
</svg>
