<svg width="32" height="32" viewBox="0 0 32 32" fill="none" xmlns="http://www.w3.org/2000/svg">
<path fill-rule="evenodd" clip-rule="evenodd" d="M9.2628 7.18544C11.0405 5.47193 13.463 4.5 16 4.5C18.537 4.5 20.9595 5.47193 22.7372 7.18544C24.513 8.89714 25.5 11.2067 25.5 13.6027C25.5 17.1043 23.1231 20.5824 20.4264 23.3463C19.1123 24.693 17.7929 25.7987 16.7999 26.5682C16.499 26.8015 16.2292 27.0029 16 27.17C15.7709 27.0029 15.5011 26.8015 15.2001 26.5682C14.2072 25.7987 12.8877 24.693 11.5736 23.3463C8.87693 20.5824 6.5 17.1043 6.5 13.6027C6.5 11.2067 7.48696 8.89714 9.2628 7.18544ZM15.1817 30.2571C15.1821 30.2574 15.1825 30.2576 16 29L15.1825 30.2576C15.6796 30.5808 16.3204 30.5808 16.8176 30.2576L16 29C16.8176 30.2576 16.8179 30.2574 16.8183 30.2571L16.8194 30.2565L16.8222 30.2546L16.8308 30.249L16.8597 30.2299C16.8841 30.2137 16.9187 30.1907 16.9628 30.1609C17.0509 30.1014 17.1771 30.0151 17.3358 29.9034C17.6532 29.6801 18.1016 29.3549 18.6376 28.9395C19.7072 28.1106 21.1377 26.9131 22.5736 25.4413C25.3769 22.5682 28.5 18.3476 28.5 13.6027C28.5 10.3747 27.1691 7.29056 24.8192 5.02547C22.4711 2.7622 19.2978 1.5 16 1.5C12.7022 1.5 9.52893 2.7622 7.18085 5.02547C4.83089 7.29056 3.5 10.3747 3.5 13.6027C3.5 18.3476 6.62308 22.5682 9.42638 25.4413C10.8623 26.9131 12.2929 28.1106 13.3624 28.9395C13.8984 29.3549 14.3469 29.6801 14.6642 29.9034C14.8229 30.0151 14.9491 30.1014 15.0372 30.1609C15.0813 30.1907 15.1159 30.2137 15.1403 30.2299L15.1693 30.249L15.1779 30.2546L15.1807 30.2565L15.1817 30.2571ZM19 14C19 15.6569 17.6569 17 16 17C14.3431 17 13 15.6569 13 14C13 12.3431 14.3431 11 16 11C17.6569 11 19 12.3431 19 14Z" fill="currentColor"/>
</svg>
