<svg width="32" height="32" viewBox="0 0 32 32" fill="none" xmlns="http://www.w3.org/2000/svg">
<path fill-rule="evenodd" clip-rule="evenodd" d="M16.2943 30.7797C19.7261 28.1763 28 20.7531 28 13.812C28 10.6792 26.7357 7.67482 24.4853 5.45965C22.2348 3.24447 19.1826 2 16 2C12.8174 2 9.76516 3.24447 7.51472 5.45965C5.26428 7.67482 4 10.6792 4 13.812C4 20.7531 12.2739 28.1763 15.7057 30.7797C15.8805 30.9123 16.1195 30.9123 16.2943 30.7797ZM20 14C20 16.2091 18.2091 18 16 18C13.7909 18 12 16.2091 12 14C12 11.7909 13.7909 10 16 10C18.2091 10 20 11.7909 20 14Z" fill="currentColor"/>
</svg>
