<svg width="32" height="32" viewBox="0 0 32 32" fill="none" xmlns="http://www.w3.org/2000/svg">
<path fill-rule="evenodd" clip-rule="evenodd" d="M11.5 9C11.5 6.51472 13.5147 4.5 16 4.5C18.4853 4.5 20.5 6.51472 20.5 9V13H11.5V9ZM8.5 13V9C8.5 4.85786 11.8579 1.5 16 1.5C20.1421 1.5 23.5 4.85786 23.5 9V13H26C27.1046 13 28 13.8954 28 15V29C28 30.1046 27.1046 31 26 31H6C4.89543 31 4 30.1046 4 29V15C4 13.8954 4.89543 13 6 13H8.5ZM19 21C19 22.2108 18.2828 23.254 17.25 23.728V25C17.25 25.6904 16.6904 26.25 16 26.25C15.3096 26.25 14.75 25.6904 14.75 25V23.728C13.7172 23.254 13 22.2108 13 21C13 19.3432 14.3431 18 16 18C17.6569 18 19 19.3432 19 21Z" fill="currentColor"/>
</svg>
