<svg width="32" height="32" viewBox="0 0 32 32" fill="none" xmlns="http://www.w3.org/2000/svg">
<path d="M26.5174 4.55117C24.8505 3.38667 22.7269 2.66669 20.1224 2.66669C17.7808 2.66669 9.69138 3.40247 7.74053 13.5217H5.41574C5.01493 13.5217 4.67048 13.8051 4.59358 14.1985L4.01107 17.1685C3.94049 17.5287 4.21647 17.8642 4.58357 17.8642H7.32182C7.25756 27.8623 14.0839 29.3334 17.4205 29.3334C20.1946 29.3334 22.2249 28.478 23.8477 27.1302C24.2237 26.8174 24.2411 26.2438 23.8951 25.8983L21.704 23.7073C21.4202 23.4234 20.9772 23.3871 20.6438 23.6099C19.7716 24.1918 18.8099 24.4689 17.7444 24.4689C16.6131 24.4689 13.03 23.7974 13.0875 17.8642H18.0157C18.4165 17.8642 18.7604 17.5809 18.8378 17.1874L19.4198 14.2175C19.4909 13.8572 19.2149 13.5217 18.8473 13.5217H13.6621C15.16 7.71234 18.8852 7.56803 20.1224 7.56803C21.3712 7.56803 22.3134 7.87509 23.0887 8.38545C23.4258 8.60718 23.8671 8.58085 24.1521 8.29591L26.6196 5.82733C26.9862 5.46181 26.9419 4.8477 26.5174 4.55117Z" fill="currentColor"/>
</svg>
