<svg width="32" height="32" viewBox="0 0 32 32" fill="none" xmlns="http://www.w3.org/2000/svg">
<path d="M18.7314 7.86074C20.3913 7.86074 21.5694 8.77104 22.4261 10.1097C22.6939 10.4846 23.2829 10.5917 23.6577 10.2168L26.3351 7.64654C26.6028 7.37881 26.6564 6.95043 26.3887 6.62914C24.6216 4.27305 22.212 2.66663 18.5707 2.66663C13.4302 2.66663 8.98572 5.93302 8.98572 11.3949C8.98572 12.1445 9.03926 12.8942 9.19991 13.6439H7.75412C7.37929 13.6439 7.05801 13.8581 6.95091 14.2329L6.41544 17.1245C6.30834 17.6064 6.68317 18.0883 7.1651 18.0883H10.2173L10.3244 18.5702C10.378 18.838 10.4315 19.3199 10.4315 19.5876C10.4315 21.8366 8.07541 24.0321 5.18384 24.9424C4.9161 24.9959 4.70191 25.2637 4.64837 25.5314L4.0058 28.3694C3.95225 28.8514 4.27353 29.3333 4.80901 29.3333H23.1223C23.4971 29.3333 23.7648 29.0656 23.8719 28.6907L24.6751 25.103C24.7822 24.6211 24.4074 24.1392 23.9255 24.1392H14.1798C15.3579 23.0682 16.0004 20.1767 15.7863 18.0348H20.6055C20.9804 18.0348 21.3016 17.8206 21.4087 17.3922L22.0513 14.5542C22.1049 14.0722 21.7836 13.5903 21.2481 13.5903H14.983C14.9295 13.1084 14.9295 12.5729 14.9295 12.1445C14.8759 9.19942 16.6966 7.86074 18.7314 7.86074Z" fill="currentColor"/>
</svg>
