<svg width="32" height="32" viewBox="0 0 32 32" fill="none" xmlns="http://www.w3.org/2000/svg">
<path d="M18.4123 13.6489H13.2533L14.2635 9.07551H18.6313C20.4171 9.07551 21.4501 9.88949 21.4501 11.2371C21.4501 12.8339 20.198 13.6489 18.4123 13.6489ZM16.5642 22.9526H11.1976L12.3812 17.5963H16.7521C18.9137 17.5963 20.2292 18.5037 20.2292 20.1327C20.2292 21.7929 18.8826 22.9526 16.5642 22.9526ZM26.4939 10.4543C26.4939 7.47559 24.2274 5.54239 21.1117 4.98382L21.6536 2.40587C21.7689 1.85249 21.3474 1.33337 20.7826 1.33337H17.4997C17.0792 1.33337 16.7168 1.62616 16.6296 2.0373L16.0378 4.81562H10.6463C10.3337 4.81562 10.0628 5.03261 9.99528 5.33785L5.34917 26.3705C5.25781 26.7868 5.57343 27.1813 6.00015 27.1813H11.0719L10.5642 29.5662C10.448 30.1175 10.8653 30.6376 11.428 30.6418L14.7161 30.6667C15.1397 30.6698 15.5073 30.3739 15.5945 29.9586L16.1769 27.1813H16.6888C21.9516 27.1813 25.303 24.2992 25.303 20.5719C25.303 18.3792 24.1132 16.5934 22.2652 15.6849C24.5835 15.0277 26.4939 13.1786 26.4939 10.4543Z" fill="currentColor"/>
</svg>
