<svg width="32" height="32" viewBox="0 0 32 32" fill="none" xmlns="http://www.w3.org/2000/svg">
<path d="M27.602 9.13959L23.8466 7.07834L20.0369 4.98587C17.5188 3.60129 14.3713 5.33982 14.3713 8.12979V8.59825C14.3699 8.72557 14.4044 8.85087 14.4713 8.96085C14.5382 9.07083 14.6349 9.16138 14.7511 9.22287L16.5203 10.191C16.632 10.2523 16.7586 10.2843 16.8873 10.2837C17.016 10.2831 17.1423 10.25 17.2535 10.1877C17.3646 10.1255 17.4567 10.0362 17.5204 9.92898C17.5841 9.82173 17.6173 9.70027 17.6165 9.57682V8.46292C17.6166 8.33737 17.651 8.21404 17.7162 8.10521C17.7815 7.99638 17.8754 7.90586 17.9885 7.84267C18.1016 7.77948 18.23 7.74582 18.3609 7.74505C18.4917 7.74428 18.6206 7.77643 18.7345 7.8383L22.2077 9.7538L25.67 11.6589C25.7836 11.7214 25.8781 11.8117 25.9437 11.9204C26.0094 12.0292 26.044 12.1526 26.044 12.2783C26.044 12.404 26.0094 12.5274 25.9437 12.6362C25.8781 12.745 25.7836 12.8352 25.67 12.8977L22.2077 14.8028L18.7345 16.7183C18.6206 16.7802 18.4917 16.8123 18.3609 16.8116C18.23 16.8108 18.1016 16.7771 17.9885 16.7139C17.8754 16.6507 17.7815 16.5602 17.7162 16.4514C17.651 16.3426 17.6166 16.2192 17.6165 16.0937V15.5419C17.6165 12.752 14.4689 11.003 11.9509 12.398L8.15208 14.5009L4.39669 16.5622C1.86777 17.9571 1.86777 21.4654 4.39669 22.8604L8.15208 24.9217L11.9617 27.0141C14.4798 28.3987 17.6274 26.6602 17.6274 23.8702V23.4017C17.6288 23.2744 17.5942 23.1491 17.5273 23.0391C17.4604 22.9292 17.3637 22.8386 17.2475 22.7771L15.4783 21.809C15.3666 21.7477 15.24 21.7157 15.1113 21.7163C14.9826 21.7169 14.8563 21.75 14.7452 21.8123C14.6341 21.8745 14.542 21.9638 14.4782 22.071C14.4145 22.1783 14.3814 22.2997 14.3821 22.4232V23.5371C14.382 23.6626 14.3477 23.786 14.2824 23.8948C14.2171 24.0036 14.1233 24.0941 14.0102 24.1573C13.8971 24.2205 13.7687 24.2542 13.6378 24.2549C13.5069 24.2557 13.3781 24.2236 13.2642 24.1617L9.79099 22.2462L6.32865 20.3411C6.215 20.2786 6.12057 20.1883 6.05491 20.0796C5.98924 19.9708 5.95466 19.8474 5.95466 19.7217C5.95466 19.596 5.98924 19.4726 6.05491 19.3638C6.12057 19.255 6.215 19.1648 6.32865 19.1023L9.79099 17.1972L13.2642 15.2817C13.3781 15.2198 13.5069 15.1877 13.6378 15.1884C13.7687 15.1892 13.8971 15.2229 14.0102 15.2861C14.1233 15.3493 14.2171 15.4398 14.2824 15.5486C14.3477 15.6574 14.382 15.7808 14.3821 15.9063V16.4581C14.3821 19.248 17.5297 20.997 20.0478 19.602L23.8574 17.5095L27.6128 15.4483C30.1309 14.0429 30.1309 10.5346 27.602 9.13959Z" fill="currentColor"/>
</svg>
