<svg width="32" height="32" viewBox="0 0 32 32" fill="none" xmlns="http://www.w3.org/2000/svg">
<path d="M18.1238 13.7778C18.1243 13.7778 18.1248 13.7779 18.1253 13.778C22.624 14.8037 24.6805 16.7866 24.6805 20.1368C24.6805 24.3368 21.4652 27.4376 16.447 27.7659L15.9551 30.2604C15.9084 30.4972 15.7125 30.6667 15.4856 30.6667H11.5981C11.2883 30.6667 11.0597 30.3582 11.1314 30.0367L11.7542 27.2436C9.25126 26.4856 7.24056 25.008 6.07664 23.1858C5.94018 22.9722 5.99209 22.6852 6.18356 22.5267L8.9002 20.2777C9.12414 20.0923 9.44825 20.1543 9.61425 20.3994C11.0444 22.5107 13.2355 23.7607 15.8742 23.7607C18.2523 23.7607 20.052 22.53 20.052 20.7522C20.052 19.3847 19.1521 18.7693 16.1312 18.0855C10.925 16.9231 8.86828 14.8718 8.86828 11.5214C8.86828 7.63423 11.939 4.69748 16.5715 4.31628L17.0795 1.73973C17.1262 1.50292 17.3221 1.33337 17.549 1.33337H21.3842C21.6902 1.33337 21.918 1.63473 21.853 1.95361L21.2643 4.84363C23.2735 5.5017 24.9062 6.68154 25.9144 8.13723C26.059 8.34603 26.0144 8.63596 25.826 8.80036L23.3492 10.9622C23.1312 11.1525 22.8082 11.101 22.6301 10.8682C21.3781 9.23203 19.4142 8.30773 17.2874 8.30773C14.9735 8.30773 13.4309 9.40175 13.4309 10.9744C13.4309 12.2734 14.5877 12.9572 18.1221 13.7776C18.1227 13.7778 18.1232 13.7778 18.1238 13.7778Z" fill="currentColor"/>
</svg>
