<svg width="32" height="32" viewBox="0 0 32 32" fill="none" xmlns="http://www.w3.org/2000/svg">
<path fill-rule="evenodd" clip-rule="evenodd" d="M4.5 12C4.5 7.85786 7.85787 4.5 12 4.5C15.2802 4.5 18.0685 6.60574 19.087 9.53915C14.0164 9.97592 9.97592 14.0164 9.53915 19.087C6.60574 18.0685 4.5 15.2802 4.5 12ZM9.74314 22.2569C5.0288 21.2243 1.5 17.0242 1.5 12C1.5 6.20101 6.20102 1.5 12 1.5C17.0242 1.5 21.2243 5.0288 22.2569 9.74314C26.9712 10.7757 30.5 14.9758 30.5 20C30.5 25.799 25.799 30.5 20 30.5C14.9758 30.5 10.7757 26.9712 9.74314 22.2569ZM22.4609 12.9131C25.3943 13.9315 27.5 16.7198 27.5 20C27.5 24.1421 24.1421 27.5 20 27.5C16.7198 27.5 13.9315 25.3943 12.9131 22.4609C17.9836 22.0241 22.0241 17.9836 22.4609 12.9131ZM12.5176 19.4824C16.2473 19.2282 19.2282 16.2473 19.4824 12.5176C15.7527 12.7718 12.7718 15.7527 12.5176 19.4824Z" fill="currentColor"/>
</svg>
