<svg width="32" height="32" viewBox="0 0 32 32" fill="none" xmlns="http://www.w3.org/2000/svg">
<path fill-rule="evenodd" clip-rule="evenodd" d="M20.0181 3.93669C20.6028 3.35498 21.5473 3.35436 22.1327 3.93528L26.085 7.85741C26.3682 8.13839 26.5277 8.52059 26.5284 8.9195C26.5291 9.31841 26.3709 9.70116 26.0887 9.98314L22.6479 13.4217L22.6459 13.4236L12.7214 23.378L12.7209 23.3785C12.2714 23.8289 11.7576 24.2063 11.1983 24.5H27C27.8284 24.5 28.5 25.1716 28.5 26C28.5 26.8284 27.8284 27.5 27 27.5H4.00001C3.49464 27.5 3.02325 27.2455 2.74596 26.823C2.46868 26.4005 2.42278 25.8668 2.62385 25.4032L5.01767 19.8835C5.31773 18.9019 5.8564 18.0092 6.58577 17.2844L6.58601 17.2842L16.5678 7.36974L16.5688 7.36881L20.0181 3.93669ZM17.6263 10.5468L8.70038 19.4124C8.30815 19.8022 8.02317 20.284 7.87137 20.812C7.8535 20.8741 7.83165 20.935 7.80593 20.9943L6.90052 23.082L8.97789 22.1661C9.04133 22.1382 9.10662 22.1146 9.17331 22.0957C9.71304 21.9424 10.2031 21.6543 10.5969 21.2598C10.597 21.2597 10.5972 21.2595 10.5974 21.2594L19.4618 12.3683L17.6263 10.5468ZM21.5819 10.2457L22.9027 8.92584L21.0775 7.11463L19.7539 8.43165L21.5819 10.2457Z" fill="currentColor"/>
</svg>
