<svg width="32" height="32" viewBox="0 0 32 32" fill="none" xmlns="http://www.w3.org/2000/svg">
<path fill-rule="evenodd" clip-rule="evenodd" d="M6.81357 21.5L9.04469 9.8183C9.7654 6.74269 12.618 4.5 15.9766 4.5C19.336 4.5 22.1892 6.74382 22.909 9.82062L25.1802 21.5H6.81357ZM15.9766 1.5C11.2787 1.5 7.1541 4.65554 6.11505 9.17159L6.10876 9.19895L6.10349 9.22652L3.5266 22.7186C3.44272 23.1578 3.55913 23.6115 3.84409 23.956C4.12905 24.3005 4.55286 24.5 4.99997 24.5H27C27.448 24.5 27.8725 24.2998 28.1574 23.9541C28.4424 23.6084 28.5579 23.1534 28.4724 22.7137L25.8487 9.22158L25.8438 9.19648L25.8381 9.17157C24.799 4.65553 20.6745 1.5 15.9766 1.5ZM13 27.5C12.1715 27.5 11.5 28.1716 11.5 29C11.5 29.8284 12.1715 30.5 13 30.5H19C19.8284 30.5 20.5 29.8284 20.5 29C20.5 28.1716 19.8284 27.5 19 27.5H13Z" fill="currentColor"/>
</svg>
