<svg width="32" height="32" viewBox="0 0 32 32" fill="none" xmlns="http://www.w3.org/2000/svg">
<path fill-rule="evenodd" clip-rule="evenodd" d="M16 2C11.6253 2 7.84511 5.05597 6.9285 9.33351L4.25915 21.7905C4.12575 22.413 4.60031 23 5.23695 23H26.763C27.3996 23 27.8742 22.413 27.7408 21.7905L25.0714 9.33352C24.1548 5.05598 20.3746 2 16 2ZM13 26.5C12.1716 26.5 11.5 27.1716 11.5 28C11.5 28.8284 12.1716 29.5 13 29.5H16.5H20C20.8284 29.5 21.5 28.8284 21.5 28C21.5 27.1716 20.8284 26.5 20 26.5H16.5H13Z" fill="currentColor"/>
</svg>
