<svg width="32" height="32" viewBox="0 0 32 32" fill="none" xmlns="http://www.w3.org/2000/svg">
<path fill-rule="evenodd" clip-rule="evenodd" d="M17.1167 1.50427C16.2907 1.44143 15.5701 2.06013 15.5072 2.88617C15.4444 3.71221 16.0631 4.43279 16.8891 4.49563C22.5515 4.92637 27.0736 9.44842 27.5043 15.1108C27.5672 15.9368 28.2878 16.5555 29.1138 16.4927C29.9398 16.4299 30.5585 15.7093 30.4957 14.8832C29.9526 7.7435 24.2564 2.04739 17.1167 1.50427ZM10.9469 6.1062C11.6887 5.73752 11.9913 4.83725 11.6226 4.09538C11.2539 3.35351 10.3536 3.05098 9.61176 3.41966C6.80395 4.81502 4.51849 7.10048 3.12312 9.9083C2.75445 10.6502 3.05698 11.5504 3.79885 11.9191C4.54071 12.2878 5.44099 11.9853 5.80967 11.2434C6.91393 9.02135 8.72481 7.21046 10.9469 6.1062ZM4.49569 16.8891C4.43285 16.0631 3.71227 15.4444 2.88623 15.5072C2.06019 15.57 1.44149 16.2906 1.50433 17.1167C2.04746 24.2564 7.74356 29.9525 14.8833 30.4956C15.7093 30.5585 16.4299 29.9398 16.4928 29.1137C16.5556 28.2877 15.9369 27.5671 15.1109 27.5043C9.44847 27.0735 4.92643 22.5515 4.49569 16.8891ZM28.8769 22.6848C29.2456 21.9429 28.943 21.0426 28.2012 20.674C27.4593 20.3053 26.559 20.6078 26.1904 21.3497C25.0861 23.5717 23.2752 25.3826 21.0532 26.4869C20.3113 26.8556 20.0088 27.7558 20.3774 28.4977C20.7461 29.2396 21.6464 29.5421 22.3883 29.1734C25.1961 27.7781 27.4815 25.4926 28.8769 22.6848ZM22.0992 14.0207C22.6629 13.4136 22.6277 12.4645 22.0207 11.9008C21.4136 11.3371 20.4645 11.3723 19.9008 11.9793L14.6519 17.632L13.2206 15.6281C12.7391 14.954 11.8023 14.7979 11.1281 15.2794C10.454 15.7609 10.2979 16.6977 10.7794 17.3719L13.2794 20.8719C13.5413 21.2386 13.9543 21.4681 14.404 21.4969C14.8537 21.5258 15.2925 21.3509 15.5992 21.0207L22.0992 14.0207Z" fill="currentColor"/>
</svg>
