<svg width="32" height="32" viewBox="0 0 32 32" fill="none" xmlns="http://www.w3.org/2000/svg">
<path fill-rule="evenodd" clip-rule="evenodd" d="M16.0002 2C16.8286 2 17.5002 2.67156 17.5002 3.49999L17.5002 13.2673L26.1947 7.73451C26.8936 7.28975 27.8207 7.49577 28.2655 8.19469C28.7103 8.8936 28.5042 9.82073 27.8053 10.2655L18.7939 16L27.8053 21.7345C28.5042 22.1793 28.7103 23.1064 28.2655 23.8053C27.8207 24.5042 26.8936 24.7103 26.1947 24.2655L17.5003 18.7327L17.5003 28.5C17.5003 29.3284 16.8288 30 16.0003 30C15.1719 30 14.5003 29.3284 14.5003 28.5L14.5003 18.7323L5.80532 24.2655C5.10641 24.7103 4.17928 24.5042 3.73451 23.8053C3.28975 23.1064 3.49578 22.1793 4.19469 21.7345L13.2061 16L4.19469 10.2655C3.49578 9.82073 3.28975 8.8936 3.73451 8.19469C4.17928 7.49577 5.10641 7.28975 5.80532 7.73451L14.5003 13.2676L14.5002 3.50001C14.5002 2.67158 15.1718 2 16.0002 2Z" fill="currentColor"/>
</svg>
