<svg width="32" height="32" viewBox="0 0 32 32" fill="none" xmlns="http://www.w3.org/2000/svg">
<path fill-rule="evenodd" clip-rule="evenodd" d="M22.6452 13.4689C23.1803 12.8365 23.1014 11.89 22.469 11.3549C21.8366 10.8198 20.8902 10.8987 20.355 11.5311L17.5 14.9051V3.5C17.5 2.67157 16.8285 2 16 2C15.1716 2 14.5 2.67157 14.5 3.5V14.905L11.6452 11.5311C11.1101 10.8987 10.1636 10.8198 9.5312 11.3549C8.89879 11.89 8.81991 12.8365 9.35502 13.4689L14.8549 19.9689C15.1399 20.3058 15.5588 20.5 16 20.5C16.4412 20.5 16.8601 20.3058 17.1451 19.9689L22.6452 13.4689ZM23 21.7634C20.7155 21.7634 18.1065 22.4909 15.7531 23.1471L15.6109 23.1867C13.0944 23.8881 10.8519 24.4999 9.00001 24.4999C7.06153 24.4999 5.44876 24.1839 4.32842 23.8711C4.01027 23.7822 3.73281 23.6939 3.5 23.6137L3.5 8.17428C3.72981 8.24625 3.97444 8.3183 4.23201 8.38822C5.91409 8.84487 8.24745 9.23859 10.6412 8.84869C11.4588 8.7155 12.0137 7.9447 11.8805 7.12704C11.7473 6.30939 10.9765 5.75452 10.1589 5.88771C8.35255 6.18193 6.48592 5.89153 5.018 5.49302C4.29417 5.29651 3.69152 5.08041 3.27365 4.91511C3.06524 4.83266 2.90426 4.76344 2.79877 4.71647C2.74607 4.69301 2.70735 4.67516 2.68361 4.66406L2.65943 4.65264L2.65857 4.65224L2.65792 4.65193L2.65737 4.65166L2.65655 4.65126L2.65628 4.65113C2.19187 4.42516 1.64379 4.45398 1.2056 4.72757C0.766686 5.0016 0.5 5.4825 0.5 5.99994V24.6317C0.5 25.2048 0.826534 25.7278 1.34143 25.9794L2 24.6317C1.34143 25.9794 1.34183 25.9796 1.34224 25.9798L1.34312 25.9802L1.34507 25.9811L1.34975 25.9834L1.36223 25.9894L1.39956 26.007C1.4299 26.0211 1.47111 26.0399 1.52283 26.0627C1.62625 26.1084 1.77189 26.1701 1.95698 26.2425C2.32693 26.3871 2.8559 26.5746 3.52158 26.7605C4.85125 27.1318 6.73848 27.4999 9.00001 27.4999C11.3109 27.4999 13.9392 26.7672 16.3026 26.1083L16.4163 26.0766C18.9352 25.3745 21.1669 24.7634 23 24.7634C24.9195 24.7634 26.5325 25.0791 27.6594 25.3927C28.2218 25.5491 28.6596 25.7041 28.9497 25.8165C29.0946 25.8727 29.2023 25.9181 29.2698 25.9475C29.3035 25.9623 29.3272 25.973 29.3404 25.9791L29.3508 25.9839L29.3522 25.9846L29.3523 25.9846C29.8162 26.2067 30.3618 26.1757 30.7976 25.902C31.2347 25.6276 31.5 25.1478 31.5 24.6317V5.99993C31.5 5.46766 31.2179 4.97524 30.7588 4.706L30 5.99993C30.7588 4.706 30.7582 4.70565 30.7576 4.7053L30.7563 4.70457L30.7536 4.70295L30.747 4.69915L30.73 4.6894C30.7168 4.68196 30.7002 4.67266 30.6802 4.66168C30.6401 4.63972 30.5862 4.611 30.5191 4.57692C30.3849 4.50881 30.1974 4.41905 29.9605 4.31895C29.4875 4.11902 28.8138 3.87611 27.9737 3.68292C26.2907 3.29591 23.9317 3.10732 21.1966 3.87107C20.3987 4.09387 19.9325 4.92132 20.1553 5.71922C20.3781 6.51713 21.2055 6.98334 22.0034 6.76053C24.1683 6.15602 26.0093 6.30949 27.3013 6.60661C27.7824 6.71724 28.1863 6.84763 28.5 6.96564V22.5126L28.4635 22.5024C27.1314 22.1318 25.2444 21.7634 23 21.7634ZM29.3483 25.9827L29.349 25.983C29.3486 25.9828 29.3483 25.9827 30 24.6317L29.3483 25.9827Z" fill="currentColor"/>
</svg>
