<svg width="32" height="32" viewBox="0 0 32 32" fill="none" xmlns="http://www.w3.org/2000/svg">
<path fill-rule="evenodd" clip-rule="evenodd" d="M4 11.5C3.17158 11.5 2.5 10.8284 2.5 10L2.5 4C2.5 3.17157 3.17158 2.5 4 2.5H10C10.8284 2.5 11.5 3.17157 11.5 4C11.5 4.82843 10.8284 5.5 10 5.5L5.5 5.5L5.5 10C5.5 10.8284 4.82843 11.5 4 11.5ZM28 20.5001C28.8284 20.5001 29.5 21.1717 29.5 22.0001L29.5 28.0001C29.5 28.8285 28.8284 29.5001 28 29.5001L22 29.5001C21.1716 29.5001 20.5 28.8285 20.5 28.0001C20.5 27.1717 21.1716 26.5001 22 26.5001H26.5L26.5 22.0001C26.5 21.1717 27.1716 20.5001 28 20.5001ZM16 29.5001C16.3978 29.5001 16.7794 29.342 17.0607 29.0607C17.342 28.7794 17.5 28.3979 17.5 28.0001L17.5 16.0001C17.5 15.6022 17.342 15.2207 17.0607 14.9394C16.7794 14.6581 16.3978 14.5001 16 14.5001H4C3.60217 14.5001 3.22064 14.6581 2.93934 14.9394C2.65804 15.2207 2.5 15.6022 2.5 16.0001V28C2.5 28.8285 3.17157 29.5 4 29.5L16 29.5001ZM5.5 17.5001L14.5 17.5001L14.5 26.5001L5.5 26.5L5.5 17.5001ZM29.0607 13.0607C28.7794 13.342 28.3978 13.5001 28 13.5001L20 13.5001C19.1716 13.5001 18.5 12.8285 18.5 12.0001V4.00006C18.5 3.60223 18.658 3.2207 18.9393 2.9394C19.2206 2.65809 19.6022 2.50006 20 2.50006L28 2.50006C28.3978 2.50006 28.7794 2.65809 29.0607 2.9394C29.342 3.2207 29.5 3.60223 29.5 4.00006L29.5 12.0001C29.5 12.3979 29.342 12.7794 29.0607 13.0607ZM26.5 10.5001L26.5 5.50006L21.5 5.50006V10.5001L26.5 10.5001ZM12 22.0001C12 20.8955 11.1046 20.0001 10 20.0001C8.89544 20.0001 8 20.8955 8 22.0001C8 23.1046 8.89543 24 9.99999 24.0001C11.1046 24.0001 12 23.1046 12 22.0001ZM14 8.00006C15.1046 8.00006 16 8.89549 16 10.0001C16 11.1046 15.1046 12.0001 14 12.0001C12.8954 12.0001 12 11.1046 12 10.0001C12 8.89549 12.8954 8.00006 14 8.00006ZM24 18.0001C24 16.8955 23.1046 16.0001 22 16.0001C20.8954 16.0001 20 16.8955 20 18.0001C20 19.1046 20.8954 20.0001 22 20.0001C23.1046 20.0001 24 19.1046 24 18.0001Z" fill="currentColor"/>
</svg>
