<svg width="32" height="32" viewBox="0 0 32 32" fill="none" xmlns="http://www.w3.org/2000/svg">
<path fill-rule="evenodd" clip-rule="evenodd" d="M20.4689 0.854973C19.8365 0.319844 18.8901 0.398695 18.3549 1.03109C17.8198 1.66349 17.8987 2.60996 18.5311 3.14509L21.9052 6.00028H12C7.30558 6.00028 3.5 9.80586 3.5 14.5003V16.5003C3.5 17.3287 4.17157 18.0003 5 18.0003C5.82843 18.0003 6.5 17.3287 6.5 16.5003V14.5003C6.5 11.4627 8.96243 9.00027 12 9.00027H21.9049L18.5311 11.8549C17.8987 12.39 17.8198 13.3365 18.3549 13.9689C18.89 14.6013 19.8365 14.6802 20.4689 14.1451L26.9689 8.64538C27.3057 8.36038 27.5 7.94153 27.5 7.50031C27.5 7.05908 27.3058 6.64023 26.9689 6.35522L20.4689 0.854973ZM28.5 15.5002C28.5 14.6717 27.8284 14.0002 27 14.0002C26.1716 14.0002 25.5 14.6717 25.5 15.5002V17.5002C25.5 20.5377 23.0376 23.0002 20 23.0002H9.85614L13.0136 20.1058C13.6243 19.546 13.6655 18.5971 13.1057 17.9864C12.5459 17.3758 11.5971 17.3345 10.9864 17.8943L4.9864 23.3944C4.67646 23.6785 4.5 24.0797 4.5 24.5002C4.5 24.9206 4.67648 25.3218 4.98643 25.6059L10.9864 31.1058C11.5971 31.6656 12.546 31.6243 13.1057 31.0136C13.6655 30.4029 13.6243 29.4541 13.0136 28.8943L9.85627 26.0002H20C24.6944 26.0002 28.5 22.1946 28.5 17.5002V15.5002Z" fill="currentColor"/>
</svg>
