<svg width="32" height="32" viewBox="0 0 32 32" fill="none" xmlns="http://www.w3.org/2000/svg">
<path fill-rule="evenodd" clip-rule="evenodd" d="M16 4.5C15.894 4.5 15.6223 4.54607 15.2068 4.98414C14.7856 5.42824 14.3105 6.18649 13.8645 7.34608C13.5107 8.26602 13.2226 9.31466 13.004 10.4455C14.9836 10.5182 17.0164 10.5182 18.996 10.4455C18.7774 9.31465 18.4893 8.26602 18.1355 7.34608C17.6895 6.18649 17.2144 5.42824 16.7932 4.98414C16.3777 4.54607 16.106 4.5 16 4.5ZM19.3974 13.4321C17.1551 13.5226 14.8449 13.5226 12.6026 13.4321C12.5346 14.2729 12.5 15.1337 12.5 16C12.5 16.8663 12.5346 17.7271 12.6026 18.5679C14.8449 18.4774 17.1551 18.4774 19.3974 18.5679C19.4654 17.7271 19.5 16.8663 19.5 16C19.5 15.1337 19.4654 14.2729 19.3974 13.4321ZM9.98462 10.2742C10.24 8.83956 10.5984 7.48099 11.0644 6.26914C11.1727 5.98779 11.286 5.71615 11.4045 5.45496C9.28276 6.38089 7.49454 7.92839 6.26989 9.86736C7.43445 10.0371 8.68411 10.1727 9.98462 10.2742ZM4.97971 12.7026C6.40768 12.9385 7.97013 13.122 9.60738 13.2533C9.53544 14.1637 9.5 15.0845 9.5 16C9.5 16.9155 9.53544 17.8363 9.60738 18.7467C7.97013 18.878 6.40768 19.0615 4.97971 19.2974C4.66763 18.2529 4.5 17.146 4.5 16C4.5 14.854 4.66763 13.7471 4.97971 12.7026ZM22.3926 13.2533C24.0299 13.122 25.5923 12.9385 27.0203 12.7026C27.3324 13.7471 27.5 14.854 27.5 16C27.5 17.146 27.3324 18.2529 27.0203 19.2974C25.5923 19.0615 24.0299 18.878 22.3926 18.7467C22.4646 17.8363 22.5 16.9155 22.5 16C22.5 15.0845 22.4646 14.1637 22.3926 13.2533ZM25.7301 9.86736C24.5655 10.0371 23.3159 10.1727 22.0154 10.2742C21.76 8.83956 21.4016 7.48099 20.9356 6.26914C20.8273 5.98779 20.714 5.71614 20.5955 5.45495C22.7172 6.38089 24.5055 7.92839 25.7301 9.86736ZM9.98463 21.7258C8.68412 21.8273 7.43445 21.9629 6.26989 22.1326C7.49454 24.0716 9.28276 25.6191 11.4045 26.545C11.286 26.2839 11.1727 26.0122 11.0644 25.7309C10.5984 24.519 10.24 23.1604 9.98463 21.7258ZM18.1355 24.6539C18.4893 23.734 18.7774 22.6853 18.996 21.5545C17.0164 21.4818 14.9836 21.4818 13.004 21.5545C13.2226 22.6853 13.5107 23.734 13.8645 24.6539C14.3105 25.8135 14.7856 26.5718 15.2068 27.0159C15.6223 27.4539 15.894 27.5 16 27.5C16.106 27.5 16.3777 27.4539 16.7932 27.0159C17.2144 26.5718 17.6895 25.8135 18.1355 24.6539ZM20.9356 25.7309C21.4016 24.519 21.76 23.1604 22.0154 21.7258C23.3159 21.8273 24.5655 21.9629 25.7301 22.1326C24.5055 24.0716 22.7172 25.6191 20.5955 26.545C20.714 26.2839 20.8273 26.0122 20.9356 25.7309ZM16 30.5C24.0081 30.5 30.5 24.0081 30.5 16C30.5 7.99187 24.0081 1.5 16 1.5C7.99187 1.5 1.5 7.99187 1.5 16C1.5 24.0081 7.99187 30.5 16 30.5Z" fill="currentColor"/>
</svg>
