<svg width="32" height="32" viewBox="0 0 32 32" fill="none" xmlns="http://www.w3.org/2000/svg">
<path fill-rule="evenodd" clip-rule="evenodd" d="M24 3.5C24.4412 3.5 24.8601 3.69426 25.1451 4.03109L30.6451 10.5311C31.1802 11.1635 31.1013 12.11 30.4689 12.6451C29.8365 13.1802 28.89 13.1013 28.3549 12.4689L25.5 9.09492L25.5 17L24 17L22.5 17L22.5 9.09491L19.6451 12.4689C19.11 13.1013 18.1635 13.1802 17.5311 12.6451C16.8987 12.11 16.8198 11.1635 17.3549 10.5311L22.8549 4.03109C23.1399 3.69426 23.5588 3.5 24 3.5ZM14 8.5C9.30557 8.5 5.49999 12.3056 5.49999 17C5.49999 21.6944 9.30558 25.5 14 25.5H14C18.6944 25.5 22.5 21.6944 22.5 17L24 17L25.5 17C25.5 23.3513 20.3513 28.5 14 28.5H14C7.64872 28.5 2.49999 23.3513 2.49999 17C2.49999 10.6487 7.64872 5.5 14 5.5H14.5C15.3285 5.5 16 6.17157 16 7C16 7.82843 15.3285 8.5 14.5 8.5H14Z" fill="currentColor"/>
</svg>
