<svg width="32" height="32" viewBox="0 0 32 32" fill="none" xmlns="http://www.w3.org/2000/svg">
<path fill-rule="evenodd" clip-rule="evenodd" d="M16 4.5C9.64873 4.5 4.5 9.64873 4.5 16C4.5 22.3513 9.64873 27.5 16 27.5C22.3513 27.5 27.5 22.3513 27.5 16C27.5 15.1716 28.1716 14.5 29 14.5C29.8284 14.5 30.5 15.1716 30.5 16C30.5 24.0081 24.0081 30.5 16 30.5C7.99187 30.5 1.5 24.0081 1.5 16C1.5 7.99187 7.99187 1.5 16 1.5C17.7827 1.5 19.4935 1.8224 21.0751 2.41339C21.8511 2.70337 22.2451 3.56753 21.9551 4.34355C21.6651 5.11956 20.801 5.51357 20.0249 5.22359C18.7742 4.75622 17.4187 4.5 16 4.5ZM16.1266 8.7016C16.2914 9.51347 15.7668 10.3052 14.955 10.47C12.4129 10.986 10.5 13.236 10.5 15.9293C10.5 19.0059 12.9941 21.5 16.0707 21.5C18.7641 21.5 21.014 19.5871 21.53 17.0449C21.6948 16.2331 22.4865 15.7085 23.2984 15.8733C24.1102 16.0381 24.6348 16.8298 24.47 17.6417C23.6758 21.5545 20.2189 24.5 16.0707 24.5C11.3372 24.5 7.5 20.6628 7.5 15.9293C7.5 11.7811 10.4455 8.32422 14.3582 7.52998C15.17 7.36518 15.9618 7.88973 16.1266 8.7016ZM29.0034 6.11494C29.6192 5.56075 29.6691 4.61232 29.1149 3.99655C28.5608 3.38079 27.6123 3.33087 26.9966 3.88506L21.4478 8.8789L15.0103 14.5314C14.3878 15.078 14.3262 16.0257 14.8728 16.6482C15.4194 17.2707 16.3672 17.3323 16.9897 16.7857L23.0095 11.5H28C28.8284 11.5 29.5 10.8284 29.5 10C29.5 9.17157 28.8284 8.5 28 8.5H26.3534L29.0034 6.11494Z" fill="currentColor"/>
</svg>
