<svg width="32" height="32" viewBox="0 0 32 32" fill="none" xmlns="http://www.w3.org/2000/svg">
<path fill-rule="evenodd" clip-rule="evenodd" d="M7.16339 7.17618C12.0444 2.27461 19.9556 2.27461 24.8366 7.17618C29.7211 12.0812 29.7211 20.0365 24.8366 24.9416C24.2521 25.5286 24.254 26.4783 24.8411 27.0629C25.4281 27.6474 26.3778 27.6454 26.9624 27.0584C33.0125 20.9828 33.0125 11.1349 26.9624 5.05932C20.9087 -1.01977 11.0913 -1.01977 5.03762 5.05932C-1.01254 11.1349 -1.01254 20.9828 5.03762 27.0584C5.62218 27.6454 6.57192 27.6474 7.15894 27.0629C7.74595 26.4783 7.74794 25.5286 7.16339 24.9416C2.27887 20.0365 2.27887 12.0812 7.16339 7.17618ZM10.7815 20.3886C10.3256 20.8431 10.2386 21.5684 10.696 22.0213C11.8037 23.1184 13.4619 23.8229 15.3061 24.0054V24.9694C15.3061 25.5386 15.7675 26 16.3367 26C16.9059 26 17.3673 25.5386 17.3673 24.9694V23.9643C20 23.5942 22 21.9286 22 19.3582C22 16.3355 19.6122 15.6569 17.3673 15.2251L17.3673 11.421C17.9407 11.5708 18.4644 11.8375 18.9269 12.2037C19.5977 12.7349 20.6119 12.8563 21.2017 12.2362C21.6218 11.7945 21.6938 11.1078 21.2552 10.6846C20.3286 9.79045 18.9671 9.16745 17.3673 8.97403V8.03061C17.3673 7.46142 16.9059 7 16.3367 7C15.7675 7 15.3061 7.46142 15.3061 8.03061V8.97403C12.7143 9.30303 10.7347 10.9275 10.7347 13.4156C10.7347 16.3355 13.0612 17.0141 15.3061 17.4459V21.5173C14.4431 21.3639 13.6985 21.0196 13.0478 20.4647C12.3927 19.9061 11.3911 19.7807 10.7815 20.3886ZM15.3061 14.8139C14.2041 14.5465 13.4082 14.1353 13.4082 13.1894C13.4082 12.1818 14.1837 11.5649 15.3061 11.3593V14.8139ZM17.3673 17.8571C18.5102 18.145 19.3265 18.5768 19.3265 19.5844C19.3265 20.7359 18.5306 21.3117 17.3673 21.5173V17.8571Z" fill="currentColor"/>
</svg>
