<svg width="32" height="32" viewBox="0 0 32 32" fill="none" xmlns="http://www.w3.org/2000/svg">
<path fill-rule="evenodd" clip-rule="evenodd" d="M15.9999 10.1087C13.7604 10.1087 11.6279 8.2668 11.0516 5.5L20.948 5.5C20.3718 8.26685 18.2394 10.1087 15.9999 10.1087ZM22.5998 2.5H9.39978C9.00196 2.5 8.62043 2.65804 8.33912 2.93934C8.05782 3.22065 7.89978 3.60218 7.89978 4C7.89978 8.28987 10.6159 12.1543 14.4999 12.9565V22.7344C12.3278 19.7292 8.90886 17.7754 5.10681 17.5038C4.28049 17.4448 3.56278 18.0668 3.50376 18.8931C3.44473 19.7195 4.06675 20.4372 4.89307 20.4962C8.6015 20.7611 11.8328 23.121 13.2136 26.573L14.6072 30.0571C14.835 30.6266 15.3866 31.0001 15.9999 31.0001C16.6133 31.0001 17.1649 30.6266 17.3927 30.0571L18.7863 26.573C20.1671 23.121 23.3984 20.7611 27.1068 20.4962C27.9331 20.4372 28.5552 19.7195 28.4961 18.8931C28.4371 18.0668 27.7194 17.4448 26.8931 17.5038C23.091 17.7754 19.6721 19.7292 17.4999 22.7344V12.9565C21.384 12.1543 24.0998 8.28978 24.0998 4C24.0998 3.17157 23.4282 2.5 22.5998 2.5Z" fill="currentColor"/>
</svg>
