<svg width="32" height="32" viewBox="0 0 32 32" fill="none" xmlns="http://www.w3.org/2000/svg">
<path fill-rule="evenodd" clip-rule="evenodd" d="M17.2483 0.571327L28.3084 5.63199C29.338 6.10309 30.014 7.10978 29.9902 8.24176C29.9231 11.4384 29.4566 18.0847 26.879 22.4002C24.4783 26.4196 19.7467 29.7074 17.395 31.1744C16.5348 31.711 15.4655 31.711 14.6052 31.1744C12.2535 29.7073 7.52195 26.4196 5.12126 22.4002C2.54371 18.0847 2.07719 11.4384 2.01005 8.24177C1.98628 7.10978 2.66228 6.10308 3.69186 5.63199L14.7519 0.571327C15.5445 0.208646 16.4557 0.208646 17.2483 0.571327ZM16 7.50006C16.8284 7.50006 17.5 8.17163 17.5 9.00006V15.0001C17.5 15.8285 16.8284 16.5001 16 16.5001C15.1716 16.5001 14.5 15.8285 14.5 15.0001V9.00006C14.5 8.17163 15.1716 7.50006 16 7.50006ZM16 23.5001C17.1046 23.5001 18 22.6046 18 21.5001C18 20.3955 17.1046 19.5001 16 19.5001C14.8954 19.5001 14 20.3955 14 21.5001C14 22.6046 14.8954 23.5001 16 23.5001Z" fill="currentColor"/>
</svg>
