<svg width="32" height="32" viewBox="0 0 32 32" fill="none" xmlns="http://www.w3.org/2000/svg">
<path fill-rule="evenodd" clip-rule="evenodd" d="M28.3083 5.63187L17.2483 0.571205C16.4556 0.208524 15.5444 0.208524 14.7518 0.571205L3.69177 5.63187C2.66219 6.10296 1.98619 7.10966 2.00996 8.24165C2.0771 11.4383 2.54362 18.0846 5.12117 22.4001C7.52186 26.4195 12.2535 29.7072 14.6051 31.1743C15.4654 31.7109 16.5347 31.7109 17.3949 31.1743C19.7466 29.7072 24.4782 26.4195 26.8789 22.4001C29.4565 18.0846 29.923 11.4382 29.9901 8.24164C30.0139 7.10966 29.3379 6.10297 28.3083 5.63187ZM22.0992 13.0207C22.6629 12.4136 22.6277 11.4645 22.0207 10.9008C21.4136 10.3371 20.4645 10.3723 19.9008 10.9793L14.6519 16.632L13.2206 14.6281C12.7391 13.954 11.8023 13.7979 11.1281 14.2794C10.454 14.7609 10.2979 15.6977 10.7794 16.3719L13.2794 19.8719C13.5413 20.2386 13.9543 20.4681 14.404 20.4969C14.8537 20.5258 15.2925 20.3509 15.5992 20.0207L22.0992 13.0207Z" fill="currentColor"/>
</svg>
