<svg width="32" height="32" viewBox="0 0 32 32" fill="none" xmlns="http://www.w3.org/2000/svg">
<path fill-rule="evenodd" clip-rule="evenodd" d="M16.5939 0.622579C16.2148 0.45914 15.7852 0.45914 15.4061 0.622579L2.41804 6.22258C1.8884 6.45094 1.53661 6.96276 1.51318 7.53906L3.01194 7.6C1.51318 7.53906 1.51316 7.53938 1.51315 7.53973L1.51312 7.54061L1.51302 7.54297L1.51275 7.55012L1.51189 7.57399C1.5112 7.59412 1.51028 7.62261 1.50926 7.65907C1.50723 7.73198 1.50478 7.83683 1.50292 7.97051C1.49919 8.23777 1.49776 8.62087 1.50654 9.09486C1.52407 10.0413 1.58246 11.3581 1.74643 12.8434C2.06856 15.7617 2.81891 19.5437 4.63127 22.403C6.31237 25.0553 9.03501 27.2927 11.2291 28.8273C12.3433 29.6066 13.3576 30.2294 14.0946 30.6583C14.4637 30.873 14.7646 31.0399 14.9756 31.1543C15.0811 31.2115 15.1642 31.2557 15.2221 31.2861L15.2899 31.3215L15.3091 31.3314L15.3148 31.3344L15.3168 31.3354L15.3175 31.3357C15.3178 31.3359 15.318 31.336 16 30L15.318 31.336C15.7464 31.5547 16.2537 31.5547 16.682 31.336C16.7186 31.3173 18.5509 30.3803 20.7735 28.8255C22.9671 27.291 25.6883 25.0543 27.3688 22.403C29.1812 19.5437 29.9315 15.7617 30.2536 12.8434C30.4176 11.358 30.4759 10.0413 30.4935 9.09485C30.5022 8.62086 30.5008 8.23776 30.4971 7.9705C30.4952 7.83681 30.4928 7.73197 30.4907 7.65905C30.4897 7.6226 30.4888 7.59411 30.4881 7.57398L30.4872 7.55011L30.487 7.54296L30.4869 7.5406L30.4868 7.53972C30.4868 7.53937 30.4868 7.53905 28.9881 7.6L30.4868 7.53905C30.4634 6.96276 30.1116 6.45094 29.582 6.22258L16.5939 0.622579ZM4.50602 9.03929C4.50303 8.87774 4.50133 8.72812 4.50054 8.59165L16 3.63349L27.4995 8.59166C27.4987 8.72812 27.497 8.87774 27.494 9.0393C27.4777 9.91734 27.4234 11.1401 27.2717 12.5143C26.9625 15.3153 26.2698 18.5333 24.8349 20.797C23.4773 22.9388 21.1503 24.9007 19.0539 26.3672C17.7987 27.2453 16.679 27.9097 16 28.2926C15.8808 28.2254 15.748 28.1495 15.6034 28.0653C14.9212 27.6684 13.9799 27.0903 12.9485 26.3689C10.8516 24.9023 8.52332 22.9397 7.16514 20.797C5.7303 18.5332 5.03751 15.3153 4.72831 12.5143C4.57662 11.1401 4.52229 9.91733 4.50602 9.03929ZM22.0992 13.0207C22.6629 12.4136 22.6277 11.4645 22.0207 10.9008C21.4136 10.3371 20.4645 10.3723 19.9008 10.9793L14.6519 16.632L13.2206 14.6281C12.7391 13.954 11.8023 13.7979 11.1281 14.2794C10.454 14.7609 10.2979 15.6977 10.7794 16.3719L13.2794 19.8719C13.5413 20.2386 13.9543 20.4681 14.404 20.4969C14.8537 20.5258 15.2926 20.3509 15.5992 20.0207L22.0992 13.0207Z" fill="currentColor"/>
</svg>
