<svg width="32" height="32" viewBox="0 0 32 32" fill="none" xmlns="http://www.w3.org/2000/svg">
<path fill-rule="evenodd" clip-rule="evenodd" d="M28.3084 5.63187L17.2483 0.571205C16.4557 0.208524 15.5445 0.208524 14.7519 0.571205L3.69185 5.63187C2.66227 6.10296 1.98626 7.10966 2.01004 8.24165C2.07717 11.4383 2.5437 18.0846 5.12125 22.4001C7.52194 26.4195 12.2535 29.7072 14.6052 31.1743C15.4654 31.7109 16.5348 31.7109 17.395 31.1743C19.7467 29.7072 24.4783 26.4195 26.879 22.4001C29.4566 18.0846 29.9231 11.4382 29.9902 8.24164C30.0139 7.10966 29.3379 6.10297 28.3084 5.63187ZM20 13.6667C20 15.1702 19.0128 16.4624 17.6 17.0282V19.5333C17.6 20.3434 16.8837 21 16 21C15.1164 21 14.4 20.3434 14.4 19.5333V17.0282C12.9873 16.4624 12 15.1702 12 13.6667C12 11.6416 13.7909 10 16 10C18.2092 10 20 11.6416 20 13.6667Z" fill="currentColor"/>
</svg>
