<svg width="32" height="32" viewBox="0 0 32 32" fill="none" xmlns="http://www.w3.org/2000/svg">
<path fill-rule="evenodd" clip-rule="evenodd" d="M15.4061 0.622579C15.7852 0.45914 16.2148 0.45914 16.5939 0.622579L29.582 6.22258C30.1116 6.45094 30.4634 6.96276 30.4868 7.53905L28.9881 7.6C30.4868 7.53905 30.4868 7.53937 30.4868 7.53972L30.4869 7.5406L30.487 7.54296L30.4872 7.55011L30.4881 7.57398C30.4888 7.59411 30.4897 7.6226 30.4907 7.65905C30.4928 7.73197 30.4952 7.83681 30.4971 7.9705C30.5008 8.23776 30.5022 8.62086 30.4935 9.09485C30.4759 10.0413 30.4176 11.358 30.2536 12.8434C29.9315 15.7617 29.1812 19.5437 27.3688 22.403C25.6883 25.0543 22.9671 27.291 20.7735 28.8255C18.5509 30.3803 16.7186 31.3173 16.682 31.336C16.2537 31.5547 15.7464 31.5547 15.318 31.336L16 30C15.318 31.336 15.3178 31.3359 15.3175 31.3357L15.3168 31.3354L15.3148 31.3344L15.3091 31.3314L15.2899 31.3215L15.2221 31.2861C15.1642 31.2557 15.0811 31.2115 14.9756 31.1543C14.7646 31.0399 14.4637 30.873 14.0946 30.6583C13.3576 30.2294 12.3433 29.6066 11.2291 28.8273C9.03501 27.2927 6.31237 25.0553 4.63127 22.403C2.81891 19.5437 2.06856 15.7617 1.74643 12.8434C1.58246 11.3581 1.52407 10.0413 1.50654 9.09486C1.49776 8.62087 1.49919 8.23777 1.50292 7.97051C1.50478 7.83683 1.50723 7.73198 1.50926 7.65907C1.51028 7.62261 1.5112 7.59412 1.51189 7.57399L1.51275 7.55012L1.51302 7.54297L1.51312 7.54061L1.51315 7.53973C1.51316 7.53938 1.51318 7.53906 3.01194 7.6L1.51318 7.53906C1.53661 6.96276 1.8884 6.45094 2.41804 6.22258L15.4061 0.622579ZM4.50054 8.59165C4.50133 8.72812 4.50303 8.87774 4.50602 9.03929C4.52229 9.91733 4.57662 11.1401 4.72831 12.5143C5.03751 15.3153 5.7303 18.5332 7.16514 20.797C8.52332 22.9397 10.8516 24.9023 12.9485 26.3689C13.9799 27.0903 14.9212 27.6684 15.6034 28.0653C15.748 28.1495 15.8808 28.2254 16 28.2926C16.679 27.9097 17.7987 27.2453 19.0539 26.3672C21.1503 24.9007 23.4773 22.9388 24.8349 20.797C26.2698 18.5333 26.9625 15.3153 27.2717 12.5143C27.4234 11.1401 27.4777 9.91734 27.494 9.0393C27.497 8.87774 27.4987 8.72812 27.4995 8.59166L16 3.63349L4.50054 8.59165ZM17.5 16.5987C18.3967 16.0799 19 15.1104 19 14C19 12.3432 17.6569 11 16 11C14.3431 11 13 12.3432 13 14C13 15.1104 13.6033 16.0799 14.5 16.5987V18.5C14.5 19.3284 15.1716 20 16 20C16.8284 20 17.5 19.3284 17.5 18.5V16.5987Z" fill="currentColor"/>
</svg>
