<svg width="32" height="32" viewBox="0 0 32 32" fill="none" xmlns="http://www.w3.org/2000/svg">
<path fill-rule="evenodd" clip-rule="evenodd" d="M22.4393 12.5607C21.8536 11.9749 21.8536 11.0251 22.4393 10.4393C23.0251 9.85355 23.9749 9.85355 24.5607 10.4393L29.0607 14.9394C29.6464 15.5251 29.6464 16.4749 29.0607 17.0607L24.5607 21.5607C23.9749 22.1464 23.0251 22.1464 22.4393 21.5607C21.8536 20.9749 21.8536 20.0251 22.4393 19.4393L25.8787 16L22.4393 12.5607ZM4 17.5C3.17157 17.5 2.5 16.8284 2.5 16C2.5 15.1716 3.17157 14.5 4 14.5L16.3787 14.5L14.4393 12.5607C13.8536 11.9749 13.8536 11.0251 14.4393 10.4393C15.0251 9.85355 15.9749 9.85355 16.5607 10.4393L21.0607 14.9394C21.342 15.2207 21.5 15.6022 21.5 16C21.5 16.3978 21.342 16.7794 21.0607 17.0607L16.5607 21.5607C15.9749 22.1464 15.0251 22.1464 14.4393 21.5607C13.8536 20.9749 13.8536 20.0251 14.4393 19.4393L16.3787 17.5L4 17.5Z" fill="currentColor"/>
</svg>
