<svg width="32" height="32" viewBox="0 0 32 32" fill="none" xmlns="http://www.w3.org/2000/svg">
<path fill-rule="evenodd" clip-rule="evenodd" d="M16 27.5001C9.64873 27.5001 4.5 22.3513 4.5 16.0001C4.5 9.85194 9.32507 4.83022 15.3943 4.51571L27.4844 16.6057C27.1698 22.675 22.1481 27.5001 16 27.5001ZM1.5 16.0001C1.5 24.0082 7.99187 30.5001 16 30.5001C23.8535 30.5001 30.2483 24.2569 30.4928 16.4622C30.5148 15.7598 30.2312 15.11 29.7678 14.6465L17.3536 2.2323C16.8901 1.76882 16.2402 1.48527 15.5379 1.5073C7.74313 1.75179 1.5 8.14656 1.5 16.0001ZM13.3412 17.9949C12.9702 17.2542 12.069 16.9545 11.3283 17.3254C10.5875 17.6964 10.2878 18.5977 10.6588 19.3384C11.663 21.3433 13.6222 22.8333 16 22.8333C18.3778 22.8333 20.337 21.3433 21.3412 19.3384C21.7122 18.5977 21.4125 17.6964 20.6717 17.3254C19.931 16.9545 19.0298 17.2542 18.6588 17.9949C18.0661 19.1782 17.0407 19.8333 16 19.8333C14.9593 19.8333 13.9339 19.1782 13.3412 17.9949Z" fill="currentColor"/>
</svg>
