<svg width="32" height="32" viewBox="0 0 32 32" fill="none" xmlns="http://www.w3.org/2000/svg">
<path fill-rule="evenodd" clip-rule="evenodd" d="M5.5 8.5C5.5 6.84315 6.84315 5.5 8.5 5.5C10.1569 5.5 11.5 6.84315 11.5 8.5C11.5 10.1569 10.1569 11.5 8.5 11.5C6.84315 11.5 5.5 10.1569 5.5 8.5ZM8.5 2.5C5.18629 2.5 2.5 5.18629 2.5 8.5C2.5 11.8137 5.18629 14.5 8.5 14.5C11.8137 14.5 14.5 11.8137 14.5 8.5C14.5 5.18629 11.8137 2.5 8.5 2.5ZM22 30C26.4183 30 30 26.4183 30 22C30 17.5817 26.4183 14 22 14C17.5817 14 14 17.5817 14 22C14 26.4183 17.5817 30 22 30Z" fill="currentColor"/>
</svg>
