<svg width="32" height="32" viewBox="0 0 32 32" fill="none" xmlns="http://www.w3.org/2000/svg">
<path fill-rule="evenodd" clip-rule="evenodd" d="M22.2969 2.24631C21.8806 1.53005 20.9626 1.28685 20.2463 1.7031C19.5301 2.11935 19.2868 3.03744 19.7031 3.75369C21.525 6.88874 22.5 11.8517 22.5 16C22.5 20.1483 21.525 25.1113 19.7031 28.2463C19.2868 28.9626 19.5301 29.8806 20.2463 30.2969C20.9626 30.7132 21.8806 30.4699 22.2969 29.7537C24.475 26.0058 25.5 20.4638 25.5 16C25.5 11.5362 24.475 5.99419 22.2969 2.24631ZM17.3231 6.2934C16.9329 5.56264 16.0241 5.28661 15.2934 5.67686C14.5626 6.06711 14.2866 6.97586 14.6769 7.70661C15.5857 9.40843 16.5 12.4716 16.5 16C16.5 19.5284 15.5857 22.5916 14.6769 24.2934C14.2866 25.0241 14.5626 25.9329 15.2934 26.3231C16.0241 26.7134 16.9329 26.4374 17.3231 25.7066C18.4809 23.5387 19.5 19.9847 19.5 16C19.5 12.0153 18.4809 8.46129 17.3231 6.2934ZM10.4429 9.60729C11.2121 9.29962 12.085 9.67374 12.3927 10.4429C12.7497 11.3353 13.5 13.2136 13.5 16C13.5 18.7864 12.7497 20.6647 12.3927 21.5571C12.085 22.3263 11.2121 22.7004 10.4429 22.3927C9.67374 22.085 9.29962 21.2121 9.60729 20.4429L9.60832 20.4403C9.9183 19.6654 10.5 18.2111 10.5 16C10.5 13.7889 9.9183 12.3346 9.60832 11.5597L9.60729 11.5571C9.29962 10.7879 9.67374 9.91496 10.4429 9.60729ZM7.42301 13.5257C7.16104 12.7397 6.31156 12.315 5.52565 12.577C4.73973 12.8389 4.31499 13.6884 4.57696 14.4743C4.79497 15.1284 4.87499 15.587 4.87499 16C4.87499 16.413 4.79497 16.8716 4.57696 17.5257C4.31499 18.3116 4.73973 19.1611 5.52565 19.423C6.31156 19.685 7.16104 19.2603 7.42301 18.4743C7.705 17.6284 7.87499 16.837 7.87499 16C7.87499 15.163 7.705 14.3716 7.42301 13.5257Z" fill="currentColor"/>
</svg>
