<svg width="32" height="32" viewBox="0 0 32 32" fill="none" xmlns="http://www.w3.org/2000/svg">
<path fill-rule="evenodd" clip-rule="evenodd" d="M14.5 1C14.2239 1 14 1.22386 14 1.5V3.5C14 3.77614 14.2239 4 14.5 4H18.5L20 1H14.5ZM16 6C10.1453 6 6.19494 9.80858 6.00701 11.8512C5.99942 11.9337 6.06716 12 6.15 12H25.85C25.9328 12 26.0006 11.9337 25.993 11.8512C25.8051 9.80858 21.8547 6 16 6ZM1.5 16C1.5 15.1716 2.17157 14.5 3 14.5H6H12.0563H19.9437H26H29C29.8284 14.5 30.5 15.1716 30.5 16C30.5 16.8284 29.8284 17.5 29 17.5H27.5V24.5H29C29.8284 24.5 30.5 25.1716 30.5 26C30.5 26.8284 29.8284 27.5 29 27.5H26H19.9437H12.0563H6H3C2.17157 27.5 1.5 26.8284 1.5 26C1.5 25.1716 2.17157 24.5 3 24.5H4.5V17.5H3C2.17157 17.5 1.5 16.8284 1.5 16ZM7.5 24.5H10.5563V17.5H7.5V24.5ZM13.5563 24.5H18.4437V17.5H13.5563V24.5ZM21.4437 24.5H24.5V17.5H21.4437V24.5Z" fill="currentColor"/>
</svg>
