<svg width="32" height="32" viewBox="0 0 32 32" fill="none" xmlns="http://www.w3.org/2000/svg">
<path fill-rule="evenodd" clip-rule="evenodd" d="M5 4.5C4.17157 4.5 3.5 5.17157 3.5 6L3.5 9.5C3.5 10.3284 4.17157 11 5 11C5.82843 11 6.5 10.3284 6.5 9.5V7.5L14.5 7.5L14.5 24.5H12C11.1716 24.5 10.5 25.1716 10.5 26C10.5 26.8284 11.1716 27.5 12 27.5H16L20 27.5C20.8284 27.5 21.5 26.8284 21.5 26C21.5 25.1716 20.8284 24.5 20 24.5L17.5 24.5V7.5L25.5 7.5V9.5C25.5 10.3284 26.1716 11 27 11C27.8284 11 28.5 10.3284 28.5 9.5V6C28.5 5.17157 27.8284 4.5 27 4.5L16 4.5L5 4.5Z" fill="currentColor"/>
</svg>
