<svg width="32" height="32" viewBox="0 0 32 32" fill="none" xmlns="http://www.w3.org/2000/svg">
<path fill-rule="evenodd" clip-rule="evenodd" d="M12.2143 1.5C11.3859 1.5 10.7143 2.17157 10.7143 3C10.7143 3.82843 11.3859 4.5 12.2143 4.5H15.5H18.7857C19.6141 4.5 20.2857 3.82843 20.2857 3C20.2857 2.17157 19.6141 1.5 18.7857 1.5H15.5H12.2143ZM5.5 19.1111C5.5 13.5793 9.93408 9.33333 15.5 9.33333C18.4421 9.33333 21.0712 10.5238 22.8931 12.4009C24.4827 14.0387 25.5 16.6302 25.5 19.1111C25.5 24.2203 21.1011 28.5 15.5 28.5C9.89892 28.5 5.5 24.2203 5.5 19.1111ZM15.5 6.33333C8.36337 6.33333 2.5 11.8376 2.5 19.1111C2.5 26.0294 8.39852 31.5 15.5 31.5C22.6015 31.5 28.5 26.0294 28.5 19.1111C28.5 16.4745 27.631 13.7299 26.1094 11.5925L27.9207 10.1842C28.5747 9.6757 28.6927 8.73331 28.1842 8.0793C27.6757 7.42529 26.7333 7.30732 26.0793 7.81581L24.0528 9.39138C21.761 7.48225 18.7649 6.33333 15.5 6.33333ZM9.08226 18.0042C9.50251 15.4883 11.4883 13.5025 14.0042 13.0823C14.5489 12.9913 15 13.4477 15 14V18C15 18.5523 14.5523 19 14 19H10C9.44772 19 8.99127 18.5489 9.08226 18.0042Z" fill="currentColor"/>
</svg>
