<svg width="32" height="32" viewBox="0 0 32 32" fill="none" xmlns="http://www.w3.org/2000/svg">
<path fill-rule="evenodd" clip-rule="evenodd" d="M7.00008 2.5C6.17166 2.5 5.50008 3.17157 5.50008 3.99999L5.50005 8.39443C5.50004 9.89903 6.252 11.3041 7.5039 12.1387L13.2959 16L7.50391 19.8613C6.252 20.6959 5.50003 22.101 5.50005 23.6056L5.50008 28C5.50008 28.8284 6.17166 29.5 7.00008 29.5H25.0001C25.8285 29.5 26.5001 28.8284 26.5001 28V23.6055C26.5001 22.101 25.7481 20.6959 24.4962 19.8613L18.7042 16L24.4962 12.1387C25.7481 11.3041 26.5 9.89904 26.5 8.39445V4C26.5 3.17157 25.8285 2.5 25 2.5H7.00008ZM8.50005 8.39445L8.50007 5.5H23.5V8.39445C23.5 8.60615 23.4554 8.81193 23.3724 9H8.62771C8.54471 8.81193 8.50005 8.60614 8.50005 8.39445ZM14.5001 18.8028L9.168 22.3575C8.7507 22.6357 8.50004 23.104 8.50005 23.6056L8.50007 26.5H23.5001V23.6055C23.5001 23.104 23.2494 22.6357 22.8321 22.3575L17.5001 18.8028V22C17.5001 22.8284 16.8285 23.5 16.0001 23.5C15.1717 23.5 14.5001 22.8284 14.5001 22V18.8028Z" fill="currentColor"/>
</svg>
