<svg width="32" height="32" viewBox="0 0 32 32" fill="none" xmlns="http://www.w3.org/2000/svg">
<path fill-rule="evenodd" clip-rule="evenodd" d="M7.86827 7.86827C12.3593 3.37724 19.6407 3.37724 24.1317 7.86827C28.6228 12.3593 28.6228 19.6407 24.1317 24.1317C19.6407 28.6228 12.3593 28.6228 7.86827 24.1317C3.37724 19.6407 3.37724 12.3593 7.86827 7.86827ZM26.253 5.74695C20.5904 0.0843507 11.4096 0.0843483 5.74695 5.74695C0.0843496 11.4096 0.0843494 20.5904 5.74695 26.253C11.4096 31.9156 20.5904 31.9156 26.253 26.253C31.9157 20.5904 31.9156 11.4096 26.253 5.74695ZM17.5 11C17.5 10.1716 16.8284 9.5 16 9.5C15.1716 9.5 14.5 10.1716 14.5 11V17C14.5 17.715 15.0047 18.3306 15.7058 18.4709L20.7058 19.4709C21.5182 19.6333 22.3084 19.1065 22.4709 18.2942C22.6333 17.4818 22.1065 16.6916 21.2942 16.5291L17.5 15.7703V11Z" fill="currentColor"/>
</svg>
