<svg width="32" height="32" viewBox="0 0 32 32" fill="none" xmlns="http://www.w3.org/2000/svg">
<path fill-rule="evenodd" clip-rule="evenodd" d="M16 30C23.732 30 30 23.732 30 16C30 8.26801 23.732 2 16 2C8.26801 2 2 8.26801 2 16C2 23.732 8.26801 30 16 30ZM17.5 11C17.5 10.1716 16.8284 9.5 16 9.5C15.1716 9.5 14.5 10.1716 14.5 11V17C14.5 17.715 15.0047 18.3306 15.7058 18.4709L20.7058 19.4709C21.5182 19.6333 22.3084 19.1065 22.4709 18.2942C22.6333 17.4818 22.1065 16.6916 21.2942 16.5291L17.5 15.7703V11Z" fill="currentColor"/>
</svg>
