<svg width="32" height="32" viewBox="0 0 32 32" fill="none" xmlns="http://www.w3.org/2000/svg">
<path fill-rule="evenodd" clip-rule="evenodd" d="M30.1451 11.5311C30.6802 12.1635 30.6013 13.11 29.9689 13.6451C29.3365 14.1802 28.39 14.1013 27.8549 13.4689L24.9999 10.0949L24.9999 26C24.9999 26.8285 24.3283 27.5 23.4999 27.5C22.6715 27.5 21.9999 26.8285 21.9999 26L21.9999 10.095L19.1451 13.4689C18.61 14.1013 17.6635 14.1802 17.0311 13.6451C16.3987 13.11 16.3198 12.1635 16.8549 11.5311L22.3548 5.0311C22.6398 4.69427 23.0587 4.5 23.4999 4.5C23.9411 4.5 24.36 4.69426 24.645 5.03108L30.1451 11.5311ZM15.1451 20.4689C15.6802 19.8365 15.6013 18.8901 14.9689 18.3549C14.3365 17.8198 13.39 17.8987 12.8549 18.5311L9.99992 21.9052V6.00002C9.99992 5.1716 9.32834 4.50002 8.49992 4.50002C7.67149 4.50002 6.99992 5.1716 6.99992 6.00002L6.99992 21.9051L4.14509 18.5311C3.60998 17.8987 2.66351 17.8198 2.0311 18.3549C1.39868 18.89 1.3198 19.8365 1.85491 20.4689L7.35483 26.9689C7.63983 27.3058 8.05868 27.5 8.49991 27.5C8.94113 27.5 9.35998 27.3058 9.64499 26.969L15.1451 20.4689Z" fill="currentColor"/>
</svg>
