<svg width="32" height="32" viewBox="0 0 32 32" fill="none" xmlns="http://www.w3.org/2000/svg">
<path fill-rule="evenodd" clip-rule="evenodd" d="M12.5 4C12.5 3.17157 13.1716 2.5 14 2.5H18C21.0375 2.5 23.5 4.96245 23.5 8.00004C23.5 11.0376 21.0375 13.5001 18 13.5001H9.99997C7.5147 13.5001 5.5 15.5148 5.5 18.0001C5.5 20.4853 7.5147 22.5 9.99995 22.5L23.9051 22.5001L20.5311 19.6451C19.8987 19.11 19.8198 18.1635 20.3549 17.5311C20.8901 16.8987 21.8365 16.8198 22.4689 17.3549L28.9689 22.855C29.3057 23.14 29.5 23.5589 29.5 24.0001C29.5 24.4413 29.3057 24.8602 28.9689 25.1452L22.4689 30.6451C21.8365 31.1802 20.89 31.1013 20.3549 30.4689C19.8198 29.8365 19.8987 28.89 20.5311 28.3549L23.9051 25.5001L9.99994 25.5C5.85783 25.5 2.5 22.1422 2.5 18.0001C2.5 13.8579 5.85785 10.5001 9.99997 10.5001H18C19.3807 10.5001 20.5 9.38077 20.5 8.00004C20.5 6.61931 19.3807 5.5 18 5.5H14C13.1716 5.5 12.5 4.82843 12.5 4Z" fill="currentColor"/>
</svg>
