<svg width="32" height="32" viewBox="0 0 32 32" fill="none" xmlns="http://www.w3.org/2000/svg">
<path fill-rule="evenodd" clip-rule="evenodd" d="M9.56067 5.43935C10.1465 6.02515 10.1464 6.9749 9.56065 7.56067L7.62139 9.49988L20 9.49988C25.2467 9.49988 29.5 13.7532 29.5 18.9999L29.5 21C29.5 21.8284 28.8284 22.5 28 22.5C27.1716 22.5 26.5 21.8284 26.5 21L26.5 18.9999C26.5 15.41 23.5898 12.4999 20 12.4999L7.62125 12.4999L9.56067 14.4394C10.1465 15.0251 10.1464 15.9749 9.56065 16.5607C8.97485 17.1465 8.0251 17.1464 7.43933 16.5606L2.93933 12.0605C2.65802 11.7792 2.49999 11.3977 2.5 10.9999C2.50001 10.602 2.65805 10.2205 2.93935 9.9392L7.43935 5.43933C8.02515 4.85355 8.9749 4.85356 9.56067 5.43935Z" fill="currentColor"/>
</svg>
