<svg width="32" height="32" viewBox="0 0 32 32" fill="none" xmlns="http://www.w3.org/2000/svg">
<path fill-rule="evenodd" clip-rule="evenodd" d="M4.5 9C4.5 8.17157 5.17157 7.5 6 7.5H26C26.8284 7.5 27.5 8.17157 27.5 9V23C27.5 23.8284 26.8284 24.5 26 24.5H6C5.17157 24.5 4.5 23.8284 4.5 23V9ZM6 4.5C3.51472 4.5 1.5 6.51472 1.5 9V23C1.5 25.4853 3.51472 27.5 6 27.5H26C28.4853 27.5 30.5 25.4853 30.5 23V9C30.5 6.51472 28.4853 4.5 26 4.5H6ZM8 10.5C7.17157 10.5 6.5 11.1716 6.5 12C6.5 12.8284 7.17157 13.5 8 13.5H24C24.8284 13.5 25.5 12.8284 25.5 12C25.5 11.1716 24.8284 10.5 24 10.5H8Z" fill="currentColor"/>
</svg>
