<svg width="56" height="14" viewBox="0 0 56 14" fill="none" xmlns="http://www.w3.org/2000/svg">
<path d="M22.1 8.2L25.19 12H22.75L20 8.51V12H18V2H20V7.88L22.54 5H25.09L22.1 8.2ZM14.1 4.8C13.6621 4.80655 13.2323 4.91914 12.8474 5.12813C12.4625 5.33712 12.134 5.63629 11.89 6V6V5H10V12H12V8.73C11.9737 8.49265 11.9966 8.25244 12.0672 8.02431C12.1378 7.79619 12.2546 7.58503 12.4103 7.40399C12.566 7.22294 12.7573 7.07589 12.9723 6.97198C13.1873 6.86807 13.4214 6.80953 13.66 6.8C14.82 6.8 15 7.94 15 8.73V12H17V8.29C17 6.09 16.27 4.8 14.14 4.8H14.1ZM32 8.66C32.0077 8.80657 32.0077 8.95343 32 9.1H26.75V9.17C26.8352 9.58701 27.0662 9.96 27.4016 10.2221C27.737 10.4841 28.1548 10.6181 28.58 10.6C28.9173 10.6147 29.2542 10.5611 29.5703 10.4426C29.8865 10.324 30.1755 10.1429 30.42 9.91L31.75 10.91C31.3285 11.3402 30.8215 11.6772 30.2617 11.8994C29.7019 12.1216 29.1018 12.224 28.5 12.2C28.0016 12.2315 27.5023 12.1557 27.0357 11.9777C26.5691 11.7997 26.1462 11.5236 25.7955 11.1681C25.4447 10.8127 25.1744 10.3861 25.0026 9.91714C24.8309 9.44823 24.7618 8.94791 24.8 8.45C24.7898 7.95847 24.8809 7.4701 25.0676 7.01533C25.2544 6.56056 25.5329 6.14913 25.8856 5.80669C26.2384 5.46426 26.6579 5.19814 27.118 5.02495C27.5781 4.85175 28.069 4.77517 28.56 4.8C30.44 4.8 32 6.13 32 8.66ZM30.14 7.8C30.1327 7.60192 30.0851 7.40741 30.0001 7.22833C29.9151 7.04924 29.7946 6.88933 29.6458 6.75834C29.4971 6.62735 29.3232 6.52803 29.1348 6.46642C28.9464 6.40481 28.7474 6.38221 28.55 6.4C28.127 6.35426 27.7027 6.47473 27.3669 6.73596C27.031 6.99719 26.8098 7.37873 26.75 7.8H30.14ZM2 2H0V12H6V10H2V2ZM38 2H40V12H38.11V11.3C37.87 11.5957 37.5641 11.8311 37.2168 11.9874C36.8695 12.1437 36.4905 12.2165 36.11 12.2C35.6452 12.1881 35.1877 12.0812 34.7657 11.886C34.3437 11.6907 33.9661 11.4112 33.6561 11.0647C33.3461 10.7182 33.1102 10.3119 32.963 9.87082C32.8158 9.42977 32.7603 8.96327 32.8 8.5C32.7528 8.03606 32.8026 7.56736 32.9464 7.12374C33.0902 6.68012 33.3248 6.27129 33.6352 5.92326C33.9456 5.57523 34.325 5.29563 34.7494 5.10225C35.1737 4.90886 35.6337 4.80593 36.1 4.8C36.4473 4.78479 36.7942 4.83885 37.1204 4.95903C37.4466 5.07921 37.7456 5.26311 38 5.5V5.5V2ZM38.15 8.5C38.1815 8.26908 38.163 8.0341 38.096 7.8109C38.0289 7.58771 37.9147 7.38149 37.7612 7.20616C37.6077 7.03083 37.4183 6.89046 37.2059 6.79452C36.9935 6.69858 36.7631 6.6493 36.53 6.65C36.0701 6.68339 35.6417 6.89591 35.3369 7.24187C35.0321 7.58783 34.8752 8.03958 34.9 8.5C34.8752 8.96042 35.0321 9.41217 35.3369 9.75813C35.6417 10.1041 36.0701 10.3166 36.53 10.35C36.7631 10.3507 36.9935 10.3014 37.2059 10.2055C37.4183 10.1095 37.6077 9.96917 37.7612 9.79384C37.9147 9.61851 38.0289 9.41229 38.096 9.1891C38.163 8.9659 38.1815 8.73092 38.15 8.5ZM8 1.8C7.67843 1.80458 7.37056 1.93099 7.13856 2.15371C6.90656 2.37643 6.76769 2.67888 6.75 3C6.75 3.33152 6.8817 3.64946 7.11612 3.88388C7.35054 4.1183 7.66848 4.25 8 4.25C8.33152 4.25 8.64946 4.1183 8.88388 3.88388C9.1183 3.64946 9.25 3.33152 9.25 3C9.23231 2.67888 9.09344 2.37643 8.86144 2.15371C8.62944 1.93099 8.32157 1.80458 8 1.8V1.8ZM7 12H9V5H7V12ZM56 1V13C56 13.2652 55.8946 13.5196 55.7071 13.7071C55.5196 13.8946 55.2652 14 55 14H43C42.7348 14 42.4804 13.8946 42.2929 13.7071C42.1054 13.5196 42 13.2652 42 13V1C42 0.734784 42.1054 0.48043 42.2929 0.292893C42.4804 0.105357 42.7348 0 43 0L55 0C55.2652 0 55.5196 0.105357 55.7071 0.292893C55.8946 0.48043 56 0.734784 56 1ZM46 5H44V12H46V5ZM46.25 3C46.25 2.66848 46.1183 2.35054 45.8839 2.11612C45.6495 1.8817 45.3315 1.75 45 1.75C44.6685 1.75 44.3505 1.8817 44.1161 2.11612C43.8817 2.35054 43.75 2.66848 43.75 3C43.75 3.33152 43.8817 3.64946 44.1161 3.88388C44.3505 4.1183 44.6685 4.25 45 4.25C45.3315 4.25 45.6495 4.1183 45.8839 3.88388C46.1183 3.64946 46.25 3.33152 46.25 3V3ZM54 8.29C54 6.09 53.27 4.8 51.14 4.8C50.6953 4.80005 50.2574 4.90955 49.865 5.11882C49.4726 5.3281 49.1378 5.63072 48.89 6V6V5H47V12H49V8.73C48.9737 8.49265 48.9966 8.25244 49.0672 8.02431C49.1378 7.79619 49.2546 7.58503 49.4103 7.40399C49.566 7.22294 49.7573 7.07589 49.9723 6.97198C50.1873 6.86807 50.4214 6.80953 50.66 6.8C51.82 6.8 52 7.94 52 8.73V12H54V8.29Z" fill="white"/>
</svg>
