<svg width="21" height="21" viewBox="0 0 21 21" fill="none" xmlns="http://www.w3.org/2000/svg">
<path d="M19.5 0H1.5C1.10218 0 0.720643 0.158035 0.439339 0.43934C0.158034 0.720644 0 1.10218 0 1.5V19.5C0 19.8978 0.158034 20.2794 0.439339 20.5607C0.720643 20.842 1.10218 21 1.5 21H19.5C19.8978 21 20.2794 20.842 20.5607 20.5607C20.842 20.2794 21 19.8978 21 19.5V1.5C21 1.10218 20.842 0.720644 20.5607 0.43934C20.2794 0.158035 19.8978 0 19.5 0V0ZM6 18H3V8H6V18ZM4.5 6.25C4.15618 6.24017 3.82288 6.12924 3.54175 5.93108C3.26061 5.73291 3.04412 5.45629 2.9193 5.13578C2.79448 4.81527 2.76688 4.46508 2.83994 4.12897C2.91301 3.79286 3.0835 3.48574 3.33012 3.24597C3.57673 3.00621 3.88853 2.84443 4.22656 2.78086C4.56459 2.71729 4.91387 2.75475 5.23074 2.88854C5.5476 3.02234 5.81801 3.24655 6.00819 3.53315C6.19836 3.81975 6.29986 4.15604 6.3 4.5C6.3001 4.73408 6.25323 4.9658 6.16217 5.18145C6.07111 5.3971 5.93773 5.59228 5.76989 5.75546C5.60205 5.91863 5.40318 6.04647 5.18506 6.13142C4.96693 6.21637 4.73399 6.25669 4.5 6.25V6.25ZM18 18H15V12.91C15 11.29 14.26 10.47 13.16 10.47C12.85 10.4887 12.547 10.5697 12.2691 10.7082C11.9911 10.8466 11.7439 11.0397 11.5423 11.2759C11.3406 11.5121 11.1887 11.7865 11.0955 12.0827C11.0023 12.379 10.9699 12.6909 11 13V18H8V8H11V9.39C11.3828 8.87757 11.8812 8.46283 12.4547 8.17957C13.0282 7.89631 13.6604 7.75255 14.3 7.76C16.07 7.76 17.96 8.69 17.96 11.76L18 18Z" fill="white"/>
</svg>
