<svg width="24" height="24" viewBox="0 0 24 24" fill="none" xmlns="http://www.w3.org/2000/svg">
<path fill-rule="evenodd" clip-rule="evenodd" d="M10 6C10 4.89543 10.8954 4 12 4C13.1046 4 14 4.89543 14 6C14 7.10457 13.1046 8 12 8C10.8954 8 10 7.10457 10 6ZM12 1C9.23858 1 7 3.23858 7 6C7 8.76142 9.23858 11 12 11C14.7614 11 17 8.76142 17 6C17 3.23858 14.7614 1 12 1ZM18.2109 17.7791C19.157 18.4414 19.8072 19.2048 20.1664 20H3.83362C4.1928 19.2048 4.84301 18.4414 5.78913 17.7791C7.3174 16.7093 9.50859 16 12 16C14.4914 16 16.6826 16.7093 18.2109 17.7791ZM12 13C8.96856 13 6.15975 13.8577 4.06874 15.3214C1.98246 16.7818 0.5 18.9432 0.5 21.5C0.5 22.3284 1.17157 23 2 23H22C22.8284 23 23.5 22.3284 23.5 21.5C23.5 18.9432 22.0175 16.7818 19.9313 15.3214C17.8402 13.8577 15.0314 13 12 13Z" fill="currentColor"/>
</svg>
