<svg width="24" height="24" viewBox="0 0 24 24" fill="none" xmlns="http://www.w3.org/2000/svg">
<path fill-rule="evenodd" clip-rule="evenodd" d="M5.98959 5.98959C9.30905 2.67014 14.691 2.67014 18.0104 5.98959C21.3299 9.30905 21.3299 14.691 18.0104 18.0104C14.691 21.3299 9.30905 21.3299 5.98959 18.0104C2.67014 14.691 2.67014 9.30905 5.98959 5.98959ZM20.1317 3.86827C15.6407 -0.622756 8.3593 -0.622758 3.86827 3.86827C-0.622757 8.3593 -0.622757 15.6407 3.86827 20.1317C8.3593 24.6228 15.6407 24.6228 20.1317 20.1317C24.6228 15.6407 24.6228 8.3593 20.1317 3.86827ZM13 8.5C13 7.67157 12.3284 7 11.5 7C10.6716 7 10 7.67157 10 8.5V13C10 13.8284 10.6716 14.5 11.5 14.5H15.5C16.3284 14.5 17 13.8284 17 13C17 12.1716 16.3284 11.5 15.5 11.5H13V8.5Z" fill="currentColor"/>
</svg>
