<svg width="24" height="24" viewBox="0 0 24 24" fill="none" xmlns="http://www.w3.org/2000/svg">
<path fill-rule="evenodd" clip-rule="evenodd" d="M12 0.5C12.8284 0.5 13.5 1.17157 13.5 2V3.5H14.5C17.2614 3.5 19.5 5.73858 19.5 8.5C19.5 9.73898 19.0494 10.8727 18.303 11.7462C19.3435 12.6625 20 14.0045 20 15.4999C20 18.2614 17.7614 20.4999 15 20.4999H13.5V22C13.5 22.8284 12.8284 23.5 12 23.5C11.1716 23.5 10.5 22.8284 10.5 22V20.4999H8C6.61929 20.4999 5.5 19.3807 5.5 17.9999V11.9999V6C5.5 4.61929 6.61929 3.5 8 3.5H10.5V2C10.5 1.17157 11.1716 0.5 12 0.5ZM14.5181 10.4999C15.6143 10.4902 16.5 9.59854 16.5 8.5C16.5 7.39543 15.6046 6.5 14.5 6.5H12H8.5V10.4999H14.5181ZM8.5 13.5L14.5 13.5H14.5C14.5095 13.5 14.5191 13.5 14.5286 13.4999H15C16.1046 13.4999 17 14.3954 17 15.4999C17 16.6045 16.1046 17.4999 15 17.4999H12H8.5V13.5Z" fill="currentColor"/>
</svg>
