<svg width="24" height="24" viewBox="0 0 24 24" fill="none" xmlns="http://www.w3.org/2000/svg">
<path fill-rule="evenodd" clip-rule="evenodd" d="M4 2.5C2.067 2.5 0.5 4.067 0.5 6V18C0.5 19.933 2.067 21.5 4 21.5H20C21.933 21.5 23.5 19.933 23.5 18V6C23.5 4.067 21.933 2.5 20 2.5H4ZM3.5 6C3.5 5.72386 3.72386 5.5 4 5.5H20C20.2761 5.5 20.5 5.72386 20.5 6V18C20.5 18.2761 20.2761 18.5 20 18.5H4C3.72386 18.5 3.5 18.2761 3.5 18V6ZM7.25 8.5H10.75C10.8881 8.5 11 8.61193 11 8.75V11.25C11 11.3881 10.8881 11.5 10.75 11.5H7.25C7.11193 11.5 7 11.3881 7 11.25V8.75C7 8.61193 7.11193 8.5 7.25 8.5Z" fill="currentColor"/>
</svg>
