<svg width="24" height="24" viewBox="0 0 24 24" fill="none" xmlns="http://www.w3.org/2000/svg">
<path fill-rule="evenodd" clip-rule="evenodd" d="M15 4H5V16C5 16.8284 4.32843 17.5 3.5 17.5C2.67157 17.5 2 16.8284 2 16V3.5C2 2.11929 3.11929 1 4.5 1H15C15.8284 1 16.5 1.67157 16.5 2.5C16.5 3.32843 15.8284 4 15 4ZM10.5 20V9.50001L19 9.50001V20H10.5ZM19.5 6.50001L10 6.50001C8.61928 6.50001 7.5 7.6193 7.5 9.00001V20.5C7.5 21.8807 8.61928 23 10 23H19.5C20.8807 23 22 21.8807 22 20.5V9.00001C22 7.6193 20.8807 6.50001 19.5 6.50001Z" fill="currentColor"/>
</svg>
