<svg width="24" height="24" viewBox="0 0 24 24" fill="none" xmlns="http://www.w3.org/2000/svg">
<path fill-rule="evenodd" clip-rule="evenodd" d="M13.8891 6.11091C11.7412 3.96303 8.2588 3.96303 6.11091 6.11091C3.96303 8.2588 3.96303 11.7412 6.11091 13.8891C8.2588 16.037 11.7412 16.037 13.8891 13.8891C16.037 11.7412 16.037 8.2588 13.8891 6.11091ZM3.98959 3.98959C7.30905 0.670136 12.691 0.670136 16.0104 3.98959C18.9679 6.94713 19.2904 11.5419 16.9778 14.8565L22.0607 19.9393C22.6464 20.5251 22.6464 21.4749 22.0607 22.0607C21.4749 22.6464 20.5251 22.6464 19.9393 22.0607L14.8565 16.9778C11.5419 19.2904 6.94713 18.9679 3.98959 16.0104C0.670136 12.691 0.670136 7.30905 3.98959 3.98959Z" fill="currentColor"/>
</svg>
