<svg width="24" height="24" viewBox="0 0 24 24" fill="none" xmlns="http://www.w3.org/2000/svg">
<path fill-rule="evenodd" clip-rule="evenodd" d="M12 0.625C12.5931 0.625 13.1193 1.00529 13.3055 1.56841L15.4727 8.12414L22.0294 8.26464C22.6083 8.27704 23.1173 8.65071 23.3027 9.19924C23.488 9.74776 23.3098 10.3536 22.8571 10.7145L17.5754 14.9249L19.5017 21.6198C19.6643 22.1848 19.4496 22.7907 18.9676 23.1273C18.4856 23.4639 17.8429 23.4569 17.3684 23.1097L12 19.1818L6.63157 23.1097C6.15708 23.4569 5.51437 23.4639 5.03235 23.1273C4.55034 22.7907 4.33569 22.1848 4.49826 21.6198L6.42459 14.9249L1.14289 10.7145C0.690157 10.3536 0.512005 9.74776 0.697313 9.19924C0.882621 8.65071 1.39168 8.27704 1.97053 8.26464L8.52723 8.12414L10.6945 1.56841C10.8806 1.00529 11.4069 0.625 12 0.625ZM12 6.38065L10.8334 9.9096C10.6506 10.4624 10.1394 10.8402 9.5573 10.8527L5.82821 10.9326L8.85708 13.3471C9.29189 13.6937 9.47513 14.2681 9.32137 14.8025L8.25291 18.5159L11.1881 16.3683C11.6715 16.0146 12.3284 16.0146 12.8119 16.3683L15.7471 18.5159L14.6786 14.8025C14.5248 14.2681 14.7081 13.6937 15.1429 13.3471L18.1718 10.9326L14.4427 10.8527C13.8605 10.8402 13.3494 10.4624 13.1666 9.9096L12 6.38065Z" fill="currentColor"/>
</svg>
