<svg width="24" height="24" viewBox="0 0 24 24" fill="none" xmlns="http://www.w3.org/2000/svg">
<path fill-rule="evenodd" clip-rule="evenodd" d="M13.3055 1.56841C13.1193 1.00529 12.5931 0.625 12 0.625C11.4069 0.625 10.8806 1.00529 10.6945 1.56841L8.52723 8.12414L1.97053 8.26464C1.39168 8.27704 0.882621 8.65071 0.697313 9.19924C0.512005 9.74776 0.690157 10.3536 1.14289 10.7145L6.42459 14.9249L4.49826 21.6198C4.33569 22.1848 4.55034 22.7907 5.03235 23.1273C5.51437 23.4639 6.15708 23.4569 6.63157 23.1097L12 19.1818L17.3684 23.1097C17.8429 23.4569 18.4856 23.4639 18.9676 23.1273C19.4496 22.7907 19.6643 22.1848 19.5017 21.6198L17.5754 14.9249L22.8571 10.7145C23.3098 10.3536 23.488 9.74776 23.3027 9.19924C23.1173 8.65071 22.6083 8.27704 22.0294 8.26464L15.4727 8.12414L13.3055 1.56841Z" fill="currentColor"/>
</svg>
