<svg width="24" height="24" viewBox="0 0 24 24" fill="none" xmlns="http://www.w3.org/2000/svg">
<path fill-rule="evenodd" clip-rule="evenodd" d="M11.5 2C11.5 1.17157 10.8284 0.5 10 0.5C9.17157 0.5 8.5 1.17157 8.5 2V6V10C8.5 10.8284 9.17157 11.5 10 11.5C10.8284 11.5 11.5 10.8284 11.5 10V7.5H22C22.8284 7.5 23.5 6.82843 23.5 6C23.5 5.17157 22.8284 4.5 22 4.5H11.5V2ZM2 16.5C1.17157 16.5 0.5 17.1716 0.5 18C0.5 18.8284 1.17157 19.5 2 19.5H11H12.5V16.5H11H2ZM16 12.5C16.8284 12.5 17.5 13.1716 17.5 14V16.5H22C22.8284 16.5 23.5 17.1716 23.5 18C23.5 18.8284 22.8284 19.5 22 19.5H17.5V22C17.5 22.8284 16.8284 23.5 16 23.5C15.1716 23.5 14.5 22.8284 14.5 22V18V14C14.5 13.1716 15.1716 12.5 16 12.5ZM5 7.5H6.5V4.5H5H2C1.17157 4.5 0.5 5.17157 0.5 6C0.5 6.82843 1.17157 7.5 2 7.5H5Z" fill="currentColor"/>
</svg>
