<svg width="24" height="24" viewBox="0 0 24 24" fill="none" xmlns="http://www.w3.org/2000/svg">
<path fill-rule="evenodd" clip-rule="evenodd" d="M10.6976 21.2557C10.2866 21.975 10.5365 22.8913 11.2558 23.3023C11.9751 23.7133 12.8913 23.4634 13.3024 22.7442L15.9644 18.0856L19.9393 22.0606C20.5251 22.6464 21.4749 22.6464 22.0607 22.0606C22.6464 21.4748 22.6464 20.5251 22.0607 19.9393L17.5072 15.3858L19.3024 12.2442C19.5787 11.7605 19.5643 11.1635 19.265 10.6938C18.9656 10.224 18.4305 9.95887 17.8754 10.0051L12.5687 10.4474L10.2344 8.11306L13.3024 2.74416C13.7134 2.02488 13.4635 1.1086 12.7442 0.697587C12.0249 0.286572 11.1087 0.536467 10.6976 1.25574L8.03563 5.91426L4.06066 1.93929C3.47487 1.3535 2.52513 1.3535 1.93934 1.93929C1.35355 2.52508 1.35355 3.47482 1.93934 4.06061L6.49285 8.61412L4.69764 11.7557C4.42127 12.2394 4.43567 12.8364 4.73504 13.3061C5.03442 13.7759 5.56945 14.041 6.12457 13.9948L11.4313 13.5525L13.7656 15.8868L10.6976 21.2557Z" fill="currentColor"/>
</svg>
