<svg width="24" height="24" viewBox="0 0 24 24" fill="none" xmlns="http://www.w3.org/2000/svg">
<path fill-rule="evenodd" clip-rule="evenodd" d="M11.2558 23.3023C10.5365 22.8913 10.2866 21.975 10.6976 21.2557L15.2829 13.2316L6.12457 13.9948C5.56945 14.041 5.03442 13.7759 4.73504 13.3061C4.43567 12.8364 4.42127 12.2394 4.69764 11.7557L10.6976 1.25574C11.1087 0.536467 12.0249 0.286572 12.7442 0.697587C13.4635 1.1086 13.7134 2.02488 13.3024 2.74416L8.71713 10.7683L17.8754 10.0051C18.4305 9.95887 18.9656 10.224 19.265 10.6938C19.5643 11.1635 19.5787 11.7605 19.3024 12.2442L13.3024 22.7442C12.8913 23.4634 11.9751 23.7133 11.2558 23.3023Z" fill="currentColor"/>
</svg>
