<svg width="24" height="24" viewBox="0 0 24 24" fill="none" xmlns="http://www.w3.org/2000/svg">
<path fill-rule="evenodd" clip-rule="evenodd" d="M12.0311 2C8.97171 2 6.39106 4.27815 6.01159 7.31395C5.90883 8.13598 6.49192 8.88566 7.31395 8.98842C8.13598 9.09117 8.88567 8.50808 8.98842 7.68605C9.18024 6.15154 10.4847 5 12.0311 5H12.8957C14.4755 5 15.8052 6.18247 15.9898 7.75147C16.1858 9.41753 15.0275 10.9397 13.3694 11.1947L11.8026 11.4358C10.7655 11.5953 10 12.4877 10 13.5369V15.5C10 16.3284 10.6716 17 11.5 17C12.3284 17 13 16.3284 13 15.5V14.2869L13.8256 14.1599C17.0802 13.6592 19.354 10.6713 18.9693 7.40095C18.607 4.32111 15.9968 2 12.8957 2H12.0311ZM9.75001 20.25C9.75001 21.216 10.534 22 11.5 22C12.466 22 13.25 21.216 13.25 20.25C13.25 19.284 12.466 18.5 11.5 18.5C10.534 18.5 9.75001 19.284 9.75001 20.25Z" fill="currentColor"/>
</svg>
