<svg width="24" height="24" viewBox="0 0 24 24" fill="none" xmlns="http://www.w3.org/2000/svg">
<path fill-rule="evenodd" clip-rule="evenodd" d="M3.26414 9.35532C3.01106 10.1924 2.875 11.0803 2.875 12C2.875 12.9197 3.01106 13.8076 3.26414 14.6447C4.54066 14.3417 5.9717 14.1156 7.47875 13.9666C7.43717 13.314 7.41667 12.6553 7.41667 12C7.41667 11.3447 7.43717 10.686 7.47875 10.0334C5.9717 9.88436 4.54066 9.65832 3.26414 9.35532ZM4.34221 7.03578C5.38829 7.25896 6.54008 7.42983 7.74803 7.5484C7.91723 6.4693 8.15258 5.44728 8.45712 4.53365C8.58924 4.1373 8.73331 3.76435 8.89003 3.41868C7.00868 4.10065 5.41538 5.3837 4.34221 7.03578ZM9.97272 10.2075C9.93554 10.7961 9.91667 11.3963 9.91667 12C9.91667 12.6037 9.93554 13.2039 9.97272 13.7925C11.316 13.7358 12.684 13.7358 14.0273 13.7925C14.0645 13.2039 14.0833 12.6037 14.0833 12C14.0833 11.3963 14.0645 10.7961 14.0273 10.2075C12.684 10.2642 11.316 10.2642 9.97272 10.2075ZM13.7467 7.71692C12.5886 7.76103 11.4114 7.76103 10.2533 7.71692C10.3995 6.84379 10.5922 6.03422 10.8288 5.32422C11.1279 4.42697 11.4434 3.85194 11.7113 3.52599C11.8558 3.35015 11.9536 3.28327 12 3.25919C12.0464 3.28327 12.1442 3.35014 12.2887 3.52598C12.5566 3.85194 12.8721 4.42697 13.1712 5.32422C13.4078 6.03422 13.6005 6.84379 13.7467 7.71692ZM16.5212 10.0334C16.5628 10.686 16.5833 11.3447 16.5833 12C16.5833 12.6553 16.5628 13.314 16.5212 13.9666C18.0283 14.1156 19.4593 14.3417 20.7359 14.6447C20.9889 13.8076 21.125 12.9197 21.125 12C21.125 11.0803 20.9889 10.1924 20.7359 9.35532C19.4593 9.65832 18.0283 9.88436 16.5212 10.0334ZM19.6578 7.03578C18.6117 7.25895 17.4599 7.42983 16.252 7.5484C16.0828 6.4693 15.8474 5.44728 15.5429 4.53365C15.4108 4.1373 15.2667 3.76435 15.11 3.41868C16.9913 4.10065 18.5846 5.3837 19.6578 7.03578ZM8.89003 20.5813C7.00868 19.8994 5.41538 18.6163 4.34221 16.9642C5.38829 16.741 6.54008 16.5702 7.74803 16.4516C7.91723 17.5307 8.15258 18.5527 8.45712 19.4664C8.58924 19.8627 8.73331 20.2357 8.89003 20.5813ZM10.8288 18.6758C10.5922 17.9658 10.3995 17.1562 10.2533 16.2831C11.4114 16.239 12.5886 16.239 13.7467 16.2831C13.6005 17.1562 13.4078 17.9658 13.1712 18.6758C12.8721 19.573 12.5566 20.1481 12.2887 20.474C12.1442 20.6498 12.0464 20.7167 12 20.7408C11.9536 20.7167 11.8558 20.6498 11.7113 20.474C11.4434 20.1481 11.1279 19.573 10.8288 18.6758ZM15.5429 19.4664C15.8474 18.5527 16.0828 17.5307 16.252 16.4516C17.4599 16.5702 18.6117 16.741 19.6578 16.9642C18.5846 18.6163 16.9913 19.8994 15.11 20.5813C15.2667 20.2357 15.4108 19.8627 15.5429 19.4664ZM12 0.125C5.44162 0.125 0.125 5.44162 0.125 12C0.125 18.5584 5.44162 23.875 12 23.875C18.5584 23.875 23.875 18.5584 23.875 12C23.875 5.44162 18.5584 0.125 12 0.125ZM12.0311 3.24665C12.0311 3.24682 12.029 3.24752 12.0248 3.24823C12.0289 3.24684 12.031 3.24648 12.0311 3.24665ZM11.9752 3.24823C11.971 3.24752 11.9689 3.24682 11.9689 3.24665C11.969 3.24648 11.9711 3.24684 11.9752 3.24823ZM11.9702 20.7528L11.9689 20.7534C11.969 20.7535 11.9711 20.7532 11.9752 20.7518L11.9727 20.7522L11.9702 20.7528ZM12.0248 20.7518C12.029 20.7525 12.0311 20.7532 12.0311 20.7534C12.031 20.7535 12.029 20.7532 12.0248 20.7518Z" fill="currentColor"/>
</svg>
