<svg width="24" height="24" viewBox="0 0 24 24" fill="none" xmlns="http://www.w3.org/2000/svg">
<path fill-rule="evenodd" clip-rule="evenodd" d="M2.26955 2.57214C0.908597 2.82679 0.0137996 4.13906 0.273822 5.499L2.33963 16.3034C2.5982 17.6557 3.90157 18.5444 5.25494 18.2912L6.06342 18.1399C6.87772 17.9876 7.41432 17.204 7.26196 16.3897C7.1096 15.5754 6.32597 15.0388 5.51168 15.1911L5.19273 15.2508L3.31472 5.42865L11.1719 3.95851L11.1965 4.08711C11.3521 4.9008 12.1378 5.4343 12.9515 5.27873C13.7652 5.12315 14.2987 4.3374 14.1431 3.52372L14.025 2.90595C13.7664 1.55359 12.4631 0.664868 11.1097 0.918092L2.26955 2.57214ZM11.5 7.00005C10.1193 7.00004 8.99997 8.11933 8.99997 9.50005V20.5001C8.99997 21.8808 10.1193 23.0001 11.5 23.0001H21C22.3807 23.0001 23.5 21.8808 23.5 20.5001V9.50007C23.5 8.11936 22.3807 7.00007 21 7.00007L11.5 7.00005ZM12 20.0001V10L20.5 10.0001V20.0001H12Z" fill="currentColor"/>
</svg>
