<svg width="24" height="24" viewBox="0 0 24 24" fill="none" xmlns="http://www.w3.org/2000/svg">
<path d="M19.8881 3.41336C18.6379 2.53999 17.0452 2 15.0918 2C13.3356 2 7.26853 2.55184 5.8054 10.1413H4.0618C3.7612 10.1413 3.50286 10.3538 3.44519 10.6489L3.0083 12.8763C2.95537 13.1465 3.16235 13.3982 3.43768 13.3982H5.49136C5.44317 20.8967 10.563 22 13.0654 22C15.1459 22 16.6687 21.3585 17.8857 20.3477C18.1678 20.113 18.1808 19.6828 17.9213 19.4237L16.278 17.7804C16.0651 17.5675 15.7329 17.5403 15.4829 17.7074C14.8287 18.1439 14.1074 18.3516 13.3083 18.3516C12.4598 18.3516 9.77253 17.848 9.81559 13.3982H13.5117C13.8124 13.3982 14.0703 13.1856 14.1284 12.8906L14.5649 10.6631C14.6182 10.3929 14.4112 10.1413 14.1355 10.1413H10.2466C11.37 5.78424 14.1639 5.67601 15.0918 5.67601C16.0284 5.67601 16.7351 5.9063 17.3165 6.28907C17.5693 6.45537 17.9004 6.43562 18.1141 6.22192L19.9647 4.37048C20.2396 4.09634 20.2065 3.63576 19.8881 3.41336Z" fill="currentColor"/>
</svg>
