<svg width="24" height="24" viewBox="0 0 24 24" fill="none" xmlns="http://www.w3.org/2000/svg">
<path d="M14.0485 5.89558C15.2935 5.89558 16.177 6.57831 16.8196 7.58233C17.0204 7.86345 17.4622 7.94377 17.7433 7.66265L19.7513 5.73494C19.9521 5.53414 19.9923 5.21285 19.7915 4.97189C18.4662 3.20482 16.659 2 13.928 2C10.0726 2 6.73929 4.4498 6.73929 8.54618C6.73929 9.10843 6.77945 9.67068 6.89993 10.2329H5.81559C5.53447 10.2329 5.2935 10.3936 5.21318 10.6747L4.81158 12.8434C4.73126 13.2048 5.01238 13.5663 5.37383 13.5663H7.66298L7.7433 13.9277C7.78346 14.1285 7.82362 14.49 7.82362 14.6908C7.82362 16.3775 6.05656 18.0241 3.88788 18.7068C3.68708 18.747 3.52644 18.9478 3.48628 19.1486L3.00435 21.2771C2.96419 21.6386 3.20515 22 3.60676 22H17.3417C17.6228 22 17.8236 21.7992 17.9039 21.5181L18.5064 18.8273C18.5867 18.4659 18.3056 18.1044 17.9441 18.1044H10.6349C11.5184 17.3012 12.0003 15.1325 11.8397 13.5261H15.4541C15.7353 13.5261 15.9762 13.3655 16.0566 13.0442L16.5385 10.9157C16.5786 10.5542 16.3377 10.1928 15.9361 10.1928H11.2373C11.1971 9.83133 11.1971 9.42972 11.1971 9.10843C11.157 6.8996 12.5224 5.89558 14.0485 5.89558Z" fill="currentColor"/>
</svg>
