<svg width="24" height="24" viewBox="0 0 24 24" fill="none" xmlns="http://www.w3.org/2000/svg">
<path fill-rule="evenodd" clip-rule="evenodd" d="M4 3.5H20C20.8284 3.5 21.5 4.17157 21.5 5C21.5 5.82843 20.8284 6.5 20 6.5L4 6.5C3.17157 6.5 2.5 5.82843 2.5 5C2.5 4.17157 3.17157 3.5 4 3.5ZM4 10.5L20 10.5C20.8284 10.5 21.5 11.1716 21.5 12C21.5 12.8284 20.8284 13.5 20 13.5L4 13.5C3.17157 13.5 2.5 12.8284 2.5 12C2.5 11.1716 3.17157 10.5 4 10.5ZM20 17.5L4 17.5C3.17157 17.5 2.5 18.1716 2.5 19C2.5 19.8284 3.17157 20.5 4 20.5L20 20.5C20.8284 20.5 21.5 19.8284 21.5 19C21.5 18.1716 20.8284 17.5 20 17.5Z" fill="currentColor"/>
</svg>
