<svg width="24" height="24" viewBox="0 0 24 24" fill="none" xmlns="http://www.w3.org/2000/svg">
<path fill-rule="evenodd" clip-rule="evenodd" d="M12.696 2.17126C12.2601 1.94291 11.7399 1.94291 11.304 2.17126L0.803986 7.67145C0.0701447 8.05585 -0.213128 8.96237 0.171278 9.69621C0.555685 10.4301 1.4622 10.7133 2.19605 10.3289L12 5.19334L21.804 10.3289C22.5378 10.7133 23.4443 10.4301 23.8288 9.69621C24.2132 8.96237 23.9299 8.05585 23.196 7.67145L12.696 2.17126ZM13.5 12.5002C13.5 11.6718 12.8284 11.0002 12 11.0002C11.1716 11.0002 10.5 11.6718 10.5 12.5002V20.5C10.5 21.3284 11.1716 22 12 22C12.8284 22 13.5 21.3284 13.5 20.5V12.5002ZM20 12.5002C20 11.6718 19.3284 11.0002 18.5 11.0002C17.6716 11.0002 17 11.6718 17 12.5002V20.5C17 21.3284 17.6716 22 18.5 22C19.3284 22 20 21.3284 20 20.5V12.5002ZM7.00001 12.6539C7.00001 11.8255 6.32844 11.1539 5.50001 11.1539C4.67159 11.1539 4.00001 11.8255 4.00001 12.6539V20.5C4.00001 21.3284 4.67159 22 5.50001 22C6.32844 22 7.00001 21.3284 7.00001 20.5V12.6539Z" fill="currentColor"/>
</svg>
