<svg width="24" height="24" viewBox="0 0 24 24" fill="none" xmlns="http://www.w3.org/2000/svg">
<path fill-rule="evenodd" clip-rule="evenodd" d="M7.36186 7.20759C7.8514 5.03963 9.77745 3.5 12 3.5C14.2225 3.5 16.1486 5.03963 16.6381 7.2076L18.6235 16H5.37647L7.36186 7.20759ZM12 0.5C8.37519 0.5 5.23394 3.01102 4.43553 6.54681L2.03684 17.1696C1.93642 17.6143 2.04369 18.0805 2.32834 18.4366C2.61298 18.7927 3.04412 19 3.5 19H20.5C20.9559 19 21.387 18.7927 21.6717 18.4366C21.9563 18.0805 22.0636 17.6143 21.9632 17.1696L19.5645 6.54681C18.7661 3.01103 15.6248 0.5 12 0.5ZM10 20.5C9.17157 20.5 8.5 21.1716 8.5 22C8.5 22.8284 9.17157 23.5 10 23.5H14C14.8284 23.5 15.5 22.8284 15.5 22C15.5 21.1716 14.8284 20.5 14 20.5H10Z" fill="currentColor"/>
</svg>
