<svg width="24" height="24" viewBox="0 0 24 24" fill="none" xmlns="http://www.w3.org/2000/svg">
<path fill-rule="evenodd" clip-rule="evenodd" d="M11.1657 1.00922C10.7128 0.958893 10.2616 1.11717 9.93937 1.43938L0.43934 10.9394C0.158035 11.2207 0 11.6022 0 12.0001C0 12.3979 0.158035 12.7794 0.43934 13.0607L10.4393 23.0607C11.0251 23.6465 11.9749 23.6465 12.5607 23.0607L22.0607 13.5607C22.3829 13.2385 22.5411 12.7873 22.4908 12.3344L21.4908 3.33442C21.4134 2.63715 20.8629 2.08672 20.1657 2.00924L11.1657 1.00922ZM3.62132 12.0001L11.5509 4.07048L18.6417 4.85837L19.4296 11.9492L11.5 19.8787L3.62132 12.0001ZM13 8.74998C13 9.71598 13.784 10.5 14.75 10.5C15.716 10.5 16.5 9.71598 16.5 8.74998C16.5 7.78398 15.716 6.99998 14.75 6.99998C13.784 6.99998 13 7.78398 13 8.74998Z" fill="currentColor"/>
</svg>
