<svg width="24" height="24" viewBox="0 0 24 24" fill="none" xmlns="http://www.w3.org/2000/svg">
<path fill-rule="evenodd" clip-rule="evenodd" d="M3.61264 5.77741C7.00488 1.29132 13.7535 -0.179636 18.2647 3.85006C18.6673 4.20966 19.0898 4.64472 19.5 5.09857V3.5C19.5 2.67157 20.1715 2 21 2C21.8284 2 22.5 2.67157 22.5 3.5V9.33608C22.5001 9.34744 22.5001 9.35879 22.5 9.37014V9.50001C22.5 9.94094 22.306 10.3595 21.9695 10.6445C21.6331 10.9295 21.1883 11.0521 20.7534 10.9796L14.7534 9.97959C13.9363 9.8434 13.3842 9.07055 13.5204 8.2534C13.6566 7.43624 14.4295 6.88421 15.2466 7.02041L17.5334 7.40155C17.0942 6.89991 16.6543 6.43408 16.2662 6.08743C13.3085 3.44544 8.54997 4.22194 6.00554 7.58684C3.53477 10.8543 4.17246 15.5134 7.42514 17.991C10.6745 20.4662 15.3079 19.8304 17.7762 16.5663L18.0923 16.1481C18.592 15.4874 19.5327 15.3567 20.1935 15.8564C20.8543 16.3561 20.9849 17.2968 20.4852 17.9576L20.169 18.3757C16.7006 22.9625 10.1802 23.8608 5.60728 20.3775L6.51621 19.1843L5.60728 20.3775C1.03765 16.8967 0.146718 10.3609 3.61264 5.77741Z" fill="currentColor"/>
</svg>
