<svg width="24" height="24" viewBox="0 0 24 24" fill="none" xmlns="http://www.w3.org/2000/svg">
<g clip-path="url(#clip0_2_5053)">
<path fill-rule="evenodd" clip-rule="evenodd" d="M0.5 7C0.5 7.82843 1.17157 8.5 2 8.5C2.82843 8.5 3.5 7.82843 3.5 7L3.5 3.49994L7 3.49994C7.82843 3.49994 8.5 2.82837 8.5 1.99994C8.5 1.17151 7.82843 0.499939 7 0.499939H2C1.17157 0.499939 0.5 1.17151 0.5 1.99994V7ZM23.5002 17C23.5002 16.1716 22.8287 15.5 22.0002 15.5C21.1718 15.5 20.5002 16.1716 20.5002 17V20.4996H17C16.1716 20.4996 15.5 21.1712 15.5 21.9996C15.5 22.8281 16.1716 23.4996 17 23.4996H22.0002C22.8286 23.4996 23.5002 22.8281 23.5002 21.9996V17ZM0.5 13C0.5 12.1716 1.17157 11.5 2 11.5L11 11.5C11.8284 11.5 12.5 12.1716 12.5 13V22C12.5 22.8284 11.8284 23.5 11 23.5L2 23.5C1.60218 23.5 1.22065 23.342 0.939341 23.0607C0.658036 22.7794 0.5 22.3978 0.5 22V13ZM3.5 14.5L3.5 20.5L9.5 20.5V14.5L3.5 14.5ZM16 0.499991C15.6022 0.49999 15.2206 0.658025 14.9393 0.939329C14.658 1.22063 14.5 1.60217 14.5 1.99999L14.5 8C14.5 8.39782 14.658 8.77936 14.9393 9.06066C15.2206 9.34196 15.6022 9.5 16 9.5H22C22.3978 9.5 22.7794 9.34196 23.0607 9.06066C23.342 8.77936 23.5 8.39783 23.5 8V2C23.5 1.17157 22.8284 0.500002 22 0.5L16 0.499991ZM17.5 6.5V3.49999L20.5 3.5V6.5L17.5 6.5ZM10 9C8.89543 9 8 8.10457 8 7C8 5.89543 8.89543 5 10 5C11.1046 5.00001 12 5.89543 12 7C12 8.10457 11.1046 9 10 9ZM15 14C15 15.1046 15.8954 16 17 16C18.1046 16 19 15.1046 19 14C19 12.8954 18.1046 12 17 12C15.8954 12 15 12.8954 15 14Z" fill="currentColor"/>
</g>
<defs>
<clipPath id="clip0_2_5053">
<rect width="24" height="24" fill="white"/>
</clipPath>
</defs>
</svg>
