<svg width="24" height="24" viewBox="0 0 24 24" fill="none" xmlns="http://www.w3.org/2000/svg">
<path fill-rule="evenodd" clip-rule="evenodd" d="M22.0606 1.93932C22.4535 2.3322 22.597 2.91006 22.4336 3.44111L16.4336 22.9411C16.2481 23.5441 15.7051 23.9666 15.0749 23.9981C14.4448 24.0296 13.8623 23.6635 13.6175 23.0821L9.85464 14.1453L0.917895 10.3824C0.336433 10.1376 -0.0296824 9.5551 0.00185715 8.92499C0.0333967 8.29488 0.455849 7.75185 1.05885 7.56631L20.5588 1.56631C21.0899 1.40291 21.6677 1.54644 22.0606 1.93932ZM12.7738 13.3475L14.7804 18.1131L18.733 5.26689L5.88689 9.21956L10.6525 11.2261L11.9393 9.93932C12.5251 9.35353 13.4748 9.35353 14.0606 9.93932C14.6464 10.5251 14.6464 11.4749 14.0606 12.0606L12.7738 13.3475Z" fill="currentColor"/>
</svg>
