<svg width="24" height="24" viewBox="0 0 24 24" fill="none" xmlns="http://www.w3.org/2000/svg">
<path fill-rule="evenodd" clip-rule="evenodd" d="M18 5.25C18.6904 5.25 19.25 4.69036 19.25 4C19.25 3.30964 18.6904 2.75 18 2.75C17.3096 2.75 16.75 3.30964 16.75 4C16.75 4.69036 17.3096 5.25 18 5.25ZM18 8C20.2091 8 22 6.20914 22 4C22 1.79086 20.2091 0 18 0C15.7909 0 14 1.79086 14 4C14 4.227 14.0189 4.44959 14.0552 4.66628L7.37213 8.77896C6.70844 8.28937 5.88801 8 5 8C2.79086 8 1 9.79086 1 12C1 14.2091 2.79086 16 5 16C5.88801 16 6.70844 15.7106 7.37213 15.221L14.0552 19.3337C14.0189 19.5504 14 19.773 14 20C14 22.2091 15.7909 24 18 24C20.2091 24 22 22.2091 22 20C22 17.7909 20.2091 16 18 16C17.112 16 16.2916 16.2894 15.6279 16.779L8.94476 12.6663C8.98109 12.4496 9 12.227 9 12C9 11.773 8.98109 11.5504 8.94476 11.3337L15.6279 7.22104C16.2916 7.71063 17.112 8 18 8ZM18 21.25C18.6904 21.25 19.25 20.6904 19.25 20C19.25 19.3096 18.6904 18.75 18 18.75C17.3096 18.75 16.75 19.3096 16.75 20C16.75 20.6904 17.3096 21.25 18 21.25ZM6.25 12C6.25 12.6904 5.69036 13.25 5 13.25C4.30964 13.25 3.75 12.6904 3.75 12C3.75 11.3096 4.30964 10.75 5 10.75C5.69036 10.75 6.25 11.3096 6.25 12Z" fill="currentColor"/>
</svg>
