<svg width="24" height="24" viewBox="0 0 24 24" fill="none" xmlns="http://www.w3.org/2000/svg">
<path fill-rule="evenodd" clip-rule="evenodd" d="M13.115 1.49655C12.8305 1.18048 12.4252 1 12 1C11.5748 1 11.1695 1.18048 10.8851 1.49655L6.38506 6.49655C5.83087 7.11232 5.88079 8.06075 6.49655 8.61494C7.11232 9.16913 8.06075 9.11921 8.61494 8.50345L10.5 6.40893V15.5C10.5 16.3284 11.1716 17 12 17C12.8284 17 13.5 16.3284 13.5 15.5V6.40894L15.3851 8.50345C15.9392 9.11921 16.8877 9.16913 17.5034 8.61494C18.1192 8.06075 18.1691 7.11232 17.6149 6.49655L13.115 1.49655ZM3.5 17C3.5 16.1716 2.82843 15.5 2 15.5C1.17157 15.5 0.5 16.1716 0.5 17V22C0.5 22.8284 1.17157 23.5 2 23.5H22C22.8284 23.5 23.5 22.8284 23.5 22V17C23.5 16.1716 22.8284 15.5 22 15.5C21.1716 15.5 20.5 16.1716 20.5 17V20.5H3.5V17Z" fill="currentColor"/>
</svg>
