<svg width="24" height="24" viewBox="0 0 24 24" fill="none" xmlns="http://www.w3.org/2000/svg">
<path fill-rule="evenodd" clip-rule="evenodd" d="M9.99998 4.5V6.5H14V4.5H9.99998ZM17 6.5V4C17 2.61929 15.8807 1.5 14.5 1.5H9.49998C8.11927 1.5 6.99998 2.61929 6.99998 4V6.5H3.99998C3.3015 6.5 2.69546 6.98211 2.5384 7.66271L0.103717 18.213C-0.402397 20.4062 1.26329 22.5 3.51409 22.5H20.4859C22.7367 22.5 24.4024 20.4061 23.8963 18.213L21.4616 7.66271C21.3045 6.98211 20.6985 6.5 20 6.5H17ZM5.19325 9.5L3.02689 18.8876C2.95459 19.2009 3.19254 19.5 3.51409 19.5H20.4859C20.8074 19.5 21.0454 19.2009 20.9731 18.8876L18.8067 9.5H15.5H8.49998H5.19325Z" fill="currentColor"/>
</svg>
