<svg width="24" height="24" viewBox="0 0 24 24" fill="none" xmlns="http://www.w3.org/2000/svg">
<path d="M14 13H22V21H14V13ZM18 10L12 1L6 10H18ZM11 17C11 16.11 10.7361 15.24 10.2416 14.4999C9.74715 13.7599 9.04434 13.1831 8.22208 12.8425C7.39981 12.5019 6.49501 12.4128 5.6221 12.5865C4.74918 12.7601 3.94736 13.1887 3.31802 13.818C2.68868 14.4474 2.2601 15.2492 2.08647 16.1221C1.91283 16.995 2.00195 17.8998 2.34254 18.7221C2.68314 19.5443 3.25991 20.2471 3.99994 20.7416C4.73996 21.2361 5.60999 21.5 6.5 21.5C7.09132 21.5013 7.67708 21.3858 8.22364 21.1601C8.7702 20.9345 9.2668 20.603 9.68492 20.1849C10.103 19.7668 10.4345 19.2702 10.6601 18.7236C10.8858 18.1771 11.0013 17.5913 11 17Z" fill="black" fill-opacity="0.75"/>
</svg>
