<svg width="24" height="24" viewBox="0 0 24 24" fill="none" xmlns="http://www.w3.org/2000/svg">
<path d="M22 19.24C22 19.5 21.97 19.76 21.91 20.02L21.69 21L14.92 19.49C14.97 19.66 15 19.82 15 20C15 21.1 14.1 22 13 22C11.9 22 11 21.1 11 20C11 19.51 11.18 19.07 11.47 18.72L2 16.62L2.22 15.64C2.43 14.69 3.02 13.89 4 13.12L5.22 12.19L20.68 15.63L21.39 16.99C21.79 17.8 22 18.53 22 19.24ZM20.51 8.84C20.79 5.7 18.69 2.84 15.59 2.15C15.12 2.05 14.65 2 14.18 2C11.58 2 9.2 3.61 8.28 6.12L6.27 11.39L20.07 14.46L20.51 8.84Z" fill="black" fill-opacity="0.9"/>
</svg>
