<svg width="24" height="24" viewBox="0 0 24 24" fill="none" xmlns="http://www.w3.org/2000/svg">
<path d="M2 12C2 17.5 6.5 22 12 22C17.5 22 22 17.5 22 12C22 6.5 17.5 2 12 2C6.5 2 2 6.5 2 12ZM4 12C4 7.6 7.6 4 12 4C16.4 4 20 7.6 20 12C20 16.4 16.4 20 12 20C7.6 20 4 16.4 4 12Z" fill="black" fill-opacity="0.75"/>
<path d="M15.1 12.6L13 11.4V7C13 6.4 12.6 6 12 6C11.4 6 11 6.4 11 7V12C11 12.4 11.2 12.7 11.5 12.9L14.1 14.4C14.6 14.7 15.2 14.5 15.5 14C15.8 13.5 15.6 12.9 15.1 12.6Z" fill="black" fill-opacity="0.75"/>
</svg>
