<svg width="24" height="24" viewBox="0 0 24 24" fill="none" xmlns="http://www.w3.org/2000/svg">
<path d="M12 5C8.14 5 5 8.14 5 12C5 15.86 8.14 19 12 19C15.86 19 19 15.86 19 12C19 8.14 15.86 5 12 5ZM13 16C13 16.55 12.55 17 12 17C11.45 17 11 16.55 11 16V12.58L8.9 11.37C8.42 11.09 8.26 10.48 8.54 10C8.81 9.52 9.42 9.36 9.9 9.63L12.49 11.14C12.79 11.32 13 11.63 13 12V16ZM12 2C6.48 2 2 6.48 2 12C2 17.52 6.48 22 12 22C17.52 22 22 17.52 22 12C22 6.48 17.52 2 12 2ZM12 20C7.58 20 4 16.42 4 12C4 7.58 7.58 4 12 4C16.42 4 20 7.58 20 12C20 16.42 16.42 20 12 20Z" fill="black" fill-opacity="0.9"/>
</svg>
