<svg width="24" height="24" viewBox="0 0 24 24" fill="none" xmlns="http://www.w3.org/2000/svg">
<path d="M22 8C22 10.24 20.77 12.19 18.95 13.22C18.56 9.73 15.6 7 12 7H8C7.32 7 6.67 7.1 6.05 7.28C6.4 4.31 8.93 2 12 2H16C19.31 2 22 4.69 22 8ZM18 14V14.48C18 16.49 16.99 18.37 15.31 19.48L10 23V20H8C4.69 20 2 17.31 2 14C2 10.69 4.69 8 8 8H12C15.31 8 18 10.69 18 14ZM8 14C8 13.45 7.55 13 7 13C6.45 13 6 13.45 6 14C6 14.55 6.45 15 7 15C7.55 15 8 14.55 8 14ZM11 14C11 13.45 10.55 13 10 13C9.45 13 9 13.45 9 14C9 14.55 9.45 15 10 15C10.55 15 11 14.55 11 14ZM14 14C14 13.45 13.55 13 13 13C12.45 13 12 13.45 12 14C12 14.55 12.45 15 13 15C13.55 15 14 14.55 14 14Z" fill="black" fill-opacity="0.9"/>
</svg>
