<svg width="24" height="24" viewBox="0 0 24 24" fill="none" xmlns="http://www.w3.org/2000/svg">
<path d="M16 4H8C4.134 4 1 7.134 1 11C1 14.866 4.134 18 8 18H12V22L20.16 16.605C22 15.308 23 13.228 23 11C23 7.134 19.866 4 16 4ZM8 12.25C7.31 12.25 6.75 11.69 6.75 11C6.75 10.31 7.31 9.75 8 9.75C8.69 9.75 9.25 10.31 9.25 11C9.25 11.69 8.69 12.25 8 12.25ZM12 12.25C11.31 12.25 10.75 11.69 10.75 11C10.75 10.31 11.31 9.75 12 9.75C12.69 9.75 13.25 10.31 13.25 11C13.25 11.69 12.69 12.25 12 12.25ZM16 12.25C15.31 12.25 14.75 11.69 14.75 11C14.75 10.31 15.31 9.75 16 9.75C16.69 9.75 17.25 10.31 17.25 11C17.25 11.69 16.69 12.25 16 12.25Z" fill="black" fill-opacity="0.75"/>
</svg>
