<svg width="24" height="24" viewBox="0 0 24 24" fill="none" xmlns="http://www.w3.org/2000/svg">
<path d="M16.5 11C14.015 11 12 8.985 12 6.5C12 4.015 14.015 2 16.5 2C18.985 2 21 4.015 21 6.5C21 8.985 18.985 11 16.5 11Z" fill="black" fill-opacity="0.9"/>
<path d="M21 16C21 14.343 19.657 13 18 13H15C13.343 13 12 14.343 12 16V22H21V16Z" fill="black" fill-opacity="0.9"/>
<path d="M3 9.5C3 11.433 4.566 13 6.5 13C8.434 13 10 11.433 10 9.5C10 7.567 8.434 6 6.5 6C4.566 6 3 7.567 3 9.5Z" fill="black" fill-opacity="0.9"/>
<path d="M10 17.5C10 16.119 8.881 15 7.5 15H5.5C4.119 15 3 16.119 3 17.5V22H10V17.5Z" fill="black" fill-opacity="0.9"/>
</svg>
