<svg width="24" height="24" viewBox="0 0 24 24" fill="none" xmlns="http://www.w3.org/2000/svg">
<path d="M19.8933 2.98995L14.9978 3.70853C13.729 3.86821 12.5901 4.5269 11.8208 5.54488L10.0025 7.96008H7.0253C6.39589 7.96008 5.80644 8.25948 5.4268 8.75849L3.02904 11.9521H7.37498C6.94538 12.7206 6.46583 13.5889 5.97628 14.4871L9.47301 17.9802C10.3822 17.4812 11.2514 17.0021 12.0206 16.563V20.9343L15.2176 18.5391C15.7172 18.1598 16.0169 17.571 16.0169 16.9422V13.9282L18.4147 12.1318C19.4337 11.3633 20.1031 10.2256 20.2529 8.95809L20.9922 4.09775C21.0722 3.44904 20.5227 2.90013 19.8733 2.97997H19.8933V2.98995ZM15.0178 10.9541C13.9189 10.9541 13.0197 10.0559 13.0197 8.95809C13.0197 7.86028 13.9189 6.96206 15.0178 6.96206C16.1168 6.96206 17.016 7.86028 17.016 8.95809C17.016 10.0559 16.1168 10.9541 15.0178 10.9541ZM4.98721 16.3434L7.63473 18.9882C4.71746 20.565 2 21.9722 2 21.9722C2 21.9722 3.40868 19.2576 4.97722 16.3334L4.98721 16.3434Z" fill="black" fill-opacity="0.75"/>
</svg>
