<svg width="24" height="24" viewBox="0 0 24 24" fill="none" xmlns="http://www.w3.org/2000/svg">
<path d="M13.01 10.01C13.01 11.67 11.67 13.01 10.01 13.01C8.35 13.01 7.01 11.67 7.01 10.01C7.01 8.35 8.35 7.01 10.01 7.01C11.67 7.01 13.01 8.35 13.01 10.01ZM22 19.99C22 20.5 21.81 21.02 21.41 21.41C21.02 21.8 20.51 22 20 22C19.49 22 18.98 21.8 18.59 21.41L13.33 16.15C12.34 16.7 11.21 17 10 17C6.13 17 3 13.87 3 10C3 6.13 6.13 3 10 3C13.87 3 17 6.13 17 10C17 11.21 16.69 12.34 16.16 13.33L21.42 18.59C21.8 18.97 22 19.48 22 19.99ZM10 15C12.76 15 15 12.76 15 10C15 7.24 12.76 5 10 5C7.24 5 5 7.24 5 10C5 12.76 7.24 15 10 15Z" fill="black" fill-opacity="0.9"/>
</svg>
