<svg width="24" height="24" viewBox="0 0 24 24" fill="none" xmlns="http://www.w3.org/2000/svg">
<path d="M16 17C17.1 17 18 17.9 18 19C18 20.1 17.1 21 16 21C14.9 21 14 20.1 14 19C14 17.9 14.9 17 16 17ZM7.12 4L6.88 2.81C6.79 2.34 6.38 2 5.9 2H4C3.45 2 3 2.45 3 3C3 3.55 3.45 4 4 4H5V13.37L2.5 17H4H16H18L18.5 15H6.31L7.58 13.16L17.88 12.28C18.88 12.2 19.76 11.62 20.25 10.75L24 4H7.12ZM2 19C2 20.1 2.9 21 4 21C5.1 21 6 20.1 6 19C6 17.9 5.1 17 4 17C2.9 17 2 17.9 2 19Z" fill="black" fill-opacity="0.9"/>
</svg>
