<svg width="24" height="24" viewBox="0 0 24 24" fill="none" xmlns="http://www.w3.org/2000/svg">
<path d="M18 21C19.1046 21 20 20.1046 20 19C20 17.8954 19.1046 17 18 17C16.8954 17 16 17.8954 16 19C16 20.1046 16.8954 21 18 21Z" fill="black" fill-opacity="0.75"/>
<path d="M6 21C7.10457 21 8 20.1046 8 19C8 17.8954 7.10457 17 6 17C4.89543 17 4 17.8954 4 19C4 20.1046 4.89543 21 6 21Z" fill="black" fill-opacity="0.75"/>
<path d="M17.8 12.6C19.1 12.5 20.2 11.6 20.5 10.3L22 4H5.1L4.9 2.8C4.8 2.3 4.4 2 3.9 2H2C1.4 2 1 2.4 1 3C1 3.6 1.4 4 2 4H3.1L5 13.5L4 17H6H18H20V15H6.7L7.2 13.3L17.8 12.6Z" fill="black" fill-opacity="0.75"/>
</svg>
