<svg width="24" height="24" viewBox="0 0 24 24" fill="none" xmlns="http://www.w3.org/2000/svg">
<path d="M20.6 11C16.6 10.6 13.4 7.4 13 3.4C12.9 2.9 12.5 2.5 12 2.5C11.5 2.5 11 2.9 11 3.4C10.6 7.4 7.4 10.6 3.4 11C2.9 11.1 2.5 11.5 2.5 12C2.5 12.5 2.9 12.9 3.4 13C7.4 13.4 10.6 16.6 11 20.6C11.1 21.1 11.5 21.5 12 21.5C12.5 21.5 13 21.1 13 20.6C13.4 16.6 16.6 13.4 20.6 13C21.1 12.9 21.5 12.5 21.5 12C21.5 11.5 21.1 11 20.6 11ZM22.25 3.75C21.15 3.75 20.25 2.85 20.25 1.75C20.25 1.34 19.91 1 19.5 1C19.09 1 18.75 1.34 18.75 1.75C18.75 2.85 17.85 3.75 16.75 3.75C16.34 3.75 16 4.09 16 4.5C16 4.91 16.34 5.25 16.75 5.25C17.85 5.25 18.75 6.15 18.75 7.25C18.75 7.66 19.09 8 19.5 8C19.91 8 20.25 7.66 20.25 7.25C20.25 6.15 21.15 5.25 22.25 5.25C22.66 5.25 23 4.91 23 4.5C23 4.09 22.66 3.75 22.25 3.75Z" fill="black" fill-opacity="0.9"/>
</svg>
