<svg width="24" height="24" viewBox="0 0 24 24" fill="none" xmlns="http://www.w3.org/2000/svg">
<path d="M21.3 8L19.5 7.4C19 7.3 18.7 6.8 18.7 6.3V4.4C18.7 3.6 18 3.1 17.3 3.3L15.3 4C14.8 4.1 14.3 4 14.1 3.6L12.9 2C12.6 1.6 12.1 1.5 11.7 1.6C11.5 1.7 11.3 1.8 11.1 2L10 3.6C9.70001 4 9.20001 4.2 8.70001 4L6.80001 3.4C6.60001 3.3 6.30001 3.3 6.10001 3.4C5.70001 3.5 5.40001 3.9 5.40001 4.4V6.4C5.40001 6.9 5.10001 7.3 4.60001 7.5L2.70001 8.1C2.00001 8.4 1.70001 9.3 2.20001 9.9L3.40001 11.4C3.70001 11.8 3.70001 12.3 3.40001 12.7L2.20001 14.3C2.00001 14.6 1.90001 15 2.00001 15.3C2.10001 15.6 2.40001 15.9 2.70001 16L4.60001 16.6C5.10001 16.7 5.40001 17.2 5.40001 17.7V19.6C5.40001 20.4 6.10001 20.9 6.80001 20.7L8.70001 20C9.20001 19.9 9.70001 20 9.90001 20.4L11.1 22C11.4 22.4 11.9 22.5 12.3 22.4C12.5 22.3 12.7 22.2 12.8 22L14 20.4C14.3 20 14.8 19.8 15.2 20L17.1 20.6C17.3 20.7 17.6 20.7 17.8 20.6C18.2 20.5 18.6 20.1 18.6 19.5V17.5C18.6 17 18.9 16.6 19.4 16.4L21.3 15.8C22 15.6 22.3 14.7 21.8 14.1L20.6 12.6C20.3 12.2 20.3 11.7 20.6 11.3L21.7 9.8C21.9 9.5 22 9.1 21.9 8.8C21.9 8.4 21.6 8.2 21.3 8ZM6.90001 12.6L6.60001 11.6L16.1 8.5L16.4 9.5L6.90001 12.6ZM9.80001 14.8L9.50001 13.8L15.2 11.9L15.5 12.9L9.80001 14.8Z" fill="black" fill-opacity="0.9"/>
</svg>
