<svg width="56" height="56" viewBox="0 0 56 56" fill="none" xmlns="http://www.w3.org/2000/svg">
<g clip-path="url(#clip0_16988_24347)">
<path d="M53.5782 25.0471C54.8072 24.9052 55.7091 23.7899 55.4695 22.5763C55.4179 22.3153 55.3627 22.0552 55.3038 21.7958C55.0296 20.5895 53.7524 19.9368 52.5718 20.3065V20.3065C51.4035 20.6723 50.7528 21.9183 51.0071 23.1158V23.1158C51.2613 24.3134 52.3621 25.1875 53.5782 25.0471V25.0471Z" fill="currentColor"/>
<path d="M53.5782 25.0471C54.8072 24.9052 55.7091 23.7899 55.4695 22.5763C55.4179 22.3153 55.3627 22.0552 55.3038 21.7958C55.0296 20.5895 53.7524 19.9368 52.5718 20.3065V20.3065C51.4035 20.6723 50.7528 21.9183 51.0071 23.1158V23.1158C51.2613 24.3134 52.3621 25.1875 53.5782 25.0471V25.0471Z" fill="currentColor"/>
<path d="M53.5782 25.0471C54.8072 24.9052 55.7091 23.7899 55.4695 22.5763C55.4179 22.3153 55.3627 22.0552 55.3038 21.7958C55.0296 20.5895 53.7524 19.9368 52.5718 20.3065V20.3065C51.4035 20.6723 50.7528 21.9183 51.0071 23.1158V23.1158C51.2613 24.3134 52.3621 25.1875 53.5782 25.0471V25.0471Z" fill="currentColor"/>
<path d="M53.5782 25.0471C54.8072 24.9052 55.7091 23.7899 55.4695 22.5763C55.4179 22.3153 55.3627 22.0552 55.3038 21.7958C55.0296 20.5895 53.7524 19.9368 52.5718 20.3065V20.3065C51.4035 20.6723 50.7528 21.9183 51.0071 23.1158V23.1158C51.2613 24.3134 52.3621 25.1875 53.5782 25.0471V25.0471Z" fill="currentColor"/>
<path d="M53.5605 24.7976C54.788 24.6437 55.6675 23.5212 55.4161 22.3099C55.1235 20.9005 54.7227 19.5156 54.2172 18.1678C53.7827 17.0094 52.4397 16.5302 51.3198 17.0558V17.0558C50.1999 17.5814 49.7291 18.9127 50.1458 20.0775C50.4725 20.9908 50.7425 21.9234 50.954 22.8701C51.2239 24.0774 52.333 24.9514 53.5605 24.7976V24.7976Z" fill="currentColor"/>
<path d="M53.5452 24.676C54.772 24.5164 55.6461 23.3897 55.3889 22.1796C55.0897 20.7716 54.6823 19.3886 54.1704 18.0432C53.7305 16.887 52.3851 16.4141 51.2677 16.945V16.945C50.1503 17.4759 49.6858 18.8094 50.1081 19.9723C50.4392 20.884 50.7135 21.8153 50.9296 22.7609C51.2052 23.967 52.3184 24.8357 53.5452 24.676V24.676Z" fill="currentColor"/>
<path d="M53.551 24.7225C54.7781 24.565 55.6542 23.44 55.3993 22.2294C55.1026 20.8208 54.6977 19.4371 54.1882 18.0908C53.7504 16.9337 52.4059 16.4584 51.2876 16.9873V16.9873C50.1692 17.5162 49.7023 18.8489 50.1225 20.0125C50.4519 20.9248 50.7246 21.8566 50.9389 22.8026C51.2123 24.0091 52.324 24.8799 53.551 24.7225V24.7225Z" fill="currentColor"/>
<path d="M52.8912 21.4129C54.0871 21.0965 54.82 19.8635 54.409 18.6967C54.3206 18.4458 54.2287 18.1962 54.1332 17.948C53.6891 16.7933 52.3315 16.3304 51.2161 16.8654V16.8654C50.1122 17.3948 49.6467 18.7211 50.0699 19.8699V19.8699C50.4931 21.0187 51.7077 21.7261 52.8912 21.4129V21.4129Z" fill="currentColor"/>
<path d="M52.8912 21.4129C54.0871 21.0965 54.82 19.8635 54.409 18.6967C54.3206 18.4458 54.2287 18.1962 54.1332 17.948C53.6891 16.7933 52.3315 16.3304 51.2161 16.8654V16.8654C50.1122 17.3948 49.6467 18.7211 50.0699 19.8699V19.8699C50.4931 21.0187 51.7077 21.7261 52.8912 21.4129V21.4129Z" fill="currentColor"/>
<path d="M52.8912 21.4129C54.0871 21.0965 54.82 19.8635 54.409 18.6967C54.3206 18.4458 54.2287 18.1962 54.1332 17.948C53.6891 16.7933 52.3315 16.3304 51.2161 16.8654V16.8654C50.1122 17.3948 49.6467 18.7211 50.0699 19.8699V19.8699C50.4931 21.0187 51.7077 21.7261 52.8912 21.4129V21.4129Z" fill="currentColor"/>
<path d="M52.8912 21.4129C54.0871 21.0965 54.82 19.8635 54.409 18.6967C54.3206 18.4458 54.2287 18.1962 54.1332 17.948C53.6891 16.7933 52.3315 16.3304 51.2161 16.8654V16.8654C50.1122 17.3948 49.6467 18.7211 50.0699 19.8699V19.8699C50.4931 21.0187 51.7077 21.7261 52.8912 21.4129V21.4129Z" fill="currentColor"/>
<path d="M52.8912 21.4129C54.0871 21.0965 54.82 19.8635 54.409 18.6967C54.3206 18.4458 54.2287 18.1962 54.1332 17.948C53.6891 16.7933 52.3315 16.3304 51.2161 16.8654V16.8654C50.1122 17.3948 49.6467 18.7211 50.0699 19.8699V19.8699C50.4931 21.0187 51.7077 21.7261 52.8912 21.4129V21.4129Z" fill="currentColor"/>
<path d="M52.8912 21.4129C54.0871 21.0965 54.82 19.8635 54.409 18.6967C54.3206 18.4458 54.2287 18.1962 54.1332 17.948C53.6891 16.7933 52.3315 16.3304 51.2161 16.8654V16.8654C50.1122 17.3948 49.6467 18.7211 50.0699 19.8699V19.8699C50.4931 21.0187 51.7077 21.7261 52.8912 21.4129V21.4129Z" fill="currentColor"/>
</g>
<defs>
<clipPath id="clip0_16988_24347">
<rect width="56" height="56" fill="white"/>
</clipPath>
</defs>
</svg>
