<svg width="56" height="56" viewBox="0 0 56 56" fill="none" xmlns="http://www.w3.org/2000/svg">
<g clip-path="url(#clip0_16988_24392)">
<path d="M2.84216 22.4645C1.63394 22.1987 0.429537 22.9622 0.261102 24.1878C-0.175377 27.3638 -0.0631606 30.5915 0.592837 33.7295C0.845984 34.9404 2.1005 35.6184 3.28734 35.2693V35.2693C4.47418 34.9202 5.14205 33.676 4.90738 32.4614C4.4422 30.0535 4.35647 27.5875 4.6533 25.1532C4.80304 23.9252 4.05037 22.7304 2.84216 22.4645V22.4645Z" fill="currentColor"/>
<path d="M3.3327 35.4218C2.14804 35.7783 1.46817 37.0318 1.91813 38.1841C2.44171 39.5251 3.06793 40.8236 3.7912 42.0683C4.41277 43.1379 5.81696 43.3864 6.83349 42.6813V42.6813C7.85003 41.9762 8.09216 40.5851 7.48696 39.5061C7.01244 38.6601 6.59071 37.7856 6.22419 36.8875C5.75671 35.7421 4.51736 35.0654 3.3327 35.4218V35.4218Z" fill="currentColor"/>
<path d="M3.3327 35.4218C2.14804 35.7783 1.46816 37.0318 1.91813 38.1841C2.44171 39.5251 3.06793 40.8236 3.79119 42.0683C4.41277 43.1379 5.81696 43.3864 6.83349 42.6813V42.6813C7.85002 41.9762 8.09216 40.5851 7.48696 39.5061C7.01244 38.6601 6.59071 37.7856 6.22418 36.8875C5.75671 35.7421 4.51736 35.0654 3.3327 35.4218V35.4218Z" fill="currentColor"/>
<path d="M2.41925 31.0366C1.19075 31.1824 0.304005 32.2992 0.547529 33.5121C0.94658 35.4997 1.56032 37.4381 2.37791 39.2931C2.87685 40.4251 4.24476 40.828 5.33331 40.2402V40.2402C6.42186 39.6524 6.81699 38.2967 6.33535 37.1572C5.76565 35.8093 5.32298 34.4112 5.0131 32.9811C4.75112 31.772 3.64774 30.8908 2.41925 31.0366V31.0366Z" fill="currentColor"/>
<path d="M8.65914 45.0152C7.73029 45.8324 7.63379 47.2551 8.52254 48.1157C9.97889 49.5258 11.5841 50.7737 13.3099 51.8373C14.3631 52.4864 15.7181 52.042 16.2809 50.9403V50.9403C16.8437 49.8386 16.3999 48.4981 15.3567 47.8331C14.1228 47.0464 12.965 46.1464 11.8983 45.1446C10.9966 44.2976 9.58799 44.1981 8.65914 45.0152V45.0152Z" fill="currentColor"/>
<path d="M8.65914 45.0152C7.73029 45.8324 7.63379 47.2551 8.52254 48.1157C9.97889 49.5258 11.5841 50.7737 13.3099 51.8373C14.3631 52.4864 15.7181 52.042 16.2809 50.9403V50.9403C16.8437 49.8386 16.3999 48.4981 15.3567 47.8331C14.1228 47.0464 12.965 46.1464 11.8983 45.1446C10.9966 44.2976 9.58799 44.1981 8.65914 45.0152V45.0152Z" fill="currentColor"/>
<path d="M8.65914 45.0152C7.73029 45.8324 7.63379 47.2551 8.52254 48.1157C9.97889 49.5258 11.5841 50.7737 13.3099 51.8373C14.3631 52.4864 15.7181 52.042 16.2809 50.9403V50.9403C16.8437 49.8386 16.3999 48.4981 15.3567 47.8331C14.1228 47.0464 12.965 46.1464 11.8983 45.1446C10.9966 44.2976 9.58799 44.1981 8.65914 45.0152V45.0152Z" fill="currentColor"/>
<path d="M18.2208 51.8189C17.7509 52.9633 18.2912 54.292 19.4696 54.6689C19.7229 54.7499 19.9773 54.8273 20.2329 54.9011C21.4214 55.2443 22.6101 54.4416 22.8572 53.2294V53.2294C23.1017 52.0298 22.3255 50.858 21.1543 50.5017V50.5017C19.983 50.1454 18.6857 50.6864 18.2208 51.8189V51.8189Z" fill="currentColor"/>
<path d="M18.2208 51.8189C17.7509 52.9633 18.2912 54.292 19.4696 54.6689C19.7229 54.7499 19.9773 54.8273 20.2329 54.9011C21.4214 55.2443 22.6101 54.4416 22.8572 53.2294V53.2294C23.1017 52.0298 22.3255 50.858 21.1543 50.5017V50.5017C19.983 50.1454 18.6857 50.6864 18.2208 51.8189V51.8189Z" fill="currentColor"/>
<path d="M18.2208 51.8189C17.7509 52.9633 18.2912 54.292 19.4696 54.6689C19.7229 54.7499 19.9773 54.8273 20.2329 54.9011C21.4214 55.2443 22.6101 54.4416 22.8572 53.2294V53.2294C23.1017 52.0298 22.3255 50.858 21.1543 50.5017V50.5017C19.983 50.1454 18.6857 50.6864 18.2208 51.8189V51.8189Z" fill="currentColor"/>
<path d="M18.2208 51.8189C17.7509 52.9633 18.2912 54.292 19.4696 54.6689C19.7229 54.7499 19.9773 54.8273 20.2329 54.9011C21.4214 55.2443 22.6101 54.4416 22.8572 53.2294V53.2294C23.1017 52.0298 22.3255 50.858 21.1543 50.5017V50.5017C19.983 50.1454 18.6857 50.6864 18.2208 51.8189V51.8189Z" fill="currentColor"/>
<path d="M18.2208 51.8189C17.7509 52.9633 18.2912 54.292 19.4695 54.6689C19.7229 54.7499 19.9773 54.8273 20.2329 54.9011C21.4214 55.2443 22.6101 54.4416 22.8572 53.2294V53.2294C23.1017 52.0298 22.3255 50.858 21.1543 50.5017V50.5017C19.983 50.1454 18.6857 50.6864 18.2208 51.8189V51.8189Z" fill="currentColor"/>
<path d="M18.2208 51.8189C17.7509 52.9633 18.2912 54.292 19.4695 54.6689C19.7229 54.7499 19.9773 54.8273 20.2329 54.9011C21.4214 55.2443 22.6101 54.4416 22.8572 53.2294V53.2294C23.1017 52.0298 22.3255 50.858 21.1543 50.5017V50.5017C19.983 50.1454 18.6857 50.6864 18.2208 51.8189V51.8189Z" fill="currentColor"/>
</g>
<defs>
<clipPath id="clip0_16988_24392">
<rect width="56" height="56" fill="white"/>
</clipPath>
</defs>
</svg>
