<svg width="56" height="56" viewBox="0 0 56 56" fill="none" xmlns="http://www.w3.org/2000/svg">
<g clip-path="url(#clip0_16988_24407)">
<path d="M25.9771 2.31945C25.88 1.08616 24.7991 0.155967 23.5775 0.351364C22.1561 0.578729 20.7543 0.915378 19.3846 1.35831C18.2075 1.73896 17.6669 3.05854 18.1404 4.20145V4.20145C18.6139 5.34437 19.9221 5.87596 21.1049 5.51329C22.0323 5.22893 22.9763 5.00221 23.9317 4.83443C25.1501 4.62044 26.0743 3.55275 25.9771 2.31945V2.31945Z" fill="currentColor"/>
<path d="M18.2622 4.15199C17.7945 3.00668 16.4819 2.44932 15.3776 3.00702C14.0927 3.65596 12.8597 4.40304 11.6896 5.24159C10.6841 5.96224 10.5705 7.38371 11.3692 8.32845V8.32845C12.1679 9.27319 13.5758 9.3817 14.5922 8.67646C15.3891 8.1235 16.2195 7.62038 17.0786 7.16996C18.1742 6.5955 18.7298 5.29731 18.2622 4.15199V4.15199Z" fill="currentColor"/>
<path d="M18.2622 4.15199C17.7945 3.00668 16.4819 2.44932 15.3776 3.00702C14.0927 3.65596 12.8597 4.40304 11.6896 5.24159C10.6841 5.96224 10.5705 7.38371 11.3692 8.32845V8.32845C12.1679 9.27319 13.5758 9.3817 14.5922 8.67646C15.3891 8.1235 16.2195 7.62038 17.0786 7.16996C18.1742 6.5955 18.7298 5.29731 18.2622 4.15199V4.15199Z" fill="currentColor"/>
<path d="M22.5408 2.82531C22.2786 1.61629 21.0825 0.839971 19.8983 1.19794C17.9578 1.78452 16.0867 2.58013 14.318 3.57072C13.2386 4.17524 12.9679 5.57531 13.6567 6.60291V6.60291C14.3456 7.63051 15.7327 7.89469 16.8212 7.30669C18.1086 6.61118 19.4582 6.03732 20.8523 5.59261C22.0309 5.21664 22.803 4.03432 22.5408 2.82531V2.82531Z" fill="currentColor"/>
<path d="M8.2501 11.4616C7.30163 10.6673 5.88071 10.7875 5.16477 11.7964C4.33169 12.9704 3.59038 14.2069 2.94745 15.4948C2.39492 16.6017 2.95841 17.9117 4.1059 18.374V18.374C5.25338 18.8363 6.54896 18.2746 7.1183 17.1763C7.56469 16.3152 8.06394 15.4824 8.61316 14.6829C9.31364 13.6632 9.19856 12.2559 8.2501 11.4616V11.4616Z" fill="currentColor"/>
<path d="M8.2501 11.4616C7.30163 10.6673 5.88071 10.7875 5.16477 11.7964C4.33169 12.9704 3.59038 14.2069 2.94745 15.4948C2.39492 16.6017 2.95841 17.9117 4.1059 18.374V18.374C5.25338 18.8363 6.54896 18.2746 7.1183 17.1763C7.56469 16.3152 8.06394 15.4824 8.61316 14.6829C9.31364 13.6632 9.19856 12.2559 8.2501 11.4616V11.4616Z" fill="currentColor"/>
<path d="M8.2501 11.4616C7.30163 10.6673 5.88071 10.7875 5.16477 11.7964C4.33169 12.9704 3.59038 14.2069 2.94745 15.4948C2.39492 16.6017 2.95841 17.9117 4.1059 18.374V18.374C5.25338 18.8363 6.54896 18.2746 7.1183 17.1763C7.56469 16.3152 8.06394 15.4824 8.61316 14.6829C9.31364 13.6632 9.19856 12.2559 8.2501 11.4616V11.4616Z" fill="currentColor"/>
<path d="M2.67285 23.3624C1.45596 23.1396 0.267895 23.9432 0.143044 25.174C0.116203 25.4387 0.0931339 25.7036 0.0738429 25.9689C-0.0158894 27.2027 1.01542 28.1996 2.25251 28.1904V28.1904C3.47672 28.1814 4.46254 27.1794 4.56873 25.9598V25.9598C4.67492 24.7402 3.87708 23.5829 2.67285 23.3624V23.3624Z" fill="currentColor"/>
<path d="M2.67285 23.3624C1.45596 23.1396 0.267895 23.9432 0.143044 25.174C0.116203 25.4387 0.0931339 25.7036 0.0738429 25.9689C-0.0158894 27.2027 1.01542 28.1996 2.25251 28.1904V28.1904C3.47672 28.1814 4.46254 27.1794 4.56873 25.9598V25.9598C4.67492 24.7402 3.87708 23.5829 2.67285 23.3624V23.3624Z" fill="currentColor"/>
<path d="M2.67285 23.3624C1.45596 23.1396 0.267895 23.9432 0.143044 25.174C0.116203 25.4387 0.0931339 25.7036 0.0738429 25.9689C-0.0158894 27.2027 1.01542 28.1996 2.25251 28.1904V28.1904C3.47672 28.1814 4.46254 27.1794 4.56873 25.9598V25.9598C4.67492 24.7402 3.87708 23.5829 2.67285 23.3624V23.3624Z" fill="currentColor"/>
<path d="M2.67285 23.3624C1.45596 23.1396 0.267895 23.9432 0.143044 25.174C0.116203 25.4387 0.0931339 25.7036 0.0738429 25.9689C-0.0158894 27.2027 1.01542 28.1996 2.25251 28.1904V28.1904C3.47672 28.1814 4.46254 27.1794 4.56873 25.9598V25.9598C4.67492 24.7402 3.87708 23.5829 2.67285 23.3624V23.3624Z" fill="currentColor"/>
<path d="M2.67285 23.3624C1.45596 23.1396 0.267896 23.9432 0.143046 25.174C0.116205 25.4386 0.0931355 25.7036 0.0738444 25.9689C-0.0158879 27.2027 1.01542 28.1996 2.25251 28.1904V28.1904C3.47673 28.1814 4.46255 27.1794 4.56873 25.9598V25.9598C4.67492 24.7402 3.87708 23.5829 2.67285 23.3624V23.3624Z" fill="currentColor"/>
<path d="M2.67285 23.3624C1.45596 23.1396 0.267896 23.9432 0.143046 25.174C0.116205 25.4386 0.0931355 25.7036 0.0738444 25.9689C-0.0158879 27.2027 1.01542 28.1996 2.25251 28.1904V28.1904C3.47673 28.1814 4.46255 27.1794 4.56873 25.9598V25.9598C4.67492 24.7402 3.87708 23.5829 2.67285 23.3624V23.3624Z" fill="currentColor"/>
</g>
<defs>
<clipPath id="clip0_16988_24407">
<rect width="56" height="56" fill="white"/>
</clipPath>
</defs>
</svg>
