<svg width="56" height="56" viewBox="0 0 56 56" fill="none" xmlns="http://www.w3.org/2000/svg">
<g clip-path="url(#clip0_16988_24452)">
<path d="M3.63033 36.3488C2.45998 36.7498 1.82799 38.0281 2.32117 39.1627C3.83501 42.6452 6.04177 45.7839 8.80659 48.3868C9.70734 49.2348 11.1241 49.0727 11.8975 48.107V48.107C12.6708 47.1414 12.5062 45.7389 11.6185 44.8773C9.50268 42.8237 7.79168 40.3901 6.57515 37.7043C6.06473 36.5774 4.80067 35.9479 3.63033 36.3488V36.3488Z" fill="currentColor"/>
<path d="M8.79529 45.1688C7.87301 45.9934 7.78787 47.4168 8.68347 48.2703C9.72559 49.2633 10.8428 50.1746 12.025 50.9959C13.041 51.7017 14.4183 51.3322 15.0407 50.263V50.263C15.663 49.1939 15.2933 47.831 14.2882 47.1098C13.5001 46.5444 12.7477 45.9307 12.0354 45.2723C11.1269 44.4326 9.71758 44.3443 8.79529 45.1688V45.1688Z" fill="currentColor"/>
<path d="M11.2024 47.5296C10.3957 48.4675 10.4973 49.8899 11.4966 50.6191C14.6173 52.896 18.1759 54.5028 21.9476 55.3378C23.1555 55.6053 24.2896 54.7407 24.4596 53.5154V53.5154C24.6297 52.29 23.7704 51.1694 22.5667 50.8836C19.6443 50.1897 16.8815 48.9423 14.4283 47.2091C13.418 46.4952 12.0092 46.5917 11.2024 47.5296V47.5296Z" fill="currentColor"/>
<path d="M18.8564 52.0828C18.4173 53.2394 18.9971 54.5422 20.1851 54.8875C22.697 55.6175 25.299 55.992 27.9149 55.9999C29.152 56.0037 30.0757 54.9172 29.9806 53.6838V53.6838C29.8854 52.4503 28.807 51.5387 27.5701 51.5161C25.6131 51.4804 23.668 51.2005 21.7803 50.6829C20.5873 50.3558 19.2955 50.9262 18.8564 52.0828V52.0828Z" fill="currentColor"/>
<path d="M39.0121 51.2875C39.541 52.4059 40.8817 52.8915 41.9542 52.275C43.2023 51.5576 44.3931 50.745 45.5162 49.8444C46.4813 49.0705 46.5179 47.645 45.6694 46.7448V46.7448C44.8208 45.8446 43.4091 45.8123 42.4323 46.5714C41.6664 47.1666 40.8644 47.7138 40.0309 48.21C38.9679 48.8428 38.4832 50.1691 39.0121 51.2875V51.2875Z" fill="currentColor"/>
<path d="M42.1444 49.5152C42.824 50.549 44.2258 50.8528 45.2019 50.0928C45.4117 49.9294 45.6193 49.763 45.8244 49.5937C46.7784 48.8062 46.7867 47.3719 45.9255 46.4838V46.4838C45.0732 45.6049 43.6677 45.5843 42.7125 46.3501V46.3501C41.7574 47.1159 41.4719 48.4922 42.1444 49.5152V49.5152Z" fill="currentColor"/>
<path d="M42.1492 49.5127C42.829 50.5463 44.2309 50.8498 45.2068 50.0895C45.4167 49.9261 45.6241 49.7597 45.8292 49.5903C46.7831 48.8026 46.7911 47.3683 45.9296 46.4804V46.4804C45.0772 45.6017 43.6717 45.5814 42.7167 46.3474V46.3474C41.7617 47.1134 41.4765 48.4898 42.1492 49.5127V49.5127Z" fill="currentColor"/>
<path d="M53.7594 27.8721C54.9965 27.866 56.0037 26.8565 55.8987 25.6238C55.7766 24.1895 55.544 22.7667 55.203 21.3682C54.91 20.1662 53.6338 19.5301 52.4591 19.9182V19.9182C51.2845 20.3063 50.658 21.5719 50.9327 22.7781C51.1481 23.7239 51.3047 24.6821 51.4017 25.6472C51.5255 26.8781 52.5223 27.8783 53.7594 27.8721V27.8721Z" fill="currentColor"/>
<path d="M53.4745 24.2543C54.6985 24.0743 55.5654 22.9316 55.2882 21.7259C55.2286 21.4668 55.1653 21.2084 55.0983 20.951C54.7869 19.7537 53.49 19.1411 52.3214 19.5472V19.5472C51.165 19.9491 50.5534 21.2147 50.8447 22.4038V22.4038C51.136 23.5929 52.2633 24.4324 53.4745 24.2543V24.2543Z" fill="currentColor"/>
<path d="M53.4745 24.2543C54.6985 24.0743 55.5654 22.9316 55.2882 21.7259C55.2286 21.4668 55.1653 21.2084 55.0983 20.951C54.7869 19.7537 53.49 19.1411 52.3214 19.5472V19.5472C51.165 19.9491 50.5534 21.2147 50.8447 22.4038V22.4038C51.136 23.5929 52.2633 24.4324 53.4745 24.2543V24.2543Z" fill="currentColor"/>
<path d="M53.4745 24.2543C54.6985 24.0743 55.5654 22.9316 55.2882 21.7259C55.2286 21.4668 55.1653 21.2084 55.0983 20.951C54.7869 19.7537 53.49 19.1411 52.3214 19.5472V19.5472C51.165 19.9491 50.5534 21.2147 50.8447 22.4038V22.4038C51.136 23.5929 52.2633 24.4324 53.4745 24.2543V24.2543Z" fill="currentColor"/>
<path d="M53.4745 24.2543C54.6985 24.0743 55.5654 22.9316 55.2882 21.7259C55.2286 21.4668 55.1653 21.2084 55.0983 20.951C54.7869 19.7537 53.49 19.1411 52.3214 19.5472V19.5472C51.165 19.9491 50.5534 21.2147 50.8447 22.4038V22.4038C51.136 23.5929 52.2633 24.4324 53.4745 24.2543V24.2543Z" fill="currentColor"/>
<path d="M53.4745 24.2543C54.6985 24.0743 55.5654 22.9316 55.2882 21.7259C55.2286 21.4668 55.1653 21.2084 55.0983 20.951C54.7869 19.7537 53.49 19.1411 52.3214 19.5472V19.5472C51.165 19.9491 50.5534 21.2147 50.8447 22.4038V22.4038C51.136 23.5929 52.2633 24.4324 53.4745 24.2543V24.2543Z" fill="currentColor"/>
</g>
<defs>
<clipPath id="clip0_16988_24452">
<rect width="56" height="56" fill="white"/>
</clipPath>
</defs>
</svg>
