<svg width="56" height="56" viewBox="0 0 56 56" fill="none" xmlns="http://www.w3.org/2000/svg">
<g clip-path="url(#clip0_16988_24377)">
<path d="M25.3189 53.6202C25.1901 54.8506 26.0837 55.9619 27.3205 55.9919C28.7596 56.0268 30.1993 55.9508 31.6267 55.7643C32.8534 55.6041 33.6249 54.4049 33.3672 53.1949V53.1949C33.1094 51.9849 31.9197 51.2243 30.6907 51.3658C29.7271 51.4767 28.7576 51.528 27.7876 51.5192C26.5506 51.508 25.4477 52.3898 25.3189 53.6202V53.6202Z" fill="currentColor"/>
<path d="M25.3189 53.6202C25.1901 54.8506 26.0837 55.9619 27.3205 55.9919C28.7596 56.0268 30.1993 55.9508 31.6267 55.7643C32.8534 55.6041 33.6249 54.4049 33.3672 53.1949V53.1949C33.1094 51.9849 31.9197 51.2243 30.6907 51.3658C29.7271 51.4767 28.7576 51.528 27.7876 51.5192C26.5506 51.508 25.4477 52.3898 25.3189 53.6202V53.6202Z" fill="currentColor"/>
<path d="M25.3189 53.6202C25.1901 54.8506 26.0837 55.9619 27.3205 55.9919C28.7596 56.0268 30.1993 55.9508 31.6267 55.7643C32.8534 55.6041 33.6249 54.4049 33.3672 53.1949V53.1949C33.1094 51.9849 31.9197 51.2243 30.6907 51.3658C29.7271 51.4767 28.7576 51.528 27.7876 51.5192C26.5506 51.508 25.4477 52.3898 25.3189 53.6202V53.6202Z" fill="currentColor"/>
<path d="M20.9203 52.7685C20.5803 53.958 21.2679 55.2073 22.4808 55.4511C24.4682 55.8507 26.4932 56.0332 28.5201 55.9956C29.757 55.9726 30.6569 54.8664 30.5352 53.6353V53.6353C30.4134 52.4042 29.3155 51.5161 28.0784 51.5203C26.6151 51.5252 25.1545 51.3935 23.7157 51.127C22.4992 50.9016 21.2602 51.5791 20.9203 52.7685V52.7685Z" fill="currentColor"/>
<path d="M31.9761 53.4512C32.1671 54.6735 33.3157 55.5185 34.5188 55.2305C35.3479 55.0321 36.1675 54.7958 36.9751 54.5226C38.1469 54.126 38.6696 52.7993 38.1807 51.6629V51.6629C37.6918 50.5264 36.3765 50.0126 35.1988 50.3912C34.7446 50.5372 34.286 50.6694 33.8238 50.7875C32.6252 51.0938 31.7852 52.2289 31.9761 53.4512V53.4512Z" fill="currentColor"/>
<path d="M31.9761 53.4512C32.1671 54.6735 33.3157 55.5185 34.5188 55.2305C35.3479 55.0321 36.1675 54.7958 36.9751 54.5226C38.1469 54.126 38.6696 52.7993 38.1807 51.6629V51.6629C37.6918 50.5264 36.3765 50.0126 35.1988 50.3912C34.7446 50.5372 34.286 50.6694 33.8238 50.7875C32.6252 51.0938 31.7852 52.2289 31.9761 53.4512V53.4512Z" fill="currentColor"/>
<path d="M31.9761 53.4512C32.1671 54.6735 33.3157 55.5185 34.5188 55.2305C35.3479 55.0321 36.1675 54.7958 36.9751 54.5226C38.1469 54.126 38.6696 52.7993 38.1807 51.6629V51.6629C37.6918 50.5264 36.3765 50.0126 35.1988 50.3912C34.7446 50.5372 34.286 50.6694 33.8238 50.7875C32.6252 51.0938 31.7852 52.2289 31.9761 53.4512V53.4512Z" fill="currentColor"/>
<path d="M37.623 51.8828C38.0853 53.0303 39.3997 53.6046 40.5065 53.052C40.7445 52.9332 40.9807 52.8111 41.2152 52.6855C42.3059 52.1016 42.5969 50.6971 41.9277 49.6566V49.6566C41.2655 48.6269 39.8917 48.3296 38.8042 48.8919V48.8919C37.7168 49.4543 37.1654 50.7473 37.623 51.8828V51.8828Z" fill="currentColor"/>
<path d="M37.623 51.8828C38.0853 53.0303 39.3997 53.6046 40.5065 53.052C40.7445 52.9332 40.9807 52.8111 41.2152 52.6855C42.3059 52.1016 42.5969 50.6971 41.9277 49.6566V49.6566C41.2655 48.6269 39.8917 48.3296 38.8042 48.8919V48.8919C37.7168 49.4543 37.1654 50.7473 37.623 51.8828V51.8828Z" fill="currentColor"/>
<path d="M37.623 51.8828C38.0853 53.0303 39.3997 53.6046 40.5065 53.052C40.7445 52.9332 40.9807 52.8111 41.2152 52.6855C42.3059 52.1016 42.5969 50.6971 41.9277 49.6566V49.6566C41.2655 48.6269 39.8917 48.3296 38.8042 48.8919V48.8919C37.7168 49.4543 37.1654 50.7473 37.623 51.8828V51.8828Z" fill="currentColor"/>
<path d="M37.623 51.8828C38.0853 53.0303 39.3997 53.6046 40.5065 53.052C40.7445 52.9332 40.9807 52.8111 41.2152 52.6855C42.3059 52.1016 42.5969 50.6971 41.9277 49.6566V49.6566C41.2655 48.6269 39.8917 48.3296 38.8042 48.8919V48.8919C37.7168 49.4543 37.1654 50.7473 37.623 51.8828V51.8828Z" fill="currentColor"/>
<path d="M37.623 51.8828C38.0853 53.0303 39.3997 53.6046 40.5065 53.052C40.7445 52.9332 40.9807 52.8111 41.2152 52.6855C42.3059 52.1016 42.5968 50.6971 41.9277 49.6566V49.6566C41.2655 48.6269 39.8917 48.3296 38.8042 48.8919V48.8919C37.7168 49.4543 37.1654 50.7473 37.623 51.8828V51.8828Z" fill="currentColor"/>
<path d="M37.623 51.8828C38.0853 53.0303 39.3997 53.6046 40.5065 53.052C40.7445 52.9332 40.9807 52.8111 41.2152 52.6855C42.3059 52.1016 42.5968 50.6971 41.9277 49.6566V49.6566C41.2655 48.6269 39.8917 48.3296 38.8042 48.8919V48.8919C37.7168 49.4543 37.1654 50.7473 37.623 51.8828V51.8828Z" fill="currentColor"/>
</g>
<defs>
<clipPath id="clip0_16988_24377">
<rect width="56" height="56" fill="white"/>
</clipPath>
</defs>
</svg>
