<svg width="56" height="56" viewBox="0 0 56 56" fill="none" xmlns="http://www.w3.org/2000/svg">
<g clip-path="url(#clip0_16988_24437)">
<path d="M47.3847 44.965C48.3156 45.7797 49.7388 45.6905 50.4766 44.6974C52.0366 42.5976 53.2946 40.2894 54.214 37.8403C54.6488 36.6821 53.9525 35.4377 52.7632 35.0968V35.0968C51.574 34.756 50.3436 35.449 49.8913 36.6004C49.1755 38.4222 48.2351 40.1476 47.0919 41.7365C46.3694 42.7407 46.4537 44.1502 47.3847 44.965V44.965Z" fill="currentColor"/>
<path d="M50.3729 40.7685C51.4474 41.3817 52.8243 41.011 53.3497 39.891C54.2106 38.0557 54.8697 36.1322 55.3153 34.1546C55.5873 32.9477 54.727 31.8105 53.5022 31.6358V31.6358C52.2775 31.4612 51.1537 32.3163 50.8635 33.5189C50.5201 34.9413 50.0447 36.3287 49.4435 37.6628C48.9353 38.7907 49.2985 40.1552 50.3729 40.7685V40.7685Z" fill="currentColor"/>
<path d="M52.7916 34.9965C53.9822 35.3325 55.2292 34.6407 55.4689 33.427C55.7479 32.0148 55.9176 30.5831 55.9764 29.1448C56.027 27.9087 54.9763 26.9446 53.7401 26.993V26.993C52.5039 27.0414 51.5522 28.0845 51.4828 29.3197C51.4284 30.2881 51.3141 31.2523 51.1407 32.2066C50.9194 33.4238 51.601 34.6605 52.7916 34.9965V34.9965Z" fill="currentColor"/>
<path d="M53.4809 31.7795C54.7046 31.961 55.8533 31.1159 55.9364 29.8816C56.0726 27.859 55.9888 25.8275 55.6863 23.8229C55.5018 22.5997 54.2874 21.8521 53.0828 22.1338V22.1338C51.8782 22.4155 51.1413 23.6201 51.3072 24.8461C51.5035 26.2962 51.5639 27.7615 51.4879 29.2228C51.4236 30.4582 52.2572 31.598 53.4809 31.7795V31.7795Z" fill="currentColor"/>
<path d="M51.4367 17.3366C52.5627 16.8243 53.0787 15.486 52.478 14.4045C52.3489 14.1719 52.2165 13.9413 52.0808 13.7126C51.4495 12.6486 50.0336 12.4196 49.0235 13.1339V13.1339C48.0239 13.8407 47.7872 15.2262 48.3968 16.2879V16.2879C49.0064 17.3496 50.3223 17.8436 51.4367 17.3366V17.3366Z" fill="currentColor"/>
<path d="M51.4367 17.3366C52.5627 16.8243 53.0787 15.486 52.478 14.4045C52.3489 14.1719 52.2165 13.9413 52.0808 13.7126C51.4495 12.6486 50.0336 12.4196 49.0235 13.1339V13.1339C48.0239 13.8407 47.7872 15.2262 48.3968 16.2879V16.2879C49.0064 17.3496 50.3223 17.8436 51.4367 17.3366V17.3366Z" fill="currentColor"/>
<path d="M51.4367 17.3366C52.5627 16.8243 53.0787 15.486 52.478 14.4045C52.3489 14.1719 52.2165 13.9413 52.0808 13.7126C51.4495 12.6486 50.0336 12.4196 49.0235 13.1339V13.1339C48.0239 13.8407 47.7872 15.2262 48.3968 16.2879V16.2879C49.0064 17.3496 50.3223 17.8436 51.4367 17.3366V17.3366Z" fill="currentColor"/>
<path d="M45.3359 8.96233C46.1689 8.04764 46.1156 6.6143 45.1372 5.85712C44.9269 5.69434 44.7143 5.53456 44.4994 5.37784C43.4999 4.64884 42.1083 4.99651 41.4615 6.05108V6.05108C40.8215 7.09469 41.1501 8.46134 42.1288 9.19678V9.19678C43.1075 9.93221 44.5116 9.86752 45.3359 8.96233V8.96233Z" fill="currentColor"/>
<path d="M45.3359 8.96233C46.1689 8.04764 46.1156 6.6143 45.1372 5.85712C44.9269 5.69434 44.7143 5.53456 44.4994 5.37784C43.4999 4.64884 42.1083 4.99651 41.4615 6.05108V6.05108C40.8215 7.09469 41.1501 8.46134 42.1288 9.19678V9.19678C43.1075 9.93221 44.5116 9.86752 45.3359 8.96233V8.96233Z" fill="currentColor"/>
<path d="M45.3359 8.96233C46.1689 8.04764 46.1156 6.6143 45.1372 5.85712C44.9269 5.69434 44.7143 5.53456 44.4994 5.37784C43.4999 4.64884 42.1083 4.99651 41.4615 6.05108V6.05108C40.8215 7.09469 41.1501 8.46134 42.1288 9.19678V9.19678C43.1075 9.93221 44.5116 9.86752 45.3359 8.96233V8.96233Z" fill="currentColor"/>
<path d="M45.3359 8.96233C46.1689 8.04764 46.1156 6.6143 45.1372 5.85712C44.9269 5.69434 44.7143 5.53456 44.4994 5.37784C43.4999 4.64884 42.1083 4.99651 41.4615 6.05108V6.05108C40.8215 7.09469 41.1501 8.46134 42.1288 9.19678V9.19678C43.1075 9.93221 44.5116 9.86752 45.3359 8.96233V8.96233Z" fill="currentColor"/>
<path d="M45.3359 8.96234C46.1689 8.04764 46.1156 6.6143 45.1372 5.85712C44.9269 5.69434 44.7143 5.53456 44.4994 5.37784C43.4999 4.64884 42.1083 4.99651 41.4615 6.05109V6.05109C40.8215 7.09469 41.1501 8.46135 42.1288 9.19678V9.19678C43.1075 9.93222 44.5116 9.86752 45.3359 8.96234V8.96234Z" fill="currentColor"/>
<path d="M45.3359 8.96234C46.1689 8.04764 46.1156 6.6143 45.1372 5.85712C44.9269 5.69434 44.7143 5.53456 44.4994 5.37784C43.4999 4.64884 42.1083 4.99651 41.4615 6.05109V6.05109C40.8215 7.09469 41.1501 8.46135 42.1288 9.19678V9.19678C43.1075 9.93222 44.5116 9.86752 45.3359 8.96234V8.96234Z" fill="currentColor"/>
</g>
<defs>
<clipPath id="clip0_16988_24437">
<rect width="56" height="56" fill="white"/>
</clipPath>
</defs>
</svg>
