<svg width="56" height="56" viewBox="0 0 56 56" fill="none" xmlns="http://www.w3.org/2000/svg">
<g clip-path="url(#clip0_16988_24362)">
<path d="M48.2247 43.9358C49.1964 44.7014 50.6223 44.5461 51.3079 43.5163C51.4552 43.2949 51.5995 43.0714 51.7405 42.8459C52.3964 41.797 51.9504 40.4338 50.8524 39.8638V39.8638C49.7659 39.2997 48.4261 39.7248 47.7623 40.7535V40.7535C47.0985 41.7822 47.2631 43.1781 48.2247 43.9358V43.9358Z" fill="currentColor"/>
<path d="M48.2451 43.9093C49.2178 44.6737 50.6435 44.5166 51.3277 43.4859C51.4748 43.2643 51.6187 43.0407 51.7595 42.815C52.414 41.7652 51.9664 40.4025 50.8677 39.834V39.834C49.7804 39.2713 48.4411 39.6981 47.7786 40.7276V40.7276C47.1161 41.7571 47.2825 43.1528 48.2451 43.9093V43.9093Z" fill="currentColor"/>
<path d="M48.2451 43.9093C49.2178 44.6737 50.6435 44.5166 51.3277 43.4859C51.4748 43.2643 51.6187 43.0407 51.7595 42.815C52.414 41.7652 51.9664 40.4025 50.8676 39.834V39.834C49.7804 39.2713 48.4411 39.6981 47.7786 40.7276V40.7276C47.1161 41.7571 47.2825 43.1528 48.2451 43.9093V43.9093Z" fill="currentColor"/>
<path d="M48.2451 43.9093C49.2178 44.6737 50.6435 44.5166 51.3277 43.4859C51.4748 43.2643 51.6187 43.0407 51.7595 42.815C52.414 41.7652 51.9664 40.4025 50.8677 39.834V39.834C49.7804 39.2713 48.4411 39.6981 47.7786 40.7276V40.7276C47.1161 41.7571 47.2825 43.1528 48.2451 43.9093V43.9093Z" fill="currentColor"/>
<path d="M48.4975 43.5828C49.4823 44.3315 50.9053 44.1515 51.5729 43.11C51.7164 42.8861 51.8567 42.6601 51.9938 42.4322C52.6315 41.3721 52.162 40.0168 51.0543 39.4659V39.4659C49.9581 38.9207 48.6259 39.369 47.98 40.409V40.409C47.3341 41.449 47.5229 42.8419 48.4975 43.5828V43.5828Z" fill="currentColor"/>
<path d="M48.4975 43.5828C49.4823 44.3315 50.9053 44.1515 51.5729 43.11C51.7164 42.8861 51.8567 42.6601 51.9938 42.4322C52.6315 41.3721 52.162 40.0168 51.0543 39.4659V39.4659C49.9581 38.9207 48.6259 39.369 47.98 40.409V40.409C47.3341 41.449 47.5229 42.8419 48.4975 43.5828V43.5828Z" fill="currentColor"/>
<path d="M48.4975 43.5828C49.4823 44.3315 50.9053 44.1515 51.5729 43.11C51.7164 42.8861 51.8567 42.6601 51.9938 42.4322C52.6315 41.3721 52.162 40.0168 51.0543 39.4659V39.4659C49.9581 38.9207 48.6259 39.369 47.98 40.409V40.409C47.3341 41.449 47.5229 42.8419 48.4975 43.5828V43.5828Z" fill="currentColor"/>
<path d="M48.9256 43.0024C49.931 43.7233 51.3484 43.5035 51.9865 42.4437C52.1237 42.2159 52.2577 41.9861 52.3883 41.7544C52.9961 40.6769 52.4888 39.3352 51.3661 38.8156V38.8156C50.2551 38.3013 48.936 38.7867 48.3195 39.8444V39.8444C47.7029 40.902 47.9306 42.2891 48.9256 43.0024V43.0024Z" fill="currentColor"/>
<path d="M48.9256 43.0024C49.931 43.7233 51.3484 43.5035 51.9865 42.4437C52.1237 42.2159 52.2577 41.9861 52.3883 41.7544C52.9961 40.6769 52.4888 39.3352 51.3661 38.8156V38.8156C50.2551 38.3013 48.936 38.7867 48.3195 39.8444V39.8444C47.7029 40.902 47.9306 42.2891 48.9256 43.0024V43.0024Z" fill="currentColor"/>
<path d="M48.9256 43.0024C49.931 43.7233 51.3484 43.5035 51.9865 42.4437C52.1237 42.2159 52.2577 41.9861 52.3883 41.7544C52.9961 40.6769 52.4888 39.3352 51.3661 38.8156V38.8156C50.2551 38.3013 48.936 38.7867 48.3195 39.8444V39.8444C47.7029 40.902 47.9306 42.2891 48.9256 43.0024V43.0024Z" fill="currentColor"/>
<path d="M48.9256 43.0024C49.931 43.7233 51.3484 43.5035 51.9865 42.4437C52.1237 42.2159 52.2577 41.9861 52.3883 41.7544C52.9961 40.6769 52.4888 39.3352 51.3661 38.8156V38.8156C50.2551 38.3013 48.936 38.7867 48.3195 39.8444V39.8444C47.7029 40.902 47.9306 42.2891 48.9256 43.0024V43.0024Z" fill="currentColor"/>
<path d="M48.9256 43.0024C49.931 43.7233 51.3484 43.5035 51.9865 42.4437C52.1237 42.2159 52.2577 41.9861 52.3883 41.7544C52.9961 40.6769 52.4888 39.3352 51.3661 38.8156V38.8156C50.2551 38.3013 48.936 38.7867 48.3195 39.8444V39.8444C47.7029 40.902 47.9306 42.2891 48.9256 43.0024V43.0024Z" fill="currentColor"/>
<path d="M48.9256 43.0024C49.931 43.7233 51.3484 43.5035 51.9865 42.4437C52.1237 42.2159 52.2577 41.9861 52.3883 41.7544C52.9961 40.6769 52.4888 39.3352 51.3661 38.8156V38.8156C50.2551 38.3013 48.936 38.7867 48.3195 39.8444V39.8444C47.7029 40.902 47.9306 42.2891 48.9256 43.0024V43.0024Z" fill="currentColor"/>
</g>
<defs>
<clipPath id="clip0_16988_24362">
<rect width="56" height="56" fill="white"/>
</clipPath>
</defs>
</svg>
