<svg width="56" height="56" viewBox="0 0 56 56" fill="none" xmlns="http://www.w3.org/2000/svg">
<g clip-path="url(#clip0_16988_24467)">
<path d="M13.8359 6.48403C13.1556 5.45071 11.7601 5.15756 10.7844 5.91819C9.64915 6.80327 8.58381 7.77458 7.59789 8.82348C6.7506 9.7249 6.91391 11.1415 7.88016 11.9141V11.9141C8.84641 12.6866 10.2487 12.5209 11.1097 11.6325C11.7847 10.936 12.5022 10.2818 13.2579 9.67386C14.2219 8.89845 14.5161 7.51735 13.8359 6.48403V6.48403Z" fill="currentColor"/>
<path d="M11.0009 8.64552C10.1845 7.71604 8.76181 7.61841 7.90054 8.50649C6.89836 9.53986 5.97735 10.649 5.14573 11.824C4.43103 12.8338 4.78841 14.2143 5.85208 14.846V14.846C6.91575 15.4777 8.28177 15.1199 9.01177 14.1212C9.58413 13.3381 10.2044 12.5911 10.869 11.8846C11.7166 10.9835 11.8173 9.57501 11.0009 8.64552V8.64552Z" fill="currentColor"/>
<path d="M8.3721 11.3176C7.42945 10.5164 6.00767 10.6263 5.28439 11.6299C3.43837 14.1916 2.03883 17.0473 1.14523 20.0757C0.795116 21.2623 1.57934 22.4533 2.79007 22.7074V22.7074C4.00079 22.9616 5.17797 22.1817 5.54612 21.0006C6.26386 18.6981 7.33158 16.5194 8.71166 14.5415C9.41956 13.5269 9.31475 12.1187 8.3721 11.3176V11.3176Z" fill="currentColor"/>
<path d="M4.10837 18.3685C2.96099 17.9059 1.64663 18.4591 1.27724 19.6397C0.671938 21.5745 0.278527 23.5693 0.103948 25.5889C-0.00258998 26.8215 1.00333 27.8322 2.24043 27.8399V27.8399C3.47752 27.8476 4.47558 26.8487 4.60089 25.6179C4.74911 24.1621 5.03287 22.7233 5.44847 21.3203C5.79982 20.1341 5.25576 18.831 4.10837 18.3685V18.3685Z" fill="currentColor"/>
<path d="M3.86815 37.0134C2.70922 37.4462 2.11245 38.7413 2.63652 39.862C3.24634 41.1659 3.95582 42.421 4.75863 43.6158C5.44856 44.6427 6.86595 44.7992 7.8344 44.0294V44.0294C8.80284 43.2596 8.95384 41.8556 8.27964 40.8184C7.75102 40.0051 7.27322 39.1599 6.84897 38.2876C6.30788 37.1751 5.02707 36.5805 3.86815 37.0134V37.0134Z" fill="currentColor"/>
<path d="M5.61764 40.7291C4.54226 41.3406 4.14876 42.7199 4.84431 43.743C4.99384 43.9629 5.14649 44.1808 5.30223 44.3963C6.02664 45.3992 7.45744 45.4998 8.39918 44.6976V44.6976C9.33113 43.9037 9.44222 42.5025 8.73955 41.5V41.5C8.03689 40.4975 6.68184 40.1239 5.61764 40.7291V40.7291Z" fill="currentColor"/>
<path d="M5.61764 40.7291C4.54226 41.3406 4.14876 42.7199 4.84431 43.743C4.99384 43.9629 5.14649 44.1808 5.30223 44.3963C6.02664 45.3992 7.45744 45.4998 8.39918 44.6976V44.6976C9.33113 43.9037 9.44222 42.5025 8.73955 41.5V41.5C8.03689 40.4975 6.68184 40.1239 5.61764 40.7291V40.7291Z" fill="currentColor"/>
<path d="M23.135 53.2963C22.9013 54.5112 23.6966 55.6949 24.9262 55.8307C27.5263 56.1179 30.1539 56.0393 32.7322 55.5972C33.9515 55.3881 34.6745 54.159 34.3687 52.9603V52.9603C34.0628 51.7615 32.8437 51.049 31.6213 51.2395C29.6873 51.5408 27.7231 51.5996 25.7745 51.4144C24.543 51.2973 23.3686 52.0815 23.135 53.2963V53.2963Z" fill="currentColor"/>
<path d="M24.9456 53.5784C24.7989 54.8068 25.6763 55.931 26.9125 55.9791C28.3509 56.035 29.7915 55.9799 31.2215 55.8143C32.4504 55.672 33.2393 54.4841 32.9993 53.2705V53.2705C32.7592 52.0569 31.5807 51.279 30.3498 51.4026C29.3847 51.4995 28.4145 51.5366 27.4448 51.5136C26.208 51.4844 25.0923 52.35 24.9456 53.5784V53.5784Z" fill="currentColor"/>
<path d="M25.4273 53.6315C25.3037 54.8624 26.202 55.9699 27.4389 55.9947C28.8781 56.0236 30.3175 55.9414 31.7441 55.7489C32.9701 55.5835 33.7365 54.381 33.4737 53.1722V53.1722C33.2108 51.9633 32.0179 51.2077 30.7895 51.3544C29.8264 51.4694 28.8571 51.5247 27.8871 51.52C26.65 51.5141 25.5509 52.4005 25.4273 53.6315V53.6315Z" fill="currentColor"/>
<path d="M28.5073 53.7556C28.5316 54.9924 29.5558 55.9847 30.7868 55.8616C33.3897 55.6013 35.9434 54.9775 38.3731 54.0084C39.5222 53.5501 39.9736 52.1974 39.425 51.0886V51.0886C38.8763 49.9798 37.5356 49.5366 36.3796 49.9774C34.5507 50.6747 32.6418 51.141 30.6973 51.3654C29.4683 51.5073 28.4829 52.5187 28.5073 53.7556V53.7556Z" fill="currentColor"/>
<path d="M33.8499 53.0865C34.1308 54.2913 35.3389 55.049 36.5174 54.6726C37.8887 54.2347 39.2242 53.6917 40.512 53.0484C41.6187 52.4956 41.9553 51.1099 41.3158 50.0509V50.0509C40.6763 48.9919 39.3032 48.6624 38.1882 49.1983C37.3139 49.6185 36.4145 49.9842 35.4951 50.2933C34.3225 50.6876 33.5689 51.8817 33.8499 53.0865V53.0865Z" fill="currentColor"/>
<path d="M34.2347 52.994C34.5341 54.1943 35.7536 54.9333 36.9262 54.539C38.2906 54.08 39.6176 53.5166 40.8954 52.8536C41.9935 52.2839 42.3088 50.8932 41.6531 49.8441V49.8441C40.9974 48.795 39.6194 48.4867 38.5128 49.0397C37.6451 49.4732 36.7514 49.8527 35.8368 50.1759C34.6704 50.5881 33.9352 51.7937 34.2347 52.994V52.994Z" fill="currentColor"/>
</g>
<defs>
<clipPath id="clip0_16988_24467">
<rect width="56" height="56" fill="white"/>
</clipPath>
</defs>
</svg>
