<svg width="56" height="56" viewBox="0 0 56 56" fill="none" xmlns="http://www.w3.org/2000/svg">
<g clip-path="url(#clip0_16988_24497)">
<path d="M45.047 8.68695C45.8657 7.75946 45.7824 6.33589 44.7925 5.59396C43.6406 4.73065 42.4238 3.95745 41.153 3.28125C40.0608 2.70013 38.7367 3.22938 38.2447 4.36446V4.36446C37.7527 5.49954 38.2805 6.80928 39.3636 7.40698C40.2129 7.87561 41.0323 8.39633 41.8173 8.96615C42.8184 9.6929 44.2283 9.61445 45.047 8.68695V8.68695Z" fill="currentColor"/>
<path d="M45.047 8.68695C45.8657 7.75946 45.7824 6.33589 44.7925 5.59396C43.6406 4.73065 42.4238 3.95745 41.153 3.28125C40.0608 2.70013 38.7367 3.22938 38.2447 4.36446V4.36446C37.7527 5.49954 38.2805 6.80929 39.3636 7.40698C40.2129 7.87561 41.0323 8.39633 41.8173 8.96615C42.8184 9.6929 44.2283 9.61445 45.047 8.68695V8.68695Z" fill="currentColor"/>
<path d="M45.047 8.68695C45.8657 7.75946 45.7824 6.33589 44.7925 5.59396C43.6406 4.73065 42.4238 3.95745 41.153 3.28125C40.0608 2.70013 38.7367 3.22938 38.2447 4.36446V4.36446C37.7527 5.49954 38.2805 6.80929 39.3636 7.40698C40.2129 7.87561 41.0323 8.39633 41.8173 8.96615C42.8184 9.6929 44.2283 9.61445 45.047 8.68695V8.68695Z" fill="currentColor"/>
<path d="M45.047 8.68696C45.8657 7.75946 45.7824 6.33589 44.7925 5.59397C43.6406 4.73066 42.4238 3.95745 41.153 3.28126C40.0608 2.70013 38.7367 3.22938 38.2447 4.36446V4.36446C37.7527 5.49955 38.2805 6.80929 39.3636 7.40699C40.2129 7.87562 41.0324 8.39634 41.8173 8.96615C42.8185 9.69291 44.2284 9.61445 45.047 8.68696V8.68696Z" fill="currentColor"/>
<path d="M44.1484 7.92965C44.9239 6.96579 44.7758 5.54749 43.7531 4.85148C42.563 4.04159 41.3122 3.32468 40.0119 2.70713C38.8944 2.17641 37.5957 2.76548 37.156 3.92182V3.92182C36.7163 5.07815 37.3033 6.36247 38.4125 6.91015C39.2823 7.33957 40.1246 7.82238 40.9348 8.35582C41.968 9.03617 43.3729 8.89351 44.1484 7.92965V7.92965Z" fill="currentColor"/>
<path d="M44.0459 7.86324C44.8168 6.89572 44.6693 5.46899 43.6433 4.77783C43.4227 4.62925 43.2 4.48381 42.9753 4.34157C41.93 3.67993 40.5643 4.11842 39.9883 5.21327V5.21327C39.4183 6.29673 39.8361 7.6388 40.8611 8.30823V8.30823C41.8861 8.97767 43.283 8.82071 44.0459 7.86324V7.86324Z" fill="currentColor"/>
<path d="M44.0824 7.89153C44.855 6.9254 44.7101 5.49841 43.6853 4.80539C43.465 4.65641 43.2426 4.51057 43.0181 4.36792C41.974 3.70438 40.6076 4.1404 40.0296 5.23421V5.23421C39.4576 6.31664 39.873 7.65947 40.8968 8.33075V8.33075C41.9206 9.00204 43.3177 8.84761 44.0824 7.89153V7.89153Z" fill="currentColor"/>
<path d="M30.6893 2.38053C30.8184 1.15017 29.9252 0.0386434 28.6884 0.00822185C27.8361 -0.0127425 26.9833 0.00522872 26.1327 0.0620791C24.8983 0.144575 24.0527 1.29275 24.2336 2.51658V2.51658C24.4144 3.7404 25.5538 4.57461 26.7892 4.51093C27.2657 4.48638 27.7428 4.47632 28.2199 4.48079C29.457 4.49236 30.5601 3.61089 30.6893 2.38053V2.38053Z" fill="currentColor"/>
<path d="M30.6893 2.38053C30.8185 1.15017 29.9252 0.0386411 28.6884 0.00821974C27.8361 -0.0127445 26.9834 0.00522677 26.1327 0.0620772C24.8984 0.144574 24.0527 1.29275 24.2336 2.51657V2.51657C24.4144 3.7404 25.5538 4.57461 26.7892 4.51093C27.2657 4.48637 27.7428 4.47632 28.2199 4.48078C29.457 4.49236 30.5601 3.61089 30.6893 2.38053V2.38053Z" fill="currentColor"/>
<path d="M30.6893 2.38053C30.8185 1.15018 29.9252 0.0386448 28.6884 0.0082232C27.8361 -0.0127411 26.9834 0.00522999 26.1327 0.0620803C24.8984 0.144576 24.0527 1.29275 24.2336 2.51658V2.51658C24.4144 3.7404 25.5538 4.57461 26.7892 4.51094C27.2657 4.48638 27.7428 4.47632 28.2199 4.48079C29.457 4.49236 30.5601 3.61089 30.6893 2.38053V2.38053Z" fill="currentColor"/>
<path d="M30.6893 2.38053C30.8185 1.15017 29.9252 0.0386411 28.6884 0.00821974C27.8361 -0.0127445 26.9834 0.00522677 26.1327 0.0620772C24.8984 0.144574 24.0527 1.29275 24.2336 2.51657V2.51657C24.4144 3.7404 25.5538 4.57461 26.7892 4.51093C27.2657 4.48637 27.7428 4.47632 28.2199 4.48078C29.457 4.49236 30.5601 3.61089 30.6893 2.38053V2.38053Z" fill="currentColor"/>
<path d="M30.6893 2.38053C30.8185 1.15017 29.9252 0.0386411 28.6884 0.00821974C27.8361 -0.0127445 26.9834 0.00522677 26.1327 0.0620772C24.8984 0.144574 24.0527 1.29275 24.2336 2.51657V2.51657C24.4144 3.7404 25.5538 4.57461 26.7892 4.51093C27.2657 4.48637 27.7428 4.47632 28.2199 4.48078C29.457 4.49236 30.5601 3.61089 30.6893 2.38053V2.38053Z" fill="currentColor"/>
<path d="M30.6893 2.38053C30.8185 1.15017 29.9252 0.0386411 28.6884 0.00821974C27.8361 -0.0127445 26.9834 0.00522677 26.1327 0.0620772C24.8984 0.144574 24.0527 1.29275 24.2336 2.51657V2.51657C24.4144 3.7404 25.5538 4.57461 26.7892 4.51093C27.2657 4.48637 27.7428 4.47632 28.2199 4.48078C29.457 4.49236 30.5601 3.61089 30.6893 2.38053V2.38053Z" fill="currentColor"/>
</g>
<defs>
<clipPath id="clip0_16988_24497">
<rect width="56" height="56" fill="white"/>
</clipPath>
</defs>
</svg>
