<svg width="56" height="56" viewBox="0 0 56 56" fill="none" xmlns="http://www.w3.org/2000/svg">
<g clip-path="url(#clip0_16988_24482)">
<path d="M27.3448 2.2485C27.3133 1.01178 26.2834 0.0254769 25.0532 0.155687C23.6217 0.3072 22.2039 0.568886 20.8127 0.938411C19.617 1.25598 19.0071 2.54497 19.4192 3.71143V3.71143C19.8313 4.87789 21.1094 5.47824 22.3097 5.17893C23.2509 4.94425 24.2057 4.76802 25.1686 4.65124C26.3967 4.5023 27.3763 3.48522 27.3448 2.2485V2.2485Z" fill="currentColor"/>
<path d="M27.3466 2.24888C27.3153 1.01216 26.2854 0.0257689 25.0552 0.155877C23.6236 0.307271 22.2059 0.568839 20.8146 0.938248C19.6189 1.25572 19.0089 2.54465 19.4209 3.71115V3.71115C19.8329 4.87764 21.1109 5.47811 22.3113 5.17889C23.2525 4.94429 24.2073 4.76814 25.1702 4.65144C26.3984 4.5026 27.378 3.4856 27.3466 2.24888V2.24888Z" fill="currentColor"/>
<path d="M27.3466 2.24888C27.3153 1.01216 26.2854 0.0257689 25.0552 0.155877C23.6236 0.307271 22.2059 0.568839 20.8146 0.938248C19.6189 1.25572 19.0089 2.54465 19.4209 3.71115V3.71115C19.8329 4.87764 21.1109 5.47811 22.3113 5.17889C23.2525 4.94429 24.2073 4.76814 25.1702 4.65144C26.3984 4.5026 27.378 3.4856 27.3466 2.24888V2.24888Z" fill="currentColor"/>
<path d="M27.3466 2.24888C27.3153 1.01216 26.2854 0.025769 25.0552 0.155877C23.6237 0.307271 22.2059 0.568839 20.8146 0.938248C19.6189 1.25572 19.0089 2.54465 19.4209 3.71115V3.71115C19.8329 4.87764 21.1109 5.47811 22.3113 5.17889C23.2525 4.94429 24.2073 4.76814 25.1702 4.65144C26.3984 4.5026 27.378 3.4856 27.3466 2.24888V2.24888Z" fill="currentColor"/>
<path d="M16.5483 4.9255C15.9983 3.81736 14.6485 3.35726 13.5879 3.99405C12.3537 4.73503 11.1785 5.57008 10.0728 6.49178C9.12249 7.28388 9.11293 8.70985 9.97844 9.59379V9.59379C10.8439 10.4777 12.256 10.4832 13.2183 9.70569C13.9727 9.09606 14.7642 8.53368 15.5881 8.02178C16.6389 7.3689 17.0983 6.03363 16.5483 4.9255V4.9255Z" fill="currentColor"/>
<path d="M16.4441 4.99109C15.8889 3.88557 14.5317 3.42141 13.4741 4.06323C13.2468 4.20121 13.0214 4.34242 12.798 4.48682C11.7591 5.15851 11.5848 6.5822 12.3373 7.56409V7.56409C13.0821 8.53577 14.4757 8.71904 15.5131 8.06905V8.06905C16.5506 7.41906 16.9936 6.08511 16.4441 4.99109V4.99109Z" fill="currentColor"/>
<path d="M15.8626 5.29932C15.3068 4.20944 13.9619 3.75869 12.9199 4.39982C12.6959 4.53766 12.4739 4.67868 12.2539 4.82284C11.2306 5.4934 11.0668 6.90236 11.817 7.86878V7.86878C12.5594 8.82515 13.9387 8.9979 14.9607 8.3488V8.3488C15.9827 7.69971 16.4127 6.37785 15.8626 5.29932V5.29932Z" fill="currentColor"/>
<path d="M4.46129 17.5367C3.33083 17.0342 1.9979 17.5409 1.58734 18.7079C1.30441 19.5121 1.05836 20.3289 0.849952 21.1555C0.547534 22.3551 1.37873 23.5138 2.59865 23.7194V23.7194C3.81856 23.925 4.96363 23.0987 5.28429 21.9038C5.40796 21.443 5.54562 20.9861 5.69708 20.5337C6.08981 19.3606 5.59176 18.0392 4.46129 17.5367V17.5367Z" fill="currentColor"/>
<path d="M4.46129 17.5367C3.33083 17.0342 1.9979 17.5409 1.58734 18.7079C1.30441 19.5121 1.05836 20.3289 0.849953 21.1555C0.547534 22.3551 1.37873 23.5138 2.59865 23.7194V23.7194C3.81856 23.925 4.96363 23.0987 5.28429 21.9038C5.40796 21.443 5.54562 20.9861 5.69708 20.5337C6.08981 19.3606 5.59176 18.0392 4.46129 17.5367V17.5367Z" fill="currentColor"/>
<path d="M4.46129 17.5367C3.33083 17.0342 1.9979 17.5409 1.58734 18.7079C1.30441 19.5121 1.05836 20.3289 0.849953 21.1555C0.547534 22.3551 1.37873 23.5138 2.59865 23.7194V23.7194C3.81856 23.925 4.96363 23.0987 5.28429 21.9038C5.40796 21.443 5.54562 20.9861 5.69708 20.5337C6.08981 19.3606 5.59176 18.0392 4.46129 17.5367V17.5367Z" fill="currentColor"/>
<path d="M4.46129 17.5367C3.33083 17.0342 1.9979 17.5409 1.58734 18.7079C1.30441 19.5121 1.05836 20.3289 0.849953 21.1555C0.547534 22.3551 1.37873 23.5138 2.59865 23.7194V23.7194C3.81856 23.925 4.96363 23.0987 5.28429 21.9038C5.40796 21.443 5.54562 20.9861 5.69708 20.5337C6.08981 19.3606 5.59176 18.0392 4.46129 17.5367V17.5367Z" fill="currentColor"/>
<path d="M4.46129 17.5367C3.33083 17.0342 1.9979 17.5409 1.58734 18.7079C1.30441 19.5121 1.05836 20.3289 0.849952 21.1555C0.547534 22.3551 1.37873 23.5138 2.59865 23.7194V23.7194C3.81856 23.925 4.96363 23.0987 5.28429 21.9038C5.40796 21.443 5.54562 20.9861 5.69708 20.5337C6.08981 19.3606 5.59176 18.0392 4.46129 17.5367V17.5367Z" fill="currentColor"/>
<path d="M3.64372 19.6119C2.47403 19.2091 1.18992 19.8292 0.881843 21.0273C0.523363 22.4215 0.272929 23.8413 0.132772 25.2739C0.0123223 26.5052 1.00677 27.5272 2.2437 27.5489V27.5489C3.48062 27.5706 4.4899 26.583 4.6291 25.3537C4.73824 24.3899 4.9069 23.4337 5.1341 22.4908C5.42389 21.2881 4.81341 20.0148 3.64372 19.6119V19.6119Z" fill="currentColor"/>
</g>
<defs>
<clipPath id="clip0_16988_24482">
<rect width="56" height="56" fill="white"/>
</clipPath>
</defs>
</svg>
