<svg width="56" height="56" viewBox="0 0 56 56" fill="none" xmlns="http://www.w3.org/2000/svg">
<g clip-path="url(#clip0_16988_24422)">
<path d="M48.4498 12.3353C49.4319 11.583 49.6246 10.1701 48.7962 9.25127C47.8323 8.18211 46.7874 7.18886 45.6708 6.28038C44.7111 5.49963 43.3098 5.76371 42.6082 6.78267V6.78267C41.9067 7.80162 42.1721 9.18854 43.1197 9.98382C43.8627 10.6074 44.5664 11.2763 45.2268 11.9867C46.0691 12.8928 47.4677 13.0876 48.4498 12.3353V12.3353Z" fill="currentColor"/>
<path d="M42.716 6.85788C43.4228 5.84252 43.1766 4.43792 42.108 3.81458C40.8646 3.08925 39.5671 2.46089 38.227 1.93509C37.0754 1.48322 35.8207 2.16102 35.4623 3.34509V3.34509C35.104 4.52916 35.7786 5.76963 36.9233 6.239C37.8207 6.60701 38.6945 7.03019 39.5397 7.5061C40.6177 8.11309 42.0093 7.87325 42.716 6.85788V6.85788Z" fill="currentColor"/>
<path d="M42.716 6.85788C43.4228 5.84252 43.1766 4.43792 42.108 3.81458C40.8646 3.08925 39.5671 2.46089 38.227 1.93509C37.0754 1.48322 35.8207 2.16102 35.4623 3.34509V3.34509C35.104 4.52916 35.7786 5.76963 36.9233 6.239C37.8207 6.60701 38.6945 7.03019 39.5397 7.5061C40.6177 8.11309 42.0093 7.87325 42.716 6.85788V6.85788Z" fill="currentColor"/>
<path d="M46.1567 9.72663C47.0287 8.84905 47.0295 7.42304 46.0851 6.624C44.5375 5.31466 42.8522 4.17722 41.0589 3.23177C39.9646 2.6548 38.6424 3.18908 38.1548 4.32602V4.32602C37.6671 5.46296 38.1999 6.77069 39.2853 7.36427C40.5692 8.06638 41.7847 8.88679 42.9161 9.81479C43.8727 10.5993 45.2847 10.6042 46.1567 9.72663V9.72663Z" fill="currentColor"/>
<path d="M31.1379 2.4314C31.2885 1.20349 30.4148 0.0764925 29.1788 0.0244297C28.327 -0.0114481 27.4741 -0.00840553 26.6226 0.033548C25.387 0.0944273 24.5213 1.22763 24.6807 2.45443V2.45443C24.8402 3.68123 25.9647 4.53526 27.2011 4.49321C27.678 4.477 28.1552 4.4753 28.6321 4.48811C29.8688 4.52133 30.9872 3.6593 31.1379 2.4314V2.4314Z" fill="currentColor"/>
<path d="M31.1379 2.4314C31.2885 1.20349 30.4148 0.0764925 29.1788 0.0244297C28.327 -0.0114481 27.4741 -0.00840553 26.6226 0.033548C25.387 0.0944273 24.5213 1.22763 24.6807 2.45443V2.45443C24.8402 3.68123 25.9647 4.53526 27.2011 4.49321C27.678 4.477 28.1552 4.4753 28.6321 4.48811C29.8688 4.52133 30.9872 3.6593 31.1379 2.4314V2.4314Z" fill="currentColor"/>
<path d="M31.1379 2.4314C31.2885 1.20349 30.4148 0.0764925 29.1788 0.0244297C28.327 -0.0114481 27.4741 -0.00840553 26.6226 0.033548C25.387 0.0944273 24.5213 1.22763 24.6807 2.45443V2.45443C24.8402 3.68123 25.9647 4.53526 27.2011 4.49321C27.678 4.477 28.1552 4.4753 28.6321 4.48811C29.8688 4.52133 30.9872 3.6593 31.1379 2.4314V2.4314Z" fill="currentColor"/>
<path d="M19.685 3.63097C19.2855 2.46014 18.0042 1.81546 16.869 2.30726C16.625 2.41298 16.3825 2.52218 16.1415 2.63482C15.0208 3.15876 14.6542 4.54544 15.266 5.62067V5.62067C15.8715 6.68473 17.2271 7.05609 18.3434 6.55345V6.55345C19.4597 6.05082 20.0803 4.78963 19.685 3.63097V3.63097Z" fill="currentColor"/>
<path d="M19.685 3.63097C19.2855 2.46014 18.0042 1.81546 16.869 2.30726C16.625 2.41298 16.3825 2.52218 16.1415 2.63482C15.0208 3.15876 14.6542 4.54544 15.266 5.62067V5.62067C15.8715 6.68473 17.2271 7.05609 18.3434 6.55345V6.55345C19.4597 6.05082 20.0803 4.78963 19.685 3.63097V3.63097Z" fill="currentColor"/>
<path d="M19.685 3.63097C19.2855 2.46014 18.0042 1.81546 16.869 2.30726C16.625 2.41298 16.3825 2.52218 16.1415 2.63482C15.0208 3.15876 14.6542 4.54544 15.266 5.62067V5.62067C15.8715 6.68473 17.2271 7.05609 18.3434 6.55345V6.55345C19.4597 6.05082 20.0803 4.78963 19.685 3.63097V3.63097Z" fill="currentColor"/>
<path d="M19.685 3.63097C19.2855 2.46014 18.0042 1.81546 16.869 2.30726C16.625 2.41298 16.3825 2.52218 16.1415 2.63482C15.0208 3.15876 14.6542 4.54544 15.266 5.62067V5.62067C15.8715 6.68473 17.2271 7.05609 18.3434 6.55345V6.55345C19.4597 6.05082 20.0803 4.78963 19.685 3.63097V3.63097Z" fill="currentColor"/>
<path d="M19.685 3.63097C19.2855 2.46013 18.0042 1.81546 16.869 2.30725C16.625 2.41298 16.3825 2.52218 16.1415 2.63482C15.0208 3.15876 14.6542 4.54544 15.266 5.62067V5.62067C15.8715 6.68473 17.2271 7.05609 18.3434 6.55345V6.55345C19.4598 6.05082 20.0803 4.78963 19.685 3.63097V3.63097Z" fill="currentColor"/>
<path d="M19.685 3.63097C19.2855 2.46013 18.0042 1.81546 16.869 2.30725C16.625 2.41298 16.3825 2.52218 16.1415 2.63482C15.0208 3.15876 14.6542 4.54544 15.266 5.62067V5.62067C15.8715 6.68473 17.2271 7.05609 18.3434 6.55345V6.55345C19.4598 6.05082 20.0803 4.78963 19.685 3.63097V3.63097Z" fill="currentColor"/>
</g>
<defs>
<clipPath id="clip0_16988_24422">
<rect width="56" height="56" fill="white"/>
</clipPath>
</defs>
</svg>
