<svg width="24" height="24" viewBox="0 0 24 24" fill="none" xmlns="http://www.w3.org/2000/svg">
<path fill-rule="evenodd" clip-rule="evenodd" d="M10.897 2.19543C11.4812 1.51976 12.5188 1.51976 13.103 2.19543L14.5359 3.85254C14.8675 4.23608 15.37 4.42054 15.867 4.34121L17.985 4.00318C18.8659 3.86259 19.6657 4.5447 19.6796 5.44837L19.713 7.63284C19.7208 8.14526 19.9886 8.61745 20.4215 8.88228L22.2911 10.026C23.0531 10.4921 23.2331 11.533 22.6729 12.234L21.3203 13.9262C21.002 14.3245 20.9086 14.8609 21.0732 15.3456L21.777 17.4173C22.0666 18.2699 21.5465 19.1853 20.6735 19.3595L18.5359 19.7859C18.0407 19.8847 17.6304 20.2346 17.4497 20.7123L16.6851 22.7338C16.3655 23.5788 15.3813 23.9406 14.6015 23.5L12.7142 22.4336C12.2702 22.1828 11.7298 22.1828 11.2858 22.4336L9.39854 23.5C8.61868 23.9406 7.63454 23.5788 7.31495 22.7338L6.5503 20.7123C6.36964 20.2346 5.95935 19.8847 5.46413 19.7859L3.32646 19.3595C2.45349 19.1853 1.93339 18.2699 2.223 17.4173L2.92676 15.3456C3.09139 14.8609 2.99801 14.3245 2.67967 13.9262L1.32714 12.234C0.766923 11.533 0.9469 10.4921 1.70889 10.026L3.57849 8.88228C4.01142 8.61745 4.27919 8.14526 4.28703 7.63284L4.32045 5.44837C4.33427 4.5447 5.13409 3.86259 6.01501 4.00318L8.13297 4.34121C8.63003 4.42054 9.13252 4.23608 9.46414 3.85254L10.897 2.19543ZM16.2458 10.6662C16.6137 10.2544 16.5781 9.6222 16.1662 9.25425C15.7544 8.8863 15.1222 8.92191 14.7542 9.33378L11.0689 13.459L9.77582 11.869C9.42735 11.4406 8.79751 11.3757 8.36904 11.7242C7.94057 12.0727 7.87571 12.7025 8.22418 13.131L10.2574 15.631C10.4422 15.8582 10.7173 15.9929 11.01 15.9997C11.3028 16.0065 11.5838 15.8846 11.779 15.6662L16.2458 10.6662Z" fill="currentColor"/>
</svg>
