<svg width="24" height="24" viewBox="0 0 24 24" fill="none" xmlns="http://www.w3.org/2000/svg">
<path fill-rule="evenodd" clip-rule="evenodd" d="M5.13889 3C4.80952 3 4.50128 3.16218 4.31474 3.43363L1.67585 7.27363C1.56131 7.4403 1.5 7.63777 1.5 7.84C1.5 8.97329 2.11295 9.91349 3 10.4659V20C3 20.5523 3.44772 21 4 21H9H15H20C20.5523 21 21 20.5523 21 20V10.4659C21.887 9.91349 22.5 8.97329 22.5 7.84C22.5 7.63777 22.4387 7.4403 22.3242 7.27363L19.6853 3.43363C19.4987 3.16218 19.1905 3 18.8611 3H5.13889ZM19 10.9978C18.1489 10.9678 17.3452 10.6332 16.75 10.0864C16.1257 10.6599 15.2721 11 14.375 11C13.4779 11 12.6243 10.6599 12 10.0864C11.3757 10.6599 10.5221 11 9.625 11C8.72785 11 7.87428 10.6599 7.25 10.0864C6.65478 10.6332 5.85113 10.9678 5 10.9978V19H8V14C8 13.4477 8.44772 13 9 13H15C15.5523 13 16 13.4477 16 14V19H19V10.9978ZM9.625 9C8.7742 9 8.25 8.39347 8.25 7.84C8.25 7.28771 7.80228 6.84 7.25 6.84C6.69772 6.84 6.25 7.28771 6.25 7.84C6.25 8.39347 5.7258 9 4.875 9C4.15529 9 3.66929 8.56598 3.53661 8.09721L5.66504 5H18.335L20.4634 8.0972C20.3307 8.56598 19.8447 9 19.125 9C18.2742 9 17.75 8.39347 17.75 7.84C17.75 7.28771 17.3023 6.84 16.75 6.84C16.1977 6.84 15.75 7.28771 15.75 7.84C15.75 8.39347 15.2258 9 14.375 9C13.5242 9 13 8.39347 13 7.84C13 7.28771 12.5523 6.84 12 6.84C11.4477 6.84 11 7.28771 11 7.84C11 8.39347 10.4758 9 9.625 9ZM14 15V19H10V15H14Z" fill="currentColor"/>
</svg>
