<svg width="24" height="24" viewBox="0 0 24 24" fill="none" xmlns="http://www.w3.org/2000/svg">
<path fill-rule="evenodd" clip-rule="evenodd" d="M12.6 2.2C12.2444 1.93333 11.7556 1.93333 11.4 2.2L3.4 8.2C3.14819 8.38885 3 8.68524 3 9V20C3 20.5523 3.44772 21 4 21H10C10.5523 21 11 20.5523 11 20V16H13V20C13 20.5523 13.4477 21 14 21H20C20.5523 21 21 20.5523 21 20V9C21 8.68524 20.8518 8.38885 20.6 8.2L12.6 2.2ZM19 9.5V19H15V15C15 14.4477 14.5523 14 14 14H10C9.44771 14 9 14.4477 9 15V19H5V9.5L12 4.25L19 9.5Z" fill="currentColor"/>
</svg>
