<svg width="24" height="24" viewBox="0 0 24 24" fill="none" xmlns="http://www.w3.org/2000/svg">
<path fill-rule="evenodd" clip-rule="evenodd" d="M22.1769 7.77218C16.3467 1.40927 7.65332 1.40927 1.82318 7.77218C1.32909 8.31142 1.3573 9.13578 1.84568 9.68021L10.8834 19.7553C11.4795 20.4198 12.5205 20.4198 13.1166 19.7553L22.1544 9.68021C22.6427 9.13578 22.671 8.31142 22.1769 7.77218ZM12 6C12.5523 6 13 6.44772 13 7V11C13 11.5523 12.5523 12 12 12C11.4477 12 11 11.5523 11 11V7C11 6.44772 11.4477 6 12 6ZM12 16.5C12.8284 16.5 13.5 15.8284 13.5 15C13.5 14.1716 12.8284 13.5 12 13.5C11.1716 13.5 10.5 14.1716 10.5 15C10.5 15.8284 11.1716 16.5 12 16.5Z" fill="currentColor"/>
</svg>
