<svg width="24" height="24" viewBox="0 0 24 24" fill="none" xmlns="http://www.w3.org/2000/svg">
<path fill-rule="evenodd" clip-rule="evenodd" d="M3.5792 8.81895C7.97505 4.22194 14.1647 3.79264 18.8892 7.43761C19.3265 7.77496 19.9545 7.69396 20.2918 7.25669C20.6292 6.81941 20.5482 6.19145 20.1109 5.85409C14.5515 1.56503 7.21423 2.12372 2.13371 7.43672C1.22026 8.39197 1.31502 9.83258 2.13876 10.7305L11.2632 20.6761C11.4526 20.8825 11.7199 21.0001 12.0001 21.0001C12.2802 21.0001 12.5475 20.8825 12.7369 20.6761L15.0096 18.1988C15.383 17.7919 15.3558 17.1593 14.9488 16.7859C14.5418 16.4126 13.9093 16.4398 13.5359 16.8468L12.0001 18.5208L3.61251 9.37839C3.43036 9.17986 3.46432 8.93909 3.5792 8.81895ZM22.2458 10.6663C22.6138 10.2544 22.5782 9.62225 22.1663 9.2543C21.7544 8.88636 21.1223 8.92196 20.7543 9.33383L17.069 13.4591L15.7759 11.8691C15.4274 11.4406 14.7976 11.3758 14.3691 11.7242C13.9406 12.0727 13.8758 12.7025 14.2242 13.131L16.2574 15.631C16.4422 15.8582 16.7173 15.993 17.0101 15.9998C17.3029 16.0066 17.5839 15.8847 17.779 15.6663L22.2458 10.6663Z" fill="currentColor"/>
</svg>
