<svg width="24" height="24" viewBox="0 0 24 24" fill="none" xmlns="http://www.w3.org/2000/svg">
<path fill-rule="evenodd" clip-rule="evenodd" d="M12 4C8.13401 4 5 7.13401 5 11C5 14.866 8.13401 18 12 18C15.866 18 19 14.866 19 11C19 7.13401 15.866 4 12 4ZM3 11C3 6.02944 7.02944 2 12 2C16.9706 2 21 6.02944 21 11C21 15.1241 18.2262 18.6002 14.4424 19.6647C14.4797 19.7695 14.5 19.8824 14.5 20C14.5 20.5523 14.0523 21 13.5 21H10.5C9.94772 21 9.5 20.5523 9.5 20C9.5 19.8824 9.52032 19.7695 9.55762 19.6647C5.77385 18.6002 3 15.1241 3 11ZM11 9C10.4477 9 10 9.44772 10 10C10 10.5523 9.55228 11 9 11C8.44772 11 8 10.5523 8 10C8 8.34315 9.34315 7 11 7C11.5523 7 12 7.44772 12 8C12 8.55228 11.5523 9 11 9Z" fill="currentColor"/>
</svg>
