<svg width="24" height="24" viewBox="0 0 24 24" fill="none" xmlns="http://www.w3.org/2000/svg">
<path fill-rule="evenodd" clip-rule="evenodd" d="M2 5C2 4.44772 2.44772 4 3 4L21 4C21.5523 4 22 4.44772 22 5L22 7C22 7.55228 21.5523 8 21 8L20 8L20 17C20 18.6569 18.6569 20 17 20L7 20C5.34315 20 4 18.6569 4 17L4 8L3 8C2.44772 8 2 7.55228 2 7L2 5ZM15.5 6L18 6L18 17C18 17.5523 17.5523 18 17 18L7 18C6.44772 18 6 17.5523 6 17L6 6L13 6L13 8.25C13 8.38807 13.1119 8.5 13.25 8.5L15.25 8.5C15.3881 8.5 15.5 8.38807 15.5 8.25L15.5 6Z" fill="currentColor"/>
</svg>
