<svg width="24" height="24" viewBox="0 0 24 24" fill="none" xmlns="http://www.w3.org/2000/svg">
<path fill-rule="evenodd" clip-rule="evenodd" d="M10 6.5C10 5.39543 10.8954 4.5 12 4.5C13.1046 4.5 14 5.39543 14 6.5C14 7.60457 13.1046 8.5 12 8.5C10.8954 8.5 10 7.60457 10 6.5ZM12 2.5C9.79086 2.5 8 4.29086 8 6.5C8 8.70914 9.79086 10.5 12 10.5C14.2091 10.5 16 8.70914 16 6.5C16 4.29086 14.2091 2.5 12 2.5ZM12 14C16.1589 14 19.2587 16.3076 19.8842 19H4.11584C4.74126 16.3076 7.84112 14 12 14ZM12 12C6.72559 12 2 15.3624 2 20C2 20.5523 2.44772 21 3 21H21C21.5523 21 22 20.5523 22 20C22 15.3624 17.2744 12 12 12Z" fill="currentColor"/>
</svg>
