<svg width="24" height="24" viewBox="0 0 24 24" fill="none" xmlns="http://www.w3.org/2000/svg">
<path fill-rule="evenodd" clip-rule="evenodd" d="M4 12C4 7.58172 7.58172 4 12 4C16.4183 4 20 7.58172 20 12C20 16.4183 16.4183 20 12 20C7.58172 20 4 16.4183 4 12ZM12 2C6.47715 2 2 6.47715 2 12C2 17.5228 6.47715 22 12 22C17.5228 22 22 17.5228 22 12C22 6.47715 17.5228 2 12 2ZM13.21 9.6443H11.2208C11.2259 9.6443 11.23 9.6484 11.23 9.65346V15.0434C11.2392 15.2359 11.3492 15.3368 11.5233 15.3368H13.8333C14.3558 15.2909 14.7683 14.8509 14.7683 14.3193C14.7683 13.7509 14.31 13.2926 13.7417 13.2926H12.8892C12.715 13.2926 12.5958 13.1917 12.5867 13.0084V11.8534C12.5867 11.6884 12.6875 11.5693 12.8708 11.5693L13.21 11.5509C13.7325 11.5509 14.1542 11.1201 14.1542 10.6067C14.1542 10.0934 13.7325 9.6443 13.21 9.6443ZM9.42415 6.04824C9.42415 6.04584 9.42126 6.04465 9.41957 6.04634C9.41788 6.04803 9.41908 6.05092 9.42147 6.05092H9.42415V7.61591C9.42415 7.75398 9.31223 7.86591 9.17415 7.86591H7.84082C7.70275 7.86591 7.59082 7.97783 7.59082 8.11591V9.44924C7.59082 9.58731 7.70275 9.69924 7.84082 9.69924H9.48046C9.71117 9.69924 9.76765 10.0204 9.55079 10.0991C9.46927 10.1287 9.41499 10.2061 9.41499 10.2929V16.9134C9.41499 17.1059 9.51582 17.1975 9.68082 17.2159H13.8425C15.2633 17.17 16.4 16.006 16.4 14.576C16.4 13.7588 16.0289 13.0256 15.4397 12.5417C15.3115 12.4364 15.2942 12.2375 15.4009 12.1105C15.7412 11.705 15.9783 11.1604 15.9783 10.6159C15.9783 8.86507 14.7408 7.87508 12.9625 7.87508H11.4892C11.3511 7.87508 11.2392 7.76315 11.2392 7.62508V6.30092C11.2392 6.16285 11.1272 6.05092 10.9892 6.05092H9.42415V6.04824Z" fill="currentColor"/>
</svg>
