<svg width="24" height="24" viewBox="0 0 24 24" fill="none" xmlns="http://www.w3.org/2000/svg">
<path fill-rule="evenodd" clip-rule="evenodd" d="M20.2426 3.97038C20.7784 3.83643 21.1041 3.2935 20.9702 2.7577C20.8362 2.22191 20.2933 1.89615 19.7575 2.03009L13 3.71946V3.00024C13 2.44795 12.5523 2.00024 12 2.00024C11.4477 2.00024 11 2.44795 11 3.00024V4.21946L3.75751 6.03009C3.22171 6.16404 2.89595 6.70698 3.0299 7.24277C3.14505 7.70337 3.56244 8.00875 4.01771 8.0003L1.64636 13.8722C1.50981 14.2104 1.47258 14.6743 1.72354 15.1059C2.09817 15.7503 3.16425 17.0002 5.50005 17.0002C7.83583 17.0002 8.90192 15.7503 9.27656 15.1059C9.52753 14.6743 9.4903 14.2104 9.35375 13.8722L6.72016 7.35098L11 6.28102V20.0002H9.00003C8.44774 20.0002 8.00003 20.448 8.00003 21.0002C8.00003 21.5525 8.44774 22.0002 9.00003 22.0002H12H15C15.5523 22.0002 16 21.5525 16 21.0002C16 20.448 15.5523 20.0002 15 20.0002H13V5.78102L17.4817 4.6606L15.1462 10.4437C15.0097 10.7818 14.9725 11.2457 15.2234 11.6774C15.598 12.3217 16.6641 13.5717 18.9999 13.5717C21.3357 13.5717 22.4018 12.3217 22.7764 11.6774C23.0274 11.2458 22.9902 10.7818 22.8536 10.4437L20.2397 3.9711L20.2426 3.97038ZM5.50005 9.67073L3.6196 14.3271C3.87039 14.6042 4.41414 15.0002 5.50005 15.0002C6.58595 15.0002 7.12971 14.6042 7.3805 14.3271L5.50005 9.67073ZM17.1195 10.8985L18.9999 6.24216L20.8804 10.8985C20.6296 11.1756 20.0858 11.5717 18.9999 11.5717C17.914 11.5717 17.3703 11.1756 17.1195 10.8985Z" fill="currentColor"/>
</svg>
