<svg width="24" height="24" viewBox="0 0 24 24" fill="none" xmlns="http://www.w3.org/2000/svg">
<path fill-rule="evenodd" clip-rule="evenodd" d="M17.9949 9.00514C17.8666 5.94308 15.3436 3.5 12.25 3.5L6.25 3.5C3.07436 3.5 0.5 6.07436 0.5 9.25C0.499998 12.3436 2.94307 14.8666 6.00512 14.9949C6.13341 18.0569 8.65639 20.5 11.75 20.5L17.75 20.5C20.9256 20.5 23.5 17.9256 23.5 14.75C23.5 11.6564 21.0569 9.13343 17.9949 9.00514ZM15.9918 9.00002C15.8632 7.0455 14.2371 5.5 12.25 5.5L6.25 5.5C4.17893 5.5 2.5 7.17893 2.5 9.25C2.5 11.3211 4.17893 13 6.25 13H6.27115C7.01153 10.6801 9.18456 9.00002 11.75 9.00002L15.9918 9.00002ZM8.0082 15C8.13684 16.9545 9.76293 18.5 11.75 18.5L17.75 18.5C19.8211 18.5 21.5 16.8211 21.5 14.75C21.5 12.6789 19.8211 11 17.75 11H17.7288C16.9885 13.3199 14.8154 15 12.25 15H8.0082ZM15.5675 11C14.9387 12.1895 13.689 13 12.25 13H8.43253C9.06128 11.8106 10.311 11 11.75 11L15.5675 11Z" fill="currentColor"/>
</svg>
