<svg width="24" height="24" viewBox="0 0 24 24" fill="none" xmlns="http://www.w3.org/2000/svg">
<path fill-rule="evenodd" clip-rule="evenodd" d="M11.6149 3.1675C11.8692 3.11759 12.1309 3.11759 12.3852 3.1675C12.6791 3.22518 12.9436 3.36553 13.1538 3.47707L13.211 3.50731L21.9658 8.1151C22.3727 8.32929 22.5811 8.79343 22.4708 9.2399C22.3605 9.68636 21.9599 10 21.5 10H20V19H21.5C22.0523 19 22.5 19.4477 22.5 20C22.5 20.5523 22.0523 21 21.5 21H2.5C1.94772 21 1.5 20.5523 1.5 20C1.5 19.4477 1.94772 19 2.5 19H4V10H2.5C2.04011 10 1.63952 9.68636 1.5292 9.23989C1.41888 8.79343 1.62729 8.32929 2.03426 8.1151L10.7891 3.50731L10.8462 3.47707C11.0565 3.36552 11.321 3.22517 11.6149 3.1675ZM6 10V19H11V10H6ZM13 10V19H18V10H13ZM11.9956 5.13661C11.9404 5.16184 11.8664 5.20043 11.7206 5.27714L6.54711 8.00002H17.4529L12.2795 5.27714C12.1337 5.20043 12.0597 5.16184 12.0045 5.13661L12 5.13458L11.9956 5.13661Z" fill="currentColor"/>
</svg>
