<svg width="24" height="24" viewBox="0 0 24 24" fill="none" xmlns="http://www.w3.org/2000/svg">
<path fill-rule="evenodd" clip-rule="evenodd" d="M6 2.5C4.89543 2.5 4 3.39543 4 4.5V19.5C4 20.6046 4.89543 21.5 6 21.5H10.5C11.0523 21.5 11.5 21.0523 11.5 20.5C11.5 19.9477 11.0523 19.5 10.5 19.5H6V4.5H18V12.5C18 13.0523 18.4477 13.5 19 13.5C19.5523 13.5 20 13.0523 20 12.5V4.5C20 3.39543 19.1046 2.5 18 2.5H6ZM9 13C8.44772 13 8 13.4477 8 14C8 14.5523 8.44772 15 9 15H15C15.5523 15 16 14.5523 16 14C16 13.4477 15.5523 13 15 13H9ZM21.1662 15.2542C21.5781 15.6222 21.6137 16.2544 21.2458 16.6662L16.779 21.6662C16.5838 21.8846 16.3028 22.0065 16.01 21.9997C15.7173 21.9929 15.4422 21.8582 15.2574 21.631L13.2242 19.131C12.8757 18.7025 12.9406 18.0727 13.369 17.7242C13.7975 17.3757 14.4273 17.4406 14.7758 17.869L16.0689 19.459L19.7542 15.3338C20.1222 14.9219 20.7544 14.8863 21.1662 15.2542ZM9 8C8.44772 8 8 8.44772 8 9C8 9.55228 8.44772 10 9 10H15C15.5523 10 16 9.55228 16 9C16 8.44772 15.5523 8 15 8H9Z" fill="currentColor"/>
</svg>
