<svg width="24" height="24" viewBox="0 0 24 24" fill="none" xmlns="http://www.w3.org/2000/svg">
<path fill-rule="evenodd" clip-rule="evenodd" d="M11.1901 5.10106C11.9841 4.96816 12.4032 4.9648 13.1838 5.10009L13.1864 5.10053C15.0295 5.41508 16.6624 6.43008 17.73 7.91347C18.7969 9.39576 19.2142 11.2265 18.8957 13.0042C18.5979 14.6606 18.1141 16.2804 17.4527 17.8341C17.2364 18.3423 17.473 18.9296 17.9812 19.1459C18.4894 19.3622 19.0767 19.1256 19.293 18.6174C20.0128 16.9262 20.5398 15.1624 20.8641 13.3581L20.8642 13.3576C21.2792 11.0423 20.7338 8.66326 19.3533 6.74514C17.9737 4.82833 15.8754 3.53085 13.5241 3.12925C12.5097 2.95355 11.8632 2.96057 10.86 3.1285C10.3152 3.21968 9.94759 3.73516 10.0388 4.27987C10.1299 4.82458 10.6454 5.19223 11.1901 5.10106ZM13.7873 7.29748C12.8904 6.89597 11.8927 6.79442 10.9295 7.00289C9.9673 7.21117 9.09068 7.71743 8.41042 8.44423C7.73054 9.17061 7.27492 10.0867 7.09896 11.0712L7.09865 11.0729C6.77311 12.9135 6.00547 14.6465 4.87164 16.1058C4.53279 16.5419 4.61164 17.1701 5.04776 17.509C5.48387 17.8478 6.11211 17.769 6.45096 17.3329C7.78603 15.6146 8.68618 13.5797 9.06792 11.4222C9.17698 10.813 9.4586 10.2511 9.8706 9.81093C10.2824 9.37095 10.8011 9.077 11.3526 8.95763C11.9032 8.83846 12.4661 8.89727 12.9701 9.12292C13.4746 9.34875 13.9053 9.73524 14.1997 10.2401C14.478 10.7171 15.0903 10.8783 15.5674 10.6C16.0444 10.3218 16.2056 9.70944 15.9273 9.23238C15.4282 8.37666 14.6838 7.6988 13.7873 7.29748ZM13.013 12.3406C13.1094 11.7968 12.7466 11.2778 12.2028 11.1815C11.6589 11.0852 11.14 11.448 11.0437 11.9918C10.8462 13.1068 10.4185 13.8955 9.7487 15.0868C9.47805 15.5682 9.6489 16.1779 10.1303 16.4486C10.6117 16.7192 11.2214 16.5484 11.4921 16.067C12.1545 14.8887 12.7492 13.83 13.013 12.3406ZM16.6929 13.6471C16.7897 13.1034 16.4275 12.5841 15.8837 12.4873C15.34 12.3905 14.8207 12.7528 14.7239 13.2965C14.3331 15.4911 13.2419 17.4133 11.5998 19.3541C11.243 19.7757 11.2956 20.4066 11.7172 20.7634C12.1388 21.1201 12.7698 21.0675 13.1265 20.6459C14.9058 18.5431 16.2196 16.3051 16.6929 13.6471ZM7.87234 6.16144C8.34174 5.87043 8.48635 5.254 8.19535 4.78461C7.90434 4.31521 7.28791 4.1706 6.81851 4.46161C5.68207 5.16616 5.16021 5.93347 4.53518 6.85249L4.52697 6.86456C3.81095 7.91734 3.23088 9.47866 3.01571 10.6849C2.91872 11.2286 3.28085 11.748 3.82455 11.8449C4.36825 11.9419 4.88764 11.5798 4.98463 11.0361C5.15843 10.0618 5.64697 8.77411 6.18072 7.98932C6.8018 7.07614 7.12213 6.62654 7.87234 6.16144Z" fill="currentColor"/>
</svg>
