<svg width="24" height="24" viewBox="0 0 24 24" fill="none" xmlns="http://www.w3.org/2000/svg">
<path fill-rule="evenodd" clip-rule="evenodd" d="M3 8V4C3 3.73478 3.10536 3.48043 3.29289 3.29289C3.48043 3.10536 3.73478 3 4 3H8C8.55229 3 9 3.44772 9 4C9 4.55229 8.55228 5 8 5L5 5L5 8C5 8.55228 4.55229 9 4 9C3.44772 9 3 8.55228 3 8ZM15 4C15 3.44772 15.4477 3 16 3H20C20.5523 3 21 3.44772 21 4V8C21 8.55228 20.5523 9 20 9C19.4477 9 19 8.55228 19 8V5H16C15.4477 5 15 4.55228 15 4ZM19 19V16C19 15.4477 19.4477 15 20 15C20.5523 15 21 15.4477 21 16V20C21 20.2652 20.8946 20.5196 20.7071 20.7071C20.5196 20.8946 20.2652 21 20 21H16C15.4477 21 15 20.5523 15 20C15 19.4477 15.4477 19 16 19H19ZM9.89412 13.5522C9.64679 13.0584 9.04598 12.8586 8.55217 13.1059C8.05836 13.3532 7.85855 13.954 8.10588 14.4478C8.84188 15.9173 10.2724 17 12 17C13.7276 17 15.1581 15.9173 15.8941 14.4478C16.1414 13.954 15.9416 13.3532 15.4478 13.1059C14.954 12.8586 14.3532 13.0584 14.1059 13.5522C13.6442 14.4739 12.8362 15 12 15C11.1638 15 10.3558 14.4739 9.89412 13.5522ZM8 21C8.55229 21 9 20.5523 9 20C9 19.4477 8.55229 19 8 19H5L5 16C5 15.4477 4.55229 15 4 15C3.44772 15 3 15.4477 3 16V20C3 20.5523 3.44772 21 4 21H8Z" fill="currentColor"/>
</svg>
