<svg width="24" height="24" viewBox="0 0 24 24" fill="none" xmlns="http://www.w3.org/2000/svg">
<path fill-rule="evenodd" clip-rule="evenodd" d="M12.7526 1.83562C13.1195 1.42283 13.7516 1.38565 14.1644 1.75257L18.6644 5.75254C18.8779 5.9423 19 6.21431 19 6.49995C19 6.78558 18.8779 7.05759 18.6644 7.24736L14.1644 11.2474C13.7516 11.6143 13.1195 11.5771 12.7526 11.1643C12.3857 10.7516 12.4229 10.1195 12.8356 9.75257L15.3698 7.49995L4.6 7.49996C4.30348 7.49996 4.14122 7.50074 4.02464 7.51026C4.02 7.51064 4.0156 7.51103 4.01145 7.51141C4.01107 7.51556 4.01069 7.51995 4.01031 7.52459C4.00078 7.64118 4.00001 7.80343 4.00001 8.09996V17.3999C4.00001 17.6965 4.00078 17.8587 4.01031 17.9753C4.01069 17.98 4.01107 17.9844 4.01145 17.9885C4.0156 17.9889 4.02 17.9893 4.02464 17.9896C4.14122 17.9992 4.30348 18 4.60001 18H19.4C19.6965 18 19.8588 17.9992 19.9754 17.9896C19.98 17.9893 19.9844 17.9889 19.9886 17.9885C19.9889 17.9843 19.9893 17.98 19.9897 17.9753C19.9992 17.8587 20 17.6965 20 17.3999V11C20 10.4477 20.4477 9.99998 21 9.99998C21.5523 9.99998 22 10.4477 22 11V17.3999L22 17.4319C22 17.6842 22.0001 17.93 21.9831 18.1382C21.9644 18.3668 21.9203 18.6365 21.782 18.9079C21.5903 19.2843 21.2843 19.5902 20.908 19.782C20.6366 19.9203 20.3668 19.9643 20.1382 19.983C19.9301 20 19.6843 20 19.4319 20L19.4 20H4.60001L4.56809 20C4.31571 20 4.06993 20 3.86178 19.983C3.63318 19.9643 3.36345 19.9203 3.09202 19.782C2.7157 19.5902 2.40974 19.2843 2.21799 18.9079C2.07969 18.6365 2.03563 18.3668 2.01695 18.1382C1.99994 17.93 1.99997 17.6842 2 17.4318L2.00001 17.3999V8.09996C2.00001 8.08932 2 8.07868 2 8.06806C1.99997 7.81568 1.99994 7.56989 2.01695 7.36173C2.03563 7.13314 2.07969 6.8634 2.21799 6.59198C2.40974 6.21566 2.7157 5.90969 3.09202 5.71795C3.36345 5.57965 3.63318 5.53558 3.86177 5.51691C4.06993 5.4999 4.31572 5.49993 4.56811 5.49996C4.57873 5.49996 4.58936 5.49996 4.6 5.49996L15.3698 5.49995L12.8356 3.24739C12.4229 2.88048 12.3857 2.2484 12.7526 1.83562Z" fill="currentColor"/>
</svg>
