<svg width="24" height="24" viewBox="0 0 24 24" fill="none" xmlns="http://www.w3.org/2000/svg">
<path fill-rule="evenodd" clip-rule="evenodd" d="M13 6.00005C13 5.44777 12.5523 5.00003 12 5.00002C11.4477 5 11 5.4477 11 5.99998L10.9999 7.49998C10.9999 8.05226 11.4476 8.5 11.9999 8.50002C12.5522 8.50004 12.9999 8.05234 12.9999 7.50005L13 6.00005ZM5.99995 11C5.44767 11 4.99995 11.4477 4.99995 12C4.99995 12.5523 5.44767 13 5.99995 13L7.4999 13C8.05219 13 8.4999 12.5523 8.4999 12C8.4999 11.4477 8.05219 11 7.4999 11L5.99995 11ZM16.4999 11C15.9476 11 15.4999 11.4477 15.4999 12C15.4999 12.5523 15.9476 13 16.4999 13H18C18.5522 13 19 12.5523 19 12C19 11.4477 18.5522 11 18 11H16.4999ZM12.9999 16.5C12.9999 15.9477 12.5522 15.5 11.9999 15.5C11.4476 15.5 10.9999 15.9478 10.9999 16.5001L11 18.0001C11 18.5523 11.4477 19 12 19C12.5523 19 13 18.5523 13 18L12.9999 16.5ZM10.2071 8.79291C9.81654 8.40238 9.18337 8.40238 8.79285 8.79291C8.40232 9.18343 8.40232 9.8166 8.79285 10.2071L10.5857 12L8.79285 13.7929C8.40232 14.1834 8.40232 14.8166 8.79285 15.2071C9.18337 15.5976 9.81654 15.5976 10.2071 15.2071L12 13.4142L13.7928 15.2071C14.1834 15.5976 14.8165 15.5976 15.2071 15.2071C15.5976 14.8166 15.5976 14.1834 15.2071 13.7929L13.4142 12L15.2071 10.2071C15.5976 9.8166 15.5976 9.18343 15.2071 8.79291C14.8165 8.40238 14.1834 8.40238 13.7928 8.79291L12 10.5858L10.2071 8.79291Z" fill="currentColor"/>
</svg>
