<svg width="24" height="24" viewBox="0 0 24 24" fill="none" xmlns="http://www.w3.org/2000/svg">
<path fill-rule="evenodd" clip-rule="evenodd" d="M12.8331 14.0001L16.4665 9.64007C16.7755 9.26922 16.7755 8.73055 16.4665 8.3597L12.7682 3.92175C12.3684 3.442 11.6315 3.442 11.2317 3.92175L7.53346 8.3597C7.22442 8.73055 7.22442 9.26923 7.53346 9.64007L11.1668 14.0001L3.74269 14.0001C2.97054 14.0001 2.48972 14.838 2.87932 15.5047L5.8014 20.5047C5.98071 20.8115 6.30939 21.0001 6.66477 21.0001L17.3353 21.0001C17.6906 21.0001 18.0193 20.8115 18.1986 20.5047L21.1207 15.5047C21.5103 14.838 21.0295 14.0001 20.2574 14.0001L12.8331 14.0001Z" fill="currentColor"/>
</svg>
