<svg width="24" height="24" viewBox="0 0 24 24" fill="none" xmlns="http://www.w3.org/2000/svg">
<path fill-rule="evenodd" clip-rule="evenodd" d="M9.5 3C8.39543 3 7.5 3.89543 7.5 5V7H3.5C2.39543 7 1.5 7.89543 1.5 9V19C1.5 20.1046 2.39543 21 3.5 21H5.5C6.05228 21 6.5 20.5523 6.5 20C6.5 19.4477 6.05228 19 5.5 19H3.5V9H20.5V10.5C20.5 11.0523 20.9477 11.5 21.5 11.5C22.0523 11.5 22.5 11.0523 22.5 10.5V9C22.5 7.89543 21.6046 7 20.5 7H16.5V5C16.5 3.89543 15.6046 3 14.5 3H9.5ZM14.5 7V5H9.5V7H14.5ZM13.5 11C14.0523 11 14.5 11.4477 14.5 12V20C14.5 20.5523 14.0523 21 13.5 21C12.9477 21 12.5 20.5523 12.5 20V12C12.5 11.4477 12.9477 11 13.5 11ZM18.5 14C18.5 13.4477 18.0523 13 17.5 13C16.9477 13 16.5 13.4477 16.5 14V20C16.5 20.5523 16.9477 21 17.5 21C18.0523 21 18.5 20.5523 18.5 20V14ZM21.5 15.5C22.0523 15.5 22.5 15.9477 22.5 16.5V20C22.5 20.5523 22.0523 21 21.5 21C20.9477 21 20.5 20.5523 20.5 20V16.5C20.5 15.9477 20.9477 15.5 21.5 15.5ZM10.5 16.5C10.5 15.9477 10.0523 15.5 9.5 15.5C8.94772 15.5 8.5 15.9477 8.5 16.5V20C8.5 20.5523 8.94772 21 9.5 21C10.0523 21 10.5 20.5523 10.5 20V16.5Z" fill="currentColor"/>
</svg>
