<svg width="24" height="24" viewBox="0 0 24 24" fill="none" xmlns="http://www.w3.org/2000/svg">
<path fill-rule="evenodd" clip-rule="evenodd" d="M9.5 6C8.39543 6 7.5 6.89543 7.5 8V10H4.5C3.39543 10 2.5 10.8954 2.5 12V20C2.5 21.1046 3.39543 22 4.5 22H19.5C20.6046 22 21.5 21.1046 21.5 20V12C21.5 10.8954 20.6046 10 19.5 10H16.5V8C16.5 6.89543 15.6046 6 14.5 6H9.5ZM14.5 10V8H9.5V10H14.5ZM5.15398 13.4669C5.44803 13.0002 6.06426 12.8599 6.53128 13.1528C6.53172 13.1531 6.53216 13.1534 6.5326 13.1536C6.53287 13.1538 6.53314 13.154 6 14L5.46686 14.846C4.99961 14.5516 4.85953 13.9341 5.15398 13.4669ZM6 14L6.53314 13.154L6.5326 13.1536L6.53212 13.1533L6.5313 13.1528L6.54197 13.1593C6.5538 13.1664 6.57441 13.1785 6.60352 13.1951C6.66177 13.2282 6.75388 13.2787 6.87766 13.3409C7.12543 13.4655 7.49861 13.6363 7.97964 13.8085C8.94297 14.1534 10.328 14.5 12 14.5C13.672 14.5 15.057 14.1534 16.0204 13.8085C16.5014 13.6363 16.8746 13.4655 17.1223 13.3409C17.2461 13.2787 17.3382 13.2282 17.3965 13.1951C17.4256 13.1785 17.4462 13.1664 17.458 13.1593L17.4687 13.1528C17.9357 12.8599 18.552 13.0002 18.846 13.4669C19.1405 13.9341 19.0004 14.5516 18.5331 14.846L18 14C18.5331 14.846 18.5329 14.8462 18.5326 14.8464L18.5319 14.8468L18.5304 14.8477L18.5268 14.85L18.517 14.8561L18.4867 14.8744C18.4619 14.8893 18.4279 14.9093 18.3848 14.9338C18.2988 14.9827 18.1766 15.0494 18.0207 15.1278C17.7091 15.2845 17.2609 15.4887 16.6944 15.6915C15.5627 16.0966 13.9477 16.5 12 16.5C10.0523 16.5 8.43732 16.0966 7.30557 15.6915C6.73907 15.4887 6.29094 15.2845 5.9793 15.1278C5.82336 15.0494 5.70124 14.9827 5.61517 14.9338C5.57213 14.9093 5.53806 14.8893 5.51326 14.8744L5.48302 14.8561L5.47317 14.85L5.46957 14.8477L5.4681 14.8468L5.46745 14.8464C5.46715 14.8462 5.46686 14.846 6 14Z" fill="currentColor"/>
</svg>
