<svg width="24" height="24" viewBox="0 0 24 24" fill="none" xmlns="http://www.w3.org/2000/svg">
<path fill-rule="evenodd" clip-rule="evenodd" d="M9.5 3C8.39543 3 7.5 3.89543 7.5 5V7H3.5C2.39543 7 1.5 7.89543 1.5 9V19C1.5 20.1046 2.39543 21 3.5 21H20.5C21.6046 21 22.5 20.1046 22.5 19V9C22.5 7.89543 21.6046 7 20.5 7H16.5V5C16.5 3.89543 15.6046 3 14.5 3H9.5ZM14.5 7V5H9.5V7H14.5ZM20.5 9H3.5V19H20.5V9ZM7.06352 11.6739C6.60867 11.3636 5.98813 11.4794 5.67594 11.9335C5.36307 12.3886 5.47838 13.0112 5.93349 13.3241L6.5 12.5C5.93349 13.3241 5.93378 13.3243 5.93409 13.3245L5.93474 13.3249L5.93619 13.3259L5.9397 13.3283L5.94917 13.3347L5.9778 13.3536C6.00116 13.3689 6.03306 13.3894 6.07323 13.4143C6.15354 13.4641 6.26712 13.5318 6.41189 13.6112C6.70117 13.7698 7.11673 13.9764 7.64195 14.1815C8.69098 14.5912 10.1903 15 12 15C13.8097 15 15.309 14.5912 16.358 14.1815C16.8833 13.9764 17.2988 13.7698 17.5881 13.6112C17.7329 13.5318 17.8465 13.4641 17.9268 13.4143C17.9669 13.3894 17.9988 13.3689 18.0222 13.3536L18.0508 13.3347L18.0603 13.3283L18.0638 13.3259L18.0653 13.3249L18.0659 13.3245C18.0662 13.3243 18.0665 13.3241 17.5 12.5L18.0665 13.3241C18.5216 13.0112 18.6369 12.3886 18.3241 11.9335C18.0118 11.4793 17.391 11.3635 16.9361 11.6741L16.9272 11.68C16.917 11.6867 16.8987 11.6985 16.8728 11.7146C16.8208 11.7468 16.738 11.7964 16.6263 11.8576C16.4028 11.9802 16.0655 12.1486 15.6305 12.3185C14.7591 12.6588 13.5084 13 12 13C10.4916 13 9.24095 12.6588 8.36949 12.3185C7.93447 12.1486 7.59717 11.9802 7.37365 11.8576C7.26202 11.7964 7.17921 11.7468 7.12724 11.7146C7.10127 11.6985 7.08305 11.6867 7.07283 11.68L7.06355 11.6739L7.06352 11.6739Z" fill="currentColor"/>
</svg>
