<svg width="24" height="24" viewBox="0 0 24 24" fill="none" xmlns="http://www.w3.org/2000/svg">
<path fill-rule="evenodd" clip-rule="evenodd" d="M1.5 7C1.5 5.34315 2.84315 4 4.5 4H19.5C21.1569 4 22.5 5.34315 22.5 7V10C22.5 10.5523 22.0523 11 21.5 11C20.9477 11 20.5 10.5523 20.5 10V7C20.5 6.44772 20.0523 6 19.5 6H4.5C3.94772 6 3.5 6.44772 3.5 7V17C3.5 17.5523 3.94772 18 4.5 18H12C12.5523 18 13 18.4477 13 19C13 19.5523 12.5523 20 12 20H4.5C2.84315 20 1.5 18.6569 1.5 17V7ZM17.2071 13.7929C16.8166 13.4024 16.1834 13.4024 15.7929 13.7929C15.4024 14.1834 15.4024 14.8166 15.7929 15.2071L17.5858 17L15.7929 18.7929C15.4024 19.1834 15.4024 19.8166 15.7929 20.2071C16.1834 20.5976 16.8166 20.5976 17.2071 20.2071L19 18.4142L20.7929 20.2071C21.1834 20.5976 21.8166 20.5976 22.2071 20.2071C22.5976 19.8166 22.5976 19.1834 22.2071 18.7929L20.4142 17L22.2071 15.2071C22.5976 14.8166 22.5976 14.1834 22.2071 13.7929C21.8166 13.4024 21.1834 13.4024 20.7929 13.7929L19 15.5858L17.2071 13.7929ZM7.25 9H10.25C10.3881 9 10.5 9.11193 10.5 9.25V11.25C10.5 11.3881 10.3881 11.5 10.25 11.5H7.25C7.11193 11.5 7 11.3881 7 11.25V9.25C7 9.11193 7.11193 9 7.25 9Z" fill="currentColor"/>
</svg>
