<svg width="24" height="24" viewBox="0 0 24 24" fill="none" xmlns="http://www.w3.org/2000/svg">
<path fill-rule="evenodd" clip-rule="evenodd" d="M4.5 4C2.84315 4 1.5 5.34315 1.5 7V17C1.5 18.6569 2.84315 20 4.5 20H14.5C15.0523 20 15.5 19.5523 15.5 19C15.5 18.4477 15.0523 18 14.5 18H4.5C3.94772 18 3.5 17.5523 3.5 17V7C3.5 6.44772 3.94772 6 4.5 6H19.5C20.0523 6 20.5 6.44772 20.5 7V8.5C20.5 9.05228 20.9477 9.5 21.5 9.5C22.0523 9.5 22.5 9.05228 22.5 8.5V7C22.5 5.34315 21.1569 4 19.5 4H4.5ZM18 21.5C18 22.052 18.448 22.5 19 22.5C19.552 22.5 20 22.052 20 21.5C20 20.948 19.552 20.5 19 20.5C18.448 20.5 18 20.948 18 21.5ZM16.0447 13.0091C16.8184 11.5092 18.5378 10.7575 20.1643 11.2079L20.3018 11.2459C21.7648 11.6511 22.7778 12.9827 22.7778 14.5008C22.7778 16.1182 21.631 17.5086 20.0432 17.8164L20 17.8248V18.6154C20 19.1677 19.5523 19.6154 19 19.6154C18.4477 19.6154 18 19.1677 18 18.6154V17.4716C18 16.7188 18.5337 16.0718 19.2727 15.9285L19.6625 15.853C20.3101 15.7274 20.7778 15.1604 20.7778 14.5008C20.7778 13.8817 20.3647 13.3386 19.768 13.1734L19.6305 13.1353C18.9165 12.9376 18.1618 13.2676 17.8221 13.926L17.6665 14.2277C17.4133 14.7185 16.8101 14.9111 16.3193 14.6579C15.8285 14.4047 15.6359 13.8016 15.8891 13.3108L16.0447 13.0091ZM7.25 9H10.25C10.3881 9 10.5 9.11193 10.5 9.25V11.25C10.5 11.3881 10.3881 11.5 10.25 11.5H7.25C7.11193 11.5 7 11.3881 7 11.25V9.25C7 9.11193 7.11193 9 7.25 9Z" fill="currentColor"/>
</svg>
