<svg width="24" height="24" viewBox="0 0 24 24" fill="none" xmlns="http://www.w3.org/2000/svg">
<path fill-rule="evenodd" clip-rule="evenodd" d="M2 7C2 5.34315 3.34315 4 5 4L19 4C20.6569 4 22 5.34315 22 7V9.5C22 10.0523 21.5523 10.5 21 10.5C20.4477 10.5 20 10.0523 20 9.5V7C20 6.44772 19.5523 6 19 6L5 6C4.44772 6 4 6.44772 4 7L4 17C4 17.5523 4.44772 18 5 18H12.5C13.0523 18 13.5 18.4477 13.5 19C13.5 19.5523 13.0523 20 12.5 20H5C3.34315 20 2 18.6569 2 17L2 7ZM17.3813 10.8813C17.723 10.5396 18.277 10.5396 18.6187 10.8813C18.9604 11.223 18.9604 11.777 18.6187 12.1187L18.6124 12.125H19.5C21.9162 12.125 23.875 14.0838 23.875 16.5C23.875 18.9162 21.9162 20.875 19.5 20.875C17.0838 20.875 15.125 18.9162 15.125 16.5C15.125 16.0168 15.5168 15.625 16 15.625C16.4832 15.625 16.875 16.0168 16.875 16.5C16.875 17.9497 18.0503 19.125 19.5 19.125C20.9497 19.125 22.125 17.9497 22.125 16.5C22.125 15.0503 20.9497 13.875 19.5 13.875H18.6124L18.6187 13.8813C18.9604 14.223 18.9604 14.777 18.6187 15.1187C18.277 15.4604 17.723 15.4604 17.3813 15.1187L15.8813 13.6187C15.5396 13.277 15.5396 12.723 15.8813 12.3813L17.3813 10.8813ZM7.25 9H10.25C10.3881 9 10.5 9.11193 10.5 9.25V11.25C10.5 11.3881 10.3881 11.5 10.25 11.5H7.25C7.11193 11.5 7 11.3881 7 11.25V9.25C7 9.11193 7.11193 9 7.25 9Z" fill="currentColor"/>
</svg>
