<svg width="24" height="24" viewBox="0 0 24 24" fill="none" xmlns="http://www.w3.org/2000/svg">
<path fill-rule="evenodd" clip-rule="evenodd" d="M1.5 7C1.5 5.34315 2.84315 4 4.5 4H19.5C21.1569 4 22.5 5.34315 22.5 7V10C22.5 10.5523 22.0523 11 21.5 11C20.9477 11 20.5 10.5523 20.5 10V7C20.5 6.44772 20.0523 6 19.5 6H4.5C3.94772 6 3.5 6.44772 3.5 7V17C3.5 17.5523 3.94772 18 4.5 18H12C12.5523 18 13 18.4477 13 19C13 19.5523 12.5523 20 12 20H4.5C2.84315 20 1.5 18.6569 1.5 17V7ZM10.25 9H7.25C7.11193 9 7 9.11193 7 9.25V11.25C7 11.3881 7.11193 11.5 7.25 11.5H10.25C10.3881 11.5 10.5 11.3881 10.5 11.25V9.25C10.5 9.11193 10.3881 9 10.25 9ZM22.2458 14.6662C22.6137 14.2544 22.5781 13.6222 22.1662 13.2542C21.7544 12.8863 21.1222 12.9219 20.7542 13.3338L17.0689 17.459L15.7758 15.869C15.4273 15.4406 14.7975 15.3757 14.369 15.7242C13.9406 16.0727 13.8757 16.7025 14.2242 17.131L16.2574 19.631C16.4422 19.8582 16.7173 19.9929 17.01 19.9997C17.3028 20.0065 17.5838 19.8846 17.779 19.6662L22.2458 14.6662Z" fill="currentColor"/>
</svg>
