<svg width="24" height="24" viewBox="0 0 24 24" fill="none" xmlns="http://www.w3.org/2000/svg">
<path fill-rule="evenodd" clip-rule="evenodd" d="M18.9014 2.99999C19.0175 2.56883 19.6292 2.56883 19.7453 2.99999L20.3703 5.32131C20.4108 5.47169 20.5283 5.58916 20.6787 5.62965L23 6.25466C23.4312 6.37075 23.4312 6.98249 23 7.09858L20.6787 7.72359C20.5283 7.76408 20.4108 7.88155 20.3703 8.03193L19.7453 10.3532C19.6292 10.7844 19.0175 10.7844 18.9014 10.3532L18.2764 8.03193C18.2359 7.88155 18.1184 7.76408 17.968 7.72359L15.6467 7.09858C15.2156 6.98249 15.2156 6.37075 15.6467 6.25466L17.968 5.62965C18.1184 5.58916 18.2359 5.47169 18.2764 5.32131L18.9014 2.99999ZM4.5 5.99977C3.94772 5.99977 3.5 6.44749 3.5 6.99977V16.9998C3.5 17.5521 3.94772 17.9998 4.5 17.9998H19.5C20.0523 17.9998 20.5 17.5521 20.5 16.9998V13C20.5 12.4477 20.9477 12 21.5 12C22.0523 12 22.5 12.4477 22.5 13V16.9998C22.5 18.6566 21.1569 19.9998 19.5 19.9998H4.5C2.84315 19.9998 1.5 18.6566 1.5 16.9998V6.99977C1.5 5.34292 2.84315 3.99977 4.5 3.99977H13C13.5523 3.99977 14 4.44749 14 4.99977C14 5.55206 13.5523 5.99977 13 5.99977H4.5ZM7.25 9.00002H10.25C10.3881 9.00002 10.5 9.11195 10.5 9.25002V11.25C10.5 11.3881 10.3881 11.5 10.25 11.5H7.25C7.11193 11.5 7 11.3881 7 11.25V9.25002C7 9.11195 7.11193 9.00002 7.25 9.00002Z" fill="currentColor"/>
</svg>
