<svg width="24" height="24" viewBox="0 0 24 24" fill="none" xmlns="http://www.w3.org/2000/svg">
<path fill-rule="evenodd" clip-rule="evenodd" d="M18.3452 4.59955C19.4617 3.48753 21.2671 3.4872 22.3841 4.5988C23.5054 5.71466 23.5089 7.52848 22.3919 8.64867L16.9112 14.1454C16.569 14.4886 16.1488 14.7438 15.6865 14.8891L12.3293 15.9445C12.2262 15.9804 12.1154 16 12 16H7C6.44772 16 6 15.5523 6 15C6 14.4477 6.44772 14 7 14H11.2623L12.0895 11.3234C12.2342 10.8551 12.4915 10.4294 12.8388 10.0835L18.3452 4.59955ZM20.9733 6.01642C20.6368 5.68153 20.0929 5.68163 19.7565 6.01665L14.2501 11.5006C14.1343 11.6159 14.0486 11.7578 14.0003 11.9139L13.5181 13.4743L15.0867 12.9812C15.2408 12.9327 15.3809 12.8477 15.4949 12.7333L20.9757 7.23652C21.3122 6.89904 21.3111 6.3526 20.9733 6.01642ZM4.5 5.99975C3.94772 5.99975 3.5 6.44746 3.5 6.99975V16.9997C3.5 17.552 3.94772 17.9997 4.5 17.9997H19.5C20.0523 17.9997 20.5 17.552 20.5 16.9997V14.5C20.5 13.9477 20.9477 13.5 21.5 13.5C22.0523 13.5 22.5 13.9477 22.5 14.5V16.9997C22.5 18.6566 21.1569 19.9997 19.5 19.9997H4.5C2.84315 19.9997 1.5 18.6566 1.5 16.9997V6.99975C1.5 5.34289 2.84315 3.99975 4.5 3.99975H13.5C14.0523 3.99975 14.5 4.44746 14.5 4.99975C14.5 5.55203 14.0523 5.99975 13.5 5.99975H4.5Z" fill="currentColor"/>
</svg>
