<svg width="24" height="24" viewBox="0 0 24 24" fill="none" xmlns="http://www.w3.org/2000/svg">
<path fill-rule="evenodd" clip-rule="evenodd" d="M20.0686 3.45732L22.0158 4.62238C23.3271 5.41085 23.3271 7.39379 22.0215 8.18814L20.0742 9.35319L18.0988 10.5359C16.7932 11.3244 15.1611 10.3358 15.1611 8.7589V8.44704C15.1611 8.37608 15.1432 8.30637 15.1094 8.24486C15.0756 8.18335 15.0269 8.13219 14.9682 8.09647C14.9096 8.06075 14.843 8.04173 14.7751 8.04129C14.7073 8.04086 14.6405 8.05903 14.5814 8.094L12.7805 9.17667L10.9852 10.2535C10.9263 10.2888 10.8773 10.3398 10.8433 10.4013C10.8092 10.4627 10.7913 10.5325 10.7913 10.6036C10.7913 10.6746 10.8092 10.7444 10.8433 10.8059C10.8773 10.8673 10.9263 10.9183 10.9852 10.9537L12.7805 12.0305L14.5814 13.1131C14.6405 13.1481 14.7073 13.1663 14.7751 13.1658C14.843 13.1654 14.9096 13.1464 14.9682 13.1107C15.0269 13.0749 15.0756 13.0238 15.1094 12.9623C15.1432 12.9008 15.1611 12.831 15.1611 12.7601V12.1305C15.1607 12.0607 15.1779 11.9921 15.2109 11.9314C15.244 11.8708 15.2917 11.8204 15.3494 11.7852C15.407 11.75 15.4725 11.7313 15.5392 11.731C15.6059 11.7306 15.6716 11.7487 15.7295 11.7833L16.6469 12.3306C16.7071 12.3653 16.7573 12.4165 16.7919 12.4786C16.8266 12.5408 16.8446 12.6116 16.8438 12.6836V12.9484C16.8438 14.5253 15.2117 15.508 13.9061 14.7254L11.9307 13.5427L9.98347 12.3776C8.67218 11.5892 8.67218 9.60621 9.98347 8.81774L11.9307 7.65269L13.9005 6.4641C15.2061 5.67563 16.8382 6.66416 16.8382 8.2411V8.55296C16.8382 8.62392 16.8561 8.69363 16.8899 8.75514C16.9237 8.81665 16.9724 8.86781 17.0311 8.90353C17.0897 8.93925 17.1563 8.95827 17.2241 8.95871C17.292 8.95914 17.3588 8.94097 17.4179 8.906L19.2188 7.82333L21.0141 6.74654C21.073 6.71118 21.122 6.66019 21.156 6.59872C21.1901 6.53725 21.208 6.46747 21.208 6.39643C21.208 6.3254 21.1901 6.25562 21.156 6.19415C21.122 6.13267 21.073 6.08169 21.0141 6.04633L19.2188 4.96954L17.4179 3.88686C17.3588 3.8519 17.292 3.83373 17.2241 3.83416C17.1563 3.83459 17.0897 3.85362 17.0311 3.88933C16.9724 3.92505 16.9237 3.97622 16.8899 4.03773C16.8561 4.09924 16.8382 4.16895 16.8382 4.23991V4.86951C16.8386 4.93928 16.8214 5.00794 16.7884 5.06855C16.7553 5.12917 16.7076 5.17962 16.6499 5.21481C16.5923 5.25001 16.5268 5.26871 16.4601 5.26904C16.3934 5.26936 16.3277 5.2513 16.2698 5.21667L15.3524 4.66945C15.2922 4.63469 15.242 4.58351 15.2073 4.52135C15.1727 4.45919 15.1547 4.38836 15.1555 4.3164V4.05162C15.1555 2.47468 16.7875 1.49203 18.0932 2.27462L20.0686 3.45732ZM4 7C4 6.44772 4.44772 6 5 6H11C11.5523 6 12 5.55228 12 5C12 4.44772 11.5523 4 11 4H5C3.34315 4 2 5.34315 2 7V17C2 18.6569 3.34315 20 5 20H19C20.6569 20 22 18.6569 22 17V12C22 11.4477 21.5523 11 21 11C20.4477 11 20 11.4477 20 12V17C20 17.5523 19.5523 18 19 18H5C4.44772 18 4 17.5523 4 17V7Z" fill="currentColor"/>
</svg>
