<svg width="24" height="24" viewBox="0 0 24 24" fill="none" xmlns="http://www.w3.org/2000/svg">
<path fill-rule="evenodd" clip-rule="evenodd" d="M4.5 4C2.84315 4 1.5 5.34315 1.5 7V17C1.5 18.6569 2.84315 20 4.5 20H19.5C21.1569 20 22.5 18.6569 22.5 17V7C22.5 5.34315 21.1569 4 19.5 4H4.5ZM3.5 7C3.5 6.44772 3.94772 6 4.5 6H19.5C20.0523 6 20.5 6.44772 20.5 7V8L3.5 8V7ZM3.5 10V17C3.5 17.5523 3.94772 18 4.5 18H19.5C20.0523 18 20.5 17.5523 20.5 17V10L3.5 10ZM6 14C6 13.4477 6.44772 13 7 13H10C10.5523 13 11 13.4477 11 14C11 14.5523 10.5523 15 10 15H7C6.44772 15 6 14.5523 6 14ZM13.5 13C12.9477 13 12.5 13.4477 12.5 14C12.5 14.5523 12.9477 15 13.5 15H15C15.5523 15 16 14.5523 16 14C16 13.4477 15.5523 13 15 13H13.5Z" fill="currentColor"/>
</svg>
