<svg width="24" height="24" viewBox="0 0 24 24" fill="none" xmlns="http://www.w3.org/2000/svg">
<path fill-rule="evenodd" clip-rule="evenodd" d="M3 4V8C3 8.55228 3.44772 9 4 9C4.55229 9 5 8.55228 5 8L5 5L8 5C8.55228 5 9 4.55229 9 4C9 3.44772 8.55229 3 8 3H4C3.73478 3 3.48043 3.10536 3.29289 3.29289C3.10536 3.48043 3 3.73478 3 4ZM15 4C15 3.44772 15.4477 3 16 3H20C20.5523 3 21 3.44772 21 4V8C21 8.55228 20.5523 9 20 9C19.4477 9 19 8.55228 19 8V5H16C15.4477 5 15 4.55228 15 4ZM19 19V16C19 15.4477 19.4477 15 20 15C20.5523 15 21 15.4477 21 16V20C21 20.2652 20.8946 20.5196 20.7071 20.7071C20.5196 20.8946 20.2652 21 20 21H16C15.4477 21 15 20.5523 15 20C15 19.4477 15.4477 19 16 19H19ZM9 20C9 20.5523 8.55229 21 8 21H4C3.44772 21 3 20.5523 3 20V16C3 15.4477 3.44772 15 4 15C4.55229 15 5 15.4477 5 16L5 19H8C8.55229 19 9 19.4477 9 20ZM14.7496 9.76762C14.1914 9.2492 13.3371 8.87153 12.4458 8.87153C11.7483 8.87153 11.0502 9.13274 11.0502 9.79327C11.0502 10.419 11.6875 10.6595 12.4651 10.9529C12.5299 10.9773 12.5956 11.0021 12.662 11.0275C14.1741 11.5665 15.4199 12.2273 15.4199 13.7919C15.4199 15.4925 14.1697 16.6544 12.127 16.7863L11.9415 17.7107C11.9078 17.8803 11.7641 18.0013 11.5987 18L10.3133 17.9898C10.0928 17.988 9.92968 17.7754 9.97537 17.5499L10.1711 16.5884C9.36714 16.3592 8.66267 15.95 8.10625 15.3849C7.96561 15.2422 7.96434 15.0056 8.10395 14.8616L8.81761 14.125C8.95288 13.9853 9.16933 13.9864 9.3046 14.1261C9.99426 14.8376 10.883 15.1306 11.7314 15.1306C12.662 15.1306 13.2932 14.7308 13.2932 14.0526C13.2932 13.455 12.7766 13.2556 11.7923 12.8755C11.6886 12.8354 11.5797 12.7934 11.4657 12.7487C10.203 12.2794 9.00674 11.6012 9.00674 10.019C9.00674 8.19124 10.4527 7.30048 12.1587 7.21127L12.3463 6.28819C12.3805 6.12019 12.5224 6 12.6865 6H13.9699C14.1909 6 14.3555 6.21261 14.3104 6.43884L14.1021 7.47676C14.8385 7.72917 15.4367 8.1234 15.8824 8.5243C16.0337 8.66025 16.0388 8.90384 15.8987 9.05261L15.2346 9.75748C15.1021 9.89797 14.8908 9.89877 14.7496 9.76762Z" fill="currentColor"/>
</svg>
