<svg width="24" height="24" viewBox="0 0 24 24" fill="none" xmlns="http://www.w3.org/2000/svg">
<path fill-rule="evenodd" clip-rule="evenodd" d="M10.8334 3.94734L10 4.5L10.8334 3.94737L10.8335 3.94754L10.834 3.94826L10.836 3.95128L10.8441 3.9635L10.8762 4.01181L10.9998 4.19721C11.1069 4.35773 11.2614 4.58859 11.4504 4.86941C11.8286 5.43126 12.3442 6.19203 12.8949 6.98887C14.0251 8.62433 15.2201 10.2888 15.7191 10.805C16.3168 11.4235 17.306 12.0652 18.4266 12.6564C19.5278 13.2375 20.6767 13.7293 21.5307 14.0687C22.6856 14.5278 23.5 15.6433 23.5 16.9304L23.5 18C23.5 19.3807 22.3807 20.5 21 20.5H13.5C11.5829 20.5 10.207 19.3694 9.19109 18.4171C8.98735 18.226 8.80441 18.0485 8.63224 17.8814C8.33669 17.5945 8.07285 17.3384 7.78988 17.0979C7.74498 17.0597 7.70123 17.0235 7.65855 16.989L6.97018 19.7425C6.85889 20.1877 6.4589 20.5 6.00004 20.5H2.50003C2.02267 20.5 1.61186 20.1626 1.51909 19.6944L0.519063 14.6467C0.51726 14.6376 0.515584 14.6285 0.514036 14.6194C0.245784 13.0354 0.250366 11.2099 0.31313 9.45824C0.336435 8.80783 0.367295 8.17332 0.397207 7.55832C0.450071 6.47137 0.499974 5.44533 0.499975 4.5C0.499976 4.20041 0.634299 3.9166 0.865986 3.72666C1.09763 3.53676 1.4022 3.46069 1.69593 3.51939C1.69594 3.51939 1.69595 3.51939 1.69595 3.51939L1.69597 3.5194L1.69609 3.51942L1.69672 3.51954L1.70092 3.52038L1.71975 3.52407L1.79719 3.53891C1.86579 3.55189 1.96721 3.57068 2.09564 3.59334C2.35276 3.63871 2.71677 3.69939 3.14142 3.76005C3.99928 3.8826 5.07003 4 6.00002 4C6.92443 4 7.86506 3.8837 8.58561 3.76361C8.94315 3.70402 9.24042 3.64453 9.44672 3.60032C9.54976 3.57824 9.62979 3.56004 9.68293 3.54764L9.7419 3.53366L9.7553 3.53039L9.75747 3.52986L9.75767 3.52981C10.1685 3.4272 10.5994 3.59444 10.8334 3.94734ZM2.47928 5.68362C2.4586 6.344 2.42513 7.03566 2.39152 7.73032C2.3623 8.3341 2.33298 8.94014 2.31185 9.52986C2.25963 10.9871 2.25447 12.3839 2.39111 13.6041L7.18714 14.5177C7.20573 14.5212 7.22421 14.5253 7.24256 14.5299C7.96848 14.7114 8.57972 15.1444 9.08518 15.574C9.41403 15.8535 9.76449 16.193 10.0945 16.5126C10.2558 16.6689 10.4123 16.8205 10.559 16.958C11.5431 17.8806 12.4171 18.5 13.5 18.5H21C21.2761 18.5 21.5 18.2762 21.5 18L21.5 16.9304C21.5 16.5066 21.227 16.1002 20.7919 15.9273C19.9016 15.5734 18.681 15.052 17.4933 14.4253C16.3249 13.8088 15.1056 13.0481 14.281 12.195C13.6392 11.5309 12.3341 9.69536 11.2495 8.1259C10.6928 7.32028 10.1723 6.55235 9.79123 5.98613C9.70147 5.85276 9.6194 5.73053 9.54637 5.62156C9.36386 5.65753 9.15088 5.69698 8.91441 5.7364C8.37965 5.82552 7.71314 5.91643 7.00002 5.96473L7.00001 9C7 9.55229 6.55229 10 6 10C5.44772 10 5 9.55228 5.00001 9L5.00002 5.9668C4.23624 5.91946 3.47817 5.82846 2.85858 5.73995C2.72618 5.72104 2.59934 5.70212 2.47928 5.68362ZM2.769 15.7121L3.32135 18.5H5.21926L5.77318 16.2843L2.769 15.7121Z" fill="currentColor"/>
</svg>
