<svg width="24" height="24" viewBox="0 0 24 24" fill="none" xmlns="http://www.w3.org/2000/svg">
<path fill-rule="evenodd" clip-rule="evenodd" d="M17 7C17 5.89543 17.8955 5 19 5C20.1046 5 21 5.89543 21 7C21 8.10457 20.1046 9 19 9C17.8955 9 17 8.10457 17 7ZM19 3C16.7909 3 15 4.79086 15 7C15 9.20914 16.7909 11 19 11C21.2092 11 23 9.20914 23 7C23 4.79086 21.2092 3 19 3ZM2.6247 11.2807C3.74424 10.3851 5.07824 9.77104 6.63578 9.72977C7.94397 9.6951 9.49169 10.0624 11.2875 11.1282L8.11465 14H2.00004C1.44775 14 1.00004 14.4477 1.00004 15C1.00004 15.5523 1.44775 16 2.00004 16H18.9854C18.9917 16.0001 18.998 16.0001 19.0044 16.0001C19.0072 16.0001 19.01 16 19.0128 16H22C22.5523 16 23 15.5523 23 15C23 14.4477 22.5523 14 22 14H19.2922C19.1742 13.9245 19.0174 13.8241 18.8307 13.7042C18.3953 13.4248 17.7972 13.0397 17.1459 12.6168C15.8368 11.7668 14.3342 10.778 13.4985 10.1845C10.9812 8.3968 8.66823 7.6752 6.5828 7.73047C4.49759 7.78573 2.75584 8.61463 1.37537 9.71892C0.944097 10.0639 0.874151 10.6932 1.21914 11.1245C1.56414 11.5558 2.19343 11.6257 2.6247 11.2807ZM15.6044 14H11.095L13.0019 12.2741C13.7507 12.7849 14.707 13.4151 15.6044 14ZM5.00004 19C4.44775 19 4.00004 19.4477 4.00004 20C4.00004 20.5523 4.44775 21 5.00004 21L19 21C19.5523 21 20 20.5523 20 20C20 19.4477 19.5523 19 19 19L5.00004 19Z" fill="currentColor"/>
</svg>
