<svg width="24" height="24" viewBox="0 0 24 24" fill="none" xmlns="http://www.w3.org/2000/svg">
<path fill-rule="evenodd" clip-rule="evenodd" d="M16.0177 3.14443C16.3171 3.32558 16.5 3.65006 16.5 4V20C16.5 20.3499 16.3171 20.6744 16.0177 20.8556C15.7183 21.0367 15.346 21.0482 15.036 20.8858L4.53599 15.3858C4.20648 15.2132 4 14.872 4 14.5V9.5C4 9.12802 4.20648 8.78677 4.53599 8.61417L15.036 3.11417C15.346 2.9518 15.7183 2.96327 16.0177 3.14443ZM6 10.1051V13.8949L14.5 18.3473V5.65269L6 10.1051ZM19 12C19 11.4477 19.4477 11 20 11H22.5C23.0523 11 23.5 11.4477 23.5 12C23.5 12.5523 23.0523 13 22.5 13H20C19.4477 13 19 12.5523 19 12ZM18.4 7.7C17.9582 8.03137 17.8686 8.65817 18.2 9.1C18.5314 9.54183 19.1582 9.63137 19.6 9.3L21.6 7.8C22.0418 7.46863 22.1314 6.84183 21.8 6.4C21.4686 5.95817 20.8418 5.86863 20.4 6.2L18.4 7.7ZM21.8 17.6C21.4686 18.0418 20.8418 18.1314 20.4 17.8L18.4 16.3C17.9582 15.9686 17.8686 15.3418 18.2 14.9C18.5314 14.4582 19.1582 14.3686 19.6 14.7L21.6 16.2C22.0418 16.5314 22.1314 17.1582 21.8 17.6ZM2.5 10C2.5 9.44772 2.05228 9 1.5 9C0.947715 9 0.5 9.44772 0.5 10V14C0.5 14.5523 0.947716 15 1.5 15C2.05229 15 2.5 14.5523 2.5 14L2.5 10Z" fill="currentColor"/>
</svg>
