<svg width="24" height="24" viewBox="0 0 24 24" fill="none" xmlns="http://www.w3.org/2000/svg">
<path fill-rule="evenodd" clip-rule="evenodd" d="M8.38601 5.07751L8.386 5.0775L8.38582 5.07743L8.38576 5.0774C8.11724 4.96513 7.81312 4.97541 7.55279 5.10557C5.58274 6.0906 4.55193 8.08512 4.02503 9.95359C3.61253 11.4164 3.47179 12.926 3.47081 14.117C2.88614 14.2484 2.33751 14.4813 1.8605 14.7675C1.12113 15.2111 0.462889 15.8382 0.105575 16.5528C0.0361481 16.6916 3.39747e-06 16.8448 3.15905e-06 17L0 19C-4.76836e-07 19.2652 0.105356 19.5196 0.292893 19.7071C0.480429 19.8946 0.734783 20 1 20H23C23.5523 20 24 19.5523 24 19V17C24 16.8448 23.9639 16.6916 23.8944 16.5528C23.5371 15.8382 22.8789 15.2111 22.1395 14.7675C21.6625 14.4813 21.1139 14.2484 20.5292 14.117C20.5282 12.926 20.3875 11.4164 19.975 9.95359C19.4481 8.08512 18.4173 6.0906 16.4472 5.10557C16.1869 4.9754 15.8827 4.96512 15.6142 5.07743L15.614 5.0775L15.614 5.07751L15.6106 5.0789L15.594 5.08574C15.5786 5.09202 15.5548 5.10169 15.5234 5.11425C15.4605 5.13937 15.3671 5.176 15.2493 5.22029C15.0133 5.3091 14.6824 5.42755 14.3051 5.54566C13.5222 5.79072 12.6443 6 12 6C11.3557 6 10.4778 5.79072 9.69489 5.54566C9.31755 5.42755 8.98674 5.3091 8.75067 5.22029C8.63294 5.176 8.53955 5.13937 8.4766 5.11425C8.44515 5.10169 8.42136 5.09202 8.40599 5.08574L8.38937 5.0789L8.38601 5.07751ZM15.9174 7.10576C15.658 7.20277 15.3049 7.3284 14.9025 7.45435C14.088 7.70928 12.9659 8 12 8C11.0341 8 9.91198 7.70928 9.09748 7.45435C8.6951 7.3284 8.34205 7.20277 8.08259 7.10576C7.05639 7.78694 6.36713 9.01705 5.94997 10.4964C5.60736 11.7113 5.48121 12.985 5.47139 14H15.5C16.0523 14 16.5 14.4477 16.5 15C16.5 15.5523 16.0523 16 15.5 16H4.5C3.96456 16 3.39037 16.182 2.8895 16.4825C2.47814 16.7293 2.17638 17.0193 2 17.272L2 18H22V17.272C21.8236 17.0193 21.5219 16.7293 21.1105 16.4825C20.6096 16.182 20.0354 16 19.5 16C19.2224 16 18.9573 15.8846 18.7681 15.6815C18.579 15.4783 18.4828 15.2056 18.5025 14.9288C18.5794 13.8533 18.5085 12.1223 18.05 10.4964C17.6329 9.01705 16.9436 7.78694 15.9174 7.10576Z" fill="currentColor"/>
</svg>
