<svg width="24" height="24" viewBox="0 0 24 24" fill="none" xmlns="http://www.w3.org/2000/svg">
<path fill-rule="evenodd" clip-rule="evenodd" d="M8.1231 5C6.74649 5 5.54655 5.93689 5.21267 7.27239L4.07464 11.8245C4.83656 11.3042 5.75775 11 6.74999 11C9.11815 11 11.0815 12.733 11.4411 15H12H12.5589C12.9184 12.733 14.8818 11 17.25 11C18.2422 11 19.1634 11.3042 19.9254 11.8245L18.7873 7.27239C18.4534 5.93689 17.2535 5 15.8769 5H15C14.4477 5 14 4.55228 14 4C14 3.44772 14.4477 3 15 3H15.8769C18.1712 3 20.1711 4.56149 20.7276 6.78732L22.9649 15.7363C22.977 15.7809 22.9862 15.8268 22.9921 15.8736C23.0074 15.9926 23.0008 16.1106 22.9751 16.2227C22.9415 16.3703 22.8753 16.5054 22.7845 16.6202C22.6975 16.7304 22.587 16.8229 22.458 16.8892C22.3526 16.9436 22.2362 16.9799 22.113 16.9937C22.068 16.9989 22.0231 17.0009 21.9787 17H21.9411C21.5815 19.267 19.6181 21 17.25 21C14.8818 21 12.9185 19.267 12.5589 17H12H11.4411C11.0815 19.267 9.11813 21 6.74999 21C4.38184 21 2.41846 19.267 2.05887 17H2.02128C1.97707 17.0009 1.93242 16.9989 1.88758 16.9938C1.76207 16.9797 1.64359 16.9425 1.53652 16.8864C1.41261 16.8217 1.30591 16.7327 1.22103 16.6272C1.05603 16.4219 0.973476 16.1538 1.0072 15.8793C1.0131 15.8303 1.02255 15.7823 1.03529 15.7357L3.27239 6.78732C3.82884 4.56149 5.82876 3 8.1231 3H8.99999C9.55228 3 9.99999 3.44772 9.99999 4C9.99999 4.55228 9.55228 5 8.99999 5H8.1231ZM6.74999 13C5.2312 13 3.99999 14.2312 3.99999 15.75V16V16.25C3.99999 17.7688 5.2312 19 6.74999 19C8.26877 19 9.49999 17.7688 9.49999 16.25V16V15.75C9.49999 14.2312 8.26877 13 6.74999 13ZM17.25 13C15.7312 13 14.5 14.2312 14.5 15.75V16V16.25C14.5 17.7688 15.7312 19 17.25 19C18.7688 19 20 17.7688 20 16.25V16V15.75C20 14.2312 18.7688 13 17.25 13Z" fill="currentColor"/>
</svg>
