<svg width="24" height="24" viewBox="0 0 24 24" fill="none" xmlns="http://www.w3.org/2000/svg">
<path fill-rule="evenodd" clip-rule="evenodd" d="M7.88288 5.5974L9.76822 7.85982C9.97875 8.11245 10.0516 8.45244 9.9631 8.76916C9.87461 9.08577 9.63617 9.33866 9.32533 9.4456L9.32501 9.44571L9.32436 9.44594L9.31652 9.44868L9.28008 9.46162C9.24683 9.47355 9.19607 9.49202 9.12992 9.51687C8.99753 9.5666 8.80401 9.64166 8.56627 9.74064C8.08941 9.93918 7.44157 10.2311 6.75539 10.6045C5.32574 11.3825 3.95239 12.3972 3.40292 13.5007C3.18585 13.9366 3.0715 14.5831 3.02563 15.2012C3.02373 15.2268 3.02196 15.2522 3.02031 15.2773H7.00407H12H16.9959H20.9797C20.9781 15.2522 20.9763 15.2268 20.9744 15.2012C20.9285 14.583 20.8142 13.9366 20.5971 13.5007C20.0476 12.3972 18.6743 11.3825 17.2446 10.6045C16.5584 10.2311 15.9106 9.93918 15.4337 9.74064C15.196 9.64166 15.0025 9.5666 14.8701 9.51687C14.8039 9.49203 14.7532 9.47355 14.7199 9.46162L14.6835 9.44868L14.6756 9.44594L14.675 9.44571L14.6747 9.4456C14.3638 9.33866 14.1254 9.08577 14.0369 8.76916C13.9484 8.45244 14.0213 8.11245 14.2318 7.85982L16.1171 5.5974C16.0114 5.52375 15.8906 5.44637 15.7539 5.36824C15.0287 4.95388 13.8246 4.5 12 4.5C10.1754 4.5 8.97127 4.95388 8.24614 5.36824C8.10941 5.44637 7.98858 5.52375 7.88288 5.5974ZM17.5 5.5C18.3 4.9 18.2996 4.89949 18.2992 4.89898L18.2984 4.89791L18.2967 4.89563L18.2928 4.89052L18.2832 4.87813C18.276 4.86892 18.2672 4.85783 18.2567 4.845C18.2358 4.81935 18.2082 4.78668 18.1737 4.74805C18.1047 4.6708 18.008 4.56955 17.8814 4.4527C17.6281 4.21889 17.2552 3.92264 16.7461 3.63176C15.7213 3.04612 14.1754 2.5 12 2.5C9.82455 2.5 8.27872 3.04612 7.25386 3.63176C6.74481 3.92264 6.37189 4.21889 6.11859 4.4527C5.99201 4.56955 5.8953 4.6708 5.82633 4.74805C5.79183 4.78668 5.76424 4.81935 5.74329 4.84501C5.73281 4.85784 5.72399 4.86892 5.71679 4.87813L5.70719 4.89052L5.7033 4.89563L5.70157 4.89791L5.70077 4.89898C5.70038 4.89949 5.7 4.9 6.5 5.5L5.7 4.9C5.4219 5.2708 5.43505 5.78411 5.73178 6.14018L7.35269 8.08527C6.89999 8.28552 6.36306 8.54103 5.7994 8.84777C4.33194 9.64634 2.45918 10.9091 1.6126 12.6092C1.21746 13.4027 1.082 14.3674 1.03112 15.0531C1.00456 15.411 0.999042 15.7256 1.00013 15.9515C1.00067 16.0649 1.00288 16.157 1.00505 16.2223C1.00613 16.255 1.0072 16.2811 1.00805 16.2999L1.00814 16.3018V20C1.00814 20.5523 1.45586 21 2.00814 21C2.56043 21 3.00814 20.5523 3.00814 20V17.2773H6.00407V20C6.00407 20.5523 6.45178 21 7.00407 21C7.55635 21 8.00407 20.5523 8.00407 20V17.2773H11V20C11 20.5523 11.4477 21 12 21C12.5523 21 13 20.5523 13 20V17.2773H15.9959V20C15.9959 20.5523 16.4436 21 16.9959 21C17.5482 21 17.9959 20.5523 17.9959 20V17.2773H20.9919V20C20.9919 20.5523 21.4396 21 21.9919 21C22.5441 21 22.9919 20.5523 22.9919 20V16.3018L22.9919 16.2999C22.9928 16.2811 22.9939 16.2551 22.995 16.2224C22.9971 16.157 22.9993 16.0649 22.9999 15.9515C23.001 15.7256 22.9955 15.411 22.9689 15.0532C22.918 14.3674 22.7826 13.4027 22.3874 12.6092C21.5408 10.9091 19.6681 9.64634 18.2006 8.84777C17.6369 8.54103 17.1 8.28552 16.6473 8.08527L18.2682 6.14018C18.5649 5.78411 18.5781 5.2708 18.3 4.9L17.5 5.5Z" fill="currentColor"/>
</svg>
