<svg width="24" height="24" viewBox="0 0 24 24" fill="none" xmlns="http://www.w3.org/2000/svg">
<path fill-rule="evenodd" clip-rule="evenodd" d="M6.57857 5.81613L8.73898 4.37585C9.3365 5.08123 10.4149 5.99999 12 5.99999C13.5834 5.99999 14.6612 5.08314 15.2591 4.37812L17.4028 5.81659C19.1427 7.11788 20 9.02483 20 11V21C20 21.5523 20.4477 22 21 22C21.5523 22 22 21.5523 22 21V11C22 8.41848 20.8634 5.89562 18.5768 4.19721C18.564 4.1877 18.551 4.1785 18.5377 4.16962L15.7931 2.32789C15.1602 1.90321 14.3697 2.15061 14.0143 2.70604C13.7041 3.19071 13.0124 3.99999 12 3.99999C10.9871 3.99999 10.2952 3.18986 9.98536 2.70545C9.63057 2.15076 8.84232 1.90326 8.20967 2.32503L5.4453 4.16794C5.42991 4.17821 5.4148 4.18889 5.4 4.19999C3.1356 5.89829 2 8.41948 2 11V21C2 21.5523 2.44772 22 3 22C3.55228 22 4 21.5523 4 21V11C4 9.02501 4.85728 7.11749 6.57857 5.81613ZM12 9.5C12 8.94771 12.4477 8.5 13 8.5H15C15.5523 8.5 16 8.94771 16 9.5C16 10.0523 15.5523 10.5 15 10.5H13C12.4477 10.5 12 10.0523 12 9.5ZM7 12C7.55228 12 8 12.4477 8 13V19H16V13C16 12.4477 16.4477 12 17 12C17.5523 12 18 12.4477 18 13V20C18 20.5523 17.5523 21 17 21H7C6.44772 21 6 20.5523 6 20V13C6 12.4477 6.44772 12 7 12Z" fill="currentColor"/>
</svg>
