<svg width="24" height="24" viewBox="0 0 24 24" fill="none" xmlns="http://www.w3.org/2000/svg">
<path fill-rule="evenodd" clip-rule="evenodd" d="M1.75706 2.34664C1.39622 1.92853 0.76476 1.88211 0.346655 2.24296C-0.07145 2.6038 -0.117871 3.23526 0.242971 3.65336L1.46343 5.0675L1.46341 15.7198C1.17409 16.0666 1.00002 16.513 1.00002 17V19C1.00002 20.1046 1.89545 21 3.00002 21H21C22.1046 21 23 20.1046 23 19V17C23 16.4873 22.8071 16.0197 22.49 15.6658C22.3503 13.352 20.7696 11.3566 18.5198 10.7063L15.9237 9.9558L12.484 8.86884C11.5805 8.58333 10.865 7.88775 10.5541 6.99268L9.64222 4.36752C9.5025 3.96529 9.12339 3.69565 8.69759 3.69565H2.92132L1.75706 2.34664ZM21 17H15.6342H3.00002V19H21V17ZM20.3549 15C20.0206 13.8753 19.1346 12.9659 17.9644 12.6276L16.3675 12.166C16.2462 12.746 16.1464 13.3583 16.1464 13.7391C16.1464 14.0996 16.2396 14.5614 16.3541 14.9756L16.3609 15H20.3549ZM14.3001 15C14.2154 14.6122 14.1464 14.1674 14.1464 13.7391C14.1464 13.1283 14.2895 12.3311 14.4115 11.7486C14.4231 11.6934 14.4346 11.6392 14.4461 11.5864L11.8814 10.7759C10.3756 10.3 9.18305 9.14074 8.66485 7.64894L7.98634 5.69565H3.46343L3.46341 15H14.3001Z" fill="currentColor"/>
</svg>
