<svg width="24" height="24" viewBox="0 0 24 24" fill="none" xmlns="http://www.w3.org/2000/svg">
<path fill-rule="evenodd" clip-rule="evenodd" d="M1 10C1 6.13401 4.13401 3 8 3H16C19.866 3 23 6.13401 23 10V17C23 19.2091 21.2091 21 19 21H18.9091C16.7502 21 15 19.2498 15 17.0909C15 17.0407 14.9593 17 14.9091 17H9.09091C9.0407 17 9 17.0407 9 17.0909C9 19.2498 7.24984 21 5.09091 21H5C2.79086 21 1 19.2091 1 17V10ZM8 5C5.23858 5 3 7.23858 3 10V17C3 18.1046 3.89543 19 5 19H5.09091C6.14527 19 7 18.1453 7 17.0909C7 15.9361 7.93613 15 9.09091 15H14.9091C16.0639 15 17 15.9361 17 17.0909C17 18.1453 17.8547 19 18.9091 19H19C20.1046 19 21 18.1046 21 17V10C21 7.23858 18.7614 5 16 5H8ZM8 7C8.55228 7 9 7.44772 9 8V9H10C10.5523 9 11 9.44772 11 10C11 10.5523 10.5523 11 10 11H9V12C9 12.5523 8.55228 13 8 13C7.44772 13 7 12.5523 7 12V11H6C5.44772 11 5 10.5523 5 10C5 9.44772 5.44772 9 6 9H7V8C7 7.44772 7.44772 7 8 7ZM14.5 10C15.3284 10 16 9.32843 16 8.5C16 7.67157 15.3284 7 14.5 7C13.6716 7 13 7.67157 13 8.5C13 9.32843 13.6716 10 14.5 10ZM17.5 13.5C18.3284 13.5 19 12.8284 19 12C19 11.1716 18.3284 10.5 17.5 10.5C16.6716 10.5 16 11.1716 16 12C16 12.8284 16.6716 13.5 17.5 13.5Z" fill="currentColor"/>
</svg>
