<svg width="24" height="24" viewBox="0 0 24 24" fill="none" xmlns="http://www.w3.org/2000/svg">
<path fill-rule="evenodd" clip-rule="evenodd" d="M6.92701 5C6.73763 5 6.5645 5.107 6.4798 5.27639L4.79374 8.64851C6.49289 8.83858 8.86025 9 12 9C15.1397 9 17.507 8.83858 19.2062 8.64851L17.5201 5.27639C17.4354 5.107 17.2623 5 17.0729 5H6.92701ZM4.69095 4.38197L2.70513 8.3536C2.34144 8.28934 2.05217 8.22979 1.83294 8.18056C1.63787 8.13674 1.49826 8.10109 1.411 8.07753C1.36736 8.06575 1.33682 8.057 1.31898 8.05176L1.30169 8.0466C1.30038 8.0462 1.29986 8.04603 1.3001 8.04611L1.30106 8.04641L1.30109 8.04642C1.30138 8.04651 1.30168 8.0466 1.30197 8.04669L1.30169 8.0466L1.30109 8.04642C0.775402 7.88039 0.214272 8.1712 0.0470376 8.6968C-0.120417 9.22308 0.170473 9.78547 0.69676 9.95293L0.999963 9C0.69676 9.95293 0.697108 9.95304 0.697468 9.95315L0.698248 9.9534L0.700023 9.95396L0.704439 9.95534L0.716744 9.95914L0.755374 9.9707C0.787407 9.98011 0.83206 9.99284 0.889713 10.0084C1.00502 10.0395 1.17232 10.082 1.39466 10.1319C1.56587 10.1704 1.7697 10.2133 2.00756 10.2588C2.00251 10.3297 1.99996 10.4008 1.99996 10.4721V20C1.99996 20.5523 2.44768 21 2.99996 21H6.99996C7.55225 21 7.99996 20.5523 7.99996 20V18.5H16V20C16 20.5523 16.4477 21 17 21H21C21.5522 21 22 20.5523 22 20V10.4721C22 10.4008 21.9974 10.3297 21.9924 10.2588C22.2302 10.2133 22.4341 10.1704 22.6053 10.1319C22.8276 10.082 22.9949 10.0395 23.1102 10.0084C23.1679 9.99284 23.2125 9.98011 23.2446 9.9707L23.2832 9.95914L23.2955 9.95534L23.2999 9.95396L23.3017 9.9534L23.3025 9.95315C23.3028 9.95304 23.3032 9.95293 23 9L23.3032 9.95293C23.8295 9.78547 24.1203 9.22308 23.9529 8.6968C23.7855 8.17074 23.2235 7.87987 22.6974 8.04686L22.6974 8.04687L22.6809 8.05176C22.6631 8.057 22.6326 8.06575 22.5889 8.07753C22.5017 8.10109 22.3621 8.13674 22.167 8.18056C21.9478 8.22979 21.6585 8.28934 21.2948 8.3536L19.309 4.38197C18.8855 3.53501 18.0198 3 17.0729 3H6.92701C5.98008 3 5.11443 3.53501 4.69095 4.38197ZM1.30253 8.04687L1.30317 8.04707L0.999963 9C1.30317 8.04707 1.30284 8.04697 1.30253 8.04687ZM20 19V10.5683C18.1858 10.7962 15.5663 11 12 11C8.43365 11 5.81415 10.7962 3.99996 10.5683V19H5.99996V17.5C5.99996 16.9477 6.44768 16.5 6.99996 16.5H17C17.5522 16.5 18 16.9477 18 17.5V19H20ZM10 12.5C9.44774 12.5 9.00002 12.9477 9.00002 13.5C9.00002 14.0523 9.44774 14.5 10 14.5H14C14.5523 14.5 15 14.0523 15 13.5C15 12.9477 14.5523 12.5 14 12.5H10Z" fill="currentColor"/>
</svg>
