<svg width="24" height="24" viewBox="0 0 24 24" fill="none" xmlns="http://www.w3.org/2000/svg">
<path fill-rule="evenodd" clip-rule="evenodd" d="M12.7376 4.32487L11.9999 5L11.2622 4.32487C11.4517 4.11788 11.7194 4 11.9999 4C12.2805 4 12.5482 4.11788 12.7376 4.32487ZM15.0334 7.9773C14.6495 7.09629 14.2078 6.34056 13.8201 5.75423C13.5291 5.31419 13.2645 4.96359 13.0703 4.72031C12.9731 4.59853 12.8932 4.50324 12.836 4.43668C12.8074 4.40338 12.7845 4.37724 12.7679 4.35852L12.7478 4.33603L12.7414 4.32903L12.7392 4.32659L12.7383 4.32564L12.738 4.32523C12.7378 4.32505 12.7376 4.32487 11.9999 5C11.2622 4.32487 11.2621 4.32505 11.2619 4.32523L11.2615 4.32564L11.2607 4.32659L11.2585 4.32903L11.2521 4.33603L11.232 4.35852C11.2154 4.37724 11.1925 4.40338 11.1639 4.43668C11.1067 4.50324 11.0268 4.59853 10.9296 4.72031C10.7353 4.96359 10.4708 5.31419 10.1798 5.75423C9.79208 6.34056 9.35038 7.09629 8.96648 7.9773C8.33392 7.51053 7.72528 7.15733 7.21757 6.89949C6.81122 6.69313 6.46502 6.54557 6.21621 6.44828C6.09167 6.39958 5.99112 6.36331 5.91917 6.33844C5.88318 6.32599 5.85431 6.31639 5.83312 6.30949L5.80715 6.30116L5.79861 6.29848L5.79548 6.29751L5.7942 6.29711L5.79363 6.29694C5.79337 6.29686 5.79311 6.29678 5.49994 7.25284L5.79311 6.29678C5.28553 6.14113 4.7448 6.40926 4.56146 6.90751L5.49994 7.25284C4.56146 6.90751 4.56138 6.90774 4.56129 6.90798L4.56109 6.90851L4.56066 6.90971L4.55957 6.91267L4.55661 6.92088L4.54763 6.94625C4.54033 6.96709 4.5305 6.99575 4.51857 7.03181C4.49471 7.10391 4.46241 7.20577 4.42524 7.3341C4.35099 7.59045 4.25677 7.95425 4.17163 8.39884C4.0541 9.0126 3.95161 9.79212 3.94705 10.6629C3.24414 10.631 2.61327 10.6537 2.10801 10.6923C1.71839 10.7221 1.39944 10.7617 1.17473 10.7945C1.06227 10.8109 0.973124 10.8257 0.910205 10.8367C0.878737 10.8422 0.853802 10.8468 0.835766 10.8502L0.813919 10.8543L0.806953 10.8557L0.804475 10.8562L0.803488 10.8564L0.803058 10.8565C0.802861 10.8565 0.802671 10.8566 0.999943 11.8369L0.802671 10.8566C0.26288 10.9652 -0.0875472 11.4897 0.0187571 12.03L0.999943 11.8369C0.0187571 12.03 0.0188101 12.0302 0.0188669 12.0305L0.0189992 12.0312L0.0193319 12.0329L0.0202712 12.0376L0.0232571 12.0523L0.0337539 12.1021C0.0427973 12.1443 0.0559923 12.2039 0.0736224 12.2791C0.108861 12.4295 0.161947 12.6425 0.235188 12.9027C0.381292 13.4218 0.609572 14.1356 0.939722 14.9169C1.58578 16.4457 2.68447 18.3845 4.45757 19.5292C6.18932 20.6472 8.14432 20.9515 9.6098 20.9944C10.3505 21.016 10.9881 20.9715 11.4431 20.9213C11.6711 20.8961 11.8548 20.8693 11.9844 20.8483C11.9897 20.8474 11.9948 20.8465 11.9999 20.8457C12.005 20.8465 12.0102 20.8474 12.0155 20.8483C12.1451 20.8693 12.3287 20.8961 12.5568 20.9213C13.0118 20.9715 13.6494 21.016 14.3901 20.9944C15.8556 20.9515 17.8106 20.6472 19.5423 19.5292C21.3154 18.3845 22.4141 16.4457 23.0602 14.9169C23.3903 14.1356 23.6186 13.4218 23.7647 12.9027C23.8379 12.6425 23.891 12.4295 23.9263 12.2791C23.9439 12.2039 23.9571 12.1443 23.9661 12.1021L23.9766 12.0523L23.9796 12.0376L23.9806 12.0329L23.9809 12.0312L23.981 12.0305C23.9811 12.0302 23.9811 12.03 22.9999 11.8369L23.9811 12.03C24.0874 11.4897 23.737 10.9652 23.1972 10.8566L22.9999 11.8369C23.1972 10.8566 23.197 10.8565 23.1968 10.8565L23.1964 10.8564L23.1954 10.8562L23.1929 10.8557L23.186 10.8543L23.1641 10.8502C23.1461 10.8468 23.1211 10.8422 23.0897 10.8367C23.0268 10.8257 22.9376 10.8109 22.8252 10.7945C22.6004 10.7617 22.2815 10.7221 21.8919 10.6923C21.3866 10.6537 20.7557 10.631 20.0528 10.6629C20.0483 9.79212 19.9458 9.0126 19.8283 8.39884C19.7431 7.95425 19.6489 7.59045 19.5746 7.3341C19.5375 7.20577 19.5052 7.10391 19.4813 7.03181C19.4694 6.99575 19.4596 6.96709 19.4523 6.94625L19.4433 6.92088L19.4403 6.91267L19.4392 6.90971L19.4388 6.90851L19.4386 6.90798C19.4385 6.90774 19.4384 6.90751 18.4999 7.25284L19.4384 6.90751C19.2551 6.40926 18.7144 6.14113 18.2068 6.29678L18.4999 7.25284C18.2068 6.29678 18.2065 6.29686 18.2063 6.29694L18.2057 6.29711L18.2044 6.29751L18.2013 6.29848L18.1927 6.30116L18.1668 6.30949C18.1456 6.31639 18.1167 6.32599 18.0807 6.33844C18.0088 6.36331 17.9082 6.39958 17.7837 6.44828C17.5349 6.54557 17.1887 6.69313 16.7823 6.89949C16.2746 7.15733 15.666 7.51054 15.0334 7.9773ZM15.7141 9.98694C15.8903 10.7187 15.9999 11.5027 15.9999 12.3217C15.9999 14.0392 15.518 15.6357 14.9392 16.9378C15.7848 16.2449 16.5852 15.3831 17.1087 14.3542C17.6131 13.3628 17.9105 12.5611 18.0054 11.6544C18.1205 10.5545 18.0087 9.53068 17.8639 8.77499C17.8532 8.71878 17.8423 8.66419 17.8313 8.61131C17.7847 8.63406 17.7369 8.65785 17.6879 8.68271C17.1203 8.97097 16.4129 9.39604 15.7141 9.98694ZM11.9999 18.1456C12.194 17.852 12.4083 17.5042 12.6226 17.1124C13.3321 15.8147 13.9999 14.1086 13.9999 12.3217C13.9999 11.4958 13.8573 10.6946 13.631 9.94432C13.2566 8.703 12.6617 7.62836 12.1518 6.85738C12.1 6.77906 12.0493 6.70413 11.9999 6.63272C11.9506 6.70413 11.8998 6.77906 11.848 6.85738C11.3382 7.62836 10.7432 8.703 10.3689 9.94432C10.1426 10.6946 9.99994 11.4958 9.99994 12.3217C9.99994 14.1086 10.6678 15.8147 11.3773 17.1124C11.5916 17.5042 11.8059 17.852 11.9999 18.1456ZM9.06064 16.9378C8.4819 15.6357 7.99994 14.0392 7.99994 12.3217C7.99994 11.5027 8.10957 10.7187 8.28583 9.98694C7.58702 9.39604 6.87957 8.97097 6.31197 8.68271C6.26302 8.65785 6.2152 8.63406 6.16861 8.6113C6.15762 8.66419 6.14671 8.71878 6.13594 8.77499C5.99123 9.53068 5.8794 10.5545 5.99451 11.6544C6.08941 12.5611 6.3868 13.3628 6.89121 14.3542C7.41468 15.3831 8.21511 16.2449 9.06064 16.9378ZM8.27353 18.8608C7.12256 18.0004 5.89721 16.811 5.10867 15.2612C4.67493 14.4087 4.32902 13.5856 4.1346 12.6766C3.41986 12.6279 2.77065 12.6475 2.26057 12.6865C2.2591 12.6866 2.25763 12.6867 2.25616 12.6868C2.38261 13.1 2.5555 13.6024 2.78199 14.1384C3.37654 15.5454 4.27785 17.0326 5.54231 17.8489C6.39778 18.4012 7.35589 18.7058 8.27353 18.8608ZM15.7264 18.8608C16.644 18.7058 17.6021 18.4012 18.4576 17.8489C19.722 17.0326 20.6233 15.5454 21.2179 14.1384C21.4444 13.6024 21.6173 13.1 21.7437 12.6868C21.7423 12.6867 21.7408 12.6866 21.7393 12.6865C21.2292 12.6475 20.58 12.6279 19.8653 12.6766C19.6709 13.5856 19.325 14.4087 18.8912 15.2612C18.1027 16.811 16.8773 18.0004 15.7264 18.8608Z" fill="currentColor"/>
</svg>
