<svg width="24" height="24" viewBox="0 0 24 24" fill="none" xmlns="http://www.w3.org/2000/svg">
<path fill-rule="evenodd" clip-rule="evenodd" d="M15.3162 2.44871C15.8402 2.27407 16.1233 1.70775 15.9487 1.1838C15.774 0.65986 15.2077 0.376697 14.6838 0.551342L11.6838 1.55133C11.2754 1.68744 11 2.06958 11 2.50001V6.00002H5.51181H5.49058H4C3.44772 6.00002 3 6.44773 3 7.00002C3 7.5523 3.44772 8.00002 4 8.00002H4.59501L5.00386 12.0885C5.00458 12.0967 5.00539 12.1048 5.0063 12.1129L6.00496 22.0995C6.05608 22.6107 6.48625 23 7 23H17C17.5138 23 17.9439 22.6107 17.995 22.0995L18.9937 12.113C18.9946 12.1049 18.9954 12.0967 18.9961 12.0884L19.405 8.00002H20C20.5523 8.00002 21 7.5523 21 7.00002C21 6.44773 20.5523 6.00002 20 6.00002H18.5108H18.4868H13V3.22077L15.3162 2.44871ZM11 8.00002H6.60499L6.90499 11H11V8.00002ZM13 11V8.00002H17.395L17.095 11H13ZM11 13V17C11 17.5523 11.4477 18 12 18C12.5523 18 13 17.5523 13 17V13H16.895L16.095 21H7.90499L7.10499 13H11Z" fill="currentColor"/>
</svg>
