<svg width="24" height="24" viewBox="0 0 24 24" fill="none" xmlns="http://www.w3.org/2000/svg">
<path fill-rule="evenodd" clip-rule="evenodd" d="M10 1.5C9.44772 1.5 9 1.94772 9 2.5C9 3.05228 9.44772 3.5 10 3.5H11V5.04938C5.94668 5.5511 2 9.81465 2 15C2 15.5523 2.44772 16 3 16H21C21.5523 16 22 15.5523 22 15C22 9.81465 18.0533 5.5511 13 5.04938V3.5H14C14.5523 3.5 15 3.05228 15 2.5C15 1.94772 14.5523 1.5 14 1.5H12H10ZM12 7C16.0796 7 19.446 10.0537 19.9381 14H4.06189C4.55399 10.0537 7.92038 7 12 7ZM2 18C1.44772 18 1 18.4477 1 19C1 19.5523 1.44772 20 2 20H22C22.5523 20 23 19.5523 23 19C23 18.4477 22.5523 18 22 18H2Z" fill="currentColor"/>
</svg>
