<svg width="24" height="24" viewBox="0 0 24 24" fill="none" xmlns="http://www.w3.org/2000/svg">
<path fill-rule="evenodd" clip-rule="evenodd" d="M8 2C7.68391 2 7.38643 2.14944 7.19774 2.40303C7.00904 2.65661 6.95135 2.98448 7.04214 3.28725L8 3C7.04214 3.28725 7.04221 3.28748 7.04229 3.28773L7.04247 3.28834L7.04294 3.28989L7.04429 3.29435L7.04867 3.30866L7.06408 3.35795C7.07729 3.39969 7.0964 3.45887 7.12128 3.53301C7.17099 3.68114 7.24405 3.88985 7.33958 4.13911C7.52953 4.63476 7.81351 5.30447 8.18605 5.98188C8.46379 6.48693 8.80503 7.02269 9.21192 7.49925C6.16832 8.63102 4 11.5623 4 15C4 19.4183 7.58172 23 12 23C16.4183 23 20 19.4183 20 15C20 11.5623 17.8317 8.63102 14.7881 7.49925C15.195 7.02269 15.5362 6.48693 15.814 5.98188C16.1865 5.30447 16.4705 4.63476 16.6604 4.13911C16.7559 3.88985 16.829 3.68114 16.8787 3.53301C16.9036 3.45887 16.9227 3.39969 16.9359 3.35795L16.9513 3.30866L16.9557 3.29435L16.9571 3.28989L16.9575 3.28834L16.9577 3.28773C16.9578 3.28748 16.9579 3.28725 16 3L16.9579 3.28725C17.0487 2.98448 16.991 2.65661 16.8023 2.40303C16.6136 2.14944 16.3161 2 16 2H8ZM9.93852 5.01812C9.74746 4.6707 9.58133 4.32045 9.4424 4L14.5576 4C14.4187 4.32045 14.2525 4.6707 14.0615 5.01812C13.7423 5.59859 13.3783 6.12507 12.9903 6.49459C12.6009 6.86544 12.2729 7 12 7C11.7271 7 11.3991 6.86544 11.0097 6.49459C10.6217 6.12507 10.2577 5.59859 9.93852 5.01812ZM6 15C6 11.6863 8.68629 9 12 9C15.3137 9 18 11.6863 18 15C18 18.3137 15.3137 21 12 21C8.68629 21 6 18.3137 6 15Z" fill="currentColor"/>
</svg>
