<svg width="24" height="24" viewBox="0 0 24 24" fill="none" xmlns="http://www.w3.org/2000/svg">
<path fill-rule="evenodd" clip-rule="evenodd" d="M2.24254 3.02985C1.94379 2.95517 1.6273 3.02228 1.38459 3.21179C1.14187 3.4013 1 3.69206 1 3.99999V20C1 20.5523 1.44772 21 2 21C2.55228 21 3 20.5523 3 20V5.28077L21 9.78077V20C21 20.5523 21.4477 21 22 21C22.5523 21 23 20.5523 23 20V8.99999C23 8.54113 22.6877 8.14114 22.2425 8.02985L2.24254 3.02985ZM8.47984 13.2764C8.56453 13.107 8.73766 13 8.92705 13H15.0729C15.2623 13 15.4355 13.107 15.5202 13.2764L16.2318 14.6997C15.2059 14.8649 13.8129 15 12 15C10.1871 15 8.79408 14.8649 7.76816 14.6997L8.47984 13.2764ZM17.309 12.382L18.2324 14.2287L18.2766 14.2133C18.39 14.1732 18.4684 14.1416 18.5137 14.1224C18.5364 14.1128 18.5508 14.1062 18.5573 14.1033L18.5602 14.1019C19.0527 13.8606 19.6487 14.0613 19.8944 14.5528C20.1414 15.0468 19.9412 15.6474 19.4472 15.8944L19.0218 15.0437C19.4472 15.8944 19.4468 15.8946 19.4463 15.8949L19.4454 15.8953L19.4433 15.8963L19.4387 15.8986L19.4273 15.9042C19.4187 15.9083 19.408 15.9133 19.3954 15.9192C19.3701 15.9309 19.3366 15.9458 19.2948 15.9635C19.2174 15.9964 19.1114 16.0387 18.9752 16.0875C18.9917 16.2147 19 16.3432 19 16.4721V20C19 20.5523 18.5523 21 18 21C17.4477 21 17 20.5523 17 20V16.5965C15.8182 16.8154 14.1765 17 12 17C9.82352 17 8.18176 16.8154 7 16.5965V20C7 20.5523 6.55228 21 6 21C5.44772 21 5 20.5523 5 20V16.4721C5 16.3432 5.00831 16.2147 5.02476 16.0875C4.8886 16.0387 4.78257 15.9964 4.70515 15.9635C4.66337 15.9458 4.62994 15.9309 4.60462 15.9192C4.59196 15.9133 4.58133 15.9083 4.5727 15.9042L4.56126 15.8986L4.55665 15.8963L4.55463 15.8953L4.55368 15.8949C4.55323 15.8946 4.55279 15.8944 5 15L4.55279 15.8944C4.05881 15.6474 3.85858 15.0468 4.10557 14.5528C4.35133 14.0613 4.94726 13.8606 5.43982 14.1019L5.43984 14.1019L5.44274 14.1033C5.44916 14.1062 5.46358 14.1128 5.48625 14.1224C5.53159 14.1416 5.60999 14.1732 5.72344 14.2133L5.76763 14.2287L6.69098 12.382C7.11446 11.535 7.98012 11 8.92705 11H15.0729C16.0199 11 16.8855 11.535 17.309 12.382ZM10 18.5C9.44771 18.5 9 18.9477 9 19.5C9 20.0523 9.44771 20.5 10 20.5H14C14.5523 20.5 15 20.0523 15 19.5C15 18.9477 14.5523 18.5 14 18.5H10Z" fill="currentColor"/>
</svg>
