<svg width="24" height="24" viewBox="0 0 24 24" fill="none" xmlns="http://www.w3.org/2000/svg">
<path fill-rule="evenodd" clip-rule="evenodd" d="M12 3C7.02944 3 3.00001 7.02944 3.00001 12C3.00001 13.0488 3.17942 14.0558 3.50922 14.9918C2.86283 15.4834 2.312 15.9485 1.90805 16.3431C1.67077 16.5749 1.45223 16.8131 1.29642 17.0388C1.22107 17.148 1.12773 17.3004 1.06727 17.4808C1.01539 17.6356 0.918894 18.0184 1.14212 18.4158C1.35554 18.7958 1.70929 18.9256 1.9086 18.9685C2.10963 19.0118 2.29831 19.0023 2.43073 18.9879C2.70372 18.9582 3.01221 18.874 3.31733 18.7729C3.83938 18.5999 4.50359 18.3252 5.26808 17.9735C6.91674 19.8301 9.32175 21 12 21C16.9706 21 21 16.9706 21 12C21 10.9286 20.8128 9.90098 20.4693 8.94798C21.1342 8.4524 21.6864 8.00686 22.0862 7.63517C22.3238 7.41424 22.5464 7.18406 22.7049 6.9602C22.782 6.85129 22.8799 6.69448 22.9407 6.504C22.9993 6.32019 23.0675 5.95729 22.8579 5.58416C22.6229 5.1659 22.2157 5.05988 22.0797 5.03063C21.898 4.99151 21.7198 4.99081 21.5819 4.99789C21.2962 5.01257 20.9615 5.07432 20.6161 5.16085C20.0418 5.30472 19.3373 5.54285 18.5856 5.8656C16.9426 4.10254 14.6001 3 12 3ZM17.9426 8.29886C16.7063 6.31798 14.5071 5 12 5C8.13401 5 5.00001 8.13401 5.00001 12C5.00001 13.2526 5.32902 14.4284 5.90534 15.4456C7.62695 14.5817 9.74762 13.418 12.0138 12.0732C14.2956 10.719 16.349 9.40434 17.9426 8.29886ZM7.15674 17.054C8.41419 18.2593 10.1206 19 12 19C15.866 19 19 15.866 19 12C19 11.3655 18.9156 10.7508 18.7574 10.1663C17.1669 11.2559 15.1947 12.5111 13.0345 13.7931C10.891 15.0651 8.86208 16.1857 7.15674 17.054ZM21.0799 5.79347C21.08 5.79345 21.0791 5.79506 21.0768 5.79836C21.0787 5.79514 21.0799 5.79349 21.0799 5.79347ZM2.20355 17.0005C2.20361 17.0004 2.20577 17.0002 2.20983 17.0001C2.20552 17.0005 2.20349 17.0006 2.20355 17.0005ZM2.93284 18.1894L2.93062 18.1931C2.93057 18.1931 2.93126 18.1919 2.93284 18.1894Z" fill="currentColor"/>
</svg>
