<svg width="24" height="24" viewBox="0 0 24 24" fill="none" xmlns="http://www.w3.org/2000/svg">
<path fill-rule="evenodd" clip-rule="evenodd" d="M8 2C5.79086 2 4 3.79086 4 6V8C2.34315 8 1 9.34315 1 11V18C1 18.5523 1.44772 19 2 19H6.38197L5.60557 20.5528C5.35858 21.0468 5.55881 21.6474 6.05279 21.8944C6.54676 22.1414 7.14744 21.9412 7.39443 21.4472L8.61803 19H15.382L16.6056 21.4472C16.8526 21.9412 17.4532 22.1414 17.9472 21.8944C18.4412 21.6474 18.6414 21.0468 18.3944 20.5528L17.618 19H22C22.5523 19 23 18.5523 23 18V11C23 9.34315 21.6569 8 20 8V6C20 3.79086 18.2091 2 16 2H8ZM18 8.76389V6C18 4.89543 17.1046 4 16 4H8C6.89543 4 6 4.89543 6 6V8.5C6 8.58222 5.99008 8.66213 5.97136 8.73859C6.60171 9.28854 7 10.0978 7 11V13H17V11C17 10.1115 17.3863 9.31321 18 8.76389ZM3 11C3 10.4477 3.44772 10 4 10C4.55228 10 5 10.4477 5 11V14C5 14.5523 5.44772 15 6 15H18C18.5523 15 19 14.5523 19 14V11C19 10.4477 19.4477 10 20 10C20.5523 10 21 10.4477 21 11V17H16H8H3V11Z" fill="currentColor"/>
</svg>
