<svg width="24" height="24" viewBox="0 0 24 24" fill="none" xmlns="http://www.w3.org/2000/svg">
<path fill-rule="evenodd" clip-rule="evenodd" d="M5 3C3.89543 3 3 3.89543 3 5V19H2.5C1.94772 19 1.5 19.4477 1.5 20C1.5 20.5523 1.94772 21 2.5 21H4H14H21.5C22.0523 21 22.5 20.5523 22.5 20C22.5 19.4477 22.0523 19 21.5 19H15V12.5H16.5V14.75C16.5 16.2688 17.7312 17.5 19.25 17.5C20.7688 17.5 22 16.2688 22 14.75V7C22 6.62123 21.786 6.27496 21.4472 6.10557L19.4472 5.10557C18.9532 4.85858 18.3526 5.05881 18.1056 5.55279C17.8586 6.04676 18.0588 6.64744 18.5528 6.89443L20 7.61803V14.75C20 15.1642 19.6642 15.5 19.25 15.5C18.8358 15.5 18.5 15.1642 18.5 14.75V11.5C18.5 10.9477 18.0523 10.5 17.5 10.5H15V5C15 3.89543 14.1046 3 13 3H5ZM13 19H5V5H13V19ZM8 8C7.44772 8 7 8.44772 7 9C7 9.55228 7.44772 10 8 10H10C10.5523 10 11 9.55228 11 9C11 8.44772 10.5523 8 10 8H8Z" fill="currentColor"/>
</svg>
