<svg width="24" height="24" viewBox="0 0 24 24" fill="none" xmlns="http://www.w3.org/2000/svg">
<path fill-rule="evenodd" clip-rule="evenodd" d="M6.5 2C4.01472 2 2 4.01472 2 6.5C2 8.41774 3.19962 10.0553 4.88939 10.7032L4.10238 16.2123C3.44857 16.5412 3 17.2182 3 18V21C3 21.5523 3.44772 22 4 22H12C12.5523 22 13 21.5523 13 21V19C13 17.6938 12.1652 16.5825 11 16.1707V13.5V11H12V13C12 13.5523 12.4477 14 13 14C13.5523 14 14 13.5523 14 13V11H16C17.6569 11 19 9.65685 19 8V7.5H22.5C23.0523 7.5 23.5 7.05228 23.5 6.5C23.5 5.94772 23.0523 5.5 22.5 5.5H19V5C19 3.34315 17.6569 2 16 2H14H6.5ZM9 13.5V16H6.15301L6.8673 11H9V13.5ZM6.5 4H13V9H6.5C5.11929 9 4 7.88071 4 6.5C4 5.11929 5.11929 4 6.5 4ZM16 9H15V4H16C16.5523 4 17 4.44772 17 5V8C17 8.55228 16.5523 9 16 9ZM10 18H5V20H11V19C11 18.4477 10.5523 18 10 18Z" fill="currentColor"/>
</svg>
