<svg width="24" height="24" viewBox="0 0 24 24" fill="none" xmlns="http://www.w3.org/2000/svg">
<path fill-rule="evenodd" clip-rule="evenodd" d="M9 2C7.89544 2 7 2.89543 7 4V6H3C2.71624 6 2.44585 6.12055 2.25619 6.33162C2.06653 6.54268 1.97547 6.82439 2.0057 7.10653L3.5057 21.1065C3.56014 21.6147 3.98896 22 4.5 22H19.5C20.0111 22 20.4399 21.6147 20.4943 21.1065L21.9943 7.10653C22.0245 6.82439 21.9335 6.54268 21.7438 6.33162C21.5542 6.12055 21.2838 6 21 6H17V4C17 2.89543 16.1046 2 15 2H9ZM15 6V4H9V6H15ZM8 8H4.11287L5.39859 20H18.6014L19.8871 8H16H8Z" fill="currentColor"/>
</svg>
