<svg width="24" height="24" viewBox="0 0 24 24" fill="none" xmlns="http://www.w3.org/2000/svg">
<path fill-rule="evenodd" clip-rule="evenodd" d="M9.94162 3.8972C9.94067 3.89766 9.94065 3.89766 9.94153 3.89724L9.94158 3.89722C9.44868 4.13989 8.85162 3.93931 8.60557 3.44721C8.35858 2.95323 8.55881 2.35256 9.05279 2.10557L9.5 3C9.05279 2.10557 9.05305 2.10544 9.05332 2.1053L9.05388 2.10503L9.05507 2.10443L9.05774 2.10311L9.06421 2.09993L9.08166 2.09152C9.09529 2.08504 9.11288 2.07683 9.13431 2.06714C9.17717 2.04779 9.2355 2.02252 9.3083 1.9934C9.45374 1.93522 9.65794 1.86129 9.91278 1.78848C10.4213 1.64318 11.1398 1.5 12 1.5C12.7493 1.5 13.4677 1.64712 13.9795 1.78389C14.2399 1.85346 14.4573 1.9232 14.6117 1.97634C14.689 2.00297 14.7511 2.02562 14.7954 2.04224C14.8176 2.05056 14.8354 2.05739 14.8484 2.06247L14.8645 2.06876L14.8698 2.07087L14.8717 2.07166L14.8725 2.07198L14.8729 2.07213C14.8731 2.07219 14.8732 2.07226 14.5 3L14.8732 2.07226C15.3856 2.27839 15.6339 2.86085 15.4277 3.37323C15.2218 3.88506 14.6404 4.13334 14.1284 3.92839L14.1278 3.92816L14.1276 3.92808L14.1274 3.92797L14.1272 3.9279L14.1231 3.9263L14.0929 3.91479C14.0643 3.90407 14.0194 3.88765 13.9606 3.86741C13.8427 3.8268 13.6708 3.77154 13.4633 3.71611C13.0395 3.60288 12.5079 3.5 12 3.5C11.3602 3.5 10.8287 3.60682 10.4622 3.71152C10.2796 3.76371 10.14 3.81478 10.0511 3.85035C10.0067 3.86811 9.97518 3.8819 9.95749 3.88989L9.94162 3.8972ZM6.47974 7.27639C6.56444 7.107 6.73757 7 6.92695 7H17.0729C17.2622 7 17.4354 7.107 17.5201 7.27639L19.2061 10.6485C17.507 10.8386 15.1396 11 11.9999 11C8.86019 11 6.49283 10.8386 4.79368 10.6485L6.47974 7.27639ZM2.70507 10.3536L4.69089 6.38197C5.11437 5.53501 5.98002 5 6.92695 5H17.0729C18.0198 5 18.8854 5.53501 19.3089 6.38197L21.2947 10.3536C21.6584 10.2893 21.9477 10.2298 22.1669 10.1806C22.362 10.1367 22.5016 10.1011 22.5889 10.0775C22.6325 10.0658 22.663 10.057 22.6809 10.0518L22.6973 10.0469L22.6974 10.0469C23.2235 9.87987 23.7854 10.1707 23.9528 10.6968C24.1203 11.2231 23.8294 11.7855 23.3031 11.9529L22.9999 11C23.3031 11.9529 23.3028 11.953 23.3024 11.9532L23.3016 11.9534L23.2998 11.954L23.2954 11.9553L23.2831 11.9591L23.2445 11.9707C23.2125 11.9801 23.1678 11.9928 23.1102 12.0084C22.9948 12.0395 22.8275 12.082 22.6052 12.1319C22.434 12.1704 22.2302 12.2133 21.9923 12.2588C21.9974 12.3297 21.9999 12.4008 21.9999 12.4721V21C21.9999 21.5523 21.5522 22 20.9999 22H16.9999C16.4476 22 15.9999 21.5523 15.9999 21V19.5H7.9999V21C7.9999 21.5523 7.55219 22 6.9999 22H2.9999C2.44762 22 1.9999 21.5523 1.9999 21V12.4721C1.9999 12.4008 2.00244 12.3297 2.0075 12.2588C1.76964 12.2133 1.56581 12.1704 1.3946 12.1319C1.17226 12.082 1.00496 12.0395 0.889652 12.0084C0.831999 11.9928 0.787346 11.9801 0.755313 11.9707L0.716683 11.9591L0.704378 11.9553L0.699962 11.954L0.698187 11.9534L0.697407 11.9532C0.697047 11.953 0.696699 11.9529 0.999902 11L1.30311 10.0471L1.30247 10.0469C1.30278 10.047 1.30311 10.0471 0.999902 11L0.696699 11.9529C0.170412 11.7855 -0.120478 11.2231 0.0469766 10.6968C0.214211 10.1712 0.775341 9.88039 1.30103 10.0464L1.301 10.0464L1.30004 10.0461C1.2998 10.046 1.30032 10.0462 1.30163 10.0466L1.31892 10.0518C1.33676 10.057 1.3673 10.0658 1.41093 10.0775C1.49819 10.1011 1.63781 10.1367 1.83288 10.1806C2.05211 10.2298 2.34137 10.2893 2.70507 10.3536ZM19.9999 12.5683V20H17.9999V18.5C17.9999 17.9477 17.5522 17.5 16.9999 17.5H6.9999C6.44762 17.5 5.9999 17.9477 5.9999 18.5V20H3.9999V12.5683C5.81409 12.7962 8.43359 13 11.9999 13C15.5662 13 18.1857 12.7962 19.9999 12.5683ZM9 15.5C9 14.9477 9.44771 14.5 10 14.5H14C14.5523 14.5 15 14.9477 15 15.5C15 16.0523 14.5523 16.5 14 16.5H10C9.44771 16.5 9 16.0523 9 15.5ZM6 14.5C5.44772 14.5 5 14.9477 5 15.5C5 16.0523 5.44772 16.5 6 16.5H7C7.55228 16.5 8 16.0523 8 15.5C8 14.9477 7.55228 14.5 7 14.5H6ZM16 15.5C16 14.9477 16.4477 14.5 17 14.5H18C18.5523 14.5 19 14.9477 19 15.5C19 16.0523 18.5523 16.5 18 16.5H17C16.4477 16.5 16 16.0523 16 15.5Z" fill="currentColor"/>
</svg>
