<svg width="24" height="24" viewBox="0 0 24 24" fill="none" xmlns="http://www.w3.org/2000/svg">
<path fill-rule="evenodd" clip-rule="evenodd" d="M5.98827 17.0223C2.98393 14.0303 2.24426 9.63652 3.77182 5.95462H5.32726C5.70448 7.13833 6.18885 8.4768 6.78149 9.76375C7.49034 11.303 8.38568 12.8392 9.49025 13.9393C11.5313 15.9719 14.3592 17.1609 17.1117 17.9049V19.2306C13.4102 20.7537 8.99356 20.0152 5.98827 17.0223ZM10.9015 12.5221C10.0554 11.6795 9.28877 10.4158 8.62604 8.98756C9.181 9.47061 9.79814 9.93641 10.4775 10.3527C13.0508 11.9293 16.4191 12.2881 19.2522 12.2901L19.3489 13.5216C17.8178 14.4648 15.7566 14.9134 13.7592 14.5318C12.679 13.983 11.7049 13.3221 10.9015 12.5221ZM19.4037 16.3959C19.0588 16.3237 18.7126 16.246 18.3666 16.162C19.3271 15.8466 20.2166 15.3934 20.9832 14.8305C21.5266 14.4316 22.0366 13.9753 22.501 13.4605C23.0963 12.8005 23.1225 11.9407 22.77 11.288C22.4286 10.6558 21.7322 10.2091 20.9096 10.25C20.6599 10.2625 20.4066 10.2722 20.1506 10.2787C17.196 10.3537 13.8581 10.0784 11.5224 8.64733C9.9192 7.66503 8.68822 6.33179 7.85113 5.2235C7.43506 4.67264 7.12275 4.18594 6.91614 3.84016C6.81298 3.66751 6.73657 3.53066 6.68713 3.43935C6.67428 3.41562 6.66326 3.39498 6.65408 3.3776C6.42533 2.69195 5.86994 2.21636 5.23979 2.05814C4.5541 1.88599 3.75739 2.09177 3.26168 2.78374C2.86501 3.33746 2.52039 3.91705 2.22794 4.51567C0.012662 9.0502 0.794686 14.6727 4.57698 18.4394C8.3583 22.2052 13.9991 22.982 18.5478 20.7781C19.1178 20.5019 19.6707 20.1789 20.2007 19.8092C20.9106 19.3139 21.1276 18.5022 20.9298 17.7985C20.739 17.1196 20.1743 16.5572 19.4037 16.3959ZM5.97895 10.796C5.86631 10.2554 5.33669 9.90838 4.79602 10.021C4.25534 10.1337 3.90835 10.6633 4.02099 11.204C4.27545 12.4254 5.13399 13.946 6.19102 15.2536C7.25238 16.5667 8.65304 17.8383 10.1286 18.4285C10.6414 18.6336 11.2233 18.3842 11.4284 17.8714C11.6336 17.3586 11.3841 16.7766 10.8714 16.5715C9.8469 16.1617 8.7059 15.1833 7.74642 13.9964C6.78262 12.804 6.14116 11.5746 5.97895 10.796Z" fill="currentColor"/>
</svg>
