<svg width="24" height="24" viewBox="0 0 24 24" fill="none" xmlns="http://www.w3.org/2000/svg">
<path fill-rule="evenodd" clip-rule="evenodd" d="M4.99988 4C4.56422 4 4.23162 4.38923 4.29957 4.81956L4.86379 8.39299C5.14604 10.1806 6.68568 11.4976 8.49493 11.5L8.49988 11.5L8.50483 11.5C10.3141 11.4976 11.8537 10.1806 12.136 8.39299L12.7002 4.81956C12.7681 4.38923 12.4355 4 11.9999 4C11.4476 4 10.9999 3.55228 10.9999 3C10.9999 2.44772 11.4476 2 11.9999 2C13.6645 2 14.9353 3.48723 14.6757 5.13149L14.1115 8.70491C13.7286 11.13 11.8462 12.9939 9.49988 13.4119V16.5C9.49988 18.7091 11.2907 20.5 13.4999 20.5C15.709 20.5 17.4999 18.7091 17.4999 16.5V16.3551C16.0541 15.9248 14.9999 14.5855 14.9999 13C14.9999 11.067 16.5669 9.5 18.4999 9.5C20.4329 9.5 21.9999 11.067 21.9999 13C21.9999 14.5855 20.9456 15.9248 19.4999 16.3551V16.5C19.4999 19.8137 16.8136 22.5 13.4999 22.5C10.1862 22.5 7.49988 19.8137 7.49988 16.5V13.4119C5.15352 12.9939 3.27117 11.13 2.88827 8.70491L2.32404 5.13149C2.06442 3.48723 3.33526 2 4.99988 2C5.55216 2 5.99988 2.44772 5.99988 3C5.99988 3.55228 5.55216 4 4.99988 4ZM18.5042 14.5C19.3307 14.4977 19.9999 13.827 19.9999 13C19.9999 12.1716 19.3283 11.5 18.4999 11.5C17.6715 11.5 16.9999 12.1716 16.9999 13C16.9999 13.827 17.6691 14.4977 18.4956 14.5C18.497 14.5 18.4984 14.5 18.4999 14.5C18.5013 14.5 18.5028 14.5 18.5042 14.5Z" fill="currentColor"/>
</svg>
