<svg width="24" height="24" viewBox="0 0 24 24" fill="none" xmlns="http://www.w3.org/2000/svg">
<path fill-rule="evenodd" clip-rule="evenodd" d="M4.84994 6.5269C5.40474 5.63197 6.46491 5 7.71327 5C9.59483 5 11 6.40723 11 8V8.99963C10.1644 8.37194 9.12562 8 8.00002 8C5.23859 8 3.00002 10.2386 3.00002 13C3.00002 13.5523 3.44773 14 4.00002 14C4.5523 14 5.00002 13.5523 5.00002 13C5.00002 11.3431 6.34316 10 8.00002 10C9.65687 10 11 11.3431 11 13V19H6.00002C5.44773 19 5.00002 19.4477 5.00002 20C5.00002 20.5523 5.44773 21 6.00002 21H12H18C18.5523 21 19 20.5523 19 20C19 19.4477 18.5523 19 18 19H13V13C13 11.3431 14.3432 10 16 10C17.6569 10 19 11.3431 19 13C19 13.5523 19.4477 14 20 14C20.5523 14 21 13.5523 21 13C21 10.2386 18.7614 8 16 8C14.8744 8 13.8357 8.37195 13 8.99964V8C13 6.40723 14.4052 5 16.2868 5C17.5351 5 18.5953 5.63197 19.1501 6.5269C19.4411 6.9963 20.0575 7.14093 20.5269 6.84993C20.9963 6.55893 21.1409 5.9425 20.8499 5.4731C19.9223 3.97682 18.2118 3 16.2868 3C14.5516 3 12.9718 3.80409 12 5.06969C11.0283 3.80409 9.44845 3 7.71327 3C5.78823 3 4.07769 3.97682 3.15009 5.4731C2.85909 5.9425 3.00371 6.55893 3.47311 6.84993C3.94252 7.14093 4.55894 6.9963 4.84994 6.5269Z" fill="currentColor"/>
</svg>
