<svg width="24" height="24" viewBox="0 0 24 24" fill="none" xmlns="http://www.w3.org/2000/svg">
<path fill-rule="evenodd" clip-rule="evenodd" d="M11 18C11 18.5523 11.4477 19 12 19C12.5523 19 13 18.5523 13 18V12H16.8544L15.6271 21H8.37289L7.14562 12H11V18ZM13 10H16.8505C16.39 8.43916 14.9087 6.98704 13 6.60023V10ZM11 6.60023V10H7.14952C7.60995 8.43916 9.09134 6.98704 11 6.60023ZM11 4.57222C8.01255 5.00561 5.5894 7.33269 5.09313 10H5C4.44772 10 4 10.4477 4 11C4 11.5523 4.44772 12 5 12H5.12711L6.39123 21.2702C6.52636 22.2612 7.37275 23 8.37289 23H15.6271C16.6273 23 17.4736 22.2612 17.6088 21.2702L18.8729 12H19C19.5523 12 20 11.5523 20 11C20 10.4477 19.5523 10 19 10H18.9069C18.4106 7.33269 15.9874 5.00561 13 4.57222V3.61804L14.4472 2.89443C14.9412 2.64744 15.1414 2.04677 14.8944 1.55279C14.6474 1.05881 14.0468 0.858589 13.5528 1.10558L11.5528 2.10558C11.214 2.27497 11 2.62123 11 3.00001V4.57222Z" fill="currentColor"/>
</svg>
