<svg width="24" height="24" viewBox="0 0 24 24" fill="none" xmlns="http://www.w3.org/2000/svg">
<path fill-rule="evenodd" clip-rule="evenodd" d="M7.57143 3C7.11105 3 6.71016 3.31431 6.60031 3.76138L4.45305 12.5002C1.98939 12.5254 0 14.5304 0 17C0 19.4853 2.01472 21.5 4.5 21.5C6.64159 21.5 8.43376 20.004 8.88849 18H14.1115C14.5662 20.004 16.3584 21.5 18.5 21.5C20.6416 21.5 22.4338 20.004 22.8885 18H23C23.3466 18 23.6684 17.8205 23.8507 17.5257C24.0329 17.2309 24.0494 16.8628 23.8944 16.5528L21.618 12H23C23.5523 12 24 11.5523 24 11C24 10.4477 23.5523 10 23 10H18.7639H14.0616H14C13.9715 10 13.9432 10.0012 13.9153 10.0035C12.6007 10.0672 11.4731 10.9844 11.1511 12.2724L10.9618 13.0299C10.696 14.0928 10.8807 15.1417 11.3777 16H8.88849C8.57863 14.6345 7.64778 13.5048 6.40852 12.9236L8.35546 5H11.5C12.0523 5 12.5 4.55228 12.5 4C12.5 3.44772 12.0523 3 11.5 3H7.57143ZM20.792 18H18.5H16.208C16.5938 18.883 17.4748 19.5 18.5 19.5C19.5252 19.5 20.4062 18.883 20.792 18ZM15 16H18.5H21.382L19.6584 12.5528C19.489 12.214 19.1427 12 18.7639 12H14.0616C13.6027 12 13.2027 12.3123 13.0914 12.7575L12.902 13.5149C12.5865 14.7772 13.5412 16 14.8423 16H15ZM2 17C2 15.8095 2.83218 14.8133 3.94658 14.5615L3.52888 16.2614C3.3971 16.7977 3.72505 17.3393 4.26138 17.4711C4.79771 17.6029 5.33933 17.2749 5.47111 16.7386L5.91361 14.9377C6.56971 15.3883 7 16.1439 7 17C7 18.3807 5.88071 19.5 4.5 19.5C3.11929 19.5 2 18.3807 2 17Z" fill="currentColor"/>
</svg>
