<svg width="24" height="24" viewBox="0 0 24 24" fill="none" xmlns="http://www.w3.org/2000/svg">
<path fill-rule="evenodd" clip-rule="evenodd" d="M19 12.0001L5 12.0001L5 14.0001L10 14.0001C10.5523 14.0001 11 14.4479 11 15.0001V20.5001C11 21.0524 11.4477 21.5001 12 21.5001C12.5523 21.5001 13 21.0524 13 20.5001V15.0001C13 14.4479 13.4477 14.0001 14 14.0001L19 14.0001V12.0001ZM20.3342 10.3767C20.357 10.4374 20.3745 10.4984 20.3871 10.5593C20.7649 10.9232 21 11.4342 21 12.0001V14.0001C21 15.1047 20.1046 16.0001 19 16.0001H15V20.5001C15 22.157 13.6569 23.5001 12 23.5001C10.3431 23.5001 9 22.157 9 20.5001L9 16.0001L5 16.0001C3.89543 16.0001 3 15.1047 3 14.0001V12.0001C3 11.488 3.19253 11.0207 3.50917 10.6669C3.50311 10.6122 3.5 10.5565 3.5 10.5001L3.5 3.00014C3.5 2.73492 3.60536 2.48057 3.79289 2.29303C3.98043 2.10549 4.23478 2.00014 4.5 2.00014L16.4817 2.00014C16.506 1.99974 16.5303 2.00022 16.5547 2.00161C17.0815 2.03 17.5 2.4662 17.5 3.00014C17.5 3.22024 17.4289 3.42373 17.3084 3.58889L17.1093 3.90748C16.4942 4.8916 16.1196 5.98779 15.9938 7.11137C15.9324 7.66023 15.4376 8.05536 14.8888 7.99393C14.3399 7.93249 13.9448 7.43775 14.0062 6.8889C14.1172 5.89697 14.3821 4.92175 14.7971 4.00014L5.5 4.00014L5.5 10.0001L18.1319 10.0001C17.5722 7.65508 17.9678 5.16485 19.262 3.09412L19.652 2.47014C19.9447 2.0018 20.5617 1.85943 21.03 2.15214C21.4983 2.44485 21.6407 3.0618 21.348 3.53013L20.958 4.15411C19.793 6.01818 19.5624 8.31845 20.3342 10.3767Z" fill="currentColor"/>
</svg>
