<svg width="24" height="24" viewBox="0 0 24 24" fill="none" xmlns="http://www.w3.org/2000/svg">
<path fill-rule="evenodd" clip-rule="evenodd" d="M9.79543 2.57812C9.57002 2.09345 9.00104 1.87051 8.5048 2.07695L1.61591 4.94271C1.24298 5.09785 1 5.4621 1 5.866V11.3826C1 11.7235 1.17368 12.0409 1.46078 12.2248C1.74789 12.4086 2.10887 12.4335 2.41849 12.2908L4 11.5621V18.0002V21.0002C4 21.5525 4.44772 22.0002 5 22.0002C5.55228 22.0002 6 21.5525 6 21.0002V19.0002H8.5V21.0002C8.5 21.5525 8.94772 22.0002 9.5 22.0002C10.0523 22.0002 10.5 21.5525 10.5 21.0002V19.0002H13.5V21.0002C13.5 21.5525 13.9477 22.0002 14.5 22.0002C15.0523 22.0002 15.5 21.5525 15.5 21.0002V19.0002H18V21.0002C18 21.5525 18.4477 22.0002 19 22.0002C19.5523 22.0002 20 21.5525 20 21.0002V18.0002V11.5621L21.5815 12.2908C21.8911 12.4335 22.2521 12.4086 22.5392 12.2248C22.8263 12.0409 23 11.7235 23 11.3826V5.866C23 5.4621 22.757 5.09785 22.3841 4.94271L15.4952 2.07695C14.999 1.87051 14.43 2.09346 14.2046 2.57814C14.2041 2.57891 14.2036 2.57985 14.203 2.58094C14.1968 2.59217 14.1813 2.61892 14.1547 2.65636C14.1016 2.73127 14.006 2.84703 13.8539 2.96819C13.5644 3.19889 13.0075 3.50024 12 3.50024C10.9925 3.50024 10.4356 3.19889 10.1461 2.96819C9.99404 2.84703 9.89836 2.73127 9.84526 2.65636C9.81873 2.61892 9.80318 2.59217 9.79697 2.58094C9.79637 2.57984 9.79586 2.5789 9.79543 2.57812ZM18 17.0002V10.0002C18 9.65933 18.1737 9.3419 18.4608 9.15808C18.7479 8.97425 19.1089 8.94935 19.4185 9.09202L21 9.82076V6.53308L15.4442 4.22187C15.3448 4.32358 15.2307 4.42839 15.1003 4.5323C14.4487 5.05159 13.45 5.50024 12 5.50024C10.55 5.50024 9.55132 5.05159 8.89966 4.5323C8.76927 4.42839 8.65517 4.32358 8.55584 4.22187L3 6.53308V9.82076L4.58151 9.09202C4.89113 8.94935 5.25211 8.97425 5.53922 9.15808C5.82632 9.3419 6 9.65933 6 10.0002V17.0002H9.5H14.5H18Z" fill="currentColor"/>
</svg>
