<svg width="24" height="24" viewBox="0 0 24 24" fill="none" xmlns="http://www.w3.org/2000/svg">
<path fill-rule="evenodd" clip-rule="evenodd" d="M7 2.00003C6.44772 2.00003 6 2.44775 6 3.00003C6 3.55232 6.44772 4.00003 7 4.00003H11V5.50003H4C3.63121 5.50003 3.29235 5.70302 3.11833 6.02817C2.94431 6.35333 2.96338 6.74787 3.16795 7.05473L5 9.80281L5 20C4.44772 20 4 20.4477 4 21C4 21.5523 4.44772 22 5 22H6H18H19C19.5523 22 20 21.5523 20 21C20 20.4477 19.5523 20 19 20V17H21C22.1046 17 23 16.1046 23 15V11C23 9.89546 22.1046 9.00003 21 9.00003H19V6.50003C19 5.94775 18.5523 5.50003 18 5.50003H13V4.00003H17C17.5523 4.00003 18 3.55232 18 3.00003C18 2.44775 17.5523 2.00003 17 2.00003H12H7ZM11 7.50003H5.86852L6.83205 8.94533C6.94156 9.1096 7 9.30261 7 9.50003V20H17V16V10V7.50003H13V15H15C15.5523 15 16 15.4477 16 16C16 16.5523 15.5523 17 15 17H9C8.44772 17 8 16.5523 8 16C8 15.4477 8.44772 15 9 15H11V7.50003ZM19 11L19 15H21V11H19Z" fill="currentColor"/>
</svg>
