<svg width="24" height="24" viewBox="0 0 24 24" fill="none" xmlns="http://www.w3.org/2000/svg">
<path fill-rule="evenodd" clip-rule="evenodd" d="M9 2C9.55228 2 10 2.44772 10 3V5H14V3C14 2.44772 14.4477 2 15 2C15.5523 2 16 2.44772 16 3V5H17C17.5523 5 18 5.44772 18 6V10C18 12.973 15.8377 15.441 13 15.917V22C13 22.5523 12.5523 23 12 23C11.4477 23 11 22.5523 11 22V15.917C8.16229 15.441 6 12.973 6 10V6C6 5.44772 6.44772 5 7 5H8V3C8 2.44772 8.44772 2 9 2ZM15 7H9H8V10C8 12.2091 9.79086 14 12 14C14.2091 14 16 12.2091 16 10V7H15Z" fill="currentColor"/>
</svg>
