<svg width="24" height="24" viewBox="0 0 24 24" fill="none" xmlns="http://www.w3.org/2000/svg">
<path fill-rule="evenodd" clip-rule="evenodd" d="M6.87521 4.2177C7.22125 4.07763 7.60032 4 8 4C9.65685 4 11 5.34315 11 7V7.99963C10.1643 7.37194 9.12561 7 8 7C7.44772 7 7 7.44772 7 8C7 8.55228 7.44772 9 8 9C9.4865 9 10.7205 10.0811 10.9585 11.5H4.5H3C2.44772 11.5 2 11.9477 2 12.5C2 13.0523 2.44772 13.5 3 13.5H3.65386C4.02074 14.6841 5.00368 15.699 6.16644 16.4263C7.44168 17.2238 9.09039 17.7874 10.9089 17.9511C10.8136 18.39 10.6468 18.7242 10.4245 18.9867C10.0582 19.4191 9.42343 19.7955 8.30388 20.0194C7.79974 20.1202 7.45421 20.5869 7.50487 21.0985C7.55553 21.6102 7.98588 22 8.5 22H15.5C16.0141 22 16.4445 21.6102 16.4951 21.0985C16.5458 20.5869 16.2003 20.1202 15.6961 20.0194C14.5766 19.7955 13.9418 19.4191 13.5755 18.9867C13.3532 18.7242 13.1864 18.39 13.0911 17.9511C14.9096 17.7874 16.5583 17.2238 17.8336 16.4263C18.9963 15.699 19.9793 14.6841 20.3461 13.5H21C21.5523 13.5 22 13.0523 22 12.5C22 11.9477 21.5523 11.5 21 11.5H19.5H13.0415C13.2795 10.0811 14.5135 9 16 9C16.5523 9 17 8.55228 17 8C17 7.44772 16.5523 7 16 7C14.8744 7 13.8357 7.37194 13 7.99963V7C13 5.34315 14.3431 4 16 4C16.3997 4 16.7788 4.07763 17.1248 4.2177C17.6367 4.42492 18.2197 4.17791 18.4269 3.66597C18.6342 3.15404 18.3871 2.57105 17.8752 2.36382C17.2948 2.12888 16.6612 2 16 2C14.3644 2 12.9122 2.78534 12 3.99952C11.0878 2.78534 9.6356 2 8 2C7.33878 2 6.70519 2.12888 6.12479 2.36382C5.61285 2.57105 5.36584 3.15404 5.57306 3.66597C5.78029 4.17791 6.36328 4.42492 6.87521 4.2177ZM18.1348 13.5H12H5.86522C6.14061 13.9008 6.58254 14.3275 7.22696 14.7306C8.41539 15.4739 10.1045 16 12 16C13.8955 16 15.5846 15.4739 16.773 14.7306C17.4175 14.3275 17.8594 13.9008 18.1348 13.5ZM5.2177 5.87521C5.42492 5.36328 5.17791 4.78029 4.66597 4.57306C4.15404 4.36584 3.57105 4.61285 3.36382 5.12479C3.12888 5.70519 3 6.33878 3 7C3 7.55228 3.44772 8 4 8C4.55228 8 5 7.55228 5 7C5 6.60032 5.07763 6.22125 5.2177 5.87521ZM18.7823 5.87521C18.5751 5.36328 18.8221 4.78029 19.334 4.57306C19.846 4.36584 20.429 4.61285 20.6362 5.12479C20.8711 5.70519 21 6.33878 21 7C21 7.55228 20.5523 8 20 8C19.4477 8 19 7.55228 19 7C19 6.60032 18.9224 6.22125 18.7823 5.87521Z" fill="currentColor"/>
</svg>
