<svg width="24" height="24" viewBox="0 0 24 24" fill="none" xmlns="http://www.w3.org/2000/svg">
<path fill-rule="evenodd" clip-rule="evenodd" d="M2 11.5C2 5.97715 6.47715 1.5 12 1.5C17.5228 1.5 22 5.97715 22 11.5V14.5V17V17.5V19.5C22 21.1569 20.6569 22.5 19 22.5C18.2204 22.5 17.5103 22.2026 16.9768 21.7151C16.8784 22.164 16.4784 22.5 16 22.5C15.4477 22.5 15 22.0523 15 21.5V12.5C15 11.9477 15.4477 11.5 16 11.5C16.4784 11.5 16.8784 11.836 16.9768 12.2849C17.5103 11.7974 18.2204 11.5 19 11.5C19.3506 11.5 19.6872 11.5602 20 11.6707V11.5C20 7.08172 16.4183 3.5 12 3.5C7.58172 3.5 4 7.08172 4 11.5V11.6707C4.31278 11.5602 4.64936 11.5 5 11.5C5.7796 11.5 6.48975 11.7974 7.0232 12.2849C7.12161 11.836 7.52157 11.5 8 11.5C8.55228 11.5 9 11.9477 9 12.5V21.5C9 22.0523 8.55228 22.5 8 22.5C7.52157 22.5 7.12161 22.164 7.0232 21.7151C6.48975 22.2026 5.7796 22.5 5 22.5C3.34315 22.5 2 21.1569 2 19.5V17.5V14.5V11.5ZM20 14.5C20 13.9477 19.5523 13.5 19 13.5C18.4477 13.5 18 13.9477 18 14.5V19.5C18 20.0523 18.4477 20.5 19 20.5C19.5523 20.5 20 20.0523 20 19.5V17.5V17V14.5ZM4 17.5V14.5C4 13.9477 4.44772 13.5 5 13.5C5.55228 13.5 6 13.9477 6 14.5V19.5C6 20.0523 5.55228 20.5 5 20.5C4.44772 20.5 4 20.0523 4 19.5V17.5Z" fill="currentColor"/>
</svg>
