<svg width="24" height="24" viewBox="0 0 24 24" fill="none" xmlns="http://www.w3.org/2000/svg">
<path fill-rule="evenodd" clip-rule="evenodd" d="M9.54547 4.5C7.37648 4.5 5.63638 6.2369 5.63638 8.35714C5.63638 9.68175 6.42838 10.9489 7.53796 11.657C7.89365 11.884 8.06859 12.3098 7.97521 12.7213C7.88182 13.1328 7.54021 13.4414 7.12138 13.4926C5.27978 13.7178 4.00002 15.0446 4.00002 16.4524C4.00002 18.0385 5.46473 19.5 7.50002 19.5H17C19.0353 19.5 20.5 18.0385 20.5 16.4524C20.5 15.4708 20.3235 14.6129 19.8874 13.7293C19.5554 13.0567 19.0609 12.3448 18.3389 11.5397L18.2716 11.6354C17.8467 12.2398 17.4709 12.7958 17.3925 12.951C17.2224 13.2877 16.8772 13.5 16.5 13.5H12.5C12.0582 13.5 11.6688 13.2101 11.542 12.7869C11.4153 12.3636 11.5813 11.9074 11.9504 11.6646C12.909 11.0339 13.4546 9.82326 13.4546 8.35714C13.4546 6.2369 11.7145 4.5 9.54547 4.5ZM18.2273 9.97619L17.418 9.38879C17.5893 9.15272 17.8552 9.00323 18.1459 8.9795C18.4367 8.95578 18.7233 9.06017 18.9306 9.26533C20.202 10.5233 21.1026 11.6725 21.6808 12.8441C22.2674 14.0326 22.5 15.1986 22.5 16.4524C22.5 19.3371 19.9353 21.5 17 21.5H7.50002C4.56474 21.5 2.00002 19.3371 2.00002 16.4524C2.00002 14.4484 3.2926 12.8586 5.00638 12.0493C4.73287 11.7174 4.49091 11.3549 4.28939 10.9682C4.06652 10.9408 3.76874 10.8893 3.4289 10.7918C2.71901 10.5882 1.79168 10.174 0.998243 9.32886C0.725325 9.03817 0.651179 8.61312 0.809554 8.24719C0.96793 7.88126 1.32856 7.64439 1.72729 7.64439C1.98336 7.64439 2.52913 7.61548 3.03793 7.52949C3.29333 7.48633 3.50455 7.43446 3.65299 7.37979C3.68203 7.36909 3.70508 7.3596 3.72297 7.35167C4.20451 4.58923 6.63594 2.5 9.54547 2.5C12.7989 2.5 15.4546 5.11233 15.4546 8.35714C15.4546 9.44543 15.2221 10.5476 14.7111 11.5H15.9403C16.1503 11.1795 16.4118 10.8033 16.6354 10.4852C16.8388 10.1959 17.0342 9.92205 17.1786 9.72081C17.2509 9.62011 17.3106 9.53736 17.3522 9.47969L17.4006 9.41282L17.4134 9.39512L17.4167 9.39049L17.4176 9.38927L17.4179 9.38894L17.4179 9.38884L18.2273 9.97619ZM9.00002 7.5C9.00002 8.05228 8.5523 8.5 8.00001 8.5C7.44773 8.5 7.00001 8.05228 7.00001 7.5C7.00001 6.94772 7.44773 6.5 8.00001 6.5C8.5523 6.5 9.00002 6.94772 9.00002 7.5ZM17 4.5C17.5523 4.5 18 4.05228 18 3.5C18 2.94772 17.5523 2.5 17 2.5C16.4477 2.5 16 2.94772 16 3.5C16 4.05228 16.4477 4.5 17 4.5ZM21 6C21 6.82843 20.3284 7.5 19.5 7.5C18.6716 7.5 18 6.82843 18 6C18 5.17157 18.6716 4.5 19.5 4.5C20.3284 4.5 21 5.17157 21 6Z" fill="currentColor"/>
</svg>
