<svg width="24" height="24" viewBox="0 0 24 24" fill="none" xmlns="http://www.w3.org/2000/svg">
<path fill-rule="evenodd" clip-rule="evenodd" d="M21 9.00002C22.6569 9.00002 24 10.3432 24 12C24 13.6569 22.6569 15 21 15H17.4142L8.70711 23.7071C8.38587 24.0284 7.88845 24.0927 7.49605 23.8638C7.10365 23.6348 6.9149 23.1701 7.03649 22.7324L9.18436 15L4.50001 15C4.18525 15 3.88886 14.8518 3.70001 14.6L0.700007 10.6C0.472742 10.297 0.436186 9.89159 0.60558 9.55281C0.774971 9.21403 1.12123 9.00002 1.50001 9.00002H9.18436L7.03649 1.26767C6.91489 0.829934 7.10365 0.365244 7.49605 0.136294C7.88845 -0.0926569 8.38587 -0.0283271 8.70711 0.292916L17.4142 9.00002H21ZM14.5858 9.00002L9.98098 4.39521L11.2601 9.00002H14.5858ZM22 12C22 11.4477 21.5523 11 21 11H17L10.5 11H3.50001L5.00001 13L10.5 13C10.8125 13 11.107 13.1461 11.2961 13.3949C11.4852 13.6437 11.5472 13.9666 11.4635 14.2677L9.98098 19.6048L16.2929 13.2929C16.4804 13.1054 16.7348 13 17 13H21C21.5523 13 22 12.5523 22 12Z" fill="currentColor"/>
</svg>
