<svg width="24" height="24" viewBox="0 0 24 24" fill="none" xmlns="http://www.w3.org/2000/svg">
<path fill-rule="evenodd" clip-rule="evenodd" d="M7.3978 4.2016C7.64832 4.01264 7.973 3.95222 8.27472 4.03842L22.2747 8.03842C22.704 8.16108 23 8.55347 23 8.99995V19.9999C23 20.5522 22.5523 20.9999 22 20.9999H8H2C1.44772 20.9999 1 20.5522 1 19.9999V13.9999C1 13.6656 1.1671 13.3534 1.4453 13.1679L7 9.46476V4.99995C7 4.68616 7.14729 4.39056 7.3978 4.2016ZM21 9.75425V18.9999H18V14.9999C18 14.4477 17.5523 13.9999 17 13.9999H13C12.4477 13.9999 12 14.4477 12 14.9999V18.9999H9V9.99995V6.32568L21 9.75425ZM14 18.9999H16V15.9999H14V18.9999ZM7 11.8685V18.9999H3V14.5351L7 11.8685Z" fill="currentColor"/>
</svg>
