<svg width="24" height="24" viewBox="0 0 24 24" fill="none" xmlns="http://www.w3.org/2000/svg">
<path fill-rule="evenodd" clip-rule="evenodd" d="M7 3C6.51116 3 6.09397 3.35341 6.01361 3.8356L5.51361 6.8356L4.819 11.0032C2.14142 11.0985 0 13.2992 0 16C0 18.7614 2.23858 21 5 21C7.76142 21 10 18.7614 10 16C10 13.8701 8.66824 12.0512 6.79201 11.3307L7.2218 8.75193L14.439 13.9483C14.1569 14.5743 14 15.2688 14 16C14 18.7614 16.2386 21 19 21C21.7614 21 24 18.7614 24 16C24 13.2386 21.7614 11 19 11C17.6912 11 16.4998 11.5029 15.6086 12.326L7.58854 6.55152L7.84713 5H11C11.5523 5 12 4.55228 12 4C12 3.44772 11.5523 3 11 3H7ZM16.1197 15.1584L18.4157 16.8115C18.8639 17.1342 19.4888 17.0325 19.8115 16.5843C20.1342 16.1361 20.0325 15.5112 19.5843 15.1885L17.2887 13.5356C17.7741 13.198 18.3639 13 19 13C20.6569 13 22 14.3431 22 16C22 17.6569 20.6569 19 19 19C17.3431 19 16 17.6569 16 16C16 15.7078 16.0418 15.4254 16.1197 15.1584ZM2 16C2 14.521 3.07033 13.2919 4.47868 13.0451L4.01361 15.8356C3.92281 16.3804 4.29083 16.8956 4.8356 16.9864C5.38037 17.0772 5.8956 16.7092 5.98639 16.1644L6.45148 13.3739C7.37487 13.8853 8 14.8697 8 16C8 17.6569 6.65685 19 5 19C3.34315 19 2 17.6569 2 16ZM15 7C14.4477 7 14 7.44772 14 8C14 8.55228 14.4477 9 15 9H19C19.5523 9 20 8.55228 20 8C20 7.44772 19.5523 7 19 7H15Z" fill="currentColor"/>
</svg>
