<svg width="24" height="24" viewBox="0 0 24 24" fill="none" xmlns="http://www.w3.org/2000/svg">
<path fill-rule="evenodd" clip-rule="evenodd" d="M20.0001 2.99998C20.0001 2.64501 19.8119 2.31664 19.5056 2.13719C19.1993 1.95773 18.8209 1.95409 18.5112 2.12762L19.0001 2.99998C18.5112 2.12762 18.5107 2.12793 18.5101 2.12824L18.5089 2.1289L18.5064 2.13034L18.5005 2.13367L18.486 2.14212C18.475 2.14857 18.4615 2.15666 18.4456 2.16644C18.4138 2.18602 18.3724 2.21241 18.3226 2.24614C18.223 2.31358 18.0895 2.41041 17.9313 2.54077C17.6148 2.80162 17.1997 3.19636 16.7592 3.75744C15.8743 4.88448 14.9057 6.65879 14.4126 9.31761C14.1686 10.6327 14.0692 12.3216 14.0281 13.646C14.0074 14.3156 14.0012 14.9062 14.0002 15.3296C13.9997 15.5415 14.0005 15.712 14.0015 15.83C14.0019 15.889 14.0024 15.935 14.0028 15.9665L14.0033 16.0028L14.0034 16.0125L14.0035 16.0152L14.0035 16.016L14.0035 16.0162C14.0035 16.0163 14.0035 16.0164 15.0034 16L14.0035 16.0164C14.0125 16.5622 14.4575 17 15.0034 17H18.0001L18 21C18 21.5523 18.4478 22 19 22C19.5523 22 20 21.5523 20 21L20.0001 16V2.99998ZM16.379 9.68236C16.745 7.70933 17.3946 6.351 18.0001 5.45008V15H16.002C16.005 14.6362 16.0121 14.1933 16.0272 13.7079C16.0677 12.4002 16.1645 10.8391 16.379 9.68236ZM6.49999 11.9487C5.59051 11.8522 4.88883 11.6324 4.37177 11.3983C3.31776 10.921 3.01036 9.83385 3.08047 8.99255L3.50344 3.91694C3.5493 3.36656 4.03265 2.95758 4.58303 3.00344C5.13341 3.0493 5.5424 3.53265 5.49653 4.08303L5.07356 9.15864C5.06117 9.30732 5.08672 9.42115 5.11811 9.48868C5.14476 9.54599 5.17065 9.56454 5.19674 9.57636C5.62656 9.77098 6.36907 9.99999 7.49999 9.99999C8.6309 9.99999 9.37341 9.77098 9.80323 9.57636C9.82932 9.56454 9.85521 9.54599 9.88186 9.48868C9.91325 9.42115 9.9388 9.30732 9.92641 9.15864L9.50344 4.08303C9.45757 3.53265 9.86656 3.0493 10.4169 3.00344C10.9673 2.95758 11.4507 3.36656 11.4965 3.91694L11.9195 8.99255C11.9896 9.83385 11.6822 10.921 10.6282 11.3983C10.1111 11.6324 9.40946 11.8522 8.49999 11.9487V21C8.49999 21.5523 8.05227 22 7.49999 22C6.9477 22 6.49999 21.5523 6.49999 21V11.9487ZM7.49999 2.99999C8.05227 2.99999 8.49999 3.4477 8.49999 3.99999L8.49999 7.99999C8.49999 8.55227 8.05227 8.99999 7.49999 8.99999C6.9477 8.99999 6.49999 8.55227 6.49999 7.99999L6.49999 3.99999C6.49999 3.4477 6.9477 2.99999 7.49999 2.99999Z" fill="currentColor"/>
</svg>
