<svg width="24" height="24" viewBox="0 0 24 24" fill="none" xmlns="http://www.w3.org/2000/svg">
<path fill-rule="evenodd" clip-rule="evenodd" d="M6.5 2.5C6.09997 2.5 5.73843 2.7384 5.58085 3.10608L4.3406 6H4C3.44772 6 3 6.44772 3 7C3 7.55228 3.44772 8 4 8H4.13723L6.0108 20.6465C6.08344 21.1369 6.50432 21.5 7 21.5H17C17.4957 21.5 17.9166 21.1369 17.9892 20.6465L19.8628 8H20C20.5523 8 21 7.55228 21 7C21 6.44772 20.5523 6 20 6H19.6594L18.4191 3.10608C18.2616 2.7384 17.9 2.5 17.5 2.5H6.5ZM17.4835 6L16.8406 4.5H7.1594L6.51654 6H17.4835ZM6.15906 8L6.60351 11H17.3965L17.8409 8H6.15906ZM7.86277 19.5L6.8998 13H17.1002L16.1372 19.5H7.86277Z" fill="currentColor"/>
</svg>
