<svg width="24" height="24" viewBox="0 0 24 24" fill="none" xmlns="http://www.w3.org/2000/svg">
<path fill-rule="evenodd" clip-rule="evenodd" d="M8 5C8 4.44772 7.55228 4 7 4C6.44772 4 6 4.44772 6 5L6 19C6 19.5523 6.44772 20 7 20C7.55229 20 8 19.5523 8 19V13H16V19C16 19.5523 16.4477 20 17 20C17.5523 20 18 19.5523 18 19V5C18 4.44772 17.5523 4 17 4C16.4477 4 16 4.44772 16 5V11H8V5ZM4 7C4 6.44772 3.55228 6 3 6C2.44772 6 2 6.44772 2 7L2 11H1C0.447715 11 0 11.4477 0 12C0 12.5523 0.447715 13 1 13H2L2 17C2 17.5523 2.44772 18 3 18C3.55228 18 4 17.5523 4 17L4 7ZM22 13V17C22 17.5523 21.5523 18 21 18C20.4477 18 20 17.5523 20 17V7C20 6.44772 20.4477 6 21 6C21.5523 6 22 6.44772 22 7V11H23C23.5523 11 24 11.4477 24 12C24 12.5523 23.5523 13 23 13H22Z" fill="currentColor"/>
</svg>
