<svg width="24" height="24" viewBox="0 0 24 24" fill="none" xmlns="http://www.w3.org/2000/svg">
<path fill-rule="evenodd" clip-rule="evenodd" d="M20.5 2C20.8617 2 21.1953 2.19535 21.3722 2.51084C21.5491 2.82634 21.5419 3.2128 21.3533 3.52145L16.5589 11.3668C17.7571 12.5459 18.5 14.1862 18.5 16C18.5 19.5899 15.5899 22.5 12 22.5C8.41015 22.5 5.5 19.5899 5.5 16C5.5 14.1862 6.24294 12.5459 7.4411 11.3668L2.64672 3.52145C2.4581 3.2128 2.45086 2.82634 2.6278 2.51084C2.80475 2.19535 3.13827 2 3.5 2H9C9.36317 2 9.69779 2.19689 9.87416 2.51436L12 6.34087L14.1258 2.51436C14.3022 2.19689 14.6368 2 15 2H20.5ZM9.06974 10.1964C9.39378 10.0325 9.7334 9.89488 10.0858 9.78644L10.856 8.4L8.4116 4H5.28306L9.06974 10.1964ZM12.5214 9.52061C13.3825 9.58895 14.1964 9.82512 14.9303 10.1964L18.7169 4H15.5884L12.8742 8.88564L12.5214 9.52061ZM12 11.5C9.51472 11.5 7.5 13.5147 7.5 16C7.5 18.4853 9.51472 20.5 12 20.5C14.4853 20.5 16.5 18.4853 16.5 16C16.5 13.5147 14.4853 11.5 12 11.5ZM12.1374 13.0131L12.8557 14.6507C12.877 14.6991 12.9221 14.7327 12.9745 14.7393L14.6901 14.9532C14.8149 14.9687 14.8663 15.1218 14.7761 15.2095L13.4978 16.4525C13.4617 16.4876 13.4456 16.5384 13.455 16.5879L13.7927 18.3752C13.8167 18.5018 13.6803 18.5977 13.5693 18.5323L12.0761 17.6535C12.0291 17.6259 11.9709 17.6259 11.9239 17.6535L10.4307 18.5323C10.3197 18.5977 10.1833 18.5018 10.2073 18.3752L10.545 16.5879C10.5544 16.5384 10.5383 16.4876 10.5022 16.4525L9.22394 15.2095C9.13373 15.1218 9.1851 14.9687 9.30995 14.9532L11.0255 14.7393C11.0779 14.7327 11.123 14.6991 11.1443 14.6507L11.8626 13.0131C11.9151 12.8935 12.0849 12.8935 12.1374 13.0131Z" fill="currentColor"/>
</svg>
