<svg width="24" height="24" viewBox="0 0 24 24" fill="none" xmlns="http://www.w3.org/2000/svg">
<path fill-rule="evenodd" clip-rule="evenodd" d="M6.25 4.75C6.25 4.33579 6.58579 4 7 4C7.41421 4 7.75 4.33579 7.75 4.75C7.75 5.16421 7.41421 5.5 7 5.5C6.58579 5.5 6.25 5.16421 6.25 4.75ZM7 2C5.48122 2 4.25 3.23122 4.25 4.75C4.25 6.26878 5.48122 7.5 7 7.5C8.51878 7.5 9.75 6.26878 9.75 4.75C9.75 3.23122 8.51878 2 7 2ZM14.926 4.23352C15.3058 3.76925 15.874 3.5 16.4739 3.5H20C21.6569 3.5 23 4.84315 23 6.5V7.5C23 9.15685 21.6569 10.5 20 10.5H18.4739L10.074 20.7665C9.69418 21.2307 9.12599 21.5 8.52612 21.5H4C2.34315 21.5 1 20.1569 1 18.5V17.5C1 16.1687 1.86721 15.0399 3.06756 14.6477L3.27883 12.1124C3.44899 10.0706 5.15588 8.5 7.20483 8.5H7.43845C8.58188 8.5 9.62488 9.03268 10.2991 9.88855L14.926 4.23352ZM6.52612 14.5H5.0868L5.27192 12.2785C5.3557 11.2732 6.19606 10.5 7.20483 10.5H7.43845C8.11428 10.5 8.71224 10.913 8.95949 11.5259L6.52612 14.5ZM20 5.5H16.4739L7.77396 16.1332C7.58403 16.3654 7.29993 16.5 7 16.5H4C3.44772 16.5 3 16.9477 3 17.5V18.5C3 19.0523 3.44772 19.5 4 19.5H8.52612L17.226 8.86676C17.416 8.63463 17.7001 8.5 18 8.5H20C20.5523 8.5 21 8.05228 21 7.5V6.5C21 5.94772 20.5523 5.5 20 5.5Z" fill="currentColor"/>
</svg>
