<svg width="24" height="24" viewBox="0 0 24 24" fill="none" xmlns="http://www.w3.org/2000/svg">
<path fill-rule="evenodd" clip-rule="evenodd" d="M19.9149 9C19.6696 7.60517 18.9053 6.4826 17.7715 5.64876C16.3528 4.60546 14.325 4 12 4C9.67485 4 7.64714 4.60546 6.22843 5.64876C5.09456 6.4826 4.33032 7.60517 4.08503 9H19.9149ZM5.04355 4.03753C6.8822 2.68541 9.35449 2 12 2C14.6454 2 17.1177 2.68541 18.9564 4.03753C20.8204 5.40834 22 7.44774 22 10C22 10.5523 21.5522 11 21 11H2.99995C2.44767 11 1.99995 10.5523 1.99995 10C1.99995 7.44774 3.1795 5.40834 5.04355 4.03753ZM2.02673 13.2702C2.13328 12.8189 2.5362 12.5 2.99998 12.5H21C21.4638 12.5 21.8667 12.8189 21.9732 13.2702C22.0798 13.7216 21.862 14.187 21.4472 14.3944L12.4472 18.8944C12.1657 19.0352 11.8343 19.0352 11.5528 18.8944L2.55276 14.3944C2.13795 14.187 1.92017 13.7216 2.02673 13.2702ZM7.23604 14.5L12 16.882L16.7639 14.5H7.23604ZM3.99998 18C3.99998 17.4477 3.55227 17 2.99998 17C2.4477 17 1.99998 17.4477 1.99998 18V19C1.99998 20.6569 3.34313 22 4.99998 22H19C20.6568 22 22 20.6569 22 19V18C22 17.4477 21.5523 17 21 17C20.4477 17 20 17.4477 20 18V19C20 19.5523 19.5523 20 19 20H4.99998C4.4477 20 3.99998 19.5523 3.99998 19V18Z" fill="currentColor"/>
</svg>
