<svg width="24" height="24" viewBox="0 0 24 24" fill="none" xmlns="http://www.w3.org/2000/svg">
<path fill-rule="evenodd" clip-rule="evenodd" d="M9 1C9.55229 1 10 1.44772 10 2V4H14V2C14 1.44772 14.4477 1 15 1C15.5523 1 16 1.44772 16 2V4H19C19.5523 4 20 4.44772 20 5V8H22C22.5523 8 23 8.44772 23 9C23 9.55229 22.5523 10 22 10H20V14H22C22.5523 14 23 14.4477 23 15C23 15.5523 22.5523 16 22 16H20V19C20 19.5523 19.5523 20 19 20H16V22C16 22.5523 15.5523 23 15 23C14.4477 23 14 22.5523 14 22V20H10V22C10 22.5523 9.55229 23 9 23C8.44772 23 8 22.5523 8 22V20H5C4.44772 20 4 19.5523 4 19V16H2C1.44772 16 1 15.5523 1 15C1 14.4477 1.44772 14 2 14H4L4 10H2C1.44772 10 1 9.55228 1 9C1 8.44772 1.44772 8 2 8H4V5C4 4.44772 4.44772 4 5 4H8V2C8 1.44772 8.44772 1 9 1ZM6 9V15V18H9H15H18V15V9V6H15H9H6V9Z" fill="currentColor"/>
</svg>
