<svg width="24" height="24" viewBox="0 0 24 24" fill="none" xmlns="http://www.w3.org/2000/svg">
<path fill-rule="evenodd" clip-rule="evenodd" d="M6 3C6.55228 3 7 3.44772 7 4C7 6.04617 9.06012 8 12 8C14.9399 8 17 6.04617 17 4C17 3.44772 17.4477 3 18 3C18.5523 3 19 3.44772 19 4C19 6.20914 20.7909 8 23 8C23.5523 8 24 8.44772 24 9C24 9.55228 23.5523 10 23 10C21.4633 10 20.0615 9.42229 19 8.47221V15H23C23.5523 15 24 15.4477 24 16C24 16.5523 23.5523 17 23 17H19V20C19 20.5523 18.5523 21 18 21C17.4477 21 17 20.5523 17 20V17H12H7V20C7 20.5523 6.55228 21 6 21C5.44772 21 5 20.5523 5 20V17H1C0.447715 17 0 16.5523 0 16C0 15.4477 0.447715 15 1 15H5V8.47221C3.93849 9.42229 2.53671 10 1 10C0.447715 10 0 9.55228 0 9C0 8.44772 0.447715 8 1 8C3.20914 8 5 6.20914 5 4C5 3.44772 5.44772 3 6 3ZM7 8.20461V15H11V9.93789C9.47645 9.74784 8.06855 9.13023 7 8.20461ZM17 15V8.20461C15.9314 9.13023 14.5235 9.74784 13 9.93789V15H17Z" fill="currentColor"/>
</svg>
