<svg width="24" height="24" viewBox="0 0 24 24" fill="none" xmlns="http://www.w3.org/2000/svg">
<path fill-rule="evenodd" clip-rule="evenodd" d="M3 3.5C3 2.94772 3.44772 2.5 4 2.5H20C20.5523 2.5 21 2.94772 21 3.5C21 4.05228 20.5523 4.5 20 4.5L4 4.5C3.44772 4.5 3 4.05229 3 3.5ZM5.5 6C4.94772 6 4.5 6.44772 4.5 7C4.5 7.55228 4.94772 8 5.5 8H6.5V17C6.5 17.5523 6.94772 18 7.5 18C8.05228 18 8.5 17.5523 8.5 17V8H11V17C11 17.5523 11.4477 18 12 18C12.5523 18 13 17.5523 13 17V8H15.5V17C15.5 17.5523 15.9477 18 16.5 18C17.0523 18 17.5 17.5523 17.5 17V8H18.5C19.0523 8 19.5 7.55228 19.5 7C19.5 6.44772 19.0523 6 18.5 6H16.5H12H7.5H5.5ZM4 19.5C3.44772 19.5 3 19.9477 3 20.5C3 21.0523 3.44772 21.5 4 21.5L20 21.5C20.5523 21.5 21 21.0523 21 20.5C21 19.9477 20.5523 19.5 20 19.5L4 19.5Z" fill="currentColor"/>
</svg>
