<svg width="24" height="24" viewBox="0 0 24 24" fill="none" xmlns="http://www.w3.org/2000/svg">
<path fill-rule="evenodd" clip-rule="evenodd" d="M10 1.5C9.44772 1.5 9 1.94772 9 2.5V4.5V5.95898C8.46514 6.13356 7.95273 6.36051 7.48327 6.64385C7.01043 6.92923 6.85847 7.54389 7.14385 8.01673C7.42923 8.48957 8.04389 8.64153 8.51673 8.35615C8.99735 8.06607 9.57807 7.84125 10.222 7.69466C11.3621 7.43511 12.6379 7.43511 13.778 7.69466C14.4219 7.84125 15.0026 8.06607 15.4833 8.35615C15.9561 8.64153 16.5708 8.48957 16.8561 8.01673C17.1415 7.54389 16.9896 6.92923 16.5167 6.64385C16.0473 6.36051 15.5349 6.13356 15 5.95898V2.5C15 1.94772 14.5523 1.5 14 1.5H10ZM13 5.54825C12.3376 5.48392 11.6624 5.48392 11 5.54825V5.36622C11.2989 5.19331 11.5 4.87014 11.5 4.5C11.5 4.12986 11.2989 3.80669 11 3.63378V3.5H13V5.54825ZM7.75884 12.2645C10.1017 9.91183 13.8983 9.91183 16.2412 12.2645C18.4909 14.5237 18.5824 18.1311 16.5156 20.5H7.48437C5.4176 18.1311 5.50909 14.5237 7.75884 12.2645ZM17.6583 10.8533C14.5338 7.71558 9.46619 7.71558 6.34166 10.8533C3.21945 13.9886 3.21945 19.0703 6.34166 22.2056C6.52932 22.3941 6.78431 22.5 7.05025 22.5H16.9497C17.2157 22.5 17.4707 22.3941 17.6583 22.2056C20.7806 19.0703 20.7806 13.9886 17.6583 10.8533Z" fill="currentColor"/>
</svg>
