<svg width="24" height="24" viewBox="0 0 24 24" fill="none" xmlns="http://www.w3.org/2000/svg">
<path fill-rule="evenodd" clip-rule="evenodd" d="M12 1C12.5523 1 13 1.44772 13 2V5.5H17C17.3231 5.5 17.6262 5.65608 17.8139 5.91904C18.0016 6.182 18.0507 6.51944 17.9457 6.82498C17.5832 7.87988 16.8969 8.80995 16.023 9.52291C18.577 10.2009 21.2688 11.6522 22.8722 14.5108C23.0459 14.8205 23.0423 15.199 22.8629 15.5054C22.6835 15.8117 22.355 16 22 16H2C1.64495 16 1.31653 15.8117 1.1371 15.5054C0.957668 15.199 0.95414 14.8205 1.12783 14.5108C2.73125 11.6521 5.42302 10.2008 7.97709 9.5229C7.1031 8.80995 6.41677 7.87988 6.05428 6.82498C5.94929 6.51944 5.99837 6.182 6.18607 5.91904C6.37376 5.65608 6.67693 5.5 7 5.5H11V2C11 1.44772 11.4477 1 12 1ZM12 11C9.55141 11 6.16019 11.6817 3.96812 14H20.0319C17.8398 11.6817 14.4486 11 12 11ZM12 7.5H8.74355C9.55472 8.39815 10.7733 9 12.0001 9C13.2268 9 14.4454 8.39816 15.2565 7.5H12ZM5 18.5C5 17.9477 5.44772 17.5 6 17.5H9.5H14.5H18C18.5523 17.5 19 17.9477 19 18.5C19 19.0523 18.5523 19.5 18 19.5H15.4548C15.1672 21.0575 13.5534 22 12 22C10.4466 22 8.83278 21.0575 8.54515 19.5H6C5.44772 19.5 5 19.0523 5 18.5ZM10.7212 19.5C10.951 19.7647 11.3666 20 12 20C12.6334 20 13.049 19.7647 13.2788 19.5H10.7212Z" fill="currentColor"/>
</svg>
