<svg width="24" height="24" viewBox="0 0 24 24" fill="none" xmlns="http://www.w3.org/2000/svg">
<path fill-rule="evenodd" clip-rule="evenodd" d="M11.8991 3.56234C11.6904 3.13355 11.208 2.9118 10.7466 3.03262C8.72741 3.56147 7.46804 5.003 6.81017 6.5H2.2667L1.97267 5.26788C1.84448 4.73068 1.30507 4.39911 0.767865 4.52731C0.230665 4.6555 -0.100899 5.19491 0.0272964 5.73211L0.477743 7.6197L0.498647 12.6786C0.188261 13.031 -1.6131e-05 13.4935 -1.6131e-05 14V17C-1.6131e-05 18.6569 1.34313 20 2.99998 20H21.323C22.1408 20 22.8762 19.5021 23.1799 18.7428L23.4199 18.1427C23.5783 17.7469 23.601 17.3386 23.5156 16.9619L23.7553 15.2842C23.9597 13.8531 23.1203 12.5018 21.8003 11.9979C20.7305 11.5895 19.2641 10.9943 17.8944 10.3215C16.4893 9.63139 15.3126 8.9192 14.719 8.30503C14.2572 7.82717 13.5678 6.69962 12.9481 5.57482C12.6508 5.03538 12.3879 4.53084 12.1991 4.16077C12.1048 3.97597 12.0293 3.8253 11.9776 3.72129C11.9517 3.6693 11.9318 3.62901 11.9186 3.60198L11.9037 3.57161L11.9001 3.56426L11.8993 3.56262L11.8991 3.56234ZM8.31779 12L2.49586 12L2.4814 8.5H7.49998C7.93546 8.5 8.32087 8.21818 8.45291 7.8032C8.78582 6.75692 9.45754 5.78016 10.5091 5.24835C10.6945 5.60842 10.9319 6.06006 11.1963 6.53994C11.7914 7.62006 12.602 8.99251 13.2809 9.69496C14.1393 10.5831 15.6008 11.4232 17.0127 12.1167C18.4599 12.8275 19.9894 13.4473 21.0869 13.8663C21.5648 14.0488 21.8431 14.5272 21.7754 15.0013L21.7176 15.4059L21.7055 15.405L16.2269 15.0137L9.06148 12.1434C8.82498 12.0487 8.57255 12 8.31779 12ZM8.31779 14L1.99998 14V17C1.99998 17.5523 2.4477 18 2.99998 18H21.323L21.563 17.3999L16.0844 17.0086C15.8781 16.9938 15.6753 16.9472 15.4832 16.8702L8.31779 14ZM4.99998 15C4.4477 15 3.99998 15.4477 3.99998 16C3.99998 16.5523 4.4477 17 4.99998 17H6.99998C7.55227 17 7.99998 16.5523 7.99998 16C7.99998 15.4477 7.55227 15 6.99998 15H4.99998Z" fill="currentColor"/>
</svg>
