<svg width="24" height="24" viewBox="0 0 24 24" fill="none" xmlns="http://www.w3.org/2000/svg">
<path fill-rule="evenodd" clip-rule="evenodd" d="M13.2872 2.11897C14.7792 0.627009 17.1981 0.627009 18.6901 2.11897C19.2871 2.71592 19.6448 3.46162 19.7642 4.23582C20.5384 4.35518 21.2841 4.71295 21.881 5.3099C23.373 6.80186 23.373 9.22081 21.881 10.7128C20.6337 11.9601 18.7385 12.1646 17.2788 11.3264L11.3264 17.2787C12.1646 18.7385 11.9601 20.6337 10.7128 21.881C9.22084 23.373 6.80189 23.373 5.30992 21.881C4.71297 21.2841 4.3552 20.5384 4.23584 19.7642C3.46164 19.6448 2.71594 19.287 2.11899 18.6901C0.627024 17.1981 0.627024 14.7792 2.11899 13.2872C3.36629 12.0399 5.26147 11.8354 6.72125 12.6736L12.6736 6.72125C11.8354 5.26146 12.0399 3.36627 13.2872 2.11897ZM17.2759 3.53319C16.565 2.82227 15.4124 2.82227 14.7014 3.53319C13.9905 4.2441 13.9905 5.39672 14.7014 6.10763C14.889 6.29517 14.9943 6.54952 14.9943 6.81474C14.9943 7.07996 14.889 7.33431 14.7014 7.52185L7.52185 14.7014C7.13132 15.092 6.49816 15.092 6.10763 14.7014C5.39672 13.9905 4.24412 13.9905 3.5332 14.7014C2.82229 15.4124 2.82229 16.565 3.5332 17.2759C3.95382 17.6965 4.52829 17.869 5.07851 17.7909C5.38985 17.7466 5.70385 17.8515 5.92621 18.0738C6.14856 18.2962 6.25338 18.6102 6.20917 18.9215C6.13104 19.4717 6.30351 20.0462 6.72413 20.4668C7.43505 21.1777 8.58767 21.1777 9.29859 20.4668C10.0095 19.7559 10.0095 18.6033 9.29856 17.8924C9.11103 17.7048 9.00567 17.4505 9.00567 17.1853C9.00567 16.92 9.11103 16.6657 9.29856 16.4782L16.4782 9.29856C16.8687 8.90804 17.5019 8.90804 17.8924 9.29856C18.6033 10.0095 19.7559 10.0095 20.4668 9.29856C21.1777 8.58765 21.1777 7.43503 20.4668 6.72412C20.0462 6.30349 19.4717 6.13102 18.9215 6.20915C18.6102 6.25336 18.2962 6.14855 18.0738 5.92619C17.8515 5.70383 17.7467 5.38983 17.7909 5.0785C17.869 4.52827 17.6965 3.95381 17.2759 3.53319Z" fill="currentColor"/>
</svg>
