<svg width="24" height="24" viewBox="0 0 24 24" fill="none" xmlns="http://www.w3.org/2000/svg">
<g clip-path="url(#clip0_13960_294)">
<path fill-rule="evenodd" clip-rule="evenodd" d="M8.51534 8.39805C8.51447 8.2653 8.51596 8.11135 8.52188 7.94097C8.54306 7.33121 8.62002 6.53966 8.83291 5.76499C9.04768 4.98349 9.38172 4.2888 9.869 3.7991C10.3299 3.33588 10.9809 3 11.9815 3C12.9824 3 13.6401 3.33617 14.1094 3.80283C14.6045 4.29516 14.9466 4.9924 15.1698 5.77442C15.391 6.54982 15.4764 7.34178 15.504 7.9515C15.5115 8.11664 15.5146 8.26635 15.5153 8.39627C14.4215 8.46006 13.241 8.5 12 8.5C10.7706 8.5 9.60056 8.4608 8.51534 8.39805ZM17.5019 7.861C17.5082 7.99924 17.5119 8.12868 17.5138 8.24766C18.3277 8.17408 19.0691 8.09103 19.7225 8.00798C20.6898 7.88506 21.4627 7.76236 21.9915 7.67088C22.2559 7.62516 22.4591 7.58726 22.5948 7.56107C22.6627 7.54797 22.7137 7.53781 22.7471 7.53106L22.7838 7.52357L22.7921 7.52186L22.7935 7.52156L22.7937 7.52152C23.1399 7.44852 23.4988 7.56387 23.7377 7.82486C23.9766 8.08591 24.0598 8.45379 23.9564 8.79222L20.7222 19.3767C20.3367 20.6383 19.1724 21.5 17.8532 21.5H6.14686C4.82768 21.5 3.66329 20.6383 3.2778 19.3767L0.0436673 8.79222C-0.0597408 8.45379 0.0234131 8.08591 0.262325 7.82486C0.50117 7.56389 0.860125 7.44854 1.20628 7.5215L1.20657 7.52156L1.20797 7.52186L1.21621 7.52357L1.25293 7.53106C1.2863 7.53781 1.33731 7.54797 1.40519 7.56107C1.54096 7.58726 1.74415 7.62516 2.0085 7.67088C2.53729 7.76236 3.31028 7.88506 4.2775 8.00798C4.93876 8.09202 5.69 8.17605 6.51534 8.25028C6.51605 8.13349 6.51839 8.00671 6.52309 7.87153C6.5475 7.16879 6.63637 6.21034 6.90441 5.23501C7.17057 4.26651 7.63255 3.2112 8.45128 2.3884C9.29636 1.53912 10.4614 1 11.9815 1C13.5016 1 14.669 1.53883 15.5196 2.38467C16.3444 3.20484 16.8168 4.2576 17.093 5.22558C17.3711 6.20018 17.4701 7.15822 17.5019 7.861ZM21.5672 9.76727C21.1166 9.83757 20.582 9.91483 19.9747 9.99202C18.7503 10.1476 17.2277 10.3032 15.5 10.4004V12C15.5 12.3788 15.286 12.725 14.9472 12.8944L14.5 12C14.9472 12.8944 14.9469 12.8946 14.9467 12.8947L14.9461 12.895L14.9449 12.8956L14.9423 12.8969L14.9358 12.9001L14.9183 12.9085C14.9047 12.915 14.8871 12.9232 14.8657 12.9329C14.8228 12.9522 14.7645 12.9775 14.6917 13.0066C14.5463 13.0648 14.3421 13.1387 14.0872 13.2115C13.5787 13.3568 12.8602 13.5 12 13.5C11.1398 13.5 10.4213 13.3568 9.91278 13.2115C9.65794 13.1387 9.45374 13.0648 9.3083 13.0066C9.2355 12.9775 9.17717 12.9522 9.13431 12.9329C9.11288 12.9232 9.09528 12.915 9.08166 12.9085L9.06421 12.9001L9.05774 12.8969L9.05507 12.8956L9.05388 12.895L9.05332 12.8947C9.05305 12.8946 9.05279 12.8944 9.5 12L9.05279 12.8944C8.714 12.725 8.5 12.3788 8.5 12V10.4004C6.77227 10.3032 5.24969 10.1476 4.02536 9.99202C3.41802 9.91483 2.88343 9.83757 2.43288 9.76727L5.1905 18.7922C5.319 19.2127 5.70713 19.5 6.14686 19.5H17.8532C18.2929 19.5 18.681 19.2128 18.8095 18.7922L21.5672 9.76727ZM10.5 10.4814V11.2991C10.8648 11.4003 11.3819 11.5 12 11.5C12.6181 11.5 13.1352 11.4003 13.5 11.2991V10.4814C13.0111 10.4935 12.5106 10.5 12 10.5C11.4894 10.5 10.9889 10.4935 10.5 10.4814Z" fill="currentColor"/>
</g>
<defs>
<clipPath id="clip0_13960_294">
<rect width="24" height="24" fill="white"/>
</clipPath>
</defs>
</svg>
