<svg width="24" height="24" viewBox="0 0 24 24" fill="none" xmlns="http://www.w3.org/2000/svg">
<path fill-rule="evenodd" clip-rule="evenodd" d="M12.7734 21.6343C12.7517 21.6607 12.7288 21.6859 12.7048 21.7097C12.6124 21.8016 12.5008 21.8766 12.3734 21.9277C12.2485 21.978 12.1132 22.0034 11.9753 22C11.8588 21.9971 11.7449 21.9737 11.6384 21.9323C11.504 21.8804 11.3869 21.8021 11.2909 21.7054C11.2682 21.6826 11.2465 21.6587 11.226 21.6336L0.741553 9.43299C0.4386 9.08044 0.418515 8.56563 0.693081 8.19056L4.1931 3.40931C4.38143 3.15203 4.68116 2.99999 5 2.99999H9.97748C9.99266 2.99964 10.0079 2.99964 10.0231 2.99999H13.9772C13.9922 2.99965 14.0072 2.99965 14.0222 2.99999H19C19.3188 2.99999 19.6186 3.15203 19.8069 3.40931L23.3069 8.19056C23.5815 8.56564 23.5614 9.08044 23.2584 9.43299L12.7734 21.6343ZM13.323 4.99999H10.677L9.56453 7.78124H14.4355L13.323 4.99999ZM16.5895 7.78124L15.477 4.99999H18.4927L20.5287 7.78124H16.5895ZM14.6855 9.78124H9.3145L12 17.8377L14.6855 9.78124ZM14.5576 16.4894L16.7937 9.78124H20.3222L14.5576 16.4894ZM5.50727 4.99999H8.52296L7.41046 7.78124H3.47132L5.50727 4.99999ZM3.67783 9.78124H7.20632L9.44235 16.4893L3.67783 9.78124Z" fill="currentColor"/>
</svg>
