<svg width="24" height="24" viewBox="0 0 24 24" fill="none" xmlns="http://www.w3.org/2000/svg">
<path fill-rule="evenodd" clip-rule="evenodd" d="M10.5 6.5C10.5 5.67157 11.1716 5 12 5C12.8284 5 13.5 5.67157 13.5 6.5C13.5 7.05228 13.9477 7.5 14.5 7.5C15.0523 7.5 15.5 7.05228 15.5 6.5C15.5 4.567 13.933 3 12 3C10.067 3 8.49998 4.567 8.49998 6.5V6.55396C8.49998 7.80234 9.15498 8.95919 10.2255 9.60147L11 10.0662V10.9429L1.73411 16.679C0.966866 17.1539 0.499985 17.992 0.499985 18.8944C0.499985 20.3334 1.66655 21.5 3.10558 21.5H20.8944C22.3334 21.5 23.5 20.3334 23.5 18.8944C23.5 17.992 23.0331 17.1539 22.2659 16.679L13 10.9429V9.5C13 9.14874 12.8157 8.82323 12.5145 8.64251L11.2544 7.88648C10.7864 7.60564 10.5 7.09982 10.5 6.55396V6.5ZM2.78682 18.3795L12 12.6761L21.2131 18.3795C21.3915 18.4899 21.5 18.6847 21.5 18.8944C21.5 19.2289 21.2289 19.5 20.8944 19.5H3.10558C2.77112 19.5 2.49998 19.2289 2.49998 18.8944C2.49998 18.6847 2.6085 18.4899 2.78682 18.3795Z" fill="currentColor"/>
</svg>
