<svg width="24" height="24" viewBox="0 0 24 24" fill="none" xmlns="http://www.w3.org/2000/svg">
<path fill-rule="evenodd" clip-rule="evenodd" d="M20.3733 3.6267C18.2044 1.45776 14.6878 1.45777 12.5189 3.6267L8.0728 8.0728L3.6267 12.5189C1.45777 14.6878 1.45777 18.2044 3.6267 20.3733C5.79563 22.5422 9.31217 22.5422 11.4811 20.3733L15.9272 15.9272L20.3733 11.4811C22.5422 9.31216 22.5422 5.79563 20.3733 3.6267ZM13.9331 5.04091C15.321 3.65303 17.5712 3.65303 18.9591 5.04091C20.347 6.4288 20.347 8.679 18.9591 10.0669L15.2201 13.8059L10.1941 8.77991L13.9331 5.04091ZM8.77991 10.1941L13.8059 15.2201L10.0669 18.9591C8.679 20.347 6.4288 20.347 5.04091 18.9591C3.65303 17.5712 3.65303 15.321 5.04091 13.9331L8.77991 10.1941ZM16.2071 7.20711C16.5976 6.81658 16.5976 6.18342 16.2071 5.79289C15.8166 5.40237 15.1834 5.40237 14.7929 5.79289L12.7929 7.79289C12.4024 8.18342 12.4024 8.81658 12.7929 9.20711C13.1834 9.59763 13.8166 9.59763 14.2071 9.20711L16.2071 7.20711Z" fill="currentColor"/>
</svg>
