<svg width="24" height="24" viewBox="0 0 24 24" fill="none" xmlns="http://www.w3.org/2000/svg">
<path fill-rule="evenodd" clip-rule="evenodd" d="M6.5 4C5.11929 4 4 5.11929 4 6.5C4 7.88071 5.11929 9 6.5 9H9C9.82843 9 10.5 9.67157 10.5 10.5V12C10.5 12.5523 10.0523 13 9.5 13C8.94772 13 8.5 12.5523 8.5 12V11H6.5C6.331 11 6.16417 10.9907 6.00001 10.9725V20H17V17V11V9H17H13.5C12.9477 9 12.5 8.55228 12.5 8C12.5 7.44772 12.9477 7 13.5 7H17C17.5523 7 18 6.55228 18 6C18 5.44772 17.5523 5 17 5C16.8216 5 16.657 5.04582 16.5141 5.1256C16.1072 5.35269 15.6402 5.40069 15.2471 5.34883C14.8588 5.29761 14.3765 5.12532 14.034 4.71658C13.6655 4.2769 13.1156 4 12.5 4C11.9177 4 11.3946 4.24759 11.0278 4.64625C10.6418 5.06571 10.1008 5.21674 9.67432 5.23372C9.25005 5.25062 8.6825 5.14408 8.26158 4.72607C7.80859 4.27621 7.18752 4 6.5 4ZM19 20L19 18H21C22.1046 18 23 17.1046 23 16V12C23 10.8954 22.1046 10 21 10H19V8.2361C19.6138 7.68678 20 6.88849 20 6C20 4.34315 18.6569 3 17 3C16.4811 3 15.9903 3.13258 15.5625 3.36642C15.5568 3.36718 15.5492 3.36782 15.5402 3.36791C15.5303 3.36801 15.5203 3.36744 15.5106 3.36626C14.7788 2.53036 13.7009 2 12.5 2C11.3639 2 10.3374 2.47483 9.61043 3.23407C9.60614 3.23458 9.60163 3.23497 9.59696 3.23521C8.79112 2.47064 7.69961 2 6.5 2C4.01472 2 2 4.01472 2 6.5C2 8.06021 2.79402 9.43497 4.00001 10.2422L4 20C3.44771 20 3 20.4477 3 21C3 21.5523 3.44771 22 4 22L5.00001 22H18L19 22C19.5523 22 20 21.5523 20 21C20 20.4477 19.5523 20 19 20ZM19 12V16H21V12H19Z" fill="currentColor"/>
</svg>
