<svg width="24" height="24" viewBox="0 0 24 24" fill="none" xmlns="http://www.w3.org/2000/svg">
<path fill-rule="evenodd" clip-rule="evenodd" d="M5.00001 2.99998C4.51879 2.99998 4.10582 3.34272 4.01713 3.8157L1.01714 19.8158C0.962313 20.1082 1.04052 20.4098 1.2305 20.6387C1.42049 20.8676 1.70253 21.0001 2.00001 21.0001L16 21.0001H22C22.2975 21.0001 22.5795 20.8676 22.7695 20.6387C22.9595 20.4098 23.0377 20.1082 22.9829 19.8158L19.9829 3.8157C19.8942 3.34272 19.4812 2.99998 19 2.99998H5.00001ZM3.20493 19.0001L5.82993 4.99998H17.7951L15.1701 19.0001L3.20493 19.0001ZM17.2049 19.0001L19 9.42628L20.7951 19.0001H17.2049ZM7.49997 7.5C7.49997 6.94772 7.94768 6.5 8.49997 6.5C9.05225 6.5 9.49997 6.94772 9.49997 7.5V8.5C9.49997 9.05229 9.94768 9.5 10.5 9.5L11.5 9.5C12.0523 9.5 12.5 9.05229 12.5 8.5V7.5C12.5 6.94772 12.9477 6.5 13.5 6.5C14.0523 6.5 14.5 6.94772 14.5 7.5V8.5C14.5 10.1569 13.1568 11.5 11.5 11.5H10.5C8.84312 11.5 7.49997 10.1569 7.49997 8.5V7.5Z" fill="currentColor"/>
</svg>
