<svg width="24" height="24" viewBox="0 0 24 24" fill="none" xmlns="http://www.w3.org/2000/svg">
<path fill-rule="evenodd" clip-rule="evenodd" d="M19.6585 3.24742C19.2428 2.88374 18.6111 2.92586 18.2474 3.34149L12 10.4814L5.75256 3.34149C5.38888 2.92586 4.75711 2.88374 4.34148 3.24742C3.92584 3.6111 3.88372 4.24287 4.24741 4.6585L10.6712 12L4.55654 18.9882C4.36319 18.9802 4.11513 18.9667 3.82817 18.9442C3.10793 18.8877 2.1624 18.7756 1.22902 18.556C0.691418 18.4295 0.15306 18.7628 0.0265642 19.3004C-0.0999311 19.838 0.233338 20.3763 0.770941 20.5028C1.83757 20.7538 2.89203 20.877 3.67179 20.9381C4.0638 20.9689 4.39134 20.9843 4.62264 20.9921C4.73838 20.996 4.8303 20.9979 4.89445 20.999C4.92654 20.9995 4.9517 20.9997 4.96944 20.9999L4.99045 21L4.99667 21L4.99869 21H4.99943H4.99973C4.99986 21 4.99998 21 4.99998 20V21C5.28834 21 5.56267 20.8755 5.75256 20.6585L12 13.5186L18.2474 20.6585C18.4373 20.8755 18.7116 21 19 21V20C19 21 19.0001 21 19.0002 21H19.0005H19.0013L19.0033 21L19.0095 21L19.0305 20.9999L19.0728 20.9994L19.1055 20.999C19.1697 20.9979 19.2616 20.996 19.3773 20.9921C19.6086 20.9843 19.9362 20.9689 20.3282 20.9381C21.1079 20.877 22.1624 20.7538 23.229 20.5028C23.7666 20.3763 24.0999 19.838 23.9734 19.3004C23.8469 18.7628 23.3085 18.4295 22.7709 18.556C21.8376 18.7756 20.892 18.8877 20.1718 18.9442C19.8848 18.9667 19.6368 18.9802 19.4434 18.9882L13.3288 12L19.7526 4.6585C20.1162 4.24287 20.0741 3.6111 19.6585 3.24742ZM13.5 20H10.5C9.9477 20 9.49998 20.4477 9.49998 21C9.49998 21.5523 9.9477 22 10.5 22H13.5C14.0523 22 14.5 21.5523 14.5 21C14.5 20.4477 14.0523 20 13.5 20Z" fill="currentColor"/>
</svg>
