<svg width="24" height="24" viewBox="0 0 24 24" fill="none" xmlns="http://www.w3.org/2000/svg">
<path fill-rule="evenodd" clip-rule="evenodd" d="M11.0001 1C8.79092 1 7.00006 2.79086 7.00006 5V12.5C7.00006 14.7091 8.79092 16.5 11.0001 16.5H13.0001C15.2092 16.5 17.0001 14.7091 17.0001 12.5V10.5893V6.17857V5C17.0001 2.79086 15.2092 1 13.0001 1H11.0001ZM9.00006 5C9.00006 3.89543 9.89549 3 11.0001 3H13.0001C14.1046 3 15.0001 3.89543 15.0001 5V6.17857V10.5893V12.5C15.0001 13.6046 14.1046 14.5 13.0001 14.5H11.0001C9.89549 14.5 9.00006 13.6046 9.00006 12.5V5ZM5.4966 12.917C5.45074 12.3666 4.96739 11.9576 4.41701 12.0035C3.86663 12.0493 3.45765 12.5327 3.50351 13.083L3.54503 13.5813C3.84737 17.2094 6.88024 20 10.5209 20H11.0001V21.5H8.52947C7.97719 21.5 7.52947 21.9477 7.52947 22.5C7.52947 23.0523 7.97719 23.5 8.52947 23.5H12.0001H15.4707C16.0229 23.5 16.4707 23.0523 16.4707 22.5C16.4707 21.9477 16.0229 21.5 15.4707 21.5H13.0001V20H13.4793C17.1199 20 20.1527 17.2094 20.4551 13.5813L20.4966 13.083C20.5425 12.5327 20.1335 12.0493 19.5831 12.0035C19.0327 11.9576 18.5494 12.3666 18.5035 12.917L18.462 13.4152C18.246 16.0067 16.0797 18 13.4793 18H12.0001H10.5209C7.92041 18 5.75408 16.0067 5.53812 13.4152L5.4966 12.917Z" fill="currentColor"/>
</svg>
