<svg width="24" height="24" viewBox="0 0 24 24" fill="none" xmlns="http://www.w3.org/2000/svg">
<path fill-rule="evenodd" clip-rule="evenodd" d="M12 7C8.47353 7 5.55612 9.60771 5.07089 13H18.9291C18.4439 9.60771 15.5265 7 12 7ZM11 3V5.05493C9.26421 5.24681 7.67719 5.93233 6.38245 6.96799L4.63606 5.2216C4.24554 4.83108 3.61237 4.83108 3.22185 5.2216C2.83132 5.61213 2.83132 6.24529 3.22185 6.63582L4.96821 8.38218C3.93243 9.67697 3.24682 11.2641 3.05493 13H1C0.447715 13 0 13.4477 0 14C0 14.5523 0.447715 15 1 15H4H20H23C23.5523 15 24 14.5523 24 14C24 13.4477 23.5523 13 23 13H20.9451C20.7532 11.2641 20.0676 9.67697 19.0318 8.38218L20.7782 6.63582C21.1687 6.24529 21.1687 5.61213 20.7782 5.2216C20.3876 4.83108 19.7545 4.83108 19.3639 5.2216L17.6175 6.96799C16.3228 5.93233 14.7358 5.24681 13 5.05493V3C13 2.44772 12.5523 2 12 2C11.4477 2 11 2.44772 11 3ZM5.75555 20.6551C5.39551 21.0705 4.76711 21.1175 4.34921 20.7593C3.92989 20.3999 3.88132 19.7686 4.24074 19.3493L5 20C4.24074 19.3493 4.24112 19.3488 4.24151 19.3484L4.24235 19.3474L4.24425 19.3452L4.24891 19.3398L4.2617 19.3253C4.27175 19.314 4.28486 19.2995 4.30097 19.2821C4.33317 19.2473 4.37749 19.2009 4.43348 19.1455C4.5452 19.035 4.70485 18.8874 4.90872 18.7252C5.31324 18.4035 5.91072 18.0093 6.66964 17.7437C8.26107 17.1867 10.3885 17.2612 12.6585 19.2475C14.3885 20.7613 15.7611 20.6867 16.6696 20.3687C17.1607 20.1968 17.5632 19.9347 17.8462 19.7096C17.9861 19.5984 18.0921 19.4999 18.16 19.4326C18.1939 19.3992 18.2179 19.3738 18.2316 19.359L18.2442 19.3452L18.2434 19.3461C18.6033 18.9297 19.2325 18.8823 19.6508 19.2408C20.0701 19.6002 20.1187 20.2315 19.7593 20.6508L19 20C19.7593 20.6508 19.7589 20.6513 19.7585 20.6517L19.7577 20.6527L19.7558 20.6549L19.7511 20.6603L19.7383 20.6748C19.7283 20.6861 19.7151 20.7006 19.699 20.718C19.6668 20.7527 19.6225 20.7992 19.5665 20.8546C19.4548 20.9651 19.2951 21.1127 19.0913 21.2748C18.6868 21.5966 18.0893 21.9908 17.3304 22.2564C15.7389 22.8134 13.6115 22.7389 11.3415 20.7526C9.61147 19.2388 8.23893 19.3134 7.33036 19.6314C6.83928 19.8033 6.43676 20.0653 6.15378 20.2904C6.0139 20.4017 5.90793 20.5002 5.83996 20.5674C5.8061 20.6009 5.78207 20.6263 5.76837 20.6411L5.75576 20.6549L5.75555 20.6551Z" fill="currentColor"/>
</svg>
