<svg width="24" height="24" viewBox="0 0 24 24" fill="none" xmlns="http://www.w3.org/2000/svg">
<path fill-rule="evenodd" clip-rule="evenodd" d="M7.76855 1.15639C8.73688 1.32484 10.0495 1.69443 11.076 2.54993C12.125 3.4242 12.5962 4.56856 12.81 5.4378C12.9182 5.87737 12.9655 6.26542 12.9859 6.54634C12.9961 6.68746 12.9997 6.80338 13.0007 6.88748C13.0011 6.92886 13.0009 6.96268 13.0005 6.98818C13.3564 6.6243 13.774 6.28203 14.2624 5.99339C15.5802 5.21456 17.0866 5.02151 18.1962 5.00177C18.7615 4.99171 19.2503 5.02631 19.5997 5.06364C19.775 5.08236 19.9167 5.10192 20.0171 5.11728C20.0673 5.12496 20.1073 5.13161 20.1361 5.13661L20.1709 5.14279L20.1818 5.14481L20.1856 5.14552L20.1871 5.14581L20.1878 5.14593C20.188 5.14598 20.1883 5.14604 19.9999 6.12812C20.9677 6.37987 20.9676 6.38018 20.9675 6.3805L20.9673 6.38121L20.9669 6.3828L20.9659 6.38675L20.9629 6.39763L20.9537 6.43104C20.946 6.45835 20.9351 6.49563 20.9209 6.54183C20.8925 6.63415 20.8506 6.76257 20.7935 6.91866C20.6797 7.22986 20.5034 7.65654 20.2499 8.12911C19.7497 9.06151 18.9107 10.2438 17.5893 11.0247C16.2724 11.803 14.8031 11.9888 13.7217 11.9995C13.4619 12.0021 13.2192 11.9946 12.9999 11.9816L12.9999 13H17.5H18.9999C19.5522 13 19.9999 13.4477 19.9999 14C19.9999 14.5523 19.5522 15 18.9999 15H18.3828L17.4923 22.124C17.4297 22.6245 17.0043 23 16.5 23H7.56402C7.06269 23 6.63884 22.6288 6.57275 22.1318L5.6242 15H4.99988C4.44759 15 3.99988 14.5523 3.99988 14C3.99988 13.4477 4.44759 13 4.99988 13H6.5H10.9999L10.9999 10.8795C10.9996 10.8646 10.9996 10.8496 10.9999 10.8346L11 7.94887C10.7696 7.92571 10.5098 7.89222 10.2317 7.84382C9.26315 7.67526 7.95023 7.30557 6.92378 6.45007C5.87472 5.57573 5.40379 4.43137 5.19019 3.56212C5.08218 3.12256 5.03506 2.73453 5.01476 2.45362C5.00456 2.31251 5.001 2.19659 5.00012 2.11249C4.99968 2.07039 4.9999 2.03611 5.00032 2.01046L5.00102 1.9785L5.00137 1.96753L5.00152 1.96333L5.00159 1.96155L5.00162 1.96074C5.00163 1.96036 5.00165 1.95999 6.00083 2.00044C5.97823 1.00069 5.97849 1.00069 5.97876 1.00068L5.97936 1.00067L5.98074 1.00064L5.98428 1.00057L5.9944 1.0004L6.02651 1.00009C6.05307 0.999929 6.08983 0.999943 6.13581 1.00051C6.2277 1.00165 6.35689 1.005 6.51554 1.01369C6.83172 1.031 7.27088 1.06981 7.76855 1.15639ZM6.00083 2.00044L5.97823 1.00069C5.45055 1.01262 5.023 1.43261 5.00165 1.95999L6.00083 2.00044ZM7.13144 3.08089C7.13176 3.08221 7.13209 3.08354 7.13241 3.08486C7.28633 3.71122 7.59699 4.4076 8.20426 4.91372C8.83413 5.43869 9.7392 5.72805 10.5746 5.87343C10.6758 5.89105 10.7742 5.90625 10.8689 5.91936C10.8686 5.91812 10.8683 5.91689 10.868 5.91565C10.7138 5.28906 10.4028 4.59247 9.7955 4.08628C9.16562 3.5613 8.26081 3.27206 7.42577 3.1268C7.32454 3.10919 7.22612 3.09399 7.13144 3.08089ZM13.3545 9.99581C13.4651 9.99929 13.5812 10.0008 13.7019 9.99959C14.6085 9.9906 15.6796 9.83023 16.5718 9.30295C17.4596 8.77825 18.0802 7.94273 18.4874 7.18367C18.5205 7.122 18.5519 7.06131 18.5817 7.00186C18.4699 6.99964 18.3529 6.99929 18.2317 7.00145C17.2792 7.0184 16.1713 7.18842 15.2799 7.71518C14.4013 8.23444 13.8203 9.05107 13.4523 9.79031C13.4175 9.86025 13.385 9.92889 13.3545 9.99581ZM7.64181 15L8.43982 21H15.6172L16.3672 15H11.9999H7.64181ZM19.9999 6.12812L20.9677 6.37987C21.0373 6.11229 20.993 5.82784 20.8453 5.59409C20.6977 5.36033 20.4599 5.19814 20.1883 5.14604L19.9999 6.12812Z" fill="currentColor"/>
</svg>
