<svg width="24" height="24" viewBox="0 0 24 24" fill="none" xmlns="http://www.w3.org/2000/svg">
<path fill-rule="evenodd" clip-rule="evenodd" d="M12.7929 0.792893C13.1834 0.402369 13.8166 0.402369 14.2071 0.792893L17.2071 3.79289C17.5976 4.18342 17.5976 4.81658 17.2071 5.20711L17.1213 5.29289C16.7308 5.68342 16.7308 6.31658 17.1213 6.70711L17.2929 6.87868C17.6834 7.2692 18.3166 7.2692 18.7071 6.87868L18.7929 6.79289C19.1834 6.40237 19.8166 6.40237 20.2071 6.79289L23.2071 9.79289C23.5976 10.1834 23.5976 10.8166 23.2071 11.2071L17.2071 17.2071L11.2071 23.2071C10.8166 23.5976 10.1834 23.5976 9.79289 23.2071L6.79289 20.2071C6.40237 19.8166 6.40237 19.1834 6.79289 18.7929L6.87868 18.7071C7.2692 18.3166 7.2692 17.6834 6.87868 17.2929L6.70711 17.1213C6.31658 16.7308 5.68342 16.7308 5.29289 17.1213L5.20711 17.2071C4.81658 17.5976 4.18342 17.5976 3.79289 17.2071L0.792893 14.2071C0.402369 13.8166 0.402369 13.1834 0.792893 12.7929L6.79289 6.79289L12.7929 0.792893ZM8.8834 7.53081C9.08433 7.90882 9.02557 8.38864 8.70711 8.70711C8.38864 9.02557 7.90882 9.08433 7.53081 8.8834L2.91421 13.5L4.59244 15.1782C5.72648 14.5754 7.16593 14.7517 8.12132 15.7071L8.29289 15.8787C9.24828 16.8341 9.42457 18.2735 8.82177 19.4076L10.5 21.0858L15.1166 16.4692C14.9157 16.0912 14.9744 15.6114 15.2929 15.2929C15.6114 14.9744 16.0912 14.9157 16.4692 15.1166L21.0858 10.5L19.4076 8.82177C18.2735 9.42457 16.8341 9.24828 15.8787 8.29289L15.7071 8.12132C14.7517 7.16593 14.5754 5.72648 15.1782 4.59244L13.5 2.91421L8.8834 7.53081ZM9.29289 9.29289C9.68342 8.90237 10.3166 8.90237 10.7071 9.29289L11.7071 10.2929C12.0976 10.6834 12.0976 11.3166 11.7071 11.7071C11.3166 12.0976 10.6834 12.0976 10.2929 11.7071L9.29289 10.7071C8.90237 10.3166 8.90237 9.68342 9.29289 9.29289ZM12.2929 12.2929C12.6834 11.9024 13.3166 11.9024 13.7071 12.2929L14.7071 13.2929C15.0976 13.6834 15.0976 14.3166 14.7071 14.7071C14.3166 15.0976 13.6834 15.0976 13.2929 14.7071L12.2929 13.7071C11.9024 13.3166 11.9024 12.6834 12.2929 12.2929Z" fill="currentColor"/>
</svg>
