<svg width="24" height="24" viewBox="0 0 24 24" fill="none" xmlns="http://www.w3.org/2000/svg">
<path fill-rule="evenodd" clip-rule="evenodd" d="M2.00002 5C1.44774 5 1.00002 5.44772 1.00002 6V6.99464L1.00001 7L0.999992 21C0.999992 21.5523 1.44771 22 1.99999 22C2.55228 22 2.99999 21.5523 2.99999 21L3 14.3461C3.4781 14.8231 4.0337 15.232 4.65776 15.5517C5.74678 16.1097 6.93387 16.6876 7.67111 16.9444C8.50175 17.2336 9.44532 17.7029 10.2028 18.1154C10.5766 18.319 10.8957 18.5035 11.1207 18.6368C11.2331 18.7034 11.3217 18.757 11.3815 18.7935L11.4489 18.8349L11.4652 18.845L11.4688 18.8472L11.4693 18.8475L11.4694 18.8476L11.4694 18.8476L11.4694 18.8476L11.4694 18.8476C11.794 19.0508 12.2061 19.0508 12.5306 18.8476L12.5307 18.8475L12.5312 18.8472L12.5348 18.845L12.5511 18.8349L12.6185 18.7935C12.6783 18.757 12.7669 18.7034 12.8793 18.6368C13.1043 18.5035 13.4234 18.319 13.7972 18.1154C14.5547 17.7029 15.4982 17.2336 16.3289 16.9444C17.0661 16.6876 18.2532 16.1097 19.3423 15.5517C21.6318 14.3788 23 12.0051 23 9.47042V6C23 5.44772 22.5523 5 22 5H2.00002ZM12.8407 16.359C12.5136 16.5371 12.2259 16.7015 12 16.8336C11.7741 16.7015 11.4864 16.5371 11.1593 16.359C10.3708 15.9296 9.31437 15.3988 8.32888 15.0556C7.74419 14.852 6.6792 14.3402 5.56969 13.7718C3.98145 12.9581 3.00002 11.2929 3.00002 9.47043V7H21V9.47042C21 11.2929 20.0186 12.9581 18.4303 13.7717C17.3208 14.3402 16.2558 14.852 15.6711 15.0556C14.6856 15.3988 13.6292 15.9296 12.8407 16.359ZM8.62259 9.52776C9.63838 9.81885 9.81586 10.9209 9.69696 11.657C9.67494 11.7933 9.53566 11.8699 9.40293 11.8319L6.74034 11.0689C6.60761 11.0308 6.53015 10.892 6.58611 10.7658C6.88903 10.0824 7.68551 9.25922 8.62259 9.52776ZM14.3031 11.657C14.1842 10.9209 14.3617 9.81885 15.3774 9.52776C16.3145 9.25922 17.111 10.0824 17.4139 10.7658C17.4699 10.892 17.3924 11.0308 17.2597 11.0689L14.5971 11.8319C14.4644 11.8699 14.3251 11.7933 14.3031 11.657Z" fill="currentColor"/>
</svg>
