<svg width="24" height="24" viewBox="0 0 24 24" fill="none" xmlns="http://www.w3.org/2000/svg">
<path fill-rule="evenodd" clip-rule="evenodd" d="M17.3693 4.0963C15.9122 2.63457 13.5485 2.63457 12.0915 4.0963C10.6362 5.55626 10.6362 7.922 12.0915 9.38196C12.1017 9.39218 12.1121 9.40217 12.1227 9.41194L16.823 13.736C17.2057 14.088 17.7943 14.088 18.177 13.736L22.8773 9.41194C22.8879 9.40217 22.8983 9.39218 22.9085 9.38197C24.3638 7.922 24.3638 5.55626 22.9085 4.0963C21.4515 2.63457 19.0877 2.63457 17.6307 4.0963L17.5 4.2274L17.3693 4.0963ZM13.5079 5.50825C14.1835 4.83058 15.2773 4.83058 15.9528 5.50825L16.7918 6.34985C16.9794 6.53808 17.2342 6.64387 17.5 6.64387C17.7658 6.64387 18.0206 6.53808 18.2082 6.34985L19.0472 5.50825C19.7227 4.83058 20.8165 4.83058 21.4921 5.50825C22.1648 6.18314 22.1693 7.27585 21.5055 7.95632L17.5 11.6412L13.4944 7.95632C12.8307 7.27584 12.8352 6.18314 13.5079 5.50825ZM5.15037 11C4.19981 11 3.3055 11.4505 2.7397 12.2143L1.19651 14.2976C0.867771 14.7414 0.961044 15.3677 1.40484 15.6964C1.84863 16.0252 2.47489 15.9319 2.80362 15.4881L4.34682 13.4048C4.53542 13.1502 4.83352 13 5.15037 13H10.7769C10.8405 13 10.8997 13.0325 10.9338 13.0862C10.9975 13.1866 10.9518 13.3203 10.8398 13.3606L7.23277 14.6591C6.7855 14.8201 6.5134 15.2738 6.58194 15.7442C6.65048 16.2146 7.04071 16.5717 7.51533 16.5984L19.4423 17.2693C19.6095 17.2787 19.7673 17.3499 19.885 17.4691C20.2798 17.8688 20.0426 18.5477 19.4848 18.6147L9.18783 19.8503C8.4703 19.9364 7.74263 19.8659 7.05495 19.6438L2.73607 18.2484C2.21053 18.0786 1.64685 18.367 1.47706 18.8926C1.30728 19.4181 1.59567 19.9818 2.1212 20.1516L6.44009 21.5469C7.40284 21.8579 8.42158 21.9566 9.42612 21.836L19.7231 20.6004C21.9322 20.3353 22.8714 17.6467 21.308 16.0637C20.8418 15.5917 20.2169 15.3097 19.5546 15.2725L12.1865 14.858C12.9935 14.1785 13.2283 12.9688 12.6222 12.0142C12.2212 11.3826 11.525 11 10.7769 11H5.15037Z" fill="currentColor"/>
</svg>
