<svg width="24" height="24" viewBox="0 0 24 24" fill="none" xmlns="http://www.w3.org/2000/svg">
<path fill-rule="evenodd" clip-rule="evenodd" d="M16 2C17.1046 2 18 2.89543 18 4V7L21 7C22.1046 7 23 7.89543 23 9L23 17.5C23 18.6046 22.1046 19.5 21 19.5H18.5V22C18.5 22.3729 18.2925 22.7148 17.9618 22.887C17.6311 23.0592 17.232 23.0331 16.9265 22.8192L12.1848 19.5L8 19.5C6.89543 19.5 6 18.6046 6 17.5V14.5L3 14.5C1.89543 14.5 1 13.6046 1 12.5L1 4C1 2.89543 1.89543 2 3 2L16 2ZM8 14.5V17.5L12.1848 17.5C12.5951 17.5 12.9955 17.6262 13.3317 17.8615L16.5 20.0793V18.5C16.5 18.2348 16.6054 17.9804 16.7929 17.7929C16.9804 17.6054 17.2348 17.5 17.5 17.5L21 17.5L21 9L18 9V12.5C18 13.6046 17.1046 14.5 16 14.5L11.5 14.5L8 14.5ZM16 9L16 12.5L11.5 12.5L8 12.5V9L16 9ZM16 7L8 7C6.89543 7 6 7.89543 6 9V12.5L3 12.5L3 4L16 4V7Z" fill="currentColor"/>
</svg>
