<svg width="24" height="24" viewBox="0 0 24 24" fill="none" xmlns="http://www.w3.org/2000/svg">
<path fill-rule="evenodd" clip-rule="evenodd" d="M12 21C16.9706 21 21 16.9706 21 12C21 7.02944 16.9706 3 12 3C7.02944 3 3 7.02944 3 12C3 16.9706 7.02944 21 12 21ZM16.2458 10.1662C16.6137 9.75436 16.5781 9.12219 16.1662 8.75425C15.7544 8.3863 15.1222 8.42191 14.7542 8.83378L11.0689 12.959L9.77582 11.369C9.42735 10.9406 8.79751 10.8757 8.36904 11.2242C7.94057 11.5727 7.87571 12.2025 8.22418 12.631L10.2574 15.131C10.4422 15.3582 10.7173 15.4929 11.01 15.4997C11.3028 15.5065 11.5838 15.3846 11.779 15.1662L16.2458 10.1662Z" fill="currentColor"/>
</svg>
