<svg width="24" height="24" viewBox="0 0 24 24" fill="none" xmlns="http://www.w3.org/2000/svg">
<path fill-rule="evenodd" clip-rule="evenodd" d="M10 3C9.44772 3 9 3.44772 9 4C9 4.55228 9.44772 5 10 5L14 5C14.5523 5 15 4.55228 15 4C15 3.44772 14.5523 3 14 3L10 3ZM5 8H5.05965L5.80189 20.0614C5.83435 20.5889 6.27157 21 6.8 21H17.2C17.7284 21 18.1657 20.5889 18.1981 20.0614L18.9404 8H19C19.5523 8 20 7.55228 20 7C20 6.44771 19.5523 6 19 6H18.0072H17.9909L6.00909 6H5.9928H5C4.44772 6 4 6.44772 4 7C4 7.55228 4.44772 8 5 8ZM7.74035 19L7.06343 8L16.9366 8L16.2596 19H7.74035Z" fill="currentColor"/>
</svg>
