<svg width="24" height="24" viewBox="0 0 24 24" fill="none" xmlns="http://www.w3.org/2000/svg">
<path fill-rule="evenodd" clip-rule="evenodd" d="M4 6C4 6.55228 4.44772 7 5 7L15 7C15.5523 7 16 6.55228 16 6C16 5.44771 15.5523 5 15 5H5C4.44772 5 4 5.44772 4 6ZM3 11C2.44772 11 2 10.5523 2 10C2 9.44772 2.44772 9 3 9L13 9C13.5523 9 14 9.44771 14 10C14 10.5523 13.5523 11 13 11L3 11ZM3 14C3 14.5523 3.44772 15 4 15H14C14.5523 15 15 14.5523 15 14C15 13.4477 14.5523 13 14 13L4 13C3.44772 13 3 13.4477 3 14ZM2 18C2 18.5523 2.44772 19 3 19H13C13.5523 19 14 18.5523 14 18C14 17.4477 13.5523 17 13 17H3C2.44772 17 2 17.4477 2 18ZM16.8742 8.51436C16.6059 8.03157 15.9971 7.85763 15.5144 8.12584C15.0316 8.39406 14.8576 9.00286 15.1258 9.48564L20.1258 18.4856C20.3941 18.9684 21.0029 19.1424 21.4856 18.8742C21.9684 18.6059 22.1424 17.9971 21.8742 17.5144L16.8742 8.51436Z" fill="currentColor"/>
</svg>
