<svg width="24" height="24" viewBox="0 0 24 24" fill="none" xmlns="http://www.w3.org/2000/svg">
<path fill-rule="evenodd" clip-rule="evenodd" d="M1.5 6C1.5 4.89543 2.39543 4 3.5 4H20.5C21.6046 4 22.5 4.89543 22.5 6V16.5C22.5 17.6046 21.6046 18.5 20.5 18.5L16 18.5V21C16 21.3729 15.7925 21.7148 15.4618 21.887C15.1311 22.0592 14.732 22.0331 14.4265 21.8192L9.68478 18.5L3.5 18.5C2.39543 18.5 1.5 17.6046 1.5 16.5V6ZM20.5 6L3.5 6V16.5L9.68478 16.5C10.0951 16.5 10.4955 16.6262 10.8317 16.8615L14 19.0793V17.5C14 17.2348 14.1054 16.9804 14.2929 16.7929C14.4804 16.6054 14.7348 16.5 15 16.5L20.5 16.5V6Z" fill="currentColor"/>
</svg>
