<svg width="24" height="24" viewBox="0 0 24 24" fill="none" xmlns="http://www.w3.org/2000/svg">
<path fill-rule="evenodd" clip-rule="evenodd" d="M21.9487 16.8162C22.1095 16.3336 21.8825 15.8072 21.4211 15.593L15.9429 13.0495C15.6088 12.8944 15.2164 12.9355 14.9217 13.1565L12.2857 15.1336C12.2241 15.0985 12.1575 15.0594 12.0865 15.0159C11.6399 14.7428 11.0196 14.3011 10.3593 13.6407C9.69893 12.9804 9.25719 12.3601 8.98406 11.9135C8.9406 11.8425 8.90145 11.7759 8.86642 11.7143L10.8435 9.07826C11.0645 8.78358 11.1056 8.39125 10.9505 8.05715L8.40701 2.5789C8.22297 2.18251 7.80284 1.95154 7.36954 2.00856C6.12308 2.17258 4.66894 2.46755 3.5976 3.69132C3.06439 4.30038 2.67386 5.15121 2.41726 5.95746C2.15735 6.7741 1.99881 7.65922 2.00001 8.4009C2.00046 16.0948 7.81128 22 15.5217 22C16.5753 22 18.2105 21.8431 19.6003 20.7998C21.0165 19.7367 21.5511 18.0597 21.8591 17.0935C21.8911 16.9929 21.9208 16.8999 21.9487 16.8162ZM2.00001 8.4009C2.00001 8.4012 2.00001 8.4015 2.00001 8.4018L3.00001 8.4H2.00001C2.00001 8.4003 2.00001 8.4006 2.00001 8.4009ZM7.69566 11.6087C6.76525 11.9752 6.76536 11.9755 6.76547 11.9758L6.7657 11.9763L6.76619 11.9776L6.76733 11.9805L6.7702 11.9876L6.77836 12.0075C6.78488 12.0232 6.79361 12.0437 6.80465 12.0689C6.82672 12.1192 6.85806 12.1879 6.89955 12.2726C6.98249 12.4421 7.10622 12.6764 7.27791 12.9571C7.62108 13.5182 8.1576 14.2675 8.94507 15.0549C9.73255 15.8424 10.4818 16.3789 11.0429 16.7221C11.3236 16.8938 11.5579 17.0175 11.7274 17.1004C11.8121 17.1419 11.8808 17.1733 11.9311 17.1953C11.9563 17.2064 11.9768 17.2151 11.9925 17.2216L12.0124 17.2298L12.0195 17.2327L12.0224 17.2338L12.0237 17.2343L12.0242 17.2345C12.0245 17.2346 12.0248 17.2347 12.3913 16.3043L12.0248 17.2347C12.3478 17.362 12.7136 17.3126 12.9913 17.1043L15.6432 15.1154L19.7685 17.0308C19.476 17.8652 19.1134 18.6645 18.3997 19.2003C17.5289 19.8539 16.4247 20 15.5217 20C8.93193 20 4.00001 15.0062 4.00001 8.4L4 8.39821C3.99913 7.9093 4.1102 7.23283 4.32307 6.56401C4.53934 5.88447 4.82491 5.32569 5.10242 5.00871C5.53352 4.51627 6.10826 4.2674 6.91151 4.10714L8.88457 8.35681L6.89566 11.0087C6.68738 11.2864 6.63802 11.6522 6.76525 11.9752L7.69566 11.6087ZM12.7604 15.3749L12.7612 15.3753L12.7627 15.3759L12.7628 15.3759C12.7628 15.3759 12.762 15.3756 12.7604 15.3749Z" fill="currentColor"/>
</svg>
