<svg width="24" height="24" viewBox="0 0 24 24" fill="none" xmlns="http://www.w3.org/2000/svg">
<path fill-rule="evenodd" clip-rule="evenodd" d="M3.5 4.00017C2.39543 4.00017 1.5 4.8956 1.5 6.00017V16.5002C1.5 17.6047 2.39543 18.5002 3.5 18.5002L9.68478 18.5002L14.4265 21.8194C14.732 22.0332 15.1311 22.0593 15.4618 21.8871C15.7925 21.7149 16 21.373 16 21.0002V18.5002L20.5 18.5002C21.6046 18.5002 22.5 17.6047 22.5 16.5002V6.00017C22.5 4.8956 21.6046 4.00017 20.5 4.00017H3.5ZM3.5 6.00017L20.5 6.00017V16.5002L15 16.5002C14.7348 16.5002 14.4804 16.6055 14.2929 16.7931C14.1054 16.9806 14 17.2349 14 17.5002V19.0795L10.8317 16.8617C10.4955 16.6264 10.0951 16.5002 9.68478 16.5002L3.5 16.5002V6.00017ZM7.5 12.75C8.32843 12.75 9 12.0784 9 11.25C9 10.4216 8.32843 9.75 7.5 9.75C6.67157 9.75 6 10.4216 6 11.25C6 12.0784 6.67157 12.75 7.5 12.75ZM13.5 11.25C13.5 12.0784 12.8284 12.75 12 12.75C11.1716 12.75 10.5 12.0784 10.5 11.25C10.5 10.4216 11.1716 9.75 12 9.75C12.8284 9.75 13.5 10.4216 13.5 11.25ZM16.5 12.75C17.3284 12.75 18 12.0784 18 11.25C18 10.4216 17.3284 9.75 16.5 9.75C15.6716 9.75 15 10.4216 15 11.25C15 12.0784 15.6716 12.75 16.5 12.75Z" fill="currentColor"/>
</svg>
