<svg width="24" height="24" viewBox="0 0 24 24" fill="none" xmlns="http://www.w3.org/2000/svg">
<path fill-rule="evenodd" clip-rule="evenodd" d="M7 7C7 6.44772 7.44772 6 8 6C8.55229 6 9 6.44772 9 7C9 7.55228 8.55229 8 8 8C7.44772 8 7 7.55228 7 7ZM8 4C6.34315 4 5 5.34315 5 7C5 8.65685 6.34315 10 8 10C9.65685 10 11 8.65685 11 7C11 5.34315 9.65685 4 8 4ZM2.12364 18H9H13.8764C13.3289 15.8027 11.0162 14 8 14C4.98385 14 2.67112 15.8027 2.12364 18ZM1 20H9H15H23C23.5523 20 24 19.5523 24 19C24 14.9949 20.2681 12 16 12C14.548 12 13.1785 12.3384 11.9954 12.937C10.8045 12.3374 9.43247 12 8 12C3.7319 12 0 14.9949 0 19C0 19.5523 0.447715 20 1 20ZM19 7C19 8.65685 17.6569 10 16 10C14.3431 10 13 8.65685 13 7C13 5.34315 14.3431 4 16 4C17.6569 4 19 5.34315 19 7Z" fill="currentColor"/>
</svg>
