<svg width="24" height="24" viewBox="0 0 24 24" fill="none" xmlns="http://www.w3.org/2000/svg">
<path fill-rule="evenodd" clip-rule="evenodd" d="M11 4C11 3.44772 10.5523 3 10 3C9.44772 3 9 3.44772 9 4V7V10C9 10.5523 9.44772 11 10 11C10.5523 11 11 10.5523 11 10V8H21C21.5523 8 22 7.55228 22 7C22 6.44772 21.5523 6 21 6H11V4ZM3 16C2.44772 16 2 16.4477 2 17C2 17.5523 2.44772 18 3 18H14.5C15.0523 18 15.5 17.5523 15.5 17C15.5 16.4477 15.0523 16 14.5 16H3ZM18 13C18.5523 13 19 13.4477 19 14V16H21C21.5523 16 22 16.4477 22 17C22 17.5523 21.5523 18 21 18H19V20C19 20.5523 18.5523 21 18 21C17.4477 21 17 20.5523 17 20V17V14C17 13.4477 17.4477 13 18 13ZM6.5 8C7.05228 8 7.5 7.55228 7.5 7C7.5 6.44772 7.05228 6 6.5 6H3C2.44772 6 2 6.44772 2 7C2 7.55228 2.44772 8 3 8H6.5Z" fill="currentColor"/>
</svg>
