<svg width="24" height="24" viewBox="0 0 24 24" fill="none" xmlns="http://www.w3.org/2000/svg">
<path fill-rule="evenodd" clip-rule="evenodd" d="M10 6.5C10 5.39543 10.8954 4.5 12 4.5C13.1046 4.5 14 5.39543 14 6.5C14 7.60457 13.1046 8.5 12 8.5C10.8954 8.5 10 7.60457 10 6.5ZM12 2.5C9.79086 2.5 8 4.29086 8 6.5C8 8.70914 9.79086 10.5 12 10.5C14.2091 10.5 16 8.70914 16 6.5C16 4.29086 14.2091 2.5 12 2.5ZM4.11584 19C4.74126 16.3076 7.84112 14 12 14C13.316 14 14.5518 14.24 15.6395 14.6604C15.9521 14.7812 16.2522 14.9169 16.5382 15.0657C17.0281 15.3208 17.6319 15.1304 17.887 14.6406C18.142 14.1507 17.9517 13.5468 17.4618 13.2918C17.1088 13.108 16.7411 12.942 16.3605 12.7949C15.0383 12.2838 13.5577 12 12 12C6.72559 12 2 15.3624 2 20C2 20.5523 2.44772 21 3 21H12C12.5523 21 13 20.5523 13 20C13 19.4477 12.5523 19 12 19H4.11584ZM22.633 14.7542C23.0449 15.1222 23.0805 15.7544 22.7125 16.1662L18.2458 21.1662C18.0506 21.3846 17.7696 21.5065 17.4768 21.4997C17.1841 21.4929 16.909 21.3582 16.7242 21.131L14.691 18.631C14.3425 18.2025 14.4074 17.5727 14.8358 17.2242C15.2643 16.8757 15.8941 16.9406 16.2426 17.369L17.5357 18.959L21.221 14.8338C21.589 14.4219 22.2212 14.3863 22.633 14.7542Z" fill="currentColor"/>
</svg>
