<svg width="24" height="24" viewBox="0 0 24 24" fill="none" xmlns="http://www.w3.org/2000/svg">
<path d="M3.95355 15.5932C3.42692 15.5932 3 15.1549 3 14.6142C3 14.0735 3.42692 13.6351 3.95355 13.6351H4.93474C4.9071 13.2662 4.9071 12.8973 4.9071 12.5C4.9071 12.0459 4.93474 11.6203 4.96237 11.1946H3.93973C3.42073 11.1946 3 10.7626 3 10.2297C3 9.69685 3.42073 9.26487 3.93973 9.26487H5.21113C6.06794 4.72432 8.83184 2 12.6737 2C15.5866 2 17.7407 3.4468 18.9057 5.98557C19.1658 6.55248 18.8635 7.20303 18.2959 7.43343L18.0949 7.515C17.468 7.76947 16.7762 7.41102 16.4841 6.78723C15.7336 5.1845 14.5432 4.29865 12.6737 4.29865C10.1862 4.29865 8.50018 6.11486 7.83684 9.26487H12.7755C13.376 9.26487 13.8225 9.83539 13.6931 10.4376C13.5981 10.8797 13.2165 11.1946 12.7755 11.1946L7.58809 11.1946C7.56045 11.6203 7.53281 12.0459 7.53281 12.5C7.53281 12.8973 7.53281 13.2662 7.56045 13.6351L11.8499 13.6351C12.4581 13.6351 12.9109 14.2119 12.7817 14.8222C12.6864 15.2722 12.2984 15.5932 11.8499 15.5932L7.8092 15.5932C8.4449 18.8568 10.1585 20.7014 12.6737 20.7014C14.5432 20.7014 15.7336 19.8155 16.4841 18.2128C16.7762 17.589 17.468 17.2305 18.0949 17.485L18.2959 17.5666C18.8635 17.797 19.1658 18.4475 18.9057 19.0144C17.7407 21.5532 15.5866 23 12.6737 23C8.80421 23 6.01266 20.2189 5.18349 15.5932H3.95355Z" fill="currentColor"/>
</svg>
