<svg width="24" height="24" viewBox="0 0 24 24" fill="none" xmlns="http://www.w3.org/2000/svg">
<path fill-rule="evenodd" clip-rule="evenodd" d="M12 0C12.5523 0 13 0.447715 13 1V2.875H14.5C17.3304 2.875 19.625 5.16955 19.625 8.00002C19.625 9.50737 18.9743 10.8627 17.9384 11.8005C19.2606 12.7273 20.125 14.2627 20.125 16C20.125 18.8305 17.8305 21.125 15 21.125H13V23C13 23.5523 12.5523 24 12 24C11.4477 24 11 23.5523 11 23V21.125H7C6.37868 21.125 5.875 20.6213 5.875 20V12V4C5.875 3.37868 6.37868 2.875 7 2.875H11V1C11 0.447715 11.4477 0 12 0ZM14.5166 10.875C16.0968 10.866 17.375 9.5823 17.375 8.00002C17.375 6.41219 16.0878 5.125 14.5 5.125H8.125V10.875H14.5166ZM8.125 13.125L14.4999 13.125L14.5223 13.125H15C16.5878 13.125 17.875 14.4122 17.875 16C17.875 17.5878 16.5878 18.875 15 18.875H8.125V13.125Z" fill="currentColor"/>
</svg>
