<svg width="24" height="24" viewBox="0 0 24 24" fill="none" xmlns="http://www.w3.org/2000/svg">
<path fill-rule="evenodd" clip-rule="evenodd" d="M12.5223 1C11.9165 1 11.4254 1.48047 11.4254 2.07317V3.26933C8.64247 3.64078 6.52365 5.43323 6.52365 8.01639C6.52365 11.0072 8.93908 11.8247 11.4254 12.3639V18.4611C10.1083 18.2263 9.01758 17.5892 8.17787 16.5579C7.74001 16.0201 6.92493 15.8503 6.38506 16.2905C5.9882 16.614 5.86605 17.173 6.17099 17.5809C7.30721 19.101 9.20567 20.1232 11.4254 20.4122V21.9268C11.4254 22.5195 11.9165 23 12.5223 23C13.1281 23 13.6192 22.5195 13.6192 21.9268V20.435C16.6595 20.1043 19 18.2392 19 15.4062C19 12.0776 16.2735 11.2983 13.6192 10.7553V5.13612C14.8196 5.34052 15.7691 5.91307 16.4859 6.75645C16.9231 7.2709 17.7148 7.43946 18.2383 7.00896C18.6142 6.69977 18.7332 6.17156 18.4472 5.78092C17.4477 4.41568 15.7565 3.49107 13.6192 3.2473V2.07317C13.6192 1.48047 13.1281 1 12.5223 1ZM11.4254 5.14948C9.79313 5.44545 8.64729 6.43988 8.64729 7.87473C8.64729 9.30517 9.84711 9.89999 11.4254 10.2802V5.14948ZM13.6192 12.8329V18.5226C15.477 18.2864 16.8764 17.3184 16.8764 15.5479C16.8764 13.8718 15.4288 13.2579 13.6192 12.8329Z" fill="currentColor"/>
</svg>
