<svg width="24" height="24" viewBox="0 0 24 24" fill="none" xmlns="http://www.w3.org/2000/svg">
<path d="M7.39458 23C5.43862 23 3.97165 21.7514 4.00042 19.7932C4.00042 17.9486 5.49615 16.5865 7.59593 16.5865C8.45885 16.5865 9.23548 16.8419 9.92582 17.2108V16.8986C9.92582 15.7919 9.52312 14.9649 9.00537 14H6.63997C6.08768 14 5.63997 13.5523 5.63997 13C5.63997 12.4477 6.08768 12 6.63997 12H8C7.48225 10.9216 7 9.4473 7 8C7 4.56622 9.63818 2 13.6076 2C17.1561 2 19.5268 4.33615 19.9366 7.50257C20.0075 8.05028 19.5523 8.5 19 8.5C18.4477 8.5 18.0116 8.04844 17.9151 7.50465C17.5331 5.35121 15.891 4 13.6076 4C11.1051 4 9.3 5.88784 9.3 8.35676C9.3 9.66216 9.98225 10.9216 10.5 12L15 12C15.5523 12 16 12.4477 16 13C16 13.5523 15.5523 14 15 14H11.35C11.7239 14.8797 12.1 15.7068 12.1 16.8135C12.1 17.4095 12.0544 18.0338 11.9393 18.6014C13.1762 19.623 14.3604 21.0703 16 21.0703C18.1308 21.0104 18.7342 19.7126 18.9294 17.9526C18.9884 17.4214 19.4206 17 19.955 17H20C20.5523 17 21.0065 17.4494 20.9484 17.9986C20.6396 20.9196 18.9617 23 16.3977 23C14.0966 23 12.4858 21.7797 11.1627 20.5878C10.3573 21.9784 9.0629 23 7.39458 23ZM6.10019 19.7649C6.10019 20.5878 6.67548 21.0703 7.45211 21.0703C8.43009 21.0703 9.14919 20.3608 9.55189 19.2257C8.91908 18.7432 8.31503 18.4027 7.62469 18.4027C6.73301 18.4027 6.10019 18.8851 6.10019 19.7649Z" fill="currentColor"/>
</svg>
