<svg width="24" height="24" viewBox="0 0 24 24" fill="none" xmlns="http://www.w3.org/2000/svg">
<path fill-rule="evenodd" clip-rule="evenodd" d="M6.37547 13L18.6264 13C18.8332 13 19.0009 12.8323 19.0009 12.6254C19.0009 11.6554 18.3785 10.7948 17.4572 10.4911L16.3678 10.1319C16.1029 10.0446 15.8547 9.91314 15.6336 9.74309C15.0245 9.27456 14.6676 8.54969 14.6676 7.78124L14.6676 3C14.6676 2.44772 14.2199 2 13.6676 2H11.3342C10.782 2 10.3342 2.44772 10.3342 3L10.3342 7.78125C10.3342 8.5497 9.97733 9.27456 9.36824 9.74309C9.14717 9.91314 8.89895 10.0446 8.63407 10.1319L7.54463 10.4911C6.62334 10.7948 6.00091 11.6554 6.00091 12.6254C6.00091 12.8323 6.16861 13 6.37547 13ZM6.32272 15C6.07595 15 5.87591 15.203 5.87591 15.4497C5.87591 17.1304 5.63704 18.819 5.16645 20.4324C5.08368 20.7162 5.29652 21 5.59213 21H7.79165C7.96112 21 8.11905 20.9142 8.21123 20.772L9.05215 19.4745C9.3417 19.0278 10.036 19.2828 9.96758 19.8108L9.88656 20.4357C9.84778 20.7349 10.0807 21 10.3824 21L16.0009 21C17.6578 21 19.0009 19.6569 19.0009 18L19.0009 15.5C19.0009 15.2239 18.7771 15 18.5009 15L6.32272 15Z" fill="currentColor"/>
</svg>
