<svg width="24" height="24" viewBox="0 0 24 24" fill="none" xmlns="http://www.w3.org/2000/svg">
<path fill-rule="evenodd" clip-rule="evenodd" d="M12 2C11.4477 2 11 2.44772 11 3V12C11 12.5523 11.4477 13 12 13H21C21.5523 13 22 12.5523 22 12C22 6.47715 17.5228 2 12 2ZM13 11V4.06189C16.6187 4.51314 19.4869 7.38128 19.9381 11H13ZM8.56379 5.92694C9.07573 5.71971 9.32274 5.13672 9.11552 4.62478C8.90829 4.11285 8.3253 3.86584 7.81336 4.07306C4.40632 5.4522 2 8.79302 2 12.6983C2 17.8355 6.16452 22 11.3017 22C15.207 22 18.5478 19.5937 19.9269 16.1866C20.1342 15.6747 19.8871 15.0917 19.3752 14.8845C18.8633 14.6773 18.2803 14.9243 18.0731 15.4362C16.9891 18.114 14.3645 20 11.3017 20C7.26909 20 4 16.7309 4 12.6983C4 9.63552 5.88602 7.01087 8.56379 5.92694Z" fill="currentColor"/>
</svg>
