<svg width="24" height="24" viewBox="0 0 24 24" fill="none" xmlns="http://www.w3.org/2000/svg">
<path fill-rule="evenodd" clip-rule="evenodd" d="M3 5C3 3.89543 3.89543 3 5 3H19C20.1046 3 21 3.89543 21 5V19C21 20.1046 20.1046 21 19 21H5C3.89543 21 3 20.1046 3 19V5ZM19 9H5V19H19V9ZM8.125 14.5C8.125 14.2679 8.21719 14.0454 8.38128 13.8813L10.3813 11.8813C10.723 11.5396 11.277 11.5396 11.6187 11.8813C11.9604 12.223 11.9604 12.777 11.6187 13.1187L11.1124 13.625H15C15.4833 13.625 15.875 14.0168 15.875 14.5C15.875 14.9832 15.4833 15.375 15 15.375H11.1124L11.6187 15.8813C11.9604 16.223 11.9604 16.777 11.6187 17.1187C11.277 17.4604 10.723 17.4604 10.3813 17.1187L8.38128 15.1187C8.21719 14.9546 8.125 14.7321 8.125 14.5Z" fill="currentColor"/>
</svg>
