<svg width="24" height="24" viewBox="0 0 24 24" fill="none" xmlns="http://www.w3.org/2000/svg">
<path fill-rule="evenodd" clip-rule="evenodd" d="M3 5C3 3.89543 3.89543 3 5 3H19C20.1046 3 21 3.89543 21 5V19C21 20.1046 20.1046 21 19 21H5C3.89543 21 3 20.1046 3 19V5ZM19 9H5V19H19V9ZM15.875 14.5C15.875 14.2679 15.7828 14.0454 15.6187 13.8813L13.6187 11.8813C13.277 11.5396 12.723 11.5396 12.3813 11.8813C12.0396 12.223 12.0396 12.777 12.3813 13.1187L12.8876 13.625H9C8.51675 13.625 8.125 14.0168 8.125 14.5C8.125 14.9832 8.51675 15.375 9 15.375H12.8876L12.3813 15.8813C12.0396 16.223 12.0396 16.777 12.3813 17.1187C12.723 17.4604 13.277 17.4604 13.6187 17.1187L15.6187 15.1187C15.7828 14.9546 15.875 14.7321 15.875 14.5Z" fill="currentColor"/>
</svg>
