<svg width="24" height="24" viewBox="0 0 24 24" fill="none" xmlns="http://www.w3.org/2000/svg">
<path fill-rule="evenodd" clip-rule="evenodd" d="M0.552761 4.10558C1.04674 3.85859 1.64741 4.05881 1.8944 4.55279L3.61801 8.00001H9.38194L11.1055 4.55279C11.2749 4.21401 11.6212 4.00001 12 4.00001H23C23.3466 4.00001 23.6684 4.17946 23.8506 4.47427C24.0328 4.76909 24.0494 5.13723 23.8944 5.44722L22 9.23607V20C22 20.5523 21.5523 21 21 21H9.99998H2.99997C2.44769 21 1.99997 20.5523 1.99997 20V9.23607L0.105548 5.44722C-0.141442 4.95324 0.0587828 4.35257 0.552761 4.10558ZM3.99997 10V19H8.99998V10H3.99997ZM11 10V19H20V10H11ZM20.3819 8.00001L21.3819 6.00001H12.618L11.618 8.00001H20.3819Z" fill="currentColor"/>
</svg>
