<svg width="24" height="24" viewBox="0 0 24 24" fill="none" xmlns="http://www.w3.org/2000/svg">
<path fill-rule="evenodd" clip-rule="evenodd" d="M2 10C1.44772 10 1 9.55228 1 9V4C1 3.73478 1.10536 3.48043 1.29289 3.29289C1.48043 3.10536 1.73478 3 2 3H7.00001C7.55229 3 8.00001 3.44772 8.00001 4C8.00001 4.55229 7.55229 5 7 5L3 5V9C3 9.55228 2.55228 10 2 10ZM17 3C16.4477 3 16 3.44772 16 4C16 4.55228 16.4477 5 17 5H21V9C21 9.55228 21.4477 10 22 10C22.5523 10 23 9.55228 23 9V4C23 3.44772 22.5523 3 22 3H17ZM21 15V19H17C16.4477 19 16 19.4477 16 20C16 20.5523 16.4477 21 17 21H22C22.5523 21 23 20.5523 23 20V15C23 14.4477 22.5523 14 22 14C21.4477 14 21 14.4477 21 15ZM7 21C7.55228 21 8 20.5523 8 20C8 19.4477 7.55228 19 7 19H3V15C3 14.4477 2.55228 14 2 14C1.44772 14 1 14.4477 1 15V20C1 20.5523 1.44772 21 2 21H7ZM6.5 8C7.05228 8 7.5 8.44772 7.5 9V15C7.5 15.5523 7.05228 16 6.5 16C5.94772 16 5.5 15.5523 5.5 15V9C5.5 8.44772 5.94772 8 6.5 8ZM11 8.5C11 8.22386 10.7761 8 10.5 8C10.2239 8 10 8.22386 10 8.5V15.5C10 15.7761 10.2239 16 10.5 16C10.7761 16 11 15.7761 11 15.5V8.5ZM14 8C14.5523 8 15 8.44772 15 9V15C15 15.5523 14.5523 16 14 16C13.4477 16 13 15.5523 13 15V9C13 8.44772 13.4477 8 14 8ZM18.5 8.5C18.5 8.22386 18.2761 8 18 8C17.7239 8 17.5 8.22386 17.5 8.5V15.5C17.5 15.7761 17.7239 16 18 16C18.2761 16 18.5 15.7761 18.5 15.5V8.5Z" fill="currentColor"/>
</svg>
