<svg width="24" height="24" viewBox="0 0 24 24" fill="none" xmlns="http://www.w3.org/2000/svg">
<path fill-rule="evenodd" clip-rule="evenodd" d="M2 4C1.44772 4 1 4.44772 1 5V14C1 14.5523 1.44772 15 2 15C2.55228 15 3 14.5523 3 14V6H17C17.5523 6 18 5.55228 18 5C18 4.44772 17.5523 4 17 4H2ZM6 20C5.73478 20 5.48043 19.8946 5.29289 19.7071C5.10536 19.5196 5 19.2652 5 19L5 9C5 8.44772 5.44771 8 6 8L22 8C22.2652 8 22.5196 8.10536 22.7071 8.29289C22.8946 8.48043 23 8.73478 23 9L23 19C23 19.5523 22.5523 20 22 20H6ZM21 18L21 10L7 10L7 18H21ZM12 13.5C12 12.4645 12.8954 11.625 14 11.625C15.1046 11.625 16 12.4645 16 13.5V14.75C16 15.7855 15.1046 16.625 14 16.625C12.8954 16.625 12 15.7855 12 14.75V13.5Z" fill="currentColor"/>
</svg>
