<svg width="24" height="24" viewBox="0 0 24 24" fill="none" xmlns="http://www.w3.org/2000/svg">
<path fill-rule="evenodd" clip-rule="evenodd" d="M11 8.75C11 5.57436 13.5744 3 16.75 3C19.9256 3 22.5 5.57436 22.5 8.75V18.5C22.5 19.6046 21.6046 20.5 20.5 20.5H3.5C2.39543 20.5 1.5 19.6046 1.5 18.5V7.52941C1.5 6.42484 2.39543 5.52941 3.5 5.52941H7C7.55228 5.52941 8 5.97713 8 6.52941C8 7.0817 7.55228 7.52941 7 7.52941L3.5 7.52941V18.5H20.5V8.75C20.5 6.67893 18.8211 5 16.75 5C14.6789 5 13 6.67893 13 8.75V12.8698L15.2526 10.3356C15.6195 9.92285 16.2516 9.88567 16.6644 10.2526C17.0771 10.6195 17.1143 11.2516 16.7474 11.6644L12.7474 16.1644C12.5576 16.3779 12.2856 16.5 12 16.5C11.7144 16.5 11.4424 16.3779 11.2526 16.1644L7.25259 11.6644C6.88567 11.2516 6.92285 10.6195 7.33564 10.2526C7.74842 9.88567 8.38049 9.92285 8.74741 10.3356L11 12.8698V8.75Z" fill="currentColor"/>
</svg>
