<svg width="24" height="24" viewBox="0 0 24 24" fill="none" xmlns="http://www.w3.org/2000/svg">
<path fill-rule="evenodd" clip-rule="evenodd" d="M2 10C1.44772 10 1 9.55228 1 9V4C1 3.73478 1.10536 3.48043 1.29289 3.29289C1.48043 3.10536 1.73478 3 2 3H7.00001C7.55229 3 8.00001 3.44772 8.00001 4C8.00001 4.55229 7.55229 5 7 5L3 5V9C3 9.55228 2.55228 10 2 10ZM16 4C16 3.44772 16.4477 3 17 3H22C22.5523 3 23 3.44772 23 4V9C23 9.55228 22.5523 10 22 10C21.4477 10 21 9.55228 21 9V5H17C16.4477 5 16 4.55228 16 4ZM5 7.24C5 7.10745 5.10745 7 5.24 7H18.76C18.8925 7 19 7.10745 19 7.24V16.76C19 16.8925 18.8925 17 18.76 17H5.24C5.10745 17 5 16.8925 5 16.76V7.24ZM7 10C7 9.44772 7.44772 9 8 9H10C10.5523 9 11 9.44772 11 10C11 10.5523 10.5523 11 10 11H8C7.44772 11 7 10.5523 7 10ZM8 13C7.44772 13 7 13.4477 7 14C7 14.5523 7.44772 15 8 15H14C14.5523 15 15 14.5523 15 14C15 13.4477 14.5523 13 14 13H8ZM22 14C21.4477 14 21 14.4477 21 15V19H17C16.4477 19 16 19.4477 16 20C16 20.5523 16.4477 21 17 21H22C22.5523 21 23 20.5523 23 20V15C23 14.4477 22.5523 14 22 14ZM7 21C7.55228 21 8 20.5523 8 20C8 19.4477 7.55228 19 7 19H3V15C3 14.4477 2.55228 14 2 14C1.44772 14 1 14.4477 1 15V20C1 20.5523 1.44772 21 2 21H7Z" fill="currentColor"/>
</svg>
