<svg width="24" height="24" viewBox="0 0 24 24" fill="none" xmlns="http://www.w3.org/2000/svg">
<path fill-rule="evenodd" clip-rule="evenodd" d="M20.9994 8.49054C21.0457 5.13373 18.3705 2.45861 15.0138 2.50493C14.4616 2.51255 14.0077 2.07105 14.0001 1.51882C13.9925 0.96659 14.434 0.51274 14.9862 0.505121C19.4689 0.443266 23.0611 4.03522 22.9992 8.51813C22.9916 9.07036 22.5377 9.51186 21.9855 9.50424C21.4333 9.49662 20.9918 9.04277 20.9994 8.49054ZM16.7719 7.98621C16.7822 7.24259 16.196 6.65645 15.4525 6.66671C14.9003 6.67433 14.4464 6.23284 14.4388 5.6806C14.4312 5.12837 14.8727 4.67452 15.4249 4.6669C17.2945 4.6411 18.7975 6.14419 18.7717 8.01381C18.7641 8.56604 18.3102 9.00753 17.758 8.99991C17.2058 8.9923 16.7643 8.53845 16.7719 7.98621ZM4.5 5.00001C4.5 3.89544 5.39543 3.00001 6.5 3.00001H12C12.5523 3.00001 13 3.44772 13 4.00001C13 4.55229 12.5523 5.00001 12 5.00001L6.5 5.00001V21H17.5V12.0001C17.5 11.4479 17.9477 11.0001 18.5 11.0001C19.0523 11.0001 19.5 11.4479 19.5 12.0001V21C19.5 22.1046 18.6046 23 17.5 23H6.5C5.39543 23 4.5 22.1046 4.5 21V5.00001ZM9 18C8.44772 18 8 18.4477 8 19C8 19.5523 8.44772 20 9 20H15C15.5523 20 16 19.5523 16 19C16 18.4477 15.5523 18 15 18H9Z" fill="currentColor"/>
</svg>
