<svg width="24" height="24" viewBox="0 0 24 24" fill="none" xmlns="http://www.w3.org/2000/svg">
<path fill-rule="evenodd" clip-rule="evenodd" d="M2.5 6C2.5 4.89543 3.39543 4 4.5 4H19.5C20.6046 4 21.5 4.89543 21.5 6V15C21.5 16.1046 20.6046 17 19.5 17H13.0001V19H15.4707C16.0229 19 16.4707 19.4477 16.4707 20C16.4707 20.5523 16.0229 21 15.4707 21H12.0001H8.52948C7.9772 21 7.52948 20.5523 7.52948 20C7.52948 19.4477 7.9772 19 8.52948 19H11.0001V17H4.5C3.39543 17 2.5 16.1046 2.5 15V6ZM19.5 15H12.0001H4.5V6H19.5V15ZM11 7.5C10.4477 7.5 10 7.94772 10 8.5C10 9.05228 10.4477 9.5 11 9.5H13C13.5523 9.5 14 9.05228 14 8.5C14 7.94772 13.5523 7.5 13 7.5H11Z" fill="currentColor"/>
</svg>
