<svg width="24" height="24" viewBox="0 0 24 24" fill="none" xmlns="http://www.w3.org/2000/svg">
<path fill-rule="evenodd" clip-rule="evenodd" d="M3 6.5C3 5.11929 4.11929 4 5.5 4H18.5C19.8807 4 21 5.11929 21 6.5V15C21 15.5523 20.5523 16 20 16H4C3.44772 16 3 15.5523 3 15V6.5ZM5.5 6C5.22386 6 5 6.22386 5 6.5V14H19V6.5C19 6.22386 18.7761 6 18.5 6H5.5ZM0 19C0 18.4477 0.447715 18 1 18H23C23.5523 18 24 18.4477 24 19C24 19.5523 23.5523 20 23 20H1C0.447715 20 0 19.5523 0 19ZM11 7.5C10.4477 7.5 10 7.94772 10 8.5C10 9.05228 10.4477 9.5 11 9.5H13C13.5523 9.5 14 9.05228 14 8.5C14 7.94772 13.5523 7.5 13 7.5H11Z" fill="currentColor"/>
</svg>
