<svg width="24" height="24" viewBox="0 0 24 24" fill="none" xmlns="http://www.w3.org/2000/svg">
<path fill-rule="evenodd" clip-rule="evenodd" d="M4.5 4C4.5 2.89543 5.39543 2 6.5 2H17.5C18.6046 2 19.5 2.89543 19.5 4V20C19.5 21.1046 18.6046 22 17.5 22H6.5C5.39543 22 4.5 21.1046 4.5 20V4ZM17.5 4H6.5V20H17.5V4ZM10 6.5C10 5.94772 10.4477 5.5 11 5.5H13C13.5523 5.5 14 5.94772 14 6.5C14 7.05228 13.5523 7.5 13 7.5H11C10.4477 7.5 10 7.05228 10 6.5ZM9 17C8.44772 17 8 17.4477 8 18C8 18.5523 8.44772 19 9 19H15C15.5523 19 16 18.5523 16 18C16 17.4477 15.5523 17 15 17H9Z" fill="currentColor"/>
</svg>
