<svg width="24" height="24" viewBox="0 0 24 24" fill="none" xmlns="http://www.w3.org/2000/svg">
<path fill-rule="evenodd" clip-rule="evenodd" d="M12.0043 1.99992L12 1.99991L11.9957 1.99992C9.87961 2.00045 7.91349 2.39607 6.48683 2.78515C5.77008 2.98063 5.18216 3.17649 4.77061 3.32465C4.56467 3.39879 4.40243 3.46115 4.28979 3.50578C4.23346 3.5281 4.18949 3.546 4.15863 3.55874L4.12224 3.5739L4.11158 3.57841L4.10816 3.57986L4.10694 3.58038L4.10644 3.5806C4.10623 3.58069 4.10603 3.58077 4.49995 4.49992L4.10603 3.58077C3.5984 3.79833 3.36325 4.38621 3.58081 4.89384C3.79825 5.40121 4.38564 5.63638 4.89309 5.41939L4.8933 5.41931L4.89354 5.4192L4.89387 5.41906L4.89798 5.41733L4.92184 5.4074C4.9442 5.39817 4.97933 5.38384 5.02652 5.36515C5.12091 5.32774 5.26336 5.27292 5.44805 5.20643C5.63451 5.1393 5.86355 5.06046 6.12925 4.97577L7.01015 11.1414C7.08827 11.6881 7.5948 12.068 8.14154 11.9899C8.68827 11.9118 9.06816 11.4052 8.99005 10.8585L8.07489 4.45317C8.95072 4.26054 9.94832 4.09835 11 4.03202L11 10.9999C11 11.5522 11.4477 11.9999 12 11.9999C12.5523 11.9999 13 11.5522 13 10.9999V4.03202C14.0516 4.09835 15.0493 4.26055 15.9251 4.45319L15.0101 10.8585C14.9321 11.4053 15.312 11.9118 15.8587 11.9899C16.4054 12.068 16.912 11.6881 16.9901 11.1413L17.8707 4.97579C18.1364 5.06048 18.3654 5.13931 18.5519 5.20643C18.7365 5.27292 18.879 5.32774 18.9734 5.36515C19.0206 5.38384 19.0557 5.39817 19.0781 5.4074L19.1019 5.41733L19.106 5.41906L19.1064 5.4192L19.1068 5.41941C19.6143 5.63637 20.2017 5.4012 20.4191 4.89384C20.6367 4.38621 20.4015 3.79833 19.8939 3.58077L19.5 4.49992C19.8939 3.58077 19.8937 3.58069 19.8935 3.5806L19.893 3.58038L19.8917 3.57986L19.8883 3.57841L19.8777 3.5739L19.8413 3.55874C19.8104 3.546 19.7664 3.5281 19.7101 3.50578C19.5975 3.46115 19.4352 3.39879 19.2293 3.32465C18.8177 3.17649 18.2298 2.98063 17.5131 2.78515C16.0864 2.39607 14.1203 2.00045 12.0043 1.99992ZM4.76788 13.0365L4.76811 13.0365L4.7686 13.0366L4.77424 13.0382L4.80068 13.0454C4.82495 13.0519 4.86234 13.0618 4.91207 13.0746C5.01154 13.1003 5.16024 13.1377 5.35182 13.1828C5.73518 13.2731 6.28895 13.3944 6.9624 13.5158C8.31377 13.7594 10.1258 13.9999 11.9999 13.9999C13.874 13.9999 15.6861 13.7594 17.0376 13.5158C17.711 13.3944 18.2649 13.2731 18.6483 13.1828C18.8399 13.1377 18.9886 13.1003 19.0881 13.0746C19.1378 13.0618 19.1752 13.0519 19.1995 13.0454L19.2259 13.0382L19.2315 13.0366L19.232 13.0365L19.2323 13.0364C19.7643 12.8885 20.3155 13.1998 20.4635 13.7318C20.6116 14.2639 20.3003 14.8152 19.7682 14.9633L19.5001 13.9999C19.7682 14.9633 19.7681 14.9633 19.7679 14.9634L19.7675 14.9635L19.7665 14.9638L19.7635 14.9646L19.7535 14.9674L19.7182 14.9769C19.6879 14.985 19.6443 14.9966 19.5881 15.0111C19.4758 15.0401 19.3132 15.0809 19.1069 15.1295C18.7407 15.2158 18.2357 15.3269 17.628 15.4407L18.9744 21.275C19.0986 21.8132 18.763 22.3501 18.2249 22.4743C17.6867 22.5985 17.1498 22.2629 17.0256 21.7248L15.6476 15.7535C14.5416 15.8954 13.2898 15.9999 11.9999 15.9999C10.71 15.9999 9.45831 15.8954 8.35237 15.7535L6.97439 21.7248C6.8502 22.2629 6.31328 22.5985 5.77514 22.4743C5.237 22.3501 4.90142 21.8132 5.02561 21.275L6.37198 15.4407C5.7643 15.3269 5.25929 15.2158 4.89316 15.1295C4.68683 15.0809 4.52428 15.0401 4.41199 15.0111C4.35583 14.9966 4.31221 14.985 4.28193 14.9769L4.24661 14.9673L4.23664 14.9646L4.23361 14.9638L4.23258 14.9635L4.2322 14.9634C4.23204 14.9633 4.23189 14.9633 4.5 13.9999L4.23189 14.9633C3.69983 14.8152 3.38854 14.2639 3.53661 13.7318C3.68465 13.1998 4.23581 12.8886 4.76777 13.0364L4.76788 13.0365Z" fill="currentColor"/>
</svg>
