<svg width="24" height="24" viewBox="0 0 24 24" fill="none" xmlns="http://www.w3.org/2000/svg">
<path fill-rule="evenodd" clip-rule="evenodd" d="M3.90827 12.7293L11.9745 4.52505C12.4004 4.10102 13.0097 3.91716 13.5991 4.03505C13.611 4.03742 13.6229 4.03957 13.6348 4.04151L19.1222 4.93349L19.9572 10.357C19.9595 10.3717 19.9621 10.3863 19.965 10.4009C20.0829 10.9904 19.899 11.5997 19.4749 12.0255L11.2707 20.0918L3.90827 12.7293ZM10.5576 3.11353C11.4518 2.21934 12.7318 1.82861 13.9722 2.07011L20.1605 3.076C20.5882 3.14552 20.9224 3.48261 20.9884 3.91088L21.9308 10.0322C22.1705 11.2713 21.7796 12.5493 20.8865 13.4424L20.8805 13.4484L20.8805 13.4484L11.9658 22.2131C11.5744 22.598 10.9458 22.5953 10.5576 22.2071L1.79292 13.4424C1.40474 13.0542 1.40207 12.4257 1.78695 12.0342L10.5517 3.11955L10.5576 3.1135L10.5576 3.11353ZM14 10C14.5858 10.5858 15.5355 10.5858 16.1213 10C16.7071 9.41422 16.7071 8.46447 16.1213 7.87869C15.5355 7.2929 14.5858 7.2929 14 7.87869C13.4142 8.46447 13.4142 9.41422 14 10Z" fill="currentColor"/>
</svg>
