<svg width="24" height="24" viewBox="0 0 24 24" fill="none" xmlns="http://www.w3.org/2000/svg">
<path fill-rule="evenodd" clip-rule="evenodd" d="M4 12C4 7.58172 7.58172 4 12 4C16.4183 4 20 7.58172 20 12C20 12.5523 20.4477 13 21 13C21.5523 13 22 12.5523 22 12C22 6.47715 17.5228 2 12 2C6.47715 2 2 6.47715 2 12C2 12.5523 2.44772 13 3 13C3.55228 13 4 12.5523 4 12ZM6.00612 13.1104C5.97257 12.8085 6.07808 12.5077 6.29289 12.2929C6.5077 12.0781 6.80851 11.9726 7.11043 12.0061L11.6104 12.5061C12.1593 12.5671 12.5549 13.0615 12.4939 13.6104C12.4329 14.1593 11.9385 14.5549 11.3896 14.4939L9.72291 14.3087L15.7071 20.2929C16.0976 20.6834 16.0976 21.3166 15.7071 21.7071C15.3166 22.0976 14.6834 22.0976 14.2929 21.7071L8.3087 15.7229L8.49388 17.3896C8.55487 17.9385 8.15934 18.4329 7.61043 18.4939C7.06152 18.5549 6.56711 18.1593 6.50612 17.6104L6.00612 13.1104Z" fill="currentColor"/>
</svg>
