<svg width="24" height="24" viewBox="0 0 24 24" fill="none" xmlns="http://www.w3.org/2000/svg">
<path fill-rule="evenodd" clip-rule="evenodd" d="M4 12C4 7.58172 7.58172 4 12 4C16.4183 4 20 7.58172 20 12C20 12.5523 20.4477 13 21 13C21.5523 13 22 12.5523 22 12C22 6.47715 17.5228 2 12 2C6.47715 2 2 6.47715 2 12C2 12.5523 2.44772 13 3 13C3.55228 13 4 12.5523 4 12ZM17.9939 13.1104C18.0274 12.8085 17.9219 12.5077 17.7071 12.2929C17.4923 12.0781 17.1915 11.9726 16.8896 12.0061L12.3896 12.5061C11.8407 12.5671 11.4451 13.0615 11.5061 13.6104C11.5671 14.1593 12.0615 14.5549 12.6104 14.4939L14.2771 14.3087L8.29289 20.2929C7.90237 20.6834 7.90237 21.3166 8.29289 21.7071C8.68342 22.0976 9.31658 22.0976 9.70711 21.7071L15.6913 15.7229L15.5061 17.3896C15.4451 17.9385 15.8407 18.4329 16.3896 18.4939C16.9385 18.5549 17.4329 18.1593 17.4939 17.6104L17.9939 13.1104Z" fill="currentColor"/>
</svg>
