<svg width="24" height="24" viewBox="0 0 24 24" fill="none" xmlns="http://www.w3.org/2000/svg">
<path fill-rule="evenodd" clip-rule="evenodd" d="M6 2.5C4.89543 2.5 4 3.39543 4 4.5V19.5C4 20.6046 4.89543 21.5 6 21.5H10C10.5523 21.5 11 21.0523 11 20.5C11 19.9477 10.5523 19.5 10 19.5H6V4.5H18V7.04644C18 7.59872 18.4477 8.04644 19 8.04644C19.5523 8.04644 20 7.59872 20 7.04644V4.5C20 3.39543 19.1046 2.5 18 2.5H6ZM20.9623 11.5979C21.0139 11.2821 20.9111 10.9606 20.6859 10.7331C20.4607 10.5057 20.1402 10.3998 19.8239 10.4483L19.9754 11.4367C19.8239 10.4483 19.8233 10.4484 19.8228 10.4484L19.8217 10.4486L19.8194 10.449L19.8142 10.4498L19.8017 10.4519C19.7925 10.4534 19.7815 10.4554 19.7687 10.4578C19.7431 10.4627 19.7105 10.4693 19.6713 10.4782C19.5929 10.4959 19.4883 10.5227 19.3617 10.5622C19.1085 10.6412 18.7665 10.7712 18.3704 10.9814C17.5744 11.4037 16.5731 12.1431 15.6403 13.4176C14.7861 14.5846 14.2177 15.8568 13.8644 16.8196C13.6864 17.3047 13.5598 17.72 13.477 18.0168C13.4356 18.1654 13.405 18.2849 13.3843 18.3691C13.374 18.4112 13.3662 18.4446 13.3607 18.4684L13.3542 18.497L13.3522 18.5058L13.3516 18.5088L13.3513 18.5099L13.3512 18.5104C13.3512 18.5106 13.3511 18.5108 14.3285 18.7225L13.3511 18.5108C13.3472 18.5288 13.3439 18.5468 13.341 18.565L12.9878 20.7793C12.9009 21.3246 13.2725 21.8373 13.8179 21.9243C14.3633 22.0112 14.8759 21.6396 14.9629 21.0942L15.1992 19.6125C15.4715 19.5585 15.7973 19.4777 16.1525 19.3565C17.1266 19.0242 18.37 18.3709 19.307 17.0906C20.3147 15.7139 20.5792 14.029 20.8593 12.2451L20.8594 12.2444C20.893 12.0302 20.9269 11.8146 20.9623 11.5979ZM17.2542 14.5988C17.7422 13.9319 18.2396 13.4673 18.6793 13.1445C18.4626 14.3368 18.2246 15.1832 17.6931 15.9094C17.1536 16.6466 16.4484 17.0889 15.7997 17.354C16.1169 16.5193 16.5908 15.5052 17.2542 14.5988ZM8.5 14C8.5 13.4477 8.94772 13 9.5 13H11.5C12.0523 13 12.5 13.4477 12.5 14C12.5 14.5523 12.0523 15 11.5 15H9.5C8.94772 15 8.5 14.5523 8.5 14ZM9 8.00002C8.44772 8.00002 8 8.44773 8 9.00002C8 9.5523 8.44772 10 9 10H15C15.5523 10 16 9.5523 16 9.00002C16 8.44773 15.5523 8.00002 15 8.00002H9Z" fill="currentColor"/>
</svg>
