<svg width="24" height="24" viewBox="0 0 24 24" fill="none" xmlns="http://www.w3.org/2000/svg">
<path fill-rule="evenodd" clip-rule="evenodd" d="M4 4C2.89543 4 2 4.89543 2 6V18C2 19.1046 2.89543 20 4 20H20C21.1046 20 22 19.1046 22 18V6C22 4.89543 21.1046 4 20 4H4ZM4 6L20 6V18H4V6ZM7.5 8.5C6.94772 8.5 6.5 8.94772 6.5 9.5C6.5 10.0523 6.94772 10.5 7.5 10.5H16.5C17.0523 10.5 17.5 10.0523 17.5 9.5C17.5 8.94772 17.0523 8.5 16.5 8.5H7.5ZM7.5 13.5C6.94772 13.5 6.5 13.9477 6.5 14.5C6.5 15.0523 6.94772 15.5 7.5 15.5H10.5C11.0523 15.5 11.5 15.0523 11.5 14.5C11.5 13.9477 11.0523 13.5 10.5 13.5H7.5Z" fill="currentColor"/>
</svg>
