<svg width="24" height="24" viewBox="0 0 24 24" fill="none" xmlns="http://www.w3.org/2000/svg">
<path fill-rule="evenodd" clip-rule="evenodd" d="M12.9503 2.29289C13.3408 1.90237 13.974 1.90237 14.3645 2.29289L15.0794 3.00774L15.097 3.02499L18.2922 6.22011L18.3094 6.23776L19.0247 6.9531C19.4153 7.34362 19.4153 7.97679 19.0247 8.36731C18.6342 8.75784 18.001 8.75784 17.6105 8.36731L17.5848 8.34164L15.6701 10.2563L20.707 15.2932C21.0975 15.6837 21.0975 16.3169 20.707 16.7074C20.3165 17.0979 19.6833 17.0979 19.2928 16.7074L14.2559 11.6706L12.3416 13.5848L12.3673 13.6105C12.7578 14.001 12.7578 14.6342 12.3673 15.0247C11.9768 15.4153 11.3436 15.4153 10.9531 15.0247L6.29289 10.3645C5.90237 9.974 5.90237 9.34084 6.29289 8.95032C6.68342 8.55979 7.31658 8.55979 7.70711 8.95032L7.73231 8.97552L12.9755 3.73231L12.9503 3.70711C12.5598 3.31658 12.5598 2.68342 12.9503 2.29289ZM16.1706 6.92742L14.3897 5.14652L9.14672 10.3895L10.9276 12.1704L16.1706 6.92742ZM3 20C3 19.4477 3.44772 19 4 19H5C5 18.4477 5.44772 18 6 18H11C11.5523 18 12 18.4477 12 19H13C13.5523 19 14 19.4477 14 20C14 20.5523 13.5523 21 13 21H4C3.44772 21 3 20.5523 3 20Z" fill="currentColor"/>
</svg>
