<svg width="24" height="24" viewBox="0 0 24 24" fill="none" xmlns="http://www.w3.org/2000/svg">
<path fill-rule="evenodd" clip-rule="evenodd" d="M13.0068 3.99999C13.0045 3.99998 13.0023 3.99997 13 3.99997C12.9977 3.99997 12.9954 3.99998 12.9931 3.99999H4C2.89543 3.99999 2 4.89542 2 5.99999V10.2421C1.99998 10.2447 1.99997 10.2473 1.99997 10.25C1.99997 10.2526 1.99998 10.2552 2 10.2579V18C2 19.1046 2.89543 20 4 20H20C21.1046 20 22 19.1046 22 18V5.99999C22 4.89542 21.1046 3.99999 20 3.99999H13.0068ZM12 5.99999L4 5.99999V9.24997H12V5.99999ZM4 11.25V18H12V14.625V11.25H4ZM14 18H20V15.625H14V18ZM20 13.625V11.25H14V13.625H20ZM20 9.24997H14V5.99999L20 5.99999V9.24997Z" fill="currentColor"/>
</svg>
