<svg width="24" height="24" viewBox="0 0 24 24" fill="none" xmlns="http://www.w3.org/2000/svg">
<path fill-rule="evenodd" clip-rule="evenodd" d="M14.5456 4.50283C14.4941 4.50031 14.4231 4.50004 14.2815 4.50004H6.6C6.30348 4.50004 6.14122 4.50082 6.02464 4.51034L6.01145 4.51149L6.01031 4.52467C6.00078 4.64126 6 4.80351 6 5.10004V18.9C6 19.1966 6.00078 19.3588 6.01031 19.4754L6.01145 19.4886L6.02464 19.4897C6.14122 19.4993 6.30348 19.5 6.60001 19.5H17.4C17.6965 19.5 17.8588 19.4993 17.9754 19.4897L17.9886 19.4886L17.9897 19.4754C17.9992 19.3588 18 19.1966 18 18.9V8.60836C18 8.48777 17.9998 8.42785 17.9979 8.3843L17.9978 8.38108L17.9958 8.37857C17.9682 8.34479 17.9286 8.29987 17.8485 8.20974L14.7299 4.70142C14.6359 4.5956 14.5885 4.54272 14.5524 4.50587L14.5496 4.50304L14.5456 4.50283ZM14.3368 2.49993C14.5418 2.49934 14.8 2.4986 15.052 2.56383C15.2705 2.62037 15.4778 2.71346 15.6652 2.83917C15.8814 2.98422 16.0523 3.17766 16.1881 3.33131L16.2248 3.37269L19.3433 6.88101L19.3745 6.916C19.491 7.0465 19.6379 7.21083 19.7468 7.40624C19.8413 7.57578 19.9107 7.75818 19.9527 7.9477C20.0011 8.16613 20.0005 8.38649 20.0001 8.56147L20 8.60836V18.9L20 18.9319C20 19.1843 20.0001 19.4301 19.9831 19.6383C19.9644 19.8669 19.9203 20.1366 19.782 20.408C19.5903 20.7843 19.2843 21.0903 18.908 21.2821C18.6366 21.4204 18.3668 21.4644 18.1382 21.4831C17.9301 21.5001 17.6844 21.5001 17.4321 21.5H17.432H17.4319L17.4 21.5H6.60001L6.56809 21.5H6.56797H6.56794C6.31561 21.5001 6.06989 21.5001 5.86177 21.4831C5.63318 21.4644 5.36345 21.4204 5.09202 21.2821C4.7157 21.0903 4.40974 20.7843 4.21799 20.408C4.07969 20.1366 4.03563 19.8669 4.01695 19.6383C3.99994 19.4301 3.99997 19.1843 4 18.9319V18.9V5.10004V5.06814C3.99997 4.81576 3.99994 4.56997 4.01695 4.36181C4.03563 4.13322 4.07969 3.86348 4.21799 3.59206C4.40974 3.21573 4.7157 2.90977 5.09202 2.71803C5.36345 2.57973 5.63318 2.53566 5.86177 2.51699C6.06993 2.49998 6.31572 2.50001 6.56809 2.50004L6.56811 2.50004L6.6 2.50004H14.2815L14.3368 2.49993ZM8 14C8 13.4477 8.44772 13 9 13H15C15.5523 13 16 13.4477 16 14C16 14.5523 15.5523 15 15 15H9C8.44772 15 8 14.5523 8 14ZM9 8.00001C8.44772 8.00001 8 8.44773 8 9.00001C8 9.5523 8.44772 10 9 10H13C13.5523 10 14 9.5523 14 9.00001C14 8.44773 13.5523 8.00001 13 8.00001H9Z" fill="currentColor"/>
</svg>
