<svg width="24" height="24" viewBox="0 0 24 24" fill="none" xmlns="http://www.w3.org/2000/svg">
<path fill-rule="evenodd" clip-rule="evenodd" d="M6.56811 2.5L6.6 2.50001H17.4L17.4319 2.5H17.4319C17.6843 2.49997 17.9301 2.49994 18.1382 2.51695C18.3668 2.53563 18.6366 2.57969 18.908 2.71799C19.2843 2.90974 19.5903 3.2157 19.782 3.59202C19.9203 3.86345 19.9644 4.13318 19.9831 4.36178C20.0001 4.56994 20 4.81574 20 5.06812L20 5.10001V8.00001C20 8.55229 19.5523 9.00001 19 9.00001C18.4477 9.00001 18 8.55229 18 8.00001V5.10001C18 4.80348 17.9992 4.64122 17.9897 4.52464L17.9886 4.51145L17.9754 4.51031C17.8588 4.50078 17.6965 4.50001 17.4 4.50001H6.6C6.30348 4.50001 6.14122 4.50078 6.02464 4.51031L6.01145 4.51145L6.01031 4.52464C6.00078 4.64122 6 4.80348 6 5.10001V18.9C6 19.1965 6.00078 19.3588 6.01031 19.4754L6.01145 19.4886L6.02464 19.4897C6.14122 19.4992 6.30348 19.5 6.6 19.5H13C13.5523 19.5 14 19.9477 14 20.5C14 21.0523 13.5523 21.5 13 21.5H6.6L6.56809 21.5H6.56797H6.56794H6.5679H6.56787C6.31557 21.5 6.06987 21.5001 5.86177 21.4831C5.63318 21.4644 5.36345 21.4203 5.09202 21.282C4.7157 21.0903 4.40974 20.7843 4.21799 20.408C4.07969 20.1366 4.03563 19.8668 4.01695 19.6382C3.99994 19.4301 3.99997 19.1843 4 18.9319V18.9V5.10001V5.06811C3.99997 4.81572 3.99994 4.56993 4.01695 4.36178C4.03563 4.13318 4.07969 3.86345 4.21799 3.59202C4.40974 3.2157 4.7157 2.90974 5.09202 2.71799C5.36345 2.57969 5.63318 2.53563 5.86177 2.51695C6.06993 2.49994 6.31572 2.49997 6.56809 2.5H6.56811ZM19 13C17.8954 13 17 13.8954 17 15C17 16.1046 17.8954 17 19 17C20.1046 17 21 16.1046 21 15C21 13.8954 20.1046 13 19 13ZM21.5 18.1227C22.4145 17.3896 23 16.2632 23 15C23 12.7909 21.2091 11 19 11C16.7909 11 15 12.7909 15 15C15 16.2632 15.5855 17.3896 16.5 18.1227V21.5585C16.5 21.7528 16.712 21.8728 16.8786 21.7728L18.8714 20.5772C18.9506 20.5297 19.0495 20.5297 19.1286 20.5772L21.1214 21.7728C21.288 21.8728 21.5 21.7528 21.5 21.5585V18.1227ZM8 9C8 8.44772 8.44772 8 9 8H15C15.5523 8 16 8.44772 16 9C16 9.55229 15.5523 10 15 10H9C8.44772 10 8 9.55229 8 9ZM9 13C8.44772 13 8 13.4477 8 14C8 14.5523 8.44772 15 9 15H12C12.5523 15 13 14.5523 13 14C13 13.4477 12.5523 13 12 13H9Z" fill="currentColor"/>
</svg>
