<svg width="24" height="24" viewBox="0 0 24 24" fill="none" xmlns="http://www.w3.org/2000/svg">
<path fill-rule="evenodd" clip-rule="evenodd" d="M15.7593 12.1508C16.1187 11.7315 16.0701 11.1002 15.6508 10.7407C15.2315 10.3813 14.6002 10.4299 14.2407 10.8492L13 12.2967V3C13 2.44772 12.5523 2 12 2C11.4477 2 11 2.44772 11 3V12.2967L9.75926 10.8492C9.39983 10.4299 8.76853 10.3813 8.34921 10.7407C7.92988 11.1002 7.88132 11.7315 8.24074 12.1508L11.2408 15.6508C11.4307 15.8724 11.7081 16 12 16C12.2919 16 12.5693 15.8724 12.7593 15.6508L15.7593 12.1508ZM5 16C5 15.4477 4.55228 15 4 15C3.44772 15 3 15.4477 3 16V20C3 20.5523 3.44772 21 4 21H20C20.5523 21 21 20.5523 21 20V16C21 15.4477 20.5523 15 20 15C19.4477 15 19 15.4477 19 16V19H5V16Z" fill="currentColor"/>
</svg>
