<svg width="24" height="24" viewBox="0 0 24 24" fill="none" xmlns="http://www.w3.org/2000/svg">
<path fill-rule="evenodd" clip-rule="evenodd" d="M21.9657 4.9227C22.5178 4.90854 22.9769 5.34462 22.9911 5.89672C23.0093 6.60933 23.0133 7.49922 22.8642 8.32619C22.7186 9.13313 22.394 10.0734 21.5937 10.6767C21.0412 11.0932 20.4508 11.3279 19.8349 11.3825C19.2271 11.4363 18.6582 11.3092 18.1482 11.1012C17.1666 10.7009 16.2625 9.93607 15.5218 9.29281C15.4489 9.22952 15.3776 9.1674 15.3077 9.10654C14.6006 8.49073 14.0422 8.00448 13.5292 7.73935C13.267 7.60382 13.1008 7.57405 13.0019 7.57755C12.93 7.5801 12.8272 7.60012 12.6708 7.7416C12.4999 7.89621 12.3464 8.23584 12.6125 9.19861C12.8423 10.03 13.2928 10.9901 13.7973 12.0654C13.8537 12.1855 13.9108 12.3071 13.9683 12.4301C14.5098 13.5888 15.0984 14.8898 15.3049 16.0698C15.4103 16.6722 15.4307 17.315 15.2486 17.9312C15.0592 18.5721 14.6678 19.1232 14.0614 19.5346C13.4196 19.97 12.7207 20.0935 12.0271 19.9318C11.3842 19.782 10.8217 19.4052 10.3457 18.9931C9.56937 18.3209 8.78282 17.3304 8.03941 16.3943C7.88962 16.2056 7.74158 16.0192 7.59573 15.838C6.66996 14.6881 5.79618 13.6967 4.90536 13.1379C4.47573 12.8684 4.08378 12.7276 3.71585 12.6994C3.35938 12.6721 2.95961 12.7448 2.49208 13.0091C2.01131 13.2809 1.40123 13.1115 1.12942 12.6308C0.857614 12.15 1.02701 11.5399 1.50778 11.2681C2.28972 10.826 3.08231 10.6449 3.86884 10.7053C4.64392 10.7647 5.34565 11.0532 5.96811 11.4437C7.18149 12.2048 8.24561 13.4559 9.15363 14.5839C9.32424 14.7958 9.48916 15.003 9.64924 15.2041C10.3937 16.1393 11.0335 16.9431 11.6548 17.481C12.0226 17.7995 12.2935 17.9403 12.4812 17.9841C12.6183 18.016 12.7474 18.0093 12.9385 17.8796C13.1651 17.7259 13.2734 17.5579 13.3306 17.3644C13.3952 17.146 13.4091 16.8389 13.3348 16.4145C13.1819 15.5406 12.7187 14.4799 12.1564 13.277C12.0989 13.1539 12.0402 13.0292 11.981 12.9032C11.4925 11.8645 10.9632 10.7388 10.6848 9.73136C10.3833 8.64032 10.2506 7.23401 11.3291 6.25839C11.7974 5.83476 12.3396 5.59975 12.9311 5.57881C13.4955 5.55882 14.0112 5.7371 14.4475 5.96261C15.1909 6.34684 15.9441 7.00556 16.5996 7.57897C16.679 7.64837 16.7569 7.71652 16.8332 7.78279C17.6096 8.4571 18.2757 8.99333 18.9034 9.24929C19.1981 9.36946 19.4437 9.40928 19.6585 9.39026C19.8651 9.37196 20.1054 9.29406 20.3898 9.07964C20.5891 8.92942 20.7825 8.59973 20.8959 7.9711C21.0057 7.3625 21.0098 6.65124 20.9917 5.94802C20.9776 5.39591 21.4136 4.93686 21.9657 4.9227Z" fill="currentColor"/>
</svg>
