<svg width="24" height="24" viewBox="0 0 24 24" fill="none" xmlns="http://www.w3.org/2000/svg">
<path fill-rule="evenodd" clip-rule="evenodd" d="M16.2869 3.2916C16.6768 2.90316 17.3072 2.90275 17.6976 3.29067L20.7048 6.27895C20.8933 6.46624 20.9994 6.72083 20.9999 6.98654C21.0004 7.25224 20.8951 7.5072 20.7073 7.69515L18.089 10.3152L18.0877 10.3165L10.5363 17.9009L10.5359 17.9013C9.98646 18.4526 9.30648 18.8563 8.55948 19.0756L4.84452 20.4388C4.48014 20.5725 4.07131 20.4833 3.79576 20.2099C3.52021 19.9366 3.42772 19.5285 3.55851 19.163L4.89711 15.4228C5.11589 14.6815 5.51811 14.0071 6.06658 13.4614L6.06674 13.4612L13.6617 5.90726L13.6623 5.90664L16.2869 3.2916ZM14.3678 8.02575L7.47728 14.8791C7.47723 14.8791 7.47718 14.8792 7.47712 14.8792C7.16164 15.1932 6.9322 15.5816 6.80993 16.0074C6.80403 16.0279 6.79748 16.0483 6.79028 16.0684L6.16157 17.8251L7.90346 17.1859C7.92684 17.1773 7.95054 17.1696 7.97449 17.1628C8.40829 17.0395 8.80242 16.8074 9.1193 16.4895L15.9655 9.61339L14.3678 8.02575ZM17.3779 8.19738L18.5837 6.99076L16.9937 5.41071L15.7852 6.61472L17.3779 8.19738Z" fill="currentColor"/>
</svg>
