<svg width="24" height="24" viewBox="0 0 24 24" fill="none" xmlns="http://www.w3.org/2000/svg">
<path fill-rule="evenodd" clip-rule="evenodd" d="M3 4C2.44772 4 2 4.44772 2 5C2 5.55228 2.44772 6 3 6V20C3 20.5523 3.44772 21 4 21H7.99803C7.99868 21 7.99934 21 8 21C8.00066 21 8.00132 21 8.00197 21H10.998C10.9987 21 10.9993 21 11 21C11.0007 21 11.0013 21 11.002 21H15H20C20.5523 21 21 20.5523 21 20V12C21.5523 12 22 11.5523 22 11C22 10.4477 21.5523 9.99999 21 9.99999H20H16V6C16.5523 6 17 5.55228 17 5C17 4.44772 16.5523 4 16 4H15H4H3ZM12 19H14V11V6H5V19H7V16C7 15.4477 7.44772 15 8 15H11C11.5523 15 12 15.4477 12 16V19ZM9 19H10V17H9V19ZM19 19H16V12H19V19Z" fill="currentColor"/>
</svg>
