<svg width="24" height="24" viewBox="0 0 24 24" fill="none" xmlns="http://www.w3.org/2000/svg">
<path fill-rule="evenodd" clip-rule="evenodd" d="M8 6.5C8 5.67157 8.67157 5 9.5 5C10.3284 5 11 5.67157 11 6.5C11 7.32843 10.3284 8 9.5 8C8.67157 8 8 7.32843 8 6.5ZM9.5 3C7.567 3 6 4.567 6 6.5C6 8.433 7.567 10 9.5 10C11.433 10 13 8.433 13 6.5C13 4.567 11.433 3 9.5 3ZM20.3685 17.2783C21.0764 17.7839 21.557 18.3772 21.8043 19.0001H16.0048L16 19.0001L10.1957 19.0001C10.443 18.3772 10.9236 17.7839 11.6315 17.2783C12.7101 16.5079 14.2514 16.0001 16 16.0001C17.7486 16.0001 19.2899 16.5079 20.3685 17.2783ZM9 21.0001L8.99516 21.0001H1C0.447715 21.0001 0 20.5524 0 20.0001C0 18.1245 1.20036 15.8779 3.06955 14.1422C4.97626 12.3717 7.71151 11 11 11C11.5523 11 12 11.4477 12 12C12 12.5523 11.5523 13 11 13C8.28849 13 6.02374 14.1283 4.43045 15.6078C3.22779 16.7246 2.47716 17.9714 2.16592 19.0001H8.10852C8.40676 17.6447 9.29533 16.4892 10.469 15.6509C11.9239 14.6116 13.8826 14.0001 16 14.0001C18.1174 14.0001 20.0761 14.6116 21.531 15.6509C22.984 16.6887 24 18.2126 24 20.0001C24 20.5524 23.5523 21.0001 23 21.0001H9ZM15 10C15 9.44772 15.4477 9 16 9C16.5523 9 17 9.44772 17 10C17 10.5523 16.5523 11 16 11C15.4477 11 15 10.5523 15 10ZM16 7C14.3431 7 13 8.34315 13 10C13 11.6569 14.3431 13 16 13C17.6569 13 19 11.6569 19 10C19 8.34315 17.6569 7 16 7Z" fill="currentColor"/>
</svg>
