<svg width="24" height="24" viewBox="0 0 24 24" fill="none" xmlns="http://www.w3.org/2000/svg">
<path fill-rule="evenodd" clip-rule="evenodd" d="M13 4C13 3.44772 13.4477 3 14 3C16.5738 3 18.8965 4.08165 20.5356 5.81238C22.0622 7.42436 23 9.60374 23 12C23 14.1245 22.4065 15.9874 20.6714 17.2568C19.0177 18.4667 16.4991 19 13 19C9.50095 19 6.98238 18.4667 5.32868 17.2568C3.59439 15.9879 3.00058 14.1262 3.00003 12.0029L3.00003 12L3.00002 11.5V11.5C3.00002 10.7798 2.65126 10.1234 2.22449 9.59912C2.01697 9.34416 1.80785 9.14163 1.65156 9.00395C1.57402 8.93564 1.51114 8.88474 1.47022 8.85276C1.4498 8.8368 1.435 8.82566 1.42674 8.81954L1.41972 8.81437L1.41954 8.81425C0.971309 8.49469 0.865513 7.87253 1.18363 7.42267C1.5025 6.97174 2.12654 6.86468 2.57748 7.18355L2.00011 8.00004C2.57748 7.18355 2.57776 7.18375 2.57805 7.18396L2.57868 7.1844L2.58007 7.18539L2.58341 7.18777L2.59226 7.19414L2.6184 7.21331C2.63944 7.22892 2.6676 7.25021 2.70187 7.277C2.77032 7.3305 2.86368 7.40638 2.97363 7.50324C3.19232 7.6959 3.48318 7.97728 3.77563 8.33659C4.27704 8.95262 4.83814 9.86662 4.97081 11L13 11V4ZM14 13L20.94 13C20.7841 14.1936 20.3199 15.0358 19.4904 15.6427C18.3647 16.4663 16.3833 17 13 17C9.61675 17 7.63533 16.4663 6.50962 15.6427C5.68011 15.0358 5.21594 14.1936 5.06008 13L13.999 13L14 13ZM19.7192 7.96258C20.3442 8.84603 20.7692 9.88003 20.9292 11H16.5109L19.7192 7.96258ZM15 5.07081V9.67622L18.344 6.51043C17.3969 5.75983 16.2521 5.24974 15 5.07081ZM7.00003 20.5C7.00003 21.3284 6.32846 22 5.50003 22C4.6716 22 4.00003 21.3284 4.00003 20.5C4.00003 19.6716 4.6716 19 5.50003 19C6.32846 19 7.00003 19.6716 7.00003 20.5ZM20.5 22C21.3285 22 22 21.3284 22 20.5C22 19.6716 21.3285 19 20.5 19C19.6716 19 19 19.6716 19 20.5C19 21.3284 19.6716 22 20.5 22Z" fill="currentColor"/>
</svg>
