<svg width="24" height="24" viewBox="0 0 24 24" fill="none" xmlns="http://www.w3.org/2000/svg">
<path fill-rule="evenodd" clip-rule="evenodd" d="M21.9983 4.05869C22.015 3.77355 21.9091 3.49484 21.7071 3.29286C21.5051 3.09089 21.2264 2.98492 20.9413 3.0017L14.9309 3.35526C14.3795 3.38769 13.9589 3.86092 13.9913 4.41225C14.0238 4.96359 14.497 5.38424 15.0483 5.35181L18.4331 5.1527L11.2929 12.2929C10.9024 12.6834 10.9024 13.3166 11.2929 13.7071C11.6834 14.0976 12.3166 14.0976 12.7071 13.7071L19.8473 6.56691L19.6482 9.95166C19.6157 10.503 20.0364 10.9762 20.5877 11.0087C21.1391 11.0411 21.6123 10.6204 21.6447 10.0691L21.9983 4.05869ZM10.7071 7.70707C11.0976 7.31655 11.0976 6.68338 10.7071 6.29286C10.3166 5.90233 9.68342 5.90233 9.29289 6.29286L2.29289 13.2929C1.90237 13.6834 1.90237 14.3165 2.29289 14.7071C2.68342 15.0976 3.31658 15.0976 3.70711 14.7071L10.7071 7.70707ZM8.70711 17.7071C9.09763 17.3165 9.09763 16.6834 8.70711 16.2929C8.31658 15.9023 7.68342 15.9023 7.29289 16.2929L4.29289 19.2929C3.90237 19.6834 3.90237 20.3165 4.29289 20.7071C4.68342 21.0976 5.31658 21.0976 5.70711 20.7071L8.70711 17.7071ZM18.7071 14.2929C19.0976 14.6834 19.0976 15.3165 18.7071 15.7071L13.7071 20.7071C13.3166 21.0976 12.6834 21.0976 12.2929 20.7071C11.9024 20.3165 11.9024 19.6834 12.2929 19.2929L17.2929 14.2929C17.6834 13.9023 18.3166 13.9023 18.7071 14.2929Z" fill="currentColor"/>
</svg>
