<svg width="24" height="24" viewBox="0 0 24 24" fill="none" xmlns="http://www.w3.org/2000/svg">
<path fill-rule="evenodd" clip-rule="evenodd" d="M12 1C12.397 1 12.7563 1.23477 12.9158 1.59827L15.6541 7.84045L22.1237 8.647C22.5053 8.69457 22.8258 8.95671 22.9481 9.32126C23.0704 9.68582 22.9728 10.0882 22.6972 10.3563L17.8824 15.0379L19.163 21.8143C19.2358 22.1999 19.0765 22.5924 18.7555 22.818C18.4346 23.0437 18.0113 23.0608 17.6731 22.8618L12 19.5228L6.32692 22.8618C5.98878 23.0608 5.5655 23.0437 5.24453 22.818C4.92356 22.5924 4.76422 22.1999 4.83708 21.8143L6.11764 15.0379L1.3029 10.3563C1.02722 10.0882 0.929659 9.68582 1.05196 9.32126C1.17426 8.95671 1.49475 8.69457 1.87632 8.647L8.34595 7.84045L9.60099 4.97951L11.0843 1.59827C11.2437 1.23477 11.6031 1 12 1ZM12 4.48926L11.4325 5.78296L9.94923 9.1642C9.80769 9.48685 9.5068 9.71121 9.15718 9.7548L4.19008 10.374L7.89716 13.9787C8.13773 14.2126 8.24495 14.5516 8.18264 14.8813L7.21146 20.0205L11.4928 17.5007C11.8059 17.3164 12.1942 17.3164 12.5073 17.5007L16.7886 20.0205L15.8174 14.8813C15.7551 14.5516 15.8623 14.2126 16.1029 13.9787L19.81 10.374L14.8429 9.7548C14.4933 9.71121 14.1924 9.48685 14.0508 9.1642L12 4.48926Z" fill="currentColor"/>
</svg>
