<svg width="24" height="24" viewBox="0 0 24 24" fill="none" xmlns="http://www.w3.org/2000/svg">
<path fill-rule="evenodd" clip-rule="evenodd" d="M12.4579 1.79914C12.3782 1.61739 12.1985 1.5 12 1.5C11.8015 1.5 11.6219 1.61739 11.5421 1.79914L10.0589 5.18038L8.6897 8.30146L1.93816 9.14316C1.74738 9.16695 1.58713 9.29802 1.52598 9.48029C1.46483 9.66257 1.51361 9.86376 1.65145 9.99779L6.65882 14.8668L5.32837 21.9072C5.29194 22.0999 5.37161 22.2962 5.53209 22.409C5.69258 22.5219 5.90422 22.5304 6.07329 22.4309L12 18.9427L17.9267 22.4309C18.0958 22.5304 18.3075 22.5219 18.4679 22.409C18.6284 22.2962 18.7081 22.0999 18.6717 21.9072L17.3412 14.8668L22.3486 9.99779C22.4864 9.86376 22.5352 9.66257 22.4741 9.48029C22.4129 9.29802 22.2527 9.16695 22.0619 9.14316L15.3103 8.30146L12.4579 1.79914Z" fill="currentColor"/>
</svg>
