<svg width="24" height="24" viewBox="0 0 24 24" fill="none" xmlns="http://www.w3.org/2000/svg">
<path fill-rule="evenodd" clip-rule="evenodd" d="M11.1679 19.4453C10.8616 19.9048 10.9858 20.5257 11.4453 20.8321C11.9048 21.1384 12.5257 21.0142 12.832 20.5547L15.3554 16.7697L18.2929 19.7071C18.6834 20.0977 19.3166 20.0977 19.7071 19.7071C20.0976 19.3166 20.0976 18.6834 19.7071 18.2929L16.4868 15.0726L18.832 11.5547C19.0532 11.2231 19.0562 10.7918 18.8397 10.457C18.6233 10.1223 18.2288 9.94809 17.8356 10.0136L12.3432 10.929L10.0868 8.67261L12.832 4.55471C13.1384 4.09519 13.0142 3.47432 12.5547 3.16797C12.0952 2.86161 11.4743 2.98578 11.1679 3.44531L8.64456 7.23039L5.7071 4.29292C5.31658 3.9024 4.68341 3.9024 4.29289 4.29292C3.90236 4.68345 3.90236 5.31661 4.29289 5.70714L7.51319 8.92744L5.16794 12.4453C4.94684 12.777 4.94381 13.2083 5.16024 13.543C5.37667 13.8777 5.77122 14.0519 6.16439 13.9864L11.6568 13.071L13.9132 15.3274L11.1679 19.4453ZM15.0446 13.6304L15.8876 12.3659L14.0811 12.667L15.0446 13.6304ZM9.91883 11.3331L8.95541 10.3697L8.11242 11.6341L9.91883 11.3331Z" fill="currentColor"/>
</svg>
