<svg width="24" height="24" viewBox="0 0 24 24" fill="none" xmlns="http://www.w3.org/2000/svg">
<path fill-rule="evenodd" clip-rule="evenodd" d="M11.4453 20.8321C10.9858 20.5257 10.8616 19.9048 11.1679 19.4453L15.8876 12.3659L6.1644 13.9864C5.77122 14.0519 5.37668 13.8777 5.16025 13.543C4.94382 13.2082 4.94685 12.777 5.16795 12.4453L11.168 3.4453C11.4743 2.98577 12.0952 2.8616 12.5547 3.16795C13.0142 3.4743 13.1384 4.09517 12.8321 4.5547L8.11243 11.6341L17.8356 10.0136C18.2288 9.94808 18.6233 10.1223 18.8398 10.457C19.0562 10.7918 19.0532 11.223 18.8321 11.5547L12.832 20.5547C12.5257 21.0142 11.9048 21.1384 11.4453 20.8321Z" fill="currentColor"/>
</svg>
