<svg width="24" height="24" viewBox="0 0 24 24" fill="none" xmlns="http://www.w3.org/2000/svg">
<path fill-rule="evenodd" clip-rule="evenodd" d="M12.8575 2.80289C12.6768 2.50168 12.3513 2.31738 12 2.31738C11.6487 2.31738 11.3232 2.50168 11.1425 2.80289L6.64251 10.3029C6.45715 10.6118 6.4523 10.9966 6.62981 11.3101C6.80731 11.6236 7.13973 11.8174 7.50001 11.8174H16.5C16.8603 11.8174 17.1927 11.6236 17.3702 11.3101C17.5477 10.9966 17.5429 10.6118 17.3575 10.3029L12.8575 2.80289ZM9.2662 9.81738L12 5.26103L14.7338 9.81738H9.2662ZM21.1169 20H2.8831C2.49445 20 2.25439 19.576 2.45435 19.2428L4.7087 15.4855C4.88942 15.1843 5.21493 15 5.56619 15H18.4338C18.7851 15 19.1106 15.1843 19.2913 15.4855L21.5457 19.2428C21.7456 19.576 21.5056 20 21.1169 20Z" fill="currentColor"/>
</svg>
