<svg width="24" height="24" viewBox="0 0 24 24" fill="none" xmlns="http://www.w3.org/2000/svg">
<path fill-rule="evenodd" clip-rule="evenodd" d="M5.84414 6.87049C6.91408 6.01294 8.27214 5.5 9.75 5.5H15.7143V7.74261C15.7143 9.42446 14.3509 10.7879 12.669 10.7879L11.1886 10.7879C10.8744 10.7879 10.575 10.8331 10.2949 10.9166L5.84414 6.87049ZM4.50245 8.35369C3.86828 9.33151 3.5 10.4977 3.5 11.75C3.5 12.1956 3.54663 12.6303 3.63527 13.0495L8.1248 13.4236C8.1967 12.9524 8.37735 12.5063 8.64497 12.1196L4.50245 8.35369ZM9.75 18C7.54253 18 5.60235 16.8556 4.4904 15.1277L8.52811 15.4641C8.63581 15.6453 8.76186 15.8153 8.90444 15.9712L10.7593 18H9.75ZM20 8.78571C20 7.31975 19.04 6.07802 17.7143 5.65494V7.74261C17.7143 10.529 15.4554 12.7879 12.669 12.7879H11.1886C10.3858 12.7879 9.8559 13.6233 10.1981 14.3495C10.2449 14.4489 10.3064 14.5406 10.3805 14.6217L13.0286 17.518L14.6905 15.7002C15.0632 15.2926 15.6957 15.2643 16.1033 15.637C16.5109 16.0096 16.5393 16.6422 16.1666 17.0498L15.2978 18H17.1429C17.6951 18 18.1429 18.4477 18.1429 19C18.1429 19.5523 17.6951 20 17.1429 20H13.0286H9.75C5.19366 20 1.5 16.3063 1.5 11.75C1.5 7.19365 5.19365 3.5 9.75 3.5H16.7143C19.6335 3.5 22 5.86649 22 8.78571V11.3636C22 11.9159 21.5523 12.3636 21 12.3636C20.4477 12.3636 20 11.9159 20 11.3636V8.78571ZM13 9C13.5523 9 14 8.55228 14 8C14 7.44772 13.5523 7 13 7C12.4477 7 12 7.44772 12 8C12 8.55228 12.4477 9 13 9Z" fill="currentColor"/>
</svg>
