<svg width="24" height="24" viewBox="0 0 24 24" fill="none" xmlns="http://www.w3.org/2000/svg">
<path fill-rule="evenodd" clip-rule="evenodd" d="M14.8891 3.76767C14.947 3.82553 15.0299 3.96572 14.9544 4.23375C14.8626 4.5598 14.5726 4.84986 14.2465 4.94168L13.5068 5.14998L13.7151 4.41025C13.8069 4.0842 14.0969 3.79413 14.423 3.70232C14.691 3.62684 14.8312 3.7098 14.8891 3.76767ZM14.3156 7L14.7886 6.86681C15.785 6.58622 16.599 5.77227 16.8796 4.77585C17.1332 3.87509 16.918 2.96819 16.3033 2.35345C15.6886 1.73871 14.7817 1.52354 13.8809 1.77719C12.9266 2.0459 12.1397 2.8038 11.8284 3.74266C11.517 2.80386 10.7302 2.04602 9.77596 1.77732C8.8752 1.52367 7.96829 1.73885 7.35355 2.35358C6.73882 2.96832 6.52364 3.87523 6.77729 4.77599C7.05788 5.7724 7.87183 6.58635 8.86825 6.86694L9.34078 7H3C2.44772 7 2 7.44772 2 8V10V12C2 12.5523 2.44772 13 3 13V20C3 21.1046 3.89543 22 5 22H19C20.1046 22 21 21.1046 21 20V13C21.5523 13 22 12.5523 22 12V10V8C22 7.44772 21.5523 7 21 7H14.3156ZM11.0607 9H4V10V11H11.0607V9ZM13.0607 11V9H20V10V11H13.0607ZM11.0607 13H5V20H11.0607L11.0607 13ZM13.0607 13H19V20H13.0607V13ZM8.70242 4.23388C8.62694 3.96585 8.7099 3.82567 8.76777 3.7678C8.82564 3.70993 8.96582 3.62697 9.23385 3.70245C9.5599 3.79427 9.84996 4.08433 9.94178 4.41038L10.1501 5.15012L9.41035 4.94181C9.0843 4.84999 8.79424 4.55993 8.70242 4.23388Z" fill="currentColor"/>
</svg>
