<svg width="24" height="24" viewBox="0 0 24 24" fill="none" xmlns="http://www.w3.org/2000/svg">
<path fill-rule="evenodd" clip-rule="evenodd" d="M7.10599 4.13902C6.84914 3.22688 7.06721 2.30978 7.6885 1.68849C8.30979 1.06721 9.22689 0.84913 10.139 1.10598L9.86798 2.06855L10.139 1.10598C10.9296 1.32862 11.607 1.8829 12 2.59777C12.393 1.8829 13.0704 1.32862 13.861 1.10598L14.132 2.06855L13.861 1.10598C14.7731 0.84913 15.6902 1.06721 16.3115 1.68849C16.9328 2.30978 17.1509 3.22688 16.894 4.13902C16.8074 4.44655 16.6706 4.73694 16.4937 5.00013H19.5C21.1569 5.00013 22.5 6.34328 22.5 8.00013V18.0001C22.5 19.657 21.1569 21.0001 19.5 21.0001H4.5C2.84315 21.0001 1.5 19.657 1.5 18.0001V8.00013C1.5 6.34327 2.84315 5.00013 4.5 5.00013H7.50626C7.32937 4.73694 7.19259 4.44655 7.10599 4.13902ZM9.59692 3.03111C9.31751 2.95243 9.16713 3.03829 9.10271 3.10271C9.0383 3.16713 8.95244 3.3175 9.03112 3.59692C9.12656 3.93585 9.42737 4.23666 9.76631 4.3321L10.5539 4.55388L10.3321 3.7663C10.2367 3.42737 9.93586 3.12655 9.59692 3.03111ZM14.8973 3.10271C14.8329 3.03829 14.6825 2.95243 14.4031 3.03111C14.0641 3.12656 13.7633 3.42737 13.6679 3.7663L13.4461 4.55388L14.2337 4.3321C14.5726 4.23666 14.8734 3.93585 14.9689 3.59692C15.0476 3.3175 14.9617 3.16713 14.8973 3.10271ZM12.38 7.00013L3.66436 14.7474C3.61269 14.7933 3.55759 14.8329 3.5 14.8662V18.0001C3.5 18.5524 3.94772 19.0001 4.5 19.0001H11.6196L20.3356 11.2526C20.3873 11.2067 20.4424 11.1671 20.5 11.1337V8.00013C20.5 7.44784 20.0523 7.00013 19.5 7.00013H12.38ZM20.5 13.7824L14.63 19.0001H19.5C20.0523 19.0001 20.5 18.5524 20.5 18.0001V13.7824ZM3.5 8.00013V12.2176L9.36963 7.00013H4.5C3.94772 7.00013 3.5 7.44784 3.5 8.00013Z" fill="currentColor"/>
</svg>
