<svg width="24" height="24" viewBox="0 0 24 24" fill="none" xmlns="http://www.w3.org/2000/svg">
<path fill-rule="evenodd" clip-rule="evenodd" d="M16.8769 6.38933C15.5058 5.58988 13.7481 6.06024 12.9505 7.45556L9.55668 13.3923C9.28258 13.8718 8.6717 14.0383 8.19223 13.7642C7.71276 13.4901 7.54627 12.8792 7.82036 12.3997L11.2141 6.46298C12.5586 4.11113 15.5451 3.29761 17.8843 4.66159L19.5638 5.6409C21.8971 7.00145 22.6891 10.006 21.3479 12.3521L17.9541 18.2889C17.68 18.7683 17.0691 18.9348 16.5897 18.6607C16.1102 18.3866 15.9437 17.7757 16.2178 17.2963L19.6116 11.3595C20.4125 9.9585 19.9333 8.17152 18.5563 7.36864L16.8769 6.38933ZM7.41036 5.33927C7.88983 5.61336 8.05633 6.22425 7.78223 6.70372L4.38845 12.6405C3.58754 14.0415 4.06676 15.8285 5.44368 16.6314L7.12317 17.6107C8.4942 18.4101 10.2519 17.9398 11.0496 16.5444L14.4433 10.6077C14.7174 10.1282 15.3283 9.96172 15.8078 10.2358C16.2873 10.5099 16.4538 11.1208 16.1797 11.6003L12.7859 17.537C11.4414 19.8889 8.45492 20.7024 6.11573 19.3384L4.43624 18.3591C2.10295 16.9985 1.31095 13.994 2.65214 11.6479L6.04592 5.71114C6.32001 5.23167 6.93089 5.06518 7.41036 5.33927Z" fill="currentColor"/>
</svg>
