<svg width="24" height="24" viewBox="0 0 24 24" fill="none" xmlns="http://www.w3.org/2000/svg">
<path fill-rule="evenodd" clip-rule="evenodd" d="M6 2C6.55228 2 7 2.44772 7 3V3.75338L7.65461 3.60792C9.56344 3.18373 11.5558 3.34531 13.3714 4.07152C14.8133 4.64827 16.3956 4.77659 17.9115 4.43971L19.7831 4.02381C20.0792 3.95801 20.3891 4.03016 20.6257 4.21996C20.8623 4.40975 21 4.69668 21 5V14C21 14.4687 20.6745 14.8745 20.2169 14.9762L18.3454 15.3921C16.4366 15.8163 14.4442 15.6547 12.6286 14.9285C11.1867 14.3517 9.60442 14.2234 8.08847 14.5603L7 14.8022V22C7 22.5523 6.55228 23 6 23C5.44772 23 5 22.5523 5 22V14V9.00001V5.00001V5V3C5 2.44772 5.44772 2 6 2ZM7 9.80218V12.7534L7.65461 12.6079C9.56344 12.1837 11.5558 12.3453 13.3714 13.0715C14.8133 13.6483 16.3956 13.7766 17.9115 13.4397L19 13.1978V6.24662L18.3454 6.39208C16.9072 6.71167 15.4216 6.69876 14 6.36238V9.00001C14 9.33183 13.8354 9.64204 13.5606 9.82807C13.2859 10.0141 12.9367 10.0517 12.6286 9.92848C11.1867 9.35174 9.60442 9.22342 8.08847 9.5603L7 9.80218ZM7 5.80218V7.75339L7.65461 7.60792C9.09276 7.28833 10.5784 7.30124 12 7.63763V5.708C10.7341 5.32449 9.38694 5.27175 8.08847 5.5603L7 5.80218Z" fill="currentColor"/>
</svg>
