<svg width="24" height="24" viewBox="0 0 24 24" fill="none" xmlns="http://www.w3.org/2000/svg">
<path fill-rule="evenodd" clip-rule="evenodd" d="M6.00017 7.5C6.00017 6.67157 6.67174 6 7.50017 6C8.3286 6 9.00017 6.67157 9.00017 7.5C9.00017 8.32843 8.3286 9 7.50017 9C6.67174 9 6.00017 8.32843 6.00017 7.5ZM7.50017 4C5.56718 4 4.00017 5.567 4.00017 7.5C4.00017 9.433 5.56718 11 7.50017 11C9.43317 11 11.0002 9.433 11.0002 7.5C11.0002 5.567 9.43317 4 7.50017 4ZM14.004 11.0802C14.0466 11.0308 14.1297 10.9905 14.2288 11.0019L20.0101 11.6717C20.3653 11.7129 20.6589 11.9095 20.8164 12.1736L22.1414 14.3943C22.4244 14.8685 23.0383 15.0236 23.5126 14.7406C23.9868 14.4576 24.1419 13.8437 23.8589 13.3695L22.5339 11.1488C22.0438 10.3273 21.1872 9.79475 20.2402 9.68504L14.459 9.01522C13.724 8.93007 12.9791 9.20574 12.489 9.77451C11.7373 10.6467 11.8336 11.855 12.5416 12.6205L4.90997 12.148C4.24757 12.107 3.58682 12.3007 3.05559 12.7016C1.20619 14.0971 1.92068 16.8621 4.09496 17.3697L14.5206 19.8036C15.5266 20.0385 16.5735 20.063 17.59 19.8756L22.2022 19.0255C22.7454 18.9254 23.1045 18.4039 23.0044 17.8608C22.9043 17.3176 22.3828 16.9585 21.8397 17.0586L17.2275 17.9087C16.4815 18.0462 15.7128 18.0282 14.9752 17.856L4.54965 15.422C3.92252 15.2756 3.84952 14.608 4.26026 14.2981C4.40292 14.1904 4.59055 14.132 4.78639 14.1442L17.1253 14.9081C17.6028 14.9377 18.0344 14.6248 18.1549 14.1617C18.2753 13.6986 18.0508 13.2151 17.6194 13.0083L14.0756 11.3092C14.0039 11.2749 13.9786 11.2275 13.9709 11.1927C13.9666 11.1735 13.9671 11.1557 13.971 11.1397C13.9746 11.1251 13.9826 11.1049 14.004 11.0802Z" fill="currentColor"/>
</svg>
