<svg width="24" height="24" viewBox="0 0 24 24" fill="none" xmlns="http://www.w3.org/2000/svg">
<path fill-rule="evenodd" clip-rule="evenodd" d="M10.9932 3.61685C11.0577 3.06834 10.6653 2.57138 10.1168 2.50685C9.56834 2.44232 9.07138 2.83466 9.00685 3.38316L8.46369 8L4.5 8C3.94772 8 3.5 8.44772 3.5 9C3.5 9.55228 3.94772 10 4.5 10L8.2284 10L7.75781 14H3.5C2.94772 14 2.5 14.4477 2.5 15C2.5 15.5523 2.94772 16 3.5 16H7.52252L7.00685 20.3832C6.94232 20.9317 7.33466 21.4287 7.88316 21.4932C8.43166 21.5577 8.92862 21.1654 8.99315 20.6169L9.53631 16H13.5225L13.0068 20.3832C12.9423 20.9317 13.3347 21.4287 13.8832 21.4932C14.4317 21.5577 14.9286 21.1654 14.9932 20.6169L15.5363 16H19.5C20.0523 16 20.5 15.5523 20.5 15C20.5 14.4477 20.0523 14 19.5 14H15.7716L16.2422 10L20.5 10C21.0523 10 21.5 9.55229 21.5 9C21.5 8.44772 21.0523 8 20.5 8L16.4775 8L16.9932 3.61685C17.0577 3.06835 16.6653 2.57139 16.1168 2.50686C15.5683 2.44233 15.0714 2.83467 15.0068 3.38317L14.4637 8L10.4775 8L10.9932 3.61685ZM10.2422 10L9.77161 14H13.7578L14.2284 10L10.2422 10Z" fill="currentColor"/>
</svg>
