<svg width="24" height="24" viewBox="0 0 24 24" fill="none" xmlns="http://www.w3.org/2000/svg">
<path fill-rule="evenodd" clip-rule="evenodd" d="M11.1963 4.82306C8.86396 2.39231 5.06476 2.39231 2.73246 4.82306C0.422514 7.23051 0.422514 11.1173 2.73246 13.5248C2.74245 13.5352 2.75267 13.5454 2.76311 13.5554L11.3091 21.7229C11.6956 22.0924 12.3044 22.0924 12.6909 21.7229L21.2369 13.5554C21.2473 13.5454 21.2575 13.5352 21.2675 13.5248C23.5775 11.1173 23.5775 7.23051 21.2675 4.82306C18.9352 2.39231 15.136 2.39231 12.8037 4.82306L12 5.66072L11.1963 4.82306ZM4.1756 6.20775C5.72071 4.59742 8.20802 4.59742 9.75313 6.20775L11.2784 7.79744C11.467 7.99398 11.7276 8.10509 12 8.10509C12.2724 8.10509 12.533 7.99398 12.7216 7.79744L14.2469 6.20775L13.6949 5.67815L14.2469 6.20775C15.792 4.59742 18.2793 4.59742 19.8244 6.20775L20.546 5.5154L19.8244 6.20775C21.2007 7.64211 21.3685 9.87165 20.328 11.5H15C14.6962 11.5 14.4089 11.6381 14.2191 11.8753L13.1176 13.2523L10.8575 9.4855C10.689 9.20474 10.3938 9.02423 10.0671 9.00225C9.74042 8.98028 9.42367 9.11963 9.21913 9.37531L7.51938 11.5H3.67198C2.63146 9.87165 2.79933 7.64211 4.1756 6.20775ZM5.59988 13.5L12 19.6167L18.4001 13.5H15.4806L13.7809 15.6247C13.5763 15.8804 13.2596 16.0197 12.9329 15.9977C12.6062 15.9758 12.311 15.7953 12.1425 15.5145L9.88244 11.7477L8.78087 13.1247C8.5911 13.3619 8.30378 13.5 8 13.5H5.59988Z" fill="currentColor"/>
</svg>
