<svg width="24" height="24" viewBox="0 0 24 24" fill="none" xmlns="http://www.w3.org/2000/svg">
<path fill-rule="evenodd" clip-rule="evenodd" d="M12.8729 1.5C9.35325 1.5 6.5 4.35325 6.5 7.87291V8C6.5 8.55228 6.94772 9 7.5 9C8.05228 9 8.5 8.55228 8.5 8V7.87291C8.5 5.45782 10.4578 3.5 12.8729 3.5H13.0276C15.1033 3.5 16.8666 5.01857 17.1745 7.07128C17.5382 9.49604 15.753 11.7142 13.3065 11.8773L12.0284 11.9626C11.1683 12.0199 10.5 12.7342 10.5 13.5962V17C10.5 17.5523 10.9477 18 11.5 18C12.0523 18 12.5 17.5523 12.5 17V13.9356L13.4396 13.8729C17.0529 13.632 19.6896 10.3559 19.1524 6.7746C18.6976 3.74284 16.0933 1.5 13.0276 1.5H12.8729ZM10 21C10 21.828 10.672 22.5 11.5 22.5C12.328 22.5 13 21.828 13 21C13 20.172 12.328 19.5 11.5 19.5C10.672 19.5 10 20.172 10 21Z" fill="currentColor"/>
</svg>
