<svg width="24" height="24" viewBox="0 0 24 24" fill="none" xmlns="http://www.w3.org/2000/svg">
<path fill-rule="evenodd" clip-rule="evenodd" d="M17.6569 6.34315C14.5327 3.21895 9.46734 3.21895 6.34315 6.34314C3.21895 9.46734 3.21895 14.5327 6.34315 17.6569C9.46734 20.781 14.5327 20.781 17.6569 17.6569C20.781 14.5327 20.781 9.46734 17.6569 6.34315ZM4.92893 4.92893C8.83417 1.02369 15.1658 1.02369 19.0711 4.92893C22.9763 8.83418 22.9763 15.1658 19.0711 19.0711C15.1658 22.9763 8.83418 22.9763 4.92893 19.0711C1.02369 15.1658 1.02369 8.83417 4.92893 4.92893ZM12 18C11.172 18 10.5 17.328 10.5 16.5C10.5 15.672 11.172 15 12 15C12.828 15 13.5 15.672 13.5 16.5C13.5 17.328 12.828 18 12 18ZM13.1083 6.56234C11.5824 6.12639 9.96246 6.83901 9.25278 8.25838L9.10557 8.55279C8.85858 9.04676 9.05881 9.64744 9.55279 9.89443C10.0468 10.1414 10.6474 9.94119 10.8944 9.44721L11.0416 9.1528C11.3209 8.59427 11.9584 8.31384 12.5588 8.48539L12.6126 8.50077C13.1379 8.65084 13.5 9.13092 13.5 9.67718C13.5 10.2604 13.0883 10.7625 12.5165 10.8769L12.2206 10.9361C11.5109 11.078 11 11.7012 11 12.4249V13C11 13.5523 11.4477 14 12 14C12.5523 14 13 13.5523 13 13V12.8184C14.459 12.4829 15.5 11.1825 15.5 9.67718C15.5 8.23795 14.5459 6.9731 13.1621 6.57772L13.1083 6.56234Z" fill="currentColor"/>
</svg>
