<svg width="24" height="24" viewBox="0 0 24 24" fill="none" xmlns="http://www.w3.org/2000/svg">
<path fill-rule="evenodd" clip-rule="evenodd" d="M21 12C21 16.9706 16.9706 21 12 21C7.02944 21 3 16.9706 3 12C3 7.02944 7.02944 3 12 3C16.9706 3 21 7.02944 21 12ZM12 18C11.172 18 10.5 17.328 10.5 16.5C10.5 15.672 11.172 15 12 15C12.828 15 13.5 15.672 13.5 16.5C13.5 17.328 12.828 18 12 18ZM12.9166 5.77482C11.3187 5.55693 9.77429 6.4417 9.15404 7.93031L9.07692 8.11538C8.86451 8.62519 9.10558 9.21066 9.61538 9.42308C10.1252 9.63549 10.7107 9.39442 10.9231 8.88462L11.0002 8.69954C11.2716 8.04825 11.9473 7.66115 12.6464 7.75648L12.8081 7.77853C13.342 7.85134 13.7775 8.24248 13.907 8.76554C14.0955 9.52691 13.5799 10.283 12.8023 10.3855L12.3437 10.446C11.5747 10.5474 11 11.2029 11 11.9785V13C11 13.5523 11.4477 14 12 14C12.5523 14 13 13.5523 13 13V12.3768L13.0638 12.3684C15.024 12.1099 16.3236 10.204 15.8483 8.28482C15.5219 6.96633 14.4241 5.9804 13.0783 5.79687L12.9166 5.77482Z" fill="currentColor"/>
</svg>
