<svg width="24" height="24" viewBox="0 0 24 24" fill="none" xmlns="http://www.w3.org/2000/svg">
<path fill-rule="evenodd" clip-rule="evenodd" d="M16.9376 3.99912C15.5793 2.6668 13.385 2.6668 12.0268 3.99912C10.6577 5.34199 10.6577 7.52734 12.0268 8.8702C12.037 8.88029 12.0475 8.89015 12.0583 8.89979L16.3312 12.7434C16.7115 13.0854 17.2885 13.0854 17.6688 12.7434L21.9417 8.89979C21.9525 8.89015 21.963 8.88029 21.9732 8.8702C23.3423 7.52734 23.3423 5.34198 21.9732 3.99912C20.615 2.6668 18.4207 2.6668 17.0624 3.99912L17 4.06032L16.9376 3.99912ZM13.4273 5.4269C14.0077 4.85754 14.9566 4.85754 15.5371 5.4269L16.2997 6.17499C16.6886 6.55647 17.3114 6.55647 17.7003 6.17499L18.4629 5.4269C19.0434 4.85754 19.9923 4.85754 20.5727 5.4269C21.1379 5.98131 21.1424 6.86946 20.5861 7.42914L17 10.6548L13.4139 7.42914C12.8576 6.86946 12.8621 5.98131 13.4273 5.4269ZM3.5 6.99988C3.5 6.44759 3.94772 5.99988 4.5 5.99988H8C8.55228 5.99988 9 5.55216 9 4.99988C9 4.44759 8.55228 3.99988 8 3.99988H4.5C2.84315 3.99988 1.5 5.34302 1.5 6.99988V16.9999C1.5 18.6567 2.84315 19.9999 4.5 19.9999H19.5C21.1569 19.9999 22.5 18.6567 22.5 16.9999V14C22.5 13.4477 22.0523 13 21.5 13C20.9477 13 20.5 13.4477 20.5 14V16.9999C20.5 17.5522 20.0523 17.9999 19.5 17.9999H4.5C3.94772 17.9999 3.5 17.5522 3.5 16.9999V6.99988Z" fill="currentColor"/>
</svg>
