<svg width="24" height="24" viewBox="0 0 24 24" fill="none" xmlns="http://www.w3.org/2000/svg">
<path fill-rule="evenodd" clip-rule="evenodd" d="M10.6396 5.13917C9.12068 3.62028 6.65806 3.62028 5.13917 5.13917C3.62028 6.65806 3.62028 9.12067 5.13917 10.6396L7.21355 12.7139C7.60408 13.1045 7.60408 13.7376 7.21355 14.1282C6.82303 14.5187 6.18986 14.5187 5.79934 14.1282L3.72496 12.0538C1.42501 9.75384 1.42502 6.0249 3.72495 3.72496C6.02489 1.42501 9.75384 1.42501 12.0538 3.72496L14.1282 5.79933C14.5187 6.18986 14.5187 6.82302 14.1282 7.21355C13.7376 7.60407 13.1045 7.60407 12.7139 7.21355L10.6396 5.13917ZM7.02974 7.02974C7.42026 6.63921 8.05342 6.63921 8.44395 7.02974L16.9703 15.5561C17.3608 15.9466 17.3608 16.5797 16.9703 16.9703C16.5797 17.3608 15.9466 17.3608 15.5561 16.9703L7.02974 8.44395C6.63921 8.05342 6.63921 7.42026 7.02974 7.02974ZM16.7864 9.87184C17.177 9.48132 17.8101 9.48132 18.2007 9.87184L20.275 11.9462C22.575 14.2462 22.575 17.9751 20.275 20.275C17.9751 22.575 14.2462 22.575 11.9462 20.275L9.87184 18.2007C9.48132 17.8101 9.48132 17.177 9.87184 16.7865C10.2624 16.3959 10.8955 16.3959 11.2861 16.7865L13.3604 18.8608C14.8793 20.3797 17.3419 20.3797 18.8608 18.8608C20.3797 17.3419 20.3797 14.8793 18.8608 13.3604L16.7864 11.2861C16.3959 10.8955 16.3959 10.2624 16.7864 9.87184Z" fill="currentColor"/>
</svg>
