<svg width="24" height="24" viewBox="0 0 24 24" fill="none" xmlns="http://www.w3.org/2000/svg">
<path fill-rule="evenodd" clip-rule="evenodd" d="M1.5 7C1.5 5.34315 2.84315 4 4.5 4H19.5C21.1569 4 22.5 5.34315 22.5 7V17C22.5 18.6569 21.1569 20 19.5 20H4.5C2.84315 20 1.5 18.6569 1.5 17V7ZM4.5 6C3.94772 6 3.5 6.44772 3.5 7V17C3.5 17.5523 3.94772 18 4.5 18H19.5C20.0523 18 20.5 17.5523 20.5 17V7C20.5 6.44772 20.0523 6 19.5 6H4.5ZM12 10C12 9.44772 12.4477 9 13 9H17.5C18.0523 9 18.5 9.44772 18.5 10C18.5 10.5523 18.0523 11 17.5 11H13C12.4477 11 12 10.5523 12 10ZM6.5 13C5.94772 13 5.5 13.4477 5.5 14C5.5 14.5523 5.94772 15 6.5 15H9.5C10.0523 15 10.5 14.5523 10.5 14C10.5 13.4477 10.0523 13 9.5 13H6.5ZM12 14C12 13.4477 12.4477 13 13 13H17.5C18.0523 13 18.5 13.4477 18.5 14C18.5 14.5523 18.0523 15 17.5 15H13C12.4477 15 12 14.5523 12 14ZM8 12C8.82843 12 9.5 11.3284 9.5 10.5C9.5 9.67157 8.82843 9 8 9C7.17157 9 6.5 9.67157 6.5 10.5C6.5 11.3284 7.17157 12 8 12Z" fill="currentColor"/>
</svg>
