<svg width="24" height="24" viewBox="0 0 24 24" fill="none" xmlns="http://www.w3.org/2000/svg">
<path fill-rule="evenodd" clip-rule="evenodd" d="M4 4C4 2.89543 4.89543 2 6 2H18C19.1046 2 20 2.89543 20 4V20C20 21.1046 19.1046 22 18 22H6C4.89543 22 4 21.1046 4 20V4ZM18 4L6 4V20H18V4ZM10.3795 8.48702C10.6629 8.44701 10.9739 8.4433 11.2927 8.51161C11.8455 8.63007 12.3527 8.95155 12.728 9.51464C12.8527 9.70155 12.9705 9.75507 13.074 9.77724C13.2069 9.80573 13.3919 9.7939 13.6236 9.7244C13.7889 9.67482 13.9493 9.60447 14.0891 9.53246C14.0185 9.09209 13.8473 8.73301 13.6064 8.47145C13.2959 8.13436 12.7931 7.875 12 7.875C11.2069 7.875 10.7041 8.13436 10.3936 8.47145L10.3795 8.48702ZM13.6205 11.513L13.6064 11.5286C13.2959 11.8656 12.7931 12.125 12 12.125C11.2069 12.125 10.7041 11.8656 10.3936 11.5286C10.1527 11.267 9.98152 10.9079 9.91092 10.4675C10.0507 10.3955 10.2111 10.3252 10.3764 10.2756C10.6081 10.2061 10.7931 10.1943 10.926 10.2228C11.0295 10.2449 11.1473 10.2985 11.272 10.4854C11.6473 11.0485 12.1545 11.3699 12.7073 11.4884C13.0261 11.5567 13.3371 11.553 13.6205 11.513ZM9.10638 7.28591C9.79592 6.53721 10.7931 6.125 12 6.125C13.2069 6.125 14.2041 6.53721 14.8936 7.28591C15.5723 8.02282 15.875 9.00049 15.875 10C15.875 10.9995 15.5723 11.9772 14.8936 12.7141C14.2041 13.4628 13.2069 13.875 12 13.875C10.7931 13.875 9.79592 13.4628 9.10638 12.7141C8.42769 11.9772 8.125 10.9995 8.125 10C8.125 9.00049 8.42769 8.02282 9.10638 7.28591ZM8.5 15.5C7.94772 15.5 7.5 15.9477 7.5 16.5C7.5 17.0523 7.94772 17.5 8.5 17.5H15.5C16.0523 17.5 16.5 17.0523 16.5 16.5C16.5 15.9477 16.0523 15.5 15.5 15.5H8.5Z" fill="currentColor"/>
</svg>
