<svg width="24" height="24" viewBox="0 0 24 24" fill="none" xmlns="http://www.w3.org/2000/svg">
<path fill-rule="evenodd" clip-rule="evenodd" d="M2.5 3.5C1.94772 3.5 1.5 3.94772 1.5 4.5V19.5C1.5 20.0523 1.94772 20.5 2.5 20.5H21.5C22.0523 20.5 22.5 20.0523 22.5 19.5V4.5C22.5 3.94772 22.0523 3.5 21.5 3.5H2.5ZM3.5 18.5V5.5H20.5V18.5H3.5ZM10.7809 11.6247C11.1259 11.1934 11.056 10.5641 10.6247 10.2191C10.1934 9.87412 9.56414 9.94404 9.21913 10.3753L5.21913 15.3753C4.979 15.6755 4.93218 16.0867 5.0987 16.4332C5.26522 16.7797 5.61559 17 6 17H10H18C18.3844 17 18.7348 16.7797 18.9013 16.4332C19.0678 16.0867 19.021 15.6755 18.7809 15.3753L14.7809 10.3753C14.5911 10.1381 14.3038 10 14 10C13.6962 10 13.4089 10.1381 13.2191 10.3753L9.51937 15H8.08062L10.7809 11.6247ZM15.9194 15L14 12.6008L12.0806 15H15.9194ZM17.5 10C18.3284 10 19 9.32843 19 8.5C19 7.67157 18.3284 7 17.5 7C16.6716 7 16 7.67157 16 8.5C16 9.32843 16.6716 10 17.5 10Z" fill="currentColor"/>
</svg>
