<svg width="24" height="24" viewBox="0 0 24 24" fill="none" xmlns="http://www.w3.org/2000/svg">
<path fill-rule="evenodd" clip-rule="evenodd" d="M9.5 2C10.0523 2 10.5 2.44772 10.5 3L10.5 18.5C10.5 19.0523 10.0523 19.5 9.5 19.5C8.94772 19.5 8.5 19.0523 8.5 18.5L8.5 3C8.5 2.44772 8.94772 2 9.5 2ZM4.5 6C5.05228 6 5.5 6.44772 5.5 7V18.5C5.5 19.0523 5.05228 19.5 4.5 19.5C3.94772 19.5 3.5 19.0523 3.5 18.5V7C3.5 6.44772 3.94772 6 4.5 6ZM19.5 7C20.0523 7 20.5 7.44772 20.5 8V18.5C20.5 19.0523 20.0523 19.5 19.5 19.5C18.9477 19.5 18.5 19.0523 18.5 18.5L18.5 8C18.5 7.44772 18.9477 7 19.5 7ZM14.5 9C15.0523 9 15.5 9.44772 15.5 10V18.5C15.5 19.0523 15.0523 19.5 14.5 19.5C13.9477 19.5 13.5 19.0523 13.5 18.5V10C13.5 9.44772 13.9477 9 14.5 9Z" fill="currentColor"/>
</svg>
