<svg width="24" height="24" viewBox="0 0 24 24" fill="none" xmlns="http://www.w3.org/2000/svg">
<path fill-rule="evenodd" clip-rule="evenodd" d="M15.2407 1.21212C15.6445 1.52774 15.7443 2.09757 15.4718 2.53166L11.7654 8.43628L19.3272 11.0551C19.6496 11.1667 19.8928 11.4349 19.9724 11.7666C20.052 12.0983 19.957 12.4477 19.7205 12.6935L16.2204 16.3299L10.0954 22.6935C9.73999 23.0627 9.16292 23.1035 8.75911 22.7879C8.35529 22.4723 8.25547 21.9025 8.52795 21.4684L12.2343 15.5637L4.67273 12.9449C4.35041 12.8333 4.10721 12.5651 4.0276 12.2334C3.94799 11.9017 4.04295 11.5523 4.2795 11.3065L7.77944 7.67019L13.9043 1.30655C14.2598 0.937277 14.8368 0.896498 15.2407 1.21212ZM15.2229 14.4822L17.1951 12.4332L9.92266 9.91463L8.77696 9.51786L6.80488 11.5668L14.0771 14.0853L15.2229 14.4822Z" fill="currentColor"/>
</svg>
