<svg width="24" height="24" viewBox="0 0 24 24" fill="none" xmlns="http://www.w3.org/2000/svg">
<path fill-rule="evenodd" clip-rule="evenodd" d="M15.4718 2.53166C15.7443 2.09757 15.6445 1.52774 15.2407 1.21212C14.8368 0.896498 14.2598 0.937277 13.9043 1.30655L7.77944 7.67019L4.2795 11.3065C4.04295 11.5523 3.94799 11.9017 4.0276 12.2334C4.10721 12.5651 4.35041 12.8333 4.67273 12.9449L12.2343 15.5637L8.52795 21.4684C8.25547 21.9025 8.35529 22.4723 8.75911 22.7879C9.16292 23.1035 9.73999 23.0627 10.0954 22.6935L16.2204 16.3299L19.7205 12.6935C19.957 12.4477 20.052 12.0983 19.9724 11.7666C19.8928 11.4349 19.6496 11.1667 19.3272 11.0551L11.7654 8.43628L15.4718 2.53166Z" fill="currentColor"/>
</svg>
