<svg width="24" height="24" viewBox="0 0 24 24" fill="none" xmlns="http://www.w3.org/2000/svg">
<path fill-rule="evenodd" clip-rule="evenodd" d="M7.02347 11H4.06189C4.4 8.28859 6.09498 5.99856 8.4459 4.83085C8.38079 4.96108 8.31806 5.09422 8.25776 5.2299C7.52256 6.88411 7.12082 8.93166 7.02347 11ZM7.02347 13H4.06189C4.4 15.7114 6.09498 18.0014 8.4459 19.1691C8.38079 19.0389 8.31806 18.9058 8.25776 18.7701C7.52256 17.1159 7.12082 15.0683 7.02347 13ZM12 20C12.0005 20 12.0011 20 12.0016 20C12.4046 19.999 13.1768 19.6179 13.9146 17.9578C14.5155 16.6058 14.8779 14.8497 14.9741 13H9.02589C9.12205 14.8497 9.48448 16.6058 10.0854 17.9578C10.8242 19.6201 11.5975 20 12 20ZM14.9741 11H9.02589C9.12205 9.1503 9.48448 7.39421 10.0854 6.04218C10.8242 4.37988 11.5975 4 12 4C12.4025 4 13.1758 4.37988 13.9146 6.04218C14.5155 7.39421 14.8779 9.1503 14.9741 11ZM16.9765 13C16.8792 15.0683 16.4774 17.1159 15.7422 18.7701C15.6819 18.9058 15.6192 19.0389 15.5541 19.1691C17.905 18.0014 19.6 15.7114 19.9381 13H16.9765ZM12 22C11.9987 22 11.9974 22 11.996 22C6.47501 21.9979 2 17.5215 2 12C2 6.47715 6.47715 2 12 2C17.5228 2 22 6.47715 22 12C22 17.5228 17.5228 22 12 22ZM15.5541 4.83085C17.905 5.99856 19.6 8.28859 19.9381 11H16.9765C16.8792 8.93166 16.4774 6.88411 15.7422 5.2299C15.6819 5.09422 15.6192 4.96108 15.5541 4.83085Z" fill="currentColor"/>
</svg>
