<svg width="24" height="24" viewBox="0 0 24 24" fill="none" xmlns="http://www.w3.org/2000/svg">
<path fill-rule="evenodd" clip-rule="evenodd" d="M20.1425 3.01019C20.4544 3.05511 20.727 3.24445 20.8779 3.52113L23.8779 9.02116C24.1424 9.50601 23.9637 10.1134 23.4788 10.3779C22.994 10.6424 22.3866 10.4637 22.1221 9.97886L20.5801 7.15194C20.401 8.22626 20.1561 9.48824 19.8317 10.7658C19.4047 12.4473 18.8264 14.2115 18.0481 15.6161C17.297 16.9718 16.2066 18.2664 14.6414 18.49C13.2425 18.6898 12.1607 18.2442 11.3293 17.4796C10.5553 16.7677 10.0106 15.7885 9.56601 14.9479C9.49924 14.8216 9.43464 14.6984 9.37168 14.5783C8.98269 13.8363 8.65602 13.2132 8.26598 12.7306C7.84666 12.2117 7.46764 12 7 12C5.92799 12 5.16051 12.7922 4.49325 14.4907C4.17373 15.304 3.92081 16.2209 3.67915 17.1564C3.63792 17.316 3.59681 17.477 3.55562 17.6384C3.362 18.3969 3.16658 19.1625 2.94868 19.8162C2.77403 20.3402 2.20771 20.6233 1.68377 20.4487C1.15982 20.274 0.876665 19.7077 1.05131 19.1837C1.24425 18.605 1.41746 17.9271 1.6107 17.1709C1.65358 17.0031 1.69744 16.8314 1.74272 16.6561C1.98543 15.7166 2.26376 14.696 2.63175 13.7594C3.33948 11.9578 4.572 10 7 10C8.28236 10 9.17833 10.6776 9.82151 11.4735C10.3473 12.124 10.7785 12.9501 11.1572 13.6756C11.2174 13.7909 11.2763 13.9037 11.334 14.0129C11.7894 14.874 12.1946 15.5582 12.6832 16.0075C13.1143 16.404 13.6075 16.6174 14.3586 16.5101C14.9434 16.4265 15.6155 15.88 16.2987 14.6468C16.9549 13.4626 17.4827 11.8902 17.8932 10.2735C18.2029 9.05413 18.438 7.84114 18.6106 6.80359L16.2071 9.20711C15.8166 9.59764 15.1834 9.59764 14.7929 9.20712C14.4024 8.8166 14.4024 8.18343 14.7929 7.79291L19.2929 3.29288C19.5157 3.07003 19.8306 2.96527 20.1425 3.01019Z" fill="currentColor"/>
</svg>
