<svg width="24" height="24" viewBox="0 0 24 24" fill="none" xmlns="http://www.w3.org/2000/svg">
<path fill-rule="evenodd" clip-rule="evenodd" d="M18.6665 19.9999C18.1143 19.9999 17.6665 19.5522 17.6665 18.9999C17.6665 18.4476 18.1143 17.9999 18.6665 17.9999H18.8585C18.8394 17.8753 18.8182 17.7422 18.7948 17.6018C18.6426 16.6889 18.4009 15.4833 18.0421 14.2873C17.6792 13.0777 17.2162 11.9455 16.6494 11.1359C16.0778 10.3192 15.5284 9.99993 14.9999 9.99993C14.1133 9.99993 13.4783 10.5239 12.4915 11.4238L12.4192 11.4898C11.5289 12.3029 10.3386 13.3899 8.56068 13.4981C7.20669 13.5805 6.16396 12.9408 5.4178 12.0834C4.69208 11.2496 4.19854 10.1644 3.85839 9.158C3.51376 8.1383 3.30148 7.12274 3.17525 6.37017C3.11177 5.99175 3.06924 5.67483 3.0424 5.45066C3.02897 5.33847 3.01943 5.24922 3.01315 5.1868C3.01001 5.15558 3.00768 5.13104 3.00609 5.11367L3.00423 5.09304L3.00369 5.08687L3.00352 5.08483L3.00345 5.08408C3.00343 5.08378 3.0034 5.08351 3.9999 4.9999L3.0034 5.08351C2.95723 4.53316 3.36595 4.04958 3.9163 4.0034C4.46652 3.95724 4.95 4.36575 4.99637 4.9159L4.9964 4.9163L4.99655 4.91797L4.99768 4.9305L5.00311 4.98662C5.00822 5.03737 5.01638 5.11407 5.02822 5.21291C5.05191 5.4108 5.09016 5.6963 5.14769 6.03932C5.26348 6.72963 5.45412 7.63302 5.7531 8.51763C6.05657 9.41551 6.44735 10.22 6.92643 10.7704C7.38506 11.2974 7.86762 11.5366 8.43918 11.5018C9.46004 11.4396 10.1705 10.8337 11.1439 9.94605L11.2251 9.87191C12.1012 9.07133 13.2738 7.99993 14.9999 7.99993C16.4714 7.99993 17.5471 8.93062 18.2879 9.98897C19.0337 11.0544 19.5706 12.4221 19.9577 13.7126C20.3489 15.0166 20.6072 16.3109 20.7676 17.273C20.848 17.7558 20.9045 18.1588 20.941 18.4427C20.9592 18.5847 20.9725 18.6971 20.9813 18.775C20.9858 18.8139 20.989 18.8443 20.9913 18.8654L20.9939 18.89L20.9946 18.897L20.9948 18.8992L20.9949 18.8999C20.9949 18.9002 20.9949 18.9004 19.9999 18.9999L20.9949 18.9004C21.0231 19.1815 20.9309 19.4614 20.7414 19.6709C20.5518 19.8804 20.2824 19.9999 19.9999 19.9999H18.6665ZM14.9999 17.9999L13.9998 18C13.4476 18 12.9999 18.4477 12.9999 19C12.9999 19.5523 13.4477 20 14 20L15 19.9999C15.5523 19.9999 16 19.5521 15.9999 18.9998C15.9999 18.4476 15.5522 17.9999 14.9999 17.9999ZM7.9999 19.0004C7.99977 18.4481 8.44737 18.0003 8.99966 18.0001L9.99966 17.9999C10.5519 17.9998 10.9998 18.4474 10.9999 18.9997C11 19.5519 10.5524 19.9998 10.0001 19.9999L9.00015 20.0001C8.44786 20.0003 8.00004 19.5527 7.9999 19.0004ZM3.99954 18.0003C3.44725 18.0005 2.9997 18.4484 2.9999 19.0006C3.00011 19.5529 3.44799 20.0005 4.00027 20.0003L5.00027 19.9999C5.55255 19.9997 6.00011 19.5518 5.9999 18.9995C5.9997 18.4473 5.55182 17.9997 4.99954 17.9999L3.99954 18.0003Z" fill="currentColor"/>
</svg>
