<svg width="24" height="24" viewBox="0 0 24 24" fill="none" xmlns="http://www.w3.org/2000/svg">
<path fill-rule="evenodd" clip-rule="evenodd" d="M7.99991 5.00034C7.99977 4.44805 8.44738 4.00023 8.99966 4.00009L9.99966 3.99985C10.5519 3.99971 10.9998 4.44732 10.9999 4.9996C11 5.55189 10.5524 5.99971 10.0002 5.99985L9.00015 6.00009C8.44787 6.00023 8.00004 5.55262 7.99991 5.00034ZM14.9999 3.99985L13.9998 3.99991C13.4476 3.99994 12.9999 4.44768 12.9999 4.99997C12.9999 5.55225 13.4477 5.99994 14 5.99991L15 5.99985C15.5523 5.99981 16 5.55207 15.9999 4.99979C15.9999 4.4475 15.5522 3.99981 14.9999 3.99985ZM18.6665 3.99985C18.1143 3.99985 17.6665 4.44757 17.6665 4.99985C17.6665 5.55213 18.1143 5.99985 18.6665 5.99985H18.8585C18.8394 6.1245 18.8182 6.25758 18.7948 6.39795C18.6426 7.31083 18.4009 8.51648 18.0421 9.71249C17.6792 10.922 17.2162 12.0543 16.6494 12.8639C16.0778 13.6805 15.5284 13.9998 14.9999 13.9998C14.1133 13.9998 13.4783 13.4758 12.4915 12.5759L12.4192 12.5099C11.5289 11.6968 10.3386 10.6099 8.56068 10.5017C7.20669 10.4193 6.16396 11.059 5.4178 11.9163C4.69208 12.7501 4.19854 13.8353 3.85839 14.8418C3.51376 15.8614 3.30148 16.877 3.17525 17.6296C3.11177 18.008 3.06924 18.3249 3.0424 18.5491C3.02897 18.6613 3.01943 18.7505 3.01315 18.813C3.01001 18.8442 3.00768 18.8687 3.00609 18.8861L3.00423 18.9067L3.00369 18.9129L3.00352 18.9149L3.00345 18.9157C3.00343 18.916 3.0034 18.9162 3.9999 18.9999L3.0034 18.9162C2.95723 19.4666 3.36595 19.9502 3.9163 19.9963C4.46652 20.0425 4.95 19.634 4.99637 19.0839L4.9964 19.0835L4.99655 19.0818L4.99768 19.0693L5.00311 19.0131C5.00822 18.9624 5.01638 18.8857 5.02822 18.7868C5.05191 18.589 5.09016 18.3035 5.14769 17.9604C5.26348 17.2701 5.45412 16.3667 5.7531 15.4821C6.05657 14.5842 6.44735 13.7798 6.92643 13.2293C7.38506 12.7024 7.86762 12.4632 8.43918 12.498C9.46004 12.5601 10.1705 13.166 11.1439 14.0537L11.2251 14.1278C12.1012 14.9284 13.2738 15.9998 14.9999 15.9998C16.4714 15.9998 17.5471 15.0691 18.2879 14.0108C19.0337 12.9454 19.5706 11.5776 19.9577 10.2872C20.3489 8.9832 20.6072 7.68886 20.7676 6.72674C20.848 6.24398 20.9045 5.84092 20.941 5.55706C20.9592 5.41504 20.9725 5.30264 20.9813 5.22476C20.9858 5.18582 20.989 5.15549 20.9913 5.13439L20.9939 5.10973L20.9946 5.10272L20.9948 5.10058L20.9949 5.09985C20.9949 5.09958 20.9949 5.09935 19.9999 4.99985L20.9949 5.09935C21.0231 4.81822 20.9309 4.53833 20.7414 4.32884C20.5518 4.11936 20.2824 3.99985 19.9999 3.99985H18.6665ZM3.99954 4.00021C3.44726 4.00042 2.99971 4.4483 2.99991 5.00058C3.00011 5.55286 3.44799 6.00042 4.00027 6.00021L5.00027 5.99985C5.55256 5.99965 6.00011 5.55177 5.99991 4.99948C5.99971 4.4472 5.55183 3.99965 4.99954 3.99985L3.99954 4.00021Z" fill="currentColor"/>
</svg>
