<svg width="24" height="24" viewBox="0 0 24 24" fill="none" xmlns="http://www.w3.org/2000/svg">
<path fill-rule="evenodd" clip-rule="evenodd" d="M5 3C4.44772 3 4 3.44772 4 4C4 4.55228 4.44772 5 5 5H19C19.5523 5 20 4.55228 20 4C20 3.44772 19.5523 3 19 3H5ZM8.5 7.5C8.5 6.94772 8.05228 6.5 7.5 6.5C6.94772 6.5 6.5 6.94772 6.5 7.5V16.5C6.5 17.0523 6.94772 17.5 7.5 17.5C8.05228 17.5 8.5 17.0523 8.5 16.5V7.5ZM13 7.5C13 6.94772 12.5523 6.5 12 6.5C11.4477 6.5 11 6.94772 11 7.5V16.5C11 17.0523 11.4477 17.5 12 17.5C12.5523 17.5 13 17.0523 13 16.5V7.5ZM16.5 6.5C17.0523 6.5 17.5 6.94772 17.5 7.5V10.5C17.5 11.0523 17.0523 11.5 16.5 11.5C15.9477 11.5 15.5 11.0523 15.5 10.5V7.5C15.5 6.94772 15.9477 6.5 16.5 6.5ZM4 20C4 19.4477 4.44772 19 5 19L19 19C19.5523 19 20 19.4477 20 20C20 20.5523 19.5523 21 19 21L5 21C4.44772 21 4 20.5523 4 20ZM22.7458 12.1662C23.1137 11.7544 23.0781 11.1222 22.6662 10.7542C22.2544 10.3863 21.6222 10.4219 21.2542 10.8338L17.5689 14.959L16.2758 13.369C15.9273 12.9406 15.2975 12.8757 14.869 13.2242C14.4406 13.5727 14.3757 14.2025 14.7242 14.631L16.7574 17.131C16.9422 17.3582 17.2173 17.4929 17.51 17.4997C17.8028 17.5065 18.0838 17.3846 18.279 17.1662L22.7458 12.1662Z" fill="currentColor"/>
</svg>
