<svg width="24" height="24" viewBox="0 0 24 24" fill="none" xmlns="http://www.w3.org/2000/svg">
<path d="M19.5 4C21.1569 4 22.5 5.34315 22.5 7V17C22.5 18.6569 21.1569 20 19.5 20H4.5C2.84315 20 1.5 18.6569 1.5 17V7C1.5 5.34315 2.84315 4 4.5 4H19.5ZM4.5 6C3.94772 6 3.5 6.44772 3.5 7V17C3.5 17.5523 3.94772 18 4.5 18H19.5C20.0523 18 20.5 17.5523 20.5 17V7C20.5 6.44772 20.0523 6 19.5 6H4.5ZM7.5 16H5.5V14.5H7.5V16ZM15 16H9V14.5H15V16ZM18.5 16H16.5V14.5H18.5V16ZM7.5 12.75H5.5V11.25H7.5V12.75ZM11 12.75H9V11.25H11V12.75ZM14.5 12.75H12.5V11.25H14.5V12.75ZM18.5 12.75H16V11.25H18.5V12.75ZM7.5 9.5H5.5V8H7.5V9.5ZM11 9.5H9V8H11V9.5ZM14.5 9.5H12.5V8H14.5V9.5ZM18.5 9.5H16V8H18.5V9.5Z" fill="#FF00FF"/>
</svg>
