<svg width="24" height="24" viewBox="0 0 24 24" fill="none" xmlns="http://www.w3.org/2000/svg">
<path fill-rule="evenodd" clip-rule="evenodd" d="M4.00001 4C3.44772 4 3.00001 4.44772 3.00001 5C3.00001 5.55228 3.44772 6 4.00001 6H20C20.5523 6 21 5.55228 21 5C21 4.44772 20.5523 4 20 4H4.00001ZM12.7808 8.3753C12.591 8.13809 12.3037 8 11.9999 8C11.6961 8 11.4088 8.13809 11.2191 8.37531L3.21914 18.3753C2.979 18.6755 2.93219 19.0867 3.09871 19.4332C3.26523 19.7797 3.61561 20 4.00001 20H20C20.3844 20 20.7348 19.7797 20.9013 19.4332C21.0678 19.0867 21.021 18.6755 20.7809 18.3753L12.7808 8.3753ZM6.08062 18L11.9999 10.6008L17.9194 18H6.08062Z" fill="currentColor"/>
</svg>
