<svg width="24" height="24" viewBox="0 0 24 24" fill="none" xmlns="http://www.w3.org/2000/svg">
<path fill-rule="evenodd" clip-rule="evenodd" d="M15.5 3.01471C14.9477 3.01471 14.5 3.46242 14.5 4.01471C14.5 4.56699 14.9477 5.01471 15.5 5.01471H17.5711L11.2929 11.2929C10.9024 11.6834 10.9024 12.3166 11.2929 12.7071C11.6834 13.0976 12.3166 13.0976 12.7071 12.7071L18.9853 6.42893V8.5C18.9853 9.05228 19.433 9.5 19.9853 9.5C20.5376 9.5 20.9853 9.05228 20.9853 8.5V4.01471C20.9853 3.46242 20.5376 3.01471 19.9853 3.01471H15.5ZM4 5C3.44772 5 3 5.44772 3 6V20C3 20.5523 3.44772 21 4 21H18C18.5523 21 19 20.5523 19 20V16C19 15.4477 18.5523 15 18 15C17.4477 15 17 15.4477 17 16V19H5V7H8C8.55228 7 9 6.55228 9 6C9 5.44772 8.55228 5 8 5H4Z" fill="currentColor"/>
</svg>
