<svg width="24" height="24" viewBox="0 0 24 24" fill="none" xmlns="http://www.w3.org/2000/svg">
<path d="M7.83105 3.125C8.482 3.125 9.11569 3.33703 9.63574 3.72852L11.5674 5.18262C11.7407 5.31312 11.952 5.38379 12.1689 5.38379H19.5C21.1567 5.38379 22.4997 6.72715 22.5 8.38379V17.9365C22.5 19.5934 21.1569 20.9365 19.5 20.9365H4.5C2.84315 20.9365 1.5 19.5934 1.5 17.9365V6.125C1.50025 4.46836 2.8433 3.125 4.5 3.125H7.83105ZM4.5 5.125C3.94787 5.125 3.50025 5.57293 3.5 6.125V17.9365C3.5 18.4888 3.94772 18.9365 4.5 18.9365H19.5C20.0523 18.9365 20.5 18.4888 20.5 17.9365V8.38379C20.4997 7.83172 20.0521 7.38379 19.5 7.38379H12.1689C11.5179 7.38379 10.8844 7.17187 10.3643 6.78027L8.43262 5.32617C8.25931 5.19578 8.04795 5.125 7.83105 5.125H4.5Z" fill="#FF00FF"/>
<path d="M2.5 13C2.5 11.8954 3.39543 11 4.5 11H19.5C20.6046 11 21.5 11.8954 21.5 13V18C21.5 19.1046 20.6046 20 19.5 20H4.5C3.39543 20 2.5 19.1046 2.5 18V13Z" stroke="#FF00FF" stroke-width="2" stroke-linejoin="round"/>
</svg>
