<svg width="24" height="24" viewBox="0 0 24 24" fill="none" xmlns="http://www.w3.org/2000/svg">
<path fill-rule="evenodd" clip-rule="evenodd" d="M7.04408 5.01597C8.35555 3.72711 10.1379 3 12 3C13.8621 3 15.6445 3.72711 16.9559 5.01597C18.2668 6.30425 19 8.0478 19 9.86207C19 12.5178 17.235 15.1831 15.2686 17.2922C14.3072 18.3233 13.3425 19.1741 12.617 19.7674C12.3828 19.9589 12.1743 20.1229 12 20.2568C11.8257 20.1229 11.6172 19.9589 11.383 19.7674C10.6575 19.1741 9.6928 18.3233 8.73141 17.2922C6.76497 15.1831 5 12.5178 5 9.86207C5 8.0478 5.7332 6.30425 7.04408 5.01597ZM11.4314 22.3226C11.4316 22.3228 11.4319 22.3229 12 21.5L11.4319 22.3229C11.7738 22.559 12.2262 22.559 12.5681 22.3229L12 21.5C12.5681 22.3229 12.5684 22.3228 12.5686 22.3226L12.5693 22.3221L12.5713 22.3208L12.5773 22.3166L12.5979 22.3022C12.6154 22.2899 12.6402 22.2723 12.6719 22.2496C12.7354 22.2042 12.8264 22.1381 12.9412 22.0527C13.1705 21.8818 13.495 21.6329 13.883 21.3156C14.6575 20.6823 15.6928 19.77 16.7314 18.6561C18.765 16.475 21 13.3213 21 9.86207C21 7.50603 20.0475 5.25008 18.3578 3.58952C16.6687 1.92953 14.3814 1 12 1C9.61861 1 7.33133 1.92953 5.64221 3.58952C3.95251 5.25008 3 7.50603 3 9.86207C3 13.3213 5.23503 16.475 7.26859 18.6561C8.3072 19.77 9.34247 20.6823 10.117 21.3156C10.505 21.6329 10.8295 21.8818 11.0588 22.0527C11.1736 22.1381 11.2646 22.2042 11.3281 22.2496C11.3598 22.2723 11.3846 22.2899 11.4021 22.3022L11.4227 22.3166L11.4287 22.3208L11.4307 22.3221L11.4314 22.3226ZM14.0001 9.49999C14.0001 10.6046 13.1046 11.5 12.0001 11.5C10.8955 11.5 10.0001 10.6046 10.0001 9.49999C10.0001 8.39542 10.8955 7.49999 12.0001 7.49999C13.1046 7.49999 14.0001 8.39542 14.0001 9.49999Z" fill="currentColor"/>
</svg>
