<svg width="24" height="24" viewBox="0 0 24 24" fill="none" xmlns="http://www.w3.org/2000/svg">
<path fill-rule="evenodd" clip-rule="evenodd" d="M2 4C2 2.89543 2.89543 2 4 2H18C19.1046 2 20 2.89543 20 4V6.5C20 7.05228 19.5523 7.5 19 7.5C18.4477 7.5 18 7.05228 18 6.5V4L4 4V13H7.94737C8.49965 13 8.94737 13.4477 8.94737 14C8.94737 14.5523 8.49965 15 7.94737 15H4C2.89543 15 2 14.1046 2 13V4ZM16.5 11C15.5854 11 14.6994 11.3783 14.0396 12.0659C13.3784 12.755 13 13.6981 13 14.6897C13 16.1465 13.9261 17.7408 15.0232 19.0785C15.5527 19.7241 16.0848 20.2653 16.4853 20.6453L16.5 20.6593L16.5147 20.6453C16.9152 20.2653 17.4473 19.7241 17.9768 19.0785C19.0739 17.7408 20 16.1465 20 14.6897C20 13.6981 19.6216 12.755 18.9604 12.0659C18.3006 11.3783 17.4146 11 16.5 11ZM16.5 22C15.8687 22.7756 15.8685 22.7754 15.8683 22.7752L15.8678 22.7748L15.8664 22.7737L15.8625 22.7704L15.8498 22.76L15.8058 22.7233C15.7686 22.692 15.7157 22.647 15.6495 22.5892C15.5171 22.4738 15.3308 22.307 15.1085 22.096C14.6652 21.6753 14.0723 21.0729 13.4768 20.3468C12.3239 18.9412 11 16.8803 11 14.6897C11 13.1937 11.5699 11.7511 12.5965 10.6812C13.6244 9.60991 15.0277 9 16.5 9C17.9723 9 19.3756 9.60991 20.4035 10.6812C21.4301 11.7511 22 13.1937 22 14.6897C22 16.8803 20.6761 18.9412 19.5232 20.3468C18.9277 21.0729 18.3348 21.6753 17.8915 22.096C17.6692 22.307 17.4829 22.4738 17.3505 22.5892C17.2843 22.647 17.2314 22.692 17.1942 22.7233L17.1502 22.76L17.1375 22.7704L17.1336 22.7737L17.1322 22.7748L17.1317 22.7752C17.1315 22.7754 17.1313 22.7756 16.5 22ZM16.5 22L17.1313 22.7756C16.7636 23.0748 16.2364 23.0748 15.8687 22.7756L16.5 22ZM18 14.5C18 15.3284 17.3284 16 16.5 16C15.6716 16 15 15.3284 15 14.5C15 13.6716 15.6716 13 16.5 13C17.3284 13 18 13.6716 18 14.5Z" fill="currentColor"/>
</svg>
