<svg width="24" height="24" viewBox="0 0 24 24" fill="none" xmlns="http://www.w3.org/2000/svg">
<path fill-rule="evenodd" clip-rule="evenodd" d="M9 6C9 4.34315 10.3431 3 12 3C13.6569 3 15 4.34315 15 6V8H9V6ZM7 8V6C7 3.23858 9.23858 1 12 1C14.7614 1 17 3.23858 17 6V8H19.5C20.6046 8 21.5 8.89543 21.5 10V20.5C21.5 21.6046 20.6046 22.5 19.5 22.5H4.5C3.39543 22.5 2.5 21.6046 2.5 20.5V10C2.5 8.89543 3.39543 8 4.5 8H7ZM4.5 20.5V10H19.5V20.5H4.5ZM13 16.2324C13.5978 15.8866 14 15.2403 14 14.5C14 13.3954 13.1046 12.5 12 12.5C10.8954 12.5 10 13.3954 10 14.5C10 15.2403 10.4022 15.8866 11 16.2324V18H13V16.2324Z" fill="currentColor"/>
</svg>
