<svg width="24" height="24" viewBox="0 0 24 24" fill="none" xmlns="http://www.w3.org/2000/svg">
<path fill-rule="evenodd" clip-rule="evenodd" d="M9 5.5C9 3.84315 10.3431 2.5 12 2.5C13.6569 2.5 15 3.84315 15 5.5C15 6.05228 15.4477 6.5 16 6.5C16.5523 6.5 17 6.05228 17 5.5C17 2.73858 14.7614 0.5 12 0.5C9.23858 0.5 7 2.73858 7 5.5V8H4.5C3.39543 8 2.5 8.89543 2.5 10V20.5C2.5 21.6046 3.39543 22.5 4.5 22.5H19.5C20.6046 22.5 21.5 21.6046 21.5 20.5V10C21.5 8.89543 20.6046 8 19.5 8H9V5.5ZM8 10H4.5V20.5H19.5V10H8ZM13 16.2324C13.5978 15.8866 14 15.2403 14 14.5C14 13.3954 13.1046 12.5 12 12.5C10.8954 12.5 10 13.3954 10 14.5C10 15.2403 10.4022 15.8866 11 16.2324V18H13V16.2324Z" fill="currentColor"/>
</svg>
