<svg width="24" height="24" viewBox="0 0 24 24" fill="none" xmlns="http://www.w3.org/2000/svg">
<path fill-rule="evenodd" clip-rule="evenodd" d="M4 3C3.44772 3 3 3.44772 3 4V20C3 20.5523 3.44772 21 4 21H8C8.55228 21 9 20.5523 9 20C9 19.4477 8.55228 19 8 19H5V5H8C8.55228 5 9 4.55228 9 4C9 3.44772 8.55228 3 8 3H4ZM18.1508 8.24074C17.7315 7.88132 17.1002 7.92988 16.7407 8.34921C16.3813 8.76854 16.4299 9.39984 16.8492 9.75926L18.2967 11H9C8.44772 11 8 11.4477 8 12C8 12.5523 8.44772 13 9 13H18.2967L16.8492 14.2407C16.4299 14.6002 16.3813 15.2315 16.7407 15.6508C17.1002 16.0701 17.7315 16.1187 18.1508 15.7593L21.6508 12.7592C21.8724 12.5693 22 12.2919 22 12C22 11.7081 21.8724 11.4307 21.6508 11.2407L18.1508 8.24074Z" fill="currentColor"/>
</svg>
