<svg width="24" height="24" viewBox="0 0 24 24" fill="none" xmlns="http://www.w3.org/2000/svg">
<path d="M13.8092 10.2367H9.93994L10.6976 6.8066H13.9735C15.3128 6.8066 16.0876 7.41709 16.0876 8.42781C16.0876 9.62541 15.1485 10.2367 13.8092 10.2367ZM12.4231 17.2144H8.39816L9.28586 13.1972H12.5641C14.1853 13.1972 15.1719 13.8778 15.1719 15.0995C15.1719 16.3446 14.1619 17.2144 12.4231 17.2144ZM19.8704 7.84069C19.8704 5.60666 18.1706 4.15676 15.8338 3.73783L16.2402 1.80437C16.3267 1.38934 16.0105 1 15.5869 1H13.1247C12.8094 1 12.5376 1.21959 12.4722 1.52794L12.0284 3.61169H7.98468C7.7503 3.61169 7.54707 3.77443 7.49645 4.00336L4.01187 19.7778C3.94335 20.0901 4.18007 20.386 4.5001 20.386H8.30394L7.92317 22.1746C7.83596 22.5881 8.14899 22.9782 8.57103 22.9813L11.0371 23C11.3548 23.0023 11.6305 22.7804 11.6959 22.4689L12.1327 20.386H12.5166C16.4637 20.386 18.9773 18.2244 18.9773 15.4289C18.9773 13.7843 18.0849 12.445 16.6989 11.7637C18.4377 11.2708 19.8704 9.88394 19.8704 7.84069Z" fill="currentColor"/>
</svg>
