<svg width="24" height="24" viewBox="0 0 24 24" fill="none" xmlns="http://www.w3.org/2000/svg">
<path d="M13.5928 10.3333C13.5932 10.3333 13.5936 10.3334 13.594 10.3335C16.968 11.1027 18.5104 12.5899 18.5104 15.1026C18.5104 18.2526 16.0989 20.5782 12.3352 20.8244L11.9663 22.6952C11.9313 22.8729 11.7844 23 11.6142 23H8.69861C8.46623 23 8.29479 22.7686 8.34855 22.5275L8.81564 20.4327C6.93844 19.8642 5.43042 18.7559 4.55748 17.3893C4.45514 17.2291 4.49406 17.0139 4.63767 16.895L6.67515 15.2082C6.8431 15.0692 7.08618 15.1157 7.21069 15.2995C8.28332 16.883 9.9266 17.8205 11.9056 17.8205C13.6892 17.8205 15.039 16.8974 15.039 15.5641C15.039 14.5385 14.3641 14.0769 12.0984 13.5641C8.19379 12.6923 6.65121 11.1538 6.65121 8.64103C6.65121 5.72564 8.95423 3.52308 12.4286 3.23718L12.8096 1.30477C12.8447 1.12716 12.9916 1 13.1618 1H16.0382C16.2677 1 16.4385 1.22602 16.3898 1.46518L15.9483 3.63269C17.4551 4.12624 18.6797 5.01112 19.4358 6.10289C19.5442 6.25949 19.5108 6.47694 19.3695 6.60024L17.5119 8.22161C17.3484 8.36432 17.1061 8.32572 16.9726 8.15114C16.0336 6.92399 14.5607 6.23077 12.9655 6.23077C11.2301 6.23077 10.0732 7.05128 10.0732 8.23077C10.0732 9.20505 10.9408 9.71787 13.5916 10.3332C13.592 10.3333 13.5924 10.3333 13.5928 10.3333Z" fill="currentColor"/>
</svg>
