<svg width="24" height="24" viewBox="0 0 24 24" fill="none" xmlns="http://www.w3.org/2000/svg">
<path d="M19.7346 7.22754L17.231 5.79363L14.6913 4.33799C13.0126 3.37481 10.9142 4.58422 10.9142 6.52507V6.85096C10.9132 6.93953 10.9363 7.02669 10.9809 7.1032C11.0255 7.17971 11.0899 7.2427 11.1674 7.28548L12.3469 7.95898C12.4214 8.0016 12.5058 8.02383 12.5916 8.02343C12.6774 8.02303 12.7615 8.00001 12.8356 7.95669C12.9097 7.91338 12.9711 7.85129 13.0136 7.77668C13.0561 7.70207 13.0782 7.61758 13.0777 7.5317V6.75681C13.0777 6.66948 13.1007 6.58368 13.1442 6.50797C13.1877 6.43227 13.2502 6.3693 13.3256 6.32534C13.401 6.28137 13.4866 6.25796 13.5739 6.25743C13.6612 6.25689 13.747 6.27926 13.823 6.32229L16.1384 7.65482L18.4467 8.9801C18.5224 9.02361 18.5854 9.08637 18.6292 9.16202C18.6729 9.23768 18.696 9.32356 18.696 9.41099C18.696 9.49842 18.6729 9.58431 18.6292 9.65996C18.5854 9.73562 18.5224 9.79838 18.4467 9.84189L16.1384 11.1672L13.823 12.4997C13.747 12.5427 13.6612 12.5651 13.5739 12.5646C13.4866 12.564 13.401 12.5406 13.3256 12.4967C13.2502 12.4527 13.1877 12.3897 13.1442 12.314C13.1007 12.2383 13.0777 12.1525 13.0777 12.0652V11.6814C13.0777 9.7405 10.9793 8.52385 9.30059 9.49428L6.76805 10.9572L4.26446 12.3911C2.57851 13.3615 2.57851 15.802 4.26446 16.7725L6.76805 18.2064L9.30782 19.662C10.9865 20.6252 13.0849 19.4158 13.0849 17.4749V17.149C13.0859 17.0605 13.0628 16.9733 13.0182 16.8968C12.9736 16.8203 12.9092 16.7573 12.8317 16.7145L11.6522 16.041C11.5777 15.9984 11.4933 15.9762 11.4075 15.9766C11.3217 15.977 11.2375 16 11.1635 16.0433C11.0894 16.0866 11.028 16.1487 10.9855 16.2233C10.943 16.2979 10.9209 16.3824 10.9214 16.4683V17.2432C10.9214 17.3305 10.8984 17.4163 10.8549 17.492C10.8114 17.5677 10.7488 17.6307 10.6734 17.6747C10.598 17.7186 10.5124 17.742 10.4252 17.7426C10.3379 17.7431 10.2521 17.7207 10.1761 17.6777L7.86066 16.3452L5.55243 15.0199C5.47667 14.9764 5.41372 14.9136 5.36994 14.838C5.32616 14.7623 5.30311 14.6764 5.30311 14.589C5.30311 14.5016 5.32616 14.4157 5.36994 14.34C5.41372 14.2644 5.47667 14.2016 5.55243 14.1581L7.86066 12.8328L10.1761 11.5003C10.2521 11.4573 10.3379 11.4349 10.4252 11.4354C10.5124 11.436 10.598 11.4594 10.6734 11.5033C10.7488 11.5473 10.8114 11.6103 10.8549 11.686C10.8984 11.7617 10.9214 11.8475 10.9214 11.9348V12.3186C10.9214 14.2595 13.0198 15.4761 14.6985 14.5057L17.2383 13.0501L19.7419 11.6162C21.4206 10.6385 21.4206 8.19796 19.7346 7.22754Z" fill="currentColor"/>
</svg>
