<svg width="24" height="24" viewBox="0 0 24 24" fill="none" xmlns="http://www.w3.org/2000/svg">
<path fill-rule="evenodd" clip-rule="evenodd" d="M12.7317 2.16133C12.6521 1.94622 12.3479 1.94622 12.2683 2.16133L11.7386 3.59267C11.7136 3.66029 11.6603 3.71362 11.5927 3.73864L10.1613 4.26828C9.94622 4.34788 9.94622 4.65212 10.1613 4.73172L11.5927 5.26136C11.6603 5.28638 11.7136 5.33971 11.7386 5.40733L12.2683 6.83867C12.3479 7.05378 12.6521 7.05378 12.7317 6.83867L13.2614 5.40733C13.2864 5.33971 13.3397 5.28638 13.4073 5.26136L14.8387 4.73172C15.0538 4.65212 15.0538 4.34788 14.8387 4.26828L13.4073 3.73864C13.3397 3.71362 13.2864 3.66029 13.2614 3.59267L12.7317 2.16133ZM2.76896 7.16086C2.84832 6.94638 3.15168 6.94638 3.23104 7.16086L3.62606 8.22839C3.65102 8.29582 3.70418 8.34898 3.77161 8.37394L4.83914 8.76896C5.05362 8.84832 5.05362 9.15168 4.83914 9.23104L3.77161 9.62606C3.70418 9.65102 3.65102 9.70418 3.62606 9.77161L3.23104 10.8391C3.15168 11.0536 2.84832 11.0536 2.76896 10.8391L2.37394 9.77161C2.34898 9.70418 2.29582 9.65102 2.22839 9.62606L1.16086 9.23104C0.94638 9.15168 0.94638 8.84832 1.16086 8.76896L2.22839 8.37394C2.29582 8.34898 2.34898 8.29582 2.37394 8.22839L2.76896 7.16086ZM6.80072 16.1387C6.86917 15.9538 7.13083 15.9538 7.19928 16.1387L7.88435 17.9901C7.90587 18.0483 7.95173 18.0941 8.00989 18.1157L9.86125 18.8007C10.0462 18.8692 10.0462 19.1308 9.86125 19.1993L8.00989 19.8843C7.95173 19.9059 7.90587 19.9517 7.88435 20.0099L7.19928 21.8613C7.13083 22.0462 6.86917 22.0462 6.80072 21.8613L6.11565 20.0099C6.09413 19.9517 6.04827 19.9059 5.99011 19.8843L4.13875 19.1993C3.95375 19.1308 3.95375 18.8692 4.13875 18.8007L5.99011 18.1157C6.04827 18.0941 6.09413 18.0483 6.11565 17.9901L6.80072 16.1387ZM21.2929 22.7071L11.2929 12.7071L12.7071 11.2929L22.7071 21.2929C23.0976 21.6834 23.0976 22.3166 22.7071 22.7071C22.3166 23.0976 21.6834 23.0976 21.2929 22.7071ZM8.70711 7.29289C8.31658 6.90237 7.68342 6.90237 7.29289 7.29289C6.90237 7.68342 6.90237 8.31658 7.29289 8.70711L10.2929 11.7071L11.7071 10.2929L8.70711 7.29289Z" fill="currentColor"/>
</svg>
