<svg width="24" height="24" viewBox="0 0 24 24" fill="none" xmlns="http://www.w3.org/2000/svg">
<path fill-rule="evenodd" clip-rule="evenodd" d="M21.5679 2.67693C21.2974 2.49025 20.9524 2.44845 20.6451 2.56511L15 4.70815L9.35491 2.56511C9.12627 2.47831 8.87373 2.47831 8.64508 2.56511L2.64508 4.84288C2.25676 4.9903 2 5.36242 2 5.77778V20C2 20.3287 2.16153 20.6364 2.43207 20.8231C2.70261 21.0098 3.04762 21.0516 3.35492 20.9349L9 18.7919L14.6451 20.9349C14.8737 21.0217 15.1263 21.0217 15.3549 20.9349L21.3549 18.6571C21.7432 18.5097 22 18.1376 22 17.7222V3.50001C22 3.17131 21.8385 2.8636 21.5679 2.67693ZM8 17.0322L4 18.5507V6.46779L8 4.94927V17.0322ZM10 4.94927V17.0322L14 18.5507V6.46779L10 4.94927ZM16 6.46779L20 4.94927V17.0322L16 18.5507V6.46779Z" fill="currentColor"/>
</svg>
