<svg width="24" height="24" viewBox="0 0 24 24" fill="none" xmlns="http://www.w3.org/2000/svg">
<path fill-rule="evenodd" clip-rule="evenodd" d="M6.5 3.5C5.94772 3.5 5.5 3.94772 5.5 4.5V10.9999H2.5C1.94772 10.9999 1.5 11.4476 1.5 11.9999V19.9999C1.5 20.5522 1.94772 20.9999 2.5 20.9999H5.5H7.5H16.5H18.5H21.5C22.0523 20.9999 22.5 20.5522 22.5 19.9999V11.9999C22.5 11.4476 22.0523 10.9999 21.5 10.9999H18.5V4.5C18.5 3.94772 18.0523 3.5 17.5 3.5H6.5ZM18.5 12.9999V18.9999H20.5V12.9999H18.5ZM16.5 18.9999V5.5H7.5V18.9999H16.5ZM5.5 18.9999V12.9999H3.5V18.9999H5.5ZM12 7C12.5523 7 13 7.44772 13 8V9H14C14.5523 9 15 9.44771 15 10C15 10.5523 14.5523 11 14 11H13V12C13 12.5523 12.5523 13 12 13C11.4477 13 11 12.5523 11 12V11H10C9.44772 11 9 10.5523 9 10C9 9.44772 9.44772 9 10 9H11V8C11 7.44771 11.4477 7 12 7Z" fill="currentColor"/>
</svg>
