<svg width="24" height="24" viewBox="0 0 24 24" fill="none" xmlns="http://www.w3.org/2000/svg">
<path fill-rule="evenodd" clip-rule="evenodd" d="M1.89443 4.55279C1.64744 4.05881 1.04677 3.85859 0.552792 4.10558C0.0588133 4.35257 -0.141411 4.95324 0.105578 5.44722L2.00001 9.23607V20C2.00001 20.5523 2.44772 21 3.00001 21H10H21C21.5523 21 22 20.5523 22 20V9.23607L23.8944 5.44722C24.0494 5.13723 24.0329 4.76909 23.8507 4.47427C23.6684 4.17946 23.3466 4.00001 23 4.00001H12C11.6212 4.00001 11.275 4.21401 11.1056 4.55279L9.38197 8.00001H3.61804L1.89443 4.55279ZM4.00001 19V10H9.00001V19H4.00001ZM11 19V10H20V19H11ZM21.382 6.00001L20.382 8.00001H11.618L12.618 6.00001H21.382ZM16.1216 12.0804C15.9822 11.8738 15.7492 11.75 15.5 11.75C15.2508 11.75 15.0178 11.8738 14.8784 12.0804L13.3784 14.3026C13.1466 14.6459 13.2371 15.1121 13.5804 15.3439C13.9237 15.5756 14.3899 15.4852 14.6216 15.1418L14.75 14.9517V16.5C14.75 16.9142 15.0858 17.25 15.5 17.25C15.9142 17.25 16.25 16.9142 16.25 16.5V14.9517L16.3784 15.1418C16.6101 15.4852 17.0763 15.5756 17.4196 15.3439C17.7629 15.1121 17.8534 14.6459 17.6216 14.3026L16.1216 12.0804Z" fill="currentColor"/>
</svg>
