<svg width="24" height="24" viewBox="0 0 24 24" fill="none" xmlns="http://www.w3.org/2000/svg">
<path fill-rule="evenodd" clip-rule="evenodd" d="M4 9C4 6.23857 6.23858 4 9 4C11.4483 4 13.4857 5.75974 13.9162 8.0834C10.9181 8.54941 8.54941 10.9181 8.0834 13.9162C5.75974 13.4857 4 11.4483 4 9ZM8.06227 15.9377C4.63967 15.4795 2 12.548 2 9C2 5.134 5.13401 2 9 2C12.548 2 15.4795 4.63967 15.9377 8.06227C19.3603 8.52049 22 11.452 22 15C22 18.866 18.866 22 15 22C11.452 22 8.52049 19.3603 8.06227 15.9377ZM15.9166 10.0838C18.2403 10.5143 20 12.5517 20 15C20 17.7614 17.7614 20 15 20C12.5517 20 10.5143 18.2403 10.0838 15.9166C13.0819 15.4506 15.4506 13.0819 15.9166 10.0838ZM10.1277 13.8723C11.9836 13.4445 13.4445 11.9836 13.8723 10.1277C12.0164 10.5555 10.5555 12.0164 10.1277 13.8723Z" fill="currentColor"/>
</svg>
