<svg width="24" height="24" viewBox="0 0 24 24" fill="none" xmlns="http://www.w3.org/2000/svg">
<path fill-rule="evenodd" clip-rule="evenodd" d="M4.06189 15H2.04938C2.23986 13.0815 2.97255 11.3225 4.09205 9.87842L5.62977 11.1598C4.79751 12.2535 4.24046 13.568 4.06189 15ZM7.03455 9.72709C8.15251 8.84095 9.51288 8.24734 11 8.06189V6.04938C8.89748 6.25813 6.98653 7.11809 5.47171 8.42472L7.03455 9.72709ZM13 8.06189V6.04938C15.1025 6.25813 17.0135 7.11809 18.5283 8.42472L16.9654 9.72709C15.8475 8.84095 14.4871 8.24734 13 8.06189ZM18.3702 11.1598L19.908 9.87842C21.0275 11.3225 21.7601 13.0815 21.9506 15H19.9381C19.7595 13.568 19.2025 12.2535 18.3702 11.1598ZM12 4C5.37258 4 0 9.37258 0 16C0 16.5523 0.447715 17 1 17H5C5.55228 17 6 16.5523 6 16C6 12.6863 8.68629 10 12 10C15.3137 10 18 12.6863 18 16C18 16.5523 18.4477 17 19 17H23C23.5523 17 24 16.5523 24 16C24 9.37258 18.6274 4 12 4ZM10.7071 14.2929C10.3166 13.9024 9.68342 13.9024 9.29289 14.2929C8.90237 14.6834 8.90237 15.3166 9.29289 15.7071L10.5858 17L9.29289 18.2929C8.90237 18.6834 8.90237 19.3166 9.29289 19.7071C9.68342 20.0976 10.3166 20.0976 10.7071 19.7071L12 18.4142L13.2929 19.7071C13.6834 20.0976 14.3166 20.0976 14.7071 19.7071C15.0976 19.3166 15.0976 18.6834 14.7071 18.2929L13.4142 17L14.7071 15.7071C15.0976 15.3166 15.0976 14.6834 14.7071 14.2929C14.3166 13.9024 13.6834 13.9024 13.2929 14.2929L12 15.5858L10.7071 14.2929Z" fill="currentColor"/>
</svg>
