<svg width="24" height="24" viewBox="0 0 24 24" fill="none" xmlns="http://www.w3.org/2000/svg">
<path fill-rule="evenodd" clip-rule="evenodd" d="M15.2869 3.2916C15.6768 2.90316 16.3072 2.90275 16.6976 3.29067L19.7048 6.27895C19.8932 6.46624 19.9994 6.72083 19.9999 6.98654C20.0003 7.25224 19.895 7.5072 19.7072 7.69515L17.089 10.3152L17.0877 10.3165L9.53623 17.9009L9.5359 17.9013C9.04444 18.3944 8.44858 18.7694 7.79374 19H20.5C21.0523 19 21.5 19.4477 21.5 20C21.5 20.5523 21.0523 21 20.5 21H3C2.66318 21 2.34899 20.8304 2.16411 20.5489C1.97923 20.2673 1.94851 19.9116 2.08237 19.6026L3.90699 15.3896C4.12789 14.6614 4.52626 13.999 5.06655 13.4614L5.06672 13.4612L12.6617 5.90726L12.6623 5.90664L15.2869 3.2916ZM13.3678 8.02575L6.47726 14.8791C6.4772 14.8791 6.47715 14.8792 6.4771 14.8792C6.16162 15.1932 5.93217 15.5816 5.8099 16.0074C5.79802 16.0488 5.78348 16.0893 5.76637 16.1288L4.93273 18.0537L6.84407 17.2099C6.88639 17.1912 6.92996 17.1755 6.97447 17.1628C7.40826 17.0395 7.80239 16.8074 8.11927 16.4895L14.9655 9.61339L13.3678 8.02575ZM16.3779 8.19738L17.5837 6.99076L15.9936 5.41071L14.7852 6.61472L16.3779 8.19738Z" fill="currentColor"/>
</svg>
