<svg width="24" height="24" viewBox="0 0 24 24" fill="none" xmlns="http://www.w3.org/2000/svg">
<path fill-rule="evenodd" clip-rule="evenodd" d="M7.68056 7.48759C8.11904 5.45279 9.91825 4 11.9998 4C14.0812 4 15.8803 5.45268 16.3189 7.48738L18.2615 16.5H5.73846L7.68056 7.48759ZM11.9998 2C8.97604 2 6.3624 4.11041 5.72544 7.06627L3.52245 17.2893C3.45879 17.5848 3.53213 17.8931 3.72198 18.1282C3.91183 18.3633 4.19781 18.5 4.50001 18.5H19.5C19.8022 18.5 20.0882 18.3633 20.2781 18.1282C20.4679 17.8931 20.5412 17.5847 20.4776 17.2893L18.274 7.06597C17.6369 4.11025 15.0233 2 11.9998 2ZM10 20C9.44773 20 9.00002 20.4477 9.00002 21C9.00002 21.5523 9.44773 22 10 22H14C14.5523 22 15 21.5523 15 21C15 20.4477 14.5523 20 14 20H10Z" fill="currentColor"/>
</svg>
