<svg width="24" height="24" viewBox="0 0 24 24" fill="none" xmlns="http://www.w3.org/2000/svg">
<path fill-rule="evenodd" clip-rule="evenodd" d="M7 5C7 6.10457 6.10457 7 5 7C3.89543 7 3 6.10457 3 5C3 3.89543 3.89543 3 5 3C6.10457 3 7 3.89543 7 5ZM7 12C7 13.1046 6.10457 14 5 14C3.89543 14 3 13.1046 3 12C3 10.8954 3.89543 10 5 10C6.10457 10 7 10.8954 7 12ZM5 21C6.10457 21 7 20.1046 7 19C7 17.8954 6.10457 17 5 17C3.89543 17 3 17.8954 3 19C3 20.1046 3.89543 21 5 21ZM14 5C14 6.10457 13.1046 7 12 7C10.8954 7 10 6.10457 10 5C10 3.89543 10.8954 3 12 3C13.1046 3 14 3.89543 14 5ZM12 14C13.1046 14 14 13.1046 14 12C14 10.8954 13.1046 10 12 10C10.8954 10 10 10.8954 10 12C10 13.1046 10.8954 14 12 14ZM14 19C14 20.1046 13.1046 21 12 21C10.8954 21 10 20.1046 10 19C10 17.8954 10.8954 17 12 17C13.1046 17 14 17.8954 14 19ZM19 7C20.1046 7 21 6.10457 21 5C21 3.89543 20.1046 3 19 3C17.8954 3 17 3.89543 17 5C17 6.10457 17.8954 7 19 7ZM21 12C21 13.1046 20.1046 14 19 14C17.8954 14 17 13.1046 17 12C17 10.8954 17.8954 10 19 10C20.1046 10 21 10.8954 21 12ZM19 21C20.1046 21 21 20.1046 21 19C21 17.8954 20.1046 17 19 17C17.8954 17 17 17.8954 17 19C17 20.1046 17.8954 21 19 21Z" fill="currentColor"/>
</svg>
