<svg width="24" height="24" viewBox="0 0 24 24" fill="none" xmlns="http://www.w3.org/2000/svg">
<path fill-rule="evenodd" clip-rule="evenodd" d="M6.11629 11.799C5.99729 12.977 6.92212 14 8.10616 14H15.894C17.078 14 18.0028 12.977 17.8838 11.799L16.9747 2.799C16.8716 1.77746 16.0116 1 14.9849 1H9.01525C7.98851 1 7.12856 1.77746 7.02538 2.799L6.11629 11.799ZM15.894 12L8.10616 12L9.01525 3H14.9849L15.894 12ZM2.00006 11C1.44778 11 1.00006 11.4477 1.00006 12C1.00006 12.5523 1.44778 13 2.00006 13H3.21929L3.46182 13.9701C3.90699 15.7508 5.50692 17 7.34239 17H11V19H9.23605C8.09973 19 7.06094 19.642 6.55277 20.6583L6.10555 21.5528C5.85856 22.0468 6.05879 22.6474 6.55277 22.8944C7.04674 23.1414 7.64742 22.9412 7.89441 22.4472L8.34162 21.5528C8.51101 21.214 8.85728 21 9.23605 21H11V22C11 22.5523 11.4477 23 12 23C12.5523 23 13 22.5523 13 22V21H14.7639C15.1427 21 15.4889 21.214 15.6583 21.5528L16.1056 22.4472C16.3525 22.9412 16.9532 23.1414 17.4472 22.8944C17.9412 22.6474 18.1414 22.0468 17.8944 21.5528L17.4472 20.6583C16.939 19.642 15.9002 19 14.7639 19H13V17H16.6577C18.4932 17 20.0931 15.7508 20.5383 13.9701L20.7808 13H22.0001C22.5523 13 23.0001 12.5523 23.0001 12C23.0001 11.4477 22.5523 11 22.0001 11H20.0001C19.5412 11 19.1412 11.3123 19.0299 11.7575L18.598 13.4851C18.3754 14.3754 17.5755 15 16.6577 15H12H7.34239C6.42465 15 5.62469 14.3754 5.4021 13.4851L4.9702 11.7575C4.85891 11.3123 4.45893 11 4.00006 11H2.00006Z" fill="currentColor"/>
</svg>
