<svg width="24" height="24" viewBox="0 0 24 24" fill="none" xmlns="http://www.w3.org/2000/svg">
<path fill-rule="evenodd" clip-rule="evenodd" d="M13.116 2.00602C12.567 1.94534 12.0728 2.34115 12.0122 2.89009C11.9515 3.43903 12.3473 3.93323 12.8962 3.99391C16.6282 4.40646 19.5935 7.37176 20.006 11.1037C20.0667 11.6526 20.5609 12.0485 21.1098 11.9878C21.6588 11.9271 22.0546 11.4329 21.9939 10.8839C21.4785 6.22142 17.7785 2.52144 13.116 2.00602ZM8.45088 4.84285C8.94545 4.59706 9.14714 3.99688 8.90136 3.5023C8.65557 3.00772 8.05539 2.80603 7.56081 3.05182C5.60966 4.02146 4.02146 5.60966 3.05182 7.56081C2.80603 8.05539 3.00772 8.65557 3.5023 8.90136C3.99688 9.14714 4.59706 8.94545 4.84285 8.45088C5.61842 6.89024 6.89024 5.61842 8.45088 4.84285ZM3.99391 12.8962C3.93323 12.3473 3.43903 11.9515 2.89009 12.0122C2.34115 12.0728 1.94534 12.567 2.00602 13.116C2.52144 17.7785 6.22142 21.4785 10.8839 21.9939C11.4329 22.0546 11.9271 21.6588 11.9878 21.1098C12.0485 20.5609 11.6526 20.0667 11.1037 20.006C7.37176 19.5935 4.40646 16.6282 3.99391 12.8962ZM20.9481 16.4391C21.1939 15.9445 20.9922 15.3444 20.4976 15.0986C20.0031 14.8528 19.4029 15.0545 19.1571 15.5491C18.3815 17.1097 17.1097 18.3815 15.5491 19.1571C15.0545 19.4029 14.8528 20.003 15.0986 20.4976C15.3444 20.9922 15.9445 21.1939 16.4391 20.9481C18.3903 19.9785 19.9785 18.3903 20.9481 16.4391ZM16.2458 10.1662C16.6137 9.75434 16.5781 9.12218 16.1662 8.75423C15.7544 8.38629 15.1222 8.42189 14.7542 8.83376L11.0689 12.959L9.77582 11.369C9.42735 10.9406 8.79751 10.8757 8.36904 11.2242C7.94057 11.5726 7.87571 12.2025 8.22418 12.6309L10.2574 15.1309C10.4422 15.3581 10.7173 15.4929 11.01 15.4997C11.3028 15.5065 11.5838 15.3846 11.779 15.1662L16.2458 10.1662Z" fill="currentColor"/>
</svg>
