<svg width="24" height="24" viewBox="0 0 24 24" fill="none" xmlns="http://www.w3.org/2000/svg">
<path fill-rule="evenodd" clip-rule="evenodd" d="M1.8944 3.55276C1.64741 3.05878 1.04674 2.85856 0.552761 3.10555C0.0587828 3.35254 -0.141442 3.95321 0.105548 4.44719L1.99997 8.23604V19C1.99997 19.5523 2.44769 20 2.99997 20H5.5C6.05228 20 6.5 19.5523 6.5 19C6.5 18.4477 6.05228 18 5.5 18H3.99998V8.99998H8.99998L9 13C9 13.5523 9.44772 14 10 14C10.5523 14 11 13.5523 11 13L11 8.99998H21C21.3787 8.99998 21.725 8.78597 21.8944 8.44719L23.8944 4.44719C24.0494 4.1372 24.0328 3.76906 23.8506 3.47424C23.6684 3.17943 23.3466 2.99997 23 2.99997H12C11.6212 2.99997 11.2749 3.21398 11.1055 3.55276L9.38194 6.99998H3.61801L1.8944 3.55276ZM20.3819 6.99998H11.618L12.618 4.99997H21.3819L20.3819 6.99998ZM17.5 11.5C16.9477 11.5 16.5 11.9477 16.5 12.5C16.5 13.0523 16.9477 13.5 17.5 13.5H18.75C19.9926 13.5 21 14.5074 21 15.75C21 16.9926 19.9926 18 18.75 18H12.7033L14.1508 16.7593C14.5701 16.3998 14.6187 15.7685 14.2593 15.3492C13.8998 14.9299 13.2685 14.8813 12.8492 15.2407L9.34921 18.2407C9.12756 18.4307 9 18.7081 9 19C9 19.2919 9.12756 19.5693 9.34921 19.7593L12.8492 22.7593C13.2685 23.1187 13.8998 23.0701 14.2593 22.6508C14.6187 22.2315 14.5701 21.6002 14.1508 21.2407L12.7033 20H18.75C21.0972 20 23 18.0972 23 15.75C23 13.4028 21.0972 11.5 18.75 11.5H17.5Z" fill="currentColor"/>
</svg>
