<svg width="24" height="24" viewBox="0 0 24 24" fill="none" xmlns="http://www.w3.org/2000/svg">
<path fill-rule="evenodd" clip-rule="evenodd" d="M1.89437 3.55279C1.64738 3.05881 1.04671 2.85859 0.552731 3.10558C0.0587523 3.35257 -0.141472 3.95324 0.105517 4.44722L1.99994 8.23607V19C1.99994 19.5523 2.44766 20 2.99994 20H9.99994H13C13.5523 20 14 19.5523 14 19C14 18.4477 13.5523 18 13 18H10.9999V9.00001H20L20 9.50005C20 10.0523 20.4478 10.5 21.0001 10.5C21.5523 10.5 22 10.0522 22 9.49996L22 8.23605L23.8944 4.44722C24.0494 4.13723 24.0328 3.76909 23.8506 3.47427C23.6684 3.17946 23.3465 3.00001 22.9999 3.00001H11.9999C11.6212 3.00001 11.2749 3.21401 11.1055 3.55279L9.38191 7.00001H3.61798L1.89437 3.55279ZM3.99994 18V9.00001H8.99994V18H3.99994ZM20.3819 7.00001H11.618L12.618 5.00001H21.3819L20.3819 7.00001ZM19.3272 21.8635C20.2823 20.9216 23 18.0664 23 16.0713C23 15.0105 22.5786 13.9215 21.8284 13.1714C21.0783 12.4214 20.0609 12 19 12C17.9391 12 16.9217 12.4214 16.1716 13.1714C15.4214 13.9215 15 15.0105 15 16.0713C15 18.0664 17.7177 20.9216 18.6728 21.8635C18.8574 22.0455 19.1426 22.0455 19.3272 21.8635ZM20.5 16C20.5 16.8284 19.8284 17.5 19 17.5C18.1716 17.5 17.5 16.8284 17.5 16C17.5 15.1716 18.1716 14.5 19 14.5C19.8284 14.5 20.5 15.1716 20.5 16Z" fill="currentColor"/>
</svg>
