<svg width="24" height="24" viewBox="0 0 24 24" fill="none" xmlns="http://www.w3.org/2000/svg">
<path fill-rule="evenodd" clip-rule="evenodd" d="M18.9749 5.02513C17.608 3.65829 15.392 3.65829 14.0251 5.02513C12.6583 6.39196 12.6583 8.60804 14.0251 9.97487C15.392 11.3417 17.608 11.3417 18.9749 9.97487C20.3417 8.60804 20.3417 6.39196 18.9749 5.02513ZM12.6109 3.61091C14.7588 1.46303 18.2412 1.46303 20.3891 3.61091C22.537 5.7588 22.537 9.2412 20.3891 11.3891C18.4827 13.2955 15.5249 13.5098 13.3821 12.0321L10.4142 15L12.7071 17.2929C13.0976 17.6834 13.0976 18.3166 12.7071 18.7071C12.3166 19.0976 11.6834 19.0976 11.2929 18.7071L9 16.4142L7.41421 18L8.70711 19.2929C9.09763 19.6834 9.09763 20.3166 8.70711 20.7071C8.31658 21.0976 7.68342 21.0976 7.29289 20.7071L6 19.4142L4.70711 20.7071C4.31658 21.0976 3.68342 21.0976 3.29289 20.7071C2.90237 20.3166 2.90237 19.6834 3.29289 19.2929L11.9679 10.6179C10.4902 8.47506 10.7045 5.51732 12.6109 3.61091Z" fill="currentColor"/>
</svg>
