<svg width="24" height="24" viewBox="0 0 24 24" fill="none" xmlns="http://www.w3.org/2000/svg">
<path fill-rule="evenodd" clip-rule="evenodd" d="M22 4.5C22 3.94771 21.5523 3.5 21 3.5C20.4477 3.5 20 3.94772 20 4.5L20 19.5C20 20.0523 20.4478 20.5 21 20.5C21.5523 20.5 22 20.0523 22 19.5L22 4.5ZM6.00008 8.50001C6.00008 7.94772 5.55237 7.5 5.00009 7.5C4.4478 7.5 4.00008 7.94771 4.00008 8.49999L4.00006 10.1315L2.55471 9.16795C2.09519 8.8616 1.47432 8.98577 1.16796 9.4453C0.861612 9.90483 0.985786 10.5257 1.44531 10.8321L3.19724 12L1.44531 13.1679C0.985786 13.4743 0.861612 14.0952 1.16796 14.5547C1.47432 15.0142 2.09519 15.1384 2.55471 14.8321L4.00003 13.8685L4.00001 15.5C4.00001 16.0523 4.44772 16.5 5 16.5C5.55229 16.5001 6.00001 16.0523 6.00001 15.5001L6.00003 13.8685L7.44531 14.8321C7.90484 15.1384 8.52571 15.0142 8.83207 14.5547C9.13842 14.0952 9.01424 13.4743 8.55472 13.1679L6.80279 12L8.55472 10.8321C9.01424 10.5257 9.13842 9.90483 8.83207 9.4453C8.52571 8.98577 7.90484 8.8616 7.44531 9.16795L6.00006 10.1315L6.00008 8.50001ZM17.8321 9.4453C18.1384 9.90483 18.0142 10.5257 17.5547 10.8321L15.8028 12L17.5547 13.1679C18.0142 13.4743 18.1384 14.0952 17.8321 14.5547C17.5257 15.0142 16.9048 15.1384 16.4453 14.8321L15 13.8685L15 15.5001C15 16.0523 14.5523 16.5001 14 16.5C13.4477 16.5 13 16.0523 13 15.5L13 13.8685L11.5547 14.8321C11.0952 15.1384 10.4743 15.0142 10.168 14.5547C9.86161 14.0952 9.98579 13.4743 10.4453 13.1679L12.1972 12L10.4453 10.8321C9.98579 10.5257 9.86161 9.90483 10.168 9.4453C10.4743 8.98577 11.0952 8.8616 11.5547 9.16795L13.0001 10.1315L13.0001 8.49999C13.0001 7.94771 13.4478 7.5 14.0001 7.5C14.5524 7.5 15.0001 7.94772 15.0001 8.50001L15.0001 10.1315L16.4453 9.16795C16.9048 8.8616 17.5257 8.98577 17.8321 9.4453Z" fill="currentColor"/>
</svg>
