<svg width="16" height="16" viewBox="0 0 16 16" fill="none" xmlns="http://www.w3.org/2000/svg">
<path fill-rule="evenodd" clip-rule="evenodd" d="M8.00011 1.75C8.41432 1.75 8.75011 2.08578 8.75011 2.5L8.75011 6.67528L12.6141 4.35688C12.9693 4.14377 13.43 4.25894 13.6431 4.61413C13.8562 4.96931 13.741 5.43001 13.3859 5.64312L9.45774 7.99999L13.3859 10.3569C13.7411 10.57 13.8563 11.0307 13.6431 11.3859C13.43 11.7411 12.9693 11.8562 12.6141 11.6431L8.75012 9.3247L8.75012 13.5C8.75012 13.9142 8.41434 14.25 8.00012 14.25C7.58591 14.25 7.25012 13.9142 7.25012 13.5L7.25012 9.32457L3.38586 11.6431C3.03068 11.8562 2.56998 11.7411 2.35687 11.3859C2.14376 11.0307 2.25893 10.57 2.61412 10.3569L6.54227 7.99999L2.61415 5.64312C2.25896 5.43001 2.14379 4.96931 2.3569 4.61413C2.57001 4.25894 3.03071 4.14377 3.38589 4.35688L7.25011 6.67541L7.25011 2.5C7.25011 2.08579 7.58589 1.75 8.00011 1.75Z" fill="currentColor"/>
</svg>
