<svg width="24" height="24" viewBox="0 0 24 24" fill="none" xmlns="http://www.w3.org/2000/svg">
<path fill-rule="evenodd" clip-rule="evenodd" d="M12.0002 1.99997C12.5525 1.99997 13.0002 2.44769 13.0002 2.99998L13.0002 10.1957L19.47 6.15201C19.9383 5.8593 20.5553 6.00167 20.848 6.47001C21.1407 6.93834 20.9983 7.55529 20.53 7.848L13.8868 12L20.53 16.152C20.9983 16.4447 21.1407 17.0617 20.848 17.53C20.5553 17.9983 19.9383 18.1407 19.47 17.848L13.0001 13.8043L13.0001 21C13.0001 21.5523 12.5524 22 12.0001 22C11.4478 22 11.0001 21.5523 11.0001 21L11.0001 13.8042L4.53001 17.848C4.06167 18.1407 3.44472 17.9983 3.15201 17.53C2.8593 17.0617 3.00168 16.4447 3.47001 16.152L10.1132 12L3.47001 7.848C3.00168 7.55529 2.8593 6.93834 3.15201 6.47001C3.44472 6.00167 4.06167 5.8593 4.53001 6.15201L11.0002 10.1959L11.0002 2.99996C11.0002 2.44768 11.448 1.99997 12.0002 1.99997Z" fill="currentColor"/>
</svg>
