<svg width="24" height="24" viewBox="0 0 24 24" fill="none" xmlns="http://www.w3.org/2000/svg">
<path fill-rule="evenodd" clip-rule="evenodd" d="M12.7474 16.1644C12.5577 16.3779 12.2856 16.5 12 16.5C11.7144 16.5 11.4424 16.3779 11.2526 16.1644L7.25259 11.6644C6.88567 11.2516 6.92285 10.6195 7.33564 10.2526C7.74842 9.88567 8.38049 9.92285 8.74741 10.3356L11 12.8698V3.5C11 2.94771 11.4477 2.5 12 2.5C12.5523 2.5 13 2.94771 13 3.5V12.8698L15.2526 10.3356C15.6195 9.92285 16.2516 9.88567 16.6644 10.2526C17.0771 10.6195 17.1143 11.2516 16.7474 11.6644L12.7474 16.1644ZM17 17C15.375 17 13.5172 17.53 11.8337 18.0103L11.7354 18.0383C9.93983 18.5504 8.33088 19 7 19C5.61021 19 4.4537 18.7682 3.64972 18.5385C3.39587 18.4659 3.178 18.3939 3 18.3298L3 7.46723C3.1882 7.52889 3.39138 7.59103 3.60736 7.65102C4.80496 7.98369 6.46411 8.26978 8.1644 7.98639C8.70917 7.8956 9.07719 7.38037 8.98639 6.8356C8.8956 6.29083 8.38037 5.92281 7.8356 6.01361C6.53589 6.23023 5.19504 6.01631 4.14264 5.72398C3.62336 5.57974 3.19091 5.42108 2.89082 5.29962C2.74113 5.23903 2.62538 5.1881 2.54933 5.15346C2.51133 5.13615 2.48333 5.12294 2.46605 5.11467L2.44829 5.10609L2.44721 5.10558L2.44678 5.10536L2.44642 5.10518L2.44589 5.10491L2.44574 5.10484L2.44566 5.1048C2.13599 4.95064 1.76859 4.96745 1.47427 5.14935C1.17945 5.33156 1 5.65343 1 6V19C1 19.3788 1.214 19.725 1.55279 19.8944L2 19C1.55279 19.8944 1.55306 19.8946 1.55333 19.8947L1.55393 19.895L1.55526 19.8957L1.55847 19.8973L1.56713 19.9015L1.59326 19.9141C1.61457 19.9242 1.64364 19.9378 1.68021 19.9543C1.75334 19.9874 1.85659 20.0322 1.98798 20.0847C2.25062 20.1898 2.62669 20.3262 3.10028 20.4615C4.0463 20.7318 5.38979 21 7 21C8.64387 21 10.5156 20.4661 12.2062 19.9838L12.2839 19.9617C14.0812 19.4491 15.6825 19 17 19C18.3762 19 19.5329 19.2316 20.3415 19.4618C20.7451 19.5767 21.0596 19.6905 21.2683 19.7733C21.3726 19.8147 21.4503 19.8482 21.4992 19.8701C21.5106 19.8751 21.5203 19.8796 21.5285 19.8833C21.5381 19.8877 21.5455 19.8911 21.5507 19.8936L21.5583 19.8972L21.5579 19.8969C21.8677 20.0497 22.2345 20.0317 22.5279 19.8493C22.8215 19.6668 23 19.3457 23 19L23 6C23 5.64874 22.8157 5.32323 22.5145 5.1425L22 6C22.5145 5.1425 22.5141 5.14227 22.5137 5.14203L22.5128 5.14152L22.511 5.1404L22.5065 5.13775L22.4947 5.13086C22.4856 5.12558 22.474 5.11895 22.46 5.11108C22.4319 5.09535 22.3941 5.07468 22.3467 5.05009C22.2521 5.00094 22.1194 4.93596 21.9516 4.86339C21.6164 4.71844 21.1383 4.54198 20.5415 4.40158C19.3459 4.12026 17.6693 3.98304 15.7253 4.53847C15.1942 4.6902 14.8868 5.24368 15.0385 5.77472C15.1902 6.30575 15.7437 6.61325 16.2747 6.46152C17.8307 6.01695 19.1541 6.12973 20.0835 6.34841C20.4574 6.43641 20.7668 6.54145 21 6.63381L21 17.5703C20.9636 17.5596 20.9267 17.5489 20.8891 17.5382C19.9412 17.2684 18.5979 17 17 17ZM21.5579 19.8969C21.5577 19.8969 21.5575 19.8968 21.5574 19.8967L22 19C21.5574 19.8967 21.5576 19.8968 21.5579 19.8969Z" fill="currentColor"/>
</svg>
