<svg width="24" height="24" viewBox="0 0 24 24" fill="none" xmlns="http://www.w3.org/2000/svg">
<path fill-rule="evenodd" clip-rule="evenodd" d="M16.2781 1.1936C16.1825 0.935468 15.8175 0.935468 15.7219 1.1936L15.0864 2.9112C15.0563 2.99235 14.9924 3.05634 14.9112 3.08637L13.1936 3.72194C12.9355 3.81745 12.9355 4.18255 13.1936 4.27806L14.9112 4.91363C14.9924 4.94366 15.0563 5.00765 15.0864 5.0888L15.7219 6.8064C15.8175 7.06453 16.1825 7.06453 16.2781 6.8064L16.9136 5.0888C16.9437 5.00765 17.0076 4.94366 17.0888 4.91363L18.8064 4.27806C19.0645 4.18255 19.0645 3.81745 18.8064 3.72194L17.0888 3.08637C17.0076 3.05634 16.9437 2.99235 16.9136 2.9112L16.2781 1.1936ZM5.73429 5.685C5.82556 5.43833 6.17444 5.43833 6.26571 5.685L7.17913 8.15348C7.20783 8.23103 7.26897 8.29217 7.34652 8.32087L9.815 9.23429C10.0617 9.32556 10.0617 9.67444 9.815 9.76571L7.34652 10.6791C7.26897 10.7078 7.20783 10.769 7.17913 10.8465L6.26571 13.315C6.17444 13.5617 5.82556 13.5617 5.73429 13.315L4.82087 10.8465C4.79217 10.769 4.73103 10.7078 4.65348 10.6791L2.185 9.76571C1.93833 9.67444 1.93833 9.32556 2.185 9.23429L4.65348 8.32087C4.73103 8.29217 4.79217 8.23103 4.82087 8.15348L5.73429 5.685ZM15.1346 12.2544C15.2601 11.9152 15.7399 11.9152 15.8654 12.2544L17.1213 15.6485C17.1608 15.7552 17.2448 15.8392 17.3515 15.8787L20.7456 17.1346C21.0848 17.2601 21.0848 17.7399 20.7456 17.8654L17.3515 19.1213C17.2448 19.1608 17.1608 19.2448 17.1213 19.3515L15.8653 22.7456C15.7399 23.0848 15.2601 23.0848 15.1346 22.7456L13.8787 19.3515C13.8392 19.2448 13.7552 19.1608 13.6485 19.1213L10.2544 17.8653C9.91521 17.7398 9.91521 17.2601 10.2544 17.1346L13.6485 15.8787C13.7552 15.8392 13.8392 15.7552 13.8787 15.6485L15.1346 12.2544Z" fill="currentColor"/>
</svg>
