<svg width="24" height="24" viewBox="0 0 24 24" fill="none" xmlns="http://www.w3.org/2000/svg">
<path fill-rule="evenodd" clip-rule="evenodd" d="M9.5 3C8.94772 3 8.5 3.44772 8.5 4C8.5 4.55228 8.94772 5 9.5 5H14.5C15.0523 5 15.5 4.55228 15.5 4C15.5 3.44772 15.0523 3 14.5 3H9.5ZM4 6.5C2.34315 6.5 1 7.84315 1 9.5V18.5C1 20.1569 2.34315 21.5 4 21.5H20C21.6569 21.5 23 20.1569 23 18.5V9.5C23 7.84315 21.6569 6.5 20 6.5H4ZM3 9.5C3 8.94772 3.44772 8.5 4 8.5H20C20.5523 8.5 21 8.94772 21 9.5V18.5C21 19.0523 20.5523 19.5 20 19.5H4C3.44772 19.5 3 19.0523 3 18.5V9.5ZM8 14C8 11.7909 9.79086 10 12 10C14.2091 10 16 11.7909 16 14C16 16.2091 14.2091 18 12 18C9.79086 18 8 16.2091 8 14ZM12 12C10.8954 12 10 12.8954 10 14C10 15.1046 10.8954 16 12 16C13.1046 16 14 15.1046 14 14C14 12.8954 13.1046 12 12 12ZM6 9.5C5.17157 9.5 4.5 10.1716 4.5 11C4.5 11.8284 5.17157 12.5 6 12.5C6.82843 12.5 7.5 11.8284 7.5 11C7.5 10.1716 6.82843 9.5 6 9.5Z" fill="currentColor"/>
</svg>
