<svg width="24" height="24" viewBox="0 0 24 24" fill="none" xmlns="http://www.w3.org/2000/svg">
<path fill-rule="evenodd" clip-rule="evenodd" d="M7.18079 3.42654C7.36792 3.15921 7.67371 3 8.00003 3H16C16.3263 3 16.6321 3.15921 16.8193 3.42654L19.6955 7.53542L21.8598 5.73178C22.2841 5.37821 22.9147 5.43554 23.2682 5.85982C23.6218 6.28409 23.5645 6.91466 23.1402 7.26822L20.419 9.53591L18.4839 20.1789C18.3974 20.6544 17.9833 21 17.5 21H6.50003C6.01674 21 5.60261 20.6544 5.51616 20.1789L3.58107 9.53591L0.859841 7.26822C0.435564 6.91466 0.37824 6.28409 0.731804 5.85982C1.08537 5.43554 1.71593 5.37821 2.14021 5.73178L4.30458 7.53542L7.18079 3.42654ZM5.69824 10L7.3346 19H16.6654L18.3018 10H5.69824ZM17.5794 8H6.42068L8.52068 5H15.4794L17.5794 8Z" fill="currentColor"/>
</svg>
