<svg width="24" height="24" viewBox="0 0 24 24" fill="none" xmlns="http://www.w3.org/2000/svg">
<path fill-rule="evenodd" clip-rule="evenodd" d="M18.3651 3.60826C18.701 3.16989 18.618 2.5422 18.1796 2.20626C17.7413 1.87032 17.1136 1.95336 16.7776 2.39172C15.8172 3.64495 14.3754 4.3611 12.8653 4.3611H10.3333C6.55748 4.3611 3.50336 7.30003 3.05632 11.0266L3.02561 11.0255C2.80053 11.0165 2.60006 10.9884 2.44704 10.9418C2.33609 10.908 2.28883 10.8765 2.27527 10.8665C2.26805 10.8513 2.24609 10.7987 2.23375 10.6837C2.21692 10.5268 2.22626 10.3284 2.25798 10.1104C2.28894 9.8976 2.33643 9.69806 2.37728 9.54962C2.39741 9.47647 2.41521 9.41833 2.42735 9.38027C2.43341 9.36129 2.43799 9.34749 2.44069 9.33949L2.4429 9.33297C2.62668 8.81259 2.35411 8.24161 1.83378 8.05735C1.31318 7.87299 0.741691 8.14557 0.557331 8.66618L1.48927 8.9962C0.55733 8.66618 0.557254 8.66639 0.557176 8.66661L0.557008 8.66709L0.556628 8.66817L0.555699 8.67081L0.553185 8.67804L0.545677 8.70003C0.539631 8.71794 0.531556 8.74234 0.521928 8.77252C0.50271 8.83278 0.47709 8.91678 0.448978 9.01892C0.39334 9.22108 0.325043 9.50476 0.278819 9.82242C0.233346 10.1349 0.204087 10.5142 0.245156 10.897C0.285407 11.2722 0.402516 11.7371 0.725417 12.1325C1.05473 12.5358 1.49689 12.7431 1.8644 12.8551C2.23905 12.9692 2.6243 13.011 2.94567 13.0239C2.98763 13.0256 3.02912 13.0268 3.07 13.0276C3.39532 15.4592 4.82909 17.5353 6.84401 18.6682L7.60874 20.4033C7.76857 20.7659 8.12749 21 8.52381 21H10.3333C10.8856 21 11.3333 20.5523 11.3333 20V18.6389H14.7619V20C14.7619 20.5523 15.2097 21 15.7619 21H17.5715C17.9678 21 18.3267 20.7659 18.4865 20.4033L19.2513 18.6682C20.7369 17.8329 21.9061 16.485 22.5484 14.8611L23 14.8611C23.5523 14.8611 24 14.4134 24 13.8611V10.0833C24 9.53104 23.5523 9.08332 23 9.08332L22.5484 9.08332C21.8592 7.34078 20.5632 5.916 18.9205 5.10141C18.4257 4.85606 17.8257 5.05826 17.5803 5.55305C17.335 6.04784 17.5372 6.64785 18.032 6.89321C19.3809 7.5621 20.4317 8.81561 20.8714 10.3575C20.9938 10.7871 21.3864 11.0833 21.833 11.0833H22V12.8611H21.833C21.3863 12.8611 20.9938 13.1574 20.8714 13.5869C20.4317 15.1288 19.3809 16.3823 18.032 17.0512C17.8222 17.1552 17.6556 17.3296 17.5612 17.5438L16.9194 19H16.7619V17.6389C16.7619 17.0866 16.3142 16.6389 15.7619 16.6389H10.3333C9.78105 16.6389 9.33334 17.0866 9.33334 17.6389V19H9.17589L8.53411 17.5438C8.43968 17.3296 8.27306 17.1552 8.0633 17.0512C6.26645 16.1602 4.99997 14.2323 4.99997 11.9722C4.99997 8.8324 7.42782 6.3611 10.3333 6.3611H12.8653C15.017 6.3611 17.0382 5.33976 18.3651 3.60826ZM11 7.49999C10.4477 7.49999 9.99999 7.94771 9.99999 8.49999C9.99999 9.05227 10.4477 9.49999 11 9.49999H15C15.5523 9.49999 16 9.05227 16 8.49999C16 7.94771 15.5523 7.49999 15 7.49999H11Z" fill="currentColor"/>
</svg>
