<svg width="24" height="24" viewBox="0 0 24 24" fill="none" xmlns="http://www.w3.org/2000/svg">
<path fill-rule="evenodd" clip-rule="evenodd" d="M19 12C19.5523 12 20 11.5523 20 11C20 10.4477 19.5523 10 19 10H15.4142L21.7071 3.70711C22.0976 3.31658 22.0976 2.68342 21.7071 2.29289C21.3166 1.90237 20.6834 1.90237 20.2929 2.29289L14 8.58579V5C14 4.44772 13.5523 4 13 4C12.4477 4 12 4.44772 12 5V11C12 11.5523 12.4477 12 13 12H19ZM5 12C4.44772 12 4 12.4477 4 13C4 13.5523 4.44772 14 5 14H8.58579L2.29289 20.2929C1.90237 20.6834 1.90237 21.3166 2.29289 21.7071C2.68342 22.0976 3.31658 22.0976 3.70711 21.7071L10 15.4142V19C10 19.5523 10.4477 20 11 20C11.5523 20 12 19.5523 12 19V13C12 12.4477 11.5523 12 11 12H5Z" fill="currentColor"/>
</svg>
