<svg width="24" height="24" viewBox="0 0 24 24" fill="none" xmlns="http://www.w3.org/2000/svg">
<path fill-rule="evenodd" clip-rule="evenodd" d="M22 7.5C22 5.84315 20.6569 4.5 19 4.5H5C3.34315 4.5 2 5.84315 2 7.5V17C2 17.5523 2.44772 18 3 18H5.5V21C5.5 21.5523 5.94772 22 6.5 22H17.5C18.0523 22 18.5 21.5523 18.5 21V18H21C21.5523 18 22 17.5523 22 17V7.5ZM18.5 16V12C18.5 11.4477 18.0523 11 17.5 11H6.5C5.94772 11 5.5 11.4477 5.5 12V16H4V7.5C4 6.94772 4.44772 6.5 5 6.5H19C19.5523 6.5 20 6.94772 20 7.5V16H18.5ZM18 9C18 9.55228 17.5523 10 17 10H16C15.4477 10 15 9.55228 15 9C15 8.44772 15.4477 8 16 8H17C17.5523 8 18 8.44772 18 9ZM7.5 20V13H16.5V20H7.5Z" fill="currentColor"/>
</svg>
