<svg width="24" height="24" viewBox="0 0 24 24" fill="none" xmlns="http://www.w3.org/2000/svg">
<path fill-rule="evenodd" clip-rule="evenodd" d="M15 3C14.7348 3 14.4804 3.10536 14.2929 3.29289C14.1054 3.48043 14 3.73478 14 4L14 9.00001C14 9.26522 14.1054 9.51958 14.2929 9.70711C14.4804 9.89465 14.7348 10 15 10L20 10C20.5523 10 21 9.55229 21 9.00001V4.00001C21 3.44772 20.5523 3.00001 20 3.00001L15 3ZM16 8.00001L16 5L19 5.00001V8.00001L16 8.00001ZM3 8.00007C3 8.55235 3.44772 9.00007 4 9.00007C4.55229 9.00007 5 8.55235 5 8.00007L5 5.00007L8 5.00007C8.55229 5.00007 9 4.55235 9 4.00007C9 3.44778 8.55229 3.00007 8 3.00007L4 3.00007C3.44772 3.00007 3 3.44778 3 4.00007V8.00007ZM21 16.0001C21 15.4478 20.5523 15.0001 20 15.0001C19.4477 15.0001 19 15.4478 19 16.0001V19.0001H16C15.4477 19.0001 15 19.4478 15 20.0001C15 20.5524 15.4477 21.0001 16 21.0001H20C20.5523 21.0001 21 20.5524 21 20.0001V16.0001ZM4 12L11 12C11.5523 12 12 12.4477 12 13L12 20C12 20.2652 11.8946 20.5196 11.7071 20.7071C11.5196 20.8946 11.2652 21 11 21H4C3.73478 21 3.48043 20.8947 3.29289 20.7071C3.10536 20.5196 3 20.2652 3 20V13C3 12.7348 3.10536 12.4804 3.2929 12.2929C3.48043 12.1054 3.73479 12 4 12ZM5 14L5 19H10L10 14L5 14ZM10.5 10C9.67157 10 9 9.32843 9 8.5C9 7.67158 9.67157 7 10.5 7C11.3284 7 12 7.67158 12 8.5C12 9.32843 11.3284 10 10.5 10ZM14 13.5C14 14.3284 14.6716 15 15.5 15C16.3284 15 17 14.3284 17 13.5C17 12.6716 16.3284 12 15.5 12C14.6716 12 14 12.6716 14 13.5Z" fill="currentColor"/>
</svg>
