<svg width="24" height="24" viewBox="0 0 24 24" fill="none" xmlns="http://www.w3.org/2000/svg">
<path fill-rule="evenodd" clip-rule="evenodd" d="M12 3C12.3788 3 12.7251 3.214 12.8945 3.55279L20.8945 19.5528C21.0907 19.9452 21.0082 20.4197 20.691 20.7229C20.3739 21.026 19.8961 21.0871 19.513 20.8734L12 16.6835L4.4871 20.8734C4.10392 21.0871 3.6262 21.026 3.30904 20.7229C2.99189 20.4197 2.90939 19.9452 3.10561 19.5528L11.1056 3.55279C11.275 3.214 11.6213 3 12 3ZM12 6.23607L6.34424 17.5477L11.513 14.6651C11.8157 14.4963 12.1843 14.4963 12.4871 14.6651L17.6558 17.5477L12 6.23607Z" fill="currentColor"/>
</svg>
