<svg width="24" height="24" viewBox="0 0 24 24" fill="none" xmlns="http://www.w3.org/2000/svg">
<path fill-rule="evenodd" clip-rule="evenodd" d="M15.1644 1.2526C14.7516 0.885684 14.1195 0.922863 13.7526 1.33565C13.3857 1.74843 13.4229 2.3805 13.8356 2.74742L16.3698 5.00002H9C5.68629 5.00002 3 7.68632 3 11V12C3 12.5523 3.44772 13 4 13C4.55228 13 5 12.5523 5 12V11C5 8.79089 6.79086 7.00002 9 7.00002H16.3698L13.8356 9.2526C13.4229 9.61952 13.3857 10.2516 13.7526 10.6644C14.1195 11.0772 14.7516 11.1143 15.1644 10.7474L19.6644 6.74744C19.8779 6.55767 20 6.28566 20 6.00003C20 5.71439 19.8779 5.44238 19.6644 5.25262L15.1644 1.2526ZM21 12C21 11.4477 20.5523 11 20 11C19.4477 11 19 11.4477 19 12V13C19 15.2092 17.2091 17 15 17H7.6302L10.1644 14.7474C10.5771 14.3805 10.6143 13.7484 10.2474 13.3356C9.88049 12.9229 9.24842 12.8857 8.83564 13.2526L4.33564 17.2526C4.12215 17.4424 4 17.7144 4 18C4 18.2856 4.12215 18.5577 4.33564 18.7474L8.83564 22.7474C9.24842 23.1143 9.88049 23.0772 10.2474 22.6644C10.6143 22.2516 10.5771 21.6195 10.1644 21.2526L7.6302 19H15C18.3137 19 21 16.3137 21 13V12Z" fill="currentColor"/>
</svg>
