<svg width="24" height="24" viewBox="0 0 24 24" fill="none" xmlns="http://www.w3.org/2000/svg">
<path fill-rule="evenodd" clip-rule="evenodd" d="M11 5C11 4.44772 11.4477 4 12 4H16C19.5899 4 22.5 6.91015 22.5 10.5C22.5 14.0899 19.5898 17 16 17H6.1302L8.66436 19.2526C9.07715 19.6195 9.11433 20.2516 8.74741 20.6644C8.38049 21.0771 7.74842 21.1143 7.33564 20.7474L2.83564 16.7474C2.62215 16.5576 2.5 16.2856 2.5 16C2.5 15.7144 2.62215 15.4424 2.83564 15.2526L7.33564 11.2526C7.74842 10.8857 8.38049 10.9229 8.74741 11.3356C9.11433 11.7484 9.07715 12.3805 8.66436 12.7474L6.1302 15H16C18.4853 15 20.5 12.9853 20.5 10.5C20.5 8.01472 18.4853 6 16 6H12C11.4477 6 11 5.55228 11 5Z" fill="currentColor"/>
</svg>
