<svg width="24" height="24" viewBox="0 0 24 24" fill="none" xmlns="http://www.w3.org/2000/svg">
<path fill-rule="evenodd" clip-rule="evenodd" d="M12 4C11.5975 4 10.8242 4.37988 10.0854 6.04218C9.83618 6.60289 9.62799 7.2331 9.46279 7.91066C10.2929 7.96999 11.1446 8 12 8C12.8554 8 13.7071 7.96999 14.5372 7.91066C14.372 7.2331 14.1638 6.60289 13.9146 6.04218C13.1758 4.37988 12.4025 4 12 4ZM14.8832 9.89045C13.9338 9.96378 12.9647 10 12 10C11.0353 10 10.0662 9.96378 9.11683 9.89045C9.03946 10.5766 9 11.2855 9 12C9 12.7145 9.03946 13.4234 9.11683 14.1096C10.0662 14.0362 11.0353 14 12 14C12.9647 14 13.9338 14.0362 14.8832 14.1096C14.9605 13.4234 15 12.7145 15 12C15 11.2855 14.9605 10.5766 14.8832 9.89045ZM7.4571 7.70363C7.65645 6.82079 7.92242 5.98443 8.25776 5.2299C8.31806 5.09422 8.38079 4.96108 8.44589 4.83085C7.26417 5.41782 6.24818 6.28837 5.48696 7.35347C6.10731 7.49218 6.7681 7.60905 7.4571 7.70363ZM4.51212 9.17753C5.33009 9.38313 6.21038 9.54938 7.12824 9.67718C7.04223 10.4438 7 11.2247 7 12C7 12.7753 7.04223 13.5562 7.12824 14.3228C6.21038 14.4506 5.33009 14.6169 4.51212 14.8225C4.18111 13.9448 4 12.9935 4 12C4 11.0065 4.18111 10.0552 4.51212 9.17753ZM16.8718 9.67717C17.7896 9.54938 18.6699 9.38313 19.4879 9.17753C19.8189 10.0552 20 11.0065 20 12C20 12.9935 19.8189 13.9448 19.4879 14.8225C18.6699 14.6169 17.7896 14.4506 16.8718 14.3228C16.9578 13.5562 17 12.7753 17 12C17 11.2247 16.9578 10.4438 16.8718 9.67717ZM18.513 7.35347C17.8927 7.49217 17.2319 7.60905 16.5429 7.70362C16.3436 6.82079 16.0776 5.98443 15.7422 5.2299C15.6819 5.09422 15.6192 4.96108 15.5541 4.83085C16.7358 5.41782 17.7518 6.28837 18.513 7.35347ZM7.4571 16.2964C6.7681 16.3909 6.10731 16.5078 5.48696 16.6465C6.24818 17.7116 7.26417 18.5822 8.4459 19.1691C8.38079 19.0389 8.31806 18.9058 8.25776 18.7701C7.92242 18.0156 7.65645 17.1792 7.4571 16.2964ZM12 16C11.1446 16 10.2929 16.03 9.46279 16.0893C9.62799 16.7669 9.83618 17.3971 10.0854 17.9578C10.8242 19.6201 11.5975 20 12 20C12.4025 20 13.1758 19.6201 13.9146 17.9578C14.1638 17.3971 14.372 16.7669 14.5372 16.0893C13.7071 16.03 12.8554 16 12 16ZM15.7422 18.7701C16.0776 18.0156 16.3436 17.1792 16.5429 16.2964C17.2319 16.3909 17.8927 16.5078 18.513 16.6465C17.7518 17.7116 16.7358 18.5822 15.5541 19.1691C15.6192 19.0389 15.6819 18.9058 15.7422 18.7701ZM12 22C17.5228 22 22 17.5228 22 12C22 6.47715 17.5228 2 12 2C6.47715 2 2 6.47715 2 12C2 17.5228 6.47715 22 12 22Z" fill="currentColor"/>
</svg>
