<svg width="24" height="24" viewBox="0 0 24 24" fill="none" xmlns="http://www.w3.org/2000/svg">
<path fill-rule="evenodd" clip-rule="evenodd" d="M13 2.5C13 1.94772 12.5523 1.5 12 1.5C11.4477 1.5 11 1.94772 11 2.5V5.07089C7.93431 5.5094 5.5094 7.93431 5.07089 11H2.5C1.94772 11 1.5 11.4477 1.5 12C1.5 12.5523 1.94772 13 2.5 13H5.07089C5.5094 16.0657 7.93431 18.4906 11 18.9291V21.5C11 22.0523 11.4477 22.5 12 22.5C12.5523 22.5 13 22.0523 13 21.5V18.9291C16.0657 18.4906 18.4906 16.0657 18.9291 13H21.5C22.0523 13 22.5 12.5523 22.5 12C22.5 11.4477 22.0523 11 21.5 11H18.9291C18.4906 7.93431 16.0657 5.5094 13 5.07089V2.5ZM7 12C7 9.23858 9.23858 7 12 7C14.7614 7 17 9.23858 17 12C17 14.7614 14.7614 17 12 17C9.23858 17 7 14.7614 7 12ZM12 15C13.6569 15 15 13.6569 15 12C15 10.3431 13.6569 9 12 9C10.3431 9 9 10.3431 9 12C9 13.6569 10.3431 15 12 15Z" fill="currentColor"/>
</svg>
