<svg width="24" height="24" viewBox="0 0 24 24" fill="none" xmlns="http://www.w3.org/2000/svg">
<path fill-rule="evenodd" clip-rule="evenodd" d="M3 5C3.55228 5 4 5.44772 4 6V7C4 9.76142 6.23858 12 9 12H17.7967L16.3492 10.7593C15.9299 10.3998 15.8813 9.76853 16.2407 9.34921C16.6002 8.92988 17.2315 8.88132 17.6508 9.24074L21.1508 12.2407C21.3724 12.4307 21.5 12.7081 21.5 13C21.5 13.2919 21.3724 13.5693 21.1508 13.7593L17.6508 16.7593C17.2315 17.1187 16.6002 17.0701 16.2407 16.6508C15.8813 16.2315 15.9299 15.6002 16.3492 15.2407L17.7967 14H9C5.13401 14 2 10.866 2 7L2 6C2 5.44772 2.44772 5 3 5Z" fill="currentColor"/>
</svg>
