<svg width="24" height="24" viewBox="0 0 24 24" fill="none" xmlns="http://www.w3.org/2000/svg">
<path fill-rule="evenodd" clip-rule="evenodd" d="M10.7241 0.810349C10.4421 0.514246 10.0083 0.419664 9.62861 0.571528C9.24896 0.723391 9 1.0911 9 1.5V2.69723L3.16795 11.4453C2.96338 11.7522 2.94431 12.1467 3.11833 12.4719C3.29235 12.797 3.63121 13 4 13H9V15L3 15C2.66818 15 2.35797 15.1646 2.17194 15.4394C1.98591 15.7141 1.94829 16.0633 2.07153 16.3714L3.06575 18.857C3.82507 20.7552 5.66361 22 7.70814 22H16.2919C18.3364 22 20.1749 20.7552 20.9343 18.8569L21.9285 16.3714C22.0517 16.0633 22.0141 15.7141 21.8281 15.4394C21.642 15.1646 21.3318 15 21 15L11 15V13H20C20.4 13 20.7616 12.7616 20.9192 12.3939C21.0767 12.0262 21 11.6 20.7241 11.3103L10.7241 0.810349ZM5.86852 11L9 6.30278V11H5.86852ZM17.6667 11H11V4L17.6667 11ZM4.92271 18.1142L4.47704 17L19.523 17L19.0773 18.1142C18.6217 19.2531 17.5186 20 16.2919 20H7.70814C6.48142 20 5.3783 19.2531 4.92271 18.1142Z" fill="currentColor"/>
</svg>
