<svg width="24" height="24" viewBox="0 0 24 24" fill="none" xmlns="http://www.w3.org/2000/svg">
<path fill-rule="evenodd" clip-rule="evenodd" d="M17.5 3C17.7857 3 18.0577 3.12215 18.2474 3.33564L22.2474 7.83564C22.6143 8.24842 22.5771 8.88049 22.1644 9.24741C21.7516 9.61433 21.1195 9.57715 20.7526 9.16436L18.5 6.63021V12.75V12.7695C18.5 12.9831 18.5 13.112 18.4969 13.2244C18.3778 17.4667 14.9667 20.8778 10.7244 20.9969C10.6121 21 10.4831 21 10.2695 21H10.25H10.2305C10.0169 21 9.88796 21 9.77563 20.9969C5.53329 20.8778 2.12218 17.4667 2.00315 13.2244C2 13.112 2 12.9831 2 12.7695L2 12.75V12.5C2 8.08172 5.58172 4.5 10 4.5C10.5523 4.5 11 4.94772 11 5.5C11 6.05228 10.5523 6.5 10 6.5C6.68629 6.5 4 9.18629 4 12.5V12.75C4 12.9889 4.0001 13.0877 4.00236 13.1683C4.09163 16.35 6.64997 18.9084 9.83172 18.9976C9.91231 18.9999 10.0111 19 10.25 19C10.4889 19 10.5877 18.9999 10.6683 18.9976C13.85 18.9084 16.4084 16.35 16.4977 13.1683C16.4999 13.0877 16.5 12.9889 16.5 12.75V6.63019L14.2474 9.16437C13.8805 9.57715 13.2484 9.61433 12.8356 9.24741C12.4229 8.88049 12.3857 8.24842 12.7526 7.83563L16.7526 3.33563C16.9424 3.12215 17.2144 3 17.5 3Z" fill="currentColor"/>
</svg>
