<svg width="24" height="24" viewBox="0 0 24 24" fill="none" xmlns="http://www.w3.org/2000/svg">
<path fill-rule="evenodd" clip-rule="evenodd" d="M3.85977 6.16538C7.06704 1.69911 13.3143 0.660054 17.8115 3.85076C22.3051 7.03889 23.3449 13.2395 20.1402 17.7021C19.4243 18.6991 18.5585 19.5239 17.5955 20.1693C17.1368 20.4768 17.0141 21.098 17.3216 21.5568C17.6291 22.0155 18.2503 22.1382 18.709 21.8307C19.8671 21.0545 20.907 20.0631 21.7648 18.8687C25.6185 13.5022 24.3638 6.0473 18.9688 2.21959C13.5773 -1.60555 6.08634 -0.364028 2.23525 4.9988C-1.61847 10.3653 -0.363843 17.8202 5.03121 21.6479C5.48165 21.9675 6.10586 21.8614 6.42544 21.411C6.74501 20.9605 6.63893 20.3363 6.1885 20.0167C1.6949 16.8286 0.655125 10.628 3.85977 6.16538ZM8.50513 15.1768C8.20883 15.48 8.15147 15.956 8.44678 16.2602C9.18526 17.0208 10.2984 17.5094 11.5374 17.6353V18.3129C11.5374 18.6924 11.845 19 12.2245 19C12.6039 19 12.9116 18.6924 12.9116 18.3129V17.6071C14.6667 17.3539 16 16.2143 16 14.4556C16 12.3874 14.4082 11.9232 12.9116 11.6277V9.0249C13.287 9.12556 13.6306 9.30341 13.9348 9.54716C14.3904 9.91218 15.0859 9.99469 15.4828 9.56649C15.7555 9.27217 15.8031 8.82179 15.5199 8.53747C14.9019 7.9169 13.9876 7.48418 12.9116 7.35065L12.9116 6.68708C12.9116 6.30762 12.6039 6 12.2245 6C11.845 6 11.5374 6.30762 11.5374 6.68708L11.5374 7.35065C9.80951 7.57576 8.48978 8.68723 8.48978 10.3896C8.48978 12.3874 10.0408 12.8517 11.5374 13.1472V15.9329C10.969 15.8292 10.4776 15.598 10.0474 15.2263C9.60281 14.842 8.91586 14.7565 8.50513 15.1768ZM11.5374 11.3463C10.8027 11.1634 10.2721 10.882 10.2721 10.2349C10.2721 9.54546 10.7891 9.12338 11.5374 8.98269V11.3463ZM12.9116 13.4286C13.6735 13.6255 14.2177 13.921 14.2177 14.6104C14.2177 15.3983 13.6871 15.7922 12.9116 15.9329V13.4286Z" fill="currentColor"/>
</svg>
