<svg width="24" height="24" viewBox="0 0 24 24" fill="none" xmlns="http://www.w3.org/2000/svg">
<path fill-rule="evenodd" clip-rule="evenodd" d="M21.2071 2.79271C21.5976 3.18323 21.5976 3.8164 21.2071 4.20692L20.4142 4.99982H20.5C21.0523 4.99982 21.5 5.44754 21.5 5.99982C21.5 6.5521 21.0523 6.99982 20.5 6.99982H18.4142L12.7072 12.7069C12.3167 13.0974 11.6835 13.0974 11.293 12.7069C10.9024 12.3164 10.9024 11.6832 11.293 11.2927L17.2929 5.29272L18 5.99982L17.2929 5.29271L19.7929 2.79271C20.1834 2.40219 20.8166 2.40219 21.2071 2.79271ZM13.4311 4.63664C12.5766 4.4704 11.6773 4.4512 10.7648 4.60359C6.67995 5.28579 3.92157 9.15023 4.60377 13.2351C5.28597 17.3199 9.15041 20.0783 13.2352 19.3961C17.3201 18.7139 20.0784 14.8494 19.3962 10.7646C19.3053 10.2199 19.6731 9.7045 20.2178 9.61353C20.7626 9.52255 21.2779 9.8904 21.3689 10.4351C22.2331 15.6094 18.739 20.5046 13.5647 21.3687C8.39038 22.2329 3.49524 18.7388 2.63109 13.5645C1.76694 8.3902 5.26101 3.49506 10.4353 2.63091C11.5871 2.43855 12.7274 2.46224 13.813 2.67344C14.3552 2.7789 14.7091 3.30387 14.6037 3.84599C14.4982 4.38811 13.9733 4.7421 13.4311 4.63664ZM11.3353 8.47983C11.8765 8.36996 12.2262 7.84213 12.1164 7.30088C12.0065 6.75964 11.4787 6.40993 10.9374 6.5198C8.4058 7.0337 6.5 9.27034 6.5 11.9544C6.5 15.017 8.98278 17.4998 12.0455 17.4998C14.7295 17.4998 16.9662 15.594 17.48 13.0623C17.5899 12.521 17.2402 11.9932 16.6989 11.8834C16.1577 11.7735 15.6298 12.1232 15.52 12.6645C15.1916 14.2824 13.7596 15.4998 12.0455 15.4998C10.0874 15.4998 8.5 13.9125 8.5 11.9544C8.5 10.2402 9.7174 8.80824 11.3353 8.47983Z" fill="currentColor"/>
</svg>
