<svg width="24" height="24" viewBox="0 0 24 24" fill="none" xmlns="http://www.w3.org/2000/svg">
<path fill-rule="evenodd" clip-rule="evenodd" d="M8.12599 5C8.57003 6.72523 10.1361 8 12 8C13.8638 8 15.4299 6.72523 15.874 5L8.12599 5ZM6.99997 3L17 3C17.5523 3 18 3.44772 18 4C18 6.97299 15.8377 9.44096 13 9.91704V16.0616C13.1553 15.8708 13.3228 15.684 13.5034 15.5034C14.6625 14.3444 16.3231 13.7364 17.5804 13.4121C18.2267 13.2454 18.8063 13.1438 19.2251 13.0837C19.4351 13.0536 19.6063 13.0336 19.727 13.0211C19.7874 13.0148 19.8353 13.0103 19.8693 13.0074L19.9097 13.004L19.9217 13.0031L19.9257 13.0028L19.9271 13.0027L19.9277 13.0026C19.928 13.0026 19.9282 13.0026 19.9948 13.9276L19.9282 13.0026C20.4791 12.9629 20.9578 13.3774 20.9974 13.9282C21.037 14.4789 20.6229 14.9575 20.0723 14.9974C20.0722 14.9974 20.0722 14.9974 20.0722 14.9974L20.0718 14.9974L20.068 14.9977L20.0431 14.9998C20.0196 15.0019 19.9828 15.0053 19.934 15.0103C19.8363 15.0205 19.691 15.0373 19.5093 15.0634C19.1446 15.1158 18.6393 15.2044 18.0799 15.3487C16.9257 15.6464 15.6915 16.1437 14.9176 16.9176C14.1026 17.7326 13.6147 18.7686 13.3313 19.6396C13.1914 20.0695 13.1061 20.4446 13.0562 20.7089C13.0314 20.8406 13.0155 20.9437 13.0062 21.011C13.0015 21.0446 12.9985 21.0691 12.9968 21.0837L12.9953 21.0967L12.9952 21.0973C12.9452 21.6094 12.5146 22 12 22C11.486 22 11.0558 21.6104 11.0049 21.0992C11.0048 21.0985 11.0048 21.0979 11.0047 21.0973L11.0047 21.0967L11.0032 21.0837C11.0015 21.0691 10.9984 21.0446 10.9938 21.011C10.9844 20.9437 10.9686 20.8406 10.9437 20.7089C10.8939 20.4446 10.8086 20.0695 10.6687 19.6396C10.3852 18.7686 9.89731 17.7326 9.08233 16.9176C8.3084 16.1437 7.07427 15.6464 5.92008 15.3487C5.36068 15.2044 4.85539 15.1158 4.49071 15.0634C4.30897 15.0373 4.16371 15.0205 4.066 15.0103C4.01718 15.0053 3.98035 15.0019 3.95689 14.9998L3.93196 14.9977L3.92822 14.9974L3.92781 14.9974C3.92766 14.9974 3.9275 14.9974 3.92735 14.9974C3.37692 14.9573 2.96296 14.4788 3.00258 13.9282C3.04222 13.3774 3.52092 12.9629 4.07178 13.0026L4 14C4.07178 13.0026 4.07202 13.0026 4.07227 13.0026L4.07286 13.0027L4.07429 13.0028L4.07823 13.0031L4.09028 13.004L4.13067 13.0074C4.16465 13.0103 4.21256 13.0148 4.27296 13.0211C4.3937 13.0336 4.56483 13.0536 4.77483 13.0837C5.19364 13.1438 5.77327 13.2454 6.41961 13.4121C7.67689 13.7364 9.33748 14.3444 10.4965 15.5034C10.6771 15.684 10.8446 15.8708 11 16.0616V9.91704C8.16226 9.44096 5.99997 6.973 5.99997 4C5.99997 3.73478 6.10532 3.48043 6.29286 3.29289C6.4804 3.10536 6.73475 3 6.99997 3Z" fill="currentColor"/>
</svg>
