<svg width="24" height="24" viewBox="0 0 24 24" fill="none" xmlns="http://www.w3.org/2000/svg">
<path fill-rule="evenodd" clip-rule="evenodd" d="M8.70711 6.7071C8.31658 7.09762 7.68342 7.09762 7.29289 6.7071C6.90237 6.31657 6.90237 5.68341 7.29289 5.29288L11.2929 1.29289C11.6834 0.902369 12.3166 0.902369 12.7071 1.29289L16.7071 5.29288C17.0976 5.68341 17.0976 6.31657 16.7071 6.7071C16.3166 7.09762 15.6834 7.09762 15.2929 6.7071L12 3.41421L8.70711 6.7071ZM8.70711 17.2929C8.31658 16.9024 7.68342 16.9024 7.29289 17.2929C6.90237 17.6834 6.90237 18.3166 7.29289 18.7071L11.2929 22.7071C11.6834 23.0976 12.3166 23.0976 12.7071 22.7071L16.7071 18.7071C17.0976 18.3166 17.0976 17.6834 16.7071 17.2929C16.3166 16.9024 15.6834 16.9024 15.2929 17.2929L12 20.5858L8.70711 17.2929Z" fill="currentColor"/>
</svg>
