<svg width="24" height="24" viewBox="0 0 24 24" fill="none" xmlns="http://www.w3.org/2000/svg">
<path fill-rule="evenodd" clip-rule="evenodd" d="M12.4084 1.58722C12.1486 1.47093 11.8514 1.47093 11.5916 1.58722L3.09936 5.38722C2.7524 5.54247 2.52345 5.88102 2.50857 6.26085L3.50781 6.3C2.50857 6.26085 2.50856 6.26106 2.50856 6.26129L2.50853 6.26186L2.50847 6.26342L2.5083 6.26819L2.50774 6.28422L2.50604 6.34159C2.50471 6.39083 2.50312 6.46172 2.5019 6.55217C2.49947 6.733 2.49854 6.99237 2.50427 7.31336C2.51571 7.95438 2.55381 8.84617 2.66081 9.85214C2.87109 11.829 3.36049 14.3874 4.54156 16.3212C5.63908 18.1182 7.41866 19.6366 8.85527 20.6794C9.58433 21.2086 10.2481 21.6316 10.7305 21.923C10.9721 22.0688 11.1691 22.1822 11.3073 22.26C11.3764 22.2989 11.4308 22.3289 11.4688 22.3496L11.5133 22.3738L11.5259 22.3805L11.5297 22.3825L11.531 22.3832L11.5315 22.3835C11.5317 22.3836 11.5319 22.3837 12 21.5L11.5319 22.3837C11.8247 22.5388 12.1754 22.5388 12.4682 22.3836C12.4929 22.3705 13.6921 21.734 15.1465 20.6782C16.5827 19.6355 18.3614 18.1175 19.4585 16.3212C20.6395 14.3874 21.1289 11.829 21.3392 9.85213C21.4462 8.84617 21.4843 7.95437 21.4957 7.31335C21.5015 6.99236 21.5005 6.733 21.4981 6.55217C21.4969 6.46172 21.4953 6.39082 21.494 6.34159L21.4923 6.28421L21.4917 6.26818L21.4915 6.26341L21.4915 6.26185L21.4914 6.26128C21.4914 6.26105 21.4914 6.26084 20.4922 6.3L21.4914 6.26084C21.4765 5.88102 21.2476 5.54247 20.9006 5.38722L12.4084 1.58722ZM4.50395 7.27767C4.50183 7.15915 4.5007 7.05007 4.50025 6.95146L12 3.59555L19.4998 6.95146C19.4993 7.05007 19.4982 7.15916 19.4961 7.27767C19.4854 7.87473 19.4498 8.70612 19.3504 9.64061C19.1479 11.5446 18.6937 13.7362 17.7516 15.2788C16.8623 16.7349 15.3402 18.066 13.9715 19.0597C13.1656 19.6448 12.4454 20.0898 12 20.3512C11.9283 20.3092 11.8495 20.2623 11.7643 20.2109C11.3188 19.9419 10.7039 19.55 10.0301 19.0609C8.66103 18.0671 7.1381 16.7355 6.2484 15.2788C5.3063 13.7362 4.85212 11.5446 4.64959 9.6406C4.5502 8.70611 4.5146 7.87472 4.50395 7.27767ZM14 11C14 11.7403 13.5978 12.3866 13 12.7324L13 14C13 14.5523 12.5523 15 12 15C11.4477 15 11 14.5523 11 14L11 12.7324C10.4022 12.3866 9.99998 11.7403 9.99998 11C9.99998 9.89543 10.8954 9 12 9C13.1045 9 14 9.89543 14 11Z" fill="currentColor"/>
</svg>
