<svg width="24" height="24" viewBox="0 0 24 24" fill="none" xmlns="http://www.w3.org/2000/svg">
<path fill-rule="evenodd" clip-rule="evenodd" d="M12.4085 1.58722C12.1486 1.47093 11.8515 1.47093 11.5916 1.58722L3.09942 5.38722C2.75246 5.54247 2.52352 5.88102 2.50863 6.26085L3.50787 6.3C2.50863 6.26085 2.50863 6.26106 2.50862 6.26129L2.50859 6.26186L2.50854 6.26342L2.50836 6.26819L2.50781 6.28422L2.5061 6.34159C2.50477 6.39083 2.50318 6.46172 2.50196 6.55217C2.49953 6.733 2.4986 6.99237 2.50433 7.31336C2.51577 7.95438 2.55387 8.84617 2.66087 9.85214C2.87115 11.829 3.36055 14.3874 4.54162 16.3212C5.63914 18.1182 7.41872 19.6366 8.85533 20.6794C9.58439 21.2086 10.2481 21.6316 10.7305 21.923C10.9721 22.0688 11.1691 22.1822 11.3073 22.26C11.3764 22.2989 11.4309 22.3289 11.4689 22.3496L11.5134 22.3738L11.526 22.3805L11.5298 22.3825L11.5311 22.3832L11.5316 22.3835C11.5318 22.3836 11.5319 22.3837 12.0001 21.5L11.5319 22.3837C11.8248 22.5388 12.1754 22.5388 12.4682 22.3836C12.493 22.3705 13.6922 21.734 15.1465 20.6782C16.5828 19.6355 18.3614 18.1175 19.4585 16.3212C20.6396 14.3874 21.129 11.829 21.3393 9.85213C21.4463 8.84617 21.4844 7.95437 21.4958 7.31335C21.5015 6.99236 21.5006 6.733 21.4982 6.55217C21.4969 6.46172 21.4953 6.39082 21.494 6.34159L21.4923 6.28421L21.4918 6.26818L21.4916 6.26341L21.4915 6.26185L21.4915 6.26128C21.4915 6.26105 21.4915 6.26084 20.4922 6.3L21.4915 6.26084C21.4766 5.88102 21.2477 5.54247 20.9007 5.38722L12.4085 1.58722ZM4.50401 7.27767C4.50189 7.15915 4.50076 7.05007 4.50031 6.95146L12.0001 3.59555L19.4998 6.95146C19.4994 7.05007 19.4982 7.15916 19.4961 7.27767C19.4855 7.87473 19.4499 8.70612 19.3505 9.64061C19.148 11.5446 18.6938 13.7362 17.7517 15.2788C16.8624 16.7349 15.3403 18.066 13.9715 19.0597C13.1657 19.6448 12.4455 20.0898 12.0001 20.3512C11.9284 20.3092 11.8495 20.2623 11.7644 20.2109C11.3189 19.9419 10.704 19.55 10.0302 19.0609C8.66109 18.0671 7.13816 16.7355 6.24846 15.2788C5.30636 13.7362 4.85218 11.5446 4.64966 9.6406C4.55026 8.70611 4.51467 7.87472 4.50401 7.27767ZM12 7C12.5523 7 13 7.44771 13 8V11C13 11.5523 12.5523 12 12 12C11.4478 12 11 11.5523 11 11V8C11 7.44771 11.4478 7 12 7ZM13.5 14.5C13.5 15.3284 12.8284 16 12 16C11.1716 16 10.5 15.3284 10.5 14.5C10.5 13.6716 11.1716 13 12 13C12.8284 13 13.5 13.6716 13.5 14.5Z" fill="currentColor"/>
</svg>
