<svg width="24" height="24" viewBox="0 0 24 24" fill="none" xmlns="http://www.w3.org/2000/svg">
<path fill-rule="evenodd" clip-rule="evenodd" d="M12 2.5C12.3788 2.5 12.7251 2.714 12.8945 3.05279L16.8986 11.0611L21.4632 8.15634C21.8044 7.93919 22.2428 7.94898 22.574 8.18114C22.9052 8.41329 23.064 8.8221 22.9762 9.21693L20.754 19.2169C20.6523 19.6745 20.2465 20 19.7778 20H4.22227C3.75357 20 3.34776 19.6745 3.24608 19.2169L1.02386 9.21693C0.93612 8.8221 1.09486 8.41329 1.42606 8.18114C1.75726 7.94898 2.19569 7.93919 2.53692 8.15634L7.10148 11.0611L11.1056 3.05279C11.275 2.714 11.6213 2.5 12 2.5ZM12 5.73607L8.39447 12.9472C8.26786 13.2004 8.03983 13.3881 7.76698 13.4637C7.49413 13.5393 7.20203 13.4957 6.96317 13.3437L3.49995 11.1398L5.02444 18H18.9757L20.5001 11.1398L17.0369 13.3437C16.7981 13.4957 16.506 13.5393 16.2331 13.4637C15.9603 13.3881 15.7322 13.2004 15.6056 12.9472L12 5.73607Z" fill="currentColor"/>
</svg>
