<svg width="24" height="24" viewBox="0 0 24 24" fill="none" xmlns="http://www.w3.org/2000/svg">
<path fill-rule="evenodd" clip-rule="evenodd" d="M20.7071 3.29289C20.9672 3.55302 21.0635 3.93498 20.9578 4.28734L15.5578 22.2873C15.4357 22.6946 15.0693 22.9801 14.6445 22.999C14.2197 23.0179 13.8294 22.7662 13.6715 22.3714L10.2307 13.7693L1.62862 10.3285C1.23383 10.1706 0.982072 9.78026 1.001 9.35548C1.01992 8.93071 1.30539 8.56435 1.71266 8.44217L19.7127 3.04217C20.065 2.93646 20.447 3.03276 20.7071 3.29289ZM12.1734 13.2408L14.465 18.9699L18.5085 5.49147L5.0301 9.535L10.7592 11.8266L12.0929 10.4929C12.4834 10.1024 13.1166 10.1024 13.5071 10.4929C13.8976 10.8834 13.8976 11.5166 13.5071 11.9071L12.1734 13.2408Z" fill="currentColor"/>
</svg>
