<svg width="24" height="24" viewBox="0 0 24 24" fill="none" xmlns="http://www.w3.org/2000/svg">
<path fill-rule="evenodd" clip-rule="evenodd" d="M19.7311 5.18232C20.1079 4.77857 20.0861 4.14578 19.6823 3.76895C19.2786 3.39211 18.6458 3.41393 18.2689 3.81769L15.559 6.72121C14.4707 6.28743 13.271 6 12 6C9.60805 6 7.46864 7.01801 5.84896 8.11366C4.22031 9.21537 3.0301 10.4545 2.51569 11.0302C2.01988 11.585 2.01988 12.415 2.51569 12.9698C3.0301 13.5455 4.22031 14.7846 5.84896 15.8863C6.08023 16.0428 6.3221 16.1977 6.5738 16.3482L4.26894 18.8177C3.89211 19.2214 3.91393 19.8542 4.31768 20.2311C4.72143 20.6079 5.35422 20.5861 5.73106 20.1823L8.44102 17.2788C9.52932 17.7126 10.729 18 12 18C14.392 18 16.5314 16.982 18.1511 15.8863C19.7797 14.7846 20.9699 13.5455 21.4843 12.9698C21.9801 12.415 21.9801 11.585 21.4843 11.0302C20.9699 10.4545 19.7797 9.21537 18.1511 8.11366C17.9198 7.95721 17.6779 7.80234 17.4262 7.65179L19.7311 5.18232ZM14.0692 8.31739C13.4004 8.11716 12.7067 8 12 8C10.1667 8 8.42085 8.7885 6.96956 9.77023C5.81024 10.5545 4.89374 11.4249 4.3431 12C4.89374 12.5751 5.81024 13.4455 6.96956 14.2298C7.29095 14.4472 7.62679 14.6551 7.97483 14.8471L14.0692 8.31739ZM9.93079 15.6826L16.0252 9.1529C16.3732 9.34489 16.7091 9.55282 17.0305 9.77023C18.1898 10.5545 19.1063 11.4249 19.6569 12C19.1063 12.5751 18.1898 13.4455 17.0305 14.2298C15.5792 15.2115 13.8333 16 12 16C11.2933 16 10.5996 15.8828 9.93079 15.6826Z" fill="currentColor"/>
</svg>
