<svg width="24" height="24" viewBox="0 0 24 24" fill="none" xmlns="http://www.w3.org/2000/svg">
<path fill-rule="evenodd" clip-rule="evenodd" d="M6.96956 14.2298C5.81024 13.4455 4.89374 12.5751 4.3431 12C4.89374 11.4249 5.81024 10.5545 6.96956 9.77023C8.42085 8.7885 10.1667 8 12 8C13.8333 8 15.5792 8.7885 17.0305 9.77023C18.1898 10.5545 19.1063 11.4249 19.6569 12C19.1063 12.5751 18.1898 13.4455 17.0305 14.2298C15.5792 15.2115 13.8333 16 12 16C10.1667 16 8.42085 15.2115 6.96956 14.2298ZM12 6C9.60805 6 7.46864 7.01801 5.84896 8.11366C4.22031 9.21537 3.0301 10.4545 2.51569 11.0302C2.01988 11.585 2.01988 12.415 2.51569 12.9698C3.0301 13.5455 4.22031 14.7846 5.84896 15.8863C7.46864 16.982 9.60805 18 12 18C14.392 18 16.5314 16.982 18.1511 15.8863C19.7797 14.7846 20.9699 13.5455 21.4843 12.9698C21.9801 12.415 21.9801 11.585 21.4843 11.0302C20.9699 10.4545 19.7797 9.21537 18.1511 8.11366C16.5314 7.01801 14.392 6 12 6ZM12 14C13.1046 14 14 13.1046 14 12C14 10.8954 13.1046 10 12 10C10.8955 10 10 10.8954 10 12C10 13.1046 10.8955 14 12 14Z" fill="currentColor"/>
</svg>
