<svg width="24" height="24" viewBox="0 0 24 24" fill="none" xmlns="http://www.w3.org/2000/svg">
<path fill-rule="evenodd" clip-rule="evenodd" d="M15.7593 5.84921C16.1187 6.26854 16.0701 6.89984 15.6508 7.25926C15.2315 7.61868 14.6002 7.57012 14.2407 7.15079L13 5.70326V15C13 15.5523 12.5523 16 12 16C11.4477 16 11 15.5523 11 15V5.70325L9.75926 7.15079C9.39983 7.57012 8.76853 7.61868 8.34921 7.25926C7.92988 6.89983 7.88132 6.26853 8.24074 5.84921L11.2408 2.34921C11.4307 2.12756 11.7081 2 12 2C12.2919 2 12.5693 2.12756 12.7593 2.34921L15.7593 5.84921ZM5 16C5 15.4477 4.55228 15 4 15C3.44772 15 3 15.4477 3 16V20C3 20.5523 3.44772 21 4 21H20C20.5523 21 21 20.5523 21 20V16C21 15.4477 20.5523 15 20 15C19.4477 15 19 15.4477 19 16V19H5V16Z" fill="currentColor"/>
</svg>
