<svg width="24" height="24" viewBox="0 0 24 24" fill="none" xmlns="http://www.w3.org/2000/svg">
<path fill-rule="evenodd" clip-rule="evenodd" d="M17.5 3C16.6716 3 16 3.67157 16 4.5C16 5.32843 16.6716 6 17.5 6C18.3284 6 19 5.32843 19 4.5C19 3.67157 18.3284 3 17.5 3ZM14 4.5C14 2.567 15.567 1 17.5 1C19.433 1 21 2.567 21 4.5C21 6.433 19.433 8 17.5 8C16.6254 8 15.8257 7.67921 15.2122 7.14888L8.90359 11.1807C8.96662 11.4435 9 11.7179 9 12C9 12.3043 8.96118 12.5994 8.88822 12.8809L15.1652 16.8925C15.7846 16.3375 16.6029 16 17.5 16C19.433 16 21 17.567 21 19.5C21 21.433 19.433 23 17.5 23C15.567 23 14 21.433 14 19.5C14 19.1876 14.0409 18.8848 14.1177 18.5966L7.85185 14.5921C7.23046 15.1562 6.40538 15.5 5.5 15.5C3.567 15.5 2 13.933 2 12C2 10.067 3.567 8.5 5.5 8.5C6.42775 8.5 7.2712 8.86097 7.89755 9.45013L14.1345 5.46412C14.0469 5.15785 14 4.8344 14 4.5ZM5.5 10.5C4.67157 10.5 4 11.1716 4 12C4 12.8284 4.67157 13.5 5.5 13.5C6.32843 13.5 7 12.8284 7 12C7 11.1716 6.32843 10.5 5.5 10.5ZM16 19.5C16 18.6716 16.6716 18 17.5 18C18.3284 18 19 18.6716 19 19.5C19 20.3284 18.3284 21 17.5 21C16.6716 21 16 20.3284 16 19.5Z" fill="currentColor"/>
</svg>
