<svg width="24" height="24" viewBox="0 0 24 24" fill="none" xmlns="http://www.w3.org/2000/svg">
<path fill-rule="evenodd" clip-rule="evenodd" d="M10.5 4C9.94772 4 9.50001 4.44772 9.50001 5V6H14.5V5C14.5 4.44772 14.0523 4 13.5 4H10.5ZM16.5 6V5C16.5 3.34315 15.1569 2 13.5 2H10.5C8.84315 2 7.50001 3.34315 7.50001 5V6H2.00001C1.70171 6 1.41899 6.13317 1.22902 6.36315C1.03905 6.59313 0.961669 6.89592 1.018 7.18885L3.36201 19.3777C3.5431 20.3194 4.36709 21 5.32602 21H10C10.5523 21 11 20.5523 11 20C11 19.4477 10.5523 19 10 19H5.32602L3.21064 8H8.50001H15.5H20.7894L20.6334 8.81115C20.5291 9.3535 20.8842 9.87771 21.4265 9.98201C21.9689 10.0863 22.4931 9.73119 22.5974 9.18885L22.982 7.18885C23.0383 6.89592 22.961 6.59313 22.771 6.36315C22.581 6.13317 22.2983 6 22 6H16.5ZM16.5 12C15.5574 12 14.662 12.3582 14.0088 12.9822C13.3571 13.6047 13 14.4391 13 15.2989C13 16.5728 13.8922 18.0036 14.9952 19.2365C15.5227 19.826 16.0533 20.3208 16.4532 20.6687L16.5 20.7092L16.5468 20.6687C16.9467 20.3208 17.4773 19.826 18.0048 19.2365C19.1078 18.0036 20 16.5728 20 15.2989C20 14.4391 19.6429 13.6047 18.9912 12.9822C18.338 12.3582 17.4426 12 16.5 12ZM16.5 22C15.902 22.8015 15.9018 22.8013 15.9016 22.8012L15.901 22.8008L15.8997 22.7997L15.8957 22.7968L15.883 22.7872L15.8389 22.7535C15.8016 22.7247 15.7487 22.6834 15.6823 22.6304C15.5497 22.5244 15.3632 22.3713 15.1405 22.1776C14.6967 21.7914 14.1023 21.2379 13.5048 20.5701C12.3578 19.2882 11 17.3685 11 15.2989C11 13.8784 11.5911 12.5259 12.6273 11.536C13.6618 10.5477 15.0557 10 16.5 10C17.9443 10 19.3382 10.5477 20.3727 11.536C21.4089 12.5259 22 13.8784 22 15.2989C22 17.3685 20.6422 19.2882 19.4952 20.5701C18.8977 21.2379 18.3033 21.7914 17.8595 22.1776C17.6368 22.3713 17.4503 22.5244 17.3177 22.6304C17.2513 22.6834 17.1984 22.7247 17.1611 22.7535L17.117 22.7872L17.1043 22.7968L17.1003 22.7997L17.099 22.8008L17.0984 22.8012C17.0982 22.8013 17.098 22.8015 16.5 22ZM16.5 22L17.098 22.8015C16.7433 23.0662 16.2567 23.0662 15.902 22.8015L16.5 22ZM17.5 15.5C17.5 16.0523 17.0523 16.5 16.5 16.5C15.9477 16.5 15.5 16.0523 15.5 15.5C15.5 14.9477 15.9477 14.5 16.5 14.5C17.0523 14.5 17.5 14.9477 17.5 15.5Z" fill="currentColor"/>
</svg>
