<svg width="24" height="24" viewBox="0 0 24 24" fill="none" xmlns="http://www.w3.org/2000/svg">
<path fill-rule="evenodd" clip-rule="evenodd" d="M10.5 4C9.94772 4 9.50001 4.44772 9.50001 5V6H14.5V5C14.5 4.44772 14.0523 4 13.5 4H10.5ZM16.5 6V5C16.5 3.34315 15.1569 2 13.5 2H10.5C8.84315 2 7.50001 3.34315 7.50001 5V6H2.00001C1.70171 6 1.41899 6.13317 1.22902 6.36315C1.03905 6.59313 0.961669 6.89592 1.018 7.18885L3.36201 19.3777C3.5431 20.3194 4.36709 21 5.32603 21H18.674C19.6329 21 20.4569 20.3194 20.638 19.3777L22.982 7.18885C23.0383 6.89592 22.961 6.59313 22.771 6.36315C22.581 6.13317 22.2983 6 22 6H16.5ZM3.21064 8L5.32602 19H18.674L20.7894 8H15.5H8.50001H3.21064Z" fill="currentColor"/>
</svg>
