<svg width="24" height="24" viewBox="0 0 24 24" fill="none" xmlns="http://www.w3.org/2000/svg">
<path fill-rule="evenodd" clip-rule="evenodd" d="M12.1508 8.24075C11.7315 7.88132 11.1002 7.92989 10.7407 8.34921C10.3813 8.76854 10.4299 9.39984 10.8492 9.75926L12.2967 11L3 11C2.44772 11 2 11.4477 2 12C2 12.5523 2.44772 13 3 13L12.2967 13L10.8492 14.2407C10.4299 14.6002 10.3813 15.2315 10.7407 15.6508C11.1002 16.0701 11.7315 16.1187 12.1508 15.7593L15.6508 12.7592C15.8724 12.5693 16 12.2919 16 12C16 11.7081 15.8724 11.4307 15.6508 11.2407L12.1508 8.24075ZM17.6508 8.24075C17.2315 7.88132 16.6002 7.92989 16.2407 8.34921C15.8813 8.76854 15.9299 9.39984 16.3492 9.75926L18.9634 12L16.3492 14.2407C15.9299 14.6002 15.8813 15.2315 16.2407 15.6508C16.6002 16.0701 17.2315 16.1187 17.6508 15.7593L21.1508 12.7592C21.3724 12.5693 21.5 12.2919 21.5 12C21.5 11.7081 21.3724 11.4307 21.1508 11.2407L17.6508 8.24075Z" fill="currentColor"/>
</svg>
