<svg width="24" height="24" viewBox="0 0 24 24" fill="none" xmlns="http://www.w3.org/2000/svg">
<path fill-rule="evenodd" clip-rule="evenodd" d="M4 12C4 7.58172 7.58172 4 12 4C16.4183 4 20 7.58172 20 12C20 16.4183 16.4183 20 12 20C7.58172 20 4 16.4183 4 12ZM12 2C6.47715 2 2 6.47715 2 12C2 17.5228 6.47715 22 12 22C17.5228 22 22 17.5228 22 12C22 6.47715 17.5228 2 12 2ZM12.8013 6.14849C12.6618 5.83043 12.3473 5.625 12 5.625C11.6527 5.625 11.3382 5.83043 11.1987 6.14849L10.4571 7.83911L9.91514 9.07446L6.89175 9.45138C6.55788 9.493 6.27745 9.72238 6.17044 10.0414C6.06343 10.3603 6.14879 10.7124 6.39001 10.947L8.65291 13.1473L8.05005 16.3375C7.9863 16.6749 8.12572 17.0183 8.40656 17.2158C8.68741 17.4132 9.05778 17.4282 9.35366 17.2541L12 15.6965L14.6463 17.2541C14.9422 17.4282 15.3126 17.4132 15.5934 17.2158C15.8743 17.0183 16.0137 16.6749 15.95 16.3375L15.3471 13.1473L17.61 10.947C17.8512 10.7124 17.9366 10.3603 17.8296 10.0414C17.7226 9.72238 17.4421 9.493 17.1082 9.45138L14.0849 9.07446L12.8013 6.14849ZM11.318 10.2327L12 8.6781L12.682 10.2327C12.8058 10.5151 13.0691 10.7114 13.375 10.7495L15.0837 10.9625L13.79 12.2205C13.5795 12.4252 13.4857 12.7218 13.5402 13.0103L13.8724 14.7679L12.4438 13.9272C12.1699 13.7659 11.8301 13.7659 11.5562 13.9272L10.1276 14.7679L10.4598 13.0103C10.5143 12.7218 10.4205 12.4252 10.21 12.2205L8.91629 10.9625L10.625 10.7495C10.9309 10.7114 11.1942 10.5151 11.318 10.2327Z" fill="currentColor"/>
</svg>
