<svg width="24" height="24" viewBox="0 0 24 24" fill="none" xmlns="http://www.w3.org/2000/svg">
<path fill-rule="evenodd" clip-rule="evenodd" d="M12 20C7.58172 20 4 16.4183 4 12C4 7.71729 7.36574 4.22012 11.5958 4.01002L19.99 12.4042C19.7799 16.6343 16.2827 20 12 20ZM2 12C2 17.5229 6.47715 22 12 22C17.3688 22 21.749 17.7695 21.9896 12.4596C22.0154 11.8905 21.7831 11.3689 21.4142 11L13 2.58579C12.6311 2.21686 12.1095 1.98461 11.5404 2.0104C6.23046 2.25103 2 6.6312 2 12ZM9.89412 13.5522C9.6468 13.0584 9.04599 12.8586 8.55218 13.1059C8.05837 13.3532 7.85855 13.954 8.10588 14.4478C8.84188 15.9173 10.2724 17 12 17C13.7276 17 15.1581 15.9173 15.8941 14.4478C16.1415 13.954 15.9416 13.3532 15.4478 13.1059C14.954 12.8586 14.3532 13.0584 14.1059 13.5522C13.6442 14.4739 12.8362 15 12 15C11.1638 15 10.3558 14.4739 9.89412 13.5522Z" fill="currentColor"/>
</svg>
