<svg width="24" height="24" viewBox="0 0 24 24" fill="none" xmlns="http://www.w3.org/2000/svg">
<path fill-rule="evenodd" clip-rule="evenodd" d="M11.5528 3.10557C11.8343 2.96481 12.1657 2.96481 12.4472 3.10557L23.4472 8.60557C23.786 8.77497 24 9.12123 24 9.5C24 9.87877 23.786 10.225 23.4472 10.3944L21 11.618V17C21 17.2652 20.8946 17.5196 20.7071 17.7071L20 17C20.7071 17.7071 20.7068 17.7074 20.7066 17.7077L20.7059 17.7083L20.7045 17.7097L20.7007 17.7135L20.6899 17.7241C20.6847 17.7292 20.6784 17.7352 20.6711 17.7422C20.6662 17.747 20.6608 17.7522 20.6549 17.7578C20.6257 17.7856 20.5848 17.8239 20.5326 17.871C20.4282 17.9653 20.2783 18.0955 20.0856 18.2496C19.701 18.5574 19.1425 18.9632 18.4336 19.3682C17.0201 20.176 14.9738 21 12.5 21C12.1239 21 11.7575 20.9809 11.4016 20.9457C10.852 20.8914 10.4505 20.4018 10.5049 19.8522C10.5592 19.3026 11.0488 18.9011 11.5984 18.9554C11.8909 18.9844 12.1916 19 12.5 19C14.5262 19 16.2299 18.324 17.4414 17.6318C18.045 17.2868 18.5178 16.9426 18.8362 16.6879C18.8965 16.6396 18.9512 16.5947 19 16.5537V12.618L12.4472 15.8944C12.1657 16.0352 11.8343 16.0352 11.5528 15.8944L9 14.618V21C9 21.5523 8.55229 22 8 22C7.44772 22 7 21.5523 7 21V13.618L5 12.618V16.5537C5.14489 16.6754 5.34076 16.8314 5.58342 17.0058C6.03197 17.328 6.13438 17.9528 5.81217 18.4014C5.48995 18.8499 4.86512 18.9523 4.41658 18.6301C4.06607 18.3783 3.79241 18.1547 3.60316 17.991C3.50846 17.909 3.43465 17.8418 3.38268 17.7932C3.35669 17.7689 3.33613 17.7493 3.32114 17.7348L3.30281 17.7169L3.2968 17.711L3.29458 17.7088L3.29367 17.7079L3.29327 17.7075L3.29308 17.7073C3.29298 17.7072 3.29289 17.7071 4 17L3.29289 17.7071C3.10536 17.5196 3 17.2652 3 17V11.618L0.552786 10.3944C0.214002 10.225 0 9.87877 0 9.5C0 9.12123 0.214002 8.77497 0.552786 8.60557L11.5528 3.10557ZM9.66926 12.7166L12.9856 10.8742C13.4684 10.6059 13.6424 9.99714 13.3742 9.51436C13.1059 9.03157 12.4971 8.85763 12.0144 9.12584L7.51436 11.6258C7.51017 11.6282 7.50601 11.6305 7.50187 11.6329L3.23607 9.5L12 5.11803L20.7639 9.5L12 13.882L9.66926 12.7166Z" fill="currentColor"/>
</svg>
