<svg width="24" height="24" viewBox="0 0 24 24" fill="none" xmlns="http://www.w3.org/2000/svg">
<path fill-rule="evenodd" clip-rule="evenodd" d="M4.5 7C4.5 5.61929 5.61929 4.5 7 4.5C8.38071 4.5 9.5 5.61929 9.5 7C9.5 8.38071 8.38071 9.5 7 9.5C5.61929 9.5 4.5 8.38071 4.5 7ZM7 2.5C4.51472 2.5 2.5 4.51472 2.5 7C2.5 9.48528 4.51472 11.5 7 11.5C9.48528 11.5 11.5 9.48528 11.5 7C11.5 4.51472 9.48528 2.5 7 2.5ZM16 21.5C19.0376 21.5 21.5 19.0376 21.5 16C21.5 12.9624 19.0376 10.5 16 10.5C12.9624 10.5 10.5 12.9624 10.5 16C10.5 19.0376 12.9624 21.5 16 21.5Z" fill="currentColor"/>
</svg>
