<svg width="24" height="24" viewBox="0 0 24 24" fill="none" xmlns="http://www.w3.org/2000/svg">
<path fill-rule="evenodd" clip-rule="evenodd" d="M16.7979 1.39719C16.465 0.956531 15.8379 0.869186 15.3972 1.2021C14.9565 1.53502 14.8692 2.16213 15.2021 2.6028C17.0347 5.02846 18 8.83617 18 12C18 15.1638 17.0347 18.9715 15.2021 21.3972C14.8692 21.8379 14.9565 22.465 15.3972 22.7979C15.8379 23.1308 16.465 23.0435 16.7979 22.6028C18.9653 19.7339 20 15.4609 20 12C20 8.53912 18.9653 4.26609 16.7979 1.39719ZM12.8244 4.43396C12.5118 3.97867 11.8893 3.863 11.434 4.17561C10.9787 4.48822 10.863 5.11073 11.1756 5.56603C12.0942 6.90393 13 9.27985 13 12C13 14.7201 12.0942 17.0961 11.1756 18.434C10.863 18.8893 10.9787 19.5118 11.434 19.8244C11.8893 20.137 12.5118 20.0213 12.8244 19.566C13.9723 17.8942 15 15.1234 15 12C15 8.87661 13.9723 6.10583 12.8244 4.43396ZM7.55278 7.10557C8.04676 6.85858 8.64743 7.0588 8.89442 7.55278L8.89527 7.55448C9.24834 8.26062 10 9.76392 10 12C10 14.2361 9.24834 15.7394 8.89527 16.4455L8.89442 16.4472C8.64743 16.9412 8.04676 17.1414 7.55278 16.8944C7.0588 16.6474 6.85858 16.0468 7.10557 15.5528C7.41953 14.9249 8 13.7621 8 12C8 10.2379 7.41953 9.07512 7.10557 8.44721C6.85858 7.95323 7.0588 7.35256 7.55278 7.10557ZM5.07905 10.3041C4.80963 9.822 4.2004 9.64958 3.71828 9.919C3.23617 10.1884 3.06375 10.7977 3.33317 11.2798C3.39988 11.3991 3.5 11.6354 3.5 12C3.5 12.3646 3.39988 12.6009 3.33317 12.7202C3.06375 13.2023 3.23617 13.8116 3.71828 14.081C4.2004 14.3504 4.80963 14.178 5.07905 13.6959C5.2879 13.3222 5.5 12.7531 5.5 12C5.5 11.2469 5.2879 10.6778 5.07905 10.3041Z" fill="currentColor"/>
</svg>
