<svg width="24" height="24" viewBox="0 0 24 24" fill="none" xmlns="http://www.w3.org/2000/svg">
<path fill-rule="evenodd" clip-rule="evenodd" d="M11.25 1C11.1119 1 11 1.11193 11 1.25V2.75C11 2.88807 11.1119 3 11.25 3H13.8455C13.9402 3 14.0268 2.9465 14.0691 2.8618L14.8191 1.3618C14.9022 1.19558 14.7813 1 14.5955 1H11.25ZM12 4.5C8.28638 4.5 4.78682 6.80681 4.07355 9.20455C4.02857 9.35576 4.14719 9.5 4.30495 9.5H19.695C19.8528 9.5 19.9714 9.35576 19.9265 9.20455C19.2132 6.80681 15.7136 4.5 12 4.5ZM1.5 12C1.5 11.4477 1.94772 11 2.5 11H21.5C22.0523 11 22.5 11.4477 22.5 12C22.5 12.5523 22.0523 13 21.5 13H20V19.0002H21.5C22.0523 19.0002 22.5 19.4479 22.5 20.0002C22.5 20.5525 22.0523 21.0002 21.5 21.0002H2.5C1.94772 21.0002 1.5 20.5525 1.5 20.0002C1.5 19.4479 1.94772 19.0002 2.5 19.0002H4L4 13H2.5C1.94772 13 1.5 12.5523 1.5 12ZM6 19.0002H8V13H6V19.0002ZM10 19.0002H14V13H10V19.0002ZM16 19.0002H18V13H16V19.0002Z" fill="currentColor"/>
</svg>
