<svg width="24" height="24" viewBox="0 0 24 24" fill="none" xmlns="http://www.w3.org/2000/svg">
<path fill-rule="evenodd" clip-rule="evenodd" d="M1 5C1 4.44772 1.44772 4 2 4H8C9.19631 4 10.4207 4.20947 11.3761 4.8349C11.6059 4.98534 11.8146 5.15631 12 5.34721C12.1854 5.15631 12.3941 4.98534 12.6239 4.8349C13.5793 4.20947 14.8037 4 16 4H22C22.5523 4 23 4.44772 23 5V17.0909C23 17.6432 22.5523 18.0909 22 18.0909H16C14.9694 18.0909 14.1913 18.2598 13.7005 18.5657C13.2865 18.8237 13 19.2203 13 20C13 20.5523 12.5523 21 12 21C11.4477 21 11 20.5523 11 20C11 19.2203 10.7135 18.8237 10.2995 18.5657C9.80869 18.2598 9.03058 18.0909 8 18.0909H2C1.44772 18.0909 1 17.6432 1 17.0909V5ZM11 16.6702C10.1063 16.2309 9.03638 16.0909 8 16.0909H3V6H8C9.01283 6 9.78841 6.18597 10.2807 6.50824C10.7081 6.78802 11 7.21537 11 8V16.6702ZM13 8V16.6702C13.8937 16.2309 14.9636 16.0909 16 16.0909H21V6H16C14.9872 6 14.2116 6.18597 13.7193 6.50824C13.2919 6.78802 13 7.21537 13 8Z" fill="currentColor"/>
</svg>
