<svg width="24" height="24" viewBox="0 0 24 24" fill="none" xmlns="http://www.w3.org/2000/svg">
<path fill-rule="evenodd" clip-rule="evenodd" d="M4 4C3.73478 4 3.48043 4.10536 3.29289 4.29289C3.10536 4.48043 3 4.73478 3 5L3 7C3 7.55228 3.44772 8 4 8C4.55228 8 5 7.55228 5 7V6L11 6L11 18H10C9.44772 18 9 18.4477 9 19C9 19.5523 9.44772 20 10 20H12H14C14.5523 20 15 19.5523 15 19C15 18.4477 14.5523 18 14 18H13L13 6H19V7C19 7.55228 19.4477 8 20 8C20.5523 8 21 7.55228 21 7V5C21 4.44772 20.5523 4 20 4L12 4L4 4Z" fill="currentColor"/>
</svg>
