<svg width="24" height="24" viewBox="0 0 24 24" fill="none" xmlns="http://www.w3.org/2000/svg">
<path fill-rule="evenodd" clip-rule="evenodd" d="M12 4C7.58172 4 4 7.58172 4 12C4 16.4183 7.58172 20 12 20C12.2815 20 12.4086 19.9559 12.4502 19.9361C12.4675 19.9279 12.4665 19.9276 12.4655 19.9273C12.4652 19.9272 12.465 19.9272 12.4651 19.9269C12.5098 19.8436 12.5521 19.6124 12.5095 19.011C12.5016 18.8996 12.4906 18.7743 12.4788 18.6392C12.4388 18.1822 12.3888 17.6126 12.4154 17.0858C12.4517 16.3664 12.6298 15.5315 13.2549 14.8331C13.92 14.0899 14.9098 13.997 15.6069 13.9847C15.9518 13.9785 16.316 13.9938 16.6526 14.008L16.7506 14.0121C17.1277 14.0277 17.4779 14.0398 17.8132 14.0285C18.4999 14.0053 18.9675 13.8853 19.2852 13.6403C19.5652 13.4245 19.8877 12.986 19.9998 11.9497C19.9728 7.55455 16.4015 4 12 4ZM2 12C2 6.47715 6.47715 2 12 2C17.5228 2 22 6.47715 22 12C22 12.0332 21.9983 12.0664 21.995 12.0995C21.8522 13.5278 21.3586 14.5673 20.5062 15.2243C19.6873 15.8556 18.7033 15.9996 17.8807 16.0273C17.4613 16.0415 17.0423 16.0258 16.6679 16.0104L16.5795 16.0067C16.2289 15.9921 15.9243 15.9794 15.6424 15.9844C14.9716 15.9963 14.7925 16.114 14.7451 16.1669C14.5462 16.3891 14.4373 16.702 14.4129 17.1865C14.3939 17.5629 14.4259 17.9309 14.4626 18.3537L14.4626 18.3537L14.4626 18.3537C14.4768 18.5165 14.4916 18.6873 14.5045 18.8699C14.543 19.4134 14.5817 20.2119 14.2277 20.8722C13.7898 21.6887 12.9588 22 12 22C6.47715 22 2 17.5228 2 12ZM16.75 8.75C16.75 9.44036 16.1904 10 15.5 10C14.8096 10 14.25 9.44036 14.25 8.75C14.25 8.05964 14.8096 7.5 15.5 7.5C16.1904 7.5 16.75 8.05964 16.75 8.75ZM11.25 8.5C11.9404 8.5 12.5 7.94036 12.5 7.25C12.5 6.55964 11.9404 6 11.25 6C10.5596 6 10 6.55964 10 7.25C10 7.94036 10.5596 8.5 11.25 8.5ZM9 14C9 14.6904 8.44036 15.25 7.75 15.25C7.05964 15.25 6.5 14.6904 6.5 14C6.5 13.3096 7.05964 12.75 7.75 12.75C8.44036 12.75 9 13.3096 9 14ZM7.75 10.75C8.44036 10.75 9 10.1904 9 9.5C9 8.80964 8.44036 8.25 7.75 8.25C7.05964 8.25 6.5 8.80964 6.5 9.5C6.5 10.1904 7.05964 10.75 7.75 10.75Z" fill="currentColor"/>
</svg>
