<svg width="24" height="24" viewBox="0 0 24 24" fill="none" xmlns="http://www.w3.org/2000/svg">
<path fill-rule="evenodd" clip-rule="evenodd" d="M12 19.5C12.5523 19.5 13 19.0523 13 18.5V9.10596L15.7567 12.169C16.1261 12.5795 16.7584 12.6128 17.1689 12.2433C17.5795 11.8738 17.6127 11.2415 17.2433 10.831L12.7433 5.83104C12.5536 5.62032 12.2835 5.5 12 5.5C11.7165 5.5 11.4463 5.62032 11.2567 5.83103L6.75668 10.831C6.38723 11.2415 6.4205 11.8738 6.83101 12.2433C7.24152 12.6128 7.87381 12.5795 8.24327 12.169L11 9.10596V18.5C11 19.0523 11.4477 19.5 12 19.5Z" fill="currentColor"/>
</svg>
