<svg width="24" height="24" viewBox="0 0 24 24" fill="none" xmlns="http://www.w3.org/2000/svg">
<path fill-rule="evenodd" clip-rule="evenodd" d="M12 5.49965C12.5523 5.49965 13 5.94736 13 6.49965V15.8939L15.7567 12.8307C16.1261 12.4202 16.7584 12.3869 17.1689 12.7563C17.5795 13.1258 17.6128 13.7581 17.2433 14.1686L12.7433 19.1689C12.5537 19.3797 12.2835 19.5 12 19.5C11.7165 19.5 11.4463 19.3797 11.2567 19.1689L6.75668 14.1686C6.38724 13.7581 6.42054 13.1258 6.83106 12.7563C7.24159 12.3869 7.87387 12.4202 8.24332 12.8307L11 15.8939V6.49965C11 5.94736 11.4477 5.49965 12 5.49965Z" fill="currentColor"/>
</svg>
