<svg width="24" height="24" viewBox="0 0 24 24" fill="none" xmlns="http://www.w3.org/2000/svg">
<path fill-rule="evenodd" clip-rule="evenodd" d="M10 2C9.44772 2 9 2.44772 9 3C9 3.55228 9.44772 4 10 4H14C14.5523 4 15 3.55228 15 3C15 2.44772 14.5523 2 14 2H10ZM12 7C8.13401 7 5 10.134 5 14C5 17.866 8.13401 21 12 21C15.866 21 19 17.866 19 14C19 12.1733 18.3016 10.512 17.1555 9.26489C15.8747 7.87123 14.0398 7 12 7ZM3 14C3 9.02944 7.02944 5 12 5C14.2474 5 16.3033 5.82469 17.8798 7.18605L18.7729 6.29289C19.1635 5.90237 19.7966 5.90237 20.1872 6.29289C20.5777 6.68342 20.5777 7.31658 20.1872 7.70711L19.2406 8.65369C20.3458 10.1483 21 11.9986 21 14C21 18.9706 16.9706 23 12 23C7.02944 23 3 18.9706 3 14ZM11.75 9.00614C9.18755 9.1323 7.1323 11.1875 7.00614 13.75C6.99935 13.8879 7.11193 14 7.25 14H11.75C11.8881 14 12 13.8881 12 13.75V9.25C12 9.11193 11.8879 8.99935 11.75 9.00614Z" fill="currentColor"/>
</svg>
