<svg width="24" height="24" viewBox="0 0 24 24" fill="none" xmlns="http://www.w3.org/2000/svg">
<path fill-rule="evenodd" clip-rule="evenodd" d="M13.1271 2.85562C15.2703 1.49427 18.0956 1.78013 19.9097 3.55158L20.2771 3.91036C22.2935 5.87939 22.5755 8.9893 20.9354 11.2772C19.5982 13.1425 17.2689 14.0479 15.0032 13.6054L8.61338 12.3575C7.10076 12.0621 5.56255 12.671 4.69011 13.888C3.62922 15.368 3.80618 17.3756 5.12018 18.6587L5.4876 19.0175C6.63321 20.1362 8.43513 20.3235 9.80058 19.4562C10.8033 18.8193 11.3833 17.7271 11.3497 16.58C11.3336 16.0279 11.768 15.5673 12.32 15.5512C12.8721 15.535 13.3327 15.9694 13.3489 16.5215C13.4035 18.3881 12.4585 20.1373 10.8729 21.1444C8.72971 22.5058 5.90439 22.2199 4.0903 20.4484L4.78895 19.733L4.0903 20.4484L3.72289 20.0897C1.70644 18.1206 1.42453 15.0107 3.06462 12.7228C4.40179 10.8575 6.73109 9.95211 8.99674 10.3946L15.3866 11.6425C16.8992 11.9379 18.4374 11.329 19.3099 10.112C20.3708 8.63204 20.1938 6.6244 18.8798 5.34129L18.5124 4.98251C17.3668 3.86383 15.5648 3.67652 14.1994 4.54384C13.1967 5.18074 12.6167 6.27289 12.6503 7.42004C12.6664 7.97209 12.232 8.43271 11.6799 8.44886C11.1279 8.46501 10.6673 8.03058 10.6511 7.47854C10.5965 5.61187 11.5415 3.86275 13.1271 2.85562Z" fill="currentColor"/>
</svg>
