<svg width="24" height="24" viewBox="0 0 24 24" fill="none" xmlns="http://www.w3.org/2000/svg">
<path fill-rule="evenodd" clip-rule="evenodd" d="M5.50002 3C4.94774 3 4.50002 3.44771 4.50002 3.99999L4.5 7.0468C4.49999 8.04341 4.9949 8.97496 5.82075 9.53281L10.0703 12.4033L6.0777 14.5532C5.10598 15.0764 4.50002 16.0909 4.50002 17.1946V20C4.50002 20.5523 4.94774 21 5.50002 21H18.5C19.0523 21 19.5 20.5523 19.5 20L19.5 17.1946C19.5 16.091 18.8941 15.0764 17.9223 14.5532L13.9297 12.4033L18.1792 9.53281C19.0051 8.97496 19.5 8.04342 19.5 7.04681V4C19.5 3.44772 19.0523 3 18.5 3H5.50002ZM6.5 7.04681L6.50001 5H17.5V7.04681C17.5 7.20672 17.4618 7.36161 17.3914 7.5H6.60858C6.53822 7.36161 6.5 7.20673 6.5 7.04681ZM11 14.1742L7.02591 16.3141C6.70201 16.4885 6.50002 16.8267 6.50002 17.1946V19H17.5L17.5 17.1946C17.5 16.8267 17.2981 16.4885 16.9741 16.3141L13 14.1742V16.5C13 17.0523 12.5522 17.5 12 17.5C11.4477 17.5 11 17.0523 11 16.5V14.1742Z" fill="currentColor"/>
</svg>
