<svg width="24" height="24" viewBox="0 0 24 24" fill="none" xmlns="http://www.w3.org/2000/svg">
<path fill-rule="evenodd" clip-rule="evenodd" d="M3 5C3 3.89543 3.89543 3 5 3H19C20.1046 3 21 3.89543 21 5V12C21 12.5523 20.5523 13 20 13C19.4477 13 19 12.5523 19 12V9H5V19H12C12.5523 19 13 19.4477 13 20C13 20.5523 12.5523 21 12 21H5C3.89543 21 3 20.1046 3 19V5ZM22.633 14.7543C23.0449 15.1222 23.0805 15.7544 22.7125 16.1662L18.2458 21.1662C18.0506 21.3846 17.7696 21.5065 17.4768 21.4997C17.1841 21.4929 16.909 21.3582 16.7242 21.131L14.691 18.631C14.3425 18.2025 14.4074 17.5727 14.8358 17.2242C15.2643 16.8757 15.8941 16.9406 16.2426 17.369L17.5357 18.959L21.221 14.8338C21.589 14.4219 22.2212 14.3863 22.633 14.7543Z" fill="currentColor"/>
</svg>
