<svg width="24" height="24" viewBox="0 0 24 24" fill="none" xmlns="http://www.w3.org/2000/svg">
<path fill-rule="evenodd" clip-rule="evenodd" d="M8.48626 13.9999L9.45396 11H14.546L15.5137 13.9999H8.48626ZM7.8411 15.9999L6.87332 19L17.1266 18.9999L16.1589 15.9999H7.8411ZM13.9009 9.00001H10.0991L11.2282 5.49997L12.7718 5.49991L13.9009 9.00001ZM5.47683 21C5.49246 21.0004 5.50806 21.0004 5.52362 21L18.4727 20.9999C18.4907 21.0004 18.5087 21.0004 18.5269 20.9999L20.5 20.9999C21.0523 20.9999 21.5 20.5522 21.5 19.9999C21.5 19.4476 21.0522 18.9999 20.5 18.9999L19.2281 18.9999L14.4517 4.19288C14.3185 3.77981 13.934 3.49986 13.5 3.49988L10.5 3.5C10.066 3.50002 9.68152 3.77996 9.54829 4.193L4.77183 19L3.49996 19C2.94768 19 2.49997 19.4477 2.49997 20C2.49997 20.5523 2.94769 21 3.49998 21L5.47683 21Z" fill="currentColor"/>
</svg>
