<svg width="24" height="24" viewBox="0 0 24 24" fill="none" xmlns="http://www.w3.org/2000/svg">
<path fill-rule="evenodd" clip-rule="evenodd" d="M8.3 4.5C8.3 3.94772 8.74772 3.5 9.3 3.5H12.25C14.3211 3.5 16 5.17893 16 7.25C16 9.32107 14.3211 11 12.25 11H6.5C5.11929 11 4 12.1193 4 13.5C4 14.8807 5.11929 16 6.5 16H18.3698L15.8356 13.7474C15.4229 13.3805 15.3857 12.7484 15.7526 12.3356C16.1195 11.9229 16.7516 11.8857 17.1644 12.2526L21.6644 16.2526C21.8779 16.4424 22 16.7144 22 17C22 17.2856 21.8779 17.5576 21.6644 17.7474L17.1644 21.7474C16.7516 22.1143 16.1195 22.0771 15.7526 21.6644C15.3857 21.2516 15.4229 20.6195 15.8356 20.2526L18.3698 18H6.5C4.01472 18 2 15.9853 2 13.5C2 11.0147 4.01472 9 6.5 9H12.25C13.2165 9 14 8.2165 14 7.25C14 6.2835 13.2165 5.5 12.25 5.5H9.3C8.74772 5.5 8.3 5.05228 8.3 4.5Z" fill="currentColor"/>
</svg>
