<svg width="24" height="24" viewBox="0 0 24 24" fill="none" xmlns="http://www.w3.org/2000/svg">
<path fill-rule="evenodd" clip-rule="evenodd" d="M6.74733 20.6644C6.55757 20.8779 6.28556 21 5.99992 21C5.71429 21 5.44228 20.8779 5.25252 20.6644L1.25254 16.1644C0.885622 15.7516 0.922804 15.1195 1.33559 14.7526C1.74837 14.3857 2.38044 14.4229 2.74736 14.8356L4.99993 17.3698V5C4.99993 4.44771 5.44764 4 5.99993 4C6.55221 4 6.99993 4.44771 6.99993 5V17.3698L9.25254 14.8356C9.61946 14.4229 10.2515 14.3857 10.6643 14.7526C11.0771 15.1195 11.1143 15.7516 10.7474 16.1644L6.74733 20.6644ZM18.7474 4.33564C18.5576 4.12215 18.2856 4 18 4C17.7143 4 17.4423 4.12215 17.2525 4.33564L13.2525 8.83564C12.8856 9.24842 12.9228 9.88049 13.3356 10.2474C13.7484 10.6143 14.3804 10.5771 14.7474 10.1644L17 7.6302L17 20C17 20.5523 17.4477 21 18 21C18.5522 21 19 20.5523 19 20L19 7.6302L21.2525 10.1644C21.6194 10.5771 22.2515 10.6143 22.6643 10.2474C23.0771 9.88049 23.1143 9.24842 22.7474 8.83564L18.7474 4.33564Z" fill="currentColor"/>
</svg>
