<svg width="24" height="24" viewBox="0 0 24 24" fill="none" xmlns="http://www.w3.org/2000/svg">
<path fill-rule="evenodd" clip-rule="evenodd" d="M7.25926 6.34921C7.61868 6.76853 7.57012 7.39983 7.15079 7.75926L5.70326 9L14.5 9C18.366 9 21.5 12.134 21.5 16V17C21.5 17.5523 21.0523 18 20.5 18C19.9477 18 19.5 17.5523 19.5 17V16C19.5 13.2386 17.2614 11 14.5 11L5.70326 11L7.15079 12.2407C7.57012 12.6002 7.61868 13.2315 7.25926 13.6508C6.89983 14.0701 6.26853 14.1187 5.84921 13.7593L2.34921 10.7593C2.12756 10.5693 2 10.2919 2 10C2 9.70807 2.12756 9.43072 2.34921 9.24074L5.84921 6.24074C6.26853 5.88132 6.89983 5.92988 7.25926 6.34921Z" fill="currentColor"/>
</svg>
