<svg width="24" height="24" viewBox="0 0 24 24" fill="none" xmlns="http://www.w3.org/2000/svg">
<path fill-rule="evenodd" clip-rule="evenodd" d="M17.8316 7.58261L21.7071 3.70711C22.0976 3.31658 22.0976 2.68342 21.7071 2.29289C21.3166 1.90237 20.6834 1.90237 20.2929 2.29289L16.9612 5.62458C15.8812 4.04024 14.0621 3 12 3C8.68629 3 6 5.68629 6 9V15C6 15.4883 6.05833 15.9629 6.16839 16.4174L2.29289 20.2929C1.90237 20.6834 1.90237 21.3166 2.29289 21.7071C2.68342 22.0976 3.31658 22.0976 3.70711 21.7071L7.0388 18.3754C8.11881 19.9598 9.93793 21 12 21C15.3137 21 18 18.3137 18 15V9C18 8.51172 17.9417 8.03706 17.8316 7.58261ZM15.5085 7.07733C14.8285 5.83921 13.5123 5 12 5C9.79086 5 8 6.79086 8 9V14.5858L15.5085 7.07733ZM8.49154 16.9227L16 9.41421V15C16 17.2091 14.2091 19 12 19C10.4877 19 9.17148 18.1608 8.49154 16.9227Z" fill="currentColor"/>
</svg>
