<svg width="16" height="16" viewBox="0 0 16 16" fill="none" xmlns="http://www.w3.org/2000/svg">
<path fill-rule="evenodd" clip-rule="evenodd" d="M8.8022 0.36855C8.3773 -0.122851 7.62269 -0.12285 7.1978 0.368551L6.15574 1.57372C5.91456 1.85266 5.54912 1.98681 5.18762 1.92911L3.64728 1.68328C3.00661 1.58103 2.42492 2.07711 2.41487 2.73432L2.39057 4.32303C2.38487 4.6957 2.19012 5.03911 1.87527 5.23171L0.515558 6.06348C-0.038618 6.40248 -0.16951 7.15954 0.237917 7.6693L1.22158 8.90004C1.4531 9.1897 1.52101 9.57982 1.40128 9.93228L0.889455 11.439C0.678827 12.0591 1.05709 12.7248 1.69197 12.8515L3.24664 13.1616C3.6068 13.2335 3.90519 13.488 4.03658 13.8353L4.59269 15.3056C4.82512 15.9201 5.54085 16.1832 6.10803 15.8628L7.48061 15.0872C7.80347 14.9048 8.19652 14.9048 8.51939 15.0872L9.89197 15.8628C10.4591 16.1832 11.1749 15.9201 11.4073 15.3056L11.9634 13.8353C12.0948 13.488 12.3932 13.2335 12.7534 13.1616L14.308 12.8515C14.9429 12.7248 15.3212 12.0591 15.1105 11.439L14.5987 9.93229C14.479 9.57982 14.5469 9.1897 14.7784 8.90004L15.7621 7.6693C16.1695 7.15954 16.0386 6.40248 15.4844 6.06348L14.1247 5.23171C13.8099 5.03911 13.6151 4.6957 13.6094 4.32303L13.5851 2.73432C13.5751 2.07711 12.9934 1.58103 12.3527 1.68328L10.8124 1.92911C10.4509 1.98681 10.0854 1.85266 9.84426 1.57372L8.8022 0.36855ZM11.5733 6.48352C11.8404 6.16688 11.8002 5.69371 11.4835 5.42667C11.1669 5.15963 10.6937 5.19984 10.4267 5.51648L7.63705 8.82423L6.58186 7.52678C6.32051 7.20543 5.84814 7.15679 5.52678 7.41814C5.20543 7.67949 5.15679 8.15186 5.41814 8.47322L7.0447 10.4732C7.18564 10.6465 7.3965 10.748 7.61987 10.75C7.84324 10.752 8.05588 10.6543 8.19989 10.4835L11.5733 6.48352Z" fill="currentColor"/>
</svg>
