<svg width="16" height="16" viewBox="0 0 16 16" fill="none" xmlns="http://www.w3.org/2000/svg">
<path fill-rule="evenodd" clip-rule="evenodd" d="M8 1C4.13401 1 0.999998 4.13401 0.999998 8C0.999999 11.866 4.13401 15 8 15C11.866 15 15 11.866 15 8C15 4.13401 11.866 0.999999 8 1ZM4.25 8C4.25 7.58578 4.58579 7.25 5 7.25L7.25 7.25L7.25 5C7.25 4.58579 7.58578 4.25 8 4.25C8.41421 4.25 8.75 4.58579 8.75 5L8.75 7.25L11 7.25C11.4142 7.25 11.75 7.58578 11.75 8C11.75 8.41421 11.4142 8.75 11 8.75L8.75 8.75L8.75 11C8.75 11.4142 8.41421 11.75 8 11.75C7.58579 11.75 7.25 11.4142 7.25 11L7.25 8.75L5 8.75C4.58579 8.75 4.25 8.41421 4.25 8Z" fill="currentColor"/>
</svg>
