<svg width="16" height="16" viewBox="0 0 16 16" fill="none" xmlns="http://www.w3.org/2000/svg">
<path fill-rule="evenodd" clip-rule="evenodd" d="M12.0659 3.93414C9.82035 1.68862 6.17965 1.68862 3.93414 3.93414C1.68862 6.17965 1.68862 9.82035 3.93414 12.0659C6.17965 14.3114 9.82035 14.3114 12.0659 12.0659C14.3114 9.82035 14.3114 6.17965 12.0659 3.93414ZM2.87348 2.87348C5.70478 0.0421742 10.2952 0.0421754 13.1265 2.87348C15.9578 5.70478 15.9578 10.2952 13.1265 13.1265C10.2952 15.9578 5.70478 15.9578 2.87348 13.1265C0.0421748 10.2952 0.0421748 5.70478 2.87348 2.87348ZM9 11C9 11.5523 8.55228 12 8 12C7.44772 12 7 11.5523 7 11C7 10.4477 7.44772 10 8 10C8.55228 10 9 10.4477 9 11ZM8.75 5C8.75 4.58579 8.41421 4.25 8 4.25C7.58579 4.25 7.25 4.58579 7.25 5V8C7.25 8.41421 7.58579 8.75 8 8.75C8.41421 8.75 8.75 8.41421 8.75 8V5Z" fill="currentColor"/>
</svg>
