<svg width="16" height="16" viewBox="0 0 16 16" fill="none" xmlns="http://www.w3.org/2000/svg">
<path fill-rule="evenodd" clip-rule="evenodd" d="M12.5641 4.61034C9.52871 2.4422 4.80543 2.75311 1.9932 5.96498L8.01861 12.4208L8.96968 11.4697C9.26257 11.1768 9.73744 11.1768 10.0303 11.4697C10.3232 11.7626 10.3232 12.2375 10.0303 12.5304L8.53033 14.0304C8.38651 14.1742 8.19044 14.2534 7.98708 14.2499C7.78371 14.2464 7.59049 14.1605 7.45171 14.0118L0.451713 6.51178C0.203724 6.24608 0.181933 5.8408 0.400002 5.55004C3.65415 1.21114 9.61771 0.662406 13.4359 3.38974C13.773 3.6305 13.8511 4.09891 13.6103 4.43597C13.3695 4.77303 12.9011 4.8511 12.5641 4.61034ZM15.4468 6.48353C15.7138 6.16689 15.6736 5.69372 15.357 5.42668C15.0403 5.15963 14.5672 5.19984 14.3001 5.51648L11.5105 8.82423L10.4553 7.52679C10.194 7.20543 9.72158 7.15679 9.40022 7.41814C9.07887 7.67949 9.03023 8.15187 9.29158 8.47322L10.9181 10.4732C11.0591 10.6465 11.2699 10.748 11.4933 10.75C11.7167 10.752 11.9293 10.6543 12.0733 10.4835L15.4468 6.48353Z" fill="currentColor"/>
</svg>
