<svg width="16" height="16" viewBox="0 0 16 16" fill="none" xmlns="http://www.w3.org/2000/svg">
<path fill-rule="evenodd" clip-rule="evenodd" d="M8 1C4.13401 1 0.999998 4.13401 0.999998 8C0.999999 11.866 4.13401 15 8 15C11.866 15 15 11.866 15 8C15 4.13401 11.866 0.999999 8 1ZM8 3.75C8.41421 3.75 8.75 4.08579 8.75 4.5L8.75 8.5C8.75 8.91421 8.41421 9.25 8 9.25C7.58578 9.25 7.25 8.91421 7.25 8.5L7.25 4.5C7.25 4.08579 7.58578 3.75 8 3.75ZM8 12.5C8.55228 12.5 9 12.0523 9 11.5C9 10.9477 8.55228 10.5 8 10.5C7.44771 10.5 7 10.9477 7 11.5C7 12.0523 7.44771 12.5 8 12.5Z" fill="currentColor"/>
</svg>
