<svg width="16" height="16" viewBox="0 0 16 16" fill="none" xmlns="http://www.w3.org/2000/svg">
<path fill-rule="evenodd" clip-rule="evenodd" d="M15.5354 5.01358C11.2426 0.761495 4.75735 0.761511 0.46451 5.0136C0.19271 5.28282 0.192398 5.71653 0.44656 6.00246L7.4394 13.8694C7.73774 14.205 8.26217 14.205 8.56051 13.8694L15.5534 6.00244C15.8075 5.71651 15.8072 5.2828 15.5354 5.01358ZM8.99994 10.5C8.99994 11.0523 8.55222 11.5 7.99994 11.5C7.44765 11.5 6.99994 11.0523 6.99994 10.5C6.99994 9.94773 7.44765 9.50001 7.99994 9.50001C8.55222 9.50001 8.99994 9.94773 8.99994 10.5ZM8.74994 4.50001C8.74994 4.0858 8.41415 3.75001 7.99994 3.75001C7.58573 3.75001 7.24994 4.0858 7.24994 4.50001V7.50001C7.24994 7.91423 7.58573 8.25001 7.99994 8.25001C8.41415 8.25001 8.74994 7.91423 8.74994 7.50001V4.50001Z" fill="currentColor"/>
</svg>
