<svg width="16" height="16" viewBox="0 0 16 16" fill="none" xmlns="http://www.w3.org/2000/svg">
<path fill-rule="evenodd" clip-rule="evenodd" d="M7.36095 1.53602L0.703936 12.3287C0.39606 12.8279 0.754415 13.4714 1.34087 13.4725L14.6549 13.4973C15.2423 13.4984 15.6029 12.8545 15.295 12.3543L8.63803 1.53667C8.34534 1.06106 7.65412 1.06071 7.36095 1.53602ZM9.00002 10.9999C9.00002 11.5522 8.55231 11.9999 8.00002 11.9999C7.44774 11.9999 7.00002 11.5522 7.00002 10.9999C7.00002 10.4476 7.44774 9.99992 8.00002 9.99992C8.55231 9.99992 9.00002 10.4476 9.00002 10.9999ZM8.75002 4.99992C8.75002 4.5857 8.41424 4.24992 8.00002 4.24992C7.58581 4.24992 7.25002 4.5857 7.25002 4.99992V7.99992C7.25002 8.41413 7.58581 8.74992 8.00002 8.74992C8.41424 8.74992 8.75002 8.41413 8.75002 7.99992V4.99992Z" fill="currentColor"/>
</svg>
