<svg width="16" height="16" viewBox="0 0 16 16" fill="none" xmlns="http://www.w3.org/2000/svg">
<path fill-rule="evenodd" clip-rule="evenodd" d="M7.99997 2.25C5.19416 2.25 3.25 4.63523 3.25 7.5C3.25 9.41372 4.41541 10.8448 5.70857 11.844C6.34749 12.3378 6.99069 12.7037 7.47601 12.9464C7.68705 13.0519 7.86635 13.1332 7.99997 13.1907C8.13359 13.1332 8.3129 13.0519 8.52394 12.9464C9.00927 12.7037 9.65247 12.3378 10.2914 11.844C11.5846 10.8448 12.75 9.41371 12.75 7.5C12.75 4.63523 10.8058 2.25 7.99997 2.25ZM6.38626 14.0688C6.30039 14.1908 6.24997 14.3395 6.24997 14.5C6.24997 14.9142 6.58576 15.25 6.99997 15.25H8.99997C9.41418 15.25 9.74997 14.9142 9.74997 14.5C9.74997 14.3395 9.69955 14.1908 9.61368 14.0688C10.0893 13.8087 10.6477 13.4644 11.2086 13.031C12.6654 11.9052 14.25 10.0863 14.25 7.5C14.25 4.00748 11.8216 0.75 7.99997 0.75C4.17836 0.75 1.75 4.00751 1.75 7.5C1.75 10.0863 3.33458 11.9052 4.7914 13.031C5.35228 13.4644 5.91069 13.8087 6.38626 14.0688ZM7.49997 5.25C6.80961 5.25 6.24997 5.80964 6.24997 6.5C6.24997 6.91421 5.91418 7.25 5.49997 7.25C5.08576 7.25 4.74997 6.91421 4.74997 6.5C4.74997 4.98122 5.98119 3.75 7.49997 3.75C7.91418 3.75 8.24997 4.08579 8.24997 4.5C8.24997 4.91421 7.91418 5.25 7.49997 5.25Z" fill="currentColor"/>
</svg>
