<svg width="16" height="16" viewBox="0 0 16 16" fill="none" xmlns="http://www.w3.org/2000/svg">
<path fill-rule="evenodd" clip-rule="evenodd" d="M14.5 1.5L1.5 1.5C1.22386 1.5 1 1.72386 1 2L1 4.5C1 4.77614 1.22386 5 1.5 5L2.25 5L2.25 12C2.25 13.2426 3.25736 14.25 4.5 14.25L11.5 14.25C12.7426 14.25 13.75 13.2426 13.75 12L13.75 5L14.5 5C14.7761 5 15 4.77614 15 4.5L15 2C15 1.72386 14.7761 1.5 14.5 1.5ZM12.25 3L3.75 3L3.75 12C3.75 12.4142 4.08579 12.75 4.5 12.75L11.5 12.75C11.9142 12.75 12.25 12.4142 12.25 12L12.25 3ZM9.75 4C9.88807 4 10 4.11193 10 4.25L10 6.25C10 6.38807 9.88807 6.5 9.75 6.5L8.25 6.5C8.11193 6.5 8 6.38807 8 6.25L8 4.25C8 4.11193 8.11193 4 8.25 4L9.75 4Z" fill="currentColor"/>
</svg>
