<svg width="16" height="16" viewBox="0 0 16 16" fill="none" xmlns="http://www.w3.org/2000/svg">
<path fill-rule="evenodd" clip-rule="evenodd" d="M6.0824 2.16204C7.95083 0.279318 10.9825 0.279319 12.851 2.16204C14.7163 4.0416 14.7163 7.08662 12.851 8.96618L7.62242 14.2347C6.27901 15.5884 4.09854 15.5884 2.75513 14.2347C1.41487 12.8842 1.41487 10.697 2.75513 9.34645L7.98369 4.07789C8.80207 3.25325 10.1313 3.25325 10.9497 4.07789C11.7649 4.89935 11.7649 6.22887 10.9497 7.05034L5.72112 12.3189C5.42935 12.6129 4.95448 12.6147 4.66047 12.3229C4.36646 12.0312 4.36465 11.5563 4.65643 11.2623L9.88499 5.99373C10.1198 5.75711 10.1198 5.37112 9.88499 5.1345C9.65331 4.90104 9.28007 4.90104 9.04839 5.1345L3.81983 10.4031C3.05998 11.1687 3.05998 12.4125 3.81983 13.1781C4.57653 13.9406 5.80101 13.9406 6.55772 13.1781L11.7863 7.90957C13.0712 6.61486 13.0712 4.51336 11.7863 3.21866C10.5045 1.92712 8.42883 1.92711 7.14709 3.21866L6.43411 3.9371C6.14233 4.2311 5.66746 4.23291 5.37345 3.94114C5.07945 3.64936 5.07764 3.17449 5.36941 2.88049L6.0824 2.16204L6.61475 2.69035L6.0824 2.16204Z" fill="currentColor"/>
</svg>
