<svg width="16" height="16" viewBox="0 0 16 16" fill="none" xmlns="http://www.w3.org/2000/svg">
<path fill-rule="evenodd" clip-rule="evenodd" d="M6.75 4.5C6.75 3.80964 7.30964 3.25 8 3.25C8.69036 3.25 9.25 3.80964 9.25 4.5C9.25 5.19036 8.69036 5.75 8 5.75C7.30964 5.75 6.75 5.19036 6.75 4.5ZM8 1.75C6.48122 1.75 5.25 2.98122 5.25 4.5C5.25 6.01878 6.48122 7.25 8 7.25C9.51878 7.25 10.75 6.01878 10.75 4.5C10.75 2.98122 9.51878 1.75 8 1.75ZM11.8357 11.0789C12.4778 11.6077 12.8964 12.2027 13.1014 12.75H2.89863C3.10361 12.2027 3.5222 11.6077 4.16428 11.0789C5.09749 10.3104 6.43031 9.75 8 9.75C9.56969 9.75 10.9025 10.3104 11.8357 11.0789ZM8 8.25C6.06969 8.25 4.40251 8.93958 3.21072 9.92105C2.03937 10.8857 1.25 12.2043 1.25 13.5C1.25 13.9142 1.58579 14.25 2 14.25H14C14.4142 14.25 14.75 13.9142 14.75 13.5C14.75 12.2043 13.9606 10.8857 12.7893 9.92105C11.5975 8.93958 9.93031 8.25 8 8.25Z" fill="currentColor"/>
</svg>
