<svg width="16" height="16" viewBox="0 0 16 16" fill="none" xmlns="http://www.w3.org/2000/svg">
<path fill-rule="evenodd" clip-rule="evenodd" d="M7.60693 1.36126C7.84799 1.21291 8.15203 1.21291 8.39309 1.36126L14.8931 5.36132C15.1789 5.53718 15.313 5.88146 15.2217 6.20432C15.1303 6.52718 14.8355 6.75006 14.5 6.75006H13.75V12.7501L14.5 12.7501C14.9142 12.7501 15.25 13.0859 15.25 13.5001C15.25 13.9143 14.9142 14.2501 14.5 14.2501L3.00001 14.25L1.5 14.25C1.08579 14.25 0.750001 13.9142 0.750003 13.5C0.750005 13.0858 1.08579 12.75 1.50001 12.75L2.25001 12.75V6.75006H1.5C1.16446 6.75006 0.869738 6.52718 0.778354 6.20432C0.686969 5.88146 0.821156 5.53718 1.10693 5.36132L7.60693 1.36126ZM12.25 12.7501V6.75006H8.75001V12.75L12.25 12.7501ZM8.00001 5.25L8.00968 5.25006H11.8503L8.00001 2.88064L4.14975 5.25006H7.99034L8.00001 5.25ZM7.25001 12.75V6.75006H3.75001V12.75L7.25001 12.75Z" fill="currentColor"/>
</svg>
