<svg width="16" height="16" viewBox="0 0 16 16" fill="none" xmlns="http://www.w3.org/2000/svg">
<path fill-rule="evenodd" clip-rule="evenodd" d="M8.5 3.25L4.5 3.25C2.98121 3.25 1.75 4.48122 1.75 6C1.75 7.16574 2.47535 8.16207 3.49934 8.56227C4.08868 6.9226 5.6574 5.75001 7.49999 5.75001L11.2388 5.75001C11.1125 4.34838 9.93451 3.25 8.5 3.25ZM12.7495 5.93667C12.7157 3.61866 10.8261 1.75 8.5 1.75L4.5 1.75C2.15279 1.75 0.249999 3.65279 0.25 6C0.25 7.91235 1.51306 9.5297 3.25046 10.0633C3.28433 12.3813 5.17394 14.25 7.49999 14.25L11.5 14.25C13.8472 14.25 15.75 12.3472 15.75 10C15.75 8.08765 14.4869 6.4703 12.7495 5.93667ZM10.9501 7.25001L7.49999 7.25001C6.43133 7.25001 5.50503 7.85959 5.04986 8.75L8.5 8.75C9.56867 8.75 10.495 8.14042 10.9501 7.25001ZM4.76121 10.25H8.5C10.3426 10.25 11.9113 9.07741 12.5007 7.43773C13.5246 7.83793 14.25 8.83426 14.25 10C14.25 11.5188 13.0188 12.75 11.5 12.75L7.49999 12.75C6.06549 12.75 4.88752 11.6516 4.76121 10.25Z" fill="currentColor"/>
</svg>
