<svg width="16" height="16" viewBox="0 0 16 16" fill="none" xmlns="http://www.w3.org/2000/svg">
<path fill-rule="evenodd" clip-rule="evenodd" d="M2.5 0.75C2.08579 0.75 1.75 1.08579 1.75 1.5V14.5C1.75 14.9142 2.08579 15.25 2.5 15.25H7C7.41421 15.25 7.75 14.9142 7.75 14.5C7.75 14.0858 7.41421 13.75 7 13.75H3.25V2.25H12.75V8.5C12.75 8.91421 13.0858 9.25 13.5 9.25C13.9142 9.25 14.25 8.91421 14.25 8.5V1.5C14.25 1.08579 13.9142 0.75 13.5 0.75H2.5ZM14.9468 11.4835C15.2138 11.1669 15.1736 10.6937 14.857 10.4267C14.5403 10.1596 14.0672 10.1999 13.8001 10.5165L11.0105 13.8242L9.9553 12.5268C9.69395 12.2054 9.22157 12.1568 8.90022 12.4182C8.57887 12.6795 8.53022 13.1519 8.79158 13.4732L10.4181 15.4732C10.5591 15.6465 10.7699 15.748 10.9933 15.75C11.2167 15.752 11.4293 15.6543 11.5733 15.4835L14.9468 11.4835ZM5.25 5.5C5.25 5.08579 5.58579 4.75 6 4.75H10C10.4142 4.75 10.75 5.08579 10.75 5.5C10.75 5.91421 10.4142 6.25 10 6.25H6C5.58579 6.25 5.25 5.91421 5.25 5.5ZM6 8.25C5.58579 8.25 5.25 8.58579 5.25 9C5.25 9.41421 5.58579 9.75 6 9.75H10C10.4142 9.75 10.75 9.41421 10.75 9C10.75 8.58579 10.4142 8.25 10 8.25H6Z" fill="currentColor"/>
</svg>
