<svg width="16" height="16" viewBox="0 0 16 16" fill="none" xmlns="http://www.w3.org/2000/svg">
<path fill-rule="evenodd" clip-rule="evenodd" d="M7.37678 2.82223C7.96796 2.72081 8.27874 2.71828 8.85974 2.82147L8.86168 2.82181C10.2332 3.0617 11.4533 3.83662 12.2536 4.97609C13.0537 6.11546 13.3685 7.526 13.1287 8.89745C12.9058 10.1686 12.5435 11.4113 12.0485 12.6031C11.8897 12.9856 12.071 13.4245 12.4535 13.5834C12.8361 13.7423 13.275 13.5609 13.4338 13.1784C13.971 11.8849 14.3642 10.5362 14.6062 9.1566L14.6062 9.15624C14.9147 7.3928 14.5099 5.57907 13.4811 4.11403C12.4524 2.64926 10.8841 1.65304 9.12107 1.34441C8.3606 1.20942 7.87508 1.21484 7.12316 1.34383C6.71491 1.41386 6.44073 1.80159 6.51077 2.20984C6.5808 2.61809 6.96853 2.89226 7.37678 2.82223ZM7.17442 4.3113C7.89868 4.15064 8.64879 4.22913 9.32188 4.53794C9.99423 4.84641 10.5492 5.36584 10.9201 6.01744C11.1249 6.37743 10.9992 6.83535 10.6392 7.04024C10.2792 7.24512 9.82129 7.11938 9.6164 6.75939C9.39418 6.36893 9.07098 6.07316 8.69637 5.90129C8.32249 5.72976 7.90626 5.68542 7.49928 5.7757C7.09127 5.86621 6.70452 6.08975 6.39559 6.42802C6.08637 6.7666 5.87332 7.20082 5.7907 7.6739L5.79083 7.67316L5.05176 7.54561L5.79061 7.67447L5.7907 7.6739C5.50634 9.32096 4.83561 10.8758 3.83935 12.1899C3.58911 12.52 3.11866 12.5847 2.78858 12.3345C2.4585 12.0843 2.39378 11.6138 2.64402 11.2837C3.49281 10.1642 4.06847 8.83317 4.31268 7.41807L4.31291 7.41676C4.44328 6.66921 4.78119 5.9714 5.28799 5.41648C5.7952 4.86109 6.4512 4.47174 7.17442 4.3113ZM10.8784 8.51106C11.2865 8.58197 11.5598 8.97028 11.4889 9.37838C11.1364 11.4068 10.1577 13.1173 8.82833 14.7275C8.56461 15.0469 8.09189 15.092 7.77247 14.8283C7.45305 14.5646 7.4079 14.0919 7.67162 13.7725C8.89919 12.2856 9.71772 10.8097 10.011 9.12159C10.082 8.71349 10.4703 8.44015 10.8784 8.51106ZM5.133 2.59778C5.35513 2.94739 5.25179 3.41089 4.90218 3.63302C4.34162 3.98919 4.10141 4.33439 3.63652 5.03492C3.23595 5.63854 2.86945 6.62836 2.73886 7.3786C2.66783 7.78668 2.27944 8.05991 1.87136 7.98888C1.46328 7.91785 1.19005 7.52946 1.26108 7.12138C1.42118 6.20157 1.85329 5.00928 2.38669 4.2055L2.39353 4.1952C2.85958 3.4929 3.24881 2.90637 4.09776 2.36696C4.44737 2.14483 4.91086 2.24817 5.133 2.59778ZM8.73904 8.37771C8.80958 7.96955 8.53588 7.58149 8.12771 7.51095C7.71955 7.44041 7.33149 7.71411 7.26095 8.12227C7.11237 8.98203 6.79038 9.5898 6.29022 10.5016C6.091 10.8647 6.2239 11.3206 6.58706 11.5198C6.95022 11.7191 7.40612 11.5862 7.60534 11.223C8.10074 10.3199 8.54288 9.51274 8.73904 8.37771Z" fill="currentColor"/>
</svg>
