<svg width="16" height="16" viewBox="0 0 16 16" fill="none" xmlns="http://www.w3.org/2000/svg">
<path fill-rule="evenodd" clip-rule="evenodd" d="M1.25 2C1.25 1.58579 1.58579 1.25 2 1.25H5C5.41421 1.25 5.75 1.58579 5.75 2C5.75 2.41421 5.41421 2.75 5 2.75H2.75V5C2.75 5.41421 2.41421 5.75 2 5.75C1.58579 5.75 1.25 5.41421 1.25 5V2ZM10.25 2C10.25 1.58579 10.5858 1.25 11 1.25H14C14.4142 1.25 14.75 1.58579 14.75 2V5C14.75 5.41421 14.4142 5.75 14 5.75C13.5858 5.75 13.25 5.41421 13.25 5V2.75H11C10.5858 2.75 10.25 2.41421 10.25 2ZM5.66412 7.99612C6.03448 7.81062 6.48509 7.96048 6.67059 8.33084C6.96692 8.9225 7.47967 9.25004 8 9.25004C8.52032 9.25004 9.03307 8.9225 9.32941 8.33084C9.5149 7.96048 9.96551 7.81062 10.3359 7.99612C10.7062 8.18161 10.8561 8.63222 10.6706 9.00258C10.1685 10.0051 9.1889 10.75 8 10.75C6.81109 10.75 5.8315 10.0051 5.3294 9.00258C5.14391 8.63222 5.29377 8.18161 5.66412 7.99612ZM14.75 11C14.75 10.5858 14.4142 10.25 14 10.25C13.5858 10.25 13.25 10.5858 13.25 11V13.25H11C10.5858 13.25 10.25 13.5858 10.25 14C10.25 14.4142 10.5858 14.75 11 14.75H14C14.4142 14.75 14.75 14.4142 14.75 14V11ZM2.75 11C2.75 10.5858 2.41421 10.25 2 10.25C1.58579 10.25 1.25 10.5858 1.25 11V14C1.25 14.4142 1.58579 14.75 2 14.75H5C5.41421 14.75 5.75 14.4142 5.75 14C5.75 13.5858 5.41421 13.25 5 13.25H2.75V11Z" fill="currentColor"/>
</svg>
