<svg width="16" height="16" viewBox="0 0 16 16" fill="none" xmlns="http://www.w3.org/2000/svg">
<path fill-rule="evenodd" clip-rule="evenodd" d="M11.5013 3.43808C9.24646 1.70301 5.99991 1.86836 3.93414 3.93414C1.86836 5.99991 1.70301 9.24646 3.43808 11.5013L11.5013 3.43808ZM12.5619 4.49874L4.49874 12.5619C6.75354 14.297 10.0001 14.1316 12.0659 12.0659C14.1316 10.0001 14.297 6.75354 12.5619 4.49874ZM2.87348 2.87348C5.70478 0.0421741 10.2952 0.0421753 13.1265 2.87348C15.9578 5.70478 15.9578 10.2952 13.1265 13.1265C10.2952 15.9578 5.70478 15.9578 2.87348 13.1265C0.0421748 10.2952 0.0421748 5.70478 2.87348 2.87348Z" fill="currentColor"/>
</svg>
