<svg width="16" height="16" viewBox="0 0 16 16" fill="none" xmlns="http://www.w3.org/2000/svg">
<path fill-rule="evenodd" clip-rule="evenodd" d="M7.43056 0.51192C7.70012 0.197426 8.1736 0.161005 8.48809 0.430571L11.9881 3.43057C12.1543 3.57306 12.25 3.78107 12.25 4.00001C12.25 4.21896 12.1543 4.42697 11.9881 4.56946L8.48809 7.56946C8.1736 7.83902 7.70012 7.8026 7.43056 7.48811C7.16099 7.17361 7.19741 6.70014 7.51191 6.43057L9.47256 4.75001H2.5C2.36193 4.75001 2.25 4.86194 2.25 5.00001V12C2.25 12.1381 2.36193 12.25 2.5 12.25H13.5C13.6381 12.25 13.75 12.1381 13.75 12V7.00001C13.75 6.5858 14.0858 6.25001 14.5 6.25001C14.9142 6.25001 15.25 6.5858 15.25 7.00001V12C15.25 12.9665 14.4665 13.75 13.5 13.75H2.5C1.5335 13.75 0.75 12.9665 0.75 12V5.00001C0.75 4.03352 1.5335 3.25001 2.5 3.25001H9.47256L7.51191 1.56946C7.19741 1.29989 7.16099 0.826414 7.43056 0.51192Z" fill="currentColor"/>
</svg>
