<svg width="16" height="16" viewBox="0 0 16 16" fill="none" xmlns="http://www.w3.org/2000/svg">
<path fill-rule="evenodd" clip-rule="evenodd" d="M8.75003 3.5C8.75003 3.08579 8.41424 2.75 8.00003 2.75C7.58582 2.75 7.25003 3.08579 7.25003 3.5V4C7.25003 4.41421 7.58582 4.75 8.00003 4.75C8.41424 4.75 8.75003 4.41421 8.75003 4V3.5ZM3.50003 7.25C3.08582 7.25 2.75003 7.58579 2.75003 8C2.75003 8.41421 3.08582 8.75 3.50003 8.75H4.00003C4.41424 8.75 4.75003 8.41421 4.75003 8C4.75003 7.58579 4.41424 7.25 4.00003 7.25H3.50003ZM12 7.25C11.5858 7.25 11.25 7.58579 11.25 8C11.25 8.41421 11.5858 8.75 12 8.75H12.5C12.9142 8.75 13.25 8.41421 13.25 8C13.25 7.58579 12.9142 7.25 12.5 7.25H12ZM8.75003 12C8.75003 11.5858 8.41424 11.25 8.00003 11.25C7.58582 11.25 7.25003 11.5858 7.25003 12V12.5C7.25003 12.9142 7.58582 13.25 8.00003 13.25C8.41424 13.25 8.75003 12.9142 8.75003 12.5V12ZM10.5304 6.53033C10.8233 6.23744 10.8233 5.76256 10.5304 5.46967C10.2375 5.17678 9.76259 5.17678 9.4697 5.46967L8.00003 6.93934L6.53036 5.46967C6.23747 5.17678 5.76259 5.17678 5.4697 5.46967C5.17681 5.76256 5.17681 6.23744 5.4697 6.53033L6.93937 8L5.4697 9.46967C5.17681 9.76256 5.17681 10.2374 5.4697 10.5303C5.76259 10.8232 6.23747 10.8232 6.53036 10.5303L8.00003 9.06066L9.4697 10.5303C9.76259 10.8232 10.2375 10.8232 10.5304 10.5303C10.8233 10.2374 10.8233 9.76256 10.5304 9.46967L9.06069 8L10.5304 6.53033Z" fill="currentColor"/>
</svg>
