<svg width="16" height="16" viewBox="0 0 16 16" fill="none" xmlns="http://www.w3.org/2000/svg">
<path fill-rule="evenodd" clip-rule="evenodd" d="M4.91667 3.66669C4.91667 2.70019 5.70017 1.91669 6.66667 1.91669H9.33333C10.2998 1.91669 11.0833 2.70019 11.0833 3.66669V4.25002H13C13.9665 4.25002 14.75 5.03352 14.75 6.00002V6.66668C14.75 7.0809 14.4142 7.41668 14 7.41668C13.5858 7.41668 13.25 7.0809 13.25 6.66668V6.00002C13.25 5.86194 13.1381 5.75002 13 5.75002H3C2.86193 5.75002 2.75 5.86194 2.75 6.00002V12.5C2.75 12.6381 2.86193 12.75 3 12.75H3.89474C4.30895 12.75 4.64474 13.0858 4.64474 13.5C4.64474 13.9142 4.30895 14.25 3.89474 14.25H3C2.0335 14.25 1.25 13.4665 1.25 12.5V6.00002C1.25 5.03352 2.0335 4.25002 3 4.25002H4.91667V3.66669ZM9.58333 3.66669V4.25002H6.41667V3.66669C6.41667 3.52862 6.5286 3.41669 6.66667 3.41669H9.33333C9.47141 3.41669 9.58333 3.52861 9.58333 3.66669ZM9.75 8.00002C9.75 7.5858 9.41421 7.25002 9 7.25002C8.58579 7.25002 8.25 7.5858 8.25 8.00002V13.5C8.25 13.9142 8.58579 14.25 9 14.25C9.41421 14.25 9.75 13.9142 9.75 13.5V8.00002ZM12.25 9.00001C12.25 8.58579 11.9142 8.25001 11.5 8.25001C11.0858 8.25001 10.75 8.58579 10.75 9.00001L10.75 13.5C10.75 13.9142 11.0858 14.25 11.5 14.25C11.9142 14.25 12.25 13.9142 12.25 13.5L12.25 9.00001ZM7.25 10.5C7.25 10.0858 6.91421 9.75001 6.5 9.75001C6.08579 9.75001 5.75 10.0858 5.75 10.5V13.5C5.75 13.9142 6.08579 14.25 6.5 14.25C6.91421 14.25 7.25 13.9142 7.25 13.5V10.5ZM14.75 10.5C14.75 10.0858 14.4142 9.75001 14 9.75001C13.5858 9.75001 13.25 10.0858 13.25 10.5V13.5C13.25 13.9142 13.5858 14.25 14 14.25C14.4142 14.25 14.75 13.9142 14.75 13.5V10.5Z" fill="currentColor"/>
</svg>
