<svg width="16" height="16" viewBox="0 0 16 16" fill="none" xmlns="http://www.w3.org/2000/svg">
<path fill-rule="evenodd" clip-rule="evenodd" d="M6 1.75C5.30964 1.75 4.75 2.30964 4.75 3V4.5H2.5C1.67157 4.5 1 5.17157 1 6V12C1 12.8284 1.67157 13.5 2.5 13.5H13.5C14.3284 13.5 15 12.8284 15 12V6C15 5.17157 14.3284 4.5 13.5 4.5H11.25V3C11.25 2.30964 10.6904 1.75 10 1.75H6ZM9.75 4.5V3.25H6.25V4.5H9.75ZM3.36548 7.10014C3.58584 6.75047 4.04742 6.6451 4.39758 6.86405L4.40418 6.86805C4.41152 6.87245 4.4247 6.88025 4.44353 6.89095C4.4812 6.91236 4.54136 6.94536 4.62254 6.98617C4.78506 7.06788 5.03072 7.18035 5.34785 7.29388C5.98305 7.52127 6.89678 7.75 8 7.75C9.10322 7.75 10.017 7.52127 10.6522 7.29388C10.9693 7.18035 11.2149 7.06788 11.3775 6.98617C11.4586 6.94536 11.5188 6.91236 11.5565 6.89095C11.5753 6.88025 11.5885 6.87245 11.5958 6.86805L11.6016 6.86459L11.6024 6.86405C11.9526 6.6451 12.4142 6.75047 12.6345 7.10014C12.8554 7.45058 12.7503 7.91368 12.3999 8.13452L12 7.5C12.3999 8.13452 12.3989 8.1351 12.3989 8.1351L12.3979 8.13577L12.3953 8.13739L12.3883 8.1417L12.3674 8.15441C12.3503 8.16466 12.327 8.17835 12.2977 8.19499C12.2392 8.22826 12.1565 8.27339 12.0512 8.32633C11.8408 8.43212 11.5389 8.56965 11.1577 8.70612C10.3962 8.97873 9.30993 9.25 8 9.25C6.69007 9.25 5.60381 8.97873 4.84229 8.70612C4.46107 8.56965 4.15919 8.43212 3.94877 8.32633C3.84347 8.27339 3.7608 8.22826 3.70227 8.19499C3.67299 8.17835 3.64972 8.16466 3.63265 8.15441L3.61169 8.1417L3.60473 8.13739L3.60214 8.13577L3.60107 8.1351L3.60014 8.13452C3.24971 7.91368 3.14465 7.45058 3.36548 7.10014Z" fill="currentColor"/>
</svg>
