<svg width="16" height="16" viewBox="0 0 16 16" fill="none" xmlns="http://www.w3.org/2000/svg">
<path fill-rule="evenodd" clip-rule="evenodd" d="M6.5 2.25C6.08579 2.25 5.75 2.58579 5.75 3C5.75 3.41421 6.08579 3.75 6.5 3.75H9.5C9.91421 3.75 10.25 3.41421 10.25 3C10.25 2.58579 9.91421 2.25 9.5 2.25H6.5ZM1 12V6C1 5.17157 1.67157 4.5 2.5 4.5H13.5C14.3284 4.5 15 5.17157 15 6V12C15 12.8284 14.3284 13.5 13.5 13.5H2.5C1.67157 13.5 1 12.8284 1 12ZM8 12C9.65685 12 11 10.6569 11 9C11 7.34315 9.65685 6 8 6C6.34315 6 5 7.34315 5 9C5 10.6569 6.34315 12 8 12ZM9.75 9C9.75 9.9665 8.9665 10.75 8 10.75C7.0335 10.75 6.25 9.9665 6.25 9C6.25 8.0335 7.0335 7.25 8 7.25C8.9665 7.25 9.75 8.0335 9.75 9Z" fill="currentColor"/>
</svg>
