<svg width="16" height="16" viewBox="0 0 16 16" fill="none" xmlns="http://www.w3.org/2000/svg">
<path fill-rule="evenodd" clip-rule="evenodd" d="M0.75 4.5C0.75 3.25736 1.75736 2.25 3 2.25H13C14.2426 2.25 15.25 3.25736 15.25 4.5V6C15.25 6.41421 14.9142 6.75 14.5 6.75C14.0858 6.75 13.75 6.41421 13.75 6V4.5C13.75 4.08579 13.4142 3.75 13 3.75H3C2.58579 3.75 2.25 4.08579 2.25 4.5V11.5C2.25 11.9142 2.58579 12.25 3 12.25H6.5C6.91421 12.25 7.25 12.5858 7.25 13C7.25 13.4142 6.91421 13.75 6.5 13.75H3C1.75736 13.75 0.75 12.7426 0.75 11.5V4.5ZM10 8.5H15C15.5523 8.5 16 8.94772 16 9.5V12.5C16 13.0523 15.5523 13.5 15 13.5H14L12.2561 15.2439C12.1616 15.3384 12 15.2715 12 15.1379V13.5H10C9.44772 13.5 9 13.0523 9 12.5V9.5C9 8.94772 9.44772 8.5 10 8.5ZM4.75 6C4.61193 6 4.5 6.11193 4.5 6.25V7.75C4.5 7.88807 4.61193 8 4.75 8H6.75C6.88807 8 7 7.88807 7 7.75V6.25C7 6.11193 6.88807 6 6.75 6H4.75Z" fill="currentColor"/>
</svg>
