<svg width="16" height="16" viewBox="0 0 16 16" fill="none" xmlns="http://www.w3.org/2000/svg">
<path fill-rule="evenodd" clip-rule="evenodd" d="M3 2.25C1.75736 2.25 0.75 3.25736 0.75 4.5V11.5C0.75 12.7426 1.75736 13.75 3 13.75H13C14.2426 13.75 15.25 12.7426 15.25 11.5V4.5C15.25 3.25736 14.2426 2.25 13 2.25H3ZM2.25 4.5C2.25 4.08579 2.58579 3.75 3 3.75H13C13.4142 3.75 13.75 4.08579 13.75 4.5V11.5C13.75 11.9142 13.4142 12.25 13 12.25H3C2.58579 12.25 2.25 11.9142 2.25 11.5V4.5ZM4.75 6C4.61193 6 4.5 6.11193 4.5 6.25V7.75C4.5 7.88807 4.61193 8 4.75 8H6.75C6.88807 8 7 7.88807 7 7.75V6.25C7 6.11193 6.88807 6 6.75 6H4.75Z" fill="currentColor"/>
</svg>
