<svg width="16" height="16" viewBox="0 0 16 16" fill="none" xmlns="http://www.w3.org/2000/svg">
<path fill-rule="evenodd" clip-rule="evenodd" d="M0.75 4.5C0.75 3.25736 1.75736 2.25 3 2.25H13C14.2426 2.25 15.25 3.25736 15.25 4.5V7C15.25 7.41421 14.9142 7.75 14.5 7.75C14.0858 7.75 13.75 7.41421 13.75 7V4.5C13.75 4.08579 13.4142 3.75 13 3.75H3C2.58579 3.75 2.25 4.08579 2.25 4.5V11.5C2.25 11.9142 2.58579 12.25 3 12.25H7.5C7.91421 12.25 8.25 12.5858 8.25 13C8.25 13.4142 7.91421 13.75 7.5 13.75H3C1.75736 13.75 0.75 12.7426 0.75 11.5V4.5ZM12.5 8.25C12.9142 8.25 13.25 8.58579 13.25 9V10.75H15C15.4142 10.75 15.75 11.0858 15.75 11.5C15.75 11.9142 15.4142 12.25 15 12.25H13.25V14C13.25 14.4142 12.9142 14.75 12.5 14.75C12.0858 14.75 11.75 14.4142 11.75 14V12.25H10C9.58579 12.25 9.25 11.9142 9.25 11.5C9.25 11.0858 9.58579 10.75 10 10.75H11.75V9C11.75 8.58579 12.0858 8.25 12.5 8.25ZM4.75 6C4.61193 6 4.5 6.11193 4.5 6.25V7.75C4.5 7.88807 4.61193 8 4.75 8H6.75C6.88807 8 7 7.88807 7 7.75V6.25C7 6.11193 6.88807 6 6.75 6H4.75Z" fill="currentColor"/>
</svg>
