<svg width="16" height="16" viewBox="0 0 16 16" fill="none" xmlns="http://www.w3.org/2000/svg">
<path fill-rule="evenodd" clip-rule="evenodd" d="M0.75 4.5C0.75 3.25736 1.75736 2.25 3 2.25H13C14.2426 2.25 15.25 3.25736 15.25 4.5V7C15.25 7.41421 14.9142 7.75 14.5 7.75C14.0858 7.75 13.75 7.41421 13.75 7V4.5C13.75 4.08579 13.4142 3.75 13 3.75H3C2.58579 3.75 2.25 4.08579 2.25 4.5V11.5C2.25 11.9142 2.58579 12.25 3 12.25H7C7.41421 12.25 7.75 12.5858 7.75 13C7.75 13.4142 7.41421 13.75 7 13.75H3C1.75736 13.75 0.75 12.7426 0.75 11.5V4.5ZM15.4835 9.42667C15.8002 9.69371 15.8404 10.1669 15.5733 10.4835L12.1999 14.4835C12.0559 14.6543 11.8432 14.752 11.6199 14.75C11.3965 14.748 11.1856 14.6465 11.0447 14.4732L9.41814 12.4732C9.15679 12.1519 9.20543 11.6795 9.52678 11.4181C9.84814 11.1568 10.3205 11.2054 10.5819 11.5268L11.6371 12.8242L14.4267 9.51648C14.6937 9.19984 15.1669 9.15963 15.4835 9.42667ZM4.75 6C4.61193 6 4.5 6.11193 4.5 6.25V7.75C4.5 7.88807 4.61193 8 4.75 8H6.75C6.88807 8 7 7.88807 7 7.75V6.25C7 6.11193 6.88807 6 6.75 6H4.75Z" fill="currentColor"/>
</svg>
