<svg width="16" height="16" viewBox="0 0 16 16" fill="none" xmlns="http://www.w3.org/2000/svg">
<path fill-rule="evenodd" clip-rule="evenodd" d="M3 2.25C1.75736 2.25 0.75 3.25736 0.75 4.5V6.5V11.5C0.75 12.7426 1.75736 13.75 3 13.75H13C14.2426 13.75 15.25 12.7426 15.25 11.5V6.5V4.5C15.25 3.25736 14.2426 2.25 13 2.25H3ZM13.75 5.75V4.5C13.75 4.08579 13.4142 3.75 13 3.75H3C2.58579 3.75 2.25 4.08579 2.25 4.5V5.75H13.75ZM2.25 7.25H13.75V11.5C13.75 11.9142 13.4142 12.25 13 12.25H3C2.58579 12.25 2.25 11.9142 2.25 11.5V7.25Z" fill="currentColor"/>
</svg>
