<svg width="16" height="16" viewBox="0 0 16 16" fill="none" xmlns="http://www.w3.org/2000/svg">
<path fill-rule="evenodd" clip-rule="evenodd" d="M12.7197 2.71966C13.4268 2.01255 14.5732 2.01256 15.2803 2.71966C15.9874 3.42677 15.9874 4.57321 15.2803 5.28032L11.3206 9.24001C11.0573 9.50338 10.7431 9.71051 10.3973 9.84882L8.29877 10.6881C8.20723 10.7279 8.10619 10.75 8 10.75H4C3.58579 10.75 3.25 10.4142 3.25 9.99999C3.25 9.58577 3.58579 9.24999 4 9.24999H7.49218L8.15119 7.60257C8.2895 7.2568 8.4966 6.94273 8.75993 6.6794L12.7197 2.71966ZM14.2197 3.78032C14.0983 3.659 13.9017 3.659 13.7803 3.78032L9.82059 7.74006C9.7009 7.85975 9.60676 8.00251 9.54389 8.15968L9.34629 8.65365L9.84028 8.45608C9.99748 8.39321 10.1403 8.29906 10.26 8.17935L14.2197 4.21966C14.341 4.09834 14.341 3.90164 14.2197 3.78032ZM3 3.74999C2.58579 3.74999 2.25 4.08577 2.25 4.49999V11.5C2.25 11.9142 2.58579 12.25 3 12.25H13C13.4142 12.25 13.75 11.9142 13.75 11.5V8.99999C13.75 8.58577 14.0858 8.24999 14.5 8.24999C14.9142 8.24999 15.25 8.58577 15.25 8.99999V11.5C15.25 12.7426 14.2426 13.75 13 13.75H3C1.75736 13.75 0.75 12.7426 0.75 11.5V4.49999C0.75 3.25735 1.75736 2.24999 3 2.24999H9.5C9.91421 2.24999 10.25 2.58577 10.25 2.99999C10.25 3.4142 9.91421 3.74999 9.5 3.74999H3Z" fill="currentColor"/>
</svg>
