<svg width="16" height="16" viewBox="0 0 16 16" fill="none" xmlns="http://www.w3.org/2000/svg">
<path fill-rule="evenodd" clip-rule="evenodd" d="M12.441 1.24253C12.5281 0.919157 12.9869 0.919157 13.0739 1.24253L13.5427 2.98352C13.5731 3.09631 13.6612 3.18441 13.7739 3.21478L15.5149 3.68353C15.8383 3.7706 15.8383 4.2294 15.5149 4.31647L13.7739 4.78522C13.6612 4.81559 13.5731 4.90369 13.5427 5.01648L13.0739 6.75747C12.9869 7.08084 12.5281 7.08084 12.441 6.75747L11.9722 5.01648C11.9419 4.9037 11.8538 4.81559 11.741 4.78522L9.99999 4.31647C9.67662 4.2294 9.67662 3.7706 9.99999 3.68353L11.741 3.21478C11.8538 3.18441 11.9419 3.09631 11.9722 2.98352L12.441 1.24253ZM3 3.75003C2.58579 3.75003 2.25 4.08581 2.25 4.50003V11.5C2.25 11.9142 2.58579 12.25 3 12.25H13C13.4142 12.25 13.75 11.9142 13.75 11.5V8.00003C13.75 7.58581 14.0858 7.25003 14.5 7.25003C14.9142 7.25003 15.25 7.58581 15.25 8.00003V11.5C15.25 12.7427 14.2426 13.75 13 13.75H3C1.75736 13.75 0.75 12.7427 0.75 11.5V4.50003C0.75 3.25739 1.75736 2.25003 3 2.25003H8C8.41421 2.25003 8.75 2.58582 8.75 3.00003C8.75 3.41424 8.41421 3.75003 8 3.75003H3ZM4.75 6C4.61193 6 4.5 6.11193 4.5 6.25V7.75C4.5 7.88807 4.61193 8 4.75 8H6.75C6.88807 8 7 7.88807 7 7.75V6.25C7 6.11193 6.88807 6 6.75 6H4.75Z" fill="currentColor"/>
</svg>
