<svg width="16" height="16" viewBox="0 0 16 16" fill="none" xmlns="http://www.w3.org/2000/svg">
<path fill-rule="evenodd" clip-rule="evenodd" d="M0.75 4.5C0.75 3.25736 1.75736 2.25 3 2.25H13C14.2426 2.25 15.25 3.25736 15.25 4.5V7C15.25 7.41421 14.9142 7.75 14.5 7.75C14.0858 7.75 13.75 7.41421 13.75 7V4.5C13.75 4.08579 13.4142 3.75 13 3.75H3C2.58579 3.75 2.25 4.08579 2.25 4.5V11.5C2.25 11.9142 2.58579 12.25 3 12.25H8C8.41421 12.25 8.75 12.5858 8.75 13C8.75 13.4142 8.41421 13.75 8 13.75H3C1.75736 13.75 0.75 12.7426 0.75 11.5V4.5ZM10.4697 9.46967C10.7626 9.17678 11.2374 9.17678 11.5303 9.46967L13 10.9393L14.4697 9.46967C14.7626 9.17678 15.2374 9.17678 15.5303 9.46967C15.8232 9.76256 15.8232 10.2374 15.5303 10.5303L14.0607 12L15.5303 13.4697C15.8232 13.7626 15.8232 14.2374 15.5303 14.5303C15.2374 14.8232 14.7626 14.8232 14.4697 14.5303L13 13.0607L11.5303 14.5303C11.2374 14.8232 10.7626 14.8232 10.4697 14.5303C10.1768 14.2374 10.1768 13.7626 10.4697 13.4697L11.9393 12L10.4697 10.5303C10.1768 10.2374 10.1768 9.76256 10.4697 9.46967ZM4.75 6C4.61193 6 4.5 6.11193 4.5 6.25V7.75C4.5 7.88807 4.61193 8 4.75 8H6.75C6.88807 8 7 7.88807 7 7.75V6.25C7 6.11193 6.88807 6 6.75 6H4.75Z" fill="currentColor"/>
</svg>
