<svg width="16" height="16" viewBox="0 0 16 16" fill="none" xmlns="http://www.w3.org/2000/svg">
<path fill-rule="evenodd" clip-rule="evenodd" d="M4 1C2.34315 1 1 2.34315 1 4V12C1 13.6569 2.34315 15 4 15H12C13.6569 15 15 13.6569 15 12V4C15 2.34315 13.6569 1 12 1H4ZM8.79703 7.16673L8.79644 7.16667L8.79583 7.1666C7.47042 6.85894 7.03663 6.60253 7.03663 6.11538C7.03663 5.52564 7.6151 5.11538 8.4828 5.11538C9.28036 5.11538 10.0168 5.462 10.4863 6.07557C10.5531 6.16286 10.6742 6.18216 10.756 6.11081L11.6848 5.30012C11.7554 5.23847 11.7722 5.12975 11.7179 5.05145C11.3399 4.50556 10.7276 4.06312 9.97416 3.81635L10.1949 2.73259C10.2193 2.61301 10.1339 2.5 10.0191 2.5H8.58091C8.49582 2.5 8.42236 2.56358 8.40485 2.65238L8.21435 3.61859C6.47715 3.76154 5.32563 4.86282 5.32563 6.32051C5.32563 7.57692 6.09692 8.34615 8.04925 8.78205C9.18208 9.03846 9.51952 9.26923 9.51952 9.78205C9.51952 10.4487 8.84464 10.9103 7.95284 10.9103C6.96333 10.9103 6.14169 10.4415 5.60537 9.64976C5.54312 9.55786 5.42158 9.5346 5.33761 9.60412L4.31886 10.4475C4.24706 10.5069 4.2276 10.6146 4.27877 10.6947C4.71524 11.378 5.46925 11.9321 6.40785 12.2163L6.17431 13.2638C6.14743 13.3843 6.23315 13.5 6.34934 13.5H7.80713C7.89222 13.5 7.96568 13.4364 7.98319 13.3476L8.16766 12.4122C10.0495 12.2891 11.2552 11.1263 11.2552 9.55128C11.2552 8.29494 10.484 7.55137 8.79703 7.16673Z" fill="currentColor"/>
</svg>
