<svg width="16" height="16" viewBox="0 0 16 16" fill="none" xmlns="http://www.w3.org/2000/svg">
<path fill-rule="evenodd" clip-rule="evenodd" d="M1.99999 1.25C1.58578 1.25 1.24999 1.58579 1.24999 2V5C1.24999 5.41421 1.58578 5.75 1.99999 5.75C2.41421 5.75 2.74999 5.41421 2.74999 5V2.75H4.99999C5.41421 2.75 5.74999 2.41421 5.74999 2C5.74999 1.58579 5.41421 1.25 4.99999 1.25H1.99999ZM10.25 2C10.25 1.58579 10.5858 1.25 11 1.25H14C14.4142 1.25 14.75 1.58579 14.75 2V5C14.75 5.41421 14.4142 5.75 14 5.75C13.5858 5.75 13.25 5.41421 13.25 5V2.75H11C10.5858 2.75 10.25 2.41421 10.25 2ZM14 10.25C14.4142 10.25 14.75 10.5858 14.75 11V14C14.75 14.4142 14.4142 14.75 14 14.75H11C10.5858 14.75 10.25 14.4142 10.25 14C10.25 13.5858 10.5858 13.25 11 13.25H13.25V11C13.25 10.5858 13.5858 10.25 14 10.25ZM1.99999 10.25C2.41421 10.25 2.74999 10.5858 2.74999 11V13.25H4.99999C5.41421 13.25 5.74999 13.5858 5.74999 14C5.74999 14.4142 5.41421 14.75 4.99999 14.75H1.99999C1.58578 14.75 1.24999 14.4142 1.24999 14V11C1.24999 10.5858 1.58578 10.25 1.99999 10.25ZM8.6376 7.23339L8.63712 7.23333L8.63663 7.23328C7.5763 6.98715 7.22927 6.78202 7.22927 6.39231C7.22927 5.92051 7.69205 5.59231 8.38621 5.59231C9.02426 5.59231 9.61343 5.8696 9.98902 6.36046C10.0425 6.43029 10.1393 6.44573 10.2047 6.38864L10.9478 5.7401C11.0043 5.69077 11.0177 5.6038 10.9743 5.54116C10.6719 5.10445 10.182 4.7505 9.5793 4.55308L9.75591 3.68607C9.77539 3.59041 9.70706 3.5 9.61526 3.5H8.4647C8.39662 3.5 8.33785 3.55086 8.32385 3.62191L8.17145 4.39487C6.78168 4.50923 5.86048 5.39026 5.86048 6.55641C5.86048 7.56154 6.47751 8.17692 8.03937 8.52564C8.94563 8.73077 9.21558 8.91538 9.21558 9.32564C9.21558 9.85897 8.67568 10.2282 7.96224 10.2282C7.17063 10.2282 6.51332 9.85319 6.08427 9.21981C6.03447 9.14629 5.93723 9.12768 5.87005 9.1833L5.05506 9.85799C4.99762 9.90554 4.98205 9.99164 5.02299 10.0557C5.37216 10.6024 5.97537 11.0457 6.72625 11.2731L6.53941 12.111C6.51791 12.2074 6.58648 12.3 6.67944 12.3H7.84567C7.91374 12.3 7.97251 12.2491 7.98652 12.1781L8.13409 11.4297C9.63955 11.3313 10.6041 10.401 10.6041 9.14102C10.6041 8.13595 9.98719 7.54109 8.6376 7.23339Z" fill="currentColor"/>
</svg>
