<svg width="16" height="16" viewBox="0 0 16 16" fill="none" xmlns="http://www.w3.org/2000/svg">
<path fill-rule="evenodd" clip-rule="evenodd" d="M3.10455 2.06226C3.13894 1.64948 2.8322 1.28697 2.41942 1.25257C2.00664 1.21817 1.64413 1.52491 1.60973 1.9377L1.32962 5.29902C1.26579 6.06492 1.55084 7.07696 2.5506 7.43863C2.87494 7.55596 3.27255 7.65653 3.74988 7.70966L3.74999 14C3.75 14.4142 4.08579 14.75 4.50001 14.75C4.91422 14.75 5.25 14.4142 5.24999 14L5.24988 7.70968C5.72732 7.65656 6.125 7.55598 6.44939 7.43863C7.44915 7.07696 7.7342 6.06492 7.67037 5.29902L7.39026 1.9377C7.35586 1.52491 6.99335 1.21817 6.58057 1.25257C6.16778 1.28697 5.86104 1.64948 5.89544 2.06226L6.17555 5.42359C6.19094 5.60822 6.15973 5.7618 6.11005 5.86385C6.06553 5.9553 6.01037 6.00231 5.93912 6.02809C5.62553 6.14153 5.15576 6.24998 4.49999 6.24998C3.84423 6.24998 3.37446 6.14153 3.06086 6.02809C2.98962 6.00231 2.93446 5.9553 2.88994 5.86385C2.84026 5.7618 2.80905 5.60822 2.82444 5.42358L3.10455 2.06226ZM13.75 1.99997C13.75 1.74112 13.6165 1.50057 13.3969 1.36359C13.1773 1.22661 12.9025 1.21257 12.6701 1.32643L13 1.99997C12.6701 1.32643 12.6697 1.3266 12.6694 1.32678L12.6686 1.32715L12.6669 1.32798L12.6629 1.32998L12.6522 1.33536C12.644 1.33957 12.6335 1.34501 12.6209 1.35172C12.5957 1.36515 12.5619 1.38368 12.5206 1.40757C12.4381 1.45534 12.3254 1.52474 12.1909 1.61793C11.9224 1.80408 11.5648 2.08674 11.188 2.48349C10.431 3.28055 9.60203 4.53312 9.26258 6.36318C9.09354 7.27447 9.09783 8.34436 9.13739 9.15451C9.15749 9.56619 9.18747 9.92414 9.21247 10.1797C9.22499 10.3077 9.23631 10.4105 9.24459 10.482C9.24874 10.5178 9.25213 10.5457 9.25453 10.5652L9.25738 10.5879L9.2582 10.5943L9.25845 10.5963L9.25853 10.5969L9.25857 10.5971C9.25858 10.5972 9.25859 10.5973 10.0022 10.5L9.25859 10.5973C9.30747 10.9707 9.62566 11.25 10.0022 11.25H12.25L12.25 14C12.25 14.4142 12.5858 14.75 13 14.75C13.4142 14.75 13.75 14.4142 13.75 14L13.75 10.5V1.99997ZM10.7374 6.63675C11.0122 5.15532 11.6678 4.16513 12.25 3.54368V9.74997H10.6797C10.6637 9.5563 10.6477 9.32917 10.6356 9.08135C10.5976 8.30347 10.6008 7.37336 10.7374 6.63675ZM4.49999 1.58331C4.91421 1.58331 5.24999 1.9191 5.24999 2.33331L5.24999 4.99998C5.24999 5.41419 4.91421 5.74998 4.49999 5.74998C4.08578 5.74998 3.74999 5.41419 3.74999 4.99998L3.74999 2.33331C3.74999 1.9191 4.08578 1.58331 4.49999 1.58331Z" fill="currentColor"/>
</svg>
