<svg width="16" height="16" viewBox="0 0 16 16" fill="none" xmlns="http://www.w3.org/2000/svg">
<path fill-rule="evenodd" clip-rule="evenodd" d="M3 1.25C2.0335 1.25 1.25 2.0335 1.25 3V13.25H1C0.585786 13.25 0.25 13.5858 0.25 14C0.25 14.4142 0.585786 14.75 1 14.75H2H10H15C15.4142 14.75 15.75 14.4142 15.75 14C15.75 13.5858 15.4142 13.25 15 13.25H10.75V8.41667H11.25V9.75C11.25 10.8546 12.1454 11.75 13.25 11.75C14.3546 11.75 15.25 10.8546 15.25 9.75V5C15.25 4.74924 15.1247 4.51506 14.916 4.37596L13.416 3.37596C13.0714 3.1462 12.6057 3.23933 12.376 3.58397C12.1462 3.92862 12.2393 4.39427 12.584 4.62404L13.75 5.40139V9.75C13.75 10.0261 13.5261 10.25 13.25 10.25C12.9738 10.25 12.75 10.0261 12.75 9.75V7.66667C12.75 7.25245 12.4142 6.91667 12 6.91667H10.75V3C10.75 2.0335 9.9665 1.25 9 1.25H3ZM9.25 13.25H2.75V3C2.75 2.86193 2.86193 2.75 3 2.75H9C9.13807 2.75 9.25 2.86193 9.25 3V13.25ZM5 4.25C4.58579 4.25 4.25 4.58579 4.25 5C4.25 5.41421 4.58579 5.75 5 5.75H7C7.41421 5.75 7.75 5.41421 7.75 5C7.75 4.58579 7.41421 4.25 7 4.25H5Z" fill="currentColor"/>
</svg>
