<svg width="16" height="16" viewBox="0 0 16 16" fill="none" xmlns="http://www.w3.org/2000/svg">
<path fill-rule="evenodd" clip-rule="evenodd" d="M13.1875 5.75C13.0178 4.76648 12.5113 3.98304 11.7785 3.40564C10.8514 2.67522 9.5256 2.25 8 2.25C6.4744 2.25 5.14855 2.67522 4.22152 3.40564C3.48871 3.98304 2.98217 4.76648 2.81246 5.75H13.1875ZM3.29319 2.22743C4.53773 1.24683 6.21189 0.75 8 0.75C9.78811 0.75 11.4623 1.24683 12.7068 2.22743C13.968 3.22116 14.75 4.68589 14.75 6.5C14.75 6.91421 14.4142 7.25 14 7.25H2C1.58578 7.25 1.25 6.91421 1.25 6.5C1.25 4.68589 2.03197 3.22116 3.29319 2.22743ZM1.26458 8.85291C1.33469 8.50234 1.6425 8.25 2.00001 8.25H14C14.3575 8.25 14.6653 8.50234 14.7354 8.85291C14.8056 9.20348 14.6185 9.5548 14.2885 9.69231L8.28847 12.1923C8.10386 12.2692 7.89617 12.2692 7.71155 12.1923L1.71155 9.69231C1.38154 9.5548 1.19446 9.20348 1.26458 8.85291ZM5.75001 9.75L8.00001 10.6875L10.25 9.75H5.75001ZM2.75002 12C2.75002 11.5858 2.41423 11.25 2.00002 11.25C1.5858 11.25 1.25002 11.5858 1.25002 12V13C1.25002 13.9665 2.03352 14.75 3.00002 14.75H13C13.9665 14.75 14.75 13.9665 14.75 13V12C14.75 11.5858 14.4142 11.25 14 11.25C13.5858 11.25 13.25 11.5858 13.25 12V13C13.25 13.1381 13.1381 13.25 13 13.25H3.00002C2.86195 13.25 2.75002 13.1381 2.75002 13V12Z" fill="currentColor"/>
</svg>
