<svg width="16" height="16" viewBox="0 0 16 16" fill="none" xmlns="http://www.w3.org/2000/svg">
<path fill-rule="evenodd" clip-rule="evenodd" d="M13.6411 2.35887C12.1626 0.880374 9.76551 0.880377 8.28701 2.35887L5.32294 5.32294L2.35887 8.28701C0.880375 9.76551 0.880375 12.1626 2.35887 13.6411C3.83737 15.1196 6.23449 15.1196 7.71299 13.6411L10.6771 10.6771L13.6411 7.71299C15.1196 6.23449 15.1196 3.83737 13.6411 2.35887ZM9.34767 3.41954C10.2404 2.52682 11.6878 2.52682 12.5805 3.41953C13.4732 4.31225 13.4732 5.75962 12.5805 6.65233L10.1467 9.08607L6.91393 5.85327L9.34767 3.41954ZM5.85327 6.91393L9.08607 10.1467L6.65233 12.5805C5.75962 13.4732 4.31225 13.4732 3.41953 12.5805C2.52682 11.6878 2.52682 10.2404 3.41953 9.34767L5.85327 6.91393ZM11.0303 5.03033C11.3232 4.73744 11.3232 4.26256 11.0303 3.96967C10.7374 3.67678 10.2626 3.67678 9.96967 3.96967L8.96967 4.96967C8.67678 5.26256 8.67678 5.73744 8.96967 6.03033C9.26256 6.32322 9.73744 6.32322 10.0303 6.03033L11.0303 5.03033Z" fill="currentColor"/>
</svg>
