<svg width="16" height="16" viewBox="0 0 16 16" fill="none" xmlns="http://www.w3.org/2000/svg">
<path fill-rule="evenodd" clip-rule="evenodd" d="M6.00001 0.583313C6.41422 0.583313 6.75001 0.919099 6.75001 1.33331V2.58331H9.25001V1.33331C9.25001 0.919099 9.5858 0.583313 10 0.583313C10.4142 0.583313 10.75 0.919099 10.75 1.33331V2.58331H12.6667C13.0809 2.58331 13.4167 2.9191 13.4167 3.33331V5.24998H14.6667C15.0809 5.24998 15.4167 5.58577 15.4167 5.99998C15.4167 6.41419 15.0809 6.74998 14.6667 6.74998H13.4167V9.24998H14.6667C15.0809 9.24998 15.4167 9.58577 15.4167 9.99998C15.4167 10.4142 15.0809 10.75 14.6667 10.75H13.4167V12.6666C13.4167 13.0809 13.0809 13.4166 12.6667 13.4166H10.75V14.6666C10.75 15.0809 10.4142 15.4166 10 15.4166C9.5858 15.4166 9.25001 15.0809 9.25001 14.6666V13.4166H6.75001V14.6666C6.75001 15.0809 6.41422 15.4166 6.00001 15.4166C5.5858 15.4166 5.25001 15.0809 5.25001 14.6666V13.4166H3.33334C2.91913 13.4166 2.58334 13.0809 2.58334 12.6666V10.75H1.33334C0.91913 10.75 0.583344 10.4142 0.583344 9.99998C0.583344 9.58577 0.91913 9.24998 1.33334 9.24998H2.58334L2.58334 6.74998H1.33334C0.91913 6.74998 0.583344 6.41419 0.583344 5.99998C0.583344 5.58577 0.91913 5.24998 1.33334 5.24998H2.58334V3.33331C2.58334 2.9191 2.91913 2.58331 3.33334 2.58331H5.25001V1.33331C5.25001 0.919099 5.5858 0.583313 6.00001 0.583313ZM4.08334 5.99998L4.08334 9.99998L4.08334 11.9166L6.00001 11.9166H10L11.9167 11.9166L11.9167 9.99998V5.99998L11.9167 4.08331H10H6.00001H4.08334V5.99998Z" fill="currentColor"/>
</svg>
