<svg width="16" height="16" viewBox="0 0 16 16" fill="none" xmlns="http://www.w3.org/2000/svg">
<path fill-rule="evenodd" clip-rule="evenodd" d="M6.75 2C6.75 1.58579 6.41421 1.25 6 1.25H3C2.58579 1.25 2.25 1.58579 2.25 2C2.25 2.41421 2.58579 2.75 3 2.75H4.18934L1.46967 5.46967C1.17678 5.76256 1.17678 6.23744 1.46967 6.53033C1.76256 6.82322 2.23744 6.82322 2.53033 6.53033L5.25 3.81066V5C5.25 5.41421 5.58579 5.75 6 5.75C6.41421 5.75 6.75 5.41421 6.75 5V2ZM14.75 2C14.75 1.80109 14.671 1.61032 14.5303 1.46967C14.3897 1.32902 14.1989 1.25 14 1.25H9C8.80109 1.25 8.61032 1.32902 8.46967 1.46967C8.32902 1.61032 8.25 1.80109 8.25 2L8.25 7C8.25 7.41421 8.58579 7.75 9 7.75H14C14.4142 7.75 14.75 7.41421 14.75 7V2ZM9.75 2.75H13.25V6.25L9.75 6.25L9.75 2.75ZM14.5303 9.46967C14.8232 9.76256 14.8232 10.2374 14.5303 10.5303L11.8107 13.25H13C13.4142 13.25 13.75 13.5858 13.75 14C13.75 14.4142 13.4142 14.75 13 14.75H10C9.58579 14.75 9.25 14.4142 9.25 14V11C9.25 10.5858 9.58579 10.25 10 10.25C10.4142 10.25 10.75 10.5858 10.75 11V12.1893L13.4697 9.46967C13.7626 9.17678 14.2374 9.17678 14.5303 9.46967ZM2.75 11.5C2.75 10.5335 3.5335 9.75 4.5 9.75C5.4665 9.75 6.25 10.5335 6.25 11.5C6.25 12.4665 5.4665 13.25 4.5 13.25C3.5335 13.25 2.75 12.4665 2.75 11.5ZM4.5 8.25C2.70508 8.25 1.25 9.70507 1.25 11.5C1.25 13.2949 2.70508 14.75 4.5 14.75C6.29493 14.75 7.75 13.2949 7.75 11.5C7.75 9.70507 6.29493 8.25 4.5 8.25Z" fill="currentColor"/>
</svg>
