<svg width="16" height="16" viewBox="0 0 16 16" fill="none" xmlns="http://www.w3.org/2000/svg">
<path fill-rule="evenodd" clip-rule="evenodd" d="M13.75 5.75001C14.8546 5.75001 15.75 6.64544 15.75 7.75001C15.75 8.85458 14.8546 9.75001 13.75 9.75001H11.3107L5.53037 15.5303C5.28441 15.7763 4.90163 15.8209 4.60574 15.638C4.30986 15.4551 4.17853 15.0928 4.28853 14.7628L5.95945 9.75001H3.00002C2.77218 9.75001 2.55669 9.64644 2.41437 9.46853L0.414357 6.96853C0.234254 6.7434 0.199139 6.43497 0.32403 6.17512C0.448919 5.91527 0.711703 5.75001 1.00001 5.75001H5.92924L4.29519 1.25631C4.17711 0.931581 4.29617 0.568202 4.58351 0.376304C4.87086 0.184406 5.25212 0.213657 5.50683 0.447142L11.2918 5.75001H13.75ZM9.07192 5.75001L6.75205 3.62345L7.52533 5.75001L9.07192 5.75001ZM14.25 7.75001C14.25 7.47386 14.0261 7.25001 13.75 7.25001H11L7.00001 7.25001L2.56048 7.25001L3.36048 8.25001H7.00002C7.2411 8.25001 7.46748 8.3659 7.60845 8.56147C7.74941 8.75705 7.78776 9.00846 7.71153 9.23718L6.71621 12.2232L10.4697 8.46968C10.6103 8.32902 10.8011 8.25001 11 8.25001L13.75 8.25001C14.0261 8.25001 14.25 8.02615 14.25 7.75001Z" fill="currentColor"/>
</svg>
