<svg width="16" height="16" viewBox="0 0 16 16" fill="none" xmlns="http://www.w3.org/2000/svg">
<g clip-path="url(#clip0_3347_4664)">
<path fill-rule="evenodd" clip-rule="evenodd" d="M8.8657 1.04792C9.9296 -0.015975 11.6545 -0.015975 12.7184 1.04792C13.1348 1.46435 13.388 1.98231 13.4785 2.52146C14.0177 2.61195 14.5356 2.86515 14.9521 3.28158C16.016 4.34548 16.016 6.0704 14.9521 7.1343C14.0721 8.01426 12.7399 8.1664 11.7036 7.59071L7.5907 11.7036C8.16639 12.7399 8.01427 14.0721 7.1343 14.9521C6.0704 16.016 4.34548 16.016 3.28158 14.9521C2.86515 14.5356 2.61196 14.0177 2.52146 13.4785C1.98231 13.3881 1.46435 13.1349 1.04793 12.7184C-0.0159753 11.6545 -0.0159753 9.9296 1.04793 8.8657C1.92789 7.98574 3.26006 7.8336 4.29638 8.4093L8.40929 4.2964C7.83359 3.26007 7.98573 1.92789 8.8657 1.04792ZM11.6578 2.10859C11.1796 1.63047 10.4045 1.63047 9.92636 2.10859C9.44824 2.5867 9.44824 3.36187 9.92636 3.83999C10.067 3.98064 10.146 4.17141 10.146 4.37032C10.146 4.56923 10.067 4.76 9.92636 4.90065L4.90064 9.92636C4.60774 10.2193 4.13287 10.2193 3.83998 9.92636C3.36186 9.44825 2.5867 9.44825 2.10859 9.92636C1.63047 10.4045 1.63047 11.1797 2.10859 11.6578C2.39143 11.9406 2.77766 12.0567 3.14792 12.0041C3.38142 11.9709 3.61692 12.0495 3.78369 12.2163C3.95046 12.3831 4.02907 12.6186 3.99591 12.8521C3.94334 13.2223 4.05939 13.6086 4.34224 13.8914C4.82035 14.3695 5.59553 14.3695 6.07365 13.8914C6.55175 13.4133 6.55175 12.6381 6.07363 12.16C5.93298 12.0194 5.85396 11.8286 5.85396 11.6297C5.85396 11.4308 5.93298 11.24 6.07363 11.0994L11.0993 6.07364C11.3922 5.78075 11.8671 5.78075 12.16 6.07364C12.6381 6.55175 13.4133 6.55175 13.8914 6.07364C14.3695 5.59552 14.3695 4.82035 13.8914 4.34224C13.6086 4.05939 13.2223 3.94333 12.8521 3.99591C12.6186 4.02906 12.3831 3.95045 12.2163 3.78369C12.0495 3.61692 11.9709 3.38142 12.0041 3.14792C12.0567 2.77766 11.9406 2.39143 11.6578 2.10859Z" fill="currentColor"/>
</g>
<defs>
<clipPath id="clip0_3347_4664">
<rect width="16" height="16" fill="white"/>
</clipPath>
</defs>
</svg>
