<svg width="16" height="16" viewBox="0 0 16 16" fill="none" xmlns="http://www.w3.org/2000/svg">
<path fill-rule="evenodd" clip-rule="evenodd" d="M5.99998 2.75C4.8505 2.75 3.83842 3.50728 3.51408 4.61005L2.54554 7.90311C3.08948 7.49308 3.76634 7.24999 4.49999 7.24999C6.03679 7.24999 7.32444 8.31665 7.66303 9.75H7.99999H8.33696C8.67554 8.31665 9.9632 7.24998 11.5 7.24998C12.2336 7.24998 12.9105 7.49307 13.4544 7.90308L12.4859 4.61004C12.1615 3.50728 11.1495 2.75 9.99998 2.75C9.58577 2.75 9.24998 2.41421 9.24998 2C9.24998 1.58579 9.58577 1.25 9.99998 1.25C11.8149 1.25 13.4128 2.44565 13.9249 4.18679L15.7145 10.2713C15.7274 10.3118 15.737 10.3537 15.7429 10.3968C15.7548 10.4814 15.7518 10.5656 15.7357 10.6463C15.7133 10.76 15.6651 10.8645 15.5975 10.9534C15.5335 11.0379 15.4512 11.1094 15.3544 11.1611C15.2786 11.2019 15.195 11.2299 15.1064 11.2425C15.0649 11.2485 15.0235 11.2509 14.9826 11.25H14.7405C14.6129 12.9281 13.2108 14.25 11.5 14.25C9.78918 14.25 8.38712 12.9281 8.25946 11.25H7.99999H7.74052C7.61286 12.9281 6.2108 14.25 4.49999 14.25C2.78919 14.25 1.38712 12.9281 1.25946 11.25H1.01737C0.976106 11.2509 0.934377 11.2485 0.892555 11.2424C0.805933 11.2299 0.724089 11.2027 0.64967 11.1633C0.548036 11.1098 0.46228 11.0346 0.396567 10.9455C0.28147 10.7893 0.227859 10.5903 0.258104 10.3893C0.264051 10.3491 0.273189 10.3099 0.285251 10.2721L2.07503 4.18681C2.58712 2.44566 4.18509 1.25 5.99998 1.25C6.4142 1.25 6.74998 1.58579 6.74998 2C6.74998 2.41421 6.4142 2.75 5.99998 2.75ZM11.5 8.74998C10.5335 8.74998 9.74999 9.5335 9.74999 10.5V11C9.74999 11.9665 10.5335 12.75 11.5 12.75C12.4665 12.75 13.25 11.9665 13.25 11V10.5C13.25 9.5335 12.4665 8.74998 11.5 8.74998ZM4.49999 8.74999C3.5335 8.74999 2.74999 9.5335 2.74999 10.5V11C2.74999 11.9665 3.53349 12.75 4.49999 12.75C5.46649 12.75 6.24999 11.9665 6.24999 11V10.5C6.24999 9.5335 5.46648 8.74999 4.49999 8.74999Z" fill="currentColor"/>
</svg>
