<svg width="16" height="16" viewBox="0 0 16 16" fill="none" xmlns="http://www.w3.org/2000/svg">
<path fill-rule="evenodd" clip-rule="evenodd" d="M1.53033 1.96967C1.23744 1.67678 0.762563 1.67678 0.46967 1.96967C0.176777 2.26256 0.176777 2.73744 0.46967 3.03033L1.25 3.81066V10.2927C0.958702 10.3956 0.75 10.6734 0.75 11V13.5C0.75 13.9142 1.08579 14.25 1.5 14.25H14.5C14.9142 14.25 15.25 13.9142 15.25 13.5V11C15.25 10.6495 15.0096 10.3552 14.6847 10.2729C14.4122 8.77124 13.3094 7.52267 11.8022 7.09205L10.706 6.77886L8.89794 6.26226C8.022 6.01199 7.29131 5.40557 6.8839 4.59075L6.17082 3.16459C6.04378 2.9105 5.78408 2.75 5.5 2.75H2.31066L1.53033 1.96967ZM13.75 11.75H10H2.25V12.75H13.75V11.75ZM13.1381 10.25C12.8887 9.43486 12.2417 8.77765 11.3901 8.53434L10.9493 8.4084C10.8651 8.64782 10.7831 8.91356 10.7349 9.14983C10.6745 9.44598 10.6694 9.86443 10.6883 10.25H13.1381ZM9.18678 10.25C9.16967 9.8433 9.17163 9.3087 9.26512 8.85017C9.32491 8.55691 9.41611 8.25504 9.50482 7.99567L8.48586 7.70454C7.20564 7.33877 6.1377 6.45246 5.54226 5.26157L5.03647 4.25H2.75V10.25H9.18678Z" fill="currentColor"/>
</svg>
