<svg width="16" height="16" viewBox="0 0 16 16" fill="none" xmlns="http://www.w3.org/2000/svg">
<path fill-rule="evenodd" clip-rule="evenodd" d="M6.25 4.25H9.75V3C9.75 2.86193 9.63807 2.75 9.5 2.75H6.5C6.36193 2.75 6.25 2.86193 6.25 3V4.25ZM11.25 4.25V3C11.25 2.0335 10.4665 1.25 9.5 1.25H6.5C5.5335 1.25 4.75 2.0335 4.75 3V4.25H2C1.78667 4.25 1.58343 4.34085 1.44116 4.49981C1.29888 4.65877 1.23103 4.8708 1.25459 5.08282L2.25459 14.0828C2.29679 14.4626 2.61784 14.75 3 14.75H13C13.3822 14.75 13.7032 14.4626 13.7454 14.0828L14.7454 5.08282C14.769 4.8708 14.7011 4.65877 14.5589 4.49981C14.4166 4.34085 14.2133 4.25 14 4.25H11.25ZM10.5 5.75H5.5H2.83795L3.67129 13.25H12.3287L13.1621 5.75H10.5Z" fill="currentColor"/>
</svg>
