<svg width="16" height="16" viewBox="0 0 16 16" fill="none" xmlns="http://www.w3.org/2000/svg">
<path fill-rule="evenodd" clip-rule="evenodd" d="M6 1.75C2.82436 1.75 0.25 4.32436 0.25 7.5V11.75C0.25 13.4069 1.59315 14.75 3.25 14.75C4.90685 14.75 6.25 13.4069 6.25 11.75H9.75C9.75 13.4069 11.0931 14.75 12.75 14.75C14.4069 14.75 15.75 13.4069 15.75 11.75V7.5C15.75 4.32436 13.1756 1.75 10 1.75H6ZM1.75 7.5C1.75 5.15279 3.65279 3.25 6 3.25H10C12.3472 3.25 14.25 5.15279 14.25 7.5V11.75C14.25 12.5784 13.5784 13.25 12.75 13.25C11.9216 13.25 11.25 12.5784 11.25 11.75C11.25 10.9216 10.5784 10.25 9.75 10.25H6.25C5.42157 10.25 4.75 10.9216 4.75 11.75C4.75 12.5784 4.07843 13.25 3.25 13.25C2.42157 13.25 1.75 12.5784 1.75 11.75V7.5ZM6.25 5.5C6.25 5.08579 5.91421 4.75 5.5 4.75C5.08579 4.75 4.75 5.08579 4.75 5.5V6.25H4C3.58579 6.25 3.25 6.58579 3.25 7C3.25 7.41421 3.58579 7.75 4 7.75H4.75V8.5C4.75 8.91421 5.08579 9.25 5.5 9.25C5.91421 9.25 6.25 8.91421 6.25 8.5V7.75H7C7.41421 7.75 7.75 7.41421 7.75 7C7.75 6.58579 7.41421 6.25 7 6.25H6.25V5.5ZM11 6C11 6.55228 10.5523 7 10 7C9.44771 7 9 6.55228 9 6C9 5.44772 9.44771 5 10 5C10.5523 5 11 5.44772 11 6ZM12 9.33333C12.5523 9.33333 13 8.88561 13 8.33333C13 7.78104 12.5523 7.33333 12 7.33333C11.4477 7.33333 11 7.78104 11 8.33333C11 8.88561 11.4477 9.33333 12 9.33333Z" fill="currentColor"/>
</svg>
