<svg width="16" height="16" viewBox="0 0 16 16" fill="none" xmlns="http://www.w3.org/2000/svg">
<path fill-rule="evenodd" clip-rule="evenodd" d="M0.749979 2C0.749979 1.58579 1.08577 1.25 1.49998 1.25H14.5C14.9142 1.25 15.25 1.58579 15.25 2V5C15.25 5.41421 14.9142 5.75 14.5 5.75H14.25V14C14.25 14.4142 13.9142 14.75 13.5 14.75H2.49998C2.08577 14.75 1.74998 14.4142 1.74998 14V5.75H1.49998C1.08577 5.75 0.749979 5.41421 0.749979 5V2ZM3.24998 5.75H12.75V13.25H3.24998V5.75ZM13.75 4.25H13.5H2.49998H2.24998V2.75H13.75V4.25ZM9.49998 7.75H6.49998C6.08577 7.75 5.74998 8.08579 5.74998 8.5C5.74998 8.91421 6.08577 9.25 6.49998 9.25H9.49998C9.91419 9.25 10.25 8.91421 10.25 8.5C10.25 8.08579 9.91419 7.75 9.49998 7.75Z" fill="currentColor"/>
</svg>
