<svg width="16" height="16" viewBox="0 0 16 16" fill="none" xmlns="http://www.w3.org/2000/svg">
<path fill-rule="evenodd" clip-rule="evenodd" d="M7.5 0.75C5.98122 0.75 4.75 1.98122 4.75 3.5V7.5C4.75 9.01878 5.98122 10.25 7.5 10.25H8.5C10.0188 10.25 11.25 9.01878 11.25 7.5V3.5C11.25 1.98122 10.0188 0.75 8.5 0.75H7.5ZM6.25 3.5C6.25 2.80964 6.80964 2.25 7.5 2.25H8.5C9.19036 2.25 9.75 2.80964 9.75 3.5V7.5C9.75 8.19036 9.19035 8.75 8.5 8.75H7.5C6.80964 8.75 6.25 8.19036 6.25 7.5V3.5ZM13.7425 8.60607C13.801 8.19602 13.5161 7.81612 13.1061 7.75754C12.696 7.69896 12.3161 7.98389 12.2575 8.39394L12.2482 8.45963C12.0194 10.0607 10.6482 11.25 9.03082 11.25H8.00004H6.96918C5.35181 11.25 3.98057 10.0607 3.75184 8.45962L3.74246 8.39394C3.68388 7.98389 3.30398 7.69896 2.89393 7.75754C2.48388 7.81612 2.19896 8.19602 2.25753 8.60607L2.26692 8.67175C2.60121 11.0118 4.60534 12.75 6.96918 12.75H7.25004V13.75H6C5.58579 13.75 5.25 14.0858 5.25 14.5C5.25 14.9142 5.58579 15.25 6 15.25H8.00004H10C10.4142 15.25 10.75 14.9142 10.75 14.5C10.75 14.0858 10.4142 13.75 10 13.75H8.75004V12.75H9.03082C11.3947 12.75 13.3988 11.0118 13.7331 8.67177L13.7425 8.60607Z" fill="currentColor"/>
</svg>
