<svg width="16" height="16" viewBox="0 0 16 16" fill="none" xmlns="http://www.w3.org/2000/svg">
<path fill-rule="evenodd" clip-rule="evenodd" d="M2.25002 2.5C2.25002 2.08579 2.5858 1.75 3.00002 1.75H13C13.4142 1.75 13.75 2.08579 13.75 2.5C13.75 2.91421 13.4142 3.25 13 3.25L3.00002 3.25C2.5858 3.25 2.25002 2.91422 2.25002 2.5ZM4.00002 4.25C3.5858 4.25 3.25002 4.58579 3.25002 5C3.25002 5.41421 3.5858 5.75 4.00002 5.75H4.25002V11C4.25002 11.4142 4.5858 11.75 5.00002 11.75C5.41423 11.75 5.75002 11.4142 5.75002 11V5.75H7.25002V11C7.25002 11.4142 7.5858 11.75 8.00002 11.75C8.41423 11.75 8.75002 11.4142 8.75002 11V5.75H10.25V11C10.25 11.4142 10.5858 11.75 11 11.75C11.4142 11.75 11.75 11.4142 11.75 11V5.75H12C12.4142 5.75 12.75 5.41421 12.75 5C12.75 4.58579 12.4142 4.25 12 4.25H11H8.00002H5.00002H4.00002ZM3 12.75C2.58579 12.75 2.25 13.0858 2.25 13.5C2.25 13.9142 2.58579 14.25 3 14.25L13 14.25C13.4142 14.25 13.75 13.9142 13.75 13.5C13.75 13.0858 13.4142 12.75 13 12.75L3 12.75Z" fill="currentColor"/>
</svg>
