<svg width="16" height="16" viewBox="0 0 16 16" fill="none" xmlns="http://www.w3.org/2000/svg">
<path fill-rule="evenodd" clip-rule="evenodd" d="M4.5 1.25C2.70507 1.25 1.25 2.70507 1.25 4.5C1.25 5.85197 2.07552 7.01113 3.24999 7.50091L3.25 10.4184C2.65876 10.6993 2.25 11.3019 2.25 12V14C2.25 14.4142 2.58579 14.75 3 14.75H8.5C8.91421 14.75 9.25 14.4142 9.25 14V13C9.25 11.8911 8.59363 10.9354 7.64819 10.5004L6.96058 7.75H8.25V8.66666C8.25 9.08088 8.58579 9.41666 9 9.41666C9.41422 9.41666 9.75 9.08088 9.75 8.66666V7.75H10C11.4345 7.75 12.6125 6.65163 12.7388 5.25H15C15.4142 5.25 15.75 4.91421 15.75 4.5C15.75 4.08579 15.4142 3.75 15 3.75H12.7388C12.6125 2.34838 11.4345 1.25 10 1.25H9H4.5ZM5.41442 7.75L6.03942 10.25H4.75L4.74999 7.75H5.41442ZM4.5 2.75H8.25V6.25H4.5C3.5335 6.25 2.75 5.4665 2.75 4.5C2.75 3.5335 3.5335 2.75 4.5 2.75ZM10 6.25H9.75V2.75H10C10.6904 2.75 11.25 3.30964 11.25 4V5C11.25 5.69036 10.6904 6.25 10 6.25ZM4 11.75C3.86193 11.75 3.75 11.8619 3.75 12V13.25H7.75V13C7.75 12.3096 7.19036 11.75 6.5 11.75H4Z" fill="currentColor"/>
</svg>
