<svg width="16" height="16" viewBox="0 0 16 16" fill="none" xmlns="http://www.w3.org/2000/svg">
<path fill-rule="evenodd" clip-rule="evenodd" d="M8.56483 2.50658L8 3L7.43517 2.50658C7.5776 2.34354 7.78352 2.25 8 2.25C8.21649 2.25 8.42241 2.34354 8.56483 2.50658ZM9.98194 4.8278C9.74996 4.29396 9.49112 3.83369 9.26169 3.47021C9.07509 3.17459 8.9053 2.93883 8.78037 2.77489C8.71784 2.69282 8.66633 2.62846 8.6293 2.58331C8.61078 2.56072 8.59587 2.54292 8.58499 2.53007L8.57173 2.51454L8.56747 2.50961L8.56595 2.50785L8.56534 2.50715L8.56507 2.50685C8.56495 2.50671 8.56483 2.50658 8 3C7.43517 2.50658 7.43506 2.50671 7.43493 2.50685L7.43467 2.50715L7.43406 2.50785L7.43254 2.50961L7.42828 2.51454L7.41502 2.53007C7.40414 2.54292 7.38922 2.56072 7.37071 2.58331C7.33368 2.62846 7.28217 2.69282 7.21964 2.77489C7.09471 2.93883 6.92492 3.17459 6.73832 3.47021C6.50888 3.83369 6.25005 4.29396 6.01807 4.8278C5.65754 4.56111 5.3134 4.35428 5.0208 4.19861C4.75808 4.05884 4.53385 3.95868 4.372 3.89238C4.29098 3.85919 4.2253 3.83436 4.17789 3.81719C4.15418 3.8086 4.13501 3.80192 4.12076 3.79706L4.10308 3.79112L4.09709 3.78915L4.09481 3.78841L4.09386 3.7881L4.09343 3.78796C4.09323 3.7879 4.09303 3.78783 3.86364 4.50189L4.09303 3.78783C3.70616 3.66355 3.29068 3.86997 3.15602 4.25334L3.86364 4.50189C3.15602 4.25334 3.15596 4.25352 3.1559 4.25369L3.15577 4.25407L3.15547 4.25492L3.15474 4.25701L3.15278 4.26271L3.14691 4.28008C3.14216 4.29429 3.1358 4.31371 3.1281 4.33808C3.11271 4.3868 3.09195 4.4554 3.0681 4.54168C3.02045 4.71402 2.96009 4.95821 2.90558 5.25642C2.83415 5.64721 2.77136 6.13837 2.76271 6.68719C2.35613 6.67326 1.99109 6.68817 1.69376 6.712C1.44202 6.73217 1.23567 6.75901 1.08979 6.7813C1.01677 6.79246 0.958665 6.80252 0.917346 6.81009C0.89668 6.81388 0.88019 6.81706 0.86811 6.81944L0.853318 6.82241L0.848451 6.82341L0.846659 6.82378L0.845924 6.82394L0.845597 6.82401C0.845445 6.82404 0.845298 6.82407 1 7.55794L0.845298 6.82407C0.446313 6.90818 0.187623 7.29564 0.262893 7.69639L1 7.55794C0.262893 7.69639 0.262929 7.69658 0.262968 7.69678L0.263057 7.69726L0.263279 7.69843L0.263897 7.70167L0.26584 7.71167L0.272611 7.74539C0.27843 7.77379 0.286898 7.81389 0.298195 7.86437C0.320774 7.96528 0.354747 8.10811 0.40159 8.28247C0.495007 8.63016 0.641012 9.10847 0.85231 9.63231C1.26371 10.6522 1.97018 11.9661 3.12529 12.7473C4.25399 13.5107 5.52644 13.7171 6.47464 13.7462C6.95426 13.7609 7.36707 13.7307 7.66198 13.6966C7.80193 13.6804 7.91636 13.6632 8 13.6492C8.08364 13.6632 8.19808 13.6804 8.33803 13.6966C8.63294 13.7307 9.04575 13.7609 9.52537 13.7462C10.4736 13.7171 11.746 13.5107 12.8747 12.7473C14.0298 11.9661 14.7363 10.6522 15.1477 9.63231C15.359 9.10847 15.505 8.63016 15.5984 8.28247C15.6453 8.10812 15.6792 7.96528 15.7018 7.86437C15.7131 7.81389 15.7216 7.77379 15.7274 7.74539L15.7342 7.71167L15.7361 7.70167L15.7367 7.69843L15.737 7.69726L15.737 7.69678C15.7371 7.69658 15.7371 7.69639 15 7.55794L15.7371 7.69639C15.8124 7.29564 15.5537 6.90818 15.1547 6.82407L15 7.55794C15.1547 6.82407 15.1546 6.82404 15.1544 6.82401L15.1541 6.82394L15.1533 6.82378L15.1516 6.82341L15.1467 6.82241L15.1319 6.81944C15.1198 6.81706 15.1033 6.81388 15.0827 6.81009C15.0413 6.80252 14.9832 6.79246 14.9102 6.7813C14.7643 6.75901 14.558 6.73217 14.3062 6.712C14.0089 6.68817 13.6439 6.67326 13.2373 6.68719C13.2287 6.13837 13.1659 5.64721 13.0944 5.25642C13.0399 4.95821 12.9796 4.71402 12.9319 4.54168C12.9081 4.4554 12.8873 4.3868 12.8719 4.33808C12.8642 4.31371 12.8578 4.29429 12.8531 4.28008L12.8472 4.26271L12.8453 4.25701L12.8445 4.25492L12.8442 4.25407L12.8441 4.25369C12.844 4.25352 12.844 4.25334 12.1364 4.50189L12.844 4.25334C12.7093 3.86997 12.2938 3.66355 11.907 3.78783L12.1364 4.50189C11.907 3.78783 11.9068 3.7879 11.9066 3.78796L11.9061 3.7881L11.9052 3.78841L11.9029 3.78915L11.8969 3.79112L11.8793 3.79706C11.865 3.80192 11.8458 3.8086 11.8221 3.81719C11.7747 3.83436 11.709 3.85919 11.628 3.89238C11.4662 3.95869 11.2419 4.05884 10.9792 4.19861C10.6866 4.35428 10.3425 4.56111 9.98194 4.8278ZM10.4837 6.34732C10.592 6.82883 10.6591 7.34371 10.6591 7.88115C10.6591 8.86351 10.4351 9.78658 10.1397 10.5786C10.5336 10.1881 10.8904 9.732 11.1435 9.21081C11.4625 8.55411 11.6488 8.0268 11.7083 7.43112C11.7795 6.71793 11.713 6.05244 11.6241 5.555C11.2897 5.73746 10.8855 5.99666 10.4837 6.34732ZM8 11.5634C8.09328 11.4086 8.19148 11.2358 8.28967 11.0477C8.73805 10.1887 9.15909 9.06086 9.15909 7.88115C9.15909 7.33609 9.06922 6.80701 8.92649 6.3112C8.69197 5.49656 8.32013 4.79036 8 4.28159C7.67988 4.79036 7.30804 5.49656 7.07352 6.3112C6.93079 6.807 6.84091 7.33609 6.84091 7.88115C6.84091 9.06086 7.26195 10.1887 7.71034 11.0477C7.80853 11.2358 7.90673 11.4086 8 11.5634ZM5.86032 10.5786C5.56491 9.78658 5.34091 8.86351 5.34091 7.88115C5.34091 7.34371 5.40796 6.82883 5.51634 6.34732C5.1145 5.99665 4.71027 5.73746 4.37592 5.555C4.28703 6.05244 4.22049 6.71793 4.29174 7.43112C4.35125 8.0268 4.53753 8.55411 4.85647 9.21081C5.10959 9.732 5.46644 10.1881 5.86032 10.5786ZM5.28002 12.0794C4.62105 11.521 3.95491 10.788 3.50718 9.86611C3.23964 9.31525 3.02349 8.78096 2.89627 8.19492C2.54009 8.17386 2.21227 8.18058 1.93723 8.19827C2.01438 8.45397 2.11537 8.75377 2.24341 9.07119C2.62148 10.0085 3.18774 10.9787 3.96562 11.5048C4.37808 11.7837 4.83013 11.9653 5.28002 12.0794ZM10.72 12.0794C11.1699 11.9653 11.6219 11.7837 12.0344 11.5048C12.8123 10.9787 13.3785 10.0085 13.7566 9.07119C13.8846 8.75377 13.9856 8.45397 14.0628 8.19827C13.7877 8.18058 13.4599 8.17386 13.1037 8.19492C12.9765 8.78096 12.7604 9.31525 12.4928 9.86611C12.0451 10.788 11.379 11.521 10.72 12.0794ZM1.15325 8.29211C1.15304 8.29216 1.1531 8.29215 1.15344 8.29208L1.15325 8.29211Z" fill="currentColor"/>
</svg>
