<svg width="16" height="16" viewBox="0 0 16 16" fill="none" xmlns="http://www.w3.org/2000/svg">
<path fill-rule="evenodd" clip-rule="evenodd" d="M2.99999 1.75C2.63536 1.75 2.32356 2.01225 2.26108 2.37149L0.261067 13.8715C0.223134 14.0896 0.283503 14.3133 0.426007 14.4828C0.56851 14.6522 0.778588 14.75 0.999975 14.75H9.99998L15 14.75C15.2214 14.75 15.4315 14.6522 15.574 14.4828C15.7165 14.3133 15.7768 14.0896 15.7389 13.8715L13.7389 2.37149C13.6764 2.01225 13.3646 1.75 13 1.75H2.99999ZM1.89167 13.25L3.63081 3.25H12.0292L9.42053 13.25H1.89167ZM10.9707 13.25L12.8533 6.03362L14.1083 13.25L10.9707 13.25ZM8.24997 5.50004C8.24996 5.08583 8.58574 4.75004 8.99995 4.75003C9.41417 4.75002 9.74996 5.0858 9.74997 5.50001L9.74998 5.99998C9.75 6.96649 8.96649 7.75001 7.99998 7.75001L5.99998 7.75001C5.03349 7.75001 4.25 6.96653 4.24998 6.00005L4.24997 5.50004C4.24996 5.08583 4.58574 4.75004 4.99995 4.75003C5.41417 4.75002 5.74996 5.0858 5.74997 5.50001L5.74998 6.00002C5.74998 6.13809 5.86191 6.25001 5.99998 6.25001L7.99998 6.25001C8.13805 6.25001 8.24998 6.13808 8.24998 6.00001L8.24997 5.50004Z" fill="currentColor"/>
</svg>
