<svg width="16" height="16" viewBox="0 0 16 16" fill="none" xmlns="http://www.w3.org/2000/svg">
<path fill-rule="evenodd" clip-rule="evenodd" d="M7.25001 3.29847V2C7.25001 1.58579 7.5858 1.25 8.00001 1.25C8.41422 1.25 8.75001 1.58579 8.75001 2V3.29847C9.77681 3.43223 10.7185 3.83687 11.501 4.43835L12.4697 3.46968C12.7625 3.17678 13.2374 3.17677 13.5303 3.46966C13.8232 3.76255 13.8232 4.23742 13.5303 4.53032L12.5617 5.49902C13.1631 6.28153 13.5678 7.22321 13.7015 8.25H15C15.4142 8.25 15.75 8.58579 15.75 9C15.75 9.41421 15.4142 9.75 15 9.75H13H3H1C0.585786 9.75 0.25 9.41421 0.25 9C0.25 8.58579 0.585786 8.25 1 8.25H2.29847C2.43222 7.2232 2.83686 6.28152 3.43833 5.49899L2.46967 4.53033C2.17678 4.23744 2.17678 3.76256 2.46967 3.46967C2.76256 3.17678 3.23744 3.17678 3.53033 3.46967L4.49899 4.43833C5.28152 3.83686 6.22321 3.43222 7.25001 3.29847ZM8 4.75C10.0913 4.75 11.8298 6.26049 12.184 8.25H3.81597C4.1702 6.26049 5.9087 4.75 8 4.75ZM3.89956 13.8252C3.62946 14.1362 3.1585 14.1713 2.84526 13.9028C2.53076 13.6332 2.49433 13.1598 2.76389 12.8453L3.33334 13.3334C2.76389 12.8453 2.76418 12.8449 2.76447 12.8446L2.76509 12.8439L2.76648 12.8423L2.76984 12.8384L2.77889 12.8281C2.78594 12.8202 2.79505 12.8101 2.80618 12.7981C2.82841 12.7741 2.85881 12.7423 2.89706 12.7044C2.97336 12.629 3.08203 12.5285 3.22061 12.4183C3.49535 12.1997 3.90179 11.9314 4.41891 11.7504C5.50832 11.3691 6.95808 11.4251 8.4939 12.7689C8.69592 12.9457 8.89006 13.0891 9.07596 13.2043L6.92405 13.4624C6.06934 12.9329 5.38857 13.0003 4.91445 13.1662C4.59823 13.2769 4.338 13.4461 4.15441 13.5922C4.06382 13.6642 3.99541 13.7278 3.95192 13.7709C3.93027 13.7923 3.9151 13.8083 3.90673 13.8173L3.89956 13.8252ZM6.9252 13.4631C7.11076 13.5782 7.30451 13.7214 7.50612 13.8978C9.04194 15.2417 10.4917 15.2976 11.5811 14.9163C12.0982 14.7353 12.5047 14.467 12.7794 14.2484C12.918 14.1382 13.0267 14.0378 13.103 13.9623C13.1412 13.9244 13.1716 13.8926 13.1938 13.8686C13.205 13.8566 13.2141 13.8465 13.2211 13.8386L13.2302 13.8283L13.2335 13.8244L13.2349 13.8228L13.2356 13.8221C13.2358 13.8218 13.2361 13.8214 12.6696 13.3359L13.2361 13.8214C13.5057 13.5069 13.4693 13.0335 13.1548 12.7639C12.8415 12.4954 12.3706 12.5305 12.1005 12.8415L9.07596 13.2043L9.07794 13.2055L6.9252 13.4631ZM12.0981 12.8441L9.07794 13.2055C9.93172 13.7337 10.6118 13.6663 11.0856 13.5005C11.4018 13.3898 11.662 13.2206 11.8456 13.0746C11.9362 13.0025 12.0046 12.9389 12.0481 12.8959C12.0697 12.8744 12.0849 12.8584 12.0933 12.8494L12.0981 12.8441ZM12.0981 12.8441L12.0982 12.8441L12.0991 12.8431L12.1003 12.8418L12.0981 12.8441ZM6.9252 13.4631L6.92405 13.4624L3.89956 13.8252L6.9252 13.4631Z" fill="currentColor"/>
</svg>
