<svg width="16" height="16" viewBox="0 0 16 16" fill="none" xmlns="http://www.w3.org/2000/svg">
<path fill-rule="evenodd" clip-rule="evenodd" d="M4.66666 1.25C4.25244 1.25 3.91666 1.58579 3.91666 2C3.91666 2.41421 4.25244 2.75 4.66666 2.75H7.24999V3.75H2.99997C2.74004 3.75 2.49864 3.88459 2.36198 4.1057C2.22533 4.32681 2.2129 4.60292 2.32915 4.83541L3.24997 6.67705V13.75H2.99997C2.58576 13.75 2.24997 14.0858 2.24997 14.5C2.24997 14.9142 2.58576 15.25 2.99997 15.25H3.99997H12L13 15.25C13.4142 15.25 13.75 14.9142 13.75 14.5C13.75 14.0858 13.4142 13.75 13 13.75H12.75V11.75H14C14.6903 11.75 15.25 11.1904 15.25 10.5V7.5C15.25 6.80964 14.6903 6.25 14 6.25H12.75V4.5C12.75 4.08579 12.4142 3.75 12 3.75H8.74999V2.75H11.3333C11.7475 2.75 12.0833 2.41421 12.0833 2C12.0833 1.58579 11.7475 1.25 11.3333 1.25H7.99999H4.66666ZM7.24999 5.25H4.2135L4.67079 6.16459C4.72286 6.26873 4.74997 6.38357 4.74997 6.5V13.75H11.25V11.0012L11.25 11L11.25 10.9988V7.00121L11.25 7L11.25 6.99879V5.25H8.74999V10.25H9.49999C9.9142 10.25 10.25 10.5858 10.25 11C10.25 11.4142 9.9142 11.75 9.49999 11.75H8.00269C8.00179 11.75 8.00089 11.75 7.99999 11.75C7.99909 11.75 7.99819 11.75 7.99729 11.75H6.49999C6.08578 11.75 5.74999 11.4142 5.74999 11C5.74999 10.5858 6.08578 10.25 6.49999 10.25H7.24999V5.25ZM12.75 7.75V10.25H13.75V7.75H12.75Z" fill="currentColor"/>
</svg>
