<svg width="16" height="16" viewBox="0 0 16 16" fill="none" xmlns="http://www.w3.org/2000/svg">
<path fill-rule="evenodd" clip-rule="evenodd" d="M4.44324 3.98043L5.78256 3.05965C6.18871 3.57808 6.91904 4.25001 8 4.25001C9.0797 4.25001 9.80958 3.57963 10.216 3.06153L11.5445 3.98083C12.6354 4.82694 13.25 6.57991 13.25 8.00001V14C13.25 14.4142 13.5858 14.75 14 14.75C14.4142 14.75 14.75 14.4142 14.75 14V8.00001C14.75 6.28844 14.0364 4.00003 12.4431 2.77961C12.4335 2.77226 12.4237 2.76515 12.4138 2.75828L10.6749 1.55499C10.1535 1.19415 9.49662 1.41256 9.21563 1.87563C8.96935 2.2815 8.54464 2.75001 8 2.75001C7.45498 2.75001 7.03009 2.28083 6.78399 1.87501C6.50361 1.41266 5.84868 1.1939 5.3272 1.55241L3.5751 2.75698C3.56356 2.76492 3.55223 2.77318 3.54115 2.78175C1.96331 4.00211 1.25 6.28876 1.25 8.00001V14C1.25 14.4142 1.58579 14.75 2 14.75C2.41421 14.75 2.75 14.4142 2.75 14V8.00001C2.75 6.58057 3.36411 4.82728 4.44324 3.98043ZM8.25 6.5C8.25 6.08578 8.58579 5.75 9 5.75H10.5C10.9142 5.75 11.25 6.08578 11.25 6.5C11.25 6.91421 10.9142 7.25 10.5 7.25H9C8.58579 7.25 8.25 6.91421 8.25 6.5ZM4.5 8.25C4.91421 8.25 5.25 8.58578 5.25 9V13.25H10.75V9C10.75 8.58578 11.0858 8.25 11.5 8.25C11.9142 8.25 12.25 8.58578 12.25 9V14C12.25 14.4142 11.9142 14.75 11.5 14.75H4.5C4.08579 14.75 3.75 14.4142 3.75 14V9C3.75 8.58578 4.08579 8.25 4.5 8.25Z" fill="currentColor"/>
</svg>
