<svg width="16" height="16" viewBox="0 0 16 16" fill="none" xmlns="http://www.w3.org/2000/svg">
<path fill-rule="evenodd" clip-rule="evenodd" d="M10.3846 1.85611C10.6112 1.99148 10.75 2.23602 10.75 2.5V13.5C10.75 13.764 10.6112 14.0085 10.3846 14.1439C10.158 14.2792 9.87685 14.2855 9.64442 14.1603L3.14442 10.6603C2.90149 10.5295 2.75 10.2759 2.75 9.99996V5.99995C2.75 5.72404 2.90149 5.47041 3.14443 5.3396L9.64443 1.83964C9.87686 1.71449 10.158 1.72075 10.3846 1.85611ZM4.25 6.44793V9.55199L9.25 12.2443V3.75566L4.25 6.44793ZM12.25 7.99998C12.25 7.58577 12.5858 7.24998 13 7.24998H15C15.4142 7.24998 15.75 7.58577 15.75 7.99998C15.75 8.4142 15.4142 8.74998 15 8.74998H13C12.5858 8.74998 12.25 8.4142 12.25 7.99998ZM14.416 5.12404C14.7607 4.89427 14.8538 4.42862 14.624 4.08397C14.3943 3.73933 13.9286 3.6462 13.584 3.87596L12.084 4.87596C11.7393 5.10573 11.6462 5.57138 11.876 5.91602C12.1057 6.26067 12.5714 6.3538 12.916 6.12404L14.416 5.12404ZM11.876 10.084C12.1057 9.73933 12.5714 9.6462 12.916 9.87596L14.416 10.876C14.7607 11.1057 14.8538 11.5714 14.624 11.916C14.3943 12.2607 13.9286 12.3538 13.584 12.124L12.084 11.124C11.7393 10.8943 11.6462 10.4286 11.876 10.084ZM1.75 5.99998C1.75 5.58577 1.41421 5.24998 1 5.24998C0.585786 5.24998 0.25 5.58577 0.25 5.99998V9.99999C0.25 10.4142 0.585787 10.75 1 10.75C1.41421 10.75 1.75 10.4142 1.75 9.99998L1.75 5.99998Z" fill="currentColor"/>
</svg>
