<svg width="16" height="16" viewBox="0 0 16 16" fill="none" xmlns="http://www.w3.org/2000/svg">
<path fill-rule="evenodd" clip-rule="evenodd" d="M5.1819 2.2724C4.95785 2.21639 4.72048 2.26672 4.53844 2.40885C4.3564 2.55098 4.25 2.76906 4.25 3.00001V6.53648L0.66459 8.32919C0.410502 8.45623 0.25 8.71593 0.25 9.00001V13C0.25 13.4142 0.585786 13.75 1 13.75H5H8.49658C8.49772 13.75 8.49886 13.75 8.5 13.75C8.50114 13.75 8.50228 13.75 8.50342 13.75H11.4966C11.4977 13.75 11.4989 13.75 11.5 13.75C11.5011 13.75 11.5023 13.75 11.5034 13.75H15C15.4142 13.75 15.75 13.4142 15.75 13V5.50001C15.75 5.15586 15.5158 4.85587 15.1819 4.7724L5.1819 2.2724ZM12.25 12.25H14.25V6.08559L5.75 3.96059V7.00001V12.25H7.75V9.00001C7.75 8.5858 8.08579 8.25001 8.5 8.25001H11.5C11.9142 8.25001 12.25 8.5858 12.25 9.00001V12.25ZM9.25 12.25H10.75V9.75001H9.25V12.25ZM1.75 9.46353L4.25 8.21353V12.25H1.75V9.46353Z" fill="currentColor"/>
</svg>
