<svg width="16" height="16" viewBox="0 0 16 16" fill="none" xmlns="http://www.w3.org/2000/svg">
<path fill-rule="evenodd" clip-rule="evenodd" d="M8 1.25C4.27208 1.25 1.25 4.27208 1.25 8C1.25 8.77401 1.38028 9.51759 1.6201 10.21C1.26337 10.4769 0.978468 10.7163 0.769773 10.9244C0.628886 11.0648 0.490955 11.2219 0.39473 11.388C0.346687 11.4709 0.288615 11.5905 0.261604 11.7365C0.233434 11.8889 0.233113 12.112 0.362875 12.3319C0.528592 12.6128 0.795285 12.7007 0.931788 12.7287C1.07493 12.758 1.20873 12.7515 1.30208 12.7419C1.49489 12.7219 1.71232 12.6653 1.92661 12.5977C2.17055 12.5208 2.45845 12.4138 2.78161 12.2818C4.01956 13.7888 5.89753 14.75 8 14.75C11.7279 14.75 14.75 11.7279 14.75 8C14.75 7.20786 14.6136 6.4476 14.3629 5.74142C14.6457 5.53065 14.888 5.33745 15.0807 5.16692C15.2478 5.01909 15.408 4.86184 15.5239 4.70609C15.5799 4.63087 15.6552 4.51712 15.7027 4.37536C15.7491 4.23703 15.8044 3.95687 15.6361 3.67177C15.4191 3.30397 15.0328 3.24291 14.8876 3.2285C14.6934 3.20923 14.4855 3.23107 14.2858 3.26919C13.9755 3.32842 13.5934 3.4453 13.1412 3.6259C11.9031 2.17209 10.0592 1.25 8 1.25ZM12.4681 5.24198C11.5429 3.7464 9.88782 2.75 8 2.75C5.10051 2.75 2.75 5.10051 2.75 8C2.75 8.86556 2.95947 9.6822 3.33047 10.402C4.59744 9.81323 6.23443 8.96658 7.99754 7.97062C9.75312 6.97893 11.315 6.01925 12.4681 5.24198ZM4.21881 11.6421C5.1738 12.6334 6.51489 13.25 8 13.25C10.8995 13.25 13.25 10.8995 13.25 8C13.25 7.53045 13.1884 7.07529 13.0727 6.64218C11.9067 7.41672 10.4005 8.33601 8.7353 9.27666C7.06301 10.2213 5.49009 11.0407 4.21881 11.6421ZM14.3237 3.80603C14.3238 3.80601 14.323 3.80731 14.321 3.80994L14.3237 3.80603ZM1.14049 11.2504L1.14504 11.2501C1.14192 11.2504 1.14044 11.2504 1.14049 11.2504Z" fill="currentColor"/>
</svg>
