<svg width="16" height="16" viewBox="0 0 16 16" fill="none" xmlns="http://www.w3.org/2000/svg">
<path fill-rule="evenodd" clip-rule="evenodd" d="M2.49826 2.44254C2.80614 2.16544 3.28036 2.1904 3.55745 2.49828L7.99998 7.43443L12.4425 2.49829C12.7196 2.1904 13.1938 2.16545 13.5017 2.44254C13.8096 2.71963 13.8345 3.19385 13.5574 3.50173L9.009 8.55556L12.2932 12.2047C12.4545 12.1825 12.658 12.1535 12.8878 12.1187C13.4646 12.0315 14.1957 11.9094 14.8384 11.7676C15.2429 11.6784 15.6431 11.934 15.7324 12.3384C15.8216 12.7429 15.566 13.1432 15.1615 13.2324C14.4709 13.3847 13.702 13.5126 13.1121 13.6019C12.8158 13.6467 12.5618 13.6822 12.3815 13.7065C12.2914 13.7187 12.2195 13.7281 12.17 13.7344L12.1128 13.7417L12.0977 13.7436L12.0936 13.7441L12.0925 13.7443L12.0921 13.7443L12.092 13.7443L12 13L12.0919 13.7443C11.8488 13.7744 11.6064 13.6838 11.4425 13.5017L7.99998 9.6767L4.55745 13.5017C4.39358 13.6838 4.15113 13.7744 3.90803 13.7444L3.99998 13L3.90795 13.7443L3.90784 13.7443L3.9075 13.7443L3.90637 13.7441L3.9023 13.7436L3.88714 13.7417L3.82997 13.7344C3.78041 13.7281 3.70859 13.7187 3.61842 13.7065C3.43817 13.6822 3.18414 13.6467 2.88781 13.6019C2.29794 13.5126 1.52902 13.3847 0.838419 13.2324C0.43393 13.1432 0.178359 12.7429 0.267583 12.3385C0.356809 11.934 0.757044 11.6784 1.16153 11.7676C1.80427 11.9094 2.53534 12.0315 3.11215 12.1187C3.34197 12.1535 3.54549 12.1825 3.70676 12.2047L6.99096 8.55556L2.44251 3.50173C2.16542 3.19385 2.19037 2.71963 2.49826 2.44254ZM6.99999 12.75C6.58577 12.75 6.24999 13.0858 6.24999 13.5C6.24999 13.9142 6.58577 14.25 6.99999 14.25H8.99999C9.4142 14.25 9.74999 13.9142 9.74999 13.5C9.74999 13.0858 9.4142 12.75 8.99999 12.75H6.99999Z" fill="currentColor"/>
</svg>
