<svg width="16" height="16" viewBox="0 0 16 16" fill="none" xmlns="http://www.w3.org/2000/svg">
<path fill-rule="evenodd" clip-rule="evenodd" d="M4.5 1.75C4.91421 1.75 5.25 2.08579 5.25 2.5V7.24999H10.75V2.5C10.75 2.08579 11.0858 1.75 11.5 1.75C11.9142 1.75 12.25 2.08579 12.25 2.5L12.25 13.5C12.25 13.9142 11.9142 14.25 11.5 14.25C11.0858 14.25 10.75 13.9142 10.75 13.5V8.74999H5.25V13.5C5.25 13.9142 4.91421 14.25 4.5 14.25C4.08579 14.25 3.75 13.9142 3.75 13.5L3.75 2.5C3.75 2.08579 4.08579 1.75 4.5 1.75ZM2 3.25C2.41421 3.25 2.75 3.58578 2.75 4V12C2.75 12.4142 2.41421 12.75 2 12.75C1.58579 12.75 1.25 12.4142 1.25 12V8.74999H1C0.585786 8.74999 0.25 8.41421 0.25 7.99999C0.25 7.58578 0.585786 7.24999 1 7.24999H1.25V4C1.25 3.58578 1.58579 3.25 2 3.25ZM14.75 4V7.24999H15C15.4142 7.24999 15.75 7.58578 15.75 7.99999C15.75 8.41421 15.4142 8.74999 15 8.74999H14.75V12C14.75 12.4142 14.4142 12.75 14 12.75C13.5858 12.75 13.25 12.4142 13.25 12V7.99999V4C13.25 3.58578 13.5858 3.25 14 3.25C14.4142 3.25 14.75 3.58578 14.75 4Z" fill="currentColor"/>
</svg>
