<svg width="16" height="16" viewBox="0 0 16 16" fill="none" xmlns="http://www.w3.org/2000/svg">
<path fill-rule="evenodd" clip-rule="evenodd" d="M3.64844 4.7102C3.98235 4.13567 4.60592 3.75 5.32079 3.75C6.38959 3.75 7.25 4.61144 7.25 5.66667V5.6836C6.72528 5.40343 6.11336 5.25 5.5 5.25C3.8699 5.25 2.25 6.33369 2.25 8C2.25 8.41421 2.58578 8.75 3 8.75C3.41421 8.75 3.75 8.41421 3.75 8C3.75 7.45717 4.36868 6.75 5.5 6.75C6.63132 6.75 7.25 7.45717 7.25 8C7.25 8.00081 7.25 8.00161 7.25 8.00242V9C7.25 9.00049 7.25 9.00099 7.25 9.00148V12.75H4C3.58579 12.75 3.25 13.0858 3.25 13.5C3.25 13.9142 3.58579 14.25 4 14.25H8H12C12.4142 14.25 12.75 13.9142 12.75 13.5C12.75 13.0858 12.4142 12.75 12 12.75H8.75V8.66666C8.75 8.66616 8.75 8.66567 8.75 8.66518V8.00147C8.75 8.00098 8.75 8.00048 8.75 7.99999C8.75 7.45716 9.36868 6.74999 10.5 6.74999C11.6313 6.74999 12.25 7.45716 12.25 7.99999C12.25 8.4142 12.5858 8.74999 13 8.74999C13.4142 8.74999 13.75 8.4142 13.75 7.99999C13.75 6.33368 12.1301 5.24999 10.5 5.24999C9.88664 5.24999 9.27472 5.40342 8.75 5.68359V5.66667C8.75 4.61144 9.61042 3.75 10.6792 3.75C11.3941 3.75 12.0176 4.13567 12.3516 4.7102C12.5597 5.06832 13.0187 5.18991 13.3769 4.98177C13.735 4.77363 13.8566 4.31459 13.6484 3.95647C13.0559 2.93686 11.9477 2.25 10.6792 2.25C9.59636 2.25 8.62896 2.75074 8 3.5338C7.37104 2.75074 6.40364 2.25 5.32079 2.25C4.05227 2.25 2.94415 2.93686 2.35156 3.95647C2.14343 4.31459 2.26501 4.77363 2.62313 4.98177C2.98126 5.18991 3.4403 5.06832 3.64844 4.7102Z" fill="currentColor"/>
</svg>
