<svg width="16" height="16" viewBox="0 0 16 16" fill="none" xmlns="http://www.w3.org/2000/svg">
<path fill-rule="evenodd" clip-rule="evenodd" d="M4.75 2.5C4.75 2.08579 4.41421 1.75 4 1.75C3.58579 1.75 3.25 2.08579 3.25 2.5C3.25 2.53755 3.25065 2.57502 3.25193 2.61238C3.25065 2.63031 3.25 2.64842 3.25 2.66667C3.25 4.20193 2.32597 5.25 1 5.25C0.585786 5.25 0.25 5.58579 0.25 6C0.25 6.41421 0.585786 6.75 1 6.75C1.89758 6.75 2.65555 6.46888 3.25 6.00215V10.75H1C0.585786 10.75 0.25 11.0858 0.25 11.5C0.25 11.9142 0.585786 12.25 1 12.25H3.25V14C3.25 14.4142 3.58578 14.75 4 14.75C4.41421 14.75 4.75 14.4142 4.75 14V12.25H8H11.25V14C11.25 14.4142 11.5858 14.75 12 14.75C12.4142 14.75 12.75 14.4142 12.75 14V12.25H15C15.4142 12.25 15.75 11.9142 15.75 11.5C15.75 11.0858 15.4142 10.75 15 10.75H12.75V6.11047C13.3754 6.53677 14.1487 6.75 15 6.75C15.4142 6.75 15.75 6.41421 15.75 6C15.75 5.58579 15.4142 5.25 15 5.25C14.2391 5.25 13.6936 5.01368 13.34 4.66003C12.9863 4.30637 12.75 3.76091 12.75 3C12.75 2.9445 12.744 2.8904 12.7325 2.83833C12.7441 2.72653 12.75 2.61368 12.75 2.5C12.75 2.08579 12.4142 1.75 12 1.75C11.5858 1.75 11.25 2.08579 11.25 2.5C11.25 3.11698 10.9127 3.80132 10.2927 4.352C9.67857 4.89749 8.85166 5.25 8 5.25C7.14834 5.25 6.32143 4.89749 5.70729 4.352C5.08731 3.80132 4.75 3.11698 4.75 2.5ZM11.25 5.50763C10.5704 6.09884 9.70021 6.53509 8.75 6.68922V10.75H11.25V5.50763ZM4.75 10.75H7.25V6.68922C6.29979 6.53509 5.42959 6.09883 4.75 5.50762V10.75Z" fill="currentColor"/>
</svg>
