<svg width="16" height="16" viewBox="0 0 16 16" fill="none" xmlns="http://www.w3.org/2000/svg">
<path fill-rule="evenodd" clip-rule="evenodd" d="M4.00002 1.75C3.69334 1.75 3.41756 1.93671 3.30366 2.22145L2.49221 4.25003C2.08157 4.2542 1.74997 4.58837 1.74997 4.99999C1.74997 5.36727 2.01396 5.67288 2.36255 5.73743L3.76019 14.1233C3.82047 14.4849 4.13336 14.75 4.49999 14.75H11.5C11.8666 14.75 12.1795 14.4849 12.2398 14.1233L13.6374 5.73743C13.986 5.67287 14.25 5.36726 14.25 4.99999C14.25 4.58838 13.9184 4.25421 13.5078 4.25003L12.6964 2.22146C12.5825 1.93672 12.3067 1.75 12 1.75H4.00002ZM11.8922 4.24999L11.4922 3.25H4.50779L4.10778 4.24999L11.8922 4.24999ZM3.88533 5.74999L4.13533 7.24999H11.8646L12.1146 5.74999L3.88533 5.74999ZM11.6146 8.74999H4.38533L5.13533 13.25H10.8646L11.6146 8.74999Z" fill="currentColor"/>
</svg>
