<svg width="16" height="16" viewBox="0 0 16 16" fill="none" xmlns="http://www.w3.org/2000/svg">
<path fill-rule="evenodd" clip-rule="evenodd" d="M10.3354 1.6708C10.7059 1.48556 10.8561 1.03505 10.6708 0.664571C10.4856 0.294087 10.0351 0.143919 9.66459 0.329161L7.66459 1.32916C7.41051 1.4562 7.25 1.7159 7.25 1.99998V4.24997H3.50962H3.49229H2.50006C2.08585 4.24997 1.75006 4.58575 1.75006 4.99997C1.75006 5.41418 2.08585 5.74997 2.50006 5.74997H2.82485L3.75417 14.5785C3.79435 14.9602 4.11623 15.25 4.50004 15.25H11.5C11.8839 15.25 12.2057 14.9602 12.2459 14.5785L13.1752 5.74997H13.5001C13.9143 5.74997 14.2501 5.41418 14.2501 4.99997C14.2501 4.58575 13.9143 4.24997 13.5001 4.24997H12.5086H12.4896H8.75V2.46351L10.3354 1.6708ZM4.33313 5.74997L4.59629 8.24997H11.4038L11.667 5.74997H4.33313ZM5.17524 13.75L4.75419 9.74997H11.2459L10.8248 13.75H5.17524Z" fill="currentColor"/>
</svg>
