<svg width="16" height="16" viewBox="0 0 16 16" fill="none" xmlns="http://www.w3.org/2000/svg">
<path fill-rule="evenodd" clip-rule="evenodd" d="M4.40625 2.75C3.46961 2.75 2.75 3.48047 2.75 4.33333C2.75 5.1862 3.46961 5.91667 4.40625 5.91667H6.125C6.70714 5.91667 7.21875 6.3801 7.21875 7V8C7.21875 8.41421 6.88296 8.75 6.46875 8.75C6.05454 8.75 5.71875 8.41421 5.71875 8V7.41667H4.75V13.25H11.25V11V7V6.08333H9.21875C8.80454 6.08333 8.46875 5.74755 8.46875 5.33333C8.46875 4.91912 8.80454 4.58333 9.21875 4.58333H11.625C11.9921 4.58333 12.25 4.30058 12.25 4C12.25 3.69942 11.9921 3.41667 11.625 3.41667C11.509 3.41667 11.4032 3.4456 11.3128 3.49452C11.0216 3.65216 10.6909 3.68422 10.4146 3.64888C10.1432 3.61417 9.79609 3.49674 9.54535 3.20659C9.30638 2.93006 8.94382 2.75 8.53125 2.75C8.1411 2.75 7.79579 2.91096 7.55723 3.16234C7.2757 3.459 6.88805 3.56095 6.59018 3.57245C6.29397 3.58389 5.88792 3.51295 5.58154 3.21791C5.28304 2.93045 4.86917 2.75 4.40625 2.75ZM12.75 13.25V11.75H13.5C14.4665 11.75 15.25 10.9665 15.25 10V8C15.25 7.0335 14.4665 6.25 13.5 6.25H12.75V5.76704C13.3457 5.40246 13.75 4.75544 13.75 4C13.75 2.82782 12.7767 1.91667 11.625 1.91667C11.2653 1.91667 10.9238 2.00484 10.6242 2.16186L10.6233 2.16189C10.1067 1.60005 9.35804 1.25 8.53125 1.25C7.75588 1.25 7.04913 1.55792 6.53819 2.05961C5.97503 1.55553 5.2249 1.25 4.40625 1.25C2.68502 1.25 1.25 2.60887 1.25 4.33333C1.25 5.65062 2.08736 6.75458 3.25 7.20246V13.25H3C2.58579 13.25 2.25 13.5858 2.25 14C2.25 14.4142 2.58579 14.75 3 14.75H4H12H13C13.4142 14.75 13.75 14.4142 13.75 14C13.75 13.5858 13.4142 13.25 13 13.25H12.75ZM12.75 7.75V10.25H13.5C13.6381 10.25 13.75 10.1381 13.75 10V8C13.75 7.86193 13.6381 7.75 13.5 7.75H12.75Z" fill="currentColor"/>
</svg>
