<svg width="16" height="16" viewBox="0 0 16 16" fill="none" xmlns="http://www.w3.org/2000/svg">
<path fill-rule="evenodd" clip-rule="evenodd" d="M6.72667 2.59138C7.56268 2.38238 8.43728 2.38238 9.27329 2.59138L9.81808 2.72758C10.2199 2.82804 10.6271 2.58372 10.7276 2.18187C10.828 1.78003 10.5837 1.37283 10.1819 1.27237L9.6371 1.13617C8.56223 0.867452 7.43774 0.867452 6.36287 1.13617L5.81808 1.27237C5.41623 1.37283 5.17191 1.78003 5.27237 2.18187C5.37284 2.58372 5.78004 2.82804 6.18188 2.72758L6.72667 2.59138ZM4.21921 5.12787C4.35275 4.89418 4.60125 4.74997 4.8704 4.74997H11.1294C11.3986 4.74997 11.6471 4.89418 11.7806 5.12787L12.7699 6.85904C11.6972 7.06387 10.1353 7.24997 7.99998 7.24997C5.8646 7.24997 4.3026 7.06386 3.22999 6.85902L4.21921 5.12787ZM1.72077 6.4768C1.6923 6.46717 1.66546 6.45789 1.64022 6.44898C1.52193 6.40723 1.43871 6.37376 1.3886 6.3525C1.36354 6.34187 1.34674 6.33429 1.33796 6.33023L1.33104 6.32699C0.961385 6.14509 0.513678 6.29553 0.329161 6.66456C0.143919 7.03505 0.294087 7.48555 0.664571 7.67079L0.999981 6.99997C0.664571 7.67079 0.664906 7.67096 0.665249 7.67113L0.665974 7.67149L0.667561 7.67228L0.671291 7.67412L0.680982 7.67882L0.709369 7.69217C0.732326 7.70277 0.76338 7.71666 0.802772 7.73338C0.881563 7.7668 0.993661 7.81147 1.14099 7.86346C1.17628 7.87592 1.21359 7.8888 1.25294 7.90204C1.25093 7.94497 1.24991 7.988 1.24991 8.0311V14C1.24991 14.4142 1.5857 14.75 1.99991 14.75H4.99998C5.4142 14.75 5.74998 14.4142 5.74998 14V13.0833H10.25V14C10.25 14.4142 10.5858 14.75 11 14.75H13.9999C14.4141 14.75 14.7499 14.4142 14.7499 14V8.0311C14.7499 7.98801 14.7489 7.945 14.7469 7.90208C14.7863 7.88882 14.8236 7.87593 14.859 7.86346C15.0063 7.81147 15.1184 7.7668 15.1972 7.73338C15.2366 7.71666 15.2676 7.70277 15.2906 7.69217L15.319 7.67882L15.3287 7.67412L15.3324 7.67228L15.334 7.67149L15.3347 7.67113C15.3351 7.67096 15.3354 7.67079 15 6.99997L15.3354 7.67079C15.7059 7.48555 15.856 7.03505 15.6708 6.66456C15.4863 6.29553 15.0386 6.14509 14.6689 6.32699L14.662 6.33023C14.6532 6.33429 14.6364 6.34187 14.6114 6.3525C14.5613 6.37376 14.478 6.40723 14.3597 6.44898C14.3345 6.4579 14.3076 6.4672 14.2791 6.47684L13.083 4.38366C12.6824 3.68261 11.9369 3.24997 11.1294 3.24997H4.8704C4.06297 3.24997 3.31745 3.68261 2.91685 4.38366L1.72077 6.4768ZM13.2499 8.29327V13.25H11.75V12.3333C11.75 11.9191 11.4142 11.5833 11 11.5833H4.99998C4.58577 11.5833 4.24998 11.9191 4.24998 12.3333V13.25H2.74991V8.29324C3.93056 8.5331 5.64839 8.74997 7.99998 8.74997C10.3515 8.74997 12.0693 8.53312 13.2499 8.29327ZM6.04164 9.99997C6.04164 9.65479 6.32146 9.37497 6.66664 9.37497H9.33331C9.67849 9.37497 9.95831 9.65479 9.95831 9.99997C9.95831 10.3451 9.67849 10.625 9.33331 10.625H6.66664C6.32146 10.625 6.04164 10.3451 6.04164 9.99997ZM3.99998 9.37497C3.6548 9.37497 3.37498 9.65479 3.37498 9.99997C3.37498 10.3451 3.6548 10.625 3.99998 10.625H4.66664C5.01182 10.625 5.29164 10.3451 5.29164 9.99997C5.29164 9.65479 5.01182 9.37497 4.66664 9.37497H3.99998ZM10.7083 9.99997C10.7083 9.65479 10.9881 9.37497 11.3333 9.37497H12C12.3452 9.37497 12.625 9.65479 12.625 9.99997C12.625 10.3451 12.3452 10.625 12 10.625H11.3333C10.9881 10.625 10.7083 10.3451 10.7083 9.99997Z" fill="currentColor"/>
</svg>
