<svg width="16" height="16" viewBox="0 0 16 16" fill="none" xmlns="http://www.w3.org/2000/svg">
<path fill-rule="evenodd" clip-rule="evenodd" d="M5.99999 0.75C5.58578 0.75 5.24999 1.08579 5.24999 1.5C5.24999 1.91421 5.58578 2.25 5.99999 2.25H7.24999V3.29119C3.87503 3.66428 1.24999 6.52558 1.24999 10C1.24999 10.4142 1.58578 10.75 1.99999 10.75H14C14.4142 10.75 14.75 10.4142 14.75 10C14.75 6.52558 12.125 3.66428 8.75 3.29119V2.25H10C10.4142 2.25 10.75 1.91421 10.75 1.5C10.75 1.08579 10.4142 0.75 10 0.75H7.99999H5.99999ZM7.99999 4.75C10.6448 4.75 12.8329 6.70578 13.1968 9.25H2.80316C3.16708 6.70578 5.35514 4.75 7.99999 4.75ZM1.00002 12.25C0.585802 12.25 0.250015 12.5858 0.250015 13C0.250015 13.4142 0.585802 13.75 1.00002 13.75H15C15.4142 13.75 15.75 13.4142 15.75 13C15.75 12.5858 15.4142 12.25 15 12.25H1.00002Z" fill="currentColor"/>
</svg>
