<svg width="16" height="16" viewBox="0 0 16 16" fill="none" xmlns="http://www.w3.org/2000/svg">
<path fill-rule="evenodd" clip-rule="evenodd" d="M4.87051 3.25C4.60136 3.25 4.35286 3.39421 4.21932 3.6279L2.97362 5.80788C4.04792 6.0318 5.68784 6.25 8.00001 6.25C10.3122 6.25 11.9521 6.03179 13.0264 5.80787L11.7807 3.6279C11.6472 3.39421 11.3987 3.25 11.1295 3.25H4.87051ZM1.38863 5.35253C1.41497 5.36371 1.45047 5.37826 1.49541 5.39561C1.53071 5.31774 1.56972 5.24136 1.61235 5.16675L2.91696 2.88369C3.31756 2.18264 4.06308 1.75 4.87051 1.75H11.1295C11.937 1.75 12.6825 2.18264 13.0831 2.88369L14.3877 5.16675C14.4303 5.24136 14.4693 5.31773 14.5046 5.39561C14.5496 5.37826 14.5851 5.36371 14.6114 5.35253C14.6365 5.3419 14.6533 5.33431 14.662 5.33026L14.669 5.32702C15.0386 5.14512 15.4863 5.29556 15.6708 5.66459C15.8561 6.03507 15.7059 6.48558 15.3354 6.67082L15 6C15.3354 6.67082 15.3351 6.67099 15.3347 6.67116L15.334 6.67152L15.3324 6.67231L15.3287 6.67415L15.319 6.67885L15.2906 6.6922C15.2677 6.7028 15.2366 6.71669 15.1972 6.73341C15.1184 6.76683 15.0063 6.81149 14.859 6.86349C14.8246 6.87563 14.7883 6.88818 14.75 6.90106V13.5C14.75 13.9142 14.4142 14.25 14 14.25H11.5C11.0858 14.25 10.75 13.9142 10.75 13.5V12.75H5.25002V13.5C5.25002 13.9142 4.91424 14.25 4.50002 14.25H2.00002C1.58581 14.25 1.25002 13.9142 1.25002 13.5V6.90107C1.21176 6.88818 1.17543 6.87564 1.14102 6.86349C0.993692 6.81149 0.881594 6.76683 0.802803 6.73341C0.763411 6.71669 0.732357 6.7028 0.7094 6.6922L0.681013 6.67885L0.671321 6.67415L0.667591 6.67231L0.666004 6.67152L0.66528 6.67116C0.664937 6.67099 0.664602 6.67082 1.00001 6L0.664602 6.67082C0.294118 6.48558 0.143949 6.03507 0.329191 5.66459C0.513708 5.29556 0.961416 5.14512 1.33107 5.32702L1.33799 5.33026C1.34677 5.33431 1.36357 5.3419 1.38863 5.35253ZM13.25 12.75V7.29328C12.0694 7.53314 10.3516 7.75 8.00001 7.75C5.64847 7.75 3.93067 7.53314 2.75002 7.29329V12.75H3.75002V12C3.75002 11.5858 4.08581 11.25 4.50002 11.25H11.5C11.9142 11.25 12.25 11.5858 12.25 12V12.75H13.25ZM9.50003 10.25C9.91424 10.25 10.25 9.9142 10.25 9.49999C10.25 9.08577 9.91424 8.74999 9.50002 8.74999L6.50002 8.75C6.0858 8.75 5.75002 9.08578 5.75002 9.5C5.75002 9.91421 6.08581 10.25 6.50002 10.25L9.50003 10.25Z" fill="currentColor"/>
</svg>
