<svg width="16" height="16" viewBox="0 0 16 16" fill="none" xmlns="http://www.w3.org/2000/svg">
<path fill-rule="evenodd" clip-rule="evenodd" d="M6.50001 1.25C6.91422 1.25 7.25001 1.58579 7.25001 2V3.25H8.75001V2C8.75001 1.58579 9.08579 1.25 9.50001 1.25C9.91422 1.25 10.25 1.58579 10.25 2V3.25H11C11.4142 3.25 11.75 3.58579 11.75 4V6C11.75 7.81422 10.4617 9.32753 8.75 9.67499V14C8.75 14.4142 8.41421 14.75 8 14.75C7.58579 14.75 7.25 14.4142 7.25 14V9.67499C5.53832 9.32753 4.25 7.81422 4.25 6V4C4.25 3.58579 4.58579 3.25 5 3.25H5.75001V2C5.75001 1.58579 6.08579 1.25 6.50001 1.25ZM9.50001 4.75H6.50001H5.75V6C5.75 7.24264 6.75736 8.25 8 8.25C9.24264 8.25 10.25 7.24264 10.25 6V4.75H9.50001Z" fill="currentColor"/>
</svg>
