<svg width="16" height="16" viewBox="0 0 16 16" fill="none" xmlns="http://www.w3.org/2000/svg">
<path fill-rule="evenodd" clip-rule="evenodd" d="M3.27265 2.75C3.06587 2.75 2.90808 2.93487 2.94057 3.13908L3.29522 5.36832C3.46766 6.45222 4.40239 7.25 5.49992 7.25C6.59745 7.25 7.53218 6.45222 7.70462 5.36832L8.05927 3.13908C8.09176 2.93487 7.93397 2.75 7.72719 2.75C7.31298 2.75 6.97719 2.41421 6.97719 2C6.97719 1.58579 7.31298 1.25 7.72719 1.25C8.8564 1.25 9.71805 2.25957 9.54064 3.37476L9.18599 5.604C8.93795 7.16312 7.74651 8.36815 6.25 8.6743V11C6.25 12.5188 7.48122 13.75 9 13.75C10.5188 13.75 11.75 12.5188 11.75 11V10.622C10.8761 10.3131 10.25 9.47966 10.25 8.5C10.25 7.25736 11.2574 6.25 12.5 6.25C13.7426 6.25 14.75 7.25736 14.75 8.5C14.75 9.47966 14.1239 10.3131 13.25 10.622V11C13.25 13.3472 11.3472 15.25 9 15.25C6.65279 15.25 4.75 13.3472 4.75 11V8.67433C3.25341 8.36824 2.0619 7.16318 1.81385 5.604L1.4592 3.37476C1.28178 2.25957 2.14343 1.25 3.27265 1.25C3.68686 1.25 4.02265 1.58579 4.02265 2C4.02265 2.41421 3.68686 2.75 3.27265 2.75ZM12.5 9.25C12.9142 9.25 13.25 8.91421 13.25 8.5C13.25 8.08579 12.9142 7.75 12.5 7.75C12.0858 7.75 11.75 8.08579 11.75 8.5C11.75 8.91421 12.0858 9.25 12.5 9.25Z" fill="currentColor"/>
</svg>
