<svg width="16" height="16" viewBox="0 0 16 16" fill="none" xmlns="http://www.w3.org/2000/svg">
<path fill-rule="evenodd" clip-rule="evenodd" d="M8 11.9166C7.58579 11.9166 7.25 11.5809 7.25 11.1666V7.41664H4.96868L5.96868 13.4166H10.0313L11.0313 7.41664H8.75V11.1666C8.75 11.5809 8.41421 11.9166 8 11.9166ZM4.84453 5.91664H7.25V3.98965C6.0787 4.22279 5.18416 4.98875 4.84453 5.91664ZM3.28558 5.91664H3C2.58579 5.91664 2.25 6.25243 2.25 6.66664C2.25 7.08086 2.58579 7.41664 3 7.41664H3.44799L4.59354 14.2899C4.65381 14.6516 4.9667 14.9166 5.33333 14.9166H10.6667C11.0333 14.9166 11.3462 14.6516 11.4065 14.2899L12.552 7.41664H13C13.4142 7.41664 13.75 7.08086 13.75 6.66664C13.75 6.25243 13.4142 5.91664 13 5.91664H12.7144C12.3168 4.09392 10.6987 2.74799 8.75 2.46977V1.96351L9.33541 1.6708C9.70589 1.48556 9.85606 1.03505 9.67082 0.664571C9.48558 0.294087 9.03507 0.143919 8.66459 0.329161L7.66459 0.829161C7.4105 0.956205 7.25 1.2159 7.25 1.49998V2.46977C5.30127 2.74799 3.68322 4.09392 3.28558 5.91664ZM8.75 3.98965V5.91664H11.1555C10.8158 4.98875 9.9213 4.22279 8.75 3.98965Z" fill="currentColor"/>
</svg>
