<svg width="16" height="16" viewBox="0 0 16 16" fill="none" xmlns="http://www.w3.org/2000/svg">
<path fill-rule="evenodd" clip-rule="evenodd" d="M1.15715 2.26665C0.93568 2.2192 0.704629 2.27437 0.528492 2.41676C0.352355 2.55915 0.25 2.77351 0.25 3.00001V13C0.25 13.4142 0.585786 13.75 1 13.75C1.41421 13.75 1.75 13.4142 1.75 13V3.92775L14.25 6.60632V13C14.25 13.4142 14.5858 13.75 15 13.75C15.4142 13.75 15.75 13.4142 15.75 13V6.00001C15.75 5.64635 15.5029 5.34076 15.1571 5.26665L1.15715 2.26665ZM5.71274 8.88235C5.75619 8.80089 5.841 8.75 5.93333 8.75H10.0667C10.159 8.75 10.2438 8.80089 10.2873 8.88235L10.8344 9.90817C10.188 10.0888 9.25902 10.25 8 10.25C6.74097 10.25 5.81199 10.0888 5.16564 9.90817L5.71274 8.88235ZM11.6108 8.17647L12.2135 9.30666C12.5177 9.1808 12.8801 9.26713 13.092 9.53954C13.3463 9.86651 13.2874 10.3377 12.9605 10.592L12.6144 10.1471C12.9604 10.5921 12.9601 10.5923 12.9597 10.5926L12.959 10.5931L12.9574 10.5944L12.9539 10.5971L12.9453 10.6036C12.9389 10.6083 12.9312 10.614 12.9222 10.6205C12.9041 10.6335 12.8806 10.6498 12.8516 10.6689C12.8202 10.6897 12.7823 10.7137 12.7377 10.7404C12.7459 10.8265 12.75 10.9131 12.75 11V13C12.75 13.4142 12.4142 13.75 12 13.75C11.5858 13.75 11.25 13.4142 11.25 13V11.3495C10.4661 11.5698 9.39719 11.75 8 11.75C6.6028 11.75 5.53387 11.5698 4.75 11.3495V13C4.75 13.4142 4.41421 13.75 3.99999 13.75C3.58578 13.75 3.24999 13.4142 3.24999 13V11C3.24999 10.9131 3.25411 10.8265 3.26228 10.7404C3.21772 10.7137 3.17984 10.6897 3.14842 10.6689C3.1194 10.6498 3.09592 10.6335 3.07782 10.6205C3.06877 10.614 3.06107 10.6083 3.0547 10.6036L3.04613 10.5971L3.04259 10.5944L3.04101 10.5931L3.04026 10.5926C3.03993 10.5923 3.03961 10.5921 3.3856 10.1471L3.03954 10.592C2.71258 10.3377 2.65368 9.86651 2.90799 9.53954C3.11986 9.26713 3.48231 9.1808 3.78645 9.30665L4.38921 8.17647C4.69335 7.60621 5.28703 7.25 5.93333 7.25H10.0667C10.713 7.25 11.3066 7.60621 11.6108 8.17647ZM7 12.25C6.58579 12.25 6.25 12.5858 6.25 13C6.25 13.4142 6.58579 13.75 7 13.75H9C9.41421 13.75 9.75 13.4142 9.75 13C9.75 12.5858 9.41421 12.25 9 12.25H7Z" fill="currentColor"/>
</svg>
