<svg width="16" height="16" viewBox="0 0 16 16" fill="none" xmlns="http://www.w3.org/2000/svg">
<path fill-rule="evenodd" clip-rule="evenodd" d="M2.26439 4.05308H3.30086C3.56358 4.8334 3.89889 5.71133 4.30769 6.55678C4.80647 7.58834 5.43871 8.62261 6.22104 9.36462C7.6481 10.7181 9.61551 11.5107 11.5282 12.0075V12.7552C8.95115 13.7466 5.89086 13.2462 3.81399 11.2764C1.74658 9.31555 1.23676 6.45593 2.26439 4.05308ZM7.25328 8.27628C6.72927 7.77928 6.24733 7.05691 5.82034 6.22882C6.15737 6.49429 6.52458 6.74919 6.92201 6.98111C8.71744 8.02879 11.0589 8.27191 13.0331 8.27664L13.0893 8.95979C12.031 9.56644 10.614 9.85502 9.23749 9.60534C8.48615 9.24152 7.80994 8.80425 7.25328 8.27628ZM13.1858 10.8476C13.0429 10.8191 12.8996 10.7893 12.7563 10.7581C13.3193 10.5551 13.8427 10.2867 14.3038 9.96427C14.6868 9.69645 15.047 9.3897 15.3755 9.04284C15.8199 8.57368 15.8447 7.9468 15.5756 7.47218C15.319 7.01982 14.8121 6.72275 14.236 6.75004C14.0614 6.75832 13.8841 6.76478 13.7051 6.76911C11.6357 6.81916 9.30463 6.63473 7.67801 5.68555C6.56245 5.03458 5.70651 4.15149 5.12488 3.4181C4.83574 3.05352 4.6189 2.73164 4.47574 2.50346C4.40426 2.38953 4.35145 2.29944 4.31746 2.23964L4.29882 2.20655C4.12428 1.71696 3.71328 1.3948 3.27184 1.28925C2.79244 1.17462 2.21932 1.30607 1.85289 1.79322C1.57241 2.1661 1.32844 2.55679 1.12122 2.96076C-0.452593 6.02885 0.108855 9.82962 2.78175 12.3647C5.44508 14.8908 9.40322 15.4048 12.5925 13.9331C12.9931 13.7482 13.382 13.5319 13.755 13.284C14.2731 12.9398 14.4502 12.355 14.2963 11.8337C14.1504 11.339 13.7283 10.9557 13.1858 10.8476ZM4.2718 2.15708C4.27175 2.15699 4.27178 2.15704 4.27188 2.15724L4.2718 2.15708ZM4.22827 7.8207C4.12924 7.41849 3.72291 7.17272 3.32071 7.27175C2.91851 7.37078 2.67274 7.7771 2.77176 8.1793C2.96949 8.98237 3.62 9.94332 4.38952 10.7488C5.17168 11.5676 6.19464 12.35 7.25957 12.7104C7.65192 12.8432 8.07763 12.6328 8.21043 12.2404C8.34322 11.8481 8.13281 11.4224 7.74046 11.2896C6.98721 11.0346 6.16169 10.4324 5.47414 9.7127C4.77397 8.97976 4.33357 8.2484 4.22827 7.8207Z" fill="currentColor"/>
</svg>
