<svg width="16" height="16" viewBox="0 0 16 16" fill="none" xmlns="http://www.w3.org/2000/svg">
<path fill-rule="evenodd" clip-rule="evenodd" d="M3.93413 3.93414C6.17965 1.68862 9.82035 1.68862 12.0659 3.93414C14.3114 6.17965 14.3114 9.82035 12.0659 12.0659C9.82035 14.3114 6.17965 14.3114 3.93414 12.0659C1.68862 9.82035 1.68862 6.17965 3.93413 3.93414ZM13.1265 2.87348C10.2952 0.0421747 5.70477 0.0421747 2.87347 2.87348C0.0421741 5.70478 0.0421757 10.2952 2.87348 13.1265C5.70478 15.9578 10.2952 15.9578 13.1265 13.1265C15.9578 10.2952 15.9578 5.70478 13.1265 2.87348ZM11.4468 6.48352C11.7138 6.16688 11.6736 5.69371 11.357 5.42667C11.0403 5.15963 10.5672 5.19984 10.3001 5.51648L7.51049 8.82423L6.4553 7.52678C6.19395 7.20543 5.72158 7.15679 5.40022 7.41814C5.07887 7.67949 5.03023 8.15186 5.29158 8.47322L6.91814 10.4732C7.05908 10.6465 7.26994 10.748 7.49331 10.75C7.71669 10.752 7.92932 10.6543 8.07333 10.4835L11.4468 6.48352Z" fill="currentColor"/>
</svg>
