<svg width="16" height="16" viewBox="0 0 16 16" fill="none" xmlns="http://www.w3.org/2000/svg">
<path fill-rule="evenodd" clip-rule="evenodd" d="M1 8C1 4.13401 4.13401 1 8 1C11.866 1 15 4.13401 15 8C15 11.866 11.866 15 8 15C4.13401 15 1 11.866 1 8ZM11.2733 6.48352C11.5404 6.16688 11.5002 5.69371 11.1835 5.42667C10.8669 5.15963 10.3937 5.19984 10.1267 5.51648L7.33706 8.82423L6.28187 7.52678C6.02052 7.20543 5.54814 7.15679 5.22679 7.41814C4.90544 7.67949 4.85679 8.15186 5.11815 8.47322L6.74471 10.4732C6.88565 10.6465 7.09651 10.748 7.31988 10.75C7.54325 10.752 7.75589 10.6543 7.8999 10.4835L11.2733 6.48352Z" fill="currentColor"/>
</svg>
