<svg width="16" height="16" viewBox="0 0 16 16" fill="none" xmlns="http://www.w3.org/2000/svg">
<path fill-rule="evenodd" clip-rule="evenodd" d="M5.75 2C5.75 1.58579 6.08579 1.25 6.5 1.25L9.5 1.25C9.91422 1.25 10.25 1.58579 10.25 2C10.25 2.41421 9.91422 2.75 9.5 2.75H6.5C6.08579 2.75 5.75 2.41421 5.75 2ZM3.4994 3.75C3.4996 3.75 3.4998 3.75 3.5 3.75L12.5 3.75C12.5002 3.75 12.5004 3.75 12.5006 3.75H13.5C13.9142 3.75 14.25 4.08579 14.25 4.5C14.25 4.91421 13.9142 5.25 13.5 5.25H13.1752L12.2459 14.0785C12.2057 14.4602 11.8838 14.75 11.5 14.75L4.5 14.75C4.11618 14.75 3.7943 14.4602 3.75412 14.0785L2.82481 5.25H2.5C2.08579 5.25 1.75 4.91421 1.75 4.5C1.75 4.08579 2.08579 3.75 2.5 3.75H3.4994ZM4.33309 5.25L5.1752 13.25L10.8248 13.25L11.6669 5.25L4.33309 5.25Z" fill="currentColor"/>
</svg>
