<svg width="16" height="16" viewBox="0 0 16 16" fill="none" xmlns="http://www.w3.org/2000/svg">
<path d="M5.88333 8L6.86667 7.01667C7 6.88333 7.06667 6.72778 7.06667 6.55C7.06667 6.37222 7 6.21667 6.86667 6.08333C6.73333 5.95 6.57511 5.88333 6.392 5.88333C6.20889 5.88333 6.05044 5.95 5.91667 6.08333L4.46667 7.53333C4.4 7.6 4.35267 7.67222 4.32467 7.75C4.29667 7.82778 4.28289 7.91111 4.28333 8C4.28378 8.08889 4.29756 8.17222 4.32467 8.25C4.35178 8.32778 4.39911 8.4 4.46667 8.46667L5.91667 9.91667C6.05 10.05 6.20844 10.1167 6.392 10.1167C6.57556 10.1167 6.73378 10.05 6.86667 9.91667C6.99956 9.78333 7.06622 9.62778 7.06667 9.45C7.06711 9.27222 7.00044 9.11667 6.86667 8.98333L5.88333 8ZM10.1167 8L9.13333 8.98333C9 9.11667 8.93333 9.27222 8.93333 9.45C8.93333 9.62778 9 9.78333 9.13333 9.91667C9.26667 10.05 9.42511 10.1167 9.60867 10.1167C9.79222 10.1167 9.95044 10.05 10.0833 9.91667L11.5333 8.46667C11.6 8.4 11.6473 8.32778 11.6753 8.25C11.7033 8.17222 11.7171 8.08889 11.7167 8C11.7162 7.91111 11.7024 7.82778 11.6753 7.75C11.6482 7.67222 11.6009 7.6 11.5333 7.53333L10.0833 6.08333C10.0167 6.01667 9.94178 5.96667 9.85867 5.93333C9.77556 5.9 9.692 5.88333 9.608 5.88333C9.524 5.88333 9.44067 5.9 9.358 5.93333C9.27533 5.96667 9.20044 6.01667 9.13333 6.08333C9 6.21667 8.93333 6.37222 8.93333 6.55C8.93333 6.72778 9 6.88333 9.13333 7.01667L10.1167 8ZM3.33333 14C2.96667 14 2.65289 13.8696 2.392 13.6087C2.13111 13.3478 2.00044 13.0338 2 12.6667V3.33333C2 2.96667 2.13067 2.65289 2.392 2.392C2.65333 2.13111 2.96711 2.00044 3.33333 2H12.6667C13.0333 2 13.3473 2.13067 13.6087 2.392C13.87 2.65333 14.0004 2.96711 14 3.33333V12.6667C14 13.0333 13.8696 13.3473 13.6087 13.6087C13.3478 13.87 13.0338 14.0004 12.6667 14H3.33333ZM3.33333 12.6667H12.6667V3.33333H3.33333V12.6667Z" fill="black"/>
</svg>
