<svg width="16" height="16" viewBox="0 0 16 16" fill="none" xmlns="http://www.w3.org/2000/svg">
<path fill-rule="evenodd" clip-rule="evenodd" d="M0.75 3C0.75 2.58579 1.08579 2.25 1.5 2.25H14.5C14.9142 2.25 15.25 2.58579 15.25 3V12C15.25 12.4142 14.9142 12.75 14.5 12.75L11.25 12.75V15C11.25 15.2929 11.0795 15.559 10.8134 15.6814C10.5473 15.8038 10.2343 15.7601 10.0119 15.5694L6.72256 12.75H1.5C1.08579 12.75 0.75 12.4142 0.75 12V3ZM2.25 3.75V11.25H7C7.17903 11.25 7.35216 11.314 7.48809 11.4306L9.75 13.3693V12C9.75 11.5858 10.0858 11.25 10.5 11.25L13.75 11.25V3.75H2.25Z" fill="currentColor"/>
</svg>
