<svg width="16" height="16" viewBox="0 0 16 16" fill="none" xmlns="http://www.w3.org/2000/svg">
<path fill-rule="evenodd" clip-rule="evenodd" d="M1.5 2.25C1.08579 2.25 0.75 2.58579 0.75 3V12C0.75 12.4142 1.08579 12.75 1.5 12.75H6.72256L10.0119 15.5694C10.2343 15.7601 10.5473 15.8038 10.8134 15.6814C11.0795 15.559 11.25 15.2929 11.25 15V12.75L14.5 12.75C14.9142 12.75 15.25 12.4142 15.25 12V3C15.25 2.58579 14.9142 2.25 14.5 2.25H1.5ZM2.25 11.25V3.75H13.75V11.25L10.5 11.25C10.0858 11.25 9.75 11.5858 9.75 12V13.3693L7.48809 11.4306C7.35216 11.314 7.17903 11.25 7 11.25H2.25ZM6 7.5C6 8.05228 5.55228 8.5 5 8.5C4.44772 8.5 4 8.05228 4 7.5C4 6.94772 4.44772 6.5 5 6.5C5.55228 6.5 6 6.94772 6 7.5ZM9 7.5C9 8.05228 8.55228 8.5 8 8.5C7.44772 8.5 7 8.05228 7 7.5C7 6.94772 7.44772 6.5 8 6.5C8.55228 6.5 9 6.94772 9 7.5ZM11 8.5C11.5523 8.5 12 8.05228 12 7.5C12 6.94772 11.5523 6.5 11 6.5C10.4477 6.5 10 6.94772 10 7.5C10 8.05228 10.4477 8.5 11 8.5Z" fill="currentColor"/>
</svg>
