<svg width="16" height="16" viewBox="0 0 16 16" fill="none" xmlns="http://www.w3.org/2000/svg">
<path fill-rule="evenodd" clip-rule="evenodd" d="M15.2115 11.4872C15.3322 11.1253 15.1619 10.7304 14.8158 10.5698L10.8593 8.73282C10.6087 8.61648 10.3145 8.64732 10.0935 8.81308L8.20424 10.23C8.1645 10.2072 8.12197 10.1821 8.07694 10.1545C7.75602 9.95823 7.30984 9.64051 6.83468 9.16535C6.35953 8.6902 6.0418 8.24401 5.84552 7.9231C5.81797 7.87806 5.79284 7.83554 5.77003 7.79579L7.18696 5.90656C7.35272 5.68554 7.38355 5.3913 7.26722 5.14072L5.43026 1.1842C5.29223 0.886903 4.97713 0.713679 4.65215 0.756442C3.75121 0.874997 2.69169 1.08891 1.9107 1.98101C1.52205 2.42495 1.23855 3.04349 1.05266 3.62755C0.864301 4.21939 0.749135 4.86154 0.750005 5.40071C0.750344 10.9725 4.95925 15.25 10.5435 15.25C11.3065 15.25 12.4948 15.1366 13.5058 14.3776C14.5362 13.6042 14.9249 12.3842 15.147 11.687C15.1701 11.6144 15.1914 11.5474 15.2115 11.4872ZM0.750005 5.40071C0.750005 5.40093 0.750006 5.40115 0.750006 5.40138L1.49974 5.40003H0.750005C0.750005 5.40026 0.750005 5.40048 0.750005 5.40071ZM4.89131 7.71742C4.1935 7.99232 4.19358 7.99252 4.19366 7.99273L4.19383 7.99316L4.1942 7.9941L4.19505 7.99622L4.19717 8.00149L4.20316 8.01609C4.20795 8.02759 4.21432 8.04261 4.22237 8.06095C4.23846 8.09761 4.26125 8.14756 4.29139 8.20915C4.35164 8.33227 4.44142 8.50225 4.5659 8.70577C4.81472 9.11258 5.20353 9.65552 5.77402 10.226C6.34452 10.7965 6.88746 11.1853 7.29426 11.4341C7.49778 11.5586 7.66777 11.6484 7.79089 11.7086C7.85247 11.7388 7.90243 11.7616 7.93909 11.7777C7.95742 11.7857 7.97244 11.7921 7.98395 11.7969L7.99854 11.8029L8.00382 11.805L8.00594 11.8058L8.00687 11.8062L8.00731 11.8064C8.00751 11.8065 8.00772 11.8065 8.28261 11.1087L8.00772 11.8065C8.24995 11.902 8.52433 11.8649 8.73261 11.7087L10.6346 10.2823L13.576 11.6479C13.3667 12.2401 13.1079 12.8007 12.6053 13.178C11.9836 13.6447 11.1935 13.75 10.5435 13.75C5.79974 13.75 2.25001 10.1561 2.25 5.40003L2.25 5.39869C2.24938 5.0491 2.32894 4.56344 2.48202 4.08246C2.63765 3.59344 2.84245 3.19393 3.03931 2.96905C3.34124 2.62417 3.74314 2.44647 4.30901 2.3312L5.71777 5.36547L4.29131 7.26743C4.1351 7.4757 4.09808 7.75009 4.1935 7.99232L4.89131 7.71742ZM8.56119 10.4124C8.56143 10.4125 8.56145 10.4125 8.56126 10.4124L8.56119 10.4124ZM5.58822 7.44022L5.58811 7.43999L5.58762 7.43877" fill="currentColor"/>
</svg>
