<svg width="16" height="16" viewBox="0 0 16 16" fill="none" xmlns="http://www.w3.org/2000/svg">
<path fill-rule="evenodd" clip-rule="evenodd" d="M6 2.25C6.41421 2.25 6.75 2.58579 6.75 3V5V7C6.75 7.41421 6.41421 7.75 6 7.75C5.58579 7.75 5.25 7.41421 5.25 7V5.75H2C1.58579 5.75 1.25 5.41421 1.25 5C1.25 4.58579 1.58579 4.25 2 4.25H5.25V3C5.25 2.58579 5.58579 2.25 6 2.25ZM12 10.25C11.5858 10.25 11.25 10.5858 11.25 11C11.25 11.4142 11.5858 11.75 12 11.75H14C14.4142 11.75 14.75 11.4142 14.75 11C14.75 10.5858 14.4142 10.25 14 10.25H12ZM8.25 5C8.25 4.58579 8.58579 4.25 9 4.25H14C14.4142 4.25 14.75 4.58579 14.75 5C14.75 5.41421 14.4142 5.75 14 5.75H9C8.58579 5.75 8.25 5.41421 8.25 5ZM2 10.25C1.58579 10.25 1.25 10.5858 1.25 11C1.25 11.4142 1.58579 11.75 2 11.75H8.25V13C8.25 13.4142 8.58579 13.75 9 13.75C9.41421 13.75 9.75 13.4142 9.75 13V11V9C9.75 8.58579 9.41421 8.25 9 8.25C8.58579 8.25 8.25 8.58579 8.25 9V10.25H2Z" fill="currentColor"/>
</svg>
