<svg width="16" height="16" viewBox="0 0 16 16" fill="none" xmlns="http://www.w3.org/2000/svg">
<path fill-rule="evenodd" clip-rule="evenodd" d="M6.75 4.5C6.75 3.80964 7.30964 3.25 8 3.25C8.69036 3.25 9.25 3.80964 9.25 4.5C9.25 5.19036 8.69036 5.75 8 5.75C7.30964 5.75 6.75 5.19036 6.75 4.5ZM8 1.75C6.48122 1.75 5.25 2.98122 5.25 4.5C5.25 6.01878 6.48122 7.25 8 7.25C9.51878 7.25 10.75 6.01878 10.75 4.5C10.75 2.98122 9.51878 1.75 8 1.75ZM2.89863 12.75C3.10361 12.2027 3.5222 11.6077 4.16428 11.0789C5.09749 10.3104 6.43031 9.75 8 9.75C9.00322 9.75 9.90952 9.9788 10.6771 10.3449C11.051 10.5232 11.4986 10.3647 11.6769 9.99082C11.8553 9.61695 11.6967 9.16932 11.3229 8.99101C10.36 8.53177 9.23364 8.25 8 8.25C6.06969 8.25 4.40251 8.93958 3.21072 9.92105C2.03937 10.8857 1.25 12.2043 1.25 13.5C1.25 13.9142 1.58579 14.25 2 14.25H7C7.41421 14.25 7.75 13.9142 7.75 13.5C7.75 13.0858 7.41421 12.75 7 12.75H2.89863ZM14.857 9.92667C15.1736 10.1937 15.2138 10.6669 14.9468 10.9835L11.5733 14.9835C11.4293 15.1543 11.2167 15.252 10.9933 15.25C10.7699 15.248 10.5591 15.1465 10.4181 14.9732L8.79158 12.9732C8.53023 12.6519 8.57887 12.1795 8.90023 11.9181C9.22158 11.6568 9.69396 11.7054 9.95531 12.0268L11.0105 13.3242L13.8001 10.0165C14.0672 9.69984 14.5403 9.65963 14.857 9.92667Z" fill="currentColor"/>
</svg>
