<svg width="16" height="16" viewBox="0 0 16 16" fill="none" xmlns="http://www.w3.org/2000/svg">
<path fill-rule="evenodd" clip-rule="evenodd" d="M4.75 5C4.75 4.58579 5.08579 4.25 5.5 4.25C5.91421 4.25 6.25 4.58579 6.25 5C6.25 5.41421 5.91421 5.75 5.5 5.75C5.08579 5.75 4.75 5.41421 4.75 5ZM5.5 2.75C4.25736 2.75 3.25 3.75736 3.25 5C3.25 6.24264 4.25736 7.25 5.5 7.25C6.74264 7.25 7.75 6.24264 7.75 5C7.75 3.75736 6.74264 2.75 5.5 2.75ZM1.89993 11.75H6H9.10007C8.66891 10.6752 7.33795 9.75 5.5 9.75C3.66205 9.75 2.33109 10.6752 1.89993 11.75ZM1 13.25H6H10H15C15.4142 13.25 15.75 12.9142 15.75 12.5C15.75 9.9883 13.2132 8.25 10.5 8.25C9.5985 8.25 8.74333 8.43304 7.99388 8.76136C7.23398 8.43128 6.37618 8.25 5.5 8.25C2.78684 8.25 0.25 9.9883 0.25 12.5C0.25 12.9142 0.585786 13.25 1 13.25ZM12.75 5C12.75 6.10457 11.8546 7 10.75 7C9.64543 7 8.75 6.10457 8.75 5C8.75 3.89543 9.64543 3 10.75 3C11.8546 3 12.75 3.89543 12.75 5Z" fill="currentColor"/>
</svg>
