<svg width="16" height="16" viewBox="0 0 16 16" fill="none" xmlns="http://www.w3.org/2000/svg">
<path fill-rule="evenodd" clip-rule="evenodd" d="M2.25 11C2.25 11.4142 2.58579 11.75 3 11.75C3.41421 11.75 3.75 11.4142 3.75 11L3.75 2.75L10 2.75C10.4142 2.75 10.75 2.41421 10.75 2C10.75 1.58579 10.4142 1.25 10 1.25H3C2.58579 1.25 2.25 1.58579 2.25 2V11ZM6 4.25C5.58579 4.25 5.25 4.58578 5.25 5L5.25 14C5.25 14.1989 5.32902 14.3897 5.46967 14.5303C5.61032 14.671 5.80109 14.75 6 14.75L13 14.75C13.4142 14.75 13.75 14.4142 13.75 14L13.75 5C13.75 4.58579 13.4142 4.25 13 4.25L6 4.25ZM6.75 13.25L6.75 5.75L12.25 5.75V13.25L6.75 13.25Z" fill="currentColor"/>
</svg>
