<svg width="16" height="17" viewBox="0 0 16 17" fill="none" xmlns="http://www.w3.org/2000/svg">
<path d="M3.02678 12.5312C2.81129 12.2368 2.89633 11.8343 3.17662 11.6007C3.55792 11.283 4.13166 11.4072 4.44113 11.7952C5.09593 12.6162 5.96715 13.0898 7.03125 13.208L7.03125 8.83903C5.17825 8.44803 3.27425 7.92103 3.27425 5.64303C3.27425 3.68803 4.92325 2.36203 7.03125 2.19203V1.19753C7.03125 0.854833 7.30906 0.577026 7.65175 0.577026C7.99445 0.577026 8.27225 0.854834 8.27225 1.19753V2.20903C9.77811 2.38447 10.9696 3.05026 11.6738 4.0334C11.8753 4.31467 11.7915 4.69501 11.5267 4.91763C11.1579 5.22761 10.6002 5.10624 10.2922 4.73582C9.78717 4.12844 9.11811 3.71613 8.27225 3.56903V7.61503C10.1423 8.00603 12.0633 8.56703 12.0633 10.964C12.0633 13.004 10.4143 14.347 8.27225 14.585V15.6135C8.27225 15.9562 7.99445 16.234 7.65175 16.234C7.30906 16.234 7.03125 15.9562 7.03125 15.6135V14.602C5.33822 14.4535 3.87872 13.6952 3.02678 12.5312ZM4.77025 5.54103C4.77025 6.66303 5.77325 7.07103 7.03125 7.34303L7.03125 3.53503C5.72225 3.67103 4.77025 4.41903 4.77025 5.54103ZM10.5673 11.066C10.5673 9.85903 9.54725 9.41703 8.27225 9.11103L8.27225 13.208C9.58125 13.038 10.5673 12.341 10.5673 11.066Z" fill="currentColor"/>
</svg>
