<svg width="16" height="16" viewBox="0 0 16 16" fill="none" xmlns="http://www.w3.org/2000/svg">
<path d="M3.52107 10.25C3.19716 10.25 2.93457 9.98741 2.93457 9.6635C2.93457 9.33958 3.19716 9.07699 3.52107 9.07699H4.12457C4.10757 8.85599 4.10757 8.63499 4.10757 8.39699C4.10757 8.12499 4.12457 7.86999 4.14157 7.61499H3.51257C3.19335 7.61499 2.93457 7.35622 2.93457 7.03699C2.93457 6.71777 3.19335 6.45899 3.51257 6.45899H4.29457C4.82157 3.73899 6.52157 2.10699 8.88457 2.10699C10.6543 2.10699 11.9687 2.95264 12.6912 4.43908C12.8704 4.8079 12.6666 5.23382 12.2852 5.38458C11.864 5.5511 11.4005 5.31526 11.1968 4.91076C10.7335 3.9911 10.0087 3.484 8.88457 3.484C7.35457 3.484 6.31757 4.57199 5.90957 6.45899L8.94718 6.45899C9.31658 6.45899 9.59118 6.80077 9.51161 7.1615C9.45318 7.42638 9.21842 7.61499 8.94718 7.61499L5.75657 7.61499C5.73957 7.86999 5.72257 8.12499 5.72257 8.39699C5.72257 8.63499 5.72257 8.85599 5.73957 9.07699H8.37787C8.75198 9.07699 9.03046 9.42252 8.95099 9.78808C8.89238 10.0577 8.65378 10.25 8.37787 10.25H5.89257C6.28357 12.205 7.33757 13.31 8.88457 13.31C10.0087 13.31 10.7335 12.8029 11.1968 11.8832C11.4005 11.4787 11.864 11.2429 12.2852 11.4094C12.6666 11.5602 12.8704 11.9861 12.6912 12.3549C11.9687 13.8413 10.6543 14.687 8.88457 14.687C6.50457 14.687 4.78757 13.021 4.27757 10.25H3.52107Z" fill="currentColor"/>
</svg>
