<svg width="16" height="16" viewBox="0 0 16 16" fill="none" xmlns="http://www.w3.org/2000/svg">
<path d="M4.87813 14.1871C3.72213 14.1871 2.85513 13.4391 2.87213 12.2661C2.87213 11.1611 3.75613 10.3451 4.99713 10.3451C5.50713 10.3451 5.96613 10.4981 6.37413 10.7191L6.37413 10.5321C6.37413 9.86906 6.13613 9.29106 5.83013 8.71306H4.46163C4.11894 8.71306 3.84113 8.43525 3.84113 8.09256C3.84113 7.74986 4.11894 7.47206 4.46163 7.47206H5.16713C4.86113 6.82606 4.60613 6.11206 4.60613 5.24506C4.60613 3.18806 6.20413 1.60706 8.55013 1.60706C10.6303 1.60706 12.0775 2.92823 12.3468 4.79049C12.3994 5.15456 12.1188 5.46702 11.7539 5.51369C11.3169 5.56959 10.9406 5.22468 10.8486 4.79386C10.6045 3.6506 9.81654 2.96706 8.55013 2.96706C7.07113 2.96706 6.13613 3.93606 6.13613 5.41506C6.13613 6.19706 6.40813 6.82606 6.71413 7.47206H9.42563C9.76833 7.47206 10.0461 7.74986 10.0461 8.09256C10.0461 8.43525 9.76833 8.71306 9.42563 8.71306H7.30913C7.53013 9.24006 7.68313 9.81806 7.68313 10.4811C7.68313 10.8381 7.63213 11.2121 7.56413 11.5521C8.29513 12.1641 9.02613 12.7591 9.99513 12.7591C10.8723 12.7591 11.339 12.3143 11.5072 11.4247C11.5755 11.0634 11.867 10.7701 12.2347 10.7701C12.6127 10.7701 12.9248 11.0781 12.8783 11.4532C12.6712 13.1228 11.6879 14.1871 10.1991 14.1871C8.83913 14.1871 7.88713 13.4561 7.10513 12.7421C6.62913 13.5751 5.86413 14.1871 4.87813 14.1871ZM4.11313 12.2491C4.11313 12.7421 4.45313 13.0311 4.91213 13.0311C5.49013 13.0311 5.91513 12.6061 6.15313 11.9261C5.77913 11.6371 5.42213 11.4331 5.01413 11.4331C4.48713 11.4331 4.11313 11.7221 4.11313 12.2491Z" fill="currentColor"/>
</svg>
