<svg width="16" height="16" viewBox="0 0 16 16" fill="none" xmlns="http://www.w3.org/2000/svg">
<path fill-rule="evenodd" clip-rule="evenodd" d="M8.00002 0.75C8.41423 0.75 8.75002 1.08579 8.75002 1.5L8.75002 2.58331H9.66669C11.3696 2.58331 12.75 3.96377 12.75 5.66665C12.75 6.52309 12.4008 7.29798 11.8371 7.85671C12.5933 8.41861 13.0834 9.31872 13.0834 10.3333C13.0834 12.0362 11.7029 13.4166 10 13.4166H8.75001L8.75 14.5C8.75 14.9142 8.41421 15.25 7.99999 15.25C7.58578 15.25 7.25 14.9142 7.25 14.5L7.25001 13.4166H4.66669C4.25247 13.4166 3.91669 13.0808 3.91669 12.6666V7.99994V3.33331C3.91669 2.9191 4.25247 2.58331 4.66669 2.58331H7.25002L7.25002 1.5C7.25002 1.08579 7.58581 0.75 8.00002 0.75ZM9.67987 7.24994C10.5483 7.24285 11.25 6.5367 11.25 5.66665C11.25 4.7922 10.5411 4.08331 9.66669 4.08331H8.00002H5.41669V7.24994H9.67987ZM5.41669 8.74995L9.66668 8.74999H9.66669C9.67283 8.74999 9.67897 8.74997 9.6851 8.74994H10C10.8745 8.74994 11.5834 9.45882 11.5834 10.3333C11.5834 11.2077 10.8745 11.9166 10 11.9166H8.00002H5.41669V8.74995Z" fill="currentColor"/>
</svg>
