<svg width="16" height="16" viewBox="0 0 16 16" fill="none" xmlns="http://www.w3.org/2000/svg">
<path fill-rule="evenodd" clip-rule="evenodd" d="M3.5 1.75C2.5335 1.75 1.75 2.5335 1.75 3.5V12.5C1.75 13.4665 2.5335 14.25 3.5 14.25H12.5C13.4665 14.25 14.25 13.4665 14.25 12.5V3.5C14.25 2.5335 13.4665 1.75 12.5 1.75H3.5ZM3.25 6.5V12.5C3.25 12.6381 3.36193 12.75 3.5 12.75H12.5C12.6381 12.75 12.75 12.6381 12.75 12.5V6.5H3.25ZM9 10.25C9 9.55964 9.55964 9 10.25 9C10.9404 9 11.5 9.55964 11.5 10.25C11.5 10.9404 10.9404 11.5 10.25 11.5C9.55964 11.5 9 10.9404 9 10.25Z" fill="currentColor"/>
</svg>
