<svg width="16" height="16" viewBox="0 0 16 16" fill="none" xmlns="http://www.w3.org/2000/svg">
<path fill-rule="evenodd" clip-rule="evenodd" d="M0.762826 2.28844C1.15578 2.15746 1.58052 2.36982 1.71151 2.76278L2.54059 5.24996H5.95945L6.78851 2.76278C6.89059 2.45653 7.1772 2.24996 7.50002 2.24996H15C15.2411 2.24996 15.4675 2.36585 15.6084 2.56142C15.7494 2.757 15.7878 3.00842 15.7115 3.23713L14.75 6.12166V13C14.75 13.4142 14.4142 13.75 14 13.75H6.50002H2.00002C1.58581 13.75 1.25002 13.4142 1.25002 13V6.12167L0.28849 3.23713C0.157502 2.84417 0.369869 2.41943 0.762826 2.28844ZM2.75002 6.74996V12.25H5.75002V6.74996H2.75002ZM7.25002 6.74996V12.25H13.25V6.74996H7.25002ZM13.4594 5.24996L13.9594 3.74996H8.04059L7.54059 5.24996H13.4594Z" fill="currentColor"/>
</svg>
