<svg width="16" height="16" viewBox="0 0 16 16" fill="none" xmlns="http://www.w3.org/2000/svg">
<path fill-rule="evenodd" clip-rule="evenodd" d="M7.25 5.5C7.25 3.15279 9.15279 1.25 11.5 1.25C13.8472 1.25 15.75 3.15279 15.75 5.5V13C15.75 13.1989 15.671 13.3897 15.5303 13.5303C15.3897 13.671 15.1989 13.75 15 13.75L1 13.75C0.585786 13.75 0.25 13.4142 0.25 13V4.00001C0.25 3.8011 0.329018 3.61033 0.469671 3.46968C0.610323 3.32903 0.801089 3.25001 1 3.25001L5 3.25002C5.41422 3.25002 5.75 3.58581 5.75 4.00002C5.75 4.41424 5.41421 4.75002 5 4.75002L1.75 4.75001V12.25L14.25 12.25V5.5C14.25 3.98122 13.0188 2.75 11.5 2.75C9.98121 2.75 8.75 3.98122 8.75 5.5V8.47257L10.4306 6.51193C10.7001 6.19743 11.1736 6.16101 11.4881 6.43058C11.8026 6.70014 11.839 7.17362 11.5694 7.48811L8.56944 10.9881C8.42696 11.1543 8.21894 11.25 8 11.25C7.78106 11.25 7.57304 11.1543 7.43056 10.9881L4.43055 7.48811C4.16099 7.17362 4.19741 6.70014 4.5119 6.43058C4.82639 6.16101 5.29987 6.19743 5.56944 6.51193L7.25 8.47258V5.5Z" fill="currentColor"/>
</svg>
