<svg width="16" height="16" viewBox="0 0 16 16" fill="none" xmlns="http://www.w3.org/2000/svg">
<path fill-rule="evenodd" clip-rule="evenodd" d="M0.25 5.5V2.5C0.25 2.30109 0.329018 2.11032 0.46967 1.96967C0.610322 1.82902 0.801088 1.75 1 1.75H4C4.41421 1.75 4.75 2.08579 4.75 2.5C4.75 2.91421 4.41421 3.25 4 3.25L1.75 3.25L1.75 5.5C1.75 5.91421 1.41421 6.25 1 6.25C0.585787 6.25 0.25 5.91421 0.25 5.5ZM11.25 2.5C11.25 2.08579 11.5858 1.75 12 1.75H15C15.4142 1.75 15.75 2.08579 15.75 2.5V5.5C15.75 5.91421 15.4142 6.25 15 6.25C14.5858 6.25 14.25 5.91421 14.25 5.5V3.25H12C11.5858 3.25 11.25 2.91421 11.25 2.5ZM3 5C3 4.72386 3.22386 4.5 3.5 4.5H12.5C12.7761 4.5 13 4.72386 13 5V11C13 11.2761 12.7761 11.5 12.5 11.5H3.5C3.22386 11.5 3 11.2761 3 11V5ZM4.25002 6.5C4.25002 6.08579 4.58581 5.75 5.00002 5.75H8.00002C8.41423 5.75 8.75002 6.08579 8.75002 6.5C8.75002 6.91421 8.41423 7.25 8.00002 7.25H5.00002C4.58581 7.25 4.25002 6.91421 4.25002 6.5ZM5 8.75C4.58579 8.75 4.25 9.08579 4.25 9.5C4.25 9.91421 4.58579 10.25 5 10.25H11C11.4142 10.25 11.75 9.91421 11.75 9.5C11.75 9.08579 11.4142 8.75 11 8.75H5ZM14.25 10.5V12.75H12C11.5858 12.75 11.25 13.0858 11.25 13.5C11.25 13.9142 11.5858 14.25 12 14.25H15C15.1989 14.25 15.3897 14.171 15.5303 14.0303C15.671 13.8897 15.75 13.6989 15.75 13.5V10.5C15.75 10.0858 15.4142 9.75 15 9.75C14.5858 9.75 14.25 10.0858 14.25 10.5ZM4 14.25C4.41421 14.25 4.75 13.9142 4.75 13.5C4.75 13.0858 4.41421 12.75 4 12.75H1.75L1.75 10.5C1.75 10.0858 1.41421 9.75 1 9.75C0.585787 9.75 0.25 10.0858 0.25 10.5V13.5C0.25 13.9142 0.585787 14.25 1 14.25H4Z" fill="currentColor"/>
</svg>
