<svg width="16" height="16" viewBox="0 0 16 16" fill="none" xmlns="http://www.w3.org/2000/svg">
<path fill-rule="evenodd" clip-rule="evenodd" d="M1 6.25C0.585786 6.25 0.25 5.91421 0.25 5.5V2.5C0.25 2.30109 0.329017 2.11032 0.46967 1.96967C0.610322 1.82902 0.801087 1.75 1 1.75H4C4.41421 1.75 4.75 2.08579 4.75 2.5C4.75 2.91421 4.41421 3.25 4 3.25L1.75 3.25L1.75 5.5C1.75 5.91421 1.41421 6.25 1 6.25ZM12 1.75C11.5858 1.75 11.25 2.08579 11.25 2.5C11.25 2.91421 11.5858 3.25 12 3.25H14.25V5.5C14.25 5.91421 14.5858 6.25 15 6.25C15.4142 6.25 15.75 5.91421 15.75 5.5V2.5C15.75 2.08579 15.4142 1.75 15 1.75H12ZM14.25 10.5V12.75H12C11.5858 12.75 11.25 13.0858 11.25 13.5C11.25 13.9142 11.5858 14.25 12 14.25H15C15.4142 14.25 15.75 13.9142 15.75 13.5V10.5C15.75 10.0858 15.4142 9.75 15 9.75C14.5858 9.75 14.25 10.0858 14.25 10.5ZM4 14.25C4.41421 14.25 4.75 13.9142 4.75 13.5C4.75 13.0858 4.41421 12.75 4 12.75H1.75L1.75 10.5C1.75 10.0858 1.41421 9.75 1 9.75C0.585787 9.75 0.25 10.0858 0.25 10.5V13.5C0.25 13.9142 0.585787 14.25 1 14.25H4ZM4.5 4.75C4.91421 4.75 5.25 5.08579 5.25 5.5V10.5C5.25 10.9142 4.91421 11.25 4.5 11.25C4.08579 11.25 3.75 10.9142 3.75 10.5V5.5C3.75 5.08579 4.08579 4.75 4.5 4.75ZM7.5 5.49999C7.5 5.22385 7.27614 4.99999 7 4.99999C6.72386 4.99999 6.5 5.22385 6.5 5.49999V10.5C6.5 10.7761 6.72386 11 7 11C7.27614 11 7.5 10.7761 7.5 10.5V5.49999ZM9.5 4.75C9.91421 4.75 10.25 5.08579 10.25 5.5V10.5C10.25 10.9142 9.91421 11.25 9.5 11.25C9.08579 11.25 8.75 10.9142 8.75 10.5V5.5C8.75 5.08579 9.08579 4.75 9.5 4.75ZM12.5 5.5C12.5 5.22386 12.2761 5 12 5C11.7239 5 11.5 5.22386 11.5 5.5V10.5C11.5 10.7761 11.7239 11 12 11C12.2761 11 12.5 10.7761 12.5 10.5V5.5Z" fill="currentColor"/>
</svg>
