<svg width="16" height="16" viewBox="0 0 16 16" fill="none" xmlns="http://www.w3.org/2000/svg">
<path fill-rule="evenodd" clip-rule="evenodd" d="M10.2263 1.75038C12.0232 1.72559 13.4535 3.15592 13.4287 4.95281C13.423 5.36698 13.7541 5.70737 14.1683 5.71308C14.5824 5.7188 14.9228 5.38768 14.9285 4.9735C14.965 2.33207 12.847 0.214078 10.2056 0.250524C9.79145 0.256239 9.46033 0.596626 9.46604 1.0108C9.47176 1.42497 9.81214 1.7561 10.2263 1.75038ZM10.1894 4.42909C10.5068 4.42471 10.7543 4.67226 10.75 4.98972C10.7443 5.40389 11.0754 5.74428 11.4895 5.74999C11.9037 5.75571 12.2441 5.42458 12.2498 5.01041C12.2659 3.84842 11.3307 2.9132 10.1687 2.92923C9.75449 2.93495 9.42337 3.27534 9.42908 3.68951C9.4348 4.10368 9.77518 4.4348 10.1894 4.42909ZM3.75008 3.50015C3.75008 3.36208 3.862 3.25015 4.00008 3.25015H7.49995C7.91417 3.25015 8.24995 2.91436 8.24995 2.50015C8.24995 2.08594 7.91417 1.75015 7.49995 1.75015H4.00008C3.03358 1.75015 2.25008 2.53365 2.25008 3.50015V13.5001C2.25008 14.4666 3.03359 15.2502 4.00009 15.2501L11.0001 15.2501C11.9666 15.2501 12.7501 14.4666 12.7501 13.5001V8.00003C12.7501 7.58581 12.4143 7.25003 12.0001 7.25003C11.5859 7.25003 11.2501 7.58581 11.2501 8.00003V13.5001C11.2501 13.6381 11.1381 13.7501 11.0001 13.7501L4.00008 13.7501C3.86201 13.7501 3.75008 13.6382 3.75008 13.5001V3.50015Z" fill="currentColor"/>
</svg>
