<svg width="16" height="16" viewBox="0 0 16 16" fill="none" xmlns="http://www.w3.org/2000/svg">
<path fill-rule="evenodd" clip-rule="evenodd" d="M4.5 1.25C3.5335 1.25 2.75 2.0335 2.75 3V13C2.75 13.9665 3.5335 14.75 4.5 14.75H11.5C12.4665 14.75 13.25 13.9665 13.25 13V3C13.25 2.0335 12.4665 1.25 11.5 1.25H4.5ZM4.25 3C4.25 2.86193 4.36193 2.75 4.5 2.75H11.5C11.6381 2.75 11.75 2.86193 11.75 3V13C11.75 13.1381 11.6381 13.25 11.5 13.25H4.5C4.36193 13.25 4.25 13.1381 4.25 13V3ZM7 3.75C6.58579 3.75 6.25 4.08579 6.25 4.5C6.25 4.91421 6.58579 5.25 7 5.25H9C9.41421 5.25 9.75 4.91421 9.75 4.5C9.75 4.08579 9.41421 3.75 9 3.75H7Z" fill="currentColor"/>
</svg>
