<svg width="16" height="16" viewBox="0 0 16 16" fill="none" xmlns="http://www.w3.org/2000/svg">
<path fill-rule="evenodd" clip-rule="evenodd" d="M1.76691 3.5C1.76691 2.5335 2.55041 1.75 3.51691 1.75H12.4831C13.4496 1.75 14.2331 2.5335 14.2331 3.5V9.45928L15.699 13.2281C15.7887 13.4589 15.7588 13.7191 15.619 13.9234C15.4792 14.1278 15.2476 14.25 15 14.25H1C0.752405 14.25 0.520761 14.1278 0.380971 13.9234C0.241181 13.7191 0.211261 13.4589 0.301015 13.2281L1.76691 9.45928V3.5ZM3.02993 10.35L2.09645 12.75H13.9036L12.9701 10.35H3.02993ZM12.7331 8.85V3.5C12.7331 3.36193 12.6212 3.25 12.4831 3.25H3.51691C3.37884 3.25 3.26691 3.36193 3.26691 3.5V8.85H12.7331Z" fill="currentColor"/>
</svg>
