<svg width="16" height="16" viewBox="0 0 16 16" fill="none" xmlns="http://www.w3.org/2000/svg">
<path fill-rule="evenodd" clip-rule="evenodd" d="M1.25 3.5C1.25 2.5335 2.0335 1.75 3 1.75H13C13.9665 1.75 14.75 2.5335 14.75 3.5V9.5C14.75 10.4665 13.9665 11.25 13 11.25H8.75V13.25H11C11.4142 13.25 11.75 13.5858 11.75 14C11.75 14.4142 11.4142 14.75 11 14.75H8H5C4.58579 14.75 4.25 14.4142 4.25 14C4.25 13.5858 4.58579 13.25 5 13.25H7.25V11.25H3C2.0335 11.25 1.25 10.4665 1.25 9.5V3.5ZM13 9.75H8H3C2.86193 9.75 2.75 9.63807 2.75 9.5V3.5C2.75 3.36193 2.86193 3.25 3 3.25H13C13.1381 3.25 13.25 3.36193 13.25 3.5V9.5C13.25 9.63807 13.1381 9.75 13 9.75Z" fill="currentColor"/>
</svg>
