<svg width="16" height="16" viewBox="0 0 16 16" fill="none" xmlns="http://www.w3.org/2000/svg">
<path fill-rule="evenodd" clip-rule="evenodd" d="M8.65984 1.90082C8.71785 1.84282 8.80062 1.81696 8.88134 1.83163L13.355 2.64502L14.1684 7.11866C14.183 7.19938 14.1572 7.28215 14.0992 7.34016L7.5 13.9393L2.06066 8.49993L8.65984 1.90082ZM9.14966 0.355828C8.58467 0.253103 8.00524 0.434103 7.59918 0.840158L0.469673 7.96959C0.32902 8.11025 0.25 8.30101 0.25 8.49992C0.25 8.69884 0.329018 8.8896 0.469671 9.03026L6.96967 15.5303C7.26256 15.8231 7.73743 15.8231 8.03033 15.5303L15.1598 8.40083C15.5659 7.99477 15.7469 7.41533 15.6442 6.85033L14.7379 1.86584C14.682 1.5585 14.4415 1.31798 14.1342 1.2621L9.14966 0.355828ZM9.73224 6.26777C10.2204 6.75592 11.0119 6.75592 11.5 6.26777C11.9882 5.77961 11.9882 4.98816 11.5 4.5C11.0119 4.01185 10.2204 4.01185 9.73224 4.5C9.24408 4.98816 9.24408 5.77961 9.73224 6.26777Z" fill="currentColor"/>
</svg>
