<svg width="16" height="16" viewBox="0 0 16 16" fill="none" xmlns="http://www.w3.org/2000/svg">
<path fill-rule="evenodd" clip-rule="evenodd" d="M2.75 8C2.75 5.1005 5.10051 2.75 8 2.75C10.8995 2.75 13.25 5.1005 13.25 8C13.25 8.41421 13.5858 8.75 14 8.75C14.4142 8.75 14.75 8.41421 14.75 8C14.75 4.27208 11.7279 1.25 8 1.25C4.27208 1.25 1.25 4.27208 1.25 8C1.25 8.41421 1.58579 8.75 2 8.75C2.41421 8.75 2.75 8.41421 2.75 8ZM8.33883 9.25L6.81067 9.25L11.0303 13.4697C11.3232 13.7626 11.3232 14.2374 11.0303 14.5303C10.7374 14.8232 10.2626 14.8232 9.96968 14.5303L5.75 10.3107L5.75 11.8787C5.75 12.2929 5.41422 12.6287 5 12.6287C4.58579 12.6287 4.25 12.2929 4.25 11.8787L4.25 8.5C4.25 8.30109 4.32902 8.11032 4.46968 7.96967C4.61033 7.82902 4.80109 7.75 5.00001 7.75L8.33883 7.75001C8.75304 7.75001 9.08883 8.08579 9.08883 8.50001C9.08883 8.91422 8.75304 9.25001 8.33883 9.25Z" fill="currentColor"/>
</svg>
