<svg width="16" height="16" viewBox="0 0 16 16" fill="none" xmlns="http://www.w3.org/2000/svg">
<path fill-rule="evenodd" clip-rule="evenodd" d="M3.5 4C3.5 3.72386 3.72386 3.5 4 3.5C4.27614 3.5 4.5 3.72386 4.5 4C4.5 4.27614 4.27614 4.5 4 4.5C3.72386 4.5 3.5 4.27614 3.5 4ZM2 4C2 2.89543 2.89543 2 4 2C5.10457 2 6 2.89543 6 4C6 5.10457 5.10457 6 4 6C2.89543 6 2 5.10457 2 4ZM2.46967 13.5303C2.17678 13.2374 2.17678 12.7626 2.46967 12.4697L12.4697 2.46967C12.7626 2.17678 13.2374 2.17678 13.5303 2.46967C13.8232 2.76256 13.8232 3.23744 13.5303 3.53033L3.53033 13.5303C3.23744 13.8232 2.76256 13.8232 2.46967 13.5303ZM12 11.5C11.7239 11.5 11.5 11.7239 11.5 12C11.5 12.2761 11.7239 12.5 12 12.5C12.2761 12.5 12.5 12.2761 12.5 12C12.5 11.7239 12.2761 11.5 12 11.5ZM12 10C10.8954 10 10 10.8954 10 12C10 13.1046 10.8954 14 12 14C13.1046 14 14 13.1046 14 12C14 10.8954 13.1046 10 12 10Z" fill="currentColor"/>
</svg>
