<svg width="16" height="16" viewBox="0 0 16 16" fill="none" xmlns="http://www.w3.org/2000/svg">
<path fill-rule="evenodd" clip-rule="evenodd" d="M2.75 8C2.75 5.1005 5.10051 2.75 8 2.75C10.8995 2.75 13.25 5.1005 13.25 8C13.25 8.41421 13.5858 8.75 14 8.75C14.4142 8.75 14.75 8.41421 14.75 8C14.75 4.27208 11.7279 1.25 8 1.25C4.27208 1.25 1.25 4.27208 1.25 8C1.25 8.41421 1.58579 8.75 2 8.75C2.41421 8.75 2.75 8.41421 2.75 8ZM7.66118 9.25001L9.18934 9.25L4.96967 13.4697C4.67678 13.7626 4.67678 14.2374 4.96967 14.5303C5.26256 14.8232 5.73744 14.8232 6.03033 14.5303L10.25 10.3107L10.25 11.8787C10.25 12.2929 10.5858 12.6287 11 12.6287C11.4142 12.6287 11.75 12.2929 11.75 11.8787L11.75 8.5C11.75 8.30109 11.671 8.11032 11.5303 7.96967C11.3897 7.82902 11.1989 7.75 11 7.75L7.66117 7.75001C7.24696 7.75001 6.91117 8.08579 6.91117 8.50001C6.91118 8.91422 7.24696 9.25001 7.66118 9.25001Z" fill="currentColor"/>
</svg>
