<svg width="16" height="16" viewBox="0 0 16 16" fill="none" xmlns="http://www.w3.org/2000/svg">
<path fill-rule="evenodd" clip-rule="evenodd" d="M9.09076 0.969609C9.38366 0.676716 9.85853 0.676716 10.1514 0.969609L10.842 1.66018L10.8436 1.66182L13.1644 3.98255L13.1664 3.98454L13.7362 4.55438C14.0291 4.84728 14.0291 5.32215 13.7362 5.61504C13.4433 5.90794 12.9684 5.90794 12.6755 5.61504L12.6332 5.57273L11.1295 7.06857L15.0303 10.9696C15.3232 11.2625 15.3232 11.7374 15.0303 12.0303C14.7374 12.3232 14.2625 12.3232 13.9697 12.0303L10.066 8.12643L8.56206 9.62244L8.6151 9.67548C8.908 9.96837 8.908 10.4432 8.6151 10.7361C8.32221 11.029 7.84734 11.029 7.55444 10.7361L6.97013 10.1518L6.96827 10.15L4.6473 7.82899L4.64555 7.82724L3.96967 7.15136C3.67678 6.85847 3.67678 6.3836 3.96967 6.0907C4.26256 5.79781 4.73744 5.79781 5.03033 6.0907L5.17868 6.23905L9.24984 2.18935L9.09076 2.03027C8.79787 1.73738 8.79787 1.2625 9.09076 0.969609ZM10.3105 3.25001L6.23934 7.29972L7.5014 8.56177L11.5726 4.51207L10.3105 3.25001ZM1.25 14C1.25 13.5858 1.58579 13.25 2 13.25H2.29268C2.26504 13.1719 2.25 13.0877 2.25 13C2.25 12.5858 2.58579 12.25 3 12.25H8C8.41421 12.25 8.75 12.5858 8.75 13C8.75 13.0877 8.73496 13.1719 8.70732 13.25H9C9.41421 13.25 9.75 13.5858 9.75 14C9.75 14.4143 9.41421 14.75 9 14.75H2C1.58579 14.75 1.25 14.4143 1.25 14Z" fill="currentColor"/>
</svg>
