<svg width="16" height="16" viewBox="0 0 16 16" fill="none" xmlns="http://www.w3.org/2000/svg">
<path fill-rule="evenodd" clip-rule="evenodd" d="M2.5 0.75C2.08579 0.75 1.75 1.08579 1.75 1.5V14.5C1.75 14.9142 2.08579 15.25 2.5 15.25H6.03571C6.44993 15.25 6.78571 14.9142 6.78571 14.5C6.78571 14.0858 6.44993 13.75 6.03571 13.75H3.25V2.25H12.75V4.19883C12.75 4.61304 13.0858 4.94883 13.5 4.94883C13.9142 4.94883 14.25 4.61304 14.25 4.19883V1.5C14.25 1.08579 13.9142 0.75 13.5 0.75H2.5ZM15.7375 7.13555C15.781 6.89903 15.7084 6.65603 15.5424 6.48209C15.3763 6.30816 15.1369 6.2244 14.8987 6.25686L14.9999 7C14.8987 6.25686 14.8983 6.25691 14.8979 6.25696L14.8972 6.25706L14.8955 6.25729L14.8917 6.25783L14.882 6.25927L14.8546 6.26366C14.8328 6.26732 14.804 6.2725 14.7688 6.27961C14.6983 6.29381 14.6019 6.31571 14.4836 6.3485C14.2473 6.41403 13.9227 6.52333 13.5437 6.70208C12.7838 7.06046 11.8088 7.69642 10.8928 8.80898C10.0503 9.83211 9.48654 10.9521 9.13448 11.8048C8.95746 12.2336 8.83151 12.6008 8.7492 12.8632C8.708 12.9946 8.67761 13.1001 8.65712 13.1743C8.64687 13.2115 8.63909 13.2409 8.63367 13.2618L8.62728 13.2868L8.62538 13.2944L8.62475 13.2969L8.62452 13.2979L8.62442 13.2983C8.62437 13.2985 8.62433 13.2987 9.34869 13.4751L8.62429 13.2986L8.62238 13.3069L8.26926 14.8307C8.17575 15.2342 8.42706 15.6371 8.83058 15.7306C9.2341 15.8241 9.63702 15.5728 9.73053 15.1693L9.96304 14.166C10.2553 14.1224 10.6407 14.047 11.0718 13.9162C12.0014 13.6343 13.1968 13.0787 14.1036 11.9774C15.0917 10.7773 15.3529 9.30145 15.6348 7.70877C15.6683 7.51926 15.7022 7.3281 15.7375 7.13555ZM12.0507 9.76244C12.7445 8.91991 13.4643 8.42389 14.0303 8.13411C13.7894 9.40518 13.5575 10.2808 12.9456 11.024C12.2933 11.8162 11.4029 12.2484 10.6365 12.4808C10.5759 12.4992 10.5165 12.5162 10.4583 12.5319C10.4783 12.4815 10.4992 12.4299 10.521 12.3772C10.8385 11.6082 11.3341 10.6329 12.0507 9.76244ZM5.25 5.5C5.25 5.08579 5.58579 4.75 6 4.75H10C10.4142 4.75 10.75 5.08579 10.75 5.5C10.75 5.91421 10.4142 6.25 10 6.25H6C5.58579 6.25 5.25 5.91421 5.25 5.5ZM6 8.25C5.58579 8.25 5.25 8.58579 5.25 9C5.25 9.41421 5.58579 9.75 6 9.75H8C8.41421 9.75 8.75 9.41421 8.75 9C8.75 8.58579 8.41421 8.25 8 8.25H6Z" fill="currentColor"/>
</svg>
