<svg width="16" height="16" viewBox="0 0 16 16" fill="none" xmlns="http://www.w3.org/2000/svg">
<path fill-rule="evenodd" clip-rule="evenodd" d="M2.5 0.75C2.08579 0.75 1.75 1.08579 1.75 1.5V14.5C1.75 14.9142 2.08579 15.25 2.5 15.25H13.5C13.9142 15.25 14.25 14.9142 14.25 14.5V5.63636C14.25 5.45303 14.1828 5.27605 14.0612 5.13886L10.3946 1.00249C10.2522 0.841915 10.0479 0.75 9.83333 0.75H2.5ZM3.25 13.75V2.25H9.49592L12.75 5.92093V13.75H3.25ZM5.25 6.00002C5.25 5.58581 5.58579 5.25002 6 5.25002H8.5C8.91422 5.25002 9.25 5.58581 9.25 6.00002C9.25 6.41424 8.91422 6.75002 8.5 6.75002H6C5.58579 6.75002 5.25 6.41424 5.25 6.00002ZM5.25 9.49998C5.25 9.08576 5.58578 8.74998 6 8.74998H10C10.4142 8.74998 10.75 9.08576 10.75 9.49998C10.75 9.91419 10.4142 10.25 10 10.25H6C5.58578 10.25 5.25 9.91419 5.25 9.49998Z" fill="currentColor"/>
</svg>
