<svg width="16" height="16" viewBox="0 0 16 16" fill="none" xmlns="http://www.w3.org/2000/svg">
<path fill-rule="evenodd" clip-rule="evenodd" d="M8.49994 2.25H14.4999C14.9142 2.25 15.2499 2.58579 15.2499 3V6.5V9.75V13C15.2499 13.4142 14.9142 13.75 14.4999 13.75H8.49994H1.49994C1.08573 13.75 0.749939 13.4142 0.749939 13V6.5V3C0.749939 2.58579 1.08573 2.25 1.49994 2.25H8.49994ZM2.24994 7.25V12.25H7.74994V9.75V7.25H2.24994ZM9.24994 12.25H13.7499V10.5H9.24994V12.25ZM13.7499 9V7.25H9.24994V9H13.7499ZM13.7499 5.75V3.75H9.24994V5.75H13.7499ZM7.74994 3.75V5.75H2.24994V3.75H7.74994Z" fill="currentColor"/>
</svg>
