<svg width="16" height="16" viewBox="0 0 16 16" fill="none" xmlns="http://www.w3.org/2000/svg">
<path fill-rule="evenodd" clip-rule="evenodd" d="M1.75 1.5C1.75 1.08579 2.08579 0.75 2.5 0.75H13.5C13.9142 0.75 14.25 1.08579 14.25 1.5V6C14.25 6.41421 13.9142 6.75 13.5 6.75C13.0858 6.75 12.75 6.41421 12.75 6V2.25H3.25V13.75H8.5C8.91421 13.75 9.25 14.0858 9.25 14.5C9.25 14.9142 8.91421 15.25 8.5 15.25H2.5C2.08579 15.25 1.75 14.9142 1.75 14.5V1.5ZM13 9.75C12.3096 9.75 11.75 10.3096 11.75 11C11.75 11.6904 12.3096 12.25 13 12.25C13.6904 12.25 14.25 11.6904 14.25 11C14.25 10.3096 13.6904 9.75 13 9.75ZM10.25 11C10.25 9.48122 11.4812 8.25 13 8.25C14.5188 8.25 15.75 9.48122 15.75 11C15.75 11.7308 15.465 12.395 15 12.8875V15.5C15 15.706 14.7648 15.8236 14.6 15.7L13.15 14.6125C13.0611 14.5458 12.9389 14.5458 12.85 14.6125L11.4 15.7C11.2352 15.8236 11 15.706 11 15.5V12.8875C10.535 12.395 10.25 11.7308 10.25 11ZM5.25 6C5.25 5.58579 5.58579 5.25 6 5.25H10C10.4142 5.25 10.75 5.58579 10.75 6C10.75 6.41421 10.4142 6.75 10 6.75H6C5.58579 6.75 5.25 6.41421 5.25 6ZM6 8.75C5.58579 8.75 5.25 9.08579 5.25 9.5C5.25 9.91421 5.58579 10.25 6 10.25H8C8.41421 10.25 8.75 9.91421 8.75 9.5C8.75 9.08579 8.41421 8.75 8 8.75H6Z" fill="currentColor"/>
</svg>
