<svg width="16" height="16" viewBox="0 0 16 16" fill="none" xmlns="http://www.w3.org/2000/svg">
<path fill-rule="evenodd" clip-rule="evenodd" d="M1.49997 2.25C1.08576 2.25 0.749969 2.58579 0.749969 3V13C0.749969 13.4142 1.08576 13.75 1.49997 13.75H14.5C14.9142 13.75 15.25 13.4142 15.25 13V3C15.25 2.58579 14.9142 2.25 14.5 2.25H1.49997ZM2.24997 12.25V3.75H13.75V12.25H2.24997ZM4.99997 5.75C4.58576 5.75 4.24997 6.08579 4.24997 6.5C4.24997 6.91421 4.58576 7.25 4.99997 7.25H11C11.4142 7.25 11.75 6.91421 11.75 6.5C11.75 6.08579 11.4142 5.75 11 5.75H4.99997ZM4.99997 8.75C4.58576 8.75 4.24997 9.08579 4.24997 9.5C4.24997 9.91421 4.58576 10.25 4.99997 10.25H6.99997C7.41418 10.25 7.74997 9.91421 7.74997 9.5C7.74997 9.08579 7.41418 8.75 6.99997 8.75H4.99997Z" fill="currentColor"/>
</svg>
