<svg width="16" height="16" viewBox="0 0 16 16" fill="none" xmlns="http://www.w3.org/2000/svg">
<path fill-rule="evenodd" clip-rule="evenodd" d="M8.75001 2C8.75001 1.58579 8.41423 1.25 8.00001 1.25C7.5858 1.25 7.25001 1.58579 7.25001 2L7.25001 8.18935L6.03033 6.96967C5.73743 6.67678 5.26256 6.67678 4.96967 6.96967C4.67678 7.26257 4.67678 7.73744 4.96967 8.03033L7.46969 10.5303C7.61034 10.671 7.8011 10.75 8.00002 10.75C8.19893 10.75 8.38969 10.671 8.53035 10.5303L11.0303 8.03033C11.3232 7.73743 11.3232 7.26256 11.0303 6.96967C10.7374 6.67678 10.2626 6.67678 9.96967 6.96967L8.75001 8.18933L8.75001 2ZM2.75 11C2.75 10.5858 2.41421 10.25 2 10.25C1.58579 10.25 1.25 10.5858 1.25 11V14C1.25 14.4142 1.58579 14.75 2 14.75H14C14.4142 14.75 14.75 14.4142 14.75 14V11C14.75 10.5858 14.4142 10.25 14 10.25C13.5858 10.25 13.25 10.5858 13.25 11V13.25H2.75V11Z" fill="currentColor"/>
</svg>
