<svg width="16" height="16" viewBox="0 0 16 16" fill="none" xmlns="http://www.w3.org/2000/svg">
<path d="M8.00033 10.3827C7.91144 10.3827 7.8281 10.3689 7.75033 10.3414C7.67255 10.3138 7.60033 10.2665 7.53366 10.1994L5.13366 7.79935C5.00033 7.66602 4.93633 7.51046 4.94166 7.33268C4.94699 7.15491 5.01099 6.99935 5.13366 6.86602C5.26699 6.73268 5.42544 6.66335 5.60899 6.65802C5.79255 6.65268 5.95077 6.71646 6.08366 6.84935L7.33366 8.09935V3.33268C7.33366 3.1438 7.39766 2.98557 7.52566 2.85802C7.65366 2.73046 7.81188 2.66646 8.00033 2.66602C8.18877 2.66557 8.34721 2.72957 8.47566 2.85802C8.6041 2.98646 8.66788 3.14468 8.66699 3.33268V8.09935L9.91699 6.84935C10.0503 6.71602 10.2088 6.65202 10.3923 6.65735C10.5759 6.66268 10.7341 6.73224 10.867 6.86602C10.9892 6.99935 11.0532 7.15491 11.059 7.33268C11.0648 7.51046 11.0008 7.66602 10.867 7.79935L8.46699 10.1994C8.40033 10.266 8.3281 10.3134 8.25033 10.3414C8.17255 10.3694 8.08921 10.3831 8.00033 10.3827ZM4.00033 13.3327C3.63366 13.3327 3.31988 13.2022 3.05899 12.9414C2.7981 12.6805 2.66744 12.3665 2.66699 11.9994V10.666C2.66699 10.4771 2.73099 10.3189 2.85899 10.1914C2.98699 10.0638 3.14521 9.9998 3.33366 9.99935C3.5221 9.99891 3.68055 10.0629 3.80899 10.1914C3.93744 10.3198 4.00121 10.478 4.00033 10.666V11.9994H12.0003V10.666C12.0003 10.4771 12.0643 10.3189 12.1923 10.1914C12.3203 10.0638 12.4785 9.9998 12.667 9.99935C12.8554 9.99891 13.0139 10.0629 13.1423 10.1914C13.2708 10.3198 13.3345 10.478 13.3337 10.666V11.9994C13.3337 12.366 13.2032 12.68 12.9423 12.9414C12.6814 13.2027 12.3674 13.3331 12.0003 13.3327H4.00033Z" fill="black"/>
</svg>
