<svg width="16" height="16" viewBox="0 0 16 16" fill="none" xmlns="http://www.w3.org/2000/svg">
<path fill-rule="evenodd" clip-rule="evenodd" d="M14.972 3.25033C15.386 3.23818 15.7315 3.56396 15.7437 3.978C15.7565 4.41528 15.7604 4.98148 15.6506 5.51352C15.5413 6.04276 15.2944 6.65914 14.7069 7.04621C13.8861 7.58688 13.0544 7.57112 12.3163 7.30812C11.6279 7.06281 10.9913 6.59239 10.4709 6.19737C10.4198 6.15865 10.37 6.12069 10.3211 6.08353C9.82581 5.70657 9.43931 5.41243 9.08318 5.25158C8.90171 5.16962 8.77986 5.14835 8.69976 5.15083C8.63524 5.15282 8.56307 5.17015 8.46511 5.24759L8.46502 5.24766C8.41654 5.28599 8.29294 5.38369 8.46918 5.941C8.62429 6.43147 8.93099 7.00288 9.28683 7.66587C9.32568 7.73825 9.36512 7.81172 9.40501 7.8863C9.78077 8.58885 10.208 9.40966 10.3593 10.1657C10.4375 10.556 10.4562 10.9903 10.3133 11.4131C10.1639 11.8548 9.86242 12.2111 9.43249 12.466C8.9788 12.735 8.49903 12.8051 8.02824 12.7092C7.58353 12.6186 7.18787 12.3888 6.84769 12.1314C6.29737 11.715 5.73914 11.1006 5.21882 10.5279C5.11446 10.413 5.01163 10.2998 4.91069 10.1903C4.26467 9.48899 3.66087 8.89092 3.04523 8.55344C2.47631 8.24158 1.94322 8.17321 1.3322 8.4751C0.960837 8.65858 0.511052 8.50627 0.327575 8.1349C0.144098 7.76354 0.296408 7.31376 0.66777 7.13028C1.806 6.56792 2.86225 6.74255 3.76626 7.2381C4.62356 7.70804 5.3763 8.48181 6.01392 9.17397C6.13466 9.30503 6.25095 9.43269 6.36348 9.55622C6.88424 10.1279 7.32456 10.6112 7.75273 10.9352C8.00326 11.1247 8.19095 11.2115 8.32769 11.2394C8.43835 11.2619 8.53813 11.2524 8.66752 11.1757C8.82067 11.0849 8.86904 11.0013 8.8923 10.9326C8.92198 10.8448 8.93613 10.6981 8.8885 10.4602C8.78832 9.95979 8.47925 9.3359 8.08231 8.59375C8.04223 8.51881 8.00117 8.44252 7.95951 8.36514C7.61925 7.73303 7.23969 7.02793 7.03899 6.39327C6.81803 5.69454 6.70869 4.72398 7.5349 4.07086C7.87425 3.8026 8.25353 3.66392 8.65337 3.65155C9.03764 3.63965 9.39308 3.74565 9.7006 3.88455C10.2241 4.12096 10.7556 4.52729 11.2145 4.87809C11.27 4.92052 11.3245 4.96213 11.3777 5.00253C11.9192 5.4135 12.3817 5.73902 12.8199 5.89516C13.2084 6.03362 13.5307 6.02483 13.8817 5.79358C13.9938 5.71971 14.1095 5.5592 14.1816 5.21026C14.253 4.86411 14.2569 4.45084 14.2443 4.02201C14.2322 3.60798 14.558 3.26248 14.972 3.25033Z" fill="currentColor"/>
</svg>
