<svg width="16" height="16" viewBox="0 0 16 16" fill="none" xmlns="http://www.w3.org/2000/svg">
<path fill-rule="evenodd" clip-rule="evenodd" d="M15.5 10.76C15.5 11.45 14.94 12.01 14.25 12.01H4.62305C3.93305 12.01 3.37305 11.45 3.37305 10.76V2.75C3.37305 2.06 3.93305 1.5 4.62305 1.5H14.25C14.94 1.5 15.5 2.06 15.5 2.75V10.76ZM14.25 10.76H4.62305V2.75H14.25V10.76Z" fill="black"/>
<path d="M1.75 13.25H11.365V12.63H12.615V13.25C12.615 13.94 12.055 14.5 11.365 14.5H1.75C1.06 14.5 0.5 13.94 0.5 13.25V5.25C0.5 4.56 1.06 4 1.75 4H2.755V5.25H1.75V13.25Z" fill="black"/>
</svg>
