<svg width="16" height="16" viewBox="0 0 16 16" fill="none" xmlns="http://www.w3.org/2000/svg">
<path fill-rule="evenodd" clip-rule="evenodd" d="M10.9871 1.25011C11.1904 1.24661 11.3865 1.32585 11.5303 1.46967L14.0303 3.96967C14.3161 4.25545 14.324 4.71628 14.0483 5.01174L7.04825 12.5117C6.9553 12.6113 6.83698 12.6837 6.706 12.7211L3.20606 13.7211C2.94417 13.796 2.66229 13.7229 2.46969 13.5303C2.27709 13.3377 2.20405 13.0559 2.27887 12.794L3.27881 9.29397C3.31142 9.17983 3.37067 9.07505 3.45167 8.98826L10.4517 1.48826C10.5905 1.33957 10.7837 1.25362 10.9871 1.25011ZM11.0186 3.07926L4.67149 9.8797L4.09201 11.908L6.09372 11.3361L12.4573 4.51797L11.0186 3.07926Z" fill="currentColor"/>
</svg>
