<svg width="16" height="16" viewBox="0 0 16 16" fill="none" xmlns="http://www.w3.org/2000/svg">
<path fill-rule="evenodd" clip-rule="evenodd" d="M2.38128 2.38128C2.72299 2.03957 3.27701 2.03957 3.61872 2.38128L8 6.76256L12.3813 2.38128C12.723 2.03957 13.277 2.03957 13.6187 2.38128C13.9604 2.72299 13.9604 3.27701 13.6187 3.61872L9.23744 8L13.6187 12.3813C13.9604 12.723 13.9604 13.277 13.6187 13.6187C13.277 13.9604 12.723 13.9604 12.3813 13.6187L8 9.23744L3.61872 13.6187C3.27701 13.9604 2.72299 13.9604 2.38128 13.6187C2.03957 13.277 2.03957 12.723 2.38128 12.3813L6.76256 8L2.38128 3.61872C2.03957 3.27701 2.03957 2.72299 2.38128 2.38128Z" fill="currentColor"/>
</svg>
