<svg width="16" height="16" viewBox="0 0 16 16" fill="none" xmlns="http://www.w3.org/2000/svg">
<path fill-rule="evenodd" clip-rule="evenodd" d="M15 8C15 11.866 11.866 15 8 15C4.13401 15 1 11.866 1 8C1 4.13401 4.13401 1 8 1C11.866 1 15 4.13401 15 8ZM4.96967 4.96967C5.26256 4.67678 5.73744 4.67678 6.03033 4.96967L8 6.93934L9.96967 4.96967C10.2626 4.67677 10.7374 4.67678 11.0303 4.96967C11.3232 5.26257 11.3232 5.73744 11.0303 6.03033L9.06066 8L11.0303 9.96967C11.3232 10.2626 11.3232 10.7374 11.0303 11.0303C10.7374 11.3232 10.2626 11.3232 9.96967 11.0303L8 9.06066L6.03033 11.0303C5.73744 11.3232 5.26257 11.3232 4.96967 11.0303C4.67678 10.7374 4.67677 10.2626 4.96967 9.96967L6.93934 8L4.96967 6.03033C4.67678 5.73744 4.67678 5.26256 4.96967 4.96967Z" fill="currentColor"/>
</svg>
