<svg width="16" height="16" viewBox="0 0 16 16" fill="none" xmlns="http://www.w3.org/2000/svg">
<path fill-rule="evenodd" clip-rule="evenodd" d="M3.93413 3.93414C6.17965 1.68862 9.82035 1.68862 12.0659 3.93414C14.3114 6.17965 14.3114 9.82035 12.0659 12.0659C9.82035 14.3114 6.17965 14.3114 3.93414 12.0659C1.68862 9.82035 1.68862 6.17965 3.93413 3.93414ZM13.1265 2.87348C10.2952 0.0421747 5.70477 0.0421747 2.87347 2.87348C0.0421741 5.70478 0.0421757 10.2952 2.87348 13.1265C5.70478 15.9578 10.2952 15.9578 13.1265 13.1265C15.9578 10.2952 15.9578 5.70478 13.1265 2.87348ZM6.03033 4.96967C5.73744 4.67678 5.26256 4.67678 4.96967 4.96967C4.67678 5.26256 4.67678 5.73744 4.96967 6.03033L6.93934 8L4.96967 9.96967C4.67678 10.2626 4.67678 10.7374 4.96967 11.0303C5.26256 11.3232 5.73744 11.3232 6.03033 11.0303L8 9.06066L9.96967 11.0303C10.2626 11.3232 10.7374 11.3232 11.0303 11.0303C11.3232 10.7374 11.3232 10.2626 11.0303 9.96967L9.06066 8L11.0303 6.03033C11.3232 5.73744 11.3232 5.26256 11.0303 4.96967C10.7374 4.67678 10.2626 4.67678 9.96967 4.96967L8 6.93934L6.03033 4.96967Z" fill="currentColor"/>
</svg>
