<svg width="16" height="16" viewBox="0 0 16 16" fill="none" xmlns="http://www.w3.org/2000/svg">
<path fill-rule="evenodd" clip-rule="evenodd" d="M4.75 4.5C4.75 3.80964 5.30964 3.25 6 3.25C6.69036 3.25 7.25 3.80964 7.25 4.5C7.25 5.19036 6.69036 5.75 6 5.75C5.30964 5.75 4.75 5.19036 4.75 4.5ZM6 1.75C4.48122 1.75 3.25 2.98122 3.25 4.5C3.25 6.01878 4.48122 7.25 6 7.25C7.51878 7.25 8.75 6.01878 8.75 4.5C8.75 2.98122 7.51878 1.75 6 1.75ZM10.25 6.5C10.25 6.08579 10.5858 5.75 11 5.75C11.4142 5.75 11.75 6.08579 11.75 6.5C11.75 6.91421 11.4142 7.25 11 7.25C10.5858 7.25 10.25 6.91421 10.25 6.5ZM11 4.25C9.75736 4.25 8.75 5.25736 8.75 6.5C8.75 7.74264 9.75736 8.75 11 8.75C12.2426 8.75 13.25 7.74264 13.25 6.5C13.25 5.25736 12.2426 4.25 11 4.25ZM1.89863 12.25C2.10361 11.7027 2.5222 11.1077 3.16428 10.5789C4.09749 9.81042 5.43031 9.25 7 9.25C7.30834 9.25 7.60731 9.27161 7.89574 9.3121C8.30593 9.36968 8.68514 9.08383 8.74272 8.67364C8.8003 8.26344 8.51445 7.88424 8.10426 7.82666C7.74717 7.77653 7.37853 7.75 7 7.75C5.06969 7.75 3.40251 8.43958 2.21072 9.42105C1.03937 10.3857 0.25 11.7043 0.25 13C0.25 13.4142 0.585786 13.75 1 13.75H7H13H15C15.4142 13.75 15.75 13.4142 15.75 13C15.75 12.0376 15.169 11.094 14.3518 10.4211C13.5142 9.73124 12.347 9.25 11 9.25C9.65302 9.25 8.48584 9.73124 7.64822 10.4211C7.04571 10.9172 6.57157 11.5605 6.36404 12.25H1.89863ZM8.00148 12.25H13H13.9985C13.861 12.0284 13.6636 11.7975 13.3982 11.5789C12.8192 11.1021 11.9864 10.75 11 10.75C10.0136 10.75 9.18082 11.1021 8.60178 11.5789C8.33638 11.7975 8.13902 12.0284 8.00148 12.25Z" fill="currentColor"/>
</svg>
