<svg width="16" height="16" viewBox="0 0 16 16" fill="none" xmlns="http://www.w3.org/2000/svg">
<path fill-rule="evenodd" clip-rule="evenodd" d="M6.59099 9.36918C6.88388 9.66207 7.35875 9.66207 7.65165 9.36918L12.9355 4.08529L12.7375 6.66001C12.7057 7.073 13.0148 7.43355 13.4278 7.46532C13.8407 7.49709 14.2013 7.18805 14.2331 6.77505L14.5866 2.17886C14.6034 1.96057 14.524 1.74583 14.3692 1.59101C14.2143 1.43619 13.9996 1.35676 13.7813 1.37355L9.18511 1.7271C8.77212 1.75887 8.46308 2.11942 8.49485 2.53241C8.52661 2.9454 8.88716 3.25445 9.30016 3.22268L11.8749 3.02463L6.59099 8.30852C6.29809 8.60141 6.29809 9.07629 6.59099 9.36918ZM6.53033 4.53034C6.82322 4.23744 6.82322 3.76257 6.53033 3.46968C6.23744 3.17678 5.76256 3.17678 5.46967 3.46968L1.46967 7.46968C1.17678 7.76257 1.17678 8.23744 1.46967 8.53034C1.76256 8.82323 2.23744 8.82323 2.53033 8.53034L6.53033 4.53034ZM5.53033 11.5303C5.82322 11.2374 5.82322 10.7626 5.53033 10.4697C5.23743 10.1768 4.76256 10.1768 4.46967 10.4697L2.46967 12.4697C2.17678 12.7626 2.17678 13.2374 2.46967 13.5303C2.76256 13.8232 3.23744 13.8232 3.53033 13.5303L5.53033 11.5303ZM12.5303 10.5303C12.8232 10.2374 12.8232 9.76257 12.5303 9.46968C12.2374 9.17678 11.7626 9.17678 11.4697 9.46968L8.46967 12.4697C8.17678 12.7626 8.17678 13.2374 8.46967 13.5303C8.76256 13.8232 9.23744 13.8232 9.53033 13.5303L12.5303 10.5303Z" fill="currentColor"/>
</svg>
