<svg width="16" height="16" viewBox="0 0 16 16" fill="none" xmlns="http://www.w3.org/2000/svg">
<path fill-rule="evenodd" clip-rule="evenodd" d="M8.00001 0.25C8.30896 0.25 8.58631 0.439461 8.69866 0.727268L10.4174 5.13022L15.0599 5.5024C15.3626 5.52666 15.6208 5.731 15.7139 6.01999C15.807 6.30898 15.7167 6.6256 15.4851 6.82199L11.8956 9.86625L13.1037 14.8224C13.1777 15.1262 13.0555 15.444 12.7971 15.62C12.5386 15.7959 12.1982 15.7931 11.9427 15.6129L8.00001 12.8315L4.05734 15.6129C3.80186 15.7931 3.46136 15.7959 3.20292 15.62C2.94447 15.444 2.8223 15.1262 2.89634 14.8224L4.10438 9.86625L0.514896 6.82199C0.283339 6.6256 0.193029 6.30898 0.286142 6.01999C0.379256 5.731 0.63742 5.52666 0.94007 5.5024L5.58258 5.13022L7.30135 0.727268C7.4137 0.439461 7.69105 0.25 8.00001 0.25ZM8.00001 3.06246L6.80916 6.11304C6.70473 6.38056 6.4567 6.56496 6.17044 6.58791L2.86995 6.8525L5.42784 9.02186C5.64435 9.20549 5.73863 9.49563 5.6714 9.77145L4.82744 13.2339L7.56767 11.3008C7.82689 11.1179 8.17312 11.1179 8.43234 11.3008L11.1726 13.2339L10.3286 9.77145C10.2614 9.49563 10.3557 9.20549 10.5722 9.02186L13.1301 6.8525L9.82957 6.58791C9.54331 6.56496 9.29528 6.38056 9.19085 6.11304L8.00001 3.06246Z" fill="currentColor"/>
</svg>
