<svg width="16" height="16" viewBox="0 0 16 16" fill="none" xmlns="http://www.w3.org/2000/svg">
<path fill-rule="evenodd" clip-rule="evenodd" d="M8.69866 0.727268C8.58631 0.439461 8.30896 0.25 8.00001 0.25C7.69105 0.25 7.4137 0.439461 7.30135 0.727268L5.58258 5.13022L0.94007 5.5024C0.63742 5.52666 0.379256 5.731 0.286142 6.01999C0.193029 6.30898 0.283339 6.6256 0.514896 6.82199L4.10438 9.86625L2.89634 14.8224C2.8223 15.1262 2.94447 15.444 3.20292 15.62C3.46136 15.7959 3.80186 15.7931 4.05734 15.6129L8.00001 12.8315L11.9427 15.6129C12.1982 15.7931 12.5386 15.7959 12.7971 15.62C13.0555 15.444 13.1777 15.1262 13.1037 14.8224L11.8956 9.86625L15.4851 6.82199C15.7167 6.6256 15.807 6.30898 15.7139 6.01999C15.6208 5.731 15.3626 5.52666 15.0599 5.5024L10.4174 5.13022L8.69866 0.727268Z" fill="currentColor"/>
</svg>
