<svg width="16" height="16" viewBox="0 0 16 16" fill="none" xmlns="http://www.w3.org/2000/svg">
<path fill-rule="evenodd" clip-rule="evenodd" d="M8.31427 0.31903C8.11485 0.22699 7.88511 0.22699 7.68568 0.319031L1.1857 3.31903C0.92693 3.43846 0.758215 3.69424 0.750282 3.97912L1.49999 4C0.750282 3.97912 0.750277 3.97928 0.750272 3.97945L0.750261 3.97989L0.750229 3.98106L0.750139 3.98461L0.749863 3.99651L0.749088 4.03896C0.748529 4.07535 0.747963 4.12771 0.747852 4.19448C0.747632 4.32798 0.749235 4.51937 0.75639 4.75619C0.770679 5.2291 0.80722 5.88696 0.896516 6.62903C1.07201 8.08746 1.46241 9.97511 2.36653 11.4015C3.21151 12.7346 4.56703 13.8051 5.65644 14.5248C6.2096 14.8903 6.71253 15.1771 7.078 15.3731C7.26102 15.4713 7.41033 15.547 7.51516 15.5988C7.56759 15.6247 7.60896 15.6447 7.63791 15.6585L7.6719 15.6746L7.68161 15.6791L7.68459 15.6805L7.6856 15.6809L7.68599 15.6811C7.68615 15.6812 7.6863 15.6813 7.99998 15L7.6863 15.6813C7.89504 15.7774 8.13633 15.7725 8.341 15.668C8.32537 15.676 9.24142 15.253 10.3448 14.5239C11.434 13.8042 12.7888 12.7341 13.6335 11.4015C14.5376 9.97511 14.928 8.08746 15.1035 6.62903C15.1928 5.88695 15.2293 5.2291 15.2436 4.75619C15.2508 4.51937 15.2524 4.32798 15.2521 4.19448C15.252 4.12771 15.2515 4.07535 15.2509 4.03895L15.2501 3.99651L15.2499 3.98461L15.2498 3.98106L15.2497 3.97989L15.2497 3.97945C15.2497 3.97928 15.2497 3.97912 14.5 4L15.2497 3.97912C15.2418 3.69423 15.0731 3.43846 14.8143 3.31903L8.31427 0.31903ZM2.25571 4.71089C2.25318 4.62723 2.25141 4.54997 2.25019 4.47978L7.99998 1.82603L13.7498 4.47978C13.7486 4.54997 13.7468 4.62723 13.7443 4.71089C13.731 5.15024 13.697 5.7621 13.6142 6.44983C13.4456 7.85103 13.086 9.46337 12.3665 10.5985C11.6922 11.6624 10.5483 12.5916 9.51792 13.2724C8.8907 13.6869 8.33652 13.9898 7.99986 14.1632C7.93679 14.1307 7.86543 14.0933 7.78686 14.0512C7.45227 13.8718 6.99015 13.6082 6.48327 13.2733C5.4526 12.5924 4.30812 11.6629 3.63347 10.5985C2.91399 9.46337 2.55438 7.85103 2.38577 6.44983C2.30302 5.7621 2.26898 5.15024 2.25571 4.71089ZM12.3414 5.42953L8.21091 3.59374C8.11172 3.54965 7.99999 3.62226 7.99999 3.73081V12.2784C7.99999 12.3846 8.10508 12.456 8.20135 12.4113C8.81529 12.1266 10.6719 11.1561 11.5 9.49999C12.2198 8.06034 12.4349 6.23346 12.4862 5.67192C12.4957 5.56801 12.4368 5.4719 12.3414 5.42953Z" fill="currentColor"/>
</svg>
