<svg width="16" height="16" viewBox="0 0 16 16" fill="none" xmlns="http://www.w3.org/2000/svg">
<path d="M13.333 5.33268V3.99935H11.9997C11.8108 3.99935 11.6526 3.93535 11.525 3.80735C11.3975 3.67935 11.3335 3.52113 11.333 3.33268C11.3326 3.14424 11.3966 2.98602 11.525 2.85802C11.6535 2.73002 11.8117 2.66602 11.9997 2.66602H13.333C13.6997 2.66602 14.0137 2.79668 14.275 3.05802C14.5363 3.31935 14.6668 3.63313 14.6663 3.99935V5.33268C14.6663 5.52157 14.6023 5.68002 14.4743 5.80802C14.3463 5.93602 14.1881 5.99979 13.9997 5.99935C13.8112 5.9989 13.653 5.9349 13.525 5.80735C13.397 5.67979 13.333 5.52157 13.333 5.33268ZM1.33301 5.33268V3.99935C1.33301 3.63268 1.46367 3.3189 1.72501 3.05802C1.98634 2.79713 2.30012 2.66646 2.66634 2.66602H3.99967C4.18856 2.66602 4.34701 2.73002 4.47501 2.85802C4.60301 2.98602 4.66679 3.14424 4.66634 3.33268C4.6659 3.52113 4.6019 3.67957 4.47434 3.80802C4.34679 3.93646 4.18856 4.00024 3.99967 3.99935H2.66634V5.33268C2.66634 5.52157 2.60234 5.68002 2.47434 5.80802C2.34634 5.93602 2.18812 5.99979 1.99967 5.99935C1.81123 5.9989 1.65301 5.9349 1.52501 5.80735C1.39701 5.67979 1.33301 5.52157 1.33301 5.33268ZM13.333 13.3327H11.9997C11.8108 13.3327 11.6526 13.2687 11.525 13.1407C11.3975 13.0127 11.3335 12.8545 11.333 12.666C11.3326 12.4776 11.3966 12.3193 11.525 12.1913C11.6535 12.0633 11.8117 11.9993 11.9997 11.9993H13.333V10.666C13.333 10.4771 13.397 10.3189 13.525 10.1913C13.653 10.0638 13.8112 9.99979 13.9997 9.99935C14.1881 9.9989 14.3466 10.0629 14.475 10.1913C14.6035 10.3198 14.6672 10.478 14.6663 10.666V11.9993C14.6663 12.366 14.5359 12.68 14.275 12.9413C14.0141 13.2027 13.7001 13.3331 13.333 13.3327ZM2.66634 13.3327C2.29967 13.3327 1.9859 13.2022 1.72501 12.9413C1.46412 12.6805 1.33345 12.3665 1.33301 11.9993V10.666C1.33301 10.4771 1.39701 10.3189 1.52501 10.1913C1.65301 10.0638 1.81123 9.99979 1.99967 9.99935C2.18812 9.9989 2.34656 10.0629 2.47501 10.1913C2.60345 10.3198 2.66723 10.478 2.66634 10.666V11.9993H3.99967C4.18856 11.9993 4.34701 12.0633 4.47501 12.1913C4.60301 12.3193 4.66679 12.4776 4.66634 12.666C4.6659 12.8545 4.6019 13.0129 4.47434 13.1413C4.34679 13.2698 4.18856 13.3336 3.99967 13.3327H2.66634ZM3.99967 9.33268V6.66602C3.99967 6.29935 4.13034 5.98557 4.39167 5.72468C4.65301 5.46379 4.96679 5.33313 5.33301 5.33268H10.6663C11.033 5.33268 11.347 5.46335 11.6083 5.72468C11.8697 5.98602 12.0001 6.29979 11.9997 6.66602V9.33268C11.9997 9.69935 11.8692 10.0133 11.6083 10.2747C11.3475 10.536 11.0335 10.6665 10.6663 10.666H5.33301C4.96634 10.666 4.65256 10.5356 4.39167 10.2747C4.13079 10.0138 4.00012 9.69979 3.99967 9.33268ZM5.33301 9.33268H10.6663V6.66602H5.33301V9.33268Z" fill="black"/>
</svg>
