<svg width="16" height="16" viewBox="0 0 16 16" fill="none" xmlns="http://www.w3.org/2000/svg">
<path fill-rule="evenodd" clip-rule="evenodd" d="M7.64443 14.6604C7.27972 14.464 7.14327 14.0092 7.33965 13.6444L10.1353 8.4526L4.60607 9.24249C4.32587 9.28251 4.047 9.16139 3.885 8.92929C3.723 8.69719 3.70546 8.39366 3.83965 8.14445L7.33965 1.64445C7.53603 1.27975 7.99087 1.14329 8.35558 1.33967C8.72028 1.53605 8.85673 1.9909 8.66036 2.3556L5.86475 7.54745L11.3939 6.75756C11.6741 6.71753 11.953 6.83866 12.115 7.07076C12.277 7.30285 12.2945 7.60639 12.1604 7.8556L8.66036 14.3556C8.46398 14.7203 8.00913 14.8568 7.64443 14.6604Z" fill="currentColor"/>
</svg>
