<svg width="16" height="16" viewBox="0 0 16 16" fill="none" xmlns="http://www.w3.org/2000/svg">
<path fill-rule="evenodd" clip-rule="evenodd" d="M7.33965 13.6444C7.14327 14.0092 7.27972 14.464 7.64442 14.6604C8.00913 14.8568 8.46397 14.7203 8.66035 14.3556L10.2824 11.3431L12.4697 13.5304C12.7626 13.8232 13.2374 13.8232 13.5303 13.5304C13.8232 13.2375 13.8232 12.7626 13.5303 12.4697L11.0249 9.96428L12.1604 7.8556C12.2945 7.60639 12.277 7.30285 12.115 7.07076C11.953 6.83866 11.6741 6.71753 11.3939 6.75756L8.26517 7.20453L6.82491 5.76427L8.66035 2.3556C8.85673 1.9909 8.72028 1.53605 8.35558 1.33967C7.99087 1.14329 7.53603 1.27975 7.33965 1.64445L5.71755 4.65691L3.53033 2.46969C3.23744 2.1768 2.76256 2.1768 2.46967 2.46969C2.17678 2.76259 2.17678 3.23746 2.46967 3.53035L4.97509 6.03577L3.83965 8.14445C3.70545 8.39366 3.72299 8.69719 3.885 8.92929C4.047 9.16139 4.32587 9.28251 4.60607 9.24249L7.73484 8.79552L9.17509 10.2358L7.33965 13.6444ZM9.91755 8.85691L10.1353 8.4526L9.59099 8.53035L9.91755 8.85691ZM6.40901 7.46969L6.08245 7.14313L5.86474 7.54745L6.40901 7.46969Z" fill="currentColor"/>
</svg>
