<svg width="16" height="16" viewBox="0 0 16 16" fill="none" xmlns="http://www.w3.org/2000/svg">
<path fill-rule="evenodd" clip-rule="evenodd" d="M2.37407 5.6448C3.19252 4.21411 4.73367 3.25 6.5 3.25H10.9167V4.67966C10.9167 6.00717 9.84051 7.08333 8.513 7.08333L7.39029 7.08333C6.77142 7.08333 6.22638 7.30989 5.81251 7.67297L2.37407 5.6448ZM1.84067 7.07168C1.78119 7.3719 1.75 7.68231 1.75 8C1.75 8.618 1.86802 9.20844 2.08276 9.75H5.00254C4.97193 9.48185 4.98829 9.21608 5.04559 8.96211L1.84067 7.07168ZM6.5 12.75C5.13386 12.75 3.90242 12.1733 3.03588 11.25H5.75208L7.10965 12.75H6.5ZM14.25 5.83333C14.25 4.66743 13.4776 3.68192 12.4167 3.36055V4.67966C12.4167 6.8356 10.6689 8.58333 8.513 8.58333L7.39029 8.58333C6.73187 8.58333 6.29628 9.26713 6.57458 9.86384C6.6126 9.94535 6.66261 10.0207 6.72296 10.0874L8.8 12.3823L10.1106 10.9342C10.3885 10.6271 10.8628 10.6035 11.1699 10.8814C11.477 11.1594 11.5007 11.6337 11.2227 11.9408L10.4903 12.75H12C12.4142 12.75 12.75 13.0858 12.75 13.5C12.75 13.9142 12.4142 14.25 12 14.25H8.8H6.5C3.04822 14.25 0.25 11.4518 0.25 8C0.25 4.54822 3.04822 1.75 6.5 1.75H11.6667C13.9218 1.75 15.75 3.57817 15.75 5.83333V7.5C15.75 7.91421 15.4142 8.25 15 8.25C14.5858 8.25 14.25 7.91421 14.25 7.5V5.83333ZM8.5 6.25012C8.91421 6.25012 9.25 5.91434 9.25 5.50012C9.25 5.08591 8.91421 4.75012 8.5 4.75012C8.08579 4.75012 7.75 5.08591 7.75 5.50012C7.75 5.91434 8.08579 6.25012 8.5 6.25012Z" fill="currentColor"/>
</svg>
