<svg width="16" height="16" viewBox="0 0 16 16" fill="none" xmlns="http://www.w3.org/2000/svg">
<path fill-rule="evenodd" clip-rule="evenodd" d="M4.76638 0.766362C4.30042 1.23233 4.13686 1.92015 4.3295 2.60426C4.39444 2.83488 4.49701 3.05265 4.62965 3.25002H3.00001C1.75737 3.25002 0.750007 4.25738 0.750007 5.50002V8.99306C0.749957 8.99806 0.749957 9.00306 0.750007 9.00806V12.5C0.750007 13.7427 1.75737 14.75 3.00001 14.75H7.99305C7.99805 14.7501 8.00304 14.7501 8.00804 14.75H13C14.2426 14.75 15.25 13.7427 15.25 12.5V9.00697C15.2501 9.00198 15.2501 8.99698 15.25 8.99198V5.50002C15.25 4.25738 14.2426 3.25002 13 3.25002H11.3704C11.503 3.05265 11.6056 2.83489 11.6705 2.60427C11.8631 1.92017 11.6996 1.23234 11.2336 0.766375C10.7677 0.30041 10.0798 0.136853 9.39573 0.329494L9.57338 0.960369L9.39573 0.329494C8.80277 0.496466 8.29477 0.912174 8.00001 1.44832C7.70525 0.912168 7.19724 0.496455 6.60428 0.329481L6.42663 0.960356L6.60428 0.329481C5.92017 0.13684 5.23235 0.300397 4.76638 0.766362ZM5.79492 4.75002H3.00001C2.58579 4.75002 2.25001 5.0858 2.25001 5.50002V7.47687L5.79492 4.75002ZM2.25001 9.36932L8.2551 4.75002H13C13.4142 4.75002 13.75 5.0858 13.75 5.50002V8.63072L7.74492 13.25H3.00001C2.58579 13.25 2.25001 12.9142 2.25001 12.5V9.36932ZM10.2051 13.25H13C13.4142 13.25 13.75 12.9142 13.75 12.5V10.5232L10.2051 13.25ZM5.82704 1.82702C5.87536 1.77871 5.98814 1.71432 6.1977 1.77333C6.4519 1.84491 6.67751 2.07052 6.74909 2.32472L6.91542 2.91541L6.32474 2.74907C6.07054 2.67749 5.84493 2.45188 5.77335 2.19768C5.71434 1.98812 5.77873 1.87534 5.82704 1.82702ZM9.80231 1.77334C10.0119 1.71433 10.1247 1.77872 10.173 1.82704C10.2213 1.87535 10.2857 1.98813 10.2267 2.19769C10.1551 2.45189 9.92947 2.6775 9.67527 2.74908L9.08458 2.91542L9.25092 2.32473C9.3225 2.07053 9.54811 1.84492 9.80231 1.77334Z" fill="currentColor"/>
</svg>
