<svg width="16" height="16" viewBox="0 0 16 16" fill="none" xmlns="http://www.w3.org/2000/svg">
<path fill-rule="evenodd" clip-rule="evenodd" d="M11.4838 3.5462C10.5455 2.95096 9.31032 3.27052 8.72297 4.38831L6.27191 9.05289C6.07923 9.41957 5.62579 9.56062 5.25912 9.36795C4.89245 9.17528 4.75139 8.72184 4.94406 8.35516L7.39513 3.69058C8.35484 1.86415 10.5461 1.17496 12.2873 2.27956L11.8856 2.91288L12.2873 2.27956L13.5003 3.04901C15.1944 4.12372 15.7291 6.44413 14.7878 8.23559L12.3367 12.9002C12.144 13.2669 11.6906 13.4079 11.3239 13.2152C10.9573 13.0226 10.8162 12.5691 11.0089 12.2025L13.4599 7.53786C14.0657 6.38512 13.6822 4.94079 12.6968 4.31565L11.4838 3.5462ZM4.67531 2.78479C5.04198 2.97746 5.18304 3.4309 4.99037 3.79757L2.5393 8.46216C1.93358 9.61491 2.31699 11.0592 3.30245 11.6844L4.51541 12.4538C5.45374 13.0491 6.68892 12.7295 7.27627 11.6117L9.72733 6.94713C9.92001 6.58046 10.3734 6.4394 10.7401 6.63207C11.1068 6.82475 11.2478 7.27819 11.0552 7.64486L8.60411 12.3094C7.6444 14.1359 5.45318 14.8251 3.7119 13.7205L2.49894 12.951C0.804797 11.8763 0.270111 9.55589 1.21146 7.76443L3.66252 3.09984C3.85519 2.73317 4.30864 2.59211 4.67531 2.78479Z" fill="currentColor"/>
</svg>
