<svg width="16" height="16" viewBox="0 0 16 16" fill="none" xmlns="http://www.w3.org/2000/svg">
<path fill-rule="evenodd" clip-rule="evenodd" d="M9.24287 1.97053C7.64577 1.81082 6.10347 2.72176 5.50238 4.22447L5.3036 4.72143C5.14976 5.10602 5.33682 5.5425 5.72141 5.69633C6.106 5.85017 6.54248 5.66311 6.69631 5.27852L6.8951 4.78155C7.24302 3.91175 8.14813 3.36853 9.09361 3.46308C10.2395 3.57767 11.086 4.60235 10.9733 5.72878C10.8787 6.67536 10.1503 7.43517 9.20855 7.5697L8.52828 7.66688C7.79478 7.77167 7.24996 8.39986 7.24996 9.14081V9.99998C7.24996 10.4142 7.58574 10.75 7.99996 10.75C8.41417 10.75 8.74996 10.4142 8.74996 9.99998V9.15045L9.42069 9.05463C11.0457 8.82248 12.3026 7.5114 12.4659 5.87804C12.6629 3.90788 11.1935 2.16559 9.24287 1.97053ZM6.99996 12.5C6.99996 13.052 7.44796 13.5 7.99996 13.5C8.55196 13.5 8.99996 13.052 8.99996 12.5C8.99996 11.948 8.55196 11.5 7.99996 11.5C7.44796 11.5 6.99996 11.948 6.99996 12.5Z" fill="currentColor"/>
</svg>
