<svg width="16" height="16" viewBox="0 0 16 16" fill="none" xmlns="http://www.w3.org/2000/svg">
<path fill-rule="evenodd" clip-rule="evenodd" d="M8 15C11.866 15 15 11.866 15 8C15 4.13401 11.866 1 8 1C4.13401 1 1 4.13401 1 8C1 11.866 4.13401 15 8 15ZM8 13C7.448 13 7 12.552 7 12C7 11.448 7.448 11 8 11C8.552 11 9 11.448 9 12C9 12.552 8.552 13 8 13ZM8.62979 3.51129C7.39822 3.30603 6.20035 4.02724 5.80552 5.21173L5.78849 5.26283C5.6575 5.65579 5.86987 6.08053 6.26283 6.21151C6.65579 6.3425 7.08053 6.13013 7.21151 5.73717L7.22855 5.68607C7.38996 5.20182 7.87969 4.90696 8.38319 4.99088L8.45092 5.00216C8.91203 5.07902 9.25 5.47797 9.25 5.94545C9.25 6.30767 9.04535 6.6388 8.72137 6.80079L7.99792 7.16251C7.53955 7.3917 7.25 7.8602 7.25 8.37268V9C7.25 9.41421 7.58579 9.75 8 9.75C8.41421 9.75 8.75 9.41421 8.75 9V8.46353L9.39219 8.14243C10.2243 7.72635 10.75 6.87583 10.75 5.94545C10.75 4.74472 9.88191 3.71997 8.69752 3.52257L8.62979 3.51129Z" fill="currentColor"/>
</svg>
