<svg width="16" height="16" viewBox="0 0 16 16" fill="none" xmlns="http://www.w3.org/2000/svg">
<path fill-rule="evenodd" clip-rule="evenodd" d="M3.93414 3.93414C6.17965 1.68862 9.82035 1.68862 12.0659 3.93414C14.3114 6.17965 14.3114 9.82035 12.0659 12.0659C9.82035 14.3114 6.17965 14.3114 3.93414 12.0659C1.68862 9.82035 1.68862 6.17965 3.93414 3.93414ZM13.1265 2.87348C10.2952 0.0421754 5.70478 0.0421742 2.87348 2.87348C0.0421748 5.70478 0.0421748 10.2952 2.87348 13.1265C5.70478 15.9578 10.2952 15.9578 13.1265 13.1265C15.9578 10.2952 15.9578 5.70478 13.1265 2.87348ZM5.80552 5.21173C6.20035 4.02724 7.39822 3.30602 8.62979 3.51128L8.69751 3.52257C9.88191 3.71997 10.75 4.74471 10.75 5.94545C10.75 6.87582 10.2243 7.72635 9.39219 8.14243L8.75 8.46352V9C8.75 9.41421 8.41421 9.75 8 9.75C7.58578 9.75 7.25 9.41421 7.25 9V8.37267C7.25 7.86019 7.53954 7.3917 7.99792 7.16251L8.72137 6.80079C9.04535 6.6388 9.25 6.30766 9.25 5.94545C9.25 5.47797 8.91203 5.07901 8.45091 5.00216L8.38319 4.99087C7.87969 4.90696 7.38996 5.20181 7.22854 5.68607L7.21151 5.73717C7.08052 6.13012 6.65578 6.34249 6.26283 6.21151C5.86987 6.08052 5.6575 5.65578 5.78848 5.26283L5.80552 5.21173ZM8 12.5C7.448 12.5 7 12.052 7 11.5C7 10.948 7.448 10.5 8 10.5C8.552 10.5 9 10.948 9 11.5C9 12.052 8.552 12.5 8 12.5Z" fill="currentColor"/>
</svg>
