<svg width="16" height="16" viewBox="0 0 16 16" fill="none" xmlns="http://www.w3.org/2000/svg">
<path fill-rule="evenodd" clip-rule="evenodd" d="M7.0249 3.47593C6.04414 2.505 4.46198 2.50803 3.48498 3.48504L2.95465 2.95471L3.48498 3.48504C2.50493 4.46509 2.50493 6.05407 3.48498 7.03412L4.8679 8.41704C5.16079 8.70993 5.16079 9.18481 4.8679 9.4777C4.57501 9.77059 4.10013 9.77059 3.80724 9.4777L2.42432 8.09478C0.858479 6.52894 0.85848 3.99022 2.42432 2.42438C3.99015 0.85854 6.52888 0.85854 8.09472 2.42438C8.10123 2.43088 8.10761 2.43751 8.11387 2.44425L9.54942 3.98954C9.83134 4.29301 9.81387 4.76756 9.5104 5.04948C9.20693 5.3314 8.73238 5.31393 8.45046 5.01046L7.0249 3.47593ZM4.6275 4.62757C4.9204 4.33467 5.39527 4.33467 5.68816 4.62757L11.3724 10.3118C11.6653 10.6047 11.6653 11.0795 11.3724 11.3724C11.0795 11.6653 10.6046 11.6653 10.3117 11.3724L4.6275 5.68823C4.33461 5.39533 4.33461 4.92046 4.6275 4.62757ZM11.132 6.5223C11.4249 6.22941 11.8997 6.22941 12.1926 6.5223L13.5756 7.90522C15.1414 9.47106 15.1414 12.0098 13.5756 13.5756C12.0097 15.1415 9.471 15.1415 7.90516 13.5756L6.52224 12.1927C6.22935 11.8998 6.22935 11.4249 6.52224 11.132C6.81513 10.8392 7.29001 10.8392 7.5829 11.132L8.96582 12.515C9.94587 13.495 11.5348 13.495 12.5149 12.515C13.495 11.5349 13.495 9.94594 12.5149 8.96588L11.132 7.58296C10.8391 7.29007 10.8391 6.8152 11.132 6.5223Z" fill="currentColor"/>
</svg>
