<svg width="16" height="16" viewBox="0 0 16 16" fill="none" xmlns="http://www.w3.org/2000/svg">
<path fill-rule="evenodd" clip-rule="evenodd" d="M0.25 4.5C0.25 3.5335 1.0335 2.75 2 2.75H14C14.9665 2.75 15.75 3.5335 15.75 4.5V12C15.75 12.9665 14.9665 13.75 14 13.75H2C1.0335 13.75 0.25 12.9665 0.25 12V4.5ZM2 4.25C1.86193 4.25 1.75 4.36193 1.75 4.5V12C1.75 12.1381 1.86193 12.25 2 12.25H14C14.1381 12.25 14.25 12.1381 14.25 12V4.5C14.25 4.36193 14.1381 4.25 14 4.25H2ZM8.25 7C8.25 6.58579 8.58579 6.25 9 6.25H12C12.4142 6.25 12.75 6.58579 12.75 7C12.75 7.41421 12.4142 7.75 12 7.75H9C8.58579 7.75 8.25 7.41421 8.25 7ZM10 8.75C9.58579 8.75 9.25 9.08579 9.25 9.5C9.25 9.91421 9.58579 10.25 10 10.25H12C12.4142 10.25 12.75 9.91421 12.75 9.5C12.75 9.08579 12.4142 8.75 12 8.75H10ZM5.5 8.5C4.55812 8.5 3.76831 9.09754 3.55608 10.0041C3.49314 10.2729 3.72386 10.5 4 10.5H7C7.27614 10.5 7.50686 10.2729 7.44392 10.0041C7.23169 9.09754 6.44188 8.5 5.5 8.5ZM5.5 8C6.05228 8 6.5 7.55228 6.5 7C6.5 6.44772 6.05228 6 5.5 6C4.94772 6 4.5 6.44772 4.5 7C4.5 7.55228 4.94772 8 5.5 8Z" fill="currentColor"/>
</svg>
