<svg width="16" height="16" viewBox="0 0 16 16" fill="none" xmlns="http://www.w3.org/2000/svg">
<path fill-rule="evenodd" clip-rule="evenodd" d="M2.25 2.5C2.25 1.5335 3.0335 0.75 4 0.75H12C12.9665 0.75 13.75 1.5335 13.75 2.5V13.5C13.75 14.4665 12.9665 15.25 12 15.25H4C3.0335 15.25 2.25 14.4665 2.25 13.5V2.5ZM4 2.25C3.86193 2.25 3.75 2.36193 3.75 2.5V13.5C3.75 13.6381 3.86193 13.75 4 13.75H12C12.1381 13.75 12.25 13.6381 12.25 13.5V2.5C12.25 2.36193 12.1381 2.25 12 2.25H4ZM6.99993 5.75H8.00002H9.00011C8.77206 5.44639 8.40898 5.25 8.00002 5.25C7.59107 5.25 7.22798 5.44639 6.99993 5.75ZM9.00011 7.25H8.00002H6.99993C7.22798 7.55361 7.59107 7.75 8.00002 7.75C8.40898 7.75 8.77206 7.55361 9.00011 7.25ZM5.25002 6.5C5.25002 4.98122 6.48124 3.75 8.00002 3.75C9.5188 3.75 10.75 4.98122 10.75 6.5C10.75 8.01878 9.5188 9.25 8.00002 9.25C6.48124 9.25 5.25002 8.01878 5.25002 6.5ZM6 10.25C5.58579 10.25 5.25 10.5858 5.25 11C5.25 11.4142 5.58579 11.75 6 11.75H10C10.4142 11.75 10.75 11.4142 10.75 11C10.75 10.5858 10.4142 10.25 10 10.25H6Z" fill="currentColor"/>
</svg>
