<svg width="16" height="16" viewBox="0 0 16 16" fill="none" xmlns="http://www.w3.org/2000/svg">
<path fill-rule="evenodd" clip-rule="evenodd" d="M8 15C11.866 15 15 11.866 15 8C15 4.13401 11.866 1 8 1C4.13401 1 1 4.13401 1 8C1 11.866 4.13401 15 8 15ZM9 4.99994C9 5.55222 8.55228 5.99994 8 5.99994C7.44772 5.99994 7 5.55222 7 4.99994C7 4.44765 7.44772 3.99994 8 3.99994C8.55228 3.99994 9 4.44765 9 4.99994ZM8.875 7.99994C8.875 7.51669 8.48325 7.12494 8 7.12494C7.51675 7.12494 7.125 7.51669 7.125 7.99994V10.9999C7.125 11.4832 7.51675 11.8749 8 11.8749C8.48325 11.8749 8.875 11.4832 8.875 10.9999V7.99994Z" fill="currentColor"/>
</svg>
