<svg width="16" height="16" viewBox="0 0 16 16" fill="none" xmlns="http://www.w3.org/2000/svg">
<path fill-rule="evenodd" clip-rule="evenodd" d="M12.0659 3.93414C9.82035 1.68862 6.17965 1.68862 3.93413 3.93414C1.68862 6.17965 1.68862 9.82035 3.93414 12.0659C6.17965 14.3114 9.82035 14.3114 12.0659 12.0659C14.3114 9.82035 14.3114 6.17965 12.0659 3.93414ZM2.87347 2.87348C5.70477 0.0421747 10.2952 0.0421747 13.1265 2.87348C15.9578 5.70478 15.9578 10.2952 13.1265 13.1265C10.2952 15.9578 5.70478 15.9578 2.87348 13.1265C0.0421757 10.2952 0.0421741 5.70478 2.87347 2.87348ZM8 7.25C8.41421 7.25 8.75 7.58579 8.75 8V11C8.75 11.4142 8.41421 11.75 8 11.75C7.58579 11.75 7.25 11.4142 7.25 11V8C7.25 7.58579 7.58579 7.25 8 7.25ZM8 4C7.44772 4 7 4.44772 7 5C7 5.55228 7.44772 6 8 6C8.55228 6 9 5.55228 9 5C9 4.44772 8.55228 4 8 4Z" fill="currentColor"/>
</svg>
