<svg width="16" height="16" viewBox="0 0 16 16" fill="none" xmlns="http://www.w3.org/2000/svg">
<path fill-rule="evenodd" clip-rule="evenodd" d="M10.6253 0.391096C10.9379 0.615908 11.0295 1.04097 10.8372 1.37459L8.46563 5.48854L13.2646 7.29826C13.4954 7.38527 13.6686 7.58012 13.7279 7.81945C13.7873 8.05877 13.7253 8.31199 13.5619 8.49674L11.3119 11.0422L7.37441 15.4967C7.11937 15.7853 6.68727 15.8338 6.37462 15.6089C6.06197 15.3841 5.97038 14.9591 6.1627 14.6255L8.53426 10.5115L3.73537 8.70178C3.50466 8.61478 3.33144 8.41992 3.27207 8.1806C3.21271 7.94128 3.27476 7.68806 3.43807 7.50331L5.68803 4.95786L9.62547 0.503312C9.88051 0.214783 10.3126 0.166284 10.6253 0.391096ZM10.5306 9.6612L11.7179 8.31808L7.11032 6.58056L6.46934 6.33885L5.28214 7.68196L9.88956 9.41945L10.5306 9.6612Z" fill="currentColor"/>
</svg>
