<svg width="16" height="16" viewBox="0 0 16 16" fill="none" xmlns="http://www.w3.org/2000/svg">
<path fill-rule="evenodd" clip-rule="evenodd" d="M10.8372 1.37459C11.0295 1.04097 10.9379 0.615908 10.6253 0.391096C10.3126 0.166284 9.88051 0.214783 9.62547 0.503312L5.68803 4.95786L3.43807 7.50331C3.27476 7.68806 3.21271 7.94128 3.27207 8.1806C3.33144 8.41992 3.50466 8.61478 3.73537 8.70178L8.53426 10.5115L6.1627 14.6255C5.97038 14.9591 6.06197 15.3841 6.37462 15.6089C6.68727 15.8338 7.11937 15.7853 7.37441 15.4967L11.3119 11.0422L13.5619 8.49674C13.7253 8.31199 13.7873 8.05877 13.7279 7.81945C13.6686 7.58012 13.4954 7.38527 13.2646 7.29826L8.46563 5.48854L10.8372 1.37459Z" fill="currentColor"/>
</svg>
