<svg width="16" height="16" viewBox="0 0 16 16" fill="none" xmlns="http://www.w3.org/2000/svg">
<path fill-rule="evenodd" clip-rule="evenodd" d="M4.26892 7.25H2.29847C2.54167 5.38301 3.68045 3.79739 5.26963 2.93835C5.24519 2.98819 5.22121 3.03859 5.19771 3.08951C4.64647 4.28387 4.34433 5.75936 4.26892 7.25ZM4.26892 8.75H2.29847C2.54167 10.617 3.68046 12.2026 5.26964 13.0617C5.24519 13.0118 5.22121 12.9614 5.19771 12.9105C4.64647 11.7161 4.34433 10.2406 4.26892 8.75ZM10.7304 13.0617C12.3195 12.2026 13.4583 10.617 13.7015 8.75H11.7311C11.6557 10.2406 11.3535 11.7161 10.8023 12.9105C10.7788 12.9614 10.7548 13.0118 10.7304 13.0617ZM10.229 8.75C10.1547 10.0693 9.88469 11.3192 9.44035 12.2819C8.89305 13.4677 8.31715 13.75 8 13.75C7.68285 13.75 7.10694 13.4677 6.55965 12.2819C6.11531 11.3192 5.84534 10.0693 5.77103 8.75H10.229ZM10.229 7.25H5.77103C5.84534 5.93073 6.11531 4.68084 6.55965 3.7181C7.10694 2.53229 7.68285 2.25 8 2.25C8.31715 2.25 8.89306 2.53229 9.44035 3.7181C9.88469 4.68084 10.1547 5.93073 10.229 7.25ZM11.7311 7.25H13.7015C13.4583 5.383 12.3195 3.79739 10.7304 2.93834C10.7548 2.98819 10.7788 3.03859 10.8023 3.08951C11.3535 4.28387 11.6557 5.75936 11.7311 7.25ZM8 0.75C3.99594 0.75 0.75 3.99594 0.75 8C0.75 12.0041 3.99594 15.25 8 15.25C12.0041 15.25 15.25 12.0041 15.25 8C15.25 3.99594 12.0041 0.75 8 0.75Z" fill="currentColor"/>
</svg>
