<svg width="16" height="16" viewBox="0 0 16 16" fill="none" xmlns="http://www.w3.org/2000/svg">
<path fill-rule="evenodd" clip-rule="evenodd" d="M13.0981 1.25637C13.3292 1.28683 13.533 1.42303 13.6496 1.62492L15.7858 5.32447C15.9929 5.68318 15.87 6.14188 15.5113 6.349C15.1526 6.55613 14.6939 6.43324 14.4867 6.07453L13.4756 4.3233C13.3693 5.04494 13.228 5.87765 13.0456 6.72095C12.7914 7.89686 12.4495 9.13106 11.9935 10.1189C11.7656 10.6128 11.4952 11.0763 11.1695 11.4448C10.8443 11.8128 10.4242 12.13 9.89715 12.2354C8.97272 12.4203 8.24979 12.0709 7.70659 11.5482C7.20289 11.0635 6.80874 10.388 6.47599 9.81322C6.46293 9.79068 6.44995 9.76825 6.43705 9.74594C6.09557 9.15584 5.80301 8.65025 5.46555 8.27459C5.13315 7.90456 4.83583 7.74995 4.50004 7.74995C4.23119 7.74995 3.8952 7.92279 3.50403 8.45808C3.12307 8.97939 2.7928 9.71089 2.52128 10.4953C2.25299 11.2703 2.05719 12.052 1.92815 12.644C1.86389 12.9389 1.81676 13.1841 1.78586 13.3545C1.77043 13.4396 1.75907 13.5059 1.75168 13.5502L1.74356 13.5998L1.74171 13.6115L1.74134 13.6139L1.74132 13.614L1.74129 13.6142C1.67822 14.0235 1.29533 14.3042 0.886002 14.2412C0.476605 14.1782 0.195782 13.7953 0.258766 13.3859L1.00004 13.4999C0.258766 13.3859 0.258791 13.3857 0.258819 13.3856L0.258896 13.3851L0.259119 13.3836L0.259843 13.379L0.262415 13.3628L0.27209 13.3036C0.280569 13.2528 0.29314 13.1794 0.309929 13.0868C0.343487 12.9018 0.394013 12.6391 0.46256 12.3246C0.599146 11.6979 0.809599 10.8545 1.10381 10.0046C1.39478 9.16401 1.78327 8.2705 2.29294 7.57306C2.79239 6.8896 3.5189 6.24995 4.50004 6.24995C5.41425 6.24995 6.08569 6.72033 6.58142 7.27218C7.02752 7.76877 7.39322 8.4021 7.70762 8.94659C7.73004 8.98543 7.75221 9.02382 7.77412 9.06167C8.12887 9.67442 8.42223 10.1551 8.74666 10.4673C9.03159 10.7415 9.27741 10.8296 9.60298 10.7645C9.70097 10.7449 9.85117 10.6714 10.0455 10.4515C10.2393 10.2322 10.4376 9.91057 10.6316 9.49034C11.0194 8.65008 11.3338 7.54053 11.5795 6.40394C11.7569 5.58337 11.8945 4.76829 11.9978 4.06202L10.4881 5.57099C10.1951 5.8638 9.72023 5.86367 9.42741 5.5707C9.1346 5.27773 9.13472 4.80286 9.4277 4.51004L12.4699 1.46947C12.6348 1.30467 12.8669 1.22592 13.0981 1.25637Z" fill="currentColor"/>
</svg>
