<svg width="16" height="16" viewBox="0 0 16 16" fill="none" xmlns="http://www.w3.org/2000/svg">
<path fill-rule="evenodd" clip-rule="evenodd" d="M12.5 13.7499C12.0857 13.7499 11.75 13.4141 11.75 12.9999C11.75 12.5857 12.0857 12.2499 12.5 12.2499H13.1651C13.1552 12.1747 13.1444 12.0953 13.1326 12.0123C13.0417 11.376 12.8913 10.5371 12.6539 9.70604C12.4134 8.8646 12.0983 8.0843 11.7022 7.52972C11.3092 6.97957 10.9142 6.75005 10.5 6.75005C10.199 6.75005 9.91788 6.85614 9.60551 7.0749C9.27762 7.30453 8.96477 7.6213 8.5869 8.0075L8.52231 8.0736C7.8402 8.77212 6.90629 9.7285 5.54342 9.8075C4.50679 9.86759 3.71624 9.33692 3.1568 8.66083C2.60793 7.99751 2.22498 7.13483 1.95567 6.33016C1.68292 5.51521 1.50841 4.70313 1.40212 4.10042C1.34872 3.79757 1.31193 3.54408 1.28836 3.36501C1.27657 3.27541 1.26806 3.20424 1.26241 3.15462L1.25603 3.09667L1.25435 3.08051L1.25386 3.07575L1.25371 3.07422L1.25366 3.07367C1.25364 3.07345 1.25362 3.07326 2.00002 2.99993L1.25362 3.07326C1.21312 2.66103 1.51447 2.29402 1.9267 2.25353C2.33884 2.21304 2.70578 2.51425 2.7464 2.92634L2.74641 2.92638L2.74643 2.92661L2.74661 2.92838L2.74771 2.9389L2.75279 2.98501C2.75751 3.02651 2.76496 3.08894 2.77553 3.16926C2.7967 3.33004 2.83026 3.56167 2.87933 3.83992C2.97799 4.39939 3.13692 5.13341 3.37812 5.85409C3.62276 6.58506 3.9343 7.24755 4.31246 7.70456C4.68005 8.1488 5.04908 8.33364 5.45662 8.31001C6.18577 8.26775 6.73614 7.75423 7.51474 6.95847L7.54118 6.93144C7.89029 6.57454 8.29309 6.16275 8.74506 5.84624C9.22399 5.51083 9.80094 5.25005 10.5 5.25005C11.5857 5.25005 12.3782 5.89552 12.9228 6.65785C13.4641 7.41575 13.8365 8.38542 14.0961 9.29394C14.3587 10.2128 14.5209 11.1239 14.6175 11.8001C14.666 12.1396 14.6984 12.4232 14.7188 12.623C14.729 12.723 14.7362 12.8022 14.7409 12.8573L14.7462 12.9213L14.7476 12.9389L14.7479 12.944L14.748 12.9455L14.7481 12.9461C14.7481 12.9463 14.7481 12.9465 14 12.9999L14.7481 12.9465C14.763 13.1542 14.6908 13.3586 14.5489 13.511C14.407 13.6634 14.2082 13.7499 14 13.7499H12.5ZM9.00002 12.2499C8.58581 12.2499 8.25002 12.5857 8.25002 12.9999C8.25002 13.4141 8.58581 13.7499 9.00002 13.7499H10C10.4142 13.7499 10.75 13.4141 10.75 12.9999C10.75 12.5857 10.4142 12.2499 10 12.2499H9.00002ZM4.75002 12.9999C4.75002 12.5857 5.08581 12.2499 5.50002 12.2499H6.50002C6.91424 12.2499 7.25002 12.5857 7.25002 12.9999C7.25002 13.4141 6.91424 13.7499 6.50002 13.7499H5.50002C5.08581 13.7499 4.75002 13.4141 4.75002 12.9999ZM2.00002 12.2499C1.58581 12.2499 1.25002 12.5857 1.25002 12.9999C1.25002 13.4141 1.58581 13.7499 2.00002 13.7499H3.00002C3.41424 13.7499 3.75002 13.4141 3.75002 12.9999C3.75002 12.5857 3.41424 12.2499 3.00002 12.2499H2.00002Z" fill="currentColor"/>
</svg>
