<svg width="16" height="16" viewBox="0 0 16 16" fill="none" xmlns="http://www.w3.org/2000/svg">
<path d="M2.66634 12.6673C2.29967 12.6673 1.9859 12.5369 1.72501 12.276C1.46412 12.0151 1.33345 11.7011 1.33301 11.334V4.66732C1.33301 4.30065 1.46367 3.98687 1.72501 3.72598C1.98634 3.4651 2.30012 3.33443 2.66634 3.33398H13.333C13.6997 3.33398 14.0137 3.46465 14.275 3.72598C14.5363 3.98732 14.6668 4.3011 14.6663 4.66732V11.334C14.6663 11.7007 14.5359 12.0147 14.275 12.276C14.0141 12.5373 13.7001 12.6678 13.333 12.6673H2.66634ZM2.66634 11.334H13.333V4.66732H2.66634V11.334ZM5.99967 10.6673H9.99967C10.1886 10.6673 10.347 10.6033 10.475 10.4753C10.603 10.3473 10.6668 10.1891 10.6663 10.0007C10.6659 9.81221 10.6019 9.65398 10.4743 9.52598C10.3468 9.39798 10.1886 9.33398 9.99967 9.33398H5.99967C5.81079 9.33398 5.65256 9.39798 5.52501 9.52598C5.39745 9.65398 5.33345 9.81221 5.33301 10.0007C5.33256 10.1891 5.39656 10.3475 5.52501 10.476C5.65345 10.6044 5.81167 10.6682 5.99967 10.6673ZM3.99967 6.66732C4.18856 6.66732 4.34701 6.60332 4.47501 6.47532C4.60301 6.34732 4.66679 6.1891 4.66634 6.00065C4.6659 5.81221 4.6019 5.65398 4.47434 5.52598C4.34679 5.39798 4.18856 5.33398 3.99967 5.33398C3.81079 5.33398 3.65256 5.39798 3.52501 5.52598C3.39745 5.65398 3.33345 5.81221 3.33301 6.00065C3.33256 6.1891 3.39656 6.34754 3.52501 6.47598C3.65345 6.60443 3.81167 6.66821 3.99967 6.66732ZM5.99967 6.66732C6.18856 6.66732 6.34701 6.60332 6.47501 6.47532C6.60301 6.34732 6.66679 6.1891 6.66634 6.00065C6.6659 5.81221 6.6019 5.65398 6.47434 5.52598C6.34679 5.39798 6.18856 5.33398 5.99967 5.33398C5.81079 5.33398 5.65256 5.39798 5.52501 5.52598C5.39745 5.65398 5.33345 5.81221 5.33301 6.00065C5.33256 6.1891 5.39656 6.34754 5.52501 6.47598C5.65345 6.60443 5.81167 6.66821 5.99967 6.66732ZM7.99967 6.66732C8.18856 6.66732 8.34701 6.60332 8.47501 6.47532C8.60301 6.34732 8.66679 6.1891 8.66634 6.00065C8.6659 5.81221 8.6019 5.65398 8.47434 5.52598C8.34679 5.39798 8.18856 5.33398 7.99967 5.33398C7.81079 5.33398 7.65256 5.39798 7.52501 5.52598C7.39745 5.65398 7.33345 5.81221 7.33301 6.00065C7.33256 6.1891 7.39656 6.34754 7.52501 6.47598C7.65345 6.60443 7.81167 6.66821 7.99967 6.66732ZM9.99967 6.66732C10.1886 6.66732 10.347 6.60332 10.475 6.47532C10.603 6.34732 10.6668 6.1891 10.6663 6.00065C10.6659 5.81221 10.6019 5.65398 10.4743 5.52598C10.3468 5.39798 10.1886 5.33398 9.99967 5.33398C9.81079 5.33398 9.65256 5.39798 9.52501 5.52598C9.39745 5.65398 9.33345 5.81221 9.33301 6.00065C9.33256 6.1891 9.39656 6.34754 9.52501 6.47598C9.65345 6.60443 9.81167 6.66821 9.99967 6.66732ZM11.9997 6.66732C12.1886 6.66732 12.347 6.60332 12.475 6.47532C12.603 6.34732 12.6668 6.1891 12.6663 6.00065C12.6659 5.81221 12.6019 5.65398 12.4743 5.52598C12.3468 5.39798 12.1886 5.33398 11.9997 5.33398C11.8108 5.33398 11.6526 5.39798 11.525 5.52598C11.3975 5.65398 11.3335 5.81221 11.333 6.00065C11.3326 6.1891 11.3966 6.34754 11.525 6.47598C11.6535 6.60443 11.8117 6.66821 11.9997 6.66732ZM3.99967 8.66732C4.18856 8.66732 4.34701 8.60332 4.47501 8.47532C4.60301 8.34732 4.66679 8.1891 4.66634 8.00065C4.6659 7.81221 4.6019 7.65398 4.47434 7.52598C4.34679 7.39798 4.18856 7.33398 3.99967 7.33398C3.81079 7.33398 3.65256 7.39798 3.52501 7.52598C3.39745 7.65398 3.33345 7.81221 3.33301 8.00065C3.33256 8.1891 3.39656 8.34754 3.52501 8.47598C3.65345 8.60443 3.81167 8.66821 3.99967 8.66732ZM5.99967 8.66732C6.18856 8.66732 6.34701 8.60332 6.47501 8.47532C6.60301 8.34732 6.66679 8.1891 6.66634 8.00065C6.6659 7.81221 6.6019 7.65398 6.47434 7.52598C6.34679 7.39798 6.18856 7.33398 5.99967 7.33398C5.81079 7.33398 5.65256 7.39798 5.52501 7.52598C5.39745 7.65398 5.33345 7.81221 5.33301 8.00065C5.33256 8.1891 5.39656 8.34754 5.52501 8.47598C5.65345 8.60443 5.81167 8.66821 5.99967 8.66732ZM7.99967 8.66732C8.18856 8.66732 8.34701 8.60332 8.47501 8.47532C8.60301 8.34732 8.66679 8.1891 8.66634 8.00065C8.6659 7.81221 8.6019 7.65398 8.47434 7.52598C8.34679 7.39798 8.18856 7.33398 7.99967 7.33398C7.81079 7.33398 7.65256 7.39798 7.52501 7.52598C7.39745 7.65398 7.33345 7.81221 7.33301 8.00065C7.33256 8.1891 7.39656 8.34754 7.52501 8.47598C7.65345 8.60443 7.81167 8.66821 7.99967 8.66732ZM9.99967 8.66732C10.1886 8.66732 10.347 8.60332 10.475 8.47532C10.603 8.34732 10.6668 8.1891 10.6663 8.00065C10.6659 7.81221 10.6019 7.65398 10.4743 7.52598C10.3468 7.39798 10.1886 7.33398 9.99967 7.33398C9.81079 7.33398 9.65256 7.39798 9.52501 7.52598C9.39745 7.65398 9.33345 7.81221 9.33301 8.00065C9.33256 8.1891 9.39656 8.34754 9.52501 8.47598C9.65345 8.60443 9.81167 8.66821 9.99967 8.66732ZM11.9997 8.66732C12.1886 8.66732 12.347 8.60332 12.475 8.47532C12.603 8.34732 12.6668 8.1891 12.6663 8.00065C12.6659 7.81221 12.6019 7.65398 12.4743 7.52598C12.3468 7.39798 12.1886 7.33398 11.9997 7.33398C11.8108 7.33398 11.6526 7.39798 11.525 7.52598C11.3975 7.65398 11.3335 7.81221 11.333 8.00065C11.3326 8.1891 11.3966 8.34754 11.525 8.47598C11.6535 8.60443 11.8117 8.66821 11.9997 8.66732Z" fill="black"/>
</svg>
