<svg width="16" height="16" viewBox="0 0 16 16" fill="none" xmlns="http://www.w3.org/2000/svg">
<path d="M7.33301 9.33398H8.66634C8.85523 9.33398 9.01367 9.26998 9.14167 9.14198C9.26967 9.01398 9.33345 8.85576 9.33301 8.66732C9.33256 8.47887 9.26856 8.32065 9.14101 8.19265C9.01345 8.06465 8.85523 8.00065 8.66634 8.00065H7.33301C7.14412 8.00065 6.9859 8.06465 6.85834 8.19265C6.73079 8.32065 6.66679 8.47887 6.66634 8.66732C6.6659 8.85576 6.7299 9.01421 6.85834 9.14265C6.98679 9.2711 7.14501 9.33487 7.33301 9.33398ZM7.33301 7.33398H11.333C11.5219 7.33398 11.6803 7.26998 11.8083 7.14198C11.9363 7.01398 12.0001 6.85576 11.9997 6.66732C11.9992 6.47887 11.9352 6.32065 11.8077 6.19265C11.6801 6.06465 11.5219 6.00065 11.333 6.00065H7.33301C7.14412 6.00065 6.9859 6.06465 6.85834 6.19265C6.73079 6.32065 6.66679 6.47887 6.66634 6.66732C6.6659 6.85576 6.7299 7.01421 6.85834 7.14265C6.98679 7.2711 7.14501 7.33487 7.33301 7.33398ZM7.33301 5.33398H11.333C11.5219 5.33398 11.6803 5.26998 11.8083 5.14198C11.9363 5.01398 12.0001 4.85576 11.9997 4.66732C11.9992 4.47887 11.9352 4.32065 11.8077 4.19265C11.6801 4.06465 11.5219 4.00065 11.333 4.00065H7.33301C7.14412 4.00065 6.9859 4.06465 6.85834 4.19265C6.73079 4.32065 6.66679 4.47887 6.66634 4.66732C6.6659 4.85576 6.7299 5.01421 6.85834 5.14265C6.98679 5.2711 7.14501 5.33487 7.33301 5.33398ZM5.33301 12.0007C4.96634 12.0007 4.65256 11.8702 4.39167 11.6093C4.13079 11.3484 4.00012 11.0344 3.99967 10.6673V2.66732C3.99967 2.30065 4.13034 1.98687 4.39167 1.72598C4.65301 1.4651 4.96679 1.33443 5.33301 1.33398H13.333C13.6997 1.33398 14.0137 1.46465 14.275 1.72598C14.5363 1.98732 14.6668 2.3011 14.6663 2.66732V10.6673C14.6663 11.034 14.5359 11.348 14.275 11.6093C14.0141 11.8707 13.7001 12.0011 13.333 12.0007H5.33301ZM5.33301 10.6673H13.333V2.66732H5.33301V10.6673ZM2.66634 14.6673C2.29967 14.6673 1.9859 14.5369 1.72501 14.276C1.46412 14.0151 1.33345 13.7011 1.33301 13.334V4.66732C1.33301 4.47843 1.39701 4.32021 1.52501 4.19265C1.65301 4.0651 1.81123 4.0011 1.99967 4.00065C2.18812 4.00021 2.34656 4.06421 2.47501 4.19265C2.60345 4.3211 2.66723 4.47932 2.66634 4.66732V13.334H11.333C11.5219 13.334 11.6803 13.398 11.8083 13.526C11.9363 13.654 12.0001 13.8122 11.9997 14.0007C11.9992 14.1891 11.9352 14.3475 11.8077 14.476C11.6801 14.6044 11.5219 14.6682 11.333 14.6673H2.66634Z" fill="black"/>
</svg>
