<svg width="16" height="16" viewBox="0 0 16 16" fill="none" xmlns="http://www.w3.org/2000/svg">
<path fill-rule="evenodd" clip-rule="evenodd" d="M1.49747 3.44043C3.14503 1.85319 5.80508 1.85319 7.45264 3.44043L8 3.96775L8.54736 3.44043C10.1949 1.85319 12.855 1.85319 14.5025 3.44043C16.1658 5.04283 16.1658 7.65283 14.5025 9.25522C14.4948 9.26271 14.4868 9.27003 14.4787 9.27717L8.49656 14.5621C8.21293 14.8126 7.78707 14.8126 7.50344 14.5621L1.52126 9.27717C1.51317 9.27003 1.50524 9.26271 1.49747 9.25522C-0.165823 7.65283 -0.165823 5.04283 1.49747 3.44043ZM6.41194 4.52068C5.34531 3.49311 3.6048 3.49311 2.53817 4.52068C1.49093 5.52958 1.48729 7.15124 2.52725 8.1644L8 12.9992L13.4727 8.1644C14.5127 7.15124 14.5091 5.52958 13.4618 4.52068C12.3952 3.49311 10.6547 3.49311 9.58806 4.52068L8.52035 5.5493C8.22988 5.82914 7.77012 5.82914 7.47965 5.5493L6.41194 4.52068Z" fill="currentColor"/>
</svg>
