<svg width="16" height="16" viewBox="0 0 16 16" fill="none" xmlns="http://www.w3.org/2000/svg">
<path fill-rule="evenodd" clip-rule="evenodd" d="M2 2.25C1.58579 2.25 1.25 2.58579 1.25 3C1.25 3.41421 1.58579 3.75 2 3.75H14C14.4142 3.75 14.75 3.41421 14.75 3C14.75 2.58579 14.4142 2.25 14 2.25H2ZM8.56946 5.51191C8.42698 5.34567 8.21896 5.25 8.00002 5.25C7.78108 5.25 7.57307 5.34567 7.43058 5.51191L1.43058 12.5119C1.23996 12.7343 1.19625 13.0473 1.31864 13.3134C1.44103 13.5795 1.70712 13.75 2.00002 13.75H14C14.2929 13.75 14.559 13.5795 14.6814 13.3134C14.8038 13.0473 14.7601 12.7343 14.5695 12.5119L8.56946 5.51191ZM8.00002 7.15244L12.3694 12.25H3.63069L8.00002 7.15244Z" fill="currentColor"/>
</svg>
