<svg width="16" height="16" viewBox="0 0 16 16" fill="none" xmlns="http://www.w3.org/2000/svg">
<path d="M4.66634 11.3327C3.74412 11.3327 2.95812 11.0076 2.30834 10.3573C1.65856 9.70713 1.33345 8.92113 1.33301 7.99935C1.33256 7.07757 1.65767 6.29157 2.30834 5.64135C2.95901 4.99113 3.74501 4.66602 4.66634 4.66602H6.66634C6.85523 4.66602 7.01368 4.73002 7.14168 4.85802C7.26968 4.98602 7.33345 5.14424 7.33301 5.33268C7.33256 5.52113 7.26856 5.67957 7.14101 5.80802C7.01345 5.93646 6.85523 6.00024 6.66634 5.99935H4.66634C4.11079 5.99935 3.63856 6.19379 3.24968 6.58268C2.86079 6.97157 2.66634 7.44379 2.66634 7.99935C2.66634 8.5549 2.86079 9.02713 3.24968 9.41602C3.63856 9.8049 4.11079 9.99935 4.66634 9.99935H6.66634C6.85523 9.99935 7.01368 10.0633 7.14168 10.1913C7.26968 10.3193 7.33345 10.4776 7.33301 10.666C7.33256 10.8545 7.26856 11.0129 7.14101 11.1413C7.01345 11.2698 6.85523 11.3336 6.66634 11.3327H4.66634ZM5.99967 8.66602C5.81079 8.66602 5.65256 8.60202 5.52501 8.47402C5.39745 8.34602 5.33345 8.18779 5.33301 7.99935C5.33256 7.8109 5.39656 7.65268 5.52501 7.52468C5.65345 7.39668 5.81167 7.33268 5.99967 7.33268H9.99968C10.1886 7.33268 10.347 7.39668 10.475 7.52468C10.603 7.65268 10.6668 7.8109 10.6663 7.99935C10.6659 8.18779 10.6019 8.34624 10.4743 8.47468C10.3468 8.60313 10.1886 8.6669 9.99968 8.66602H5.99967ZM9.33301 11.3327C9.14412 11.3327 8.9859 11.2687 8.85834 11.1407C8.73079 11.0127 8.66679 10.8545 8.66634 10.666C8.6659 10.4776 8.7299 10.3193 8.85834 10.1913C8.98679 10.0633 9.14501 9.99935 9.33301 9.99935H11.333C11.8886 9.99935 12.3608 9.8049 12.7497 9.41602C13.1386 9.02713 13.333 8.5549 13.333 7.99935C13.333 7.44379 13.1386 6.97157 12.7497 6.58268C12.3608 6.19379 11.8886 5.99935 11.333 5.99935H9.33301C9.14412 5.99935 8.9859 5.93535 8.85834 5.80735C8.73079 5.67935 8.66679 5.52113 8.66634 5.33268C8.6659 5.14424 8.7299 4.98602 8.85834 4.85802C8.98679 4.73002 9.14501 4.66602 9.33301 4.66602H11.333C12.2552 4.66602 13.0415 4.99113 13.6917 5.64135C14.3419 6.29157 14.6668 7.07757 14.6663 7.99935C14.6659 8.92113 14.3408 9.70735 13.691 10.358C13.0412 11.0087 12.2552 11.3336 11.333 11.3327H9.33301Z" fill="black"/>
</svg>
