<svg width="16" height="16" viewBox="0 0 16 16" fill="none" xmlns="http://www.w3.org/2000/svg">
<path fill-rule="evenodd" clip-rule="evenodd" d="M9.75 2C9.75 2.41421 10.0858 2.75 10.5 2.75H12.1893L6.96967 7.96967C6.67678 8.26256 6.67678 8.73744 6.96967 9.03033C7.26256 9.32322 7.73744 9.32322 8.03033 9.03033L13.25 3.81066V5.5C13.25 5.91421 13.5858 6.25 14 6.25C14.4142 6.25 14.75 5.91421 14.75 5.5V2C14.75 1.58579 14.4142 1.25 14 1.25H10.5C10.0858 1.25 9.75 1.58579 9.75 2ZM2.5 2.75C2.08579 2.75 1.75 3.08579 1.75 3.5V13.5C1.75 13.9142 2.08579 14.25 2.5 14.25H13C13.4142 14.25 13.75 13.9142 13.75 13.5V10.5C13.75 10.0858 13.4142 9.75 13 9.75C12.5858 9.75 12.25 10.0858 12.25 10.5V12.75H3.25V4.25H5.5C5.91421 4.25 6.25 3.91421 6.25 3.5C6.25 3.08579 5.91421 2.75 5.5 2.75H2.5Z" fill="currentColor"/>
</svg>
