<svg width="16" height="16" viewBox="0 0 16 16" fill="none" xmlns="http://www.w3.org/2000/svg">
<path d="M2.66634 13.3327C2.29967 13.3327 1.9859 13.2022 1.72501 12.9413C1.46412 12.6805 1.33345 12.3665 1.33301 11.9993V3.99935C1.33301 3.63268 1.46367 3.3189 1.72501 3.05802C1.98634 2.79713 2.30012 2.66646 2.66634 2.66602H6.11634C6.29412 2.66602 6.46367 2.69935 6.62501 2.76602C6.78634 2.83268 6.9279 2.92713 7.04967 3.04935L7.99967 3.99935H13.333C13.6997 3.99935 14.0137 4.13002 14.275 4.39135C14.5363 4.65268 14.6668 4.96646 14.6663 5.33268V11.9993C14.6663 12.366 14.5359 12.68 14.275 12.9413C14.0141 13.2027 13.7001 13.3331 13.333 13.3327H2.66634ZM2.66634 11.9993H13.333V5.33268H7.44967L6.11634 3.99935H2.66634V11.9993ZM7.99967 11.3327C8.18856 11.3327 8.34701 11.2687 8.47501 11.1407C8.60301 11.0127 8.66679 10.8545 8.66634 10.666V8.53268L9.26634 9.13268C9.38856 9.2549 9.54412 9.31602 9.73301 9.31602C9.9219 9.31602 10.0775 9.2549 10.1997 9.13268C10.3219 9.01046 10.383 8.8549 10.383 8.66602C10.383 8.47713 10.3219 8.32157 10.1997 8.19935L8.46634 6.46602C8.33301 6.33268 8.17745 6.26602 7.99967 6.26602C7.8219 6.26602 7.66634 6.33268 7.53301 6.46602L5.79967 8.19935C5.67745 8.32157 5.61634 8.47713 5.61634 8.66602C5.61634 8.8549 5.67745 9.01046 5.79967 9.13268C5.9219 9.2549 6.07745 9.31602 6.26634 9.31602C6.45523 9.31602 6.61079 9.2549 6.73301 9.13268L7.33301 8.53268V10.666C7.33301 10.8549 7.39701 11.0133 7.52501 11.1413C7.65301 11.2693 7.81123 11.3331 7.99967 11.3327Z" fill="black"/>
</svg>
