<svg width="16" height="16" viewBox="0 0 16 16" fill="none" xmlns="http://www.w3.org/2000/svg">
<path fill-rule="evenodd" clip-rule="evenodd" d="M0.75 2C0.75 1.0335 1.5335 0.25 2.5 0.25H13C13.9665 0.25 14.75 1.0335 14.75 2V4C14.75 4.41421 14.4142 4.75 14 4.75C13.5858 4.75 13.25 4.41421 13.25 4V2C13.25 1.86193 13.1381 1.75 13 1.75H2.5C2.36193 1.75 2.25 1.86193 2.25 2V9C2.25 9.13807 2.36193 9.25 2.5 9.25H5C5.41421 9.25 5.75 9.58579 5.75 10C5.75 10.4142 5.41421 10.75 5 10.75H2.5C1.5335 10.75 0.75 9.9665 0.75 9V2ZM11 6.75C10.2718 6.75 9.57277 7.04065 9.05676 7.5592C8.54062 8.07788 8.25 8.78214 8.25 9.51724C8.25 10.6003 8.96558 11.7925 9.8213 12.7986C10.2334 13.2831 10.6476 13.6893 10.9595 13.9747L11 14.0117L11.0405 13.9747C11.3524 13.6893 11.7666 13.2831 12.1787 12.7986C13.0344 11.7925 13.75 10.6003 13.75 9.51724C13.75 8.78214 13.4594 8.07788 12.9432 7.5592C12.4272 7.04065 11.7282 6.75 11 6.75ZM11 15C10.5369 15.59 10.5368 15.5899 10.5366 15.5897L10.5362 15.5894L10.5352 15.5886L10.5321 15.5862L10.5223 15.5784L10.4883 15.551C10.4594 15.5276 10.4184 15.4939 10.367 15.4507C10.2642 15.3643 10.1195 15.2393 9.94678 15.0813C9.60239 14.7661 9.14161 14.3146 8.6787 13.7704C7.78441 12.719 6.75 11.1698 6.75 9.51724C6.75 8.38668 7.19688 7.30169 7.99349 6.50115C8.79024 5.70048 9.87164 5.25 11 5.25C12.1284 5.25 13.2098 5.70048 14.0065 6.50115C14.8031 7.30169 15.25 8.38668 15.25 9.51724C15.25 11.1698 14.2156 12.719 13.3213 13.7704C12.8584 14.3146 12.3976 14.7661 12.0532 15.0813C11.8805 15.2393 11.7358 15.3643 11.633 15.4507C11.5816 15.4939 11.5406 15.5276 11.5117 15.551L11.4777 15.5784L11.4679 15.5862L11.4648 15.5886L11.4638 15.5894L11.4634 15.5897C11.4632 15.5899 11.4631 15.59 11 15ZM11 15L11.4631 15.59C11.1912 15.8033 10.8088 15.8033 10.5369 15.59L11 15ZM12 9.5C12 10.0523 11.5523 10.5 11 10.5C10.4477 10.5 10 10.0523 10 9.5C10 8.94771 10.4477 8.5 11 8.5C11.5523 8.5 12 8.94771 12 9.5Z" fill="currentColor"/>
</svg>
