<svg width="16" height="16" viewBox="0 0 16 16" fill="none" xmlns="http://www.w3.org/2000/svg">
<path fill-rule="evenodd" clip-rule="evenodd" d="M4.63985 3.13409C5.53035 2.24825 6.73896 1.74988 8 1.74988C9.26104 1.74988 10.4696 2.24825 11.3601 3.13409C12.2505 4.01981 12.75 5.22026 12.75 6.47114C12.75 8.31144 11.5374 10.2641 10.1811 11.8425C9.51923 12.6129 8.85514 13.2575 8.35584 13.7099C8.22441 13.8289 8.10476 13.9343 8 14.0249C7.89524 13.9343 7.77559 13.8289 7.64416 13.7099C7.14486 13.2575 6.48077 12.6129 5.81885 11.8425C4.46263 10.2641 3.25 8.31144 3.25 6.47114C3.25 5.22026 3.74949 4.01981 4.63985 3.13409ZM7.5395 15.5919C7.53968 15.592 7.53984 15.5921 8 14.9999L7.53984 15.5921C7.81056 15.8025 8.18944 15.8025 8.46016 15.5921L8 14.9999C8.46016 15.5921 8.46032 15.592 8.4605 15.5919L8.46097 15.5915L8.46228 15.5905L8.4664 15.5873L8.4805 15.5762C8.49246 15.5667 8.5095 15.5532 8.53127 15.5357C8.57481 15.5008 8.63732 15.45 8.71609 15.3844C8.87357 15.2534 9.09643 15.0629 9.36291 14.8215C9.89486 14.3396 10.6058 13.65 11.3189 12.8201C12.7126 11.198 14.25 8.88627 14.25 6.47114C14.25 4.81989 13.5906 3.23706 12.418 2.07066C11.2456 0.904382 9.65634 0.249878 8 0.249878C6.34366 0.249878 4.75437 0.904382 3.58197 2.07066C2.40944 3.23706 1.75 4.81989 1.75 6.47114C1.75 8.88627 3.28737 11.198 4.68115 12.8201C5.39423 13.65 6.10514 14.3396 6.63709 14.8215C6.90357 15.0629 7.12643 15.2534 7.28391 15.3844C7.36268 15.45 7.42519 15.5008 7.46873 15.5357C7.4905 15.5532 7.50754 15.5667 7.5195 15.5762L7.5336 15.5873L7.53772 15.5905L7.53903 15.5915L7.5395 15.5919ZM9.5 6.5C9.5 7.32843 8.82843 8 8 8C7.17157 8 6.5 7.32843 6.5 6.5C6.5 5.67157 7.17157 5 8 5C8.82843 5 9.5 5.67157 9.5 6.5Z" fill="currentColor"/>
</svg>
