<svg width="16" height="16" viewBox="0 0 16 16" fill="none" xmlns="http://www.w3.org/2000/svg">
<path fill-rule="evenodd" clip-rule="evenodd" d="M5.75 4C5.75 2.75736 6.75736 1.75 8 1.75C9.24264 1.75 10.25 2.75736 10.25 4C10.25 4.41421 10.5858 4.75 11 4.75C11.4142 4.75 11.75 4.41421 11.75 4C11.75 1.92893 10.0711 0.25 8 0.25C5.92893 0.25 4.25 1.92893 4.25 4V5.75H3C2.0335 5.75 1.25 6.5335 1.25 7.5V13.5C1.25 14.4665 2.0335 15.25 3 15.25H13C13.9665 15.25 14.75 14.4665 14.75 13.5V7.5C14.75 6.5335 13.9665 5.75 13 5.75H5.75V4ZM2.75 7.5C2.75 7.36193 2.86193 7.25 3 7.25H13C13.1381 7.25 13.25 7.36193 13.25 7.5V13.5C13.25 13.6381 13.1381 13.75 13 13.75H3C2.86193 13.75 2.75 13.6381 2.75 13.5V7.5ZM8.75 11.2993C9.19835 11.04 9.5 10.5552 9.5 10C9.5 9.17157 8.82843 8.5 8 8.5C7.17157 8.5 6.5 9.17157 6.5 10C6.5 10.5552 6.80165 11.04 7.25 11.2993V12C7.25 12.4142 7.58579 12.75 8 12.75C8.41421 12.75 8.75 12.4142 8.75 12V11.2993Z" fill="currentColor"/>
</svg>
