<svg width="16" height="16" viewBox="0 0 16 16" fill="none" xmlns="http://www.w3.org/2000/svg">
<path fill-rule="evenodd" clip-rule="evenodd" d="M5.75 4C5.75 2.75736 6.75736 1.75 8 1.75C9.24264 1.75 10.25 2.75736 10.25 4V6H5.75V4ZM4.25 6V4C4.25 1.92893 5.92893 0.25 8 0.25C10.0711 0.25 11.75 1.92893 11.75 4V6H13C13.5523 6 14 6.44772 14 7V14C14 14.5523 13.5523 15 13 15H3C2.44772 15 2 14.5523 2 14V7C2 6.44772 2.44772 6 3 6H4.25ZM9.5 10C9.5 10.5552 9.19835 11.04 8.75 11.2993V12C8.75 12.4142 8.41421 12.75 8 12.75C7.58579 12.75 7.25 12.4142 7.25 12V11.2993C6.80165 11.04 6.5 10.5552 6.5 10C6.5 9.17157 7.17157 8.5 8 8.5C8.82843 8.5 9.5 9.17157 9.5 10Z" fill="currentColor"/>
</svg>
