<svg width="16" height="16" viewBox="0 0 16 16" fill="none" xmlns="http://www.w3.org/2000/svg">
<path d="M13.2587 2.27556C12.4252 1.6933 11.3634 1.33331 10.0612 1.33331C8.89038 1.33331 4.84569 1.7012 3.87027 6.76082H2.70787C2.50747 6.76082 2.33524 6.9025 2.29679 7.09921L2.00553 8.58421C1.97024 8.76433 2.10824 8.93208 2.29179 8.93208H3.66091C3.62878 13.9311 7.04197 14.6666 8.71025 14.6666C10.0973 14.6666 11.1125 14.239 11.9238 13.5651C12.1119 13.4087 12.1205 13.1219 11.9475 12.9491L10.852 11.8536C10.7101 11.7117 10.4886 11.6935 10.3219 11.8049C9.88582 12.0959 9.40495 12.2344 8.87221 12.2344C8.30655 12.2344 6.51502 11.8986 6.54373 8.93208H9.00783C9.20823 8.93208 9.3802 8.7904 9.41891 8.59369L9.7099 7.10869C9.74546 6.92857 9.60746 6.76082 9.42365 6.76082H6.83103C7.57998 3.85614 9.44261 3.78399 10.0612 3.78399C10.6856 3.78399 11.1567 3.93751 11.5444 4.19269C11.7129 4.30356 11.9336 4.29039 12.076 4.14793L13.3098 2.91364C13.4931 2.73088 13.471 2.42382 13.2587 2.27556Z" fill="currentColor"/>
</svg>
