<svg width="16" height="16" viewBox="0 0 16 16" fill="none" xmlns="http://www.w3.org/2000/svg">
<path d="M14.0158 4.42066L12.0686 3.34522L10.0932 2.2535C8.78755 1.53111 7.15547 2.43817 7.15547 3.8938V4.13822C7.15474 4.20464 7.17267 4.27002 7.20735 4.3274C7.24203 4.38478 7.29217 4.43202 7.35244 4.46411L8.26979 4.96923C8.32772 5.0012 8.39336 5.01787 8.4601 5.01757C8.52683 5.01727 8.59231 5.00001 8.64994 4.96752C8.70756 4.93503 8.7553 4.88847 8.78835 4.83251C8.8214 4.77656 8.83859 4.71319 8.8382 4.64878V4.06761C8.83824 4.00211 8.85607 3.93776 8.88991 3.88098C8.92375 3.8242 8.97241 3.77697 9.03106 3.744C9.08971 3.71103 9.15628 3.69347 9.22415 3.69307C9.29202 3.69267 9.35881 3.70944 9.41787 3.74172L11.2188 4.74111L13.0141 5.73507C13.073 5.76771 13.122 5.81477 13.156 5.87152C13.1901 5.92826 13.208 5.99267 13.208 6.05825C13.208 6.12382 13.1901 6.18823 13.156 6.24497C13.122 6.30172 13.073 6.34878 13.0141 6.38142L11.2188 7.37538L9.41787 8.37477C9.35881 8.40705 9.29202 8.42382 9.22415 8.42342C9.15628 8.42302 9.08971 8.40546 9.03106 8.37249C8.97241 8.33952 8.92375 8.29229 8.88991 8.23551C8.85607 8.17873 8.83824 8.11438 8.8382 8.04888V7.76101C8.8382 6.30538 7.20612 5.39289 5.90046 6.12071L3.93071 7.21787L1.98347 8.2933C0.672177 9.02112 0.672177 10.8515 1.98347 11.5793L3.93071 12.6548L5.90609 13.7465C7.21175 14.4689 8.84383 13.5618 8.84383 12.1062V11.8618C8.84456 11.7954 8.82663 11.73 8.79195 11.6726C8.75727 11.6152 8.70712 11.568 8.64685 11.5359L7.72951 11.0308C7.67157 10.9988 7.60593 10.9821 7.5392 10.9824C7.47246 10.9827 7.40698 11 7.34936 11.0325C7.29173 11.065 7.24399 11.1115 7.21094 11.1675C7.17789 11.2234 7.1607 11.2868 7.1611 11.3512V11.9324C7.16106 11.9979 7.14323 12.0622 7.10939 12.119C7.07555 12.1758 7.02688 12.223 6.96824 12.256C6.90959 12.289 6.84302 12.3065 6.77515 12.3069C6.70728 12.3073 6.64049 12.2906 6.58143 12.2583L4.78051 11.2589L2.98523 10.2649C2.9263 10.2323 2.87733 10.1852 2.84328 10.1285C2.80923 10.0717 2.7913 10.0073 2.7913 9.94175C2.7913 9.87618 2.80923 9.81177 2.84328 9.75503C2.87733 9.69828 2.9263 9.65122 2.98523 9.61858L4.78051 8.62462L6.58143 7.62523C6.64049 7.59295 6.70728 7.57618 6.77515 7.57658C6.84302 7.57698 6.90959 7.59454 6.96824 7.62751C7.02688 7.66048 7.07555 7.70771 7.10939 7.76449C7.14323 7.82127 7.16106 7.88561 7.1611 7.95112V8.23898C7.1611 9.69462 8.79318 10.6071 10.0988 9.87929L12.0742 8.78756L14.0215 7.71213C15.3271 6.97888 15.3271 5.14847 14.0158 4.42066Z" fill="currentColor"/>
</svg>
