<svg width="16" height="16" viewBox="0 0 16 16" fill="none" xmlns="http://www.w3.org/2000/svg">
<path d="M9.1808 6.87788H6.74278L7.22018 4.69511H9.28433C10.1282 4.69511 10.6164 5.0836 10.6164 5.72679C10.6164 6.4889 10.0247 6.87788 9.1808 6.87788ZM8.30745 11.3183H5.7713L6.33063 8.76186H8.39626C9.41779 8.76186 10.0394 9.19495 10.0394 9.97242C10.0394 10.7648 9.40307 11.3183 8.30745 11.3183ZM13 5.35316C13 3.93151 11.9289 3.00885 10.4565 2.74226L10.7126 1.51187C10.7671 1.24776 10.5679 1 10.301 1H8.74952C8.55081 1 8.37958 1.13974 8.33836 1.33596L8.05869 2.66198H5.51076C5.36308 2.66198 5.23502 2.76555 5.20313 2.91123L3.00748 12.9495C2.9643 13.1482 3.11346 13.3365 3.31512 13.3365H5.71193L5.472 14.4747C5.41705 14.7379 5.61429 14.9861 5.88022 14.9881L7.4341 15C7.63428 15.0015 7.80797 14.8603 7.84919 14.662L8.12444 13.3365H8.36633C10.8534 13.3365 12.4372 11.961 12.4372 10.182C12.4372 9.13548 11.8749 8.28319 11.0016 7.8496C12.0972 7.53594 13 6.65341 13 5.35316Z" fill="currentColor"/>
</svg>
