<svg width="16" height="16" viewBox="0 0 16 16" fill="none" xmlns="http://www.w3.org/2000/svg">
<path d="M9.36568 3.93037C10.1957 3.93037 10.7847 4.38552 11.2131 5.05487C11.3469 5.24228 11.6415 5.29583 11.8289 5.10841L13.1676 3.82327C13.3014 3.6894 13.3282 3.47521 13.1943 3.31457C12.3108 2.13653 11.106 1.33331 9.28536 1.33331C6.71508 1.33331 4.49286 2.96651 4.49286 5.69744C4.49286 6.07227 4.51963 6.4471 4.59995 6.82193H3.87706C3.68965 6.82193 3.529 6.92903 3.47546 7.11644L3.20772 8.56223C3.15417 8.80319 3.34159 9.04416 3.58255 9.04416H5.10865L5.1622 9.28512C5.18898 9.41899 5.21575 9.65995 5.21575 9.79382C5.21575 10.9183 4.0377 12.016 2.59192 12.4712C2.45805 12.498 2.35096 12.6318 2.32418 12.7657L2.0029 14.1847C1.97612 14.4257 2.13677 14.6666 2.4045 14.6666H11.5611C11.7485 14.6666 11.8824 14.5328 11.936 14.3454L12.3376 12.5515C12.3911 12.3106 12.2037 12.0696 11.9627 12.0696H7.08991C7.67894 11.5341 8.00022 10.0883 7.89313 9.01738H10.3028C10.4902 9.01738 10.6508 8.91029 10.7044 8.6961L11.0257 7.27709C11.0524 7.03612 10.8918 6.79516 10.624 6.79516H7.49152C7.46475 6.5542 7.46474 6.28646 7.46474 6.07227C7.43797 4.59971 8.34828 3.93037 9.36568 3.93037Z" fill="currentColor"/>
</svg>
