<svg width="16" height="16" viewBox="0 0 16 16" fill="none" xmlns="http://www.w3.org/2000/svg">
<path d="M8.99964 6.86364C8.99991 6.86364 9.00018 6.86367 9.00045 6.86373C11.3009 7.38823 12.3525 8.4022 12.3525 10.1154C12.3525 12.2631 10.7083 13.8488 8.1422 14.0166L7.89066 15.2922C7.86678 15.4133 7.76661 15.5 7.65058 15.5H5.66268C5.50424 15.5 5.38735 15.3422 5.424 15.1778L5.74247 13.7496C4.46256 13.3619 3.43436 12.6063 2.83918 11.6745C2.7694 11.5653 2.79594 11.4185 2.89385 11.3375L4.28305 10.1874C4.39756 10.0926 4.5633 10.1244 4.64818 10.2497C5.37952 11.3293 6.49994 11.9685 7.84927 11.9685C9.06537 11.9685 9.98566 11.3392 9.98566 10.4301C9.98566 9.73077 9.52551 9.41608 7.98074 9.06643C5.31848 8.47203 4.26672 7.42308 4.26672 5.70979C4.26672 3.72203 5.83696 2.22028 8.20588 2.02535L8.46565 0.707796C8.48953 0.586698 8.5897 0.5 8.70573 0.5H10.6669C10.8234 0.5 10.9399 0.654105 10.9067 0.817167L10.6056 2.29502C11.633 2.63153 12.4679 3.23486 12.9835 3.97925C13.0574 4.08602 13.0346 4.23428 12.9383 4.31835L11.6717 5.42383C11.5603 5.52113 11.3951 5.49481 11.304 5.37578C10.6638 4.53909 9.65953 4.06643 8.57195 4.06643C7.38872 4.06643 6.5999 4.62587 6.5999 5.43007C6.5999 6.09435 7.19142 6.444 8.99881 6.86354C8.99908 6.8636 8.99936 6.86364 8.99964 6.86364Z" fill="currentColor"/>
</svg>
