<svg width="16" height="16" viewBox="0 0 16 16" fill="none" xmlns="http://www.w3.org/2000/svg">
<path d="M4.66634 15.3327C4.29967 15.3327 3.9859 15.2022 3.72501 14.9413C3.46412 14.6805 3.33345 14.3665 3.33301 13.9993V1.99935C3.33301 1.63268 3.46367 1.3189 3.72501 1.05802C3.98634 0.797127 4.30012 0.66646 4.66634 0.666016H11.333C11.6997 0.666016 12.0137 0.796682 12.275 1.05802C12.5363 1.31935 12.6668 1.63313 12.6663 1.99935V4.06602C12.8663 4.14379 13.0275 4.26602 13.1497 4.43268C13.2719 4.59935 13.333 4.78824 13.333 4.99935V6.33268C13.333 6.54379 13.2719 6.73268 13.1497 6.89935C13.0275 7.06602 12.8663 7.18824 12.6663 7.26602V13.9993C12.6663 14.366 12.5359 14.68 12.275 14.9413C12.0141 15.2027 11.7001 15.3331 11.333 15.3327H4.66634ZM4.66634 13.9993H11.333V1.99935H4.66634V13.9993ZM6.66634 13.3327H9.33301C9.5219 13.3327 9.68034 13.2687 9.80834 13.1407C9.93634 13.0127 10.0001 12.8545 9.99967 12.666C9.99923 12.4776 9.93523 12.3193 9.80767 12.1913C9.68012 12.0633 9.5219 11.9993 9.33301 11.9993H6.66634C6.47745 11.9993 6.31923 12.0633 6.19167 12.1913C6.06412 12.3193 6.00012 12.4776 5.99967 12.666C5.99923 12.8545 6.06323 13.0129 6.19167 13.1413C6.32012 13.2698 6.47834 13.3336 6.66634 13.3327Z" fill="black"/>
</svg>
