<svg width="16" height="16" viewBox="0 0 16 16" fill="none" xmlns="http://www.w3.org/2000/svg">
<path fill-rule="evenodd" clip-rule="evenodd" d="M1.75 6.5C1.75 4.42893 3.42894 2.75 5.5 2.75C6.86209 2.75 8.05458 3.47621 8.71138 4.56256C6.6925 5.29407 5.25001 7.22858 5.25001 9.5C5.25001 9.75287 5.26789 10.0016 5.30245 10.2449C3.32321 10.1422 1.75 8.5048 1.75 6.5ZM5.75241 11.744C5.66876 11.748 5.58461 11.75 5.49999 11.75C2.6005 11.75 0.25 9.39949 0.25 6.5C0.25 3.6005 2.60051 1.25 5.5 1.25C7.59664 1.25 9.40623 2.47904 10.2476 4.25596C10.3312 4.252 10.4154 4.25 10.5 4.25C13.3995 4.25 15.75 6.60051 15.75 9.5C15.75 12.3995 13.3995 14.75 10.5 14.75C8.40336 14.75 6.59378 13.521 5.75241 11.744ZM10.6976 5.75512C12.6768 5.85785 14.25 7.4952 14.25 9.5C14.25 11.5711 12.5711 13.25 10.5 13.25C9.13791 13.25 7.94543 12.5238 7.28863 11.4374C9.30751 10.7059 10.75 8.77142 10.75 6.5C10.75 6.24713 10.7321 5.99844 10.6976 5.75512ZM9.21374 5.97642C9.23764 6.14752 9.25 6.32232 9.25 6.5C9.25 8.11919 8.22378 9.49869 6.78627 10.0236C6.76237 9.85249 6.75001 9.67769 6.75001 9.5C6.75001 7.88081 7.77623 6.50131 9.21374 5.97642Z" fill="currentColor"/>
</svg>
