<svg width="16" height="16" viewBox="0 0 16 16" fill="none" xmlns="http://www.w3.org/2000/svg">
<path fill-rule="evenodd" clip-rule="evenodd" d="M11.0304 1.46967C10.7375 1.17678 10.2626 1.17678 9.96969 1.46967L3.46969 7.96967C3.4046 8.03476 3.35206 8.11127 3.31467 8.19538L1.31889 12.6856C1.29187 12.7441 1.27215 12.8066 1.2609 12.872C1.24931 12.939 1.24698 13.0068 1.25358 13.0736C1.29055 13.4532 1.61063 13.75 2.00002 13.75H14C14.4142 13.75 14.75 13.4142 14.75 13C14.75 12.5858 14.4142 12.25 14 12.25H5.53411L6.80461 11.6854C6.88873 11.648 6.96526 11.5954 7.03035 11.5303L13.5304 5.03033C13.8232 4.73744 13.8232 4.26256 13.5304 3.96967L11.0304 1.46967ZM3.47731 11.5226L4.62882 8.93187L10.5 3.06066L11.9394 4.5L6.06817 10.3712L3.47731 11.5226Z" fill="currentColor"/>
</svg>
