<svg width="16" height="16" viewBox="0 0 16 16" fill="none" xmlns="http://www.w3.org/2000/svg">
<path fill-rule="evenodd" clip-rule="evenodd" d="M3.40681 10.25L4.52237 4.40915C4.88272 2.87135 6.30902 1.75 7.98832 1.75C9.66803 1.75 11.0946 2.87191 11.4545 4.41031L12.5901 10.25H3.40681ZM7.98832 0.25C5.63936 0.25 3.57707 1.82777 3.05755 4.0858L3.0544 4.09947L3.05177 4.11326L1.76332 10.8593C1.72138 11.0789 1.77959 11.3057 1.92207 11.478C2.06455 11.6503 2.27645 11.75 2.50001 11.75H13.5C13.724 11.75 13.9363 11.6499 14.0787 11.477C14.2212 11.3042 14.279 11.0767 14.2362 10.8568L12.9244 4.11079L12.9219 4.09824L12.9191 4.08579C12.3995 1.82776 10.3373 0.25 7.98832 0.25ZM6.50004 13.25C6.08582 13.25 5.75004 13.5858 5.75004 14C5.75004 14.4142 6.08582 14.75 6.50004 14.75H9.50004C9.91425 14.75 10.25 14.4142 10.25 14C10.25 13.5858 9.91425 13.25 9.50004 13.25H6.50004Z" fill="currentColor"/>
</svg>
