<svg width="16" height="16" viewBox="0 0 16 16" fill="none" xmlns="http://www.w3.org/2000/svg">
<path fill-rule="evenodd" clip-rule="evenodd" d="M8 0.750061C7.58579 0.750061 7.25 1.08585 7.25 1.50006C7.25 1.91427 7.58579 2.25006 8 2.25006C11.1756 2.25006 13.75 4.82442 13.75 8.00006C13.75 8.41427 14.0858 8.75006 14.5 8.75006C14.9142 8.75006 15.25 8.41427 15.25 8.00006C15.25 3.996 12.0041 0.750061 8 0.750061ZM5.34685 2.89713C5.71417 2.70569 5.85674 2.25272 5.6653 1.88541C5.47385 1.51809 5.02089 1.37551 4.65357 1.56696C3.33492 2.25423 2.2546 3.33455 1.56733 4.65319C1.37589 5.02051 1.51846 5.47348 1.88578 5.66492C2.2531 5.85636 2.70607 5.71379 2.89751 5.34647C3.44274 4.30036 4.30073 3.44236 5.34685 2.89713ZM2.25 8.00006C2.25 7.58585 1.91421 7.25006 1.5 7.25006C1.08579 7.25006 0.75 7.58585 0.75 8.00006C0.75 12.0041 3.99594 15.2501 8 15.2501C8.41421 15.2501 8.75 14.9143 8.75 14.5001C8.75 14.0858 8.41421 13.7501 8 13.7501C4.82436 13.7501 2.25 11.1757 2.25 8.00006ZM14.4329 11.3467C14.6243 10.9794 14.4817 10.5264 14.1144 10.335C13.7471 10.1435 13.2941 10.2861 13.1027 10.6534C12.5575 11.6995 11.6995 12.5575 10.6534 13.1028C10.286 13.2942 10.1435 13.7472 10.3349 14.1145C10.5264 14.4818 10.9793 14.6244 11.3466 14.4329C12.6653 13.7457 13.7456 12.6653 14.4329 11.3467ZM11.0733 6.48352C11.3403 6.16688 11.3001 5.69371 10.9835 5.42667C10.6669 5.15963 10.1937 5.19984 9.92664 5.51648L7.13702 8.82423L6.08183 7.52678C5.82048 7.20543 5.34811 7.15679 5.02675 7.41814C4.7054 7.67949 4.65676 8.15186 4.91811 8.47322L6.54467 10.4732C6.68561 10.6465 6.89647 10.748 7.11984 10.75C7.34321 10.752 7.55585 10.6543 7.69986 10.4835L11.0733 6.48352Z" fill="currentColor"/>
</svg>
