<svg width="16" height="16" viewBox="0 0 16 16" fill="none" xmlns="http://www.w3.org/2000/svg">
<path fill-rule="evenodd" clip-rule="evenodd" d="M11.5 5.5C10.9477 5.5 10.5 5.05228 10.5 4.5C10.5 3.94772 10.9477 3.5 11.5 3.5C12.0523 3.5 12.5 3.94772 12.5 4.5C12.5 5.05228 12.0523 5.5 11.5 5.5ZM9 4.5C9 3.11929 10.1193 2 11.5 2C12.8807 2 14 3.11929 14 4.5C14 5.88071 12.8807 7 11.5 7C10.1193 7 9 5.88071 9 4.5ZM11.5 12.5C10.9477 12.5 10.5 12.0523 10.5 11.5C10.5 10.9477 10.9477 10.5 11.5 10.5C12.0523 10.5 12.5 10.9477 12.5 11.5C12.5 12.0523 12.0523 12.5 11.5 12.5ZM9 11.5C9 10.1193 10.1193 9 11.5 9C12.8807 9 14 10.1193 14 11.5C14 12.8807 12.8807 14 11.5 14C10.1193 14 9 12.8807 9 11.5ZM3.5 11.5C3.5 12.0523 3.94772 12.5 4.5 12.5C5.05228 12.5 5.5 12.0523 5.5 11.5C5.5 10.9477 5.05228 10.5 4.5 10.5C3.94772 10.5 3.5 10.9477 3.5 11.5ZM4.5 9C3.11929 9 2 10.1193 2 11.5C2 12.8807 3.11929 14 4.5 14C5.88071 14 7 12.8807 7 11.5C7 10.1193 5.88071 9 4.5 9ZM4.5 2C3.11929 2 2 3.11929 2 4.5C2 5.88071 3.11929 7 4.5 7C5.88071 7 7 5.88071 7 4.5C7 3.11929 5.88071 2 4.5 2Z" fill="currentColor"/>
</svg>
