<svg width="16" height="16" viewBox="0 0 16 16" fill="none" xmlns="http://www.w3.org/2000/svg">
<path fill-rule="evenodd" clip-rule="evenodd" d="M8.75001 1C8.75001 0.585786 8.41422 0.25 8.00001 0.25C7.58579 0.25 7.25001 0.585787 7.25001 1L7.25001 7.47256L5.56945 5.51191C5.29988 5.19741 4.82641 5.16099 4.51191 5.43056C4.19742 5.70013 4.161 6.1736 4.43057 6.48809L7.43057 9.98809C7.57306 10.1543 7.78107 10.25 8.00001 10.25C8.21896 10.25 8.42697 10.1543 8.56946 9.98809L11.5695 6.48809C11.839 6.1736 11.8026 5.70012 11.4881 5.43056C11.1736 5.16099 10.7001 5.19741 10.4306 5.51191L8.75001 7.47256L8.75001 1ZM11.5 10.8817C10.3577 10.8817 9.05324 11.2454 7.87655 11.5735L7.80542 11.5934C6.54718 11.9441 5.42597 12.25 4.5 12.25C3.53076 12.25 2.72438 12.092 2.16421 11.9355C2.00513 11.8911 1.8664 11.847 1.75 11.8068L1.75 4.0872C1.86491 4.12318 1.98722 4.1592 2.116 4.19417C2.95704 4.42249 4.12373 4.61935 5.32058 4.4244C5.7294 4.3578 6.00684 3.9724 5.94024 3.56358C5.87365 3.15475 5.48825 2.87732 5.07942 2.94391C4.17627 3.09102 3.24296 2.94582 2.509 2.74656C2.14708 2.64831 1.84576 2.54026 1.63682 2.45761C1.53262 2.41639 1.45213 2.38178 1.39939 2.35829C1.37303 2.34656 1.35367 2.33763 1.34181 2.33209L1.32971 2.32638L1.32928 2.32618L1.32896 2.32602L1.32869 2.32589L1.32828 2.32569L1.32815 2.32562C1.09594 2.21264 0.821898 2.22705 0.6028 2.36384C0.383343 2.50086 0.25 2.74131 0.25 3.00003V12.3158C0.25 12.6024 0.413269 12.8639 0.670717 12.9897L1 12.3158C0.670717 12.9897 0.670918 12.9898 0.671123 12.9899L0.671561 12.9901L0.672536 12.9906L0.674877 12.9917L0.681119 12.9947L0.699784 13.0035C0.714952 13.0105 0.735555 13.02 0.761416 13.0314C0.813128 13.0542 0.885948 13.0851 0.978491 13.1213C1.16347 13.1936 1.42795 13.2873 1.76079 13.3803C2.42563 13.5659 3.36924 13.75 4.5 13.75C5.65547 13.75 6.96962 13.3836 8.15131 13.0541L8.20815 13.0383C9.46761 12.6873 10.5834 12.3817 11.5 12.3817C12.4597 12.3817 13.2662 12.5396 13.8297 12.6963C14.1109 12.7746 14.3298 12.852 14.4748 12.9083C14.5473 12.9363 14.6011 12.959 14.6349 12.9738C14.6517 12.9811 14.6636 12.9865 14.6702 12.9895L14.6754 12.9919L14.676 12.9923L14.6761 12.9923C14.9081 13.1034 15.1809 13.0878 15.3988 12.951C15.6173 12.8138 15.75 12.5739 15.75 12.3158V3.00002C15.75 2.73388 15.609 2.48768 15.3794 2.35305L15 3.00002C15.3794 2.35305 15.3791 2.35288 15.3788 2.35271L15.3782 2.35234L15.3768 2.35153L15.3735 2.34963L15.365 2.34476L15.3401 2.33089C15.32 2.31991 15.2931 2.30556 15.2595 2.28852C15.1925 2.25446 15.0987 2.20958 14.9802 2.15953C14.7437 2.05957 14.4069 1.93811 13.9868 1.84152C13.1454 1.64802 11.9659 1.55372 10.5983 1.93559C10.1993 2.04699 9.96623 2.46072 10.0776 2.85967C10.189 3.25862 10.6028 3.49173 11.0017 3.38033C12.0841 3.07807 13.0046 3.15481 13.6507 3.30337C13.8912 3.35868 14.0931 3.42387 14.25 3.48288V11.2563L14.2317 11.2512C13.5657 11.0659 12.6222 10.8817 11.5 10.8817ZM14.6741 12.9913L14.6745 12.9915C14.6743 12.9914 14.6741 12.9913 15 12.3158L14.6741 12.9913Z" fill="currentColor"/>
</svg>
