<svg width="16" height="16" viewBox="0 0 16 16" fill="none" xmlns="http://www.w3.org/2000/svg">
<path fill-rule="evenodd" clip-rule="evenodd" d="M4 8.99994C4.55228 8.99994 5 8.55222 5 7.99994C5 7.44765 4.55228 6.99994 4 6.99994C3.44772 6.99994 3 7.44765 3 7.99994C3 8.55222 3.44772 8.99994 4 8.99994ZM9 7.99994C9 8.55222 8.55228 8.99994 8 8.99994C7.44772 8.99994 7 8.55222 7 7.99994C7 7.44765 7.44772 6.99994 8 6.99994C8.55228 6.99994 9 7.44765 9 7.99994ZM13 7.99994C13 8.55222 12.5523 8.99994 12 8.99994C11.4477 8.99994 11 8.55222 11 7.99994C11 7.44765 11.4477 6.99994 12 6.99994C12.5523 6.99994 13 7.44765 13 7.99994Z" fill="currentColor"/>
</svg>
