<svg width="16" height="16" viewBox="0 0 16 16" fill="none" xmlns="http://www.w3.org/2000/svg">
<path fill-rule="evenodd" clip-rule="evenodd" d="M7.99991 15.0001C11.8659 15.0001 14.9999 11.8661 14.9999 8.00006C14.9999 4.13407 11.8659 1.00006 7.99991 1.00006C4.13392 1.00006 0.999908 4.13407 0.999908 8.00006C0.999908 11.8661 4.13392 15.0001 7.99991 15.0001ZM7.99997 8.99994C8.55225 8.99994 8.99997 8.55222 8.99997 7.99994C8.99997 7.44765 8.55225 6.99994 7.99997 6.99994C7.44768 6.99994 6.99997 7.44765 6.99997 7.99994C6.99997 8.55222 7.44768 8.99994 7.99997 8.99994ZM13 7.99994C13 8.55222 12.5523 8.99994 12 8.99994C11.4477 8.99994 11 8.55222 11 7.99994C11 7.44765 11.4477 6.99994 12 6.99994C12.5523 6.99994 13 7.44765 13 7.99994ZM3.99997 8.99994C4.55225 8.99994 4.99997 8.55222 4.99997 7.99994C4.99997 7.44765 4.55225 6.99994 3.99997 6.99994C3.44768 6.99994 2.99997 7.44765 2.99997 7.99994C2.99997 8.55222 3.44768 8.99994 3.99997 8.99994Z" fill="currentColor"/>
</svg>
