<svg width="16" height="16" viewBox="0 0 16 16" fill="none" xmlns="http://www.w3.org/2000/svg">
<path fill-rule="evenodd" clip-rule="evenodd" d="M12.1854 1.12906C12.1217 0.956979 11.8783 0.956979 11.8146 1.12906L11.3909 2.27413C11.3709 2.32824 11.3282 2.37089 11.2741 2.39091L10.1291 2.81463C9.95698 2.8783 9.95698 3.1217 10.1291 3.18537L11.2741 3.60909C11.3282 3.62911 11.3709 3.67176 11.3909 3.72587L11.8146 4.87094C11.8783 5.04302 12.1217 5.04302 12.1854 4.87094L12.6091 3.72587C12.6291 3.67176 12.6718 3.62911 12.7259 3.60909L13.8709 3.18537C14.043 3.1217 14.043 2.8783 13.8709 2.81463L12.7259 2.39091C12.6718 2.37089 12.6291 2.32824 12.6091 2.27413L12.1854 1.12906ZM3.80072 3.13876C3.86917 2.95376 4.13083 2.95377 4.19928 3.13876L4.88435 4.99012C4.90587 5.04829 4.95173 5.09414 5.00989 5.11567L6.86125 5.80073C7.04625 5.86919 7.04625 6.13084 6.86125 6.1993L5.00989 6.88436C4.95173 6.90588 4.90587 6.95174 4.88435 7.0099L4.19928 8.86127C4.13083 9.04626 3.86917 9.04626 3.80072 8.86127L3.11565 7.0099C3.09413 6.95174 3.04827 6.90588 2.99011 6.88436L1.13875 6.1993C0.953751 6.13084 0.953751 5.86919 1.13875 5.80073L2.99011 5.11567C3.04827 5.09414 3.09413 5.04829 3.11565 4.99012L3.80072 3.13876ZM8.82087 10.1535L9.73429 7.685C9.82557 7.43833 10.1744 7.43833 10.2657 7.685L11.1791 10.1535C11.2078 10.231 11.269 10.2922 11.3465 10.3209L13.815 11.2343C14.0617 11.3256 14.0617 11.6744 13.815 11.7657L11.3465 12.6791C11.269 12.7078 11.2078 12.769 11.1791 12.8465L10.2657 15.315C10.1744 15.5617 9.82557 15.5617 9.73429 15.315L8.82087 12.8465C8.79218 12.769 8.73103 12.7078 8.65348 12.6791L6.185 11.7657C5.93834 11.6744 5.93834 11.3256 6.185 11.2343L8.65348 10.3209C8.73103 10.2922 8.79218 10.231 8.82087 10.1535Z" fill="currentColor"/>
</svg>
