<svg width="16" height="16" viewBox="0 0 16 16" fill="none" xmlns="http://www.w3.org/2000/svg">
<path fill-rule="evenodd" clip-rule="evenodd" d="M2 5.75C1.58579 5.75 1.25 5.41421 1.25 5L1.25 2C1.25 1.58579 1.58579 1.25 2 1.25H5C5.41422 1.25 5.75 1.58579 5.75 2C5.75 2.41421 5.41422 2.75 5 2.75L2.75 2.75L2.75 5C2.75 5.41421 2.41422 5.75 2 5.75ZM14 10.25C14.4142 10.25 14.75 10.5858 14.75 11L14.75 14C14.75 14.4143 14.4142 14.75 14 14.75L11 14.75C10.5858 14.75 10.25 14.4143 10.25 14C10.25 13.5858 10.5858 13.25 11 13.25H13.25L13.25 11C13.25 10.5858 13.5858 10.25 14 10.25ZM2 14.75L8 14.75C8.19891 14.75 8.38968 14.671 8.53033 14.5304C8.67098 14.3897 8.75 14.1989 8.75 14L8.75 8.00003C8.75 7.80112 8.67098 7.61035 8.53033 7.4697C8.38968 7.32905 8.19891 7.25003 8 7.25003H2C1.80109 7.25003 1.61032 7.32905 1.46967 7.4697C1.32902 7.61035 1.25 7.80112 1.25 8.00003V14C1.25 14.4142 1.58579 14.75 2 14.75ZM7.25 8.75003L7.25 13.25L2.75 13.25L2.75 8.75003L7.25 8.75003ZM14.5303 6.53037C14.3897 6.67102 14.1989 6.75004 14 6.75004L10 6.75003C9.58579 6.75003 9.25 6.41424 9.25 6.00003V2.00003C9.25 1.80112 9.32902 1.61035 9.46967 1.4697C9.61032 1.32905 9.80109 1.25003 10 1.25003L14 1.25003C14.1989 1.25003 14.3897 1.32905 14.5303 1.4697C14.671 1.61035 14.75 1.80112 14.75 2.00003L14.75 6.00004C14.75 6.19895 14.671 6.38971 14.5303 6.53037ZM13.25 5.25003L13.25 2.75003L10.75 2.75003V5.25003L13.25 5.25003ZM6 11C6 10.4477 5.55228 10 5 10C4.44772 10 4 10.4477 4 11C4 11.5523 4.44772 12 5 12C5.55228 12 6 11.5523 6 11ZM7 4.00003C7.55229 4.00003 8 4.44774 8 5.00003C8 5.55231 7.55228 6.00003 7 6.00003C6.44772 6.00003 6 5.55231 6 5.00003C6 4.44774 6.44772 4.00003 7 4.00003ZM12 9.00003C12 8.44774 11.5523 8.00003 11 8.00003C10.4477 8.00003 10 8.44774 10 9.00003C10 9.55231 10.4477 10 11 10C11.5523 10 12 9.55231 12 9.00003Z" fill="currentColor"/>
</svg>
