<svg width="16" height="16" viewBox="0 0 16 16" fill="none" xmlns="http://www.w3.org/2000/svg">
<path fill-rule="evenodd" clip-rule="evenodd" d="M5.5 4.75002C3.70507 4.75002 2.25 6.20509 2.25 8.00002V9.00001C2.25 9.41423 1.91421 9.75001 1.5 9.75001C1.08579 9.75001 0.75 9.41423 0.75 9.00001V8.00002C0.75 5.37667 2.87665 3.25002 5.5 3.25002H10.4726L8.51191 1.56946C8.19741 1.29989 8.16099 0.826414 8.43056 0.511919C8.70013 0.197425 9.1736 0.161005 9.48809 0.430572L12.9881 3.43058C13.1543 3.57307 13.25 3.78108 13.25 4.00002C13.25 4.21896 13.1543 4.42698 12.9881 4.56946L9.48809 7.56946C9.1736 7.83902 8.70012 7.8026 8.43056 7.48811C8.16099 7.17361 8.19741 6.70014 8.51191 6.43057L10.4726 4.75002H5.5ZM10.5 11.25C12.2949 11.25 13.75 9.79492 13.75 7.99999V7C13.75 6.58579 14.0858 6.25 14.5 6.25C14.9142 6.25 15.25 6.58579 15.25 7V7.99999C15.25 10.6233 13.1234 12.75 10.5 12.75H5.52744L7.48809 14.4306C7.80259 14.7001 7.83901 15.1736 7.56944 15.4881C7.29987 15.8026 6.8264 15.839 6.51191 15.5694L3.01191 12.5694C2.84567 12.4269 2.75 12.2189 2.75 12C2.75 11.781 2.84567 11.573 3.01191 11.4305L6.51191 8.43056C6.8264 8.16099 7.29988 8.19741 7.56944 8.51191C7.83901 8.8264 7.80259 9.29988 7.48809 9.56944L5.52745 11.25H10.5Z" fill="currentColor"/>
</svg>
