<svg width="16" height="16" viewBox="0 0 16 16" fill="none" xmlns="http://www.w3.org/2000/svg">
<path fill-rule="evenodd" clip-rule="evenodd" d="M8.25 3.00006C8.25 2.58585 8.58579 2.25006 9 2.25006H10.5C12.8472 2.25006 14.75 4.15284 14.75 6.50004C14.75 8.84725 12.8472 10.75 10.5 10.75L4.02746 10.7501L5.98809 12.4306C6.30259 12.7001 6.33901 13.1736 6.06945 13.4881C5.79988 13.8026 5.32641 13.839 5.01191 13.5695L1.51191 10.5695C1.34567 10.427 1.25 10.219 1.25 10.0001C1.25 9.78112 1.34567 9.57311 1.5119 9.43062L5.0119 6.43058C5.3264 6.16101 5.79987 6.19743 6.06944 6.51192C6.33901 6.82642 6.30259 7.29989 5.9881 7.56946L4.02743 9.25006L10.5 9.25004C12.0188 9.25004 13.25 8.01882 13.25 6.50005C13.25 4.98127 12.0188 3.75006 10.5 3.75006H9C8.58579 3.75006 8.25 3.41427 8.25 3.00006Z" fill="currentColor"/>
</svg>
