<svg width="16" height="16" viewBox="0 0 16 16" fill="none" xmlns="http://www.w3.org/2000/svg">
<path fill-rule="evenodd" clip-rule="evenodd" d="M8 2.25C7.94701 2.25 7.81116 2.27304 7.60342 2.49207C7.39282 2.71412 7.15524 3.09325 6.93224 3.67304C6.75533 4.13301 6.61132 4.65733 6.50199 5.22276C7.49181 5.25908 8.50819 5.25908 9.49801 5.22276C9.38868 4.65733 9.24467 4.13301 9.06776 3.67304C8.84476 3.09325 8.60718 2.71412 8.39658 2.49207C8.18884 2.27304 8.05299 2.25 8 2.25ZM9.69869 6.71606C8.57754 6.76131 7.42246 6.76131 6.30131 6.71607C6.26729 7.13645 6.25 7.56687 6.25 8C6.25 8.43313 6.26729 8.86355 6.30131 9.28394C7.42246 9.23869 8.57754 9.23869 9.69869 9.28394C9.73271 8.86355 9.75 8.43313 9.75 8C9.75 7.56687 9.73271 7.13645 9.69869 6.71606ZM4.99231 5.13708C5.12 4.41978 5.29918 3.7405 5.53222 3.13457C5.58633 2.99389 5.64299 2.85807 5.70223 2.72748C4.64138 3.19044 3.74727 3.96419 3.13495 4.93368C3.71723 5.01856 4.34206 5.08636 4.99231 5.13708ZM2.48985 6.35131C3.20384 6.46925 3.98506 6.56102 4.80369 6.62663C4.76772 7.08183 4.75 7.54223 4.75 8C4.75 8.45778 4.76772 8.91817 4.80369 9.37337C3.98506 9.43898 3.20384 9.53076 2.48986 9.6487C2.33382 9.12643 2.25 8.57301 2.25 8C2.25 7.427 2.33382 6.87357 2.48985 6.35131ZM11.1963 6.62663C12.0149 6.56102 12.7962 6.46924 13.5101 6.3513C13.6662 6.87356 13.75 7.42699 13.75 8C13.75 8.57301 13.6662 9.12643 13.5101 9.6487C12.7962 9.53076 12.0149 9.43898 11.1963 9.37337C11.2323 8.91817 11.25 8.45778 11.25 8C11.25 7.54222 11.2323 7.08183 11.1963 6.62663ZM12.8651 4.93368C12.2828 5.01856 11.6579 5.08636 11.0077 5.13708C10.88 4.41978 10.7008 3.7405 10.4678 3.13457C10.4137 2.99389 10.357 2.85807 10.2978 2.72748C11.3586 3.19044 12.2527 3.96419 12.8651 4.93368ZM4.99231 10.8629C4.34206 10.9136 3.71723 10.9814 3.13495 11.0663C3.74727 12.0358 4.64138 12.8096 5.70223 13.2725C5.64299 13.1419 5.58633 13.0061 5.53222 12.8654C5.29918 12.2595 5.12 11.5802 4.99231 10.8629ZM9.06776 12.327C9.24467 11.867 9.38868 11.3427 9.49801 10.7772C8.50819 10.7409 7.49181 10.7409 6.50199 10.7772C6.61132 11.3427 6.75533 11.867 6.93224 12.327C7.15524 12.9068 7.39282 13.2859 7.60342 13.5079C7.81116 13.727 7.94701 13.75 8 13.75C8.05299 13.75 8.18884 13.727 8.39658 13.5079C8.60718 13.2859 8.84476 12.9068 9.06776 12.327ZM10.4678 12.8654C10.7008 12.2595 10.88 11.5802 11.0077 10.8629C11.6579 10.9136 12.2828 10.9814 12.8651 11.0663C12.2527 12.0358 11.3586 12.8096 10.2978 13.2725C10.357 13.1419 10.4137 13.0061 10.4678 12.8654ZM8 15.25C12.0041 15.25 15.25 12.0041 15.25 8C15.25 3.99594 12.0041 0.75 8 0.75C3.99594 0.75 0.75 3.99593 0.75 8C0.75 12.0041 3.99594 15.25 8 15.25Z" fill="currentColor"/>
</svg>
