<svg width="16" height="16" viewBox="0 0 16 16" fill="none" xmlns="http://www.w3.org/2000/svg">
<path fill-rule="evenodd" clip-rule="evenodd" d="M2 4.75C2.41421 4.75 2.75 5.08579 2.75 5.5C2.75 7.01878 3.9812 8.24999 5.49998 8.24999L12.1894 8.25001L10.9697 7.03033C10.6768 6.73744 10.6768 6.26256 10.9697 5.96967C11.2626 5.67678 11.7374 5.67678 12.0303 5.96967L14.5304 8.46969C14.671 8.61034 14.75 8.8011 14.75 9.00002C14.75 9.19893 14.671 9.3897 14.5303 9.53035L12.0303 12.0303C11.7374 12.3232 11.2626 12.3232 10.9697 12.0303C10.6768 11.7374 10.6768 11.2626 10.9697 10.9697L12.1893 9.75001L5.49998 9.74999C3.15277 9.74999 1.25 7.8472 1.25 5.5C1.25 5.08579 1.58579 4.75 2 4.75Z" fill="currentColor"/>
</svg>
