<svg width="16" height="16" viewBox="0 0 16 16" fill="none" xmlns="http://www.w3.org/2000/svg">
<path d="M4.8042 1.69519C4.92918 1.82021 4.99939 1.98975 4.99939 2.16652C4.99939 2.3433 4.92918 2.51284 4.8042 2.63786L3.60887 3.83319H8.83287C9.8877 3.83319 10.9188 4.14599 11.7959 4.73202C12.673 5.31805 13.3566 6.15101 13.7602 7.12555C14.1639 8.10009 14.2695 9.17244 14.0637 10.207C13.8579 11.2416 13.35 12.1919 12.6041 12.9378C11.8582 13.6836 10.9079 14.1916 9.87335 14.3974C8.83878 14.6032 7.76643 14.4976 6.79189 14.0939C5.81735 13.6902 4.9844 13.0066 4.39836 12.1296C3.81233 11.2525 3.49953 10.2214 3.49953 9.16652C3.49953 8.98971 3.56977 8.82014 3.69479 8.69512C3.81982 8.5701 3.98939 8.49986 4.1662 8.49986C4.34301 8.49986 4.51258 8.5701 4.6376 8.69512C4.76263 8.82014 4.83287 8.98971 4.83287 9.16652C4.83287 9.95765 5.06746 10.731 5.50699 11.3888C5.94651 12.0466 6.57123 12.5593 7.30213 12.862C8.03304 13.1648 8.8373 13.244 9.61323 13.0897C10.3892 12.9353 11.1019 12.5544 11.6613 11.995C12.2207 11.4355 12.6017 10.7228 12.756 9.94689C12.9103 9.17096 12.8311 8.3667 12.5284 7.63579C12.2256 6.90489 11.7129 6.28017 11.0551 5.84065C10.3974 5.40112 9.62399 5.16652 8.83287 5.16652H3.60887L4.8042 6.36186C4.92564 6.48759 4.99283 6.65599 4.99131 6.83079C4.9898 7.00559 4.91968 7.1728 4.79608 7.2964C4.67247 7.42001 4.50526 7.49012 4.33047 7.49164C4.15567 7.49316 3.98727 7.42596 3.86153 7.30452L1.5282 4.97119C1.40322 4.84617 1.33301 4.67663 1.33301 4.49986C1.33301 4.32308 1.40322 4.15354 1.5282 4.02852L3.86153 1.69519C3.98655 1.57021 4.15609 1.5 4.33287 1.5C4.50964 1.5 4.67918 1.57021 4.8042 1.69519Z" fill="black"/>
</svg>
