<svg width="16" height="16" viewBox="0 0 16 16" fill="none" xmlns="http://www.w3.org/2000/svg">
<path fill-rule="evenodd" clip-rule="evenodd" d="M12 1.75C12.219 1.75 12.427 1.84567 12.5695 2.01191L15.5695 5.51191C15.839 5.8264 15.8026 6.29988 15.4881 6.56944C15.1736 6.83901 14.7001 6.80259 14.4306 6.48809L12.75 4.52744V8.74999V8.77021C12.75 8.98312 12.75 9.11274 12.7456 9.22575C12.6278 12.2241 10.2241 14.6278 7.22576 14.7456C7.11276 14.75 6.98314 14.75 6.77022 14.75H6.75001H6.5C3.32437 14.75 0.75 12.1756 0.75 9C0.75 5.82436 3.32436 3.25 6.5 3.25C6.91421 3.25 7.25 3.58579 7.25 4C7.25 4.41421 6.91421 4.75 6.5 4.75C4.15279 4.75 2.25 6.65279 2.25 9C2.25 11.3472 4.15279 13.25 6.5 13.25H6.75001C6.98926 13.25 7.08719 13.2499 7.16687 13.2467C9.38305 13.1596 11.1597 11.383 11.2467 9.16686C11.2499 9.08717 11.25 8.98925 11.25 8.74999V4.52744L9.56946 6.48809C9.29989 6.80259 8.82642 6.83901 8.51192 6.56944C8.19743 6.29988 8.16101 5.8264 8.43057 5.51191L11.4306 2.01191C11.5731 1.84567 11.7811 1.75 12 1.75Z" fill="currentColor"/>
</svg>
