<svg width="16" height="16" viewBox="0 0 16 16" fill="none" xmlns="http://www.w3.org/2000/svg">
<path fill-rule="evenodd" clip-rule="evenodd" d="M3.58169 3.58809C6.02222 1.1373 9.97778 1.1373 12.4183 3.58809C14.8606 6.04062 14.8606 10.0183 12.4183 12.4708C12.126 12.7643 12.127 13.2392 12.4205 13.5314C12.714 13.8237 13.1889 13.8227 13.4812 13.5292C16.5063 10.4914 16.5063 5.56746 13.4812 2.52966C10.4544 -0.509886 5.54563 -0.509886 2.51881 2.52966C-0.50627 5.56746 -0.50627 10.4914 2.51881 13.5292C2.81109 13.8227 3.28596 13.8237 3.57947 13.5314C3.87298 13.2392 3.87397 12.7643 3.58169 12.4708C1.13944 10.0183 1.13944 6.04062 3.58169 3.58809ZM5.41584 10.3182C5.1762 10.5446 5.13194 10.9186 5.37546 11.1408C5.92909 11.6459 6.74609 11.9702 7.65306 12.0552V12.4847C7.65306 12.7693 7.88377 13 8.16837 13C8.45296 13 8.68367 12.7693 8.68367 12.4847V12.0357C10 11.8604 11 11.0714 11 9.8539C11 8.42208 9.80612 8.10065 8.68367 7.8961L8.68367 6.09416C8.98099 6.16774 9.25158 6.30087 9.48901 6.48437C9.81115 6.73334 10.2886 6.79133 10.577 6.50401C10.7984 6.28353 10.8349 5.92914 10.6013 5.72167C10.1387 5.31081 9.46856 5.02497 8.68367 4.93507V4.51531C8.68367 4.23071 8.45296 4 8.16837 4C7.88377 4 7.65306 4.23071 7.65306 4.51531V4.93507C6.35714 5.09091 5.36735 5.86039 5.36735 7.03896C5.36735 8.42208 6.53061 8.74351 7.65306 8.94805V10.8766C7.21078 10.8021 6.83068 10.6326 6.49955 10.3581C6.18466 10.097 5.71321 10.0373 5.41584 10.3182ZM7.65306 7.7013C7.10204 7.57468 6.70408 7.37987 6.70408 6.93182C6.70408 6.45455 7.09184 6.16234 7.65306 6.06494V7.7013ZM8.68367 9.14286C9.2551 9.27922 9.66327 9.48377 9.66327 9.96104C9.66327 10.5065 9.26531 10.7792 8.68367 10.8766V9.14286Z" fill="currentColor"/>
</svg>
