<svg width="16" height="16" viewBox="0 0 16 16" fill="none" xmlns="http://www.w3.org/2000/svg">
<path fill-rule="evenodd" clip-rule="evenodd" d="M10.0052 3.9948C8.34548 2.33507 5.65453 2.33507 3.9948 3.9948C2.33507 5.65453 2.33507 8.34548 3.9948 10.0052C5.65452 11.6649 8.34548 11.6649 10.0052 10.0052C11.6649 8.34548 11.6649 5.65452 10.0052 3.9948ZM2.93414 2.93414C5.17965 0.688621 8.82035 0.688621 11.0659 2.93414C13.1316 4.99991 13.297 8.24646 11.5619 10.5013L14.5303 13.4697C14.8232 13.7626 14.8232 14.2374 14.5303 14.5303C14.2374 14.8232 13.7626 14.8232 13.4697 14.5303L10.5013 11.5619C8.24646 13.297 4.99991 13.1316 2.93414 11.0659C0.688621 8.82035 0.688621 5.17965 2.93414 2.93414Z" fill="currentColor"/>
</svg>
