<svg width="16" height="16" viewBox="0 0 16 16" fill="none" xmlns="http://www.w3.org/2000/svg">
<path fill-rule="evenodd" clip-rule="evenodd" d="M8.20951 1.09668L14.2184 3.86999C14.3909 3.94961 14.5031 4.11948 14.5019 4.30948C14.4953 5.36013 14.3662 8.84455 13 11C11.7084 13.0377 9.00047 14.501 8.21676 14.8944C8.07983 14.9631 7.92006 14.9631 7.78313 14.8944C6.99933 14.501 4.29153 13.0376 3 11C1.6338 8.84455 1.50472 5.36013 1.49813 4.30948C1.49694 4.11948 1.60912 3.94961 1.78163 3.86998L7.79045 1.09668C7.9234 1.03532 8.07656 1.03532 8.20951 1.09668ZM8.75 8.2993C9.19835 8.03994 9.5 7.55519 9.5 6.99997C9.5 6.17155 8.82843 5.49997 8 5.49997C7.17157 5.49997 6.5 6.17155 6.5 6.99997C6.5 7.55519 6.80165 8.03994 7.25 8.2993V8.99997C7.25 9.41419 7.58579 9.74997 8 9.74997C8.41421 9.74997 8.75 9.41419 8.75 8.99997V8.2993Z" fill="currentColor"/>
</svg>
