<svg width="16" height="16" viewBox="0 0 16 16" fill="none" xmlns="http://www.w3.org/2000/svg">
<path fill-rule="evenodd" clip-rule="evenodd" d="M14.2184 3.86999L8.20951 1.09668C8.07656 1.03532 7.9234 1.03532 7.79045 1.09668L1.78163 3.86998C1.60912 3.94961 1.49693 4.11948 1.49812 4.30948C1.50472 5.36013 1.6338 8.84455 3 11C4.29153 13.0376 6.99933 14.501 7.78313 14.8944C7.92005 14.9631 8.07983 14.9631 8.21675 14.8944C9.00047 14.501 11.7084 13.0377 13 11C14.3662 8.84455 14.4953 5.36013 14.5019 4.30948C14.5031 4.11948 14.3909 3.94961 14.2184 3.86999ZM11.3233 6.2335C11.5904 5.91686 11.5502 5.44369 11.2335 5.17664C10.9169 4.9096 10.4437 4.94981 10.1767 5.26645L7.38705 8.5742L6.33186 7.27676C6.07051 6.9554 5.59813 6.90676 5.27678 7.16811C4.95543 7.42946 4.90679 7.90184 5.16814 8.22319L6.7947 10.2232C6.93564 10.3965 7.1465 10.498 7.36987 10.4999C7.59324 10.5019 7.80588 10.4043 7.94989 10.2335L11.3233 6.2335Z" fill="currentColor"/>
</svg>
