<svg width="16" height="16" viewBox="0 0 16 16" fill="none" xmlns="http://www.w3.org/2000/svg">
<path fill-rule="evenodd" clip-rule="evenodd" d="M8.20948 1.09668L14.2183 3.86999C14.3908 3.94961 14.503 4.11948 14.5018 4.30948C14.4952 5.36013 14.3662 8.84455 13 11C11.7084 13.0377 9.00044 14.501 8.21672 14.8944C8.0798 14.9631 7.92002 14.9631 7.7831 14.8944C6.9993 14.501 4.2915 13.0376 2.99997 11C1.63377 8.84455 1.50468 5.36013 1.49809 4.30948C1.4969 4.11948 1.60909 3.94961 1.7816 3.86998L7.79042 1.09668C7.92337 1.03532 8.07653 1.03532 8.20948 1.09668ZM7.99997 4.24997C8.41418 4.24997 8.74997 4.58576 8.74997 4.99997V7.99997C8.74997 8.41419 8.41418 8.74997 7.99997 8.74997C7.58575 8.74997 7.24997 8.41419 7.24997 7.99997V4.99997C7.24997 4.58576 7.58575 4.24997 7.99997 4.24997ZM7.99997 11.5C8.55225 11.5 8.99997 11.0523 8.99997 10.5C8.99997 9.94769 8.55225 9.49997 7.99997 9.49997C7.44768 9.49997 6.99997 9.94769 6.99997 10.5C6.99997 11.0523 7.44768 11.5 7.99997 11.5Z" fill="currentColor"/>
</svg>
