<svg width="16" height="16" viewBox="0 0 16 16" fill="none" xmlns="http://www.w3.org/2000/svg">
<path fill-rule="evenodd" clip-rule="evenodd" d="M15.0303 0.969688C15.2268 1.16613 15.2985 1.45506 15.2168 1.72058L11.2168 14.7206C11.127 15.0126 10.8691 15.2209 10.5648 15.2473C10.2604 15.2736 9.97051 15.1128 9.8318 14.8406L6.90395 9.09605L1.15945 6.16827C0.887285 6.02956 0.726445 5.73964 0.752812 5.43531C0.77918 5.13098 0.987486 4.87305 1.27945 4.78322L14.2794 0.783186C14.545 0.701486 14.8339 0.773249 15.0303 0.969688ZM8.37724 8.68343L10.3276 12.5101L13.3666 2.63348L3.48994 5.67246L7.31657 7.62277L8.54661 6.39274C8.8395 6.09984 9.31437 6.09984 9.60727 6.39274C9.90016 6.68563 9.90016 7.1605 9.60727 7.4534L8.37724 8.68343Z" fill="currentColor"/>
</svg>
