<svg width="16" height="16" viewBox="0 0 16 16" fill="none" xmlns="http://www.w3.org/2000/svg">
<path fill-rule="evenodd" clip-rule="evenodd" d="M4.11941 10.066C3.12383 9.28769 2.35572 8.4133 1.94295 7.90002C2.35572 7.38675 3.12383 6.51236 4.11941 5.73408C5.25491 4.8464 6.60143 4.15002 8.00001 4.15002C9.39859 4.15002 10.7451 4.8464 11.8806 5.73408C12.8762 6.51236 13.6443 7.38675 14.0571 7.90002C13.6443 8.41329 12.8762 9.28769 11.8806 10.066C10.7451 10.9536 9.39859 11.65 8.00001 11.65C6.60143 11.65 5.25491 10.9536 4.11941 10.066ZM8.00001 2.65002C6.11762 2.65002 4.44677 3.57421 3.19558 4.55232C1.93379 5.53872 1.01227 6.64766 0.613612 7.16337C0.276785 7.59909 0.276787 8.20096 0.613612 8.63668C1.01227 9.15239 1.93379 10.2613 3.19558 11.2477C4.44677 12.2258 6.11762 13.15 8.00001 13.15C9.8824 13.15 11.5532 12.2258 12.8044 11.2477C14.0662 10.2613 14.9877 9.15239 15.3864 8.63668C15.7232 8.20096 15.7232 7.59908 15.3864 7.16337C14.9877 6.64766 14.0662 5.53872 12.8044 4.55232C11.5532 3.57421 9.8824 2.65002 8.00001 2.65002ZM8.00002 10C9.10459 10 10 9.10459 10 8.00002C10 6.89545 9.10459 6.00002 8.00002 6.00002C6.89545 6.00002 6.00002 6.89545 6.00002 8.00002C6.00002 9.10459 6.89545 10 8.00002 10Z" fill="currentColor"/>
</svg>
