<svg width="16" height="16" viewBox="0 0 16 16" fill="none" xmlns="http://www.w3.org/2000/svg">
<path fill-rule="evenodd" clip-rule="evenodd" d="M13.5303 3.53033C13.8232 3.23744 13.8232 2.76256 13.5303 2.46967C13.2374 2.17678 12.7626 2.17678 12.4697 2.46967L11.3528 3.5865C10.3635 3.04243 9.22664 2.64999 8.00001 2.64999C6.11762 2.64999 4.44677 3.57418 3.19558 4.55229C1.93379 5.53869 1.01227 6.64763 0.613612 7.16334C0.276785 7.59906 0.276787 8.20093 0.613612 8.63665C1.01227 9.15236 1.93379 10.2613 3.19558 11.2477C3.28736 11.3194 3.3814 11.3909 3.47762 11.4617L2.46968 12.4697C2.17679 12.7626 2.17679 13.2374 2.46968 13.5303C2.76257 13.8232 3.23745 13.8232 3.53034 13.5303L4.77708 12.2836C5.73561 12.7909 6.82672 13.15 8.00001 13.15C9.8824 13.15 11.5532 12.2258 12.8044 11.2477C14.0662 10.2613 14.9877 9.15236 15.3864 8.63665C15.7232 8.20093 15.7232 7.59905 15.3864 7.16334C14.9877 6.64763 14.0662 5.53869 12.8044 4.55229C12.7494 4.50929 12.6936 4.46639 12.637 4.42367L13.5303 3.53033ZM10.239 4.70032C9.52627 4.36165 8.77105 4.14999 8.00001 4.14999C6.60143 4.14999 5.25491 4.84637 4.11941 5.73405C3.12383 6.51233 2.35572 7.38672 1.94295 7.89999C2.35572 8.41327 3.12383 9.28765 4.11941 10.0659C4.26054 10.1763 4.40492 10.2836 4.55226 10.3871L10.239 4.70032ZM5.89781 11.1629L11.5645 5.49614C11.6716 5.57359 11.777 5.65302 11.8806 5.73405C12.8762 6.51233 13.6443 7.38672 14.0571 7.89999C13.6443 8.41326 12.8762 9.28766 11.8806 10.0659C10.7451 10.9536 9.39859 11.65 8.00001 11.65C7.27812 11.65 6.5701 11.4645 5.89781 11.1629Z" fill="currentColor"/>
</svg>
