<svg width="16" height="16" viewBox="0 0 16 16" fill="none" xmlns="http://www.w3.org/2000/svg">
<path fill-rule="evenodd" clip-rule="evenodd" d="M8.75 10C8.75 10.4142 8.41421 10.75 8 10.75C7.58579 10.75 7.25 10.4142 7.25 10L7.25 3.81065L6.03032 5.03033C5.73742 5.32322 5.26255 5.32322 4.96966 5.03033C4.67676 4.73743 4.67676 4.26256 4.96966 3.96967L7.46967 1.46967C7.61033 1.32902 7.80109 1.25 8 1.25C8.19892 1.25 8.38968 1.32902 8.53033 1.46967L11.0303 3.96967C11.3232 4.26257 11.3232 4.73744 11.0303 5.03033C10.7374 5.32322 10.2625 5.32322 9.96966 5.03033L8.75 3.81067L8.75 10ZM2.75 11C2.75 10.5858 2.41421 10.25 2 10.25C1.58579 10.25 1.25 10.5858 1.25 11V14C1.25 14.4142 1.58579 14.75 2 14.75H14C14.4142 14.75 14.75 14.4142 14.75 14V11C14.75 10.5858 14.4142 10.25 14 10.25C13.5858 10.25 13.25 10.5858 13.25 11V13.25H2.75V11Z" fill="currentColor"/>
</svg>
