<svg width="16" height="16" viewBox="0 0 16 16" fill="none" xmlns="http://www.w3.org/2000/svg">
<path fill-rule="evenodd" clip-rule="evenodd" d="M10.9697 6.03033C10.6768 5.73744 10.6768 5.26256 10.9697 4.96967C11.2626 4.67678 11.7374 4.67678 12.0303 4.96967L14.5303 7.46968C14.8232 7.76257 14.8232 8.23745 14.5303 8.53034L12.0303 11.0303C11.7374 11.3232 11.2626 11.3232 10.9697 11.0303C10.6768 10.7374 10.6768 10.2626 10.9697 9.96967L12.9393 8.00001L10.9697 6.03033ZM2 8.75C1.58579 8.75 1.25 8.41421 1.25 8C1.25 7.58579 1.58579 7.25 2 7.25L8.18934 7.25001L6.96967 6.03033C6.67678 5.73744 6.67678 5.26256 6.96967 4.96967C7.26256 4.67678 7.73744 4.67678 8.03033 4.96967L10.5303 7.46968C10.8232 7.76257 10.8232 8.23745 10.5303 8.53034L8.03033 11.0303C7.73744 11.3232 7.26256 11.3232 6.96967 11.0303C6.67678 10.7374 6.67678 10.2626 6.96967 9.96967L8.18934 8.75001L2 8.75Z" fill="currentColor"/>
</svg>
