<svg width="16" height="16" viewBox="0 0 16 16" fill="none" xmlns="http://www.w3.org/2000/svg">
<g clip-path="url(#clip0_1141_293)">
<path fill-rule="evenodd" clip-rule="evenodd" d="M6.04433 0.666016C5.65534 0.666104 5.28232 0.820712 5.00733 1.09583C4.73234 1.37094 4.5779 1.74403 4.57799 2.13302C4.57808 2.522 4.73269 2.89502 5.0078 3.17001C5.28292 3.445 5.65601 3.59944 6.04499 3.59935H7.51166V2.13268C7.51166 1.7437 7.35714 1.37065 7.08208 1.09559C6.80703 0.820539 6.43398 0.666016 6.04499 0.666016M6.04499 4.57735H2.13366C1.74467 4.57735 1.37162 4.73187 1.09657 5.00693C0.821516 5.28198 0.666992 5.65503 0.666992 6.04402C0.666992 6.433 0.821516 6.80605 1.09657 7.08111C1.37162 7.35616 1.74467 7.51068 2.13366 7.51068H6.04433C6.43331 7.51068 6.80636 7.35616 7.08142 7.08111C7.35647 6.80605 7.51099 6.433 7.51099 6.04402C7.51099 5.65503 7.35647 5.28198 7.08142 5.00693C6.80636 4.73187 6.43331 4.57735 6.04433 4.57735M15.3337 6.04335C15.3337 5.65436 15.1791 5.28131 14.9041 5.00626C14.629 4.73121 14.256 4.57668 13.867 4.57668C13.478 4.57668 13.105 4.73121 12.8299 5.00626C12.5548 5.28131 12.4003 5.65436 12.4003 6.04335V7.51002H13.867C14.256 7.51002 14.629 7.35549 14.9041 7.08044C15.1791 6.80539 15.3337 6.43233 15.3337 6.04335ZM11.4223 6.04335V2.13268C11.4223 1.7437 11.2678 1.37065 10.9927 1.09559C10.7177 0.820539 10.3446 0.666016 9.95566 0.666016C9.56667 0.666016 9.19362 0.820539 8.91857 1.09559C8.64352 1.37065 8.48899 1.7437 8.48899 2.13268V6.04335C8.48899 6.43233 8.64352 6.80539 8.91857 7.08044C9.19362 7.35549 9.56667 7.51002 9.95566 7.51002C10.3446 7.51002 10.7177 7.35549 10.9927 7.08044C11.2678 6.80539 11.4223 6.43233 11.4223 6.04335ZM9.95566 15.3327C10.3446 15.3327 10.7177 15.1782 10.9927 14.9031C11.2678 14.6281 11.4223 14.255 11.4223 13.866C11.4223 13.477 11.2678 13.104 10.9927 12.8289C10.7177 12.5539 10.3446 12.3993 9.95566 12.3993H8.48899V13.866C8.48899 14.255 8.64352 14.6281 8.91857 14.9031C9.19362 15.1782 9.56667 15.3327 9.95566 15.3327ZM9.95566 11.4207H13.867C14.256 11.4207 14.629 11.2662 14.9041 10.9911C15.1791 10.7161 15.3337 10.343 15.3337 9.95402C15.3337 9.56503 15.1791 9.19198 14.9041 8.91693C14.629 8.64187 14.256 8.48735 13.867 8.48735H9.95633C9.56734 8.48726 9.19425 8.6417 8.91914 8.91669C8.64402 9.19168 8.48941 9.5647 8.48933 9.95368C8.48924 10.3427 8.64368 10.7158 8.91867 10.9909C9.19366 11.266 9.56667 11.4206 9.95566 11.4207ZM0.666992 9.95468C0.666992 10.3437 0.821516 10.7167 1.09657 10.9918C1.37162 11.2668 1.74467 11.4213 2.13366 11.4213C2.52264 11.4213 2.8957 11.2668 3.17075 10.9918C3.4458 10.7167 3.60033 10.3437 3.60033 9.95468V8.48802H2.13366C1.74467 8.48802 1.37162 8.64254 1.09657 8.91759C0.821516 9.19265 0.666992 9.5657 0.666992 9.95468ZM4.57833 9.95468V13.8653C4.57824 14.2543 4.73268 14.6274 5.00767 14.9025C5.28266 15.1777 5.65567 15.3323 6.04466 15.3323C6.43364 15.3324 6.80673 15.178 7.08185 14.903C7.35696 14.628 7.51157 14.255 7.51166 13.866V9.95535C7.51175 9.56637 7.35731 9.19328 7.08232 8.91816C6.80733 8.64305 6.43431 8.48844 6.04533 8.48835C5.65634 8.48826 5.28325 8.6427 5.00814 8.91769C4.73302 9.19268 4.57841 9.5657 4.57833 9.95468Z" fill="black"/>
</g>
<defs>
<clipPath id="clip0_1141_293">
<rect width="16" height="16" fill="white"/>
</clipPath>
</defs>
</svg>
