<svg width="16" height="16" viewBox="0 0 16 16" fill="none" xmlns="http://www.w3.org/2000/svg">
<path fill-rule="evenodd" clip-rule="evenodd" d="M8 13.7499C4.82436 13.7499 2.25 11.1756 2.25 7.99994C2.25 4.94769 4.62862 2.45041 7.63279 2.26145C7.65823 2.25985 7.70909 2.26969 7.76256 2.32316L13.6768 8.23738C13.7303 8.29085 13.7401 8.34171 13.7385 8.36715C13.5495 11.3713 11.0522 13.7499 8 13.7499ZM0.75 7.99994C0.75 12.004 3.99594 15.2499 8 15.2499C11.8491 15.2499 14.9972 12.2508 15.2355 8.46132C15.2672 7.95737 15.059 7.49831 14.7374 7.17672L8.82322 1.2625C8.50163 0.940908 8.04257 0.732711 7.53862 0.764409C3.74917 1.00277 0.75 4.15081 0.75 7.99994ZM6.67059 8.99745C6.4851 8.62709 6.03449 8.47723 5.66413 8.66273C5.29377 8.84823 5.14391 9.29883 5.32941 9.66919C5.83151 10.6717 6.8111 11.4167 8 11.4167C9.1889 11.4167 10.1685 10.6717 10.6706 9.66919C10.8561 9.29883 10.7062 8.84823 10.3359 8.66273C9.96552 8.47723 9.51491 8.62709 9.32941 8.99745C9.03307 9.58911 8.52033 9.91665 8 9.91665C7.47967 9.91665 6.96693 9.58911 6.67059 8.99745Z" fill="currentColor"/>
</svg>
