<svg width="16" height="16" viewBox="0 0 16 16" fill="none" xmlns="http://www.w3.org/2000/svg">
<path fill-rule="evenodd" clip-rule="evenodd" d="M3.93413 3.93414C6.17965 1.68862 9.82035 1.68862 12.0659 3.93414C14.3114 6.17965 14.3114 9.82035 12.0659 12.0659C9.82035 14.3114 6.17965 14.3114 3.93414 12.0659C1.68862 9.82035 1.68862 6.17965 3.93413 3.93414ZM13.1265 2.87348C10.2952 0.0421747 5.70477 0.0421747 2.87347 2.87348C0.0421741 5.70478 0.0421757 10.2952 2.87348 13.1265C5.70478 15.9578 10.2952 15.9578 13.1265 13.1265C15.9578 10.2952 15.9578 5.70478 13.1265 2.87348ZM5 7.25C4.58579 7.25 4.25 7.58579 4.25 8C4.25 8.41421 4.58579 8.75 5 8.75H11C11.4142 8.75 11.75 8.41421 11.75 8C11.75 7.58579 11.4142 7.25 11 7.25H5Z" fill="currentColor"/>
</svg>
