<svg width="16" height="16" viewBox="0 0 16 16" fill="none" xmlns="http://www.w3.org/2000/svg">
<path fill-rule="evenodd" clip-rule="evenodd" d="M5.03036 2.46967C4.88971 2.32902 4.69894 2.25 4.50003 2.25C4.30112 2.25 4.11035 2.32902 3.9697 2.46967L1.46967 4.96967C1.17678 5.26256 1.17678 5.73743 1.46967 6.03033C1.76256 6.32322 2.23743 6.32322 2.53033 6.03033L3.75002 4.81065V10C3.75002 10.4142 4.08581 10.75 4.50002 10.75C4.91424 10.75 5.25002 10.4142 5.25002 10V4.81067L6.46967 6.03033C6.76256 6.32322 7.23743 6.32322 7.53033 6.03033C7.82322 5.73744 7.82322 5.26257 7.53033 4.96967L5.03036 2.46967ZM12.0304 13.5303C11.8897 13.671 11.6989 13.75 11.5 13.75C11.3011 13.75 11.1103 13.671 10.9697 13.5303L8.46967 11.0303C8.17678 10.7374 8.17678 10.2626 8.46967 9.96967C8.76256 9.67678 9.23743 9.67678 9.53033 9.96967L10.75 11.1894V6C10.75 5.58579 11.0858 5.25 11.5 5.25C11.9142 5.25 12.25 5.58579 12.25 6V11.1893L13.4697 9.96967C13.7626 9.67678 14.2374 9.67678 14.5303 9.96967C14.8232 10.2626 14.8232 10.7374 14.5303 11.0303L12.0304 13.5303Z" fill="currentColor"/>
</svg>
