<svg width="16" height="16" viewBox="0 0 16 16" fill="none" xmlns="http://www.w3.org/2000/svg">
<path fill-rule="evenodd" clip-rule="evenodd" d="M7.15001 1C7.06717 1 7.00001 1.06716 7.00001 1.15V2.35C7.00001 2.43284 7.06717 2.5 7.15001 2.5H9.25001L10 1H7.15001ZM8.00001 3.5C5.14205 3.5 3.19163 5.31511 3.01336 6.35156C2.99931 6.4332 3.06717 6.5 3.15001 6.5H12.85C12.9329 6.5 13.0007 6.4332 12.9867 6.35156C12.8084 5.31511 10.858 3.5 8.00001 3.5ZM0.825012 8.5C0.825012 8.12721 1.12722 7.825 1.50001 7.825H14.5C14.8728 7.825 15.175 8.12721 15.175 8.5C15.175 8.87279 14.8728 9.175 14.5 9.175H13.75V12.825H14.5C14.8728 12.825 15.175 13.1272 15.175 13.5C15.175 13.8728 14.8728 14.175 14.5 14.175H1.50001C1.12722 14.175 0.825012 13.8728 0.825012 13.5C0.825012 13.1272 1.12722 12.825 1.50001 12.825H2.25V9.175H1.50001C1.12722 9.175 0.825012 8.87279 0.825012 8.5ZM3.75 12.825H5.27817V9.175H3.75V12.825ZM6.77817 12.825H9.22183V9.175H6.77817V12.825ZM10.7218 12.825H12.25V9.175H10.7218V12.825Z" fill="currentColor"/>
</svg>
