<svg width="16" height="16" viewBox="0 0 16 16" fill="none" xmlns="http://www.w3.org/2000/svg">
<path fill-rule="evenodd" clip-rule="evenodd" d="M2.5 2.25003C2.08579 2.25003 1.75 2.58582 1.75 3.00003L1.75 5.00003C1.75 5.41424 2.08579 5.75003 2.5 5.75003C2.91421 5.75003 3.25 5.41424 3.25 5.00003L3.25 3.75003L7.25 3.75003L7.25 12.25H6C5.58579 12.25 5.25 12.5858 5.25 13C5.25 13.4142 5.58579 13.75 6 13.75H8L10 13.75C10.4142 13.75 10.75 13.4142 10.75 13C10.75 12.5858 10.4142 12.25 10 12.25L8.75 12.25V3.75003L12.75 3.75003V5.00003C12.75 5.41424 13.0858 5.75003 13.5 5.75003C13.9142 5.75003 14.25 5.41424 14.25 5.00003V3.00003C14.25 2.58582 13.9142 2.25003 13.5 2.25003L8 2.25003L2.5 2.25003Z" fill="currentColor"/>
</svg>
