<svg width="16" height="16" viewBox="0 0 16 16" fill="none" xmlns="http://www.w3.org/2000/svg">
<path fill-rule="evenodd" clip-rule="evenodd" d="M7.99999 2.5C8.4142 2.5 8.74999 2.83579 8.74999 3.25L8.74999 10.8318L10.4489 8.99129C10.7298 8.68692 11.2043 8.66794 11.5087 8.9489C11.8131 9.22985 11.832 9.70434 11.5511 10.0087L8.5511 13.2587C8.40912 13.4125 8.20932 13.5 8 13.5C7.79067 13.5 7.59087 13.4125 7.44889 13.2587L4.44889 10.0087C4.16793 9.70435 4.18691 9.22985 4.49128 8.9489C4.79564 8.66794 5.27014 8.68692 5.55109 8.99129L7.24999 10.8318L7.24999 3.25C7.24999 2.83579 7.58577 2.5 7.99999 2.5Z" fill="currentColor"/>
</svg>
