<svg width="16" height="16" viewBox="0 0 16 16" fill="none" xmlns="http://www.w3.org/2000/svg">
<path fill-rule="evenodd" clip-rule="evenodd" d="M7.99999 13.5C8.4142 13.5 8.74999 13.1642 8.74999 12.75L8.74999 5.16824L10.4489 7.00871C10.7298 7.31308 11.2043 7.33206 11.5087 7.0511C11.8131 6.77015 11.832 6.29566 11.5511 5.99129L8.5511 2.74129C8.40912 2.58748 8.20932 2.5 8 2.5C7.79067 2.5 7.59087 2.58748 7.44889 2.74129L4.44889 5.99129C4.16793 6.29565 4.18691 6.77015 4.49128 7.0511C4.79564 7.33206 5.27014 7.31308 5.55109 7.00871L7.24999 5.16824L7.24999 12.75C7.24999 13.1642 7.58577 13.5 7.99999 13.5Z" fill="currentColor"/>
</svg>
