<svg width="16" height="16" viewBox="0 0 16 16" fill="none" xmlns="http://www.w3.org/2000/svg">
<path fill-rule="evenodd" clip-rule="evenodd" d="M2.74998 2C2.74998 1.58578 3.08577 1.25 3.49998 1.25H12.5C12.9142 1.25 13.25 1.58579 13.25 2V4.46482C13.25 5.04993 12.9575 5.59634 12.4707 5.9209L9.35205 7.99999L12.4707 10.0791C12.9576 10.4037 13.25 10.9501 13.25 11.5352V14C13.25 14.4142 12.9142 14.75 12.5 14.75H3.49996C3.08575 14.75 2.74996 14.4142 2.74996 14L2.74994 11.5352C2.74993 10.9501 3.04236 10.4037 3.52922 10.0791L6.64788 8L3.52924 5.92091C3.04239 5.59634 2.74996 5.04993 2.74996 4.46481L2.74998 2ZM4.24997 4.25H11.75V2.75H4.24997L4.24997 4.25ZM7.24998 9.40138L4.36126 11.3272C4.29171 11.3735 4.24994 11.4516 4.24994 11.5352L4.24995 13.25H11.75V11.5352C11.75 11.4516 11.7082 11.3735 11.6387 11.3272L8.74998 9.40139V11C8.74998 11.4142 8.41419 11.75 7.99998 11.75C7.58577 11.75 7.24998 11.4142 7.24998 11V9.40138Z" fill="currentColor"/>
</svg>
