<svg width="16" height="16" viewBox="0 0 16 16" fill="none" xmlns="http://www.w3.org/2000/svg">
<path fill-rule="evenodd" clip-rule="evenodd" d="M5.75 1.50006C5.75 1.08585 6.08579 0.750061 6.5 0.750061H8H9.5C9.91421 0.750061 10.25 1.08585 10.25 1.50006C10.25 1.91427 9.91421 2.25006 9.5 2.25006H8.75V2.79464C10.0115 2.94564 11.1579 3.47262 12.073 4.25937L13.0037 3.43789C13.3142 3.16378 13.7882 3.19333 14.0623 3.50387C14.3364 3.81442 14.3069 4.28837 13.9963 4.56248L13.0856 5.36631C13.8183 6.39013 14.25 7.64527 14.25 9.00006C14.25 12.4518 11.4518 15.2501 8 15.2501C4.54822 15.2501 1.75 12.4518 1.75 9.00006C1.75 5.8021 4.15183 3.16511 7.25 2.7946V2.25006H6.5C6.08579 2.25006 5.75 1.91427 5.75 1.50006ZM3.25 9.00006C3.25 6.37708 5.37604 4.25067 7.99888 4.25006L8 4.25006C9.38418 4.25006 10.6292 4.84116 11.4984 5.78697C12.2762 6.63327 12.75 7.76048 12.75 9.00006C12.75 11.6234 10.6234 13.7501 8 13.7501C5.37665 13.7501 3.25 11.6234 3.25 9.00006ZM4.50879 8.75009C4.63117 7.01637 6.01625 5.63129 7.74996 5.50892C7.88769 5.49919 8 5.61205 8 5.75012V8.75012C8 8.88819 7.88807 9.00012 7.75 9.00012H4.75C4.61193 9.00012 4.49907 8.88782 4.50879 8.75009Z" fill="currentColor"/>
</svg>
