<svg width="16" height="16" viewBox="0 0 16 16" fill="none" xmlns="http://www.w3.org/2000/svg">
<path fill-rule="evenodd" clip-rule="evenodd" d="M3.93414 3.93417C6.17965 1.68865 9.82035 1.68865 12.0659 3.93417C14.3114 6.17968 14.3114 9.82038 12.0659 12.0659C9.82035 14.3114 6.17965 14.3114 3.93414 12.0659C1.68862 9.82038 1.68862 6.17968 3.93414 3.93417ZM13.1265 2.87351C10.2952 0.0422059 5.70478 0.0422047 2.87348 2.87351C0.0421748 5.70481 0.0421748 10.2953 2.87348 13.1266C5.70478 15.9579 10.2952 15.9579 13.1265 13.1266C15.9578 10.2953 15.9578 5.70481 13.1265 2.87351ZM8.75001 6.00001C8.75001 5.5858 8.41422 5.25001 8.00001 5.25001C7.58579 5.25001 7.25001 5.5858 7.25001 6.00001V9.00001C7.25001 9.41423 7.58579 9.75001 8.00001 9.75001H10C10.4142 9.75001 10.75 9.41423 10.75 9.00001C10.75 8.5858 10.4142 8.25001 10 8.25001H8.75001V6.00001Z" fill="currentColor"/>
</svg>
