<svg width="16" height="16" viewBox="0 0 16 16" fill="none" xmlns="http://www.w3.org/2000/svg">
<path fill-rule="evenodd" clip-rule="evenodd" d="M1.74999 3.5C1.74999 2.5335 2.5335 1.75 3.49999 1.75H12.5C13.4665 1.75 14.25 2.5335 14.25 3.5V12.5C14.25 13.4665 13.4665 14.25 12.5 14.25H7.49999C7.08578 14.25 6.74999 13.9142 6.74999 13.5C6.74999 13.0858 7.08578 12.75 7.49999 12.75H12.5C12.6381 12.75 12.75 12.6381 12.75 12.5V6.75H3.24999V9C3.24999 9.41421 2.91421 9.75 2.49999 9.75C2.08578 9.75 1.74999 9.41421 1.74999 9V6.00382L1.74998 6L1.74999 5.99618V3.5ZM12.75 3.5V5.25H3.24999V3.5C3.24999 3.36193 3.36192 3.25 3.49999 3.25H12.5C12.6381 3.25 12.75 3.36193 12.75 3.5ZM6.57332 10.4835C6.84036 10.1669 6.80016 9.69371 6.48352 9.42667C6.16687 9.15963 5.69371 9.19984 5.42666 9.51648L2.63704 12.8242L1.58186 11.5268C1.32051 11.2054 0.848129 11.1568 0.526775 11.4181C0.205421 11.6795 0.156779 12.1519 0.41813 12.4732L2.04469 14.4732C2.18564 14.6465 2.39649 14.748 2.61987 14.75C2.84324 14.752 3.05587 14.6543 3.19988 14.4835L6.57332 10.4835Z" fill="currentColor"/>
</svg>
