<svg width="16" height="16" viewBox="0 0 16 16" fill="none" xmlns="http://www.w3.org/2000/svg">
<path fill-rule="evenodd" clip-rule="evenodd" d="M8.70668 1.83338C10.1679 0.905229 12.0941 1.09991 13.3313 2.30807L13.5763 2.54726C14.9498 3.88853 15.1421 6.00773 14.0246 7.56667C13.1138 8.83724 11.528 9.45317 9.98617 9.15205L5.72627 8.3201C4.74922 8.12929 3.75671 8.52288 3.19445 9.30723C2.51133 10.2602 2.62493 11.5527 3.47166 12.3795L3.7166 12.6187C4.45249 13.3373 5.61113 13.458 6.48902 12.9004C7.1332 12.4912 7.50466 11.7905 7.48316 11.0557L7.48104 10.9833C7.46893 10.5692 7.79475 10.2238 8.20879 10.2116C8.62282 10.1995 8.96829 10.5253 8.9804 10.9394L8.98252 11.0119C9.01981 12.2863 8.37459 13.4797 7.29328 14.1666C5.83206 15.0947 3.90588 14.9001 2.66863 13.6919L2.42369 13.4527C1.05012 12.1114 0.857807 9.99223 1.97533 8.4333C2.88615 7.16273 4.47197 6.5468 6.01378 6.84791L10.2737 7.67987C11.2507 7.87068 12.2432 7.47709 12.8055 6.69274C13.4886 5.73979 13.375 4.44729 12.5283 3.62046L12.2834 3.38127C11.5475 2.66269 10.3888 2.54192 9.51093 3.09955C8.86676 3.50872 8.49529 4.20945 8.51679 4.94424L8.51891 5.01672C8.53103 5.43076 8.2052 5.77622 7.79116 5.78833C7.37713 5.80044 7.03167 5.47462 7.01956 5.06058L7.01744 4.98811C6.98015 3.71368 7.62536 2.52023 8.70668 1.83338Z" fill="currentColor"/>
</svg>
