<svg width="16" height="16" viewBox="0 0 16 16" fill="none" xmlns="http://www.w3.org/2000/svg">
<path fill-rule="evenodd" clip-rule="evenodd" d="M4.75001 3.5C4.75001 3.08579 4.41423 2.75 4.00001 2.75C3.5858 2.75 3.25001 3.08579 3.25001 3.5L3.25002 10.9726L1.56946 9.01191C1.29989 8.69741 0.826414 8.66099 0.511919 8.93056C0.197425 9.20013 0.161005 9.6736 0.430572 9.98809L3.43058 13.4881C3.57306 13.6543 3.78108 13.75 4.00002 13.75C4.21896 13.75 4.42698 13.6543 4.56946 13.4881L7.56946 9.98809C7.83902 9.6736 7.8026 9.20012 7.48811 8.93056C7.17361 8.66099 6.70014 8.69741 6.43057 9.01191L4.75002 10.9726L4.75001 3.5ZM12.75 13C12.75 13.4142 12.4142 13.75 12 13.75C11.5858 13.75 11.25 13.4142 11.25 13L11.25 5.52744L9.56946 7.48809C9.2999 7.80259 8.82642 7.83901 8.51193 7.56944C8.19743 7.29987 8.16101 6.8264 8.43058 6.51191L11.4306 3.01191C11.5731 2.84567 11.7811 2.75 12 2.75C12.219 2.75 12.427 2.84567 12.5695 3.01191L15.5695 6.51191C15.839 6.8264 15.8026 7.29988 15.4881 7.56944C15.1736 7.83901 14.7001 7.80259 14.4306 7.48809L12.75 5.52745L12.75 13Z" fill="currentColor"/>
</svg>
