<svg width="16" height="16" viewBox="0 0 16 16" fill="none" xmlns="http://www.w3.org/2000/svg">
<path fill-rule="evenodd" clip-rule="evenodd" d="M6.25 2C6.25 1.58579 6.58578 1.25 7 1.25H8.99998C10.5188 1.25 11.75 2.48123 11.75 4.00002C11.75 5.51881 10.5188 6.75004 8.99998 6.75004H4.99998C3.75735 6.75004 2.75 7.75739 2.75 9.00003C2.75 10.2427 3.75735 11.25 4.99998 11.25L11.9726 11.25L10.0119 9.56947C9.69741 9.2999 9.66099 8.82642 9.93056 8.51193C10.2001 8.19744 10.6736 8.16102 10.9881 8.43058L14.4881 11.4306C14.6543 11.5731 14.75 11.7811 14.75 12C14.75 12.219 14.6543 12.427 14.4881 12.5695L10.9881 15.5694C10.6736 15.839 10.2001 15.8026 9.93055 15.4881C9.66099 15.1736 9.69741 14.7001 10.0119 14.4306L11.9725 12.75L4.99997 12.75C2.92892 12.75 1.25 11.0711 1.25 9.00003C1.25 6.92897 2.92893 5.25004 4.99998 5.25004H8.99998C9.69035 5.25004 10.25 4.69039 10.25 4.00002C10.25 3.30965 9.69035 2.75 8.99998 2.75H7C6.58578 2.75 6.25 2.41421 6.25 2Z" fill="currentColor"/>
</svg>
