<svg width="16" height="16" viewBox="0 0 16 16" fill="none" xmlns="http://www.w3.org/2000/svg">
<path d="M4.66699 14C4.30033 14 3.98655 13.8696 3.72566 13.6087C3.46477 13.3478 3.33411 13.0338 3.33366 12.6667V4C3.14477 4 2.98655 3.936 2.85899 3.808C2.73144 3.68 2.66744 3.52178 2.66699 3.33333C2.66655 3.14489 2.73055 2.98667 2.85899 2.85867C2.98744 2.73067 3.14566 2.66667 3.33366 2.66667H6.00033C6.00033 2.47778 6.06433 2.31956 6.19233 2.192C6.32033 2.06444 6.47855 2.00044 6.66699 2H9.33366C9.52255 2 9.681 2.064 9.809 2.192C9.937 2.32 10.0008 2.47822 10.0003 2.66667H12.667C12.8559 2.66667 13.0143 2.73067 13.1423 2.85867C13.2703 2.98667 13.3341 3.14489 13.3337 3.33333C13.3332 3.52178 13.2692 3.68022 13.1417 3.80867C13.0141 3.93711 12.8559 4.00089 12.667 4V12.6667C12.667 13.0333 12.5366 13.3473 12.2757 13.6087C12.0148 13.87 11.7008 14.0004 11.3337 14H4.66699ZM11.3337 4H4.66699V12.6667H11.3337V4Z" fill="black"/>
<path d="M9 6.5C9 6.22386 9.22386 6 9.5 6C9.77614 6 10 6.22386 10 6.5V10.5C10 10.7761 9.77614 11 9.5 11C9.22386 11 9 10.7761 9 10.5V6.5Z" fill="black"/>
<path d="M6 6.5C6 6.22386 6.22386 6 6.5 6C6.77614 6 7 6.22386 7 6.5V10.5C7 10.7761 6.77614 11 6.5 11C6.22386 11 6 10.7761 6 10.5V6.5Z" fill="black"/>
</svg>
