<svg width="16" height="16" viewBox="0 0 16 16" fill="none" xmlns="http://www.w3.org/2000/svg">
<path fill-rule="evenodd" clip-rule="evenodd" d="M3 2.25C1.75736 2.25 0.75 3.25736 0.75 4.5V11.5C0.75 12.7426 1.75736 13.75 3 13.75H13C14.2426 13.75 15.25 12.7426 15.25 11.5V4.5C15.25 3.25736 14.2426 2.25 13 2.25H3ZM2.25 4.5C2.25 4.08579 2.58579 3.75 3 3.75H13C13.4142 3.75 13.75 4.08579 13.75 4.5V11.5C13.75 11.9142 13.4142 12.25 13 12.25H3C2.58579 12.25 2.25 11.9142 2.25 11.5V4.5ZM4 5.25C3.58579 5.25 3.25 5.58579 3.25 6C3.25 6.41421 3.58579 6.75 4 6.75H12C12.4142 6.75 12.75 6.41421 12.75 6C12.75 5.58579 12.4142 5.25 12 5.25H4Z" fill="currentColor"/>
</svg>
