<svg width="16" height="16" viewBox="0 0 16 16" fill="none" xmlns="http://www.w3.org/2000/svg">
<path fill-rule="evenodd" clip-rule="evenodd" d="M8.00015 1.25C5.3768 1.25 3.25015 3.37665 3.25015 6V10C3.25015 10.5096 3.33039 11.0004 3.47893 11.4606L1.46982 13.4697C1.17693 13.7626 1.17693 14.2374 1.46982 14.5303C1.76272 14.8232 2.23759 14.8232 2.53048 14.5303L4.20453 12.8563C5.07141 14.0064 6.44895 14.75 8.00015 14.75C10.6235 14.75 12.7502 12.6234 12.7502 10V6C12.7502 5.49042 12.6699 4.99959 12.5214 4.53944L14.5305 2.53033C14.8234 2.23744 14.8234 1.76256 14.5305 1.46967C14.2376 1.17678 13.7627 1.17678 13.4698 1.46967L11.7958 3.14372C10.9289 1.99357 9.55136 1.25 8.00015 1.25ZM10.7197 4.21981C10.1391 3.33461 9.13787 2.75 8.00015 2.75C6.20523 2.75 4.75015 4.20507 4.75015 6V10C4.75015 10.0618 4.75188 10.1232 4.75529 10.1842L10.7197 4.21981ZM5.28062 11.7802C5.86125 12.6654 6.86243 13.25 8.00015 13.25C9.79508 13.25 11.2502 11.7949 11.2502 10V6C11.2502 5.93818 11.2484 5.87676 11.245 5.81579L5.28062 11.7802Z" fill="currentColor"/>
</svg>
