<svg width="16" height="16" viewBox="0 0 16 16" fill="none" xmlns="http://www.w3.org/2000/svg">
<path d="M4.66686 12.2659L3.06686 13.8659C2.94464 13.9881 2.78908 14.0492 2.6002 14.0492C2.41131 14.0492 2.25575 13.9881 2.13353 13.8659C2.01131 13.7437 1.9502 13.5881 1.9502 13.3992C1.9502 13.2103 2.01131 13.0548 2.13353 12.9326L3.73353 11.3326H2.66686C2.47797 11.3326 2.31953 11.2688 2.19153 11.1412C2.06353 11.0137 1.99975 10.8552 2.0002 10.6659C2.00064 10.4766 2.06464 10.3183 2.1922 10.1912C2.31975 10.0641 2.47797 10.0001 2.66686 9.99922H5.33353C5.52242 9.99922 5.68086 10.0632 5.80886 10.1912C5.93686 10.3192 6.00064 10.4774 6.0002 10.6659V13.3326C6.0002 13.5214 5.9362 13.6799 5.8082 13.8079C5.6802 13.9359 5.52197 13.9997 5.33353 13.9992C5.14508 13.9988 4.98686 13.9348 4.85886 13.8072C4.73086 13.6797 4.66686 13.5214 4.66686 13.3326V12.2659ZM11.3335 12.2659V13.3326C11.3335 13.5214 11.2695 13.6799 11.1415 13.8079C11.0135 13.9359 10.8553 13.9997 10.6669 13.9992C10.4784 13.9988 10.3202 13.9348 10.1922 13.8072C10.0642 13.6797 10.0002 13.5214 10.0002 13.3326V10.6659C10.0002 10.477 10.0642 10.3188 10.1922 10.1912C10.3202 10.0637 10.4784 9.99966 10.6669 9.99922H13.3335C13.5224 9.99922 13.6809 10.0632 13.8089 10.1912C13.9369 10.3192 14.0006 10.4774 14.0002 10.6659C13.9998 10.8543 13.9358 11.0128 13.8082 11.1412C13.6806 11.2697 13.5224 11.3334 13.3335 11.3326H12.2669L13.8669 12.9326C13.9891 13.0548 14.0502 13.2103 14.0502 13.3992C14.0502 13.5881 13.9891 13.7437 13.8669 13.8659C13.7446 13.9881 13.5891 14.0492 13.4002 14.0492C13.2113 14.0492 13.0558 13.9881 12.9335 13.8659L11.3335 12.2659ZM3.73353 4.66589L2.13353 3.06589C2.01131 2.94366 1.9502 2.78811 1.9502 2.59922C1.9502 2.41033 2.01131 2.25477 2.13353 2.13255C2.25575 2.01033 2.41131 1.94922 2.6002 1.94922C2.78908 1.94922 2.94464 2.01033 3.06686 2.13255L4.66686 3.73255V2.66589C4.66686 2.477 4.73086 2.31855 4.85886 2.19055C4.98686 2.06255 5.14508 1.99877 5.33353 1.99922C5.52197 1.99966 5.68042 2.06366 5.80886 2.19122C5.93731 2.31877 6.00108 2.477 6.0002 2.66589V5.33255C6.0002 5.52144 5.9362 5.67989 5.8082 5.80789C5.6802 5.93589 5.52197 5.99966 5.33353 5.99922H2.66686C2.47797 5.99922 2.31975 5.93522 2.1922 5.80722C2.06464 5.67922 2.00064 5.521 2.0002 5.33255C1.99975 5.14411 2.06375 4.98589 2.1922 4.85789C2.32064 4.72989 2.47886 4.66589 2.66686 4.66589H3.73353ZM12.2669 4.66589H13.3335C13.5224 4.66589 13.6809 4.72989 13.8089 4.85789C13.9369 4.98589 14.0006 5.14411 14.0002 5.33255C13.9998 5.521 13.9358 5.67944 13.8082 5.80789C13.6806 5.93633 13.5224 6.00011 13.3335 5.99922H10.6669C10.478 5.99922 10.3198 5.93522 10.1922 5.80722C10.0646 5.67922 10.0006 5.521 10.0002 5.33255V2.66589C10.0002 2.477 10.0642 2.31877 10.1922 2.19122C10.3202 2.06366 10.4784 1.99966 10.6669 1.99922C10.8553 1.99877 11.0138 2.06277 11.1422 2.19122C11.2706 2.31966 11.3344 2.47789 11.3335 2.66589V3.73255L12.9335 2.13255C13.0558 2.01033 13.2113 1.94922 13.4002 1.94922C13.5891 1.94922 13.7446 2.01033 13.8669 2.13255C13.9891 2.25477 14.0502 2.41033 14.0502 2.59922C14.0502 2.78811 13.9891 2.94366 13.8669 3.06589L12.2669 4.66589Z" fill="black"/>
</svg>
