<svg width="256" height="256" viewBox="0 0 256 256" fill="none" xmlns="http://www.w3.org/2000/svg">
<path d="M128 0C198.69 0 256 57.31 256 128H0C0 57.31 57.31 0 128 0Z" fill="#E8F3FF"/>
<path d="M20.5303 101L22.8603 128H159V119.99L122.33 120L120.69 101H20.5303Z" fill="#BAD4D8"/>
<path d="M20 57H112.99L116 60L120.99 119H24.99L23 117L18 59L20 57Z" fill="#38434F"/>
<path d="M186.47 176H139.53C136.476 176 134 178.476 134 181.53V182.47C134 185.524 136.476 188 139.53 188H186.47C189.524 188 192 185.524 192 182.47V181.53C192 178.476 189.524 176 186.47 176Z" fill="#6E6558"/>
<path d="M182 187.99L196.99 250H190.99L175 188L182 187.99Z" fill="#D6CEC2"/>
<path d="M146 187.99L131.01 250H137.01L153 188L146 187.99Z" fill="#D6CEC2"/>
<path d="M159 128H0V144H159V128Z" fill="#A0B4B7"/>
<path d="M74 144H0V246H74V144Z" fill="#BAD4D8"/>
<path d="M74 164H10V246H74V164Z" fill="#526A6E"/>
<path d="M46 238H44V246H46V238Z" fill="#D8DFE1"/>
<path d="M20 238H18V246H20V238Z" fill="#D8DFE1"/>
<path d="M45 254C47.7614 254 50 251.761 50 249C50 246.239 47.7614 244 45 244C42.2386 244 40 246.239 40 249C40 251.761 42.2386 254 45 254Z" fill="#B0BFBC"/>
<path d="M45 251.5C46.3807 251.5 47.5 250.381 47.5 249C47.5 247.619 46.3807 246.5 45 246.5C43.6193 246.5 42.5 247.619 42.5 249C42.5 250.381 43.6193 251.5 45 251.5Z" fill="#546366"/>
<path d="M19 254C21.7614 254 24 251.761 24 249C24 246.239 21.7614 244 19 244C16.2386 244 14 246.239 14 249C14 251.761 16.2386 254 19 254Z" fill="#B0BFBC"/>
<path d="M19 251.5C20.3807 251.5 21.5 250.381 21.5 249C21.5 247.619 20.3807 246.5 19 246.5C17.6193 246.5 16.5 247.619 16.5 249C16.5 250.381 17.6193 251.5 19 251.5Z" fill="#546366"/>
<path d="M50 238H14V242H50V238Z" fill="#B0BFBC"/>
<path d="M50 176H14V238H50V176Z" fill="#D8DFE1"/>
<path d="M50 212H18V220H50V212Z" fill="#546366"/>
<path d="M22 218C23.1046 218 24 217.105 24 216C24 214.895 23.1046 214 22 214C20.8954 214 20 214.895 20 216C20 217.105 20.8954 218 22 218Z" fill="#D2FF8A"/>
<path d="M36 182H14V184H36V182Z" fill="#A3A3A3"/>
<path d="M36 186H14V188H36V186Z" fill="#A3A3A3"/>
<path d="M36 190H14V192H36V190Z" fill="#A3A3A3"/>
<path d="M36 194H14V196H36V194Z" fill="#A3A3A3"/>
<path d="M36 198H14V200H36V198Z" fill="#A3A3A3"/>
<path d="M124 64.0001C123.82 57.1401 129.09 51.4201 135.78 51.2401C136.81 51.2101 137.83 51.3201 138.83 51.5501C140.63 51.9901 142.51 51.3201 143.65 49.8301C146.96 45.4501 152.07 42.8901 157.47 42.9001C160.48 43.0301 164.02 44.1201 166.2 41.2101C173.2 32.6601 185.62 31.5501 193.96 38.7201C196.24 40.6801 198.06 43.1501 199.27 45.9401C200.4 48.5801 202.96 50.2701 205.77 50.2401C212.46 50.1801 217.93 55.6901 217.99 62.5501C217.99 63.0301 217.97 63.5201 217.92 64.0001H124Z" fill="white"/>
<path d="M122 38.0001C122.13 33.2001 118.36 29.2001 113.59 29.0701C112.86 29.0501 112.13 29.1201 111.42 29.2901C110.14 29.6001 108.79 29.1301 107.98 28.0901C105.62 25.0301 101.98 23.2401 98.1302 23.2401C95.9702 23.3401 93.4602 24.1001 91.9102 22.0701C86.9302 16.0801 78.0702 15.2901 72.1202 20.3001C70.4802 21.6801 69.1802 23.4201 68.3102 25.3801C67.5102 27.2301 65.6802 28.4201 63.6702 28.3901C58.9002 28.3601 55.0202 32.2301 54.9902 37.0301C54.9902 37.3501 55.0002 37.6801 55.0402 38.0001H122Z" fill="white"/>
<path d="M108.89 31.48C110.63 30.72 112.26 29.73 113.74 28.54C114.03 28.32 114.09 27.9 113.87 27.6C113.84 27.56 113.81 27.53 113.78 27.5C111.96 25.93 109.4 25.56 107.21 26.54L98.9503 30.26C98.9503 30.26 98.8603 30.28 98.8203 30.26L90.6003 27.51C89.3603 27.25 88.0703 27.44 86.9603 28.06C86.8103 28.14 86.7503 28.32 86.8303 28.47C86.8503 28.52 86.8903 28.55 86.9303 28.58L93.1603 32.53C93.2503 32.59 93.2703 32.7 93.2103 32.79C93.1903 32.82 93.1603 32.84 93.1303 32.86L86.1703 35.99C85.9803 36.07 85.7603 36.06 85.5903 35.95L81.2003 33.2C80.8403 32.97 80.3603 33.08 80.1403 33.44C80.0003 33.66 79.9803 33.94 80.1003 34.18L82.7603 39.72C83.0003 40.22 83.5003 40.55 84.0603 40.56C86.8903 40.65 89.7003 40.1 92.2703 38.94L97.1103 36.76C97.2003 36.72 97.3103 36.76 97.3503 36.85C97.3603 36.88 97.3703 36.92 97.3603 36.96L95.5003 47.62C95.4703 47.79 95.5803 47.95 95.7503 47.98C95.8003 47.98 95.8503 47.98 95.9003 47.97C96.9703 47.62 97.8903 46.91 98.5003 45.96L104.13 33.66C104.13 33.66 104.18 33.59 104.22 33.57L108.91 31.47L108.89 31.48Z" fill="#9DB3C8"/>
<path d="M112.76 57.9999C113.99 58.0599 114.99 58.9899 115.16 60.1999L119.97 116.2C119.96 116.69 119.82 117.18 119.57 117.6C119.2 117.82 118.79 117.96 118.37 118H26.24C25.01 117.94 24.01 117.01 23.84 115.8L19.03 59.7999C19.04 59.3099 19.18 59.0199 19.43 58.5999C19.73 58.2499 20.17 58.0299 20.63 57.9999H112.76ZM112.76 55.9999H20.63C18.65 55.9799 17.03 57.5599 17 59.5299C17 59.6899 17 59.8399 17.02 59.9999L21.83 116C22.09 118.25 23.97 119.95 26.24 120H118.37C120.35 120.02 121.97 118.44 122 116.47C122 116.31 122 116.16 121.98 116L117.17 59.9999C116.85 57.7899 115 56.1099 112.76 55.9999Z" fill="#5B696B"/>
<path d="M48.2199 86H29.2399C27.9399 86 26.8699 85.02 26.7499 83.73L25.0099 64.73C24.9499 64.03 25.1799 63.33 25.6499 62.82C26.1199 62.3 26.7999 62.01 27.4999 62.01H46.4799C47.7799 62.01 48.8499 62.99 48.9699 64.28L50.7099 83.28C50.7699 83.98 50.5399 84.68 50.0699 85.19C49.5999 85.71 48.9199 86 48.2199 86ZM27.4999 63C27.0699 63 26.6799 63.17 26.3899 63.49C26.0999 63.81 25.9699 64.21 25.9999 64.64L27.7399 83.64C27.8099 84.42 28.4499 85 29.2299 85H48.2099C48.6399 85 49.0299 84.83 49.3199 84.51C49.6099 84.19 49.7499 83.79 49.7099 83.36L47.9699 64.36C47.8999 63.58 47.2599 63 46.4799 63H27.4999Z" fill="#D2FF8A"/>
<path fill-rule="evenodd" clip-rule="evenodd" d="M36.3499 73H30.2099C29.8799 73 29.5999 72.73 29.5699 72.37L29.0099 65.76C28.9799 65.35 29.2699 65 29.6499 65H35.7899C36.1199 65 36.3999 65.27 36.4299 65.63L36.9899 72.24C37.0199 72.65 36.7299 73 36.3499 73Z" fill="#D2FF8A"/>
<path fill-rule="evenodd" clip-rule="evenodd" d="M37.3499 83H31.2099C30.8799 83 30.5999 82.73 30.5699 82.37L30.0099 75.76C29.9799 75.35 30.2699 75 30.6499 75H36.7899C37.1199 75 37.3999 75.27 37.4299 75.63L37.9899 82.24C38.0199 82.65 37.7299 83 37.3499 83Z" fill="#D2FF8A"/>
<path fill-rule="evenodd" clip-rule="evenodd" d="M45.3499 73H39.2099C38.8799 73 38.5999 72.73 38.5699 72.37L38.0099 65.76C37.9799 65.35 38.2699 65 38.6499 65H44.7899C45.1199 65 45.3999 65.27 45.4299 65.63L45.9899 72.24C46.0199 72.65 45.7299 73 45.3499 73Z" fill="#D2FF8A"/>
<path d="M45.9999 82H40.4999L39.9999 76H45.4899L45.9999 82ZM45.7899 75H39.6499C39.2699 75 38.9699 75.35 39.0099 75.76L39.5699 82.37C39.5999 82.73 39.8799 83 40.2099 83H46.3499C46.7299 83 47.0299 82.65 46.9899 82.24L46.4299 75.63C46.3999 75.27 46.1199 75 45.7899 75Z" fill="#D2FF8A"/>
<path d="M57.1203 113H32.9503C31.4603 113 30.2203 112.03 30.0803 110.74L28.0103 91.74C27.9403 91.1 28.1503 90.47 28.6003 89.97C29.1503 89.35 29.9803 89 30.8803 89H55.0503C56.5403 89 57.7803 89.97 57.9203 91.26L59.9903 110.26C60.0603 110.9 59.8503 111.53 59.4003 112.03C58.8503 112.65 58.0203 113 57.1203 113ZM30.8803 90.01C30.2703 90.01 29.7003 90.25 29.3503 90.64C29.1703 90.84 28.9603 91.18 29.0103 91.63L31.0803 110.63C31.1603 111.4 31.9903 112 32.9503 112H57.1203C57.7303 112 58.3003 111.76 58.6503 111.37C58.8303 111.17 59.0403 110.83 58.9903 110.38L56.9203 91.38C56.8403 90.61 56.0103 90.01 55.0503 90.01H30.8803Z" fill="#D2FF8A"/>
<path d="M72.3901 84.2699L73.3701 84.7599C73.4201 84.7599 73.4701 84.7299 73.4801 84.6799L73.5401 84.2999L72.8201 83.7199C72.8601 83.6399 72.8901 83.5499 72.9101 83.4399L73.1401 82.2299L75.3501 83.2399C75.4201 83.2399 75.4801 83.1999 75.4901 83.1399L75.5801 82.5199L73.3801 80.8799L73.5901 79.6999C73.6401 79.3599 73.4201 79.0499 73.1001 79.0099C72.7801 78.9699 72.4801 79.1999 72.4301 79.5299L72.2901 80.7299L69.7301 81.6599L69.6401 82.2799C69.6401 82.3499 69.6801 82.4099 69.7401 82.4199L72.1301 82.0899L72.0001 83.3099C71.9801 83.4099 71.9901 83.5199 72.0001 83.6099L71.1501 83.9499L71.0901 84.3299C71.0901 84.3799 71.1201 84.4299 71.1701 84.4399L72.2501 84.2599L72.3701 84.2799L72.3901 84.2699Z" fill="white"/>
<path d="M107.94 94.33L108.52 93.4C108.53 93.35 108.5 93.3 108.45 93.29L108.07 93.2L107.42 93.87C107.34 93.82 107.25 93.78 107.15 93.76L105.97 93.42L107.19 91.31C107.21 91.24 107.17 91.18 107.1 91.16L106.49 91.01L104.65 93.05L103.5 92.73C103.17 92.65 102.84 92.84 102.76 93.15C102.68 93.46 102.89 93.78 103.22 93.86L104.4 94.11L105.08 96.75L105.69 96.9C105.76 96.92 105.82 96.88 105.84 96.81L105.74 94.39L106.94 94.63C107.04 94.66 107.14 94.66 107.24 94.65L107.5 95.52L107.88 95.61C107.93 95.62 107.98 95.59 107.99 95.54L107.91 94.45L107.94 94.33Z" fill="white"/>
<path d="M79.0198 99.36L79.7798 100.14C79.7798 100.14 79.8798 100.14 79.9098 100.1L80.0898 99.76L79.5998 98.97C79.6698 98.91 79.7298 98.83 79.7698 98.74L80.3798 97.67L82.1398 99.35C82.1998 99.38 82.2798 99.35 82.3098 99.3L82.5998 98.75L81.0598 96.48L81.6498 95.44C81.8098 95.14 81.6998 94.77 81.4198 94.62C81.1398 94.47 80.7798 94.59 80.6198 94.9L80.0998 95.99L77.3698 96.02L77.0798 96.57C77.0498 96.63 77.0798 96.71 77.1298 96.74L79.4998 97.22L78.9798 98.33C78.9298 98.42 78.8998 98.52 78.8898 98.61L77.9798 98.66L77.7998 99C77.7998 99 77.7998 99.1 77.8398 99.13L78.9198 99.31L79.0298 99.37L79.0198 99.36Z" fill="white"/>
<path d="M154.99 228L151.88 215.85H133.88L136.99 228H154.99Z" fill="#A96C3F"/>
<path d="M115.03 223L117.83 211.84H133.26L130.45 223H115.03Z" fill="#A96C3F"/>
<path d="M122.69 214L136.78 151.85H118.7C109.53 151.85 101.71 158.5 100.25 167.56L93.7301 208.11C93.2901 210.89 95.1801 213.49 97.9601 213.94C98.2201 213.98 98.4701 214 98.7301 214H122.69Z" fill="#264666"/>
<path d="M129.26 236H111.26L114.97 221.18C115.14 220.49 115.76 220 116.47 220H130.55C131.4 220 132.09 220.69 132.09 221.54C132.09 221.64 132.09 221.74 132.06 221.84L129.26 236Z" fill="#DBE7E9"/>
<path d="M135.59 238V227.29C135.59 226.58 136.17 226 136.88 226H155.95L157.59 240L135.59 238Z" fill="#DBE7E9"/>
<path d="M159.35 238.27C158.88 236.7 158.4 235.18 157.96 233.85C157.42 232.11 155.1 231.28 153.87 232.62C148.34 238.62 142.14 238 135.57 231.84C134.48 233.2 133.48 234.37 132.53 235.41C132.6 234.44 132.53 233.46 132.29 232.5C132.27 232.43 131.87 230.28 131.68 229.26C131.6 228.89 131.46 228.54 131.25 228.23C130.37 226.93 128.6 226.6 127.3 227.48C124.49 229.24 117.69 228.62 114.77 221.94C109.68 228.87 100.97 233.14 93.88 234.32C88.79 235.43 91.13 241.73 95.4 241.99C96.09 241.99 110.97 241.99 121.01 241.99C120.42 242.11 119.81 242.22 119.15 242.32C113.57 243.43 116.3 249.74 120.98 249.99H150.98C151.86 249.99 152.57 249.78 153.41 249.52C158.16 248.05 160.82 243.01 159.35 238.26V238.27Z" fill="#6E7769"/>
<path d="M152.09 220H128.59C126.07 220 123.57 218.39 122.51 216.1L104.77 177.85C104.77 177.85 94.5499 156.52 110.77 151.85C132.62 145.56 159 139.99 159 139.99L204.77 157.85C201.91 168.57 192.18 176.03 181.08 176H138.8L154.63 215.77C155.23 217.32 154.67 219.2 153.12 219.8C152.79 219.93 152.44 220 152.09 220Z" fill="#3A5570"/>
<path d="M132.11 72.26C131.61 72.72 130.74 72.64 130.33 73.2C130.1 73.52 130.11 73.96 129.9 74.31C129.63 74.66 129.29 74.95 128.9 75.17C128.06 75.84 127.7 76.95 127.97 77.99C128.65 80.34 130.34 84.58 130.19 87.3L130.71 97.84L141.88 96.21C141.88 96.21 138.98 87.05 139.35 84.77C139.12 82.64 140.5 80.77 141.51 79.04L143.34 75.81C143.74 75.25 143.49 73.16 143.55 72.52C143.35 71.22 141.55 72.29 141.55 73.19L141.36 74.56L140.36 75.87C139.12 73.74 140.45 70.79 138.99 68.7C138.46 67.88 137.38 67.62 136.54 68.11C136.06 68.48 135.84 69.19 135.26 69.4C134.34 69.49 133.26 69.4 132.82 70.4C132.56 71 132.61 71.8 132.11 72.26Z" fill="#A96C3F"/>
<path d="M129.99 90H141.99L144.27 103.19C144.38 104.02 145.15 104.6 145.98 104.49C146.63 104.4 147.15 103.91 147.27 103.26L152.42 82.49C153.7 77.38 157.51 73.28 162.51 71.63C164.77 68 168.32 64.64 173.89 64C173.75 64 193.42 60.72 202.58 93.84C213.34 132.72 204.78 157.84 204.78 157.84L159.01 139.99V125.99H130.01L130 90H129.99Z" fill="#BEBF8C"/>
<path d="M173.28 57.9C174.08 56.41 174.67 54.82 175.01 53.16C178.43 36.55 158.01 23.84 144.49 36.63C143.66 37.44 142.94 38.34 142.32 39.32C140.32 42.48 139.75 44.62 139.71 49.15C139.71 51.91 140.2 52.15 138.5 54.96C137.96 55.84 137.42 56.25 137.5 57.54C137.5 58.42 138.26 58.94 138.99 59.47C140.06 60.24 140.16 60.57 140.27 62.47C140.36 63.93 140.52 66.63 141.77 67.94C144.77 71.09 148.92 67.94 152.77 71.86C157.27 76.43 160.57 77.86 160.57 77.86C160.57 77.86 164.31 65.59 174.66 63.93C173.28 63.02 172.62 61.5 172.77 59.85C172.77 58.02 173.28 57.85 173.28 57.85V57.9Z" fill="#A96C3F"/>
<path d="M140.7 42.25C142.38 42.81 143.55 47.25 146.77 45.09C148.65 43.83 153.33 44.47 151.71 49.09C151.38 50.16 151.82 51.32 152.77 51.91C153.49 50.75 154.73 50.01 156.09 49.91C158.46 49.71 160.55 51.47 160.75 53.84C160.75 53.86 160.75 53.88 160.75 53.91C161.45 56.75 161.73 62.1 173.11 62.1C173.37 57.22 180.66 56.66 178.77 49.85C176.83 42.85 180.08 42.85 175.89 39.56C172.89 37.19 171.77 33.09 167.77 31.41C163.95 29.81 162.59 31.36 159.88 30C155.88 28 154.49 29.19 151.77 30.09C147.77 31.41 148.77 33.09 142.05 33.77C136.09 34.37 137.7 41.25 140.7 42.25Z" fill="#2D1D19"/>
<path d="M165.3 47.27C165.73 45.97 166.13 44.44 166.43 42.63C167.08 38.87 167.31 35.06 167.13 31.25C167.11 30.96 167 30.68 166.81 30.45C165.94 29.69 164.83 29.24 163.67 29.18C162.68 29.02 161.68 29.06 160.71 29.32C160.12 29.5 159.72 30.05 159.75 30.67C159.84 33.73 159.72 36.78 159.39 39.82C159.15 41.58 158.67 43.89 158.21 45.93C154.8 46.89 152.3 50.01 152.3 53.73C152.3 58.21 155.93 61.84 160.41 61.84C164.89 61.84 168.52 58.21 168.52 53.73C168.52 51.09 167.25 48.75 165.3 47.27Z" fill="#788A8D"/>
<path d="M160.4 46.97C156.67 46.97 153.64 50 153.64 53.73C153.64 54.2 153.69 54.65 153.78 55.09C149.29 61.25 144.74 66.36 135.87 66.86V65.89C135.87 65.67 135.69 65.5 135.48 65.5H130.22C130 65.5 129.83 65.68 129.83 65.89V67.47C129.83 67.69 130.01 67.86 130.22 67.86H135.48C135.57 67.86 135.65 67.82 135.72 67.77C144.87 67.33 149.57 62.32 154.12 56.18C155.1 58.69 157.55 60.48 160.41 60.48C164.14 60.48 167.17 57.45 167.17 53.72C167.17 49.99 164.14 46.96 160.41 46.96L160.4 46.97Z" fill="#1C2024"/>
<path d="M125.921 97.8524L114.323 123.337L116.144 124.166L127.742 98.6808L125.921 97.8524Z" fill="white"/>
<path d="M153.18 128H110V125C110.02 123.74 110.72 122.59 111.84 122L117.51 118.85C118.47 118.32 119.6 118.2 120.65 118.53L127.23 120.53C128.92 121.05 130.71 121.19 132.46 120.94L153.18 117.94V128Z" fill="#A96C3F"/>
<path d="M172.63 128C180.26 128 186.83 123 188.32 116.38C190.96 104.37 192.47 92.1301 192.82 79.8401C193.07 73.3001 187.73 67.7101 182.82 67.8401C180.37 67.9101 171.35 68.2901 170.08 79.8401C168.51 94.1601 167.47 103.25 166.82 107.84C162.95 109.75 151.09 113.34 145.28 115.05C143.33 115.62 142 117.41 142 119.44V128C142 128 158.26 128 172.63 128Z" fill="#D4D698"/>
<path d="M150.2 109.11C149.92 108.98 147.24 109.27 145.52 109.47C144.82 109.55 144.43 110.32 144.78 110.93C144.92 111.19 145.18 111.37 145.47 111.42L152.11 112.59L150.21 109.1L150.2 109.11Z" fill="#61382D"/>
<path d="M142.88 103.67L138.31 109.54C137.71 110.31 138.07 111.43 139 111.71C139.49 111.86 140.02 111.72 140.38 111.36L145.96 105.7" fill="#61382D"/>
<path d="M168 101.69L158.49 104.53C156.44 105.14 154.25 105.06 152.25 104.29L145.47 101.69C144.3 101.24 142.99 101.35 141.92 101.99L130.41 108.85C129.59 109.34 129.47 110.47 130.17 111.12C130.57 111.49 131.14 111.61 131.65 111.41L143.47 106.91L149.48 111.33C151.42 112.75 153.89 113.23 156.22 112.62L160.77 111.42L172.32 111.84L168 101.68V101.69Z" fill="#955646"/>
<path d="M238.72 237.81C237.57 230.23 240 212 240 212H222.99C225.63 226.02 226.87 233.62 224.32 237.81L224.03 242.37L236.75 241.93L238.73 237.81H238.72Z" fill="#955646"/>
<path d="M221.81 237.81C220.66 230.23 222 212 222 212H207C209.64 226.02 209.97 233.62 207.41 237.81L207.12 242.37L219.84 241.93L221.82 237.81H221.81Z" fill="#955646"/>
<path d="M241 114C249.28 143.16 249 211.99 249 211.99H193L195 114H241Z" fill="#BC792A"/>
<path d="M202.88 32.3398C202.88 32.3398 202.88 32.2898 202.89 32.2698C202.89 32.1998 202.91 32.1398 202.92 32.0698C203.39 28.9398 202.99 25.6398 201.56 22.5398C197.66 14.0798 187.64 10.3798 179.18 14.2798C171.3 17.9098 167.56 26.8398 170.23 34.8798C170.23 34.8798 170.24 34.9198 170.25 34.9398C170.34 35.2198 170.46 35.4898 170.57 35.7698C171.79 39.2598 170.97 41.6998 171.66 43.1898C172.4 44.7998 174.42 43.4398 175.51 46.2998C177.67 51.2998 178.79 51.7798 184.62 51.2298C190.51 50.6798 192.71 60.7798 192.71 60.7798L211.06 52.1798C199.44 46.4998 201.32 42.7298 202.89 32.3398H202.88Z" fill="#955646"/>
<path d="M201.43 52.44L189.52 57.24C183.23 59.77 178.9 65.63 178.33 72.39L176.02 99.68L157.51 104.55C159.46 110.56 161.86 117.82 165.63 119.97C179.1 118.18 187.87 115.8 187.87 115.8L191.44 127.44C194.69 136.21 207.67 138.15 216.93 131.01C226.18 123.87 241.6 137.5 244.69 116.08C247.77 94.65 238.2 63.81 228.62 57.15C219.04 50.49 209.91 49.04 201.44 52.45L201.43 52.44Z" fill="#606E30"/>
<path d="M193.26 47.12C195.43 57.81 211.17 57.16 211.61 47.51C213.76 46.36 215.44 45.3 216.76 43.25C218.17 41.06 218.42 38.3 218.09 35.72C217.9 34.18 217.51 32.65 216.7 31.32C214.72 28.06 210.73 26.76 207.6 24.59C206.64 23.93 205.74 23.16 205.03 22.24C203.65 20.44 203.04 18.12 201.55 16.41C199.91 14.53 197.4 13.62 194.93 13.25C192.46 12.88 189.94 12.96 187.46 12.66C185.43 12.41 183.44 11.91 181.41 11.74C176.26 11.3 170.97 13.08 167.13 16.54C164.87 18.57 163.07 21.27 162.72 24.29C162.37 27.31 163.69 30.62 166.37 32.05C169.05 33.49 173.23 32.42 174.39 29.61C176.07 32.42 177.68 30.69 179.69 26.93C179.69 26.93 179.15 31.09 182.22 33.5C184.38 28.49 192.01 30.69 189.88 36.57C187.62 43.1 186.75 45.74 193.28 47.13L193.26 47.12Z" fill="#0D2135"/>
<path d="M238.72 237.81C230.82 237.67 230.88 243.01 224.32 237.81C223.6 239.34 222.89 240.53 222.2 241.45L221.82 237.81C213.92 237.67 213.98 243.01 207.42 237.81C201.66 249.97 196.91 240.5 193.53 250H228.56L231.41 247.39L231.91 250H239.98L238.72 237.81Z" fill="#0D2135"/>
<path d="M42.4401 92C37.5701 92 34.2801 95.99 35.1401 100.86C36.0001 105.73 40.6901 109.72 45.5701 109.72C50.4501 109.72 53.7301 105.73 52.8701 100.86C52.0101 95.99 47.3201 92 42.4401 92ZM49.4901 97.32H46.5701C46.0701 95.99 45.3301 94.84 44.6601 94.04C46.5101 94.48 48.3201 95.72 49.4901 97.32ZM51.0901 100.87C51.2601 101.84 51.2401 102.73 51.0301 103.53H47.8401C47.7901 102.73 47.7201 101.85 47.5501 100.87C47.3801 99.89 47.1301 99.01 46.9001 98.21H50.0901C50.5901 99.01 50.9201 99.89 51.0901 100.87ZM45.2501 107.96C44.5401 107.96 43.3301 106.63 42.3201 104.41H46.8401C46.7001 106.63 45.9601 107.96 45.2501 107.96ZM41.9901 103.53C41.7601 102.73 41.5201 101.85 41.3401 100.87C41.1601 99.89 41.1001 99.01 41.0501 98.21H45.9201C46.2401 99.01 46.3901 99.89 46.5701 100.87C46.7501 101.85 46.8101 102.73 46.8601 103.53H41.9901ZM36.9101 100.87C36.7401 99.9 36.7601 99.01 36.9701 98.21H40.1601C40.2101 99.01 40.2801 99.89 40.4501 100.87C40.6201 101.85 40.8701 102.73 41.1001 103.53H37.9101C37.4101 102.73 37.0801 101.85 36.9101 100.87ZM42.7501 93.78C43.4601 93.78 44.6701 95.11 45.6801 97.33H41.0701C41.3001 95.11 42.0401 93.78 42.7501 93.78ZM41.0201 94.05C40.5401 94.85 40.3001 96 40.1801 97.33H37.2601C37.8701 95.73 39.2401 94.49 41.0201 94.05ZM38.5101 104.42H41.4301C41.9301 105.75 42.6701 106.9 43.3401 107.7C41.4901 107.26 39.6801 106.02 38.5101 104.42ZM46.9801 107.7C47.4601 106.9 47.7001 105.75 47.7301 104.42H50.6501C50.1301 106.02 48.7601 107.26 46.9701 107.7H46.9801Z" fill="#D2FF8A"/>
<path opacity="0.35" d="M72 64.65L85.17 88L92 67.5L86 65L80.58 63.5L74.65 64L72 64.65Z" fill="#D2FF8A"/>
<path d="M91.4 113C89.3 113 87.11 112.71 84.87 112.13C71.16 108.58 60 94.9101 60 81.6501C60 75.3301 62.51 69.9901 67.07 66.6101C71.86 63.0601 78.27 62.0901 85.13 63.8601C98.84 67.4101 110 81.0801 110 94.3401C110 100.66 107.49 106 102.93 109.38C99.7 111.77 95.74 112.99 91.4 112.99V113ZM78.61 63.9701C74.49 63.9701 70.73 65.1201 67.68 67.3801C63.37 70.5701 61 75.6401 61 81.6601C61 94.5101 71.82 107.76 85.13 111.2C91.68 112.9 97.79 111.98 102.32 108.62C106.63 105.43 109 100.36 109 94.3401C109 81.4901 98.18 68.2401 84.87 64.8001C82.72 64.2401 80.62 63.9701 78.61 63.9701Z" fill="#D2FF8A"/>
<path d="M88.94 105C87.47 105 85.94 104.8 84.37 104.39C74.79 101.91 67 92.36 67 83.09C67 78.66 68.76 74.91 71.97 72.53C75.33 70.04 79.83 69.35 84.63 70.6C94.21 73.08 102 82.63 102 91.9C102 96.33 100.24 100.08 97.03 102.46C94.77 104.14 91.98 105 88.94 105ZM80.06 70.96C77.23 70.96 74.65 71.75 72.56 73.3C69.61 75.49 67.98 78.97 67.98 83.1C67.98 91.96 75.44 101.1 84.62 103.48C89.12 104.65 93.32 104.02 96.42 101.71C99.37 99.52 101 96.04 101 91.91C101 83.05 93.54 73.91 84.36 71.53C82.88 71.15 81.44 70.96 80.05 70.96H80.06Z" fill="#D2FF8A"/>
<path d="M87.59 96C86.87 96 86.13 95.9 85.37 95.71C80.75 94.51 77 89.9 77 85.43C77 83.26 77.87 81.42 79.44 80.25C81.09 79.03 83.28 78.69 85.63 79.3C90.25 80.5 94 85.11 94 89.58C94 91.75 93.13 93.59 91.56 94.76C90.45 95.59 89.08 96.01 87.59 96.01V96ZM83.41 79.97C82.14 79.97 80.98 80.32 80.05 81.02C78.73 82 78 83.57 78 85.43C78 89.49 81.42 93.68 85.63 94.77C87.67 95.3 89.55 95.02 90.95 93.98C92.27 93 93 91.43 93 89.57C93 85.51 89.58 81.32 85.37 80.23C84.7 80.06 84.04 79.97 83.41 79.97Z" fill="#D2FF8A"/>
</svg>
