<svg width="256" height="256" viewBox="0 0 256 256" fill="none" xmlns="http://www.w3.org/2000/svg">
<g clip-path="url(#clip0_81535_629)">
<path d="M128 0C198.7 0 256 57.3 256 128H0C0 57.3 57.3 0 128 0Z" fill="#EEF3F8"/>
<path d="M54.8003 52H92.0003V96H94.0003V51C94.0003 50.4 93.6003 50 93.0003 50H54.8003C54.2003 50 53.8003 50.4 53.8003 51C53.8003 51.6 54.2003 52 54.8003 52Z" fill="#DCE6F1"/>
<path d="M143 106C143.6 106 144 105.6 144 105V54H152.6C153.2 54 153.6 53.6 153.6 53C153.6 52.4 153.2 52 152.6 52H143C142.4 52 142 52.4 142 53V105C142 105.6 142.4 106 143 106Z" fill="#DCE6F1"/>
<path d="M110 32H95.3001C94.7001 32 94.3001 32.4 94.3001 33C94.3001 33.6 94.7001 34 95.3001 34H109V36H84.8001V17C84.8001 16.4 84.4001 16 83.8001 16H75.0001C74.4001 16 74.0001 16.4 74.0001 17C74.0001 17.6 74.4001 18 75.0001 18H82.8001V36H39.1001C38.4001 36.7 37.7001 37.3 37.1001 38H110.1C110.7 38 111.1 37.6 111.1 37V33C111 32.4 110.6 32 110 32Z" fill="#DCE6F1"/>
<path d="M137 23.8C137.6 23.8 138 23.4 138 22.8V2.50005C137.3 2.40005 136.7 2.40005 136 2.30005V22.8C136 23.4 136.4 23.8 137 23.8Z" fill="#DCE6F1"/>
<path d="M125 24C125.6 24 126 23.6 126 23V2C125.3 2 124.7 2 124 2.1V23C124 23.5 124.4 24 125 24Z" fill="#DCE6F1"/>
<path d="M216 42H184V34H201C201.6 34 202 33.6 202 33C202 32.4 201.6 32 201 32H183C182.4 32 182 32.4 182 33V42H154V19C154 18.4 153.6 18 153 18C152.4 18 152 18.4 152 19V43C152 43.6 152.4 44 153 44H183H216V42Z" fill="#DCE6F1"/>
<path d="M176.8 104H162C161.4 104 161 104.4 161 105V110H163V106H176.8C177.4 106 177.8 105.6 177.8 105C177.8 104.4 177.4 104 176.8 104Z" fill="#DCE6F1"/>
<path d="M81 72H57C56.4 72 56 72.4 56 73V87C56 87.6 56.4 88 57 88H81C81.6 88 82 87.6 82 87V73C82 72.4 81.6 72 81 72ZM80 86H58V74H80V86Z" fill="#DCE6F1"/>
<path d="M122.6 67.2C120.4 67.2 118.5 68 116.9 69.4C115.3 68 113.3 67.2 111.2 67.2C106.4 67.2 102.6 71.1 102.6 75.9C102.6 80.7 106.5 84.6 111.2 84.6C113.3 84.6 115.3 83.8 116.9 82.4C118.4 83.7 120.4 84.6 122.6 84.6C127.4 84.6 131.2 80.7 131.2 75.9C131.2 71.1 127.4 67.2 122.6 67.2ZM111.3 82.6C107.6 82.6 104.7 79.6 104.7 75.9C104.7 72.2 107.7 69.2 111.3 69.2C112.9 69.2 114.4 69.8 115.6 70.9C114.6 72.3 114 74.1 114 76C114 77.9 114.6 79.6 115.6 81.1C114.4 82 112.9 82.6 111.3 82.6V82.6ZM122.6 82.6C118.9 82.6 116 79.6 116 75.9C116 72.2 119 69.2 122.6 69.2C126.3 69.2 129.2 72.2 129.2 75.9C129.2 79.6 126.3 82.6 122.6 82.6Z" fill="#DCE6F1"/>
<path d="M212 66V53C212 52.4 211.6 52 211 52H173C172.4 52 172 52.4 172 53V66H161C160.4 66 160 66.4 160 67V85C160 85.6 160.4 86 161 86C161.6 86 162 85.6 162 85V68H200H214C214.6 68 215 67.6 215 67V66H212ZM210 66H201H199H198V54H196V66C188.7 66 181.3 66 174 66V54H196H198H210V66Z" fill="#DCE6F1"/>
<path d="M164.7 254.7L142.4 171.5L120.1 254.7C120 255.2 120.3 255.8 120.8 255.9C121.3 256 121.9 255.7 122 255.2L128.3 231.9H156.5L162.8 255.2C162.9 255.6 163.3 255.9 163.8 255.9H164.1C164.5 255.8 164.8 255.3 164.7 254.7ZM128.8 230L142.4 179.3L156 230H128.8Z" fill="#6E6558"/>
<path d="M52.3999 254.7L30.0999 171.5L7.79992 254.7C7.69992 255.2 7.99992 255.8 8.49992 255.9H8.79992C9.19992 255.9 9.59992 255.6 9.79992 255.2L16.0999 231.8H44.2999L50.5999 255.2C50.6999 255.7 51.2999 256 51.7999 255.9C52.1999 255.8 52.5999 255.3 52.3999 254.7ZM16.5999 230L30.1999 179.3L43.6999 230H16.5999Z" fill="#6E6558"/>
<path d="M0 168H176V174H0V168Z" fill="#CCC3B5"/>
<path d="M44 242H58V250H44V242Z" fill="#C0D1E2"/>
<path d="M74 256L42.5 255.9L44 245.2C50.9 245.1 52.2 249.8 58 245.2C63.1 255.9 71 247.6 74 256Z" fill="#0D2135"/>
<path d="M20 242H34V250H20V242Z" fill="#C0D1E2"/>
<path d="M48.7002 255.9H19.2002L20.0002 245.2C26.9002 245.1 28.0002 249.8 33.8002 245.2C38.8002 255.9 45.8002 247.6 48.7002 255.9Z" fill="#0D2135"/>
<path d="M58 160C60.8 173.6 60.9 188.2 61.7 196.7C61.9 198.9 62 201 62 203.2V242H44C44 204.4 36 160 36 160H58Z" fill="#124A53"/>
<path d="M46 160C42 176 39.5 192.1 38.4 200.7C38.1 202.8 38 205 38 207.2V242H20V160H46Z" fill="#124A53"/>
<path d="M44 89.3L47.9 90.3C49.9 90.9 51.5 92.5 52.1 94.6L56.8 111.5C59 117.9 56.2 121.9 56.3 126C56.4 130 58.1 160 58.1 160H44V89.3Z" fill="#73937E"/>
<path d="M49.3 67.0001C49.3 66.7001 49.2 66.4001 49.2 66.1001C48.8 63.1001 47.4 60.5001 45.4 58.4001C42.9 55.9001 39.4 54.4001 35.5 54.5001C28.1 54.7001 22.2 60.9001 22.4 68.3001C22.5 72.2001 24.7 75.4001 26.9 78.5001C30.3 83.3001 31.4 85.0001 26.1 91.9001H44C44 91.9001 40.7 83.9001 45.1 82.2001C49.5 80.5001 49.7 80.4001 49.5 76.0001C49.3 73.6001 51.2 73.8001 51.2 72.4001C51.1 71.2001 49.7 69.8001 49.3 67.0001V67.0001Z" fill="#E8AE83"/>
<path d="M47 66V68H39L40 70H47V72H48V66H47Z" fill="#0D2135"/>
<path d="M35.6 53.5C28.6 53.9 24.4 57 22.2 64C20.6 69.1 22.4 73.8 24.1 76.4C25.5 78.5 27.7 79.7 28 80.1L30.8 78.5C33 77.2 33.7 75.8 33.3 73.8C33 72.1 32.1 70 33.1 68.3C34.1 66.5 36.7 66.1 38.3 67.5C39.2 68.3 39.4 69.6 39.6 70.7C39.7 71.2 40.2 71.5 40.7 71.4C41.2 71.3 41.5 70.8 41.3 70.3C41.2 69.9 41 68.2 40.9 67.9C40 64.7 38 65.2 38.7 63.4C39.5 61.2 39.1 59.7 38.1 58.9C36.7 57.8 38.3 55.2 40.4 56.8C42.4 58.3 43.8 59.5 45.9 57.6C43.3 54.9 39.6 53.2 35.6 53.5V53.5Z" fill="#788FA5"/>
<path d="M27.6002 84.6001L44.7002 89.3001C44.7002 89.3001 51.9002 113.2 52.0002 114C52.7002 118 56.0002 160 56.0002 160H24.7002L27.6002 84.6001Z" fill="#CEDFDF"/>
<path d="M27.5998 84.6001L36.5998 100.1C40.5998 106.3 43.4998 115.2 44.9998 120.2C45.6998 122.5 45.9998 124.9 45.9998 127.4V160H18.8998C15.3998 160.4 12.2998 157.5 12.1998 154C11.4998 132 13.3998 117.7 16.0998 108C20.3998 92.4001 26.7998 88.9001 27.5998 84.6001V84.6001Z" fill="#73937E"/>
<path d="M37.3 156.6L28 159.4V166.7L38.8 160.3L37.3 156.6Z" fill="#E8AE83"/>
<path d="M53.8999 122.8C51.3999 122.6 47.9999 121.7 46.1999 120C45.2999 119.2 40.5999 115.6 41.5999 114C40.8999 113.4 41.0999 112.1 42.3999 112.4C42.3999 112.4 42.9999 111.1 44.9999 111.8C46.9999 112.6 51.9999 114.4 51.9999 114.4C51.9999 114.4 49.7999 113.3 48.7999 112.3C48.4999 112 48.2999 110.5 49.0999 110.9L54.4999 113.8C55.2999 114.2 55.7999 115.1 56.2999 115.8C57.2999 117.5 58.8999 119.1 57.5999 121.2C56.6999 122.6 55.2999 122.9 53.8999 122.8V122.8Z" fill="#E8AE83"/>
<path d="M112 106H136V156H112V106Z" fill="#F1ECE6"/>
<path d="M72 106H114V162H72V106Z" fill="#B2A797"/>
<path d="M68 100H100V154H68V100Z" fill="#FAFAF9"/>
<path d="M68 96H100V100H68V96Z" fill="#B2A797"/>
<path d="M120 116H136V144H120V116Z" fill="#5B6A6B"/>
<path d="M114 116H122V144H114V116Z" fill="#3C4545"/>
<path d="M88 162H94V168H88V162Z" fill="#5B6A6B"/>
<path d="M76 162H82V168H76V162Z" fill="#5B6A6B"/>
<path d="M100 100H68V110L100 114V100Z" fill="#F1ECE6"/>
<path d="M68 122H88V124H68V122Z" fill="#B2A797"/>
<path d="M88 122H96V124H88V122Z" fill="#3C4545"/>
<path d="M68 116H88V118H68V116Z" fill="#B2A797"/>
<path d="M88 116H96V118H88V116Z" fill="#3C4545"/>
<path d="M68 128H88V130H68V128Z" fill="#B2A797"/>
<path d="M88 128H96V130H88V128Z" fill="#3C4545"/>
<path d="M68 134H88V136H68V134Z" fill="#B2A797"/>
<path d="M88 134H96V136H88V134Z" fill="#3C4545"/>
<path d="M68 140H88V142H68V140Z" fill="#B2A797"/>
<path d="M88 140H96V142H88V140Z" fill="#3C4545"/>
<path d="M122 120H134V122H122V120Z" fill="#7D8F92"/>
<path d="M122 126H134V128H122V126Z" fill="#7D8F92"/>
<path d="M122 132H134V134H122V132Z" fill="#7D8F92"/>
<path d="M122 138H134V140H122V138Z" fill="#7D8F92"/>
<path d="M120 148.6C120.7 147.4 120.9 146.1 120.6 144.6C120.2 142.4 118.4 140.6 116.2 140.1C112.4 139.3 109.1 142.2 109.1 145.8C109.1 146.9 109.4 147.8 109.9 148.7C110.6 149.9 110.6 151.4 109.7 152.5C108.3 154.1 107.6 156.3 108.2 158.7C108.8 161.3 110.9 163.3 113.5 163.9C118 164.9 122 161.4 122 157.1C122 155.4 121.4 153.9 120.4 152.7C119.4 151.5 119.3 149.9 120 148.6V148.6Z" fill="#B7BA67"/>
<path d="M116 152V167.9C116 168 115.9 168 115.9 168H114.2C114.1 168 114.1 167.9 114.1 167.9V152H116Z" fill="#5C6A6C"/>
<path d="M127 164C130.866 164 134 160.866 134 157C134 153.134 130.866 150 127 150C123.134 150 120 153.134 120 157C120 160.866 123.134 164 127 164Z" fill="#B7BA67"/>
<path d="M126 158H128V168H126V158Z" fill="#5C6A6C"/>
<path d="M188.7 256H212L210.5 238C210.5 238 202 237.4 202 237.5C202 253.4 188.7 247.4 188.7 256Z" fill="#0D2135"/>
<path d="M214 256H236L234 238C230.9 238 227.1 238 224 238C225.6 252.5 214 247.4 214 256Z" fill="#0D2135"/>
<path d="M195.2 94.3999C190.3 95.0999 186.6 103.5 186.6 103.5L180.6 114.4H201.4L195.2 94.3999Z" fill="#5C6A6C"/>
<path d="M235.9 160C235.9 160 236 243.4 236 244H218.9L213.1 177.6C213.1 177.6 213 176.7 212.9 176.3C212.8 175.8 212 175.8 212 176.4V244H194L190 160H235.9Z" fill="#5C6A6C"/>
<path d="M240 148C240 148 240 158 236 160H192V148.4V114C192 114 197.6 106.5 195.2 94.3001L202.9 93.2001L222.5 91.6001L233.3 95.5001L240 131V148Z" fill="#F3BA64"/>
<path d="M212.4 54.8999C207.7 54.8999 203.7 57.3999 201.4 61.0999C200.1 63.1999 199.8 65.3999 199.4 67.6999C199.3 68.5999 199 69.3999 198.7 70.1999C198.4 70.9999 197.9 71.6999 197.9 72.5999C197.9 73.9999 199.7 73.6999 199.6 75.9999C199.5 80.1999 199.8 80.2999 204 81.7999C208.3 83.2999 205.7 91.5999 205.7 91.5999L222.5 91.4999C217.5 85.3999 218.1 82.7999 220.8 78.5999C223 75.1999 225.4 71.9999 225.4 67.7999C225.4 60.6999 219.6 54.8999 212.4 54.8999V54.8999Z" fill="#DE9885"/>
<path d="M219.6 87.3999L211.2 91.1999L206.3 88.2999L202.9 93.1999L211.1 98.9999L222.7 92.6999L219.6 87.3999Z" fill="#5C6A6C"/>
<path d="M192.6 141.8H240V147.8H192.6V141.8Z" fill="white"/>
<path d="M192.6 132H240V138H192.6V132Z" fill="white"/>
<path d="M198.6 162H151.3L141.9 110H191.9H195.6L203.9 155.8C204.5 159.1 202 162 198.6 162Z" fill="#A8D4FF"/>
<path d="M205.8 141.7C204.2 142.2 203.8 139.9 201.2 141.3L201.4 143.8L200.4 144.2C199.3 144.6 198.1 144.6 197 144.2L196.3 143.9C195 143.5 194.9 145.3 195.9 145.7C195.9 146.6 196.1 147.5 197 147.9C196.8 149.6 198.5 150.1 199.8 150.5C200.1 152.1 202.2 152.1 203.5 152.3C206 153 208.4 149.4 210 148.1L205.8 141.7Z" fill="#DE9885"/>
<path d="M202.3 67.8999C203.2 67.6999 204.1 67.1999 204.9 66.4999L197.6 65.8999C198.2 67.8999 201.3 68.0999 202.3 67.8999V67.8999Z" fill="#0D2135"/>
<path d="M233.4 84.1001C231 80.1001 230.3 81.0001 226.2 71.8001C225.7 70.8001 225.7 69.5001 225.6 68.2001L206.1 66.6001C206.1 67.8001 206.3 69.2001 207.2 70.4001C207.8 71.1001 208.4 71.3001 209.4 71.3001C209.4 71.2001 209.4 71.0001 209.4 70.9001C209.4 69.2001 210.8 67.8001 212.5 67.8001C214.2 67.8001 215.6 69.2001 215.6 70.9001V71.2001V71.4001C215.6 71.6001 215.5 71.8001 215.5 71.9001C215.1 73.7001 214 78.6001 214.5 81.0001C215.9 88.3001 219.4 90.1001 222.9 92.9001L238 98.0001C237.1 93.9001 236.5 89.2001 233.4 84.1001Z" fill="#0D2135"/>
<path d="M227.5 66.7999C226.9 66.5999 226.5 66.0999 226.5 65.4999L225.9 60.7999C225.4 55.2999 221.7 50.2999 214.6 49.6999C207.5 49.0999 203.2 52.8999 201.1 57.6999L198.6 63.6999L193.7 64.2999L193.5 65.5999L228.2 68.3999L228.4 66.9999L227.5 66.7999Z" fill="#F3BA64"/>
<path d="M143.9 118.5C143.5 118.6 144.7 118.5 146 119.2C146.7 119.6 146.5 120.5 146.6 121.2C146.7 122.3 147.9 121.8 148.3 122.9C148.6 123.7 147.9 124.9 147.4 124.8C147.4 124.8 148.2 125.3 148.1 126.2C148 127.1 147.5 127.5 147.5 127.5C148.1 128.2 147.9 129.8 146.2 129.6C144.6 129.4 142.2 127.8 141.9 126.5C140.9 124.8 140.2 121.9 140.1 118.6C140 116.7 141.1 115 142.8 114.1L143.9 118.5Z" fill="#DE9885"/>
<path d="M233.2 95.5L223.2 128.7L204.5 141.5L211.4 151.9L228.7 140.7C233 138 236.1 133.8 237.5 128.9L241.6 114.7C244.2 105.5 240 97.5 233.2 95.5V95.5Z" fill="#5C6A6C"/>
</g>
<defs>
<clipPath id="clip0_81535_629">
<rect width="256" height="256" fill="white"/>
</clipPath>
</defs>
</svg>
