<svg width="256" height="256" viewBox="0 0 256 256" fill="none" xmlns="http://www.w3.org/2000/svg">
<path d="M58.6998 75.2L77.1998 58C77.7998 57.4 78.2998 56.7 78.5998 55.9L79.8998 52.6C80.0998 51.9 80.5998 51.4 81.2998 51.1L84.2998 49.6C84.9998 49.3 85.7998 49.6 85.9998 50.3C86.0998 50.8 85.9998 51.3 85.4998 51.6L82.5998 53.6L79.9998 59.6L83.4998 61.2L68.3998 82.5C67.6998 83.4 66.8998 84.2 65.8998 84.7L58.2998 88.6L58.6998 75.2Z" fill="#DE9885"/>
<path d="M87.6001 57.9999H89.6001C91.6001 57.9999 92.8001 56.1999 93.0001 55.3999C93.0001 55.3999 94.4001 55.0999 94.9001 53.8999C95.2001 53.1999 94.6001 52.5999 94.6001 52.5999C94.6001 52.5999 95.1001 52.3999 95.4001 51.9999C96.0001 51.1999 95.4001 49.8999 94.3001 49.8999H91.7001L87.6001 57.9999Z" fill="#DE9885"/>
<path d="M86.9639 41.7808L95.0009 45.365L86.8549 63.631L78.8179 60.0468L86.9639 41.7808Z" fill="#3C4345"/>
<path d="M93.6999 41L93.3999 40.9L94.0999 39.4L92.0999 38.5L91.3999 40C89.8999 39.2 87.9999 39.5 87.3999 40.8L86.8999 41.9L94.8999 45.5C95.8999 43.7 95.8999 42 93.6999 41Z" fill="#CFDEE0"/>
<path d="M218.067 248.567H208.067V237.567H218.067V248.567Z" fill="#DE9885"/>
<path d="M192 256H216C218.2 256 220 254.2 220 252H188C188 254.2 189.8 256 192 256Z" fill="#3C4345"/>
<path d="M220 252H188C188 252 188 248 192 248C196 248 202.4 245.9 205.3 242.5C206.5 241.1 207.2 239.4 207.2 239.4C209.4 239.6 211.3 241.2 211.9 243.3L212.1 243.9H218.1L220 252Z" fill="#D6CEC2"/>
<path d="M240.1 234.2L250.7 231.8L252.8 241.7L242.2 244.1L240.1 234.2Z" fill="#DE9885"/>
<path d="M229.3 255.2L252.7 249.9C254.9 249.4 256.2 247.3 255.7 245.1L224.5 252.2C225 254.3 227.1 255.6 229.3 255.2V255.2Z" fill="#3C4345"/>
<path d="M255.7 245L224.5 252.1C224.5 252.1 223.6 248.2 227.5 247.3C231.4 246.4 237.2 243 239.3 239C240.2 237.3 240.4 235.6 240.4 235.6C242.6 235.3 244.8 236.4 245.8 238.4L246.1 239L251.9 237.7L255.7 245Z" fill="#D6CEC2"/>
<path d="M253.4 0C148.3 2.8 64 87.7 64 192H253.4H256V0C255.1 0 254.3 0 253.4 0Z" fill="#FFEFEA"/>
<path d="M38 140H218V230H38V140Z" fill="#FDC2B1"/>
<path d="M38 158H218V164H38V158Z" fill="#FFDED5"/>
<path d="M38 170H218V176H38V170Z" fill="#FFDED5"/>
<path d="M38 182H218V188H38V182Z" fill="#FFDED5"/>
<path d="M38 194H218V200H38V194Z" fill="#FFDED5"/>
<path d="M38 206H218V212H38V206Z" fill="#FFDED5"/>
<path d="M38 218H218V224H38V218Z" fill="#FFDED5"/>
<path d="M146 116.7L171.1 128.4C173.9 129.7 176.5 130.3 178.1 130.5C179.1 130.6 180 131.3 180.4 132.2L182 135.5C182.3 136.1 182.2 136.8 181.7 137.3L179.9 139C179.5 139.3 179.1 139.5 178.6 139.6L176.8 139.5C176.1 139.3 176.2 137.8 176.2 137.8C176.2 137.8 174.2 138.3 173.3 137.7C172.4 137.1 171.9 136.7 171.7 135.5C168.3 136 166.7 132.7 166.7 132.7L146 129.2V116.7Z" fill="#DE9885"/>
<path d="M174.9 141.8L173.8 141L184.3 127.2L185.3 128L174.9 141.8Z" fill="#0D2135"/>
<path d="M180.3 135H177.4L176.4 137.4C176.1 137.6 175.9 138.4 176 138.8C176.2 139.3 176.7 139.9 178.3 139.3L180.3 135Z" fill="#DE9885"/>
<path d="M96 116.2V140H148V106.2L153.6 101.4L148.3 84.6C146.7 79.4 141.9 76 136.5 76H107.2C99.6 76 92.6 81.7 92 89.3V113.2C92 115.3 94 116.8 96 116.2V116.2Z" fill="#2C1349"/>
<path d="M138.4 50.5001C138.1 47.1001 136.8 44.6001 135 42.5001C132 39.0001 127.2 37.0001 122 37.9001C116.4 38.8001 111.9 43.2001 110.7 48.7001C109.9 52.7001 110.7 56.5001 112.7 59.5001C116.2 64.9001 115.9 69.6001 113 76.0001H110C115.7 84.8001 129.7 84.4001 134.1 76.0001H133.2C132.2 76.0001 131.4 75.3001 131.3 74.3001C130.9 71.5001 131 67.9001 133.7 67.0001C138.3 65.4001 138.6 65.2001 138.5 60.7001C138.3 58.1001 140.3 58.5001 140.3 57.0001C140.2 55.5001 138.6 53.9001 138.4 50.5001Z" fill="#DE9885"/>
<path d="M134.6 120H153.9L160.6 96H141.3L134.6 120Z" fill="#D0E8FF"/>
<path d="M142.6 106.9C142.6 106.9 141.9 107 141.8 107.8L138.4 108.3C138.1 108.3 137.9 108 138 107.8L138.9 104.3C138.2 104.3 133.2 109 132.6 109.5C132.2 109.8 130.5 111.7 130 112.1L114 122L110.9 111.6L96 116.2L98.6 125.9C101.4 133.8 111.3 136.6 117.8 131.2L132.8 118.9C133.6 118.4 134 118.1 134.7 118L139.8 116.8C140.3 116.7 140.7 116.4 141 115.9L143.2 112.9C143.6 112.4 143.4 111.8 143.4 111.2C143.4 111.2 143.8 111.2 144.2 110.6C144.5 110.2 144 109.6 144 109.6C145.5 109.2 144.9 106.8 142.6 106.9V106.9Z" fill="#DE9885"/>
<path d="M138 44.2C131.6 32 111.6 33.6 108.8 47.8C108.2 50.1 107.3 55.8 101.8 59.9C99.2001 61.8 96.7001 64.8 97.0001 69.5C97.4001 75.1 100.3 78.3 106.1 77.9H114.1C120 77.5 123.7 71.9 122.8 66.1L121.3 55.5C120 50.7 126.3 48.6 127.8 53.3C131.2 52.4 130.7 48.3 129.1 46.2C132 48.3 138.9 48.2 138 44.2Z" fill="#61372C"/>
<path d="M208 136L200 238H226L229.7 135.4L208 136Z" fill="#2A67B2"/>
<path d="M242.2 181.6C241 188.3 251.1 233.7 251.1 233.7L225.4 237.9C214.1 177.3 210 136 210 136L246 138L248 144C248 156 242.2 181.6 242.2 181.6V181.6Z" fill="#4684C4"/>
<path d="M185.5 83.6999L177.3 80.3999C177.3 80.3999 173.5 78.0999 171.7 77.3999C169.9 76.6999 167.8 76.6999 167.3 77.7999C167.3 77.7999 166.1 77.3999 165.7 78.8999C165.7 78.8999 165.2 78.8999 164.5 79.3999C164.5 79.3999 161.6 81.3999 161.3 81.6999C160.9 82.0999 160.6 82.1999 160.9 82.9999C160.2 83.5999 160.8 84.8999 161.8 84.3999L165 82.8999L168.6 83.9999L164.7 84.2999C164.3 84.2999 163.9 84.6999 163.9 85.0999C163.8 85.5999 164.2 86.0999 164.7 86.0999C166.2 86.2999 167.8 85.9999 168.6 86.0999C169.5 86.2999 171.6 86.7999 175.4 85.6999L184.3 90.0999C184.5 87.6999 184.6 85.7999 185.5 83.6999V83.6999Z" fill="#DE9885"/>
<path d="M221.5 78.3L204.3 88.7C203 89.5 201.4 89.6 200 89.1L179.4 81.1L174.4 93.3L200.5 103.1C205.7 105 211.5 104.6 216.5 102.2L235.5 80.9L221.5 78.3Z" fill="#7389A0"/>
<path d="M236 76.0001C230 70.0001 230 58.0001 230 58.0001C230 58.0001 230.7 50.8001 230 48.0001C228.2 40.4001 221.5 34.9001 214 36.8001C207 38.5001 202.2 45.1001 203.1 52.1001C204 59.1001 203.3 53.0001 203.3 53.2001C203.7 56.1001 202.7 57.9001 203 59.2001C203.3 60.4001 204.9 60.2001 205.3 61.3001C205.9 63.0001 205.3 66.4001 207.7 67.1001C211.1 68.2001 212.9 66.2001 214.6 69.3001C216 72.0001 218 76.0001 218 76.0001H236Z" fill="#DE9885"/>
<path d="M230.7 45C228.5 36.2 220.8 33 213.7 34.7C206.6 36.4 201.7 40.7 199.3 41.8C199.3 41.8 200 43.9 203.9 42.1C203.9 42.1 202 44.3 199.9 45.3C199.9 45.3 206.5 51.5 213.9 44V51.7L215.4 51.3C215.4 49.8 216.4 48.4 218 48C219.7 47.6 221.4 48.5 222 50.2L222.1 50.5L224.5 58.7C225.2 60.9 227.2 62.1 229.6 62H234.9C234.9 62 232.9 53.7 230.7 45V45Z" fill="#381710"/>
<path d="M217.6 72H232.5C233.5 72 234.4 72.3 235.1 73C239 76.3 248 84.7 248 100.6V144C235 140.1 236 138 208 136V100C208.8 86 213.9 80 215 74.2C215.3 72.9 216.3 72 217.6 72Z" fill="#95ABC1"/>
<path d="M172.1 95.2L166.2 93.7C164.6 93.3 163.3 92 162.9 90.4C162.1 87.4 160.8 86 158.5 85.1C157.5 84.7 156.9 84.5 156.5 84.3C156.1 84.1 155.7 84.5 155.8 84.9C156 85.9 156.7 86.6 156.7 86.6L154.6 85.3C154 84.9 153.2 85.1 152.9 85.7C152.5 86.3 152.7 87.1 153.3 87.5L153.9 87.9C152.7 88.2 152.8 90.2 153.7 90.6C152.6 90.5 152.3 92.7 153.1 93C151.8 93.3 151.6 95 152.8 95.8L156.8 98.3C158.9 99.8 159.7 98.4 162.7 99.4C165.7 100.4 168.9 102.2 168.9 102.2L172.1 95.2Z" fill="#DE9885"/>
<path d="M219.7 81.3L202.3 98.5C200.5 100.3 197.8 100.8 195.5 99.9L171.4 90.1L165.1 102.1L193 115.3C197.4 117.4 202.4 117.9 207.2 116.8C208.8 116.4 210.3 115.6 211.5 114.5L233.8 94.5C237.2 91.4 238 86.4 235.7 82.4C232.2 76.6 224 76 219.7 81.3V81.3Z" fill="#B4C6D9"/>
<path d="M220.2 33.8999C219.8 33.9999 219.5 34.3999 219.5 34.8999C219.5 36.2999 219.5 39.3999 219.2 41.6999C218.8 44.6999 217.5 49.7999 217.5 49.7999C217.5 49.7999 217.3 50.7999 219 51.3999C221.2 52.1999 221.7 51.0999 221.7 51.0999C221.7 51.0999 223.6 48.7999 224.4 43.7999C225.1 39.3999 225 36.1999 224.9 35.3999C224.9 35.1999 224.8 34.9999 224.7 34.7999C224.4 34.4999 223.8 34.0999 222.4 33.8999C221.5 33.6999 220.7 33.7999 220.2 33.8999V33.8999Z" fill="#788A8D"/>
<path d="M220 58C223.314 58 226 55.3137 226 52C226 48.6863 223.314 46 220 46C216.686 46 214 48.6863 214 52C214 55.3137 216.686 58 220 58Z" fill="#788A8D"/>
<path d="M220 57C222.761 57 225 54.7614 225 52C225 49.2386 222.761 47 220 47C217.239 47 215 49.2386 215 52C215 54.7614 217.239 57 220 57Z" fill="#1C2024"/>
<path d="M150 77.4001L148.6 77.0001C146.8 76.4001 146 79.1001 147.8 79.6001L149.2 80.0001C151 80.6001 151.9 77.9001 150 77.4001Z" fill="#38434F"/>
<path d="M201.3 62.4001C201.1 62.4001 201 62.3001 201 62.1001C201 61.9001 201.1 61.8001 201.3 61.8001C208.3 61.6001 211.8 57.7001 215.2 53.0001C215.3 52.9001 215.5 52.8001 215.7 52.9001C215.8 53.0001 215.9 53.2001 215.8 53.4001C212.2 58.2001 208.6 62.2001 201.3 62.4001Z" fill="#1C2024"/>
<path d="M201.6 62.5H197.7C197.5 62.5 197.4 62.4 197.4 62.2V61C197.4 60.8 197.5 60.7 197.7 60.7H201.6C201.8 60.7 201.9 60.8 201.9 61V62.2C201.9 62.3 201.7 62.5 201.6 62.5Z" fill="#1C2024"/>
<path d="M173 114.1C170.6 114.7 168.2 115.7 166.6 118.3C158.6 115.1 149.4 106.1 155.1 97.1C155.4 96.5 154.6 96 154.2 96.6C148.2 106 157.6 115.8 166.1 119.2C164.8 122 164.7 124.9 164.9 128.5C165.2 135.7 165.6 146.6 157.8 148.9C157.2 149 157.4 149.9 157.9 149.9C166.5 147.6 166.1 135.6 165.8 128.5C165.6 124.9 165.7 122.2 166.9 119.6C171 121.1 175.9 122.3 178 118.7C179.3 115.7 176.1 113.2 173 114.1ZM177.2 118.3C175.3 121.2 171 120 167.5 118.7C168.9 116.5 171 115.6 173.2 115.1C175.5 114.4 178.1 116 177.2 118.3V118.3Z" fill="#38434F"/>
<path d="M157.8 82.9C158 83.4 158 84.1 157.7 84.8C157.6 85.1 157.8 85.5 158.2 85.5C159.2 85.2 159.1 83.1 158.7 82.5C158.3 81.7 157.6 81.1 156.5 80.7L150.1 78.5C149.5 78.3 149.2 79.2 149.8 79.4L156.2 81.6C156.8 81.8 157.5 82.2 157.8 82.9V82.9Z" fill="#38434F"/>
<path d="M48 136V238H2V152C2 144 4 140 8 132L48 136Z" fill="#65684E"/>
<path d="M4 238H14V246H4V238Z" fill="#DE9885"/>
<path d="M30.1001 256H6.1001C3.9001 256 2.1001 254.2 2.1001 252H34.1001C34.1001 254.2 32.3001 256 30.1001 256Z" fill="#A0B4B7"/>
<path d="M2.1001 252H34.1001C34.1001 252 34.1001 248 30.1001 248C26.1001 248 19.7001 245.9 16.8001 242.5C15.6001 241.1 14.9001 239.4 14.9001 239.4C12.7001 239.6 10.8001 241.2 10.2001 243.3L10.0001 244H4.0001L2.1001 252Z" fill="#2E383A"/>
<path d="M21.2 242C19.3 241.5 16.6 241.6 16.4 241.9C16.2 242.3 18.8 245.9 21.8 245.7C24.2 245.5 23.1 242.5 21.2 242V242Z" stroke="#BFD3D6" stroke-miterlimit="10"/>
<path d="M28 238H38V246H28V238Z" fill="#DE9885"/>
<path d="M54.1001 256H30.1001C27.9001 256 26.1001 254.2 26.1001 252H58.1001C58.1001 254.2 56.3001 256 54.1001 256Z" fill="#BFD3D6"/>
<path d="M26.1001 252H58.1001C58.1001 252 58.1001 248 54.1001 248C50.1001 248 43.7001 245.9 40.8001 242.5C39.6001 241.1 38.9001 239.4 38.9001 239.4C36.7001 239.6 34.8001 241.2 34.2001 243.3L34.0001 244H28.0001L26.1001 252Z" fill="#3C4345"/>
<path d="M36.0001 246.4C35.6001 248.6 37.6001 249 39.1001 247.7C40.6001 246.4 41.2001 243.2 41.2001 243.2C41.2001 243.2 36.5001 243.7 36.0001 246.4Z" stroke="#BFD3D6" stroke-miterlimit="10"/>
<path d="M46.6002 242.2C44.7002 241.7 41.7002 243 41.7002 243C41.7002 243 44.7002 246.5 47.2002 245.5C49.3002 244.6 48.5002 242.7 46.6002 242.2Z" stroke="#BFD3D6" stroke-miterlimit="10"/>
<path d="M36 76.8L60 74V92.3L36.9 94.1L36 76.8Z" fill="#E7A33E"/>
<path d="M45.0002 55.0001C44.8002 53.5001 42.8002 52.1001 42.1002 48.6001C41.5002 46.7001 40.6002 44.9001 39.4002 43.5001C36.3002 39.8001 31.4002 37.8001 26.3002 38.6001C18.6002 39.9001 13.4002 47.1001 14.7002 54.8001C14.7002 55.0001 14.8002 55.2001 14.8002 55.4001V55.5001C15.3002 58.0001 16.6002 60.3001 18.2002 62.1001C24.3002 68.7001 24.3002 69.9001 21.4002 76.8001L38.3002 76.6001C38.3002 76.6001 35.8002 68.5001 40.1002 66.1001C44.4002 63.7001 44.6002 63.5001 43.8002 59.1001C43.2002 56.4001 45.2002 56.4001 45.0002 55.0001V55.0001Z" fill="#DE9885"/>
<path d="M46.2 103.5C43 113.8 48.1 122 48 136H6C8.7 128.6 10.8 119.1 9.6 103.5C8.5 87.9 12.2 79 18 74H28C32.2 80 44.1 82.1 44.1 82.1L46.3 103.4C46.2 103.4 46.2 103.5 46.2 103.5V103.5Z" fill="#1D2226"/>
<path d="M109.3 75.7C108.9 75.3 108.4 75.6 108 75.8C107.5 75.4 106.5 75.8 106.5 75.8C102.5 77.7 95.5999 76.3 101.8 73.3C102.8 72.7 101.9 71.2 100.9 71.7C100.1 72.1 98.8999 72.8 98.1999 73.2C97.0999 73.8 95.2999 72.6 91.9999 76.1L89.9999 78.1L65.5999 90.3L59.8999 103.4L61.9999 103.6C65.0999 103.8 68.0999 102.8 70.4999 100.9L91.9999 84C96.1999 81 100.3 82.6 108 78C108.4 77.8 109.1 77.4 108.8 77C109.3 76.7 109.8 76.2 109.3 75.7Z" fill="#DE9885"/>
<path d="M65.5999 90.3L57.9999 108C57.9999 108 51.8999 106.9 45.9999 104C41.3999 101.7 29.9999 94.7 26.1999 88.4C22.8999 83 23.8999 77.9 26.6999 74H37.6999C41.8999 80 48.1999 82 48.1999 82L65.5999 90.3Z" fill="#F8C77E"/>
<path d="M82.0999 50.8001L84.3999 49.3001C84.3999 49.3001 85.6999 48.4001 86.3999 49.5001C86.5999 49.9001 86.4999 50.5001 85.3999 51.4001C84.4999 52.2001 82.3999 53.6001 79.8999 54.5001L82.0999 50.8001Z" fill="#DE9885"/>
<path d="M39.4 43.3999L39.5 48.4999C39.5 50.7999 36.9 52.6999 36.4 53.9999C35.5 56.2999 36.6 59.2999 35.5 61.1999C34.3 63.3999 33.5 65.1999 33.3 65.6999C31.9 68.4999 33.1 74.7999 33.8 75.9999H16.8C14.5 75.9999 12.5 74.1999 12.3 71.8999C12 69.3999 12.2 66.5999 12.9 64.8999C13.3 63.8999 13.8 62.9999 14.2 61.9999C14.8 60.3999 14.1 57.3999 14.1 52.2999C14 46.5999 18.3 39.4999 26.1 38.1999C31.2 37.3999 36.1 39.0999 39.4 43.3999V43.3999Z" fill="#0D2135"/>
</svg>
