<svg width="256" height="256" viewBox="0 0 256 256" fill="none" xmlns="http://www.w3.org/2000/svg">
<g clip-path="url(#clip0_81535_631)">
<path d="M128 0C198.7 0 256 57.3 256 128H0C0 57.3 57.3 0 128 0Z" fill="#E8F3FF"/>
<path d="M124.1 64C123.8 56.2 131.3 50.0001 138.9 51.9001C140.7 52.3001 142.6 51.7001 143.7 50.2001C146.9 46.1001 151.9 43.5 157.5 43.5C160.5 43.6 164 44.7001 166.2 41.9001C169.8 37.6001 175.2 34.8 181.3 34.8C189.3 34.8 196.2 39.6 199.3 46.5C200.4 49.1 203 50.7001 205.8 50.7001C213 50.6001 218.7 57 217.9 64.1L124.1 64Z" fill="white"/>
<path d="M122 38C122.2 32.4 116.8 28 111.4 29.3C110.1 29.6 108.8 29.1 107.9 28.1C105.6 25.2 102 23.3 98 23.3C95.8 23.4 93.3001 24.2 91.8001 22.1C89.2001 19 85.3 17 81 17C75.3 17 70.3 20.4 68.1 25.4C67.3 27.2 65.5001 28.4 63.4001 28.4C58.3001 28.3 54.2 32.9 54.7 38H122Z" fill="white"/>
<path d="M53.3 69.6001C54.6 69.3001 57.3 69.5001 60.3 69.5001C63.6 69.5001 69.6 69.8001 72.9 68.1001C74.6 67.2001 78.2 67.2001 80.7 67.7001C84.6 68.4001 87.8 71.1001 88.9 76.0001H46C46 76.0001 47.1 71.3001 53.3 69.6001V69.6001Z" fill="white"/>
<path d="M30 20H242V24H30V20Z" fill="#DBE7E9"/>
<path d="M196 23.7H200V239.7H196V23.7Z" fill="#DBE7E9"/>
<path d="M222.7 60.4999L213.2 35.1999C213.2 35.1999 212.7 31.9999 212.9 31.1999C213.6 28.8999 214.9 22.9999 213.2 16.3999C213.1 15.8999 212.6 15.5999 212.1 15.7999L211.9 15.2999C211.7 14.8999 211.3 14.7999 210.9 14.9999C210.6 15.1999 210.5 15.4999 210.5 15.7999C210.8 17.1999 211.5 21.3999 209 24.5999C208.9 24.7999 209 25.0999 208.7 24.3999L209.1 21.8999C208.9 21.3999 208.4 21.0999 207.9 21.2999C207.4 21.4999 207.4 21.8999 207.3 22.3999C207 24.1999 206.7 24.7999 206.4 25.8999C206 27.2999 204.9 28.1999 207.1 32.3999L214.3 63.2999L222.7 60.4999Z" fill="#FFDAC7"/>
<path d="M209.2 20.7H218.7V23.9H209.2V20.7Z" fill="#DBE7E9"/>
<path d="M70 230H80V240H70V230Z" fill="#C0D1E2"/>
<path d="M83.7999 185.6L87.9999 232H69.6999L60.3999 188.9L83.7999 185.6Z" fill="#61382D"/>
<path d="M56 236L57.6 226.3L68.8 226.2L65.6 238.2L56 236Z" fill="#C0D1E2"/>
<path d="M19 174.4L68 172.1C77.4 171.7 84.9 179.8 83.6 189.1L74 232H56L61.6 188.9H19V174.4Z" fill="#945646"/>
<path d="M49.3001 101.6C49.3001 101.3 49.4001 101 49.4001 100.7C50.0001 84.9 27.3001 82.1 24.2001 97.8C23.3001 101.9 25.4001 105.8 26.9001 109.1C28.8001 113.6 28.1001 115.9 26.1001 117.9V123.9L39.3001 124.1C39.3001 124.1 38.2001 115.6 42.6001 114.9C46.9001 114.2 47.2001 114.1 47.8001 110C48.0001 107.7 49.8001 108.3 50.0001 107C50.1001 105.9 49.1001 104.3 49.3001 101.6V101.6Z" fill="#945646"/>
<path d="M38.1999 86.9001C23.8999 84.5001 18.1999 100.1 26.5999 109.4C31.0999 110 33.4999 106.1 33.1999 102.4C32.9999 98.5001 38.5999 97.9001 39.2999 101.6C39.3999 103.3 41.7999 103.1 41.4999 101.4C41.1999 98.7001 40.2999 97.2001 41.3999 95.9001C42.1999 95.1001 43.1999 95.7001 43.6999 96.5001C45.8999 98.0001 49.0999 96.5001 49.8999 96.0001C50.7999 95.4001 51.8999 92.0001 47.8999 90.0001C45.2999 88.6001 41.3999 87.5001 38.1999 86.9001Z" fill="#0D2135"/>
<path d="M39.3001 122C42.4001 132.5 49.3001 136.3 48.2001 151.9C47.1001 167.5 55.6001 172.7 55.6001 172.7L19.0001 174.4L14.3001 147.1C12.5001 133.1 20.4001 127 23.8001 122H39.3001Z" fill="#F5EE9E"/>
<path d="M61.6001 161.1C61.6001 161.1 61.7001 161.1 61.7001 161C61.6001 161.1 61.6001 161.1 61.6001 161.1Z" fill="#945646"/>
<path d="M74.8 150.2L73.0999 150.1L74.8 149.5C75.7 149.2 75.3 147.8 74.4 148L69.6999 149.1L64.5999 151.6L57 157.4L52.2 159.2L55 164.7C56.7 163.7 59.8999 160.6 62.0999 161.1C62.8999 161.2 64.6 161.2 65.4 160.9C67.3 160.7 70 158.5 70 158.5C71.1 157.6 70.8 156.7 69.4 156.9L66.9 158.1C64.9 158.1 68.3 153.7 68.3 153.7L71.5 154.2C72.2 154.3 72.3999 153.3 71.6999 153.1L70.3 152.7L73.3 152.8C73.9 152.8 74.3 152.1 73.9 151.6H74.8C75.7 151.8 75.7 150.3 74.8 150.2V150.2Z" fill="#945646"/>
<path d="M52.1001 172.2L85.6001 170.4L88.9001 131.4" stroke="#74899F" stroke-width="1.5625" stroke-miterlimit="10"/>
<path d="M39.7 162L57.4 155.4L62 164.5L44.7999 173.2L39.7 162Z" fill="#F5EE9E"/>
<path d="M97 248.4C97 246.4 95.7 244.7 93.8 244.4C93.3 244.3 92.8 244.2 92.2 244.1C88.4 243.3 84.9 241.4 82.3 238.5C81.3 237.4 80.8 236.5 80.6 235.9C80.3 235 79.4 234.1 78.5 234.1H70V248.6H97C97 248.4 97 248.4 97 248.4Z" fill="#265A8E"/>
<path d="M70 248V249.7C70 250.9 70.9 252 72 252H93.4C95.4 252 96.9 250.2 97 248H70Z" fill="#0D2135"/>
<path fill-rule="evenodd" clip-rule="evenodd" d="M87.7001 243.7C88.3001 243.9 88.7001 244.5 88.5001 245.1C88.3001 245.7 87.7001 246.1 87.1001 245.9C86.5001 245.7 86.1001 245.1 86.3001 244.5C86.5001 243.9 87.1001 243.5 87.7001 243.7Z" fill="#507EA0"/>
<path fill-rule="evenodd" clip-rule="evenodd" d="M84.6 242.1C85.2 242.3 85.6 242.9 85.4 243.5C85.2 244.1 84.6 244.5 84 244.3C83.4 244.1 83 243.5 83.2 242.9C83.3 242.3 83.9 241.9 84.6 242.1Z" fill="#507EA0"/>
<path fill-rule="evenodd" clip-rule="evenodd" d="M81.8002 239.8C82.4002 240 82.8002 240.6 82.6002 241.2C82.4002 241.8 81.8002 242.2 81.2002 242C80.6002 241.8 80.2002 241.2 80.4002 240.6C80.6002 240 81.2002 239.6 81.8002 239.8Z" fill="#507EA0"/>
<path fill-rule="evenodd" clip-rule="evenodd" d="M79.7001 237.1C80.3001 237.3 80.7001 237.9 80.5001 238.5C80.3001 239.1 79.7001 239.5 79.1001 239.3C78.5001 239.1 78.1001 238.5 78.3001 237.9C78.5001 237.3 79.1001 236.9 79.7001 237.1Z" fill="#507EA0"/>
<path fill-rule="evenodd" clip-rule="evenodd" d="M87.6001 242.5C87.5001 243.1 87.2001 244.1 87.0001 244.7C86.9001 245 87.2001 245.2 87.4001 245.2C87.6001 245.3 87.8001 245.1 87.8001 244.9C87.9001 244.3 88.2001 243.3 88.4001 242.7C88.6001 242.3 87.7001 242.1 87.6001 242.5V242.5Z" fill="#0D2135"/>
<path fill-rule="evenodd" clip-rule="evenodd" d="M85 241C84.7 241.5 84.2 242.4 83.9 242.9C83.8 243.1 83.9 243.4 84.2 243.5C84.4 243.6 84.6 243.5 84.7 243.4C85 242.9 85.5001 242 85.8001 241.5C86.1001 241 85.3 240.5 85 241Z" fill="#0D2135"/>
<path fill-rule="evenodd" clip-rule="evenodd" d="M82.8 239.1C82.4 239.5 81.6 240.3 81.2 240.7C81.1 240.8 81.1 241.1 81.2 241.2C81.3 241.4 81.6 241.5 81.8 241.3C82.2 240.9 83 240.1 83.4 239.7C83.8 239.3 83.1 238.7 82.8 239.1Z" fill="#0D2135"/>
<path fill-rule="evenodd" clip-rule="evenodd" d="M81.2 236.7C80.7 237 79.8 237.5 79.3 237.8C79.1 237.9 79.1 238.1 79.2 238.3C79.3 238.5 79.5 238.7 79.8 238.6C80.3 238.3 81.2 237.8 81.7 237.5C82.1 237.2 81.6 236.4 81.2 236.7Z" fill="#0D2135"/>
<path d="M81 248.4C81 246.4 79.7 244.7 77.8 244.4C77.3 244.3 76.8 244.2 76.2 244.1C72.4 243.3 68.9 241.4 66.3 238.5C65.3 237.4 65.8 236.5 65.6 235.9C65.3 235 64.4 234.1 63.5 234.1H55.7L54 248.5H81C81 248.4 81 248.4 81 248.4Z" fill="#2A67B2"/>
<path d="M54 248V249.7C54 250.9 54.9 252 56 252H77.4C79.4 252 80.9 250.2 81 248H54Z" fill="#132D42"/>
<path fill-rule="evenodd" clip-rule="evenodd" d="M71.7001 243.7C72.3001 243.9 72.7001 244.5 72.5001 245.1C72.3001 245.7 71.7001 246.1 71.1001 245.9C70.5001 245.7 70.1001 245.1 70.3001 244.5C70.5001 243.9 71.1001 243.5 71.7001 243.7Z" fill="#6692B8"/>
<path fill-rule="evenodd" clip-rule="evenodd" d="M68.6 242.1C69.2 242.3 69.6 242.9 69.4 243.5C69.2 244.1 68.6 244.5 68 244.3C67.4 244.1 67 243.5 67.2 242.9C67.3 242.3 67.9 241.9 68.6 242.1Z" fill="#6692B8"/>
<path fill-rule="evenodd" clip-rule="evenodd" d="M65.7999 239.8C66.3999 240 66.7999 240.6 66.5999 241.2C66.3999 241.8 65.7999 242.2 65.1999 242C64.5999 241.8 64.1999 241.2 64.3999 240.6C64.5999 240 65.1999 239.6 65.7999 239.8Z" fill="#6692B8"/>
<path fill-rule="evenodd" clip-rule="evenodd" d="M63.7001 237.1C64.3001 237.3 64.7001 237.9 64.5001 238.5C64.3001 239.1 63.7001 239.5 63.1001 239.3C62.5001 239.1 62.1001 238.5 62.3001 237.9C62.5001 237.3 63.1001 236.9 63.7001 237.1Z" fill="#6692B8"/>
<path fill-rule="evenodd" clip-rule="evenodd" d="M71.6001 242.5C71.5001 243.1 71.2001 244.1 71.0001 244.7C70.9001 245 71.2001 245.2 71.4001 245.2C71.6001 245.3 71.8001 245.1 71.8001 244.9C71.9001 244.3 72.2001 243.3 72.4001 242.7C72.6001 242.3 71.7001 242.1 71.6001 242.5V242.5Z" fill="#0D2135"/>
<path fill-rule="evenodd" clip-rule="evenodd" d="M69 241C68.7 241.5 68.2 242.4 67.9 242.9C67.8 243.1 67.9 243.4 68.2 243.5C68.4 243.6 68.6 243.5 68.7 243.4C69 242.9 69.5001 242 69.8001 241.5C70.1001 241 69.3 240.5 69 241Z" fill="#0D2135"/>
<path fill-rule="evenodd" clip-rule="evenodd" d="M66.8 239.1C66.4 239.5 65.6 240.3 65.2 240.7C65.1 240.8 65.1 241.1 65.2 241.2C65.3 241.4 65.6 241.5 65.8 241.3C66.2 240.9 67 240.1 67.4 239.7C67.8 239.3 67.1 238.7 66.8 239.1Z" fill="#0D2135"/>
<path fill-rule="evenodd" clip-rule="evenodd" d="M65.2 236.7C64.7 237 63.8 237.5 63.3 237.8C63.1 237.9 63.1 238.1 63.2 238.3C63.3 238.5 63.5 238.7 63.8 238.6C64.3 238.3 65.2 237.8 65.7 237.5C66.1 237.2 65.6 236.4 65.2 236.7Z" fill="#0D2135"/>
<path d="M58.7999 219.1H8.69995L20.4 252H55.5999L58.7999 219.1Z" fill="#3E5970"/>
<path d="M62 184C66.4 184 70 187.6 70 192V210.9C70 215.9 65.5 220 60.5 220H8.5L0 128V110H16C23.7 110.5 30 117 30 125C30 130 27 134.5 23.3 137.2C20.7 139.1 19.3 142.3 19.7 145.6L24.1 184H62Z" fill="#6692B8"/>
<path d="M13.1999 174.4C13.3999 176.4 15.0999 178 17.1999 178H60.6999V175.3C60.6999 172.4 58.3999 170 55.4999 170H17.1999C14.7999 170 12.8999 172.1 13.1999 174.4V174.4Z" fill="#3E5970"/>
<path d="M219.8 135.3L229.4 229.5L247 228.7L248.4 135.6L219.8 135.3Z" fill="#44331D"/>
<path d="M198.1 222.9L194.7 232L205.3 235.4L208.9 224.7L198.1 222.9Z" fill="#95ABC1"/>
<path d="M176.7 235.6C177.4 233.8 179.2 232.6 181.1 232.9C181.6 233 182.1 233.1 182.7 233.1C186.5 233.7 190.5 233.1 193.9 231.2C195.2 230.5 195 229.5 195.5 229C196.1 228.3 197.1 228.1 198 228.4L205.4 231.1L202 246L178 238L176.7 235.6V235.6Z" fill="#38434F"/>
<path d="M202 244.9L201.5 246.3C201.1 247.3 200 247.9 199 247.5C194.8 246 184.3 242.2 178.9 240.2C177.1 239.5 176.1 237.5 176.7 235.7L202 244.9Z" fill="#0D2135"/>
<path fill-rule="evenodd" clip-rule="evenodd" d="M187.5 233.3C187.4 233.9 187.4 235 187.3 235.5C187.3 235.8 187 235.9 186.7 235.8C186.5 235.8 186.3 235.6 186.4 235.4C186.4 234.8 186.5 233.7 186.6 233.2C186.7 232.8 187.6 232.8 187.5 233.3Z" fill="#D0E8FF"/>
<path fill-rule="evenodd" clip-rule="evenodd" d="M190.5 232.8C190.6 233.4 190.8 234.4 190.9 235C191 235.3 190.7 235.4 190.4 235.5C190.2 235.5 190 235.4 190 235.2C189.9 234.6 189.7 233.6 189.6 233C189.5 232.4 190.4 232.3 190.5 232.8Z" fill="#D0E8FF"/>
<path fill-rule="evenodd" clip-rule="evenodd" d="M193.3 231.7C193.5 232.2 194 233.2 194.2 233.7C194.3 233.9 194.2 234.1 194 234.2C193.8 234.3 193.5 234.4 193.4 234.1C193.2 233.6 192.7 232.6 192.5 232.1C192.2 231.6 193.1 231.3 193.3 231.7V231.7Z" fill="#D0E8FF"/>
<path fill-rule="evenodd" clip-rule="evenodd" d="M195.6 230C196 230.4 196.7 231.3 197 231.7C197.1 231.8 197.1 232.1 197 232.2C196.8 232.4 196.5 232.5 196.4 232.3C196 231.9 195.3 231 195 230.6C194.6 230.2 195.3 229.6 195.6 230Z" fill="#D0E8FF"/>
<path d="M231.7 169.1C225.3 180.7 208.8 229.5 208.8 229.5L190.1 222.5C209.5 163.9 214 134 214 134H252C252 134 253 133.4 252 140C250.2 151.8 235.2 163 231.7 169.1Z" fill="#54442B"/>
<path d="M0.161377 212.048L38.0614 212.154L37.9387 256.054L0.0386519 255.948L0.161377 212.048Z" fill="#EDB88B"/>
<path d="M27.6 202.5L11.2 202.4L13.8 199.9L25.1 200L27.6 202.5Z" fill="#EDB88B"/>
<path d="M13.8 199.9L13.7 216.3H11.2V202.4L13.8 199.9Z" fill="#EDB88B"/>
<path d="M27.6 202.5V216.3H25L25.1 200L27.6 202.5Z" fill="#EDB88B"/>
<path d="M18 248C24.6274 248 30 242.627 30 236C30 229.373 24.6274 224 18 224C11.3726 224 6 229.373 6 236C6 242.627 11.3726 248 18 248Z" fill="#FCE2BA"/>
<path d="M214 98.0001L196 116L168 78.0001L186.7 60.1001L214 98.0001Z" fill="#C0D1E2"/>
<path d="M207.3 87.4L205.5 85.3C204.5 84.2 204.3 82.7 204.2 81.3C204 80.6 203.9 78.1 203.4 77.6C202.8 77 202 75.3 201.4 76.3C200.9 77 201.6 77.8 201.9 78.4V79.6C200.2 78.9 199.6 76.6 197.8 76C197.1 75.8 196.3 76.1 196.1 76.8C196 77.2 196.2 77.8 195.9 78.1C195.4 78.6 194.7 79 194.9 79.8C195 80.3 195.4 80.7 195.3 81.2C195.2 81.7 194.7 82.1 194.7 82.6C194.7 82.9 194.9 83.2 195 83.4C194.8 84.6 194.4 85.5 195.6 86.5C197.1 87.6 200.1 89.3 201.2 90.9L205.4 98.8C207.3 96.7 209.3 94.6 211.4 92.6L207.3 87.4Z" fill="#FFDAC7"/>
<path d="M249 255.9L207.1 256C203.2 256 200.1 252.9 200.1 249V233.1C200.1 229.2 203.2 226.1 207.1 226.1L249 226C252.9 226 256 229.1 256 233V248.9C256 252.7 252.9 255.9 249 255.9Z" fill="#BFD3D6"/>
<path d="M200 236H256V238H200V236Z" fill="#7D8F92"/>
<path d="M244.6 242H241.3C240.5 242 239.9 241.4 239.9 240.6V234H245.9V240.6C246 241.4 245.4 242 244.6 242V242Z" fill="#F4FAFF"/>
<path d="M214.6 242H211.3C210.5 242 209.9 241.4 209.9 240.6V234H215.9V240.6C216 241.4 215.4 242 214.6 242V242Z" fill="#F4FAFF"/>
<path d="M214 226.4V221.2C214 219.4 215.3 218 217.1 218H236V220H217.1C216.6 220 216 220.3 216 221.2V226.4H214Z" fill="#BFD3D6"/>
<path d="M251.1 220.9L252.1 225.4C252.2 226 252.6 226.5 253.2 226.6L254 226.7V228H220.7L220.8 226.8L225.4 225.8L227.3 219.9C228.9 215.2 232.8 211.2 239.5 211.2C246.2 211.2 250.2 215.7 251.1 220.9V220.9Z" fill="#E7A33E"/>
<path d="M119.2 210.2C119.2 210.2 120.7 223.4 121.8 230.6L122.2 232.7L122.6 235L122.7 235.6L124 238.5C124.4 240 122.6 242.1 121.1 242.1L102 242.2C99.4001 242.1 100.6 239.8 101.2 239.7C104.9 239.1 108.4 237.4 110.8 236C110.9 236 110.9 235.9 111 235.9C112.1 235.2 112.7 234.4 113 233.6C113.6 232.1 113.2 230.8 113.2 230.8L107.8 208.8L119.2 210.2Z" fill="#E8AE83"/>
<path d="M99.9968 242.164L123.997 242.042L124.007 243.942L100.007 244.064L99.9968 242.164Z" fill="#0D2135"/>
<path d="M106.8 237.9L111.6 243.6H108.1L104.9 238.7L106.8 237.9Z" fill="#0D2135"/>
<path d="M119.4 243.8H116.2L110.8 235.8C111.9 235.1 112.5 234.3 112.8 233.5L116.1 238.7L122.1 232.7L122.5 235L122.6 235.6C121.2 236.6 118.1 239.5 119.4 243.8V243.8Z" fill="#0D2135"/>
<path d="M100.5 180.2L108 214H173.6L170.8 164.8L114.6 164.9C106.5 165.1 100.1 172 100.5 180.2V180.2Z" fill="#0D2135"/>
<path d="M115.5 120.4C114.8 120.5 114.2 120 114.1 119.3L111.8 100.3C111.7 99.6 112.2 98.9999 112.9 98.8999C113.6 98.7999 114.2 99.2999 114.3 99.9999L116.6 119C116.7 119.7 116.2 120.3 115.5 120.4Z" fill="#38434F"/>
<path d="M117.1 123L117.2 122.6C118.8 118.7 117.7 117.5 117.9 116.4C118 115.7 118.2 114.5 118.3 113.7C118.5 112.7 116.9 112.4 116.7 113.4L116.2 115.6C115.7 116.8 114.7 116 114.3 115.2C113.6 114.1 113.2 112.7 113.2 110.2C113.2 110.2 113.2 109.2 112.7 108.9C112.7 108.5 112.8 108 112.4 107.8C111.8 107.6 111.5 108.1 111.4 108.6C111 108.5 110.6 108.8 110.5 109.2C109.6 115.1 111.2 119.7 112.1 121.6C114.1 126 111.6 131.9 111.6 131.9L116.7 134.2L118.6 130.2C118.5 129.8 117 123.5 117.1 123V123Z" fill="#E8AE83"/>
<path d="M163.3 119.5C154.4 124.6 149 124.4 146.8 123.3L146 120.6L125.5 145.7L120 128H108L114.3 152.1C114.8 154.8 116.1 157.3 118.2 159.1C119.3 160 120.6 160.9 122.3 161.4C126.4 162.6 130.7 162.2 134.7 161.1C134.7 167 135.3 171.1 135.4 172.1L173 173L174.2 136.5C171.8 122.8 163.3 119.5 163.3 119.5V119.5Z" fill="#A67DB8"/>
<path d="M162.3 105.1C163.6 103.2 164.3 101 164.4 98.5C164.3 83.4 142.5 81.8 140.3 96.8C140.2 99.9 138.7 101.3 138.6 102.6C138.6 103.9 140.3 103.6 140.1 105.8C139.9 109.7 140.2 109.9 144.1 111.3C148.1 112.8 146.3 120.2 144.3 125.8C142.2 131.5 161.3 120.6 161.3 120.6C155.5 113.3 158.1 111.3 162.3 105.1Z" fill="#E8AE83"/>
<path d="M176.4 132C170.3 125.7 175.8 120.3 172.8 112.4C169.7 104.5 165.4 103.5 164.7 96.7C164.1 88.7 156 83.7 148.1 85.6C145.7 86.2 139.3 88.4 140.7 92.8C141.6 95.6 146.8 93.6 147.5 94.8C148.1 95.9 146.3 98 148.7 99.4C148.9 99.5 149.2 99.7 149.5 99.8C150.1 94.5 157.7 97.3 154.7 101.7C152.5 104.7 152.7 108 154.3 112C155.9 115.9 149.2 117.6 151.5 125.4C153 130.7 156.9 132.2 154.8 138.3C151.8 147.4 163.9 157.7 176.3 145.9C176.3 146 182.5 138.3 176.4 132Z" fill="#0D2135"/>
<path d="M130 218L176 216L168.5 252H134L130 218Z" fill="#3E5970"/>
<path d="M119.2 185.7V209.7C119.2 215.4 123.8 220 129.5 220H178L188 128V110H174.1C173.7 110 173.4 110 173.1 110C165.4 110.5 159.3 118.1 159.3 125.9C159.3 131.7 162.6 136.6 167.3 139.1C168.8 139.9 169.6 141.6 169.4 143.3L164.6 185.5H119.2V185.7Z" fill="#6692B8"/>
<path d="M142 184.8H171.8V220H134V192.8C134 188.4 137.6 184.8 142 184.8Z" fill="#6692B8"/>
<path d="M133.7 219.8C133.7 219.8 136.1 229.7 137.2 236.9L137.6 239L138 241.3L138.1 241.9L139 247.3C139.4 248.8 137.6 250.1 136 250.1H120C118.1 250.1 116.7 249.8 115.8 249.3C115.1 248.9 114.8 247.9 115.1 247.1C115.3 246.5 115.9 246.1 116.5 246C120.2 245.4 123.7 243.7 126.1 242.3C126.2 242.3 126.2 242.2 126.3 242.2C127.4 241.5 128 240.7 128.3 239.9C128.9 238.4 128.5 237.1 128.5 237.1L122.4 220.1L133.7 219.8Z" fill="#E8AE83"/>
<path d="M114 250H138V252H114V250Z" fill="#0D2135"/>
<path d="M122.3 244.2L128 250H123.6L120.3 245L122.3 244.2Z" fill="#0D2135"/>
<path d="M134.9 250.1L132 250L126.3 242.1C127.4 241.4 128 240.6 128.3 239.8L131.6 245L137.6 239L138.1 241.9C136.7 242.9 133.6 245.8 134.9 250.1V250.1Z" fill="#0D2135"/>
<path d="M206.6 37.6L214.2 36L223.9 57.3L237.6 71.6L226.9 88.3C226.9 88.3 211.7 64.5 211.4 64.1C211.1 63.7 206.6 37.6 206.6 37.6V37.6Z" fill="#A7AA83"/>
<path d="M243.2 58.0001C243.4 57.1001 243.7 56.2001 243.9 55.3001C248 41.9001 230.5 34.9001 222 44.9001C219.9 48.0001 219.5 52.0001 220.5 55.6001C220.7 57.7001 220.1 59.2001 220.5 60.2001C220.8 61.3001 222.1 60.8001 222.7 62.1001C223.9 66.5001 224.4 66.7001 229.2 66.9001C232.9 67.8001 230.1 73.1001 228.3 77.3001C235.4 77.7001 239.8 76.6001 244.9 71.6001C243.8 66.8001 242.1 63.3001 243.2 58.0001V58.0001Z" fill="#FFDAC7"/>
<path d="M244.4 46.6C241.2 38.6 230.2 36.4 222.5 43C219.9 45.2 217.6 46.6 220.2 50.8C221.8 50.9 224.4 50.4 227.1 49.2C227.1 49.3 227.6 50.6 228.1 51.9C228.4 52.7 229.4 53 230 52.5C231.5 51.1 234.6 51.5 235 54.2C235 54.2 236.1 60 243.1 60.1C244 57.8 246.7 53.5 244.4 46.6Z" fill="#684337"/>
<path d="M229.6 53.1L223.1 55.1L222.6 53.8C222.5 53.5 222.2 53.4 222 53.5C221.7 53.6 221.6 53.9 221.7 54.1L222.3 55.8L222.9 57.6C223 57.8 223.2 57.9 223.4 57.9H223.6C223.9 57.8 224 57.5 223.9 57.3L223.5 56.1L229.9 54.1C230.2 54 230.3 53.7 230.2 53.5C230.1 53.2 229.8 53 229.6 53.1Z" fill="#46080A"/>
<path d="M244.6 68.2L236.7 70.9C230.7 73 226.1 77.9 224.4 84C223.2 88.4 222.1 93.4 220.6 99.3L204.4 83.9L200.5 89.8C199.5 91.3 199.5 93.2 200.5 94.7L216 118V120L214 134H232C243 133.9 243.4 139.4 252 140C256 134 256 128.7 256 128.7V116.8C256 112.3 255.5 107.8 254.4 103.4C251.6 92.3 246.3 71.1 244.6 68.2V68.2Z" fill="#AEB48A"/>
<path d="M147.6 173.5L127.3 175.7C118.3 177.9 111.8 185.2 114.1 193.4L122 222.1L140 222L135 203.4C133.4 197.3 137.3 191 143.6 189.9L161.8 186.6C168.1 184.8 166.1 176.3 164 171.9L147.6 173.5Z" fill="#0D2135"/>
<path d="M171.8 178H124V175.3C124 172.4 126.4 170 129.3 170H171.9C174.2 170 176.1 172 175.9 174.3C175.7 176.4 173.9 178 171.8 178Z" fill="#3E5970"/>
</g>
<defs>
<clipPath id="clip0_81535_631">
<rect width="256" height="256" fill="white"/>
</clipPath>
</defs>
</svg>
