<svg width="32" height="32" viewBox="0 0 32 32" fill="none" xmlns="http://www.w3.org/2000/svg">
<path fill-rule="evenodd" clip-rule="evenodd" d="M16.969 8.35278C19.2489 8.35278 21.4341 9.27597 22.862 10.5432C23.2231 10.8638 23.7637 10.8619 24.1025 10.5184L25.8014 8.79544C26.1598 8.43178 26.1467 7.83634 25.7596 7.50401C24.6196 6.52402 23.0892 5.56034 21.2056 4.94336L21.7384 2.4062C21.854 1.8532 21.4328 1.3335 20.8674 1.3335H17.5847C17.1649 1.3335 16.8019 1.6273 16.7144 2.03797L16.2345 4.29438C11.8705 4.51245 8.17188 6.68985 8.17188 11.1576C8.17188 15.0254 11.232 16.6831 14.4619 17.8302C17.522 18.9774 19.1366 19.403 19.1366 21.0177C19.1366 22.6754 17.522 23.6527 15.1415 23.6527C12.9713 23.6527 10.6979 22.9365 8.9338 21.1972C8.58777 20.8557 8.03411 20.8531 7.68808 21.1946L5.86258 22.9953C5.50545 23.3472 5.50871 23.9257 5.86846 24.2743C7.29177 25.6558 9.09376 26.6561 11.1504 27.2162L10.6496 29.5667C10.5327 30.1177 10.9499 30.6374 11.514 30.642L14.802 30.6668C15.2251 30.6701 15.5927 30.3743 15.6789 29.9597L16.1535 27.7C21.3787 27.3775 24.5765 24.5374 24.5765 20.3804C24.5765 16.5558 21.3898 14.9405 17.522 13.623C15.3119 12.8147 13.399 12.263 13.399 10.6059C13.399 8.99131 15.1846 8.35278 16.969 8.35278Z" fill="#00D64F"/>
</svg>
